<?xml version="1.0" encoding="UTF-8"?>
<svg width="1272px" height="931px" viewBox="0 0 1272 931" version="1.1" xmlns="http://www.w3.org/2000/svg" xmlns:xlink="http://www.w3.org/1999/xlink">
    <!-- Generator: Sketch 52.3 (67297) - http://www.bohemiancoding.com/sketch -->
    <title>Group 8</title>
    <desc>Created with Sketch.</desc>
    <g id="Page-1" stroke="none" stroke-width="1" fill="none" fill-rule="evenodd">
        <g id="Group-2" transform="translate(0.000000, -13.000000)">
            <g id="Group-8">
                <path d="M27.2132573,354.50675 C30.0379128,353.222682 32.1338172,352.358264 33.5009706,351.913497 C40.4762194,349.644284 46.2573907,346.725157 52.2432323,337.857789 C63.8617597,320.646213 65.892862,306.737183 79.9134338,288.675159 C86.5287491,280.152968 97.5526384,275.763065 107.370927,271.985361 C116.611114,268.430088 131.784431,266.321584 158.405545,275.961744 C161.879917,277.2199 165.644007,279.000885 168.068849,280.664977 C168.556351,280.999534 173.103146,282.644239 178.691918,286.892826 C185.65586,292.186818 194.47871,300.069395 195.081298,300.776583 C203.803183,311.012463 210.051896,321.875939 210.320699,335.293348 C210.525383,345.510248 207.259369,353.186869 204.314929,357.656636 C202.512928,360.392137 192.615313,369.418758 190.65518,370.146711 C184.908073,372.281071 170.127337,374.868405 158.405545,381.027 C156.816801,381.861722 151.315412,385.82782 144.306468,394.396115 C140.067529,399.578135 131.879598,410.778607 119.742674,427.997531 C108.228831,435.675875 97.6218551,439.616316 87.9217471,439.818857 C81.5746512,439.951386 70.0818038,440.735463 57.1407256,437.821118 C52.5830934,436.794734 45.4427925,434.105012 35.7198228,429.75195 C24.0361156,421.898372 15.6505667,414.806349 10.5631763,408.475881 C5.4757858,402.145413 2.23698262,394.772735 0.846766744,386.357845 C-0.282255581,380.047573 -0.282255581,375.38425 0.846766744,372.367876 C1.97578907,369.351503 5.21459224,365.361818 10.5631763,360.39882 C14.653999,357.918281 17.7988212,356.354884 19.9976429,355.70863 C22.1964645,355.062376 24.6016693,354.661749 27.2132573,354.50675 Z" id="Path-2" fill="#FFF60F"></path>
                <path d="M29.5318079,375.871722 C29.42699,374.996687 29.269763,374.121651 29.1998844,373.229116 L29.0950664,370.569009 C28.7223126,363.499516 29.4471978,356.414899 31.2438348,349.568164 C32.9537032,342.731355 35.7243441,336.205827 39.4545759,330.229886 C40.2407107,329.004836 40.9744365,327.744786 41.8129803,326.554738 L44.4858386,323.054597 C44.9400498,322.494574 45.3593217,321.917051 45.8310025,321.304527 L47.3159238,319.746964 L50.303236,316.66684 C54.3944468,312.89009 58.9571057,309.660552 63.8771633,307.058953 C72.7088548,302.301757 82.646463,299.988124 92.6671662,300.356184 C95.3225549,300.618694 96.8773548,300.898706 97.5412019,301.021211 C98.2050491,301.143715 97.7857772,301.423727 96.4580829,302.421267 C95.6887624,303.045579 94.9594188,303.717768 94.2743751,304.433848 C94.1311033,304.563328 93.9727266,304.674976 93.8026943,304.766361 L93.558119,304.871365 L93.0689685,305.221379 C92.369508,305.424988 91.6575737,305.582828 90.9376697,305.693899 C76.1420702,307.666809 62.6189485,315.114621 53.0285033,326.572238 C33.262013,350.264605 33.8196439,384.891707 54.3387279,407.933012 C64.2783489,419.201783 77.8003771,426.682717 92.6147573,429.108864 C93.0180935,429.337255 93.4459034,429.51925 93.8900426,429.651386 L92.6147573,429.108864 C110.245548,430.977351 127.838219,425.251163 141.005721,413.35823 L111.307296,384.02705 C106.427437,379.161854 101.576694,374.255824 96.7550671,369.308958 C95.972112,368.504495 95.538758,367.422331 95.5496605,366.298837 C95.7068874,351.895757 96.248447,337.510179 96.8598851,322.862089 C97.4014446,311.031613 98.7815479,301.616234 100.353818,299.218638 C101.926087,296.821042 103.183903,305.816403 103.84775,318.136899 C104.598945,333.152503 105.105566,348.658127 105.227853,364.076247 C120.414813,379.150187 135.537717,394.387467 150.596565,409.788086 C152.560087,411.823051 152.560087,415.050916 150.596565,417.08588 C147.209813,420.422234 143.499553,423.412131 139.5208,426.011239 C133.551542,429.887709 127.031559,432.83783 120.181884,434.761591 C113.33602,436.940984 106.191801,438.033418 99.0086535,437.999221 C91.8253298,437.916867 84.6924426,436.784897 77.8354232,434.639086 C70.9881057,432.396917 64.5117212,429.147072 58.6187951,424.996198 L54.3387279,421.741067 C52.9935639,420.551019 51.700809,419.32597 50.3905843,418.118422 C49.0842065,416.899621 47.8532231,415.602162 46.7044856,414.233265 C45.4761018,412.936124 44.3379068,411.556169 43.2979016,410.103099 C38.9782112,404.435885 35.5765306,398.12244 33.2179066,391.394846 L32.3444235,388.874745 C32.025776,388.043157 31.7688558,387.189134 31.5757584,386.319642 L30.3179427,381.069431 C29.9685495,379.406864 29.7938529,377.639293 29.5318079,375.871722 Z M187.300325,361.223633 L186.950932,361.223633 C178.216101,361.013624 169.271634,361.066126 160.397046,361.626149 C151.522457,362.186171 142.927384,363.166211 135.083505,364.041246 C130.349227,364.601268 127.449263,365.283796 130.069712,366.14133 C134.07525,367.192021 138.168732,367.871575 142.298476,368.171412 C151.242943,368.906442 159.768138,370.078989 167.629486,370.411502 C172.695688,370.621511 177.76189,370.621511 182.93291,370.516506 C182.73898,375.859084 181.852236,381.153704 180.294991,386.26714 C178.091048,390.846508 175.495868,395.226337 172.538461,399.357667 C167.978879,394.894987 163.29701,390.72982 158.370565,386.687157 L138.49009,370.674013 C137.651546,369.991485 135.432899,368.573928 134.402189,367.961404 C132.358238,366.753855 132.428117,367.261375 133.214252,368.486425 C137.360991,374.686718 141.937676,380.587331 146.910467,386.144635 C154.142907,394.264962 161.759679,402.612798 169.621027,410.540617 L169.97042,410.87313 C170.938693,411.667005 172.18216,412.042949 173.427173,411.918226 C174.672185,411.793504 175.816717,411.178336 176.608892,410.208103 L176.766119,410.015596 C184.382378,400.748199 189.227364,389.512127 190.741848,377.604292 C191.30103,374.796337 191.680314,371.955421 191.877376,369.098949 L191.999664,366.298837 L191.999664,366.193833 C192.030387,363.53751 189.949702,361.336899 187.300325,361.223633 Z M186.129858,341.500339 C185.941843,342.544238 185.643168,343.565058 185.238905,344.545462 C186.057503,344.887629 186.692535,345.561958 186.985871,346.400536 C187.509961,348.833134 181.570276,350.058183 174.425184,350.373196 C156.466372,351.160728 138.437681,351.318234 120.39152,351.178228 L120.286702,351.178228 C117.392233,351.178228 115.045803,348.827629 115.045803,345.928017 L115.325318,324.262146 L115.622302,312.291664 C115.325318,301.231219 115.255439,290.188275 115.342787,279.180332 L115.342787,278.970323 C115.352022,277.642851 115.887295,276.373427 116.830847,275.441327 C117.774399,274.509227 119.048933,273.990808 120.37405,274.000123 C131.704368,274.172432 142.826321,277.077922 152.797743,282.470464 C154.049274,283.100679 155.257371,283.813963 156.413963,284.60555 L159.907895,286.880642 L163.26207,289.470746 C164.377394,290.282367 165.439416,291.16506 166.441549,292.113352 C168.517626,293.975784 170.466939,295.975334 172.276416,298.098593 C173.167369,299.166136 174.1282,300.181177 174.966744,301.283721 L177.377557,304.678858 C185.431071,316.264324 188.435853,330.614901 186.129858,341.430336 L186.129858,341.500339 Z M123.885452,302.596274 C125.050096,301.51123 126.21474,300.478689 127.379385,299.498649 C127.886005,299.096133 128.410095,298.728618 128.934184,298.361103 C131.956436,294.090932 136.39373,291.360822 140.55151,288.245697 L141.04066,287.913183 C135.720205,285.888902 130.168656,284.536761 124.51436,283.888021 C124.287254,287.895682 124.042679,291.903344 123.728225,295.893504 L123.885452,302.596274 Z M134.367249,324.419652 C135.153384,323.737124 135.974458,323.072098 136.778063,322.407071 C142.10631,315.826806 148.867069,310.734101 155.330844,305.343884 C157.501774,303.47737 160.131593,302.226591 162.947616,301.721239 C162.510875,301.301222 162.074133,300.863704 161.619922,300.443687 C157.975162,297.118797 153.952823,294.234718 149.635734,291.850842 C145.565303,295.630994 142.420763,300.391185 136.585896,302.351264 C134.437128,305.011371 132.410647,307.793983 130.087182,310.261582 C128.543535,311.748616 126.824647,313.041542 124.968571,314.111737 C124.705746,314.27517 124.404315,314.365761 124.095088,314.374248 L124.51436,334.272548 C127.595877,330.783736 130.911147,327.509352 134.437128,324.472154 L134.367249,324.419652 Z M160.798848,330.33489 C163.821099,326.064718 168.258394,323.334608 172.416173,320.219483 C173.297071,319.567377 174.311371,319.119096 175.386016,318.90693 L175.211319,318.539415 C173.024579,314.14446 170.314517,310.031009 167.140335,306.288922 C160.15247,312.781684 154.282664,320.604498 145.565303,325.224684 C141.984022,329.424853 138.49009,333.747527 134.576885,337.755188 C133.331647,338.999685 132.013247,340.168484 130.628742,341.255329 L134.367249,341.255329 C139.870193,341.255329 145.373136,341.255329 150.89355,341.447837 C150.894958,341.068467 150.991044,340.695472 151.173064,340.362793 C153.302396,336.905808 156.071492,333.888249 159.331396,331.472436 C159.820547,331.08742 160.362106,330.719905 160.886196,330.33489 L160.798848,330.33489 Z M181.919669,343.232909 C181.517189,342.323834 181.269198,341.353767 181.185943,340.362793 C180.888199,335.757721 180.043701,331.204603 178.670312,326.799748 C175.787818,329.827369 172.922793,332.889993 168.555378,334.342551 C166.528897,336.845152 164.607234,339.452757 162.440996,341.832852 L174.058321,342.235369 C176.736174,342.292371 179.400524,342.632606 182.007017,343.250409 L181.919669,343.232909 Z" id="Shape" fill="#111D5F" fill-rule="nonzero"></path>
                <path d="M992.58797,268.633658 C995.412625,267.34959 997.50853,266.485172 998.875683,266.040405 C1005.85093,263.771192 1011.6321,260.852065 1017.61794,251.984696 C1029.23647,234.773121 1031.26757,220.864091 1045.28815,202.802067 C1051.90346,194.279876 1062.92735,189.889973 1072.74564,186.112269 C1081.98583,182.556996 1097.15914,180.448491 1123.78026,190.088652 C1127.25463,191.346808 1131.01872,193.127793 1133.44356,194.791885 C1133.93106,195.126442 1138.47786,196.771147 1144.06663,201.019734 C1151.03057,206.313726 1159.85342,214.196303 1160.45601,214.903491 C1169.1779,225.139371 1175.42661,236.002847 1175.69541,249.420256 C1175.9001,259.637156 1172.63408,267.313776 1169.68964,271.783544 C1167.88764,274.519045 1157.99003,283.545665 1156.02989,284.273619 C1150.28279,286.407979 1135.50205,288.995312 1123.78026,295.153908 C1122.19151,295.98863 1116.69012,299.954728 1109.68118,308.523023 C1105.44224,313.705043 1097.25431,324.905515 1085.11739,342.124439 C1073.60354,349.802782 1062.99657,353.743224 1053.29646,353.945765 C1046.94936,354.078294 1035.45652,354.86237 1022.51544,351.948026 C1017.95781,350.921642 1010.81751,348.23192 1001.09454,343.878858 C989.410828,336.02528 981.025279,328.933257 975.937889,322.602789 C970.850498,316.272321 967.611695,308.899643 966.221479,300.484753 C965.092457,294.174481 965.092457,289.511158 966.221479,286.494784 C967.350502,283.478411 970.589305,279.488726 975.937889,274.525728 C980.028712,272.045189 983.173534,270.481792 985.372356,269.835538 C987.571177,269.189284 989.976382,268.788657 992.58797,268.633658 Z" id="Path-2" fill="#FFF60F" transform="translate(1070.539639, 268.633658) rotate(39.000000) translate(-1070.539639, -268.633658) "></path>
                <path d="M989.601107,288.600086 C989.496289,287.725051 989.339063,286.850015 989.269184,285.957479 L989.164366,283.297372 C988.791612,276.22788 989.516497,269.143262 991.313134,262.296528 C993.023003,255.459719 995.793644,248.934191 999.523875,242.95825 C1000.31001,241.7332 1001.04374,240.47315 1001.88228,239.283102 L1004.55514,235.782961 C1005.00935,235.222938 1005.42862,234.645415 1005.9003,234.03289 L1007.38522,232.475328 L1010.37254,229.395204 C1014.46375,225.618454 1019.02641,222.388916 1023.94646,219.787317 C1032.77815,215.030121 1042.71576,212.716488 1052.73647,213.084548 C1055.39185,213.347058 1056.94665,213.62707 1057.6105,213.749574 C1058.27435,213.872079 1057.85508,214.152091 1056.52738,215.149631 C1055.75806,215.773943 1055.02872,216.446131 1054.34367,217.162212 C1054.2004,217.291692 1054.04203,217.40334 1053.87199,217.494725 L1053.62742,217.599729 L1053.13827,217.949743 C1052.43881,218.153352 1051.72687,218.311192 1051.00697,218.422262 C1036.21137,220.395173 1022.68825,227.842985 1013.0978,239.300602 C993.331313,262.992969 993.888943,297.620071 1014.40803,320.661376 C1024.34765,331.930147 1037.86968,339.411081 1052.68406,341.837228 C1053.08739,342.065618 1053.5152,342.247614 1053.95934,342.379749 L1052.68406,341.837228 C1070.31485,343.705715 1087.90752,337.979527 1101.07502,326.086594 L1071.3766,296.755414 C1066.49674,291.890218 1061.64599,286.984187 1056.82437,282.037322 C1056.04141,281.232859 1055.60806,280.150695 1055.61896,279.027201 C1055.77619,264.624121 1056.31775,250.238542 1056.92918,235.590453 C1057.47074,223.759977 1058.85085,214.344598 1060.42312,211.947002 C1061.99539,209.549405 1063.2532,218.544767 1063.91705,230.865263 C1064.66824,245.880867 1065.17487,261.386491 1065.29715,276.804611 C1080.48411,291.878551 1095.60702,307.115831 1110.66586,322.51645 C1112.62939,324.551414 1112.62939,327.77928 1110.66586,329.814244 C1107.27911,333.150598 1103.56885,336.140495 1099.5901,338.739603 C1093.62084,342.616073 1087.10086,345.566194 1080.25118,347.489955 C1073.40532,349.669348 1066.2611,350.761782 1059.07795,350.727585 C1051.89463,350.645231 1044.76174,349.513261 1037.90472,347.36745 C1031.05741,345.12528 1024.58102,341.875436 1018.68809,337.724562 L1014.40803,334.469431 C1013.06286,333.279383 1011.77011,332.054334 1010.45988,330.846785 C1009.15351,329.627985 1007.92252,328.330525 1006.77379,326.961629 C1005.5454,325.664488 1004.40721,324.284533 1003.3672,322.831463 C999.047511,317.164249 995.64583,310.850804 993.287206,304.12321 L992.413723,301.603109 C992.095075,300.771521 991.838155,299.917498 991.645058,299.048006 L990.387242,293.797795 C990.037849,292.135228 989.863152,290.367657 989.601107,288.600086 Z M1147.36962,273.951996 L1147.02023,273.951996 C1138.2854,273.741988 1129.34093,273.79449 1120.46635,274.354513 C1111.59176,274.914535 1102.99668,275.894575 1095.1528,276.76961 C1090.41853,277.329632 1087.51856,278.01216 1090.13901,278.869694 C1094.14455,279.920385 1098.23803,280.599939 1102.36778,280.899776 C1111.31224,281.634806 1119.83744,282.807353 1127.69879,283.139866 C1132.76499,283.349875 1137.83119,283.349875 1143.00221,283.24487 C1142.80828,288.587448 1141.92154,293.882067 1140.36429,298.995504 C1138.16035,303.574872 1135.56517,307.954701 1132.60776,312.086031 C1128.04818,307.623351 1123.36631,303.458184 1118.43986,299.415521 L1098.55939,283.402377 C1097.72085,282.719849 1095.5022,281.302292 1094.47149,280.689768 C1092.42754,279.482219 1092.49742,279.989739 1093.28355,281.214789 C1097.43029,287.415082 1102.00698,293.315695 1106.97977,298.872999 C1114.21221,306.993326 1121.82898,315.341162 1129.69033,323.268981 L1130.03972,323.601494 C1131.00799,324.395369 1132.25146,324.771313 1133.49647,324.64659 C1134.74148,324.521868 1135.88602,323.9067 1136.67819,322.936467 L1136.83542,322.743959 C1144.45168,313.476563 1149.29666,302.240491 1150.81115,290.332656 C1151.37033,287.524701 1151.74961,284.683785 1151.94668,281.827313 L1152.06896,279.027201 L1152.06896,278.922196 C1152.09969,276.265874 1150.019,274.065263 1147.36962,273.951996 Z M1146.19916,254.228703 C1146.01114,255.272602 1145.71247,256.293422 1145.3082,257.273825 C1146.1268,257.615993 1146.76183,258.290322 1147.05517,259.1289 C1147.57926,261.561498 1141.63958,262.786547 1134.49448,263.10156 C1116.53567,263.889092 1098.50698,264.046598 1080.46082,263.906592 L1080.356,263.906592 C1077.46153,263.906592 1075.1151,261.555993 1075.1151,258.656381 L1075.39462,236.990509 L1075.6916,225.020028 C1075.39462,213.959583 1075.32474,202.916639 1075.41209,191.908696 L1075.41209,191.698687 C1075.42132,190.371215 1075.95659,189.101791 1076.90015,188.169691 C1077.8437,187.237591 1079.11823,186.719172 1080.44335,186.728487 C1091.77367,186.900795 1102.89562,189.806286 1112.86704,195.198828 C1114.11857,195.829043 1115.32667,196.542327 1116.48326,197.333914 L1119.97719,199.609006 L1123.33137,202.19911 C1124.44669,203.010731 1125.50872,203.893424 1126.51085,204.841716 C1128.58693,206.704148 1130.53624,208.703697 1132.34572,210.826957 C1133.23667,211.8945 1134.1975,212.909541 1135.03604,214.012085 L1137.44686,217.407222 C1145.50037,228.992688 1148.50515,243.343265 1146.19916,254.1587 L1146.19916,254.228703 Z M1083.95475,215.324638 C1085.1194,214.239594 1086.28404,213.207053 1087.44868,212.227013 C1087.9553,211.824497 1088.47939,211.456982 1089.00348,211.089467 C1092.02574,206.819296 1096.46303,204.089186 1100.62081,200.97406 L1101.10996,200.641547 C1095.7895,198.617266 1090.23796,197.265125 1084.58366,196.616385 C1084.35655,200.624046 1084.11198,204.631708 1083.79752,208.621868 L1083.95475,215.324638 Z M1094.43655,237.148016 C1095.22268,236.465488 1096.04376,235.800462 1096.84736,235.135435 C1102.17561,228.55517 1108.93637,223.462465 1115.40014,218.072248 C1117.57107,216.205734 1120.20089,214.954955 1123.01692,214.449603 C1122.58017,214.029586 1122.14343,213.592068 1121.68922,213.172051 C1118.04446,209.847161 1114.02212,206.963082 1109.70503,204.579205 C1105.6346,208.359358 1102.49006,213.119549 1096.6552,215.079628 C1094.50643,217.739735 1092.47995,220.522347 1090.15648,222.989946 C1088.61283,224.47698 1086.89395,225.769906 1085.03787,226.840101 C1084.77505,227.003534 1084.47361,227.094124 1084.16439,227.102612 L1084.58366,247.000912 C1087.66518,243.5121 1090.98045,240.237716 1094.50643,237.200518 L1094.43655,237.148016 Z M1120.86815,243.063254 C1123.8904,238.793082 1128.32769,236.062972 1132.48547,232.947847 C1133.36637,232.295741 1134.38067,231.84746 1135.45532,231.635294 L1135.28062,231.267779 C1133.09388,226.872824 1130.38382,222.759373 1127.20963,219.017286 C1120.22177,225.510048 1114.35196,233.332862 1105.6346,237.953048 C1102.05332,242.153217 1098.55939,246.475891 1094.64618,250.483552 C1093.40095,251.728049 1092.08255,252.896848 1090.69804,253.983693 L1094.43655,253.983693 C1099.93949,253.983693 1105.44244,253.983693 1110.96285,254.176201 C1110.96426,253.796831 1111.06034,253.423835 1111.24236,253.091157 C1113.3717,249.634172 1116.14079,246.616612 1119.4007,244.2008 C1119.88985,243.815784 1120.43141,243.448269 1120.9555,243.063254 L1120.86815,243.063254 Z M1141.98897,255.961273 C1141.58649,255.052198 1141.3385,254.08213 1141.25524,253.091157 C1140.9575,248.486085 1140.113,243.932967 1138.73961,239.528112 C1135.85712,242.555733 1132.99209,245.618357 1128.62468,247.070915 C1126.5982,249.573516 1124.67653,252.181121 1122.5103,254.561216 L1134.12762,254.963733 C1136.80547,255.020735 1139.46982,255.36097 1142.07632,255.978773 L1141.98897,255.961273 Z" id="Shape" fill="#111D5F" fill-rule="nonzero" transform="translate(1070.569300, 268.728364) rotate(32.000000) translate(-1070.569300, -268.728364) "></path>
                <path d="M587.58797,859.633658 C590.412625,858.34959 592.50853,857.485172 593.875683,857.040405 C600.850932,854.771192 606.632103,851.852065 612.617945,842.984696 C624.236472,825.773121 626.267575,811.864091 640.288146,793.802067 C646.903462,785.279876 657.927351,780.889973 667.74564,777.112269 C676.985827,773.556996 692.159143,771.448491 718.780258,781.088652 C722.25463,782.346808 726.01872,784.127793 728.443562,785.791885 C728.931064,786.126442 733.477859,787.771147 739.06663,792.019734 C746.030573,797.313726 754.853423,805.196303 755.456011,805.903491 C764.177895,816.139371 770.426609,827.002847 770.695412,840.420256 C770.900096,850.637156 767.634082,858.313776 764.689641,862.783544 C762.887641,865.519045 752.990025,874.545665 751.029893,875.273619 C745.282786,877.407979 730.50205,879.995312 718.780258,886.153908 C717.191514,886.98863 711.690125,890.954728 704.681181,899.523023 C700.442242,904.705043 692.25431,915.905515 680.117387,933.124439 C668.603544,940.802782 657.996568,944.743224 648.29646,944.945765 C641.949364,945.078294 630.456516,945.86237 617.515438,942.948026 C612.957806,941.921642 605.817505,939.23192 596.094535,934.878858 C584.410828,927.02528 576.025279,919.933257 570.937889,913.602789 C565.850498,907.272321 562.611695,899.899643 561.221479,891.484753 C560.092457,885.174481 560.092457,880.511158 561.221479,877.494784 C562.350502,874.478411 565.589305,870.488726 570.937889,865.525728 C575.028712,863.045189 578.173534,861.481792 580.372356,860.835538 C582.571177,860.189284 584.976382,859.788657 587.58797,859.633658 Z" id="Path-2" fill="#FFF60F" transform="translate(665.539639, 859.633658) rotate(39.000000) translate(-665.539639, -859.633658) "></path>
                <path d="M604.973476,879.887303 C604.868658,879.012267 604.711431,878.137232 604.641552,877.244696 L604.536734,874.584589 C604.16398,867.515097 604.888866,860.430479 606.685503,853.583744 C608.395371,846.746936 611.166012,840.221408 614.896244,834.245466 C615.682379,833.020417 616.416104,831.760366 617.254648,830.570318 L619.927507,827.070178 C620.381718,826.510155 620.80099,825.932632 621.27267,825.320107 L622.757592,823.762545 L625.744904,820.682421 C629.836115,816.90567 634.398774,813.676133 639.318831,811.074534 C648.150523,806.317337 658.088131,804.003704 668.108834,804.371764 C670.764223,804.634275 672.319023,804.914286 672.98287,805.036791 C673.646717,805.159296 673.227445,805.439307 671.899751,806.436848 C671.13043,807.06116 670.401087,807.733348 669.716043,808.449429 C669.572771,808.578909 669.414395,808.690557 669.244362,808.781942 L668.999787,808.886946 L668.510636,809.23696 C667.811176,809.440569 667.099242,809.598408 666.379338,809.709479 C651.583738,811.68239 638.060616,819.130202 628.470171,830.587819 C608.703681,854.280186 609.261312,888.907287 629.780396,911.948592 C639.720017,923.217364 653.242045,930.698298 668.056425,933.124444 C668.459761,933.352835 668.887571,933.534831 669.331711,933.666966 L668.056425,933.124444 C685.687216,934.992932 703.279887,929.266744 716.447389,917.373811 C699.901678,901.063155 690.002203,891.286095 686.748963,888.042631 C681.869105,883.177435 677.018362,878.271404 672.196735,873.324539 C671.41378,872.520076 670.980426,871.437912 670.991328,870.314417 C671.148555,855.911338 671.690115,841.525759 672.301553,826.87767 C672.843113,815.047194 674.223216,805.631815 675.795485,803.234219 C677.367755,800.836622 678.625571,809.831984 679.289418,822.15248 C680.040613,837.168084 680.547233,852.673708 680.669521,868.091828 C695.856481,883.165768 710.979385,898.403048 726.038233,913.803667 C728.001755,915.838631 728.001755,919.066497 726.038233,921.101461 C722.651481,924.437815 718.941221,927.427712 714.962468,930.02682 C708.99321,933.90329 702.473227,936.853411 695.623552,938.777172 C688.777688,940.956565 681.633469,942.048998 674.450321,942.014802 C667.266998,941.932448 660.134111,940.800478 653.277091,938.654667 C646.429774,936.412497 639.953389,933.162653 634.060463,929.011779 L629.780396,925.756648 C628.435232,924.5666 627.142477,923.341551 625.832252,922.134002 C624.525874,920.915202 623.294891,919.617742 622.146154,918.248846 C620.91777,916.951705 619.779575,915.571749 618.739569,914.11868 C614.419879,908.451466 611.018199,902.13802 608.659575,895.410427 L607.786091,892.890326 C607.467444,892.058738 607.210524,891.204715 607.017426,890.335223 L605.759611,885.085012 C605.410217,883.422445 605.235521,881.654874 604.973476,879.887303 Z M762.741993,865.239213 L762.3926,865.239213 C753.657769,865.029205 744.713302,865.081707 735.838714,865.641729 C726.964125,866.201752 718.369052,867.181791 710.525173,868.056827 C705.790895,868.616849 702.890931,869.299377 705.51138,870.156911 C709.516918,871.207602 713.6104,871.887156 717.740144,872.186993 C726.684611,872.922022 735.209806,874.09457 743.071154,874.427083 C748.137356,874.637091 753.203558,874.637091 758.374577,874.532087 C758.180648,879.874664 757.293904,885.169284 755.736659,890.282721 C753.532716,894.862088 750.937536,899.241918 747.980129,903.373247 C743.420547,898.910568 738.738677,894.7454 733.812233,890.702738 L713.931757,874.689593 C713.093214,874.007066 710.874567,872.589509 709.843857,871.976984 C707.799906,870.769436 707.869785,871.276956 708.65592,872.502005 C712.802659,878.702299 717.379343,884.602911 722.352135,890.160216 C729.584575,898.280543 737.201347,906.628378 745.062695,914.556197 L745.412088,914.888711 C746.380361,915.682586 747.623828,916.058529 748.868841,915.933807 C750.113853,915.809084 751.258385,915.193917 752.05056,914.223684 L752.207787,914.031176 C759.824046,904.76378 764.669032,893.527708 766.183516,881.619872 C766.742698,878.811918 767.121982,875.971002 767.319044,873.11453 L767.441332,870.314417 L767.441332,870.209413 C767.472054,867.553091 765.39137,865.35248 762.741993,865.239213 Z M761.571526,845.51592 C761.383511,846.559819 761.084836,847.580639 760.680573,848.561042 C761.499171,848.90321 762.134203,849.577539 762.427539,850.416117 C762.951629,852.848715 757.011944,854.073764 749.866852,854.388777 C731.90804,855.176308 713.879348,855.333815 695.833188,855.193809 L695.72837,855.193809 C692.833901,855.193809 690.487471,852.84321 690.487471,849.943598 L690.766986,828.277726 L691.06397,816.307245 C690.766986,805.2468 690.697107,794.203855 690.784455,783.195913 L690.784455,782.985904 C690.79369,781.658432 691.328963,780.389008 692.272515,779.456908 C693.216067,778.524808 694.490601,778.006389 695.815718,778.015704 C707.146036,778.188012 718.267989,781.093503 728.239411,786.486045 C729.490942,787.11626 730.699039,787.829544 731.855631,788.621131 L735.349563,790.896222 L738.703738,793.486327 C739.819062,794.297947 740.881083,795.180641 741.883217,796.128933 C743.959294,797.991365 745.908607,799.990914 747.718084,802.114174 C748.609036,803.181717 749.569868,804.196757 750.408412,805.299302 L752.819225,808.694438 C760.872739,820.279904 763.877521,834.630482 761.571526,845.445917 L761.571526,845.51592 Z M699.32712,806.611855 C700.491764,805.526811 701.656408,804.494269 702.821052,803.51423 C703.327673,803.111714 703.851763,802.744199 704.375852,802.376684 C707.398104,798.106512 711.835398,795.376403 715.993178,792.261277 L716.482328,791.928764 C711.161873,789.904482 705.610324,788.552342 699.956028,787.903602 C699.728922,791.911263 699.484347,795.918924 699.169893,799.909085 L699.32712,806.611855 Z M709.808917,828.435233 C710.595052,827.752705 711.416126,827.087678 712.219731,826.422652 C717.547978,819.842387 724.308737,814.749682 730.772512,809.359465 C732.943442,807.492951 735.57326,806.242171 738.389284,805.736819 C737.952543,805.316802 737.515801,804.879285 737.06159,804.459268 C733.41683,801.134378 729.394491,798.250299 725.077402,795.866422 C721.006971,799.646574 717.862431,804.406766 712.027564,806.366845 C709.878796,809.026952 707.852315,811.809564 705.52885,814.277163 C703.985203,815.764196 702.266315,817.057123 700.410239,818.127318 C700.147414,818.290751 699.845982,818.381341 699.536756,818.389828 L699.956028,838.288129 C703.037545,834.799316 706.352815,831.524933 709.878796,828.487735 L709.808917,828.435233 Z M736.240516,834.350471 C739.262767,830.080299 743.700061,827.350189 747.857841,824.235064 C748.738739,823.582957 749.753039,823.134677 750.827684,822.922511 L750.652987,822.554996 C748.466246,818.16004 745.756185,814.04659 742.582003,810.304503 C735.594138,816.797264 729.724332,824.620079 721.006971,829.240265 C717.42569,833.440434 713.931757,837.763108 710.018553,841.770769 C708.773315,843.015266 707.454915,844.184065 706.07041,845.27091 L709.808917,845.27091 C715.311861,845.27091 720.814804,845.27091 726.335217,845.463418 C726.336626,845.084047 726.432712,844.711052 726.614732,844.378374 C728.744064,840.921389 731.51316,837.903829 734.773064,835.488016 C735.262215,835.103001 735.803774,834.735486 736.327864,834.350471 L736.240516,834.350471 Z M757.361337,847.248489 C756.958857,846.339414 756.710866,845.369347 756.627611,844.378374 C756.329867,839.773302 755.485369,835.220183 754.11198,830.815328 C751.229486,833.84295 748.364461,836.905573 743.997046,838.358132 C741.970565,840.860732 740.048902,843.468337 737.882664,845.848433 L749.499989,846.250949 C752.177842,846.307952 754.842192,846.648187 757.448685,847.26599 L757.361337,847.248489 Z" id="Shape" fill="#111D5F" fill-rule="nonzero" transform="translate(685.941668, 860.015581) rotate(39.000000) translate(-685.941668, -860.015581) "></path>
                <path d="M601.056964,187.220938 C604.210569,182.348763 606.603465,177.839361 608.235651,173.692732 C609.467823,170.562352 610.717006,164.602267 612.816245,157.479747 C613.270578,155.93824 614.136609,153.693488 615.414338,150.745491 C618.410312,148.034636 621.091398,146.679209 623.457594,146.679209 C625.82379,146.679209 629.808875,148.034636 635.41285,150.745491 L656.904039,160.886286 C666.352244,162.490474 672.863771,162.490474 676.438621,160.886286 C680.01347,159.282097 684.055183,154.546405 688.563759,146.679209 C690.240036,140.780124 691.195569,136.516655 691.430359,133.888801 C692.182286,125.472969 690.848822,118.657205 689.989931,113.956245 C688.728756,107.053465 684.83178,99.2337716 678.299,90.4971649 C668.096835,78.5695731 658.440125,70.6740468 649.328872,66.810586 C643.758512,64.4485768 633.182031,59.6583151 621.501581,57.5467024 C616.551663,56.6518473 608.542684,56.2113039 597.474646,56.2250725 C589.137618,55.9249758 583.295518,55.9249758 579.948347,56.2250725 C569.629615,57.1502169 562.574032,59.5118609 557.771099,61.0310536 C555.901106,61.6225423 552.940277,63.2492643 550.952083,64.2326651 C547.216754,66.0802338 541.488305,70.1280844 533.766735,76.376217 C523.786837,86.9949557 517.321245,96.0962837 514.369959,103.680201 C512.546833,108.365088 510.136259,115.454253 508.94504,124.249515 C508.453618,127.877882 508.138605,133.991039 508,142.588987 C509.422217,154.305205 511.892427,163.134287 515.410632,169.076234 C518.928836,175.018181 525.678554,181.76077 535.659785,189.304003 C543.539326,193.209038 549.517054,195.677862 553.592967,196.710477 C557.66888,197.743091 563.823617,198.347972 572.057177,198.525119 C578.073043,198.020137 582.822595,197.088759 586.305833,195.730986 C589.78907,194.373212 594.706114,191.536529 601.056964,187.220938 Z" id="Path-3" fill="#FFF502"></path>
                <path d="M504.638396,94.5758388 C511.269094,94.5758388 516.664908,89.1923682 516.664908,82.5747506 C516.664908,79.6553976 515.57235,77.0116917 513.830954,74.9297211 L539.851419,45.17028 C541.921419,46.8492211 544.520954,47.8996035 547.392582,47.8996035 C550.78328,47.8996035 553.837001,46.4796035 556.02421,44.2222211 L580.230024,64.4446917 C579.430489,66.0526329 578.938629,67.8380741 578.938629,69.7508976 C578.938629,76.3622506 584.334443,81.7478094 590.967233,81.7478094 C597.597931,81.7478094 602.989559,76.3622506 602.989559,69.7508976 C602.989559,68.6775447 602.80328,67.6543094 602.535373,66.6623976 L625.592117,52.8487211 C627.789792,55.7242211 631.220257,57.6098976 635.115373,57.6098976 C641.750257,57.6098976 647.148164,52.2243388 647.148164,45.6088094 C647.148164,38.99328 641.750257,33.6077211 635.115373,33.6077211 C628.484675,33.6077211 623.090954,38.99328 623.090954,45.6088094 C623.090954,46.9139564 623.354675,48.1501917 623.743978,49.3279564 L600.911187,63.0100741 C598.744908,59.8359564 595.096768,57.7456329 590.969326,57.7456329 C587.687466,57.7456329 584.717466,59.0716623 582.549094,61.2016623 L558.278396,40.9269858 C558.996303,39.3921329 559.42328,37.6985741 559.42328,35.8985153 C559.42328,29.2829858 554.027466,23.897427 547.394675,23.897427 C540.763978,23.897427 535.366071,29.2829858 535.366071,35.8985153 C535.366071,38.2060153 536.058861,40.3464564 537.191187,42.1820153 L510.819094,72.3319564 C509.010722,71.2398094 506.90514,70.5715741 504.638396,70.5715741 C498.005605,70.5715741 492.609792,75.9571329 492.609792,82.5726623 C492.609792,89.19028 498.005605,94.5758388 504.638396,94.5758388 Z M635.115373,37.57328 C639.556768,37.57328 643.173512,41.1817506 643.173512,45.6088094 C643.173512,50.0358682 639.556768,53.6443388 635.115373,53.6443388 C630.678164,53.6443388 627.065605,50.0358682 627.065605,45.6088094 C627.065605,41.1817506 630.678164,37.57328 635.115373,37.57328 Z M590.967233,61.7091035 C595.404443,61.7091035 599.014908,65.3175741 599.014908,69.7488094 C599.014908,74.1758682 595.404443,77.7801623 590.967233,77.7801623 C586.525838,77.7801623 582.91328,74.1758682 582.91328,69.7488094 C582.915373,65.3175741 586.525838,61.7091035 590.967233,61.7091035 Z M547.392582,27.8629858 C551.833978,27.8629858 555.446536,31.4651917 555.446536,35.896427 C555.446536,40.3276623 551.833978,43.9319564 547.392582,43.9319564 C542.951187,43.9319564 539.340722,40.3276623 539.340722,35.896427 C539.340722,31.4651917 542.951187,27.8629858 547.392582,27.8629858 Z M504.638396,74.5413094 C509.079792,74.5413094 512.690257,78.1435153 512.690257,82.5747506 C512.690257,87.0059858 509.079792,90.61028 504.638396,90.61028 C500.197001,90.61028 496.584443,87.0059858 496.584443,82.5747506 C496.584443,78.1435153 500.197001,74.5413094 504.638396,74.5413094 Z" id="Shape" fill="#111D5F" fill-rule="nonzero" transform="translate(569.878978, 59.236633) rotate(-19.000000) translate(-569.878978, -59.236633) "></path>
                <path d="M664.376452,157.195674 L664.307382,73.1442033 C664.288545,65.9732033 657.955057,65.9732033 653.051103,65.9899092 L651.560871,65.9899092 C651.539941,65.9899092 651.521103,65.9899092 651.502266,65.9899092 C648.816917,65.9899092 646.284359,65.9940857 644.272964,66.768821 C641.625289,67.7857916 640.283661,69.9345857 640.283661,73.1525563 L640.384127,157.195674 L620.22622,157.195674 L620.15715,98.4598798 C620.132034,91.2930563 613.838313,91.3327328 608.909243,91.3076739 L607.425289,91.3076739 C604.576685,91.2951445 602.152964,91.3034975 600.122731,92.0824092 C597.470871,93.1056445 596.12715,95.2523504 596.12715,98.470321 L596.233894,157.195674 L576.659941,157.195674 L576.586685,64.2859092 C576.551103,57.1190857 570.378778,57.1671151 565.342964,57.1316151 L563.852731,57.1316151 C561.043894,57.1065563 558.582499,57.1274386 556.554359,57.9063504 C553.900406,58.923321 552.558778,61.0742033 552.558778,64.2942622 L552.655057,157.195674 L533.903661,157.195674 L533.830406,110.26885 C533.796917,103.089497 527.56808,103.085321 522.569941,103.118733 L521.071336,103.114556 C516.052266,103.114556 509.802499,103.114556 509.802499,110.28138 L509.905057,157.195674 L498.571336,157.195674 L498.571336,161.161233 L603.739673,161.161233 L676.478313,161.161233 L676.478313,157.195674 L664.376452,157.195674 Z M660.345289,94.2416445 L644.304359,110.247968 L644.287615,97.8167033 L660.33901,81.8041151 L660.345289,94.2416445 Z M644.308545,115.848615 L660.353661,99.846468 L660.362034,112.891674 L644.327382,128.889645 L644.308545,115.848615 Z M644.331568,134.49238 L660.370406,118.494409 L660.378778,130.07785 L644.348313,146.075821 L644.331568,134.49238 Z M660.399708,157.195674 L656.933661,157.195674 L660.395522,153.741733 L660.399708,157.195674 Z M660.330638,73.1525563 L660.330638,76.1972033 L644.279243,92.2160563 L644.264592,80.6326151 L654.955755,69.9659092 C659.627382,70.0473504 660.322266,70.700968 660.330638,73.1525563 Z M645.700406,70.4691739 C646.594127,70.1287916 647.870871,70.026468 649.312964,69.9888798 L644.258313,75.0298798 L644.258313,73.1483798 C644.258313,71.1896151 644.969941,70.7510857 645.700406,70.4691739 Z M644.350406,151.584586 L644.400638,151.630527 L660.382964,135.680586 L660.393429,148.134821 L651.311801,157.195674 L644.358778,157.195674 L644.350406,151.584586 Z M600.133196,115.572968 L616.178313,99.5582916 L616.195057,112.601409 L600.152034,128.603556 L600.133196,115.572968 Z M600.162499,134.202115 L616.201336,118.204145 L616.215987,129.772968 L600.181336,145.770939 L600.162499,134.202115 Z M616.249475,157.195674 L612.473661,157.195674 L616.241103,153.434762 L616.249475,157.195674 Z M601.54808,95.7869386 C602.887615,95.275321 605.125057,95.2920269 607.41901,95.275321 L608.911336,95.275321 C611.600871,95.3003798 613.294127,95.4047916 614.388778,95.7326445 L600.120638,109.972321 L600.101801,98.4661445 C600.101801,96.5073798 600.815522,96.0667622 601.54808,95.7869386 Z M600.193894,151.373674 L616.220173,135.37988 L616.236917,147.834115 L606.853894,157.195674 L600.206452,157.195674 L600.193894,151.373674 Z M556.550173,80.3005857 L572.607848,64.2817328 C572.607848,64.2859092 572.607848,64.2900857 572.607848,64.2942622 L572.61622,75.8651739 L556.556452,91.8819386 L556.550173,80.3005857 Z M556.564824,97.4825857 L572.624592,81.4679092 L572.630871,93.9117033 L556.581568,109.920115 L556.564824,97.4825857 Z M556.585755,115.527027 L572.635057,99.5123504 L572.647615,112.559645 L556.600406,128.565968 L556.585755,115.527027 Z M556.604592,134.166615 L572.651801,118.166556 L572.660173,129.747909 L556.621336,145.750056 L556.604592,134.166615 Z M572.681103,157.195674 L568.888545,157.195674 L572.67901,153.411792 L572.681103,157.195674 Z M557.979708,61.6087916 C559.319243,61.0950857 561.585987,61.1222328 563.846452,61.0992622 L565.345057,61.0992622 C565.384824,61.0992622 565.422499,61.0992622 565.45808,61.0992622 C567.477848,61.0992622 568.89901,61.159821 569.949708,61.3227033 L556.543894,74.6978504 L556.531336,64.2942622 C556.531336,62.3292328 557.245057,61.8907033 557.979708,61.6087916 Z M556.623429,151.350703 L572.662266,135.352733 L572.672731,147.802792 L563.266685,157.195674 L556.627615,157.195674 L556.623429,151.350703 Z M513.810638,124.863527 L529.690406,109.011733 C529.790871,109.377174 529.851568,109.778115 529.851568,110.28138 L529.868313,119.979145 L513.833661,135.972939 L513.810638,124.863527 Z M513.84622,141.569409 L529.876685,125.579792 L529.891336,137.530762 L513.873429,153.514115 L513.84622,141.569409 Z M529.899708,143.131409 L529.924824,157.195674 L515.803196,157.195674 L529.899708,143.131409 Z M521.075522,107.082203 L522.578313,107.08638 C523.936685,107.07385 525.016685,107.094733 525.929243,107.155292 L513.800173,119.264968 L513.779243,110.277203 C513.779243,107.531174 514.800638,107.082203 521.075522,107.082203 Z" id="Shape" fill="#111D5F" fill-rule="nonzero" transform="translate(587.524824, 109.143481) rotate(-19.000000) translate(-587.524824, -109.143481) "></path>
                <path d="M169.056964,741.220938 C172.210569,736.348763 174.603465,731.839361 176.235651,727.692732 C177.467823,724.562352 178.717006,718.602267 180.816245,711.479747 C181.270578,709.93824 182.136609,707.693488 183.414338,704.745491 C186.410312,702.034636 189.091398,700.679209 191.457594,700.679209 C193.82379,700.679209 197.808875,702.034636 203.41285,704.745491 L224.904039,714.886286 C234.352244,716.490474 240.863771,716.490474 244.438621,714.886286 C248.01347,713.282097 252.055183,708.546405 256.563759,700.679209 C258.240036,694.780124 259.195569,690.516655 259.430359,687.888801 C260.182286,679.472969 258.848822,672.657205 257.989931,667.956245 C256.728756,661.053465 252.83178,653.233772 246.299,644.497165 C236.096835,632.569573 226.440125,624.674047 217.328872,620.810586 C211.758512,618.448577 201.182031,613.658315 189.501581,611.546702 C184.551663,610.651847 176.542684,610.211304 165.474646,610.225072 C157.137618,609.924976 151.295518,609.924976 147.948347,610.225072 C137.629615,611.150217 130.574032,613.511861 125.771099,615.031054 C123.901106,615.622542 120.940277,617.249264 118.952083,618.232665 C115.216754,620.080234 109.488305,624.128084 101.766735,630.376217 C91.786837,640.994956 85.321245,650.096284 82.3699594,657.680201 C80.546833,662.365088 78.1362587,669.454253 76.9450397,678.249515 C76.4536184,681.877882 76.1386052,687.991039 76,696.588987 C77.4222168,708.305205 79.8924273,717.134287 83.4106317,723.076234 C86.928836,729.018181 93.6785537,735.76077 103.659785,743.304003 C111.539326,747.209038 117.517054,749.677862 121.592967,750.710477 C125.66888,751.743091 131.823617,752.347972 140.057177,752.525119 C146.073043,752.020137 150.822595,751.088759 154.305833,749.730986 C157.78907,748.373212 162.706114,745.536529 169.056964,741.220938 Z" id="Path-3" fill="#FFF502"></path>
                <path d="M69.6383962,649.31997 C76.2690939,649.31997 81.6649078,643.9365 81.6649078,637.318882 C81.6649078,634.399529 80.5723497,631.755823 78.8309543,629.673853 L104.851419,599.914411 C106.921419,601.593353 109.520954,602.643735 112.392582,602.643735 C115.78328,602.643735 118.837001,601.223735 121.02421,598.966353 L145.230024,619.188823 C144.430489,620.796764 143.938629,622.582205 143.938629,624.495029 C143.938629,631.106382 149.334443,636.491941 155.967233,636.491941 C162.597931,636.491941 167.989559,631.106382 167.989559,624.495029 C167.989559,623.421676 167.80328,622.398441 167.535373,621.406529 L190.592117,607.592853 C192.789792,610.468353 196.220257,612.354029 200.115373,612.354029 C206.750257,612.354029 212.148164,606.96847 212.148164,600.352941 C212.148164,593.737411 206.750257,588.351853 200.115373,588.351853 C193.484675,588.351853 188.090954,593.737411 188.090954,600.352941 C188.090954,601.658088 188.354675,602.894323 188.743978,604.072088 L165.911187,617.754205 C163.744908,614.580088 160.096768,612.489764 155.969326,612.489764 C152.687466,612.489764 149.717466,613.815794 147.549094,615.945794 L123.278396,595.671117 C123.996303,594.136264 124.42328,592.442705 124.42328,590.642647 C124.42328,584.027117 119.027466,578.641558 112.394675,578.641558 C105.763978,578.641558 100.366071,584.027117 100.366071,590.642647 C100.366071,592.950147 101.058861,595.090588 102.191187,596.926147 L75.8190939,627.076088 C74.0107218,625.983941 71.9051404,625.315705 69.6383962,625.315705 C63.0056055,625.315705 57.6097915,630.701264 57.6097915,637.316794 C57.6097915,643.934411 63.0056055,649.31997 69.6383962,649.31997 Z M200.115373,592.317411 C204.556768,592.317411 208.173512,595.925882 208.173512,600.352941 C208.173512,604.78 204.556768,608.38847 200.115373,608.38847 C195.678164,608.38847 192.065605,604.78 192.065605,600.352941 C192.065605,595.925882 195.678164,592.317411 200.115373,592.317411 Z M155.967233,616.453235 C160.404443,616.453235 164.014908,620.061705 164.014908,624.492941 C164.014908,628.92 160.404443,632.524294 155.967233,632.524294 C151.525838,632.524294 147.91328,628.92 147.91328,624.492941 C147.915373,620.061705 151.525838,616.453235 155.967233,616.453235 Z M112.392582,582.607117 C116.833978,582.607117 120.446536,586.209323 120.446536,590.640558 C120.446536,595.071794 116.833978,598.676088 112.392582,598.676088 C107.951187,598.676088 104.340722,595.071794 104.340722,590.640558 C104.340722,586.209323 107.951187,582.607117 112.392582,582.607117 Z M69.6383962,629.285441 C74.0797915,629.285441 77.6902567,632.887647 77.6902567,637.318882 C77.6902567,641.750117 74.0797915,645.354411 69.6383962,645.354411 C65.1970008,645.354411 61.5844427,641.750117 61.5844427,637.318882 C61.5844427,632.887647 65.1970008,629.285441 69.6383962,629.285441 Z" id="Shape" fill="#111D5F" fill-rule="nonzero" transform="translate(134.878978, 613.980764) rotate(-19.000000) translate(-134.878978, -613.980764) "></path>
                <path d="M229.376452,711.939805 L229.307382,627.888335 C229.288545,620.717335 222.955057,620.717335 218.051103,620.734041 L216.560871,620.734041 C216.539941,620.734041 216.521103,620.734041 216.502266,620.734041 C213.816917,620.734041 211.284359,620.738217 209.272964,621.512952 C206.625289,622.529923 205.283661,624.678717 205.283661,627.896688 L205.384127,711.939805 L185.22622,711.939805 L185.15715,653.204011 C185.132034,646.037188 178.838313,646.076864 173.909243,646.051805 L172.425289,646.051805 C169.576685,646.039276 167.152964,646.047629 165.122731,646.826541 C162.470871,647.849776 161.12715,649.996482 161.12715,653.214452 L161.233894,711.939805 L141.659941,711.939805 L141.586685,619.030041 C141.551103,611.863217 135.378778,611.911247 130.342964,611.875747 L128.852731,611.875747 C126.043894,611.850688 123.582499,611.87157 121.554359,612.650482 C118.900406,613.667452 117.558778,615.818335 117.558778,619.038394 L117.655057,711.939805 L98.9036615,711.939805 L98.8304057,665.012982 C98.7969173,657.833629 92.5680801,657.829452 87.5699406,657.862864 L86.0713359,657.858688 C81.0522661,657.858688 74.8024987,657.858688 74.8024987,665.025511 L74.9050568,711.939805 L63.5713359,711.939805 L63.5713359,715.905364 L168.739673,715.905364 L241.478313,715.905364 L241.478313,711.939805 L229.376452,711.939805 Z M225.345289,648.985776 L209.304359,664.992099 L209.287615,652.560835 L225.33901,636.548247 L225.345289,648.985776 Z M209.308545,670.592747 L225.353661,654.590599 L225.362034,667.635805 L209.327382,683.633776 L209.308545,670.592747 Z M209.331568,689.236511 L225.370406,673.238541 L225.378778,684.821982 L209.348313,700.819952 L209.331568,689.236511 Z M225.399708,711.939805 L221.933661,711.939805 L225.395522,708.485864 L225.399708,711.939805 Z M225.330638,627.896688 L225.330638,630.941335 L209.279243,646.960188 L209.264592,635.376747 L219.955755,624.710041 C224.627382,624.791482 225.322266,625.445099 225.330638,627.896688 Z M210.700406,625.213305 C211.594127,624.872923 212.870871,624.770599 214.312964,624.733011 L209.258313,629.774011 L209.258313,627.892511 C209.258313,625.933747 209.969941,625.495217 210.700406,625.213305 Z M209.350406,706.328717 L209.400638,706.374658 L225.382964,690.424717 L225.393429,702.878952 L216.311801,711.939805 L209.358778,711.939805 L209.350406,706.328717 Z M165.133196,670.317099 L181.178313,654.302423 L181.195057,667.345541 L165.152034,683.347688 L165.133196,670.317099 Z M165.162499,688.946247 L181.201336,672.948276 L181.215987,684.517099 L165.181336,700.51507 L165.162499,688.946247 Z M181.249475,711.939805 L177.473661,711.939805 L181.241103,708.178894 L181.249475,711.939805 Z M166.54808,650.53107 C167.887615,650.019452 170.125057,650.036158 172.41901,650.019452 L173.911336,650.019452 C176.600871,650.044511 178.294127,650.148923 179.388778,650.476776 L165.120638,664.716452 L165.101801,653.210276 C165.101801,651.251511 165.815522,650.810894 166.54808,650.53107 Z M165.193894,706.117805 L181.220173,690.124011 L181.236917,702.578247 L171.853894,711.939805 L165.206452,711.939805 L165.193894,706.117805 Z M121.550173,635.044717 L137.607848,619.025864 C137.607848,619.030041 137.607848,619.034217 137.607848,619.038394 L137.61622,630.609305 L121.556452,646.62607 L121.550173,635.044717 Z M121.564824,652.226717 L137.624592,636.212041 L137.630871,648.655835 L121.581568,664.664247 L121.564824,652.226717 Z M121.585755,670.271158 L137.635057,654.256482 L137.647615,667.303776 L121.600406,683.310099 L121.585755,670.271158 Z M121.604592,688.910747 L137.651801,672.910688 L137.660173,684.492041 L121.621336,700.494188 L121.604592,688.910747 Z M137.681103,711.939805 L133.888545,711.939805 L137.67901,708.155923 L137.681103,711.939805 Z M122.979708,616.352923 C124.319243,615.839217 126.585987,615.866364 128.846452,615.843394 L130.345057,615.843394 C130.384824,615.843394 130.422499,615.843394 130.45808,615.843394 C132.477848,615.843394 133.89901,615.903952 134.949708,616.066835 L121.543894,629.441982 L121.531336,619.038394 C121.531336,617.073364 122.245057,616.634835 122.979708,616.352923 Z M121.623429,706.094835 L137.662266,690.096864 L137.672731,702.546923 L128.266685,711.939805 L121.627615,711.939805 L121.623429,706.094835 Z M78.8106382,679.607658 L94.6904057,663.755864 C94.7908708,664.121305 94.8515685,664.522247 94.8515685,665.025511 L94.8683127,674.723276 L78.8336615,690.71707 L78.8106382,679.607658 Z M78.8462196,696.313541 L94.8766847,680.323923 L94.8913359,692.274894 L78.8734289,708.258247 L78.8462196,696.313541 Z M94.899708,697.875541 L94.9248243,711.939805 L80.8031964,711.939805 L94.899708,697.875541 Z M86.075522,661.826335 L87.5783127,661.830511 C88.9366847,661.817982 90.0166847,661.838864 90.9292429,661.899423 L78.8001731,674.009099 L78.7792429,665.021335 C78.7792429,662.275305 79.8006382,661.826335 86.075522,661.826335 Z" id="Shape" fill="#111D5F" fill-rule="nonzero" transform="translate(152.524824, 663.887613) rotate(-19.000000) translate(-152.524824, -663.887613) "></path>
                <path d="M1181.05696,657.220938 C1184.21057,652.348763 1186.60346,647.839361 1188.23565,643.692732 C1189.46782,640.562352 1190.71701,634.602267 1192.81625,627.479747 C1193.27058,625.93824 1194.13661,623.693488 1195.41434,620.745491 C1198.41031,618.034636 1201.0914,616.679209 1203.45759,616.679209 C1205.82379,616.679209 1209.80888,618.034636 1215.41285,620.745491 L1236.90404,630.886286 C1246.35224,632.490474 1252.86377,632.490474 1256.43862,630.886286 C1260.01347,629.282097 1264.05518,624.546405 1268.56376,616.679209 C1270.24004,610.780124 1271.19557,606.516655 1271.43036,603.888801 C1272.18229,595.472969 1270.84882,588.657205 1269.98993,583.956245 C1268.72876,577.053465 1264.83178,569.233772 1258.299,560.497165 C1248.09683,548.569573 1238.44013,540.674047 1229.32887,536.810586 C1223.75851,534.448577 1213.18203,529.658315 1201.50158,527.546702 C1196.55166,526.651847 1188.54268,526.211304 1177.47465,526.225072 C1169.13762,525.924976 1163.29552,525.924976 1159.94835,526.225072 C1149.62961,527.150217 1142.57403,529.511861 1137.7711,531.031054 C1135.90111,531.622542 1132.94028,533.249264 1130.95208,534.232665 C1127.21675,536.080234 1121.4883,540.128084 1113.76674,546.376217 C1103.78684,556.994956 1097.32124,566.096284 1094.36996,573.680201 C1092.54683,578.365088 1090.13626,585.454253 1088.94504,594.249515 C1088.45362,597.877882 1088.13861,603.991039 1088,612.588987 C1089.42222,624.305205 1091.89243,633.134287 1095.41063,639.076234 C1098.92884,645.018181 1105.67855,651.76077 1115.65978,659.304003 C1123.53933,663.209038 1129.51705,665.677862 1133.59297,666.710477 C1137.66888,667.743091 1143.82362,668.347972 1152.05718,668.525119 C1158.07304,668.020137 1162.8226,667.088759 1166.30583,665.730986 C1169.78907,664.373212 1174.70611,661.536529 1181.05696,657.220938 Z" id="Path-3" fill="#FFF502"></path>
                <path d="M1081.19387,568.31997 C1087.82457,568.31997 1093.22038,562.9365 1093.22038,556.318882 C1093.22038,553.399529 1092.12782,550.755823 1090.38643,548.673853 L1116.40689,518.914411 C1118.47689,520.593353 1121.07643,521.643735 1123.94806,521.643735 C1127.33875,521.643735 1130.39247,520.223735 1132.57968,517.966353 L1156.7855,538.188823 C1155.98596,539.796764 1155.4941,541.582205 1155.4941,543.495029 C1155.4941,550.106382 1160.88992,555.491941 1167.52271,555.491941 C1174.1534,555.491941 1179.54503,550.106382 1179.54503,543.495029 C1179.54503,542.421676 1179.35875,541.398441 1179.09085,540.406529 L1202.14759,526.592853 C1204.34527,529.468353 1207.77573,531.354029 1211.67085,531.354029 C1218.30573,531.354029 1223.70364,525.96847 1223.70364,519.352941 C1223.70364,512.737411 1218.30573,507.351853 1211.67085,507.351853 C1205.04015,507.351853 1199.64643,512.737411 1199.64643,519.352941 C1199.64643,520.658088 1199.91015,521.894323 1200.29945,523.072088 L1177.46666,536.754205 C1175.30038,533.580088 1171.65224,531.489764 1167.5248,531.489764 C1164.24294,531.489764 1161.27294,532.815794 1159.10457,534.945794 L1134.83387,514.671117 C1135.55178,513.136264 1135.97875,511.442705 1135.97875,509.642647 C1135.97875,503.027117 1130.58294,497.641558 1123.95015,497.641558 C1117.31945,497.641558 1111.92154,503.027117 1111.92154,509.642647 C1111.92154,511.950147 1112.61433,514.090588 1113.74666,515.926147 L1087.37457,546.076088 C1085.5662,544.983941 1083.46061,544.315705 1081.19387,544.315705 C1074.56108,544.315705 1069.16527,549.701264 1069.16527,556.316794 C1069.16527,562.934411 1074.56108,568.31997 1081.19387,568.31997 Z M1211.67085,511.317411 C1216.11224,511.317411 1219.72899,514.925882 1219.72899,519.352941 C1219.72899,523.78 1216.11224,527.38847 1211.67085,527.38847 C1207.23364,527.38847 1203.62108,523.78 1203.62108,519.352941 C1203.62108,514.925882 1207.23364,511.317411 1211.67085,511.317411 Z M1167.52271,535.453235 C1171.95992,535.453235 1175.57038,539.061705 1175.57038,543.492941 C1175.57038,547.92 1171.95992,551.524294 1167.52271,551.524294 C1163.08131,551.524294 1159.46875,547.92 1159.46875,543.492941 C1159.47085,539.061705 1163.08131,535.453235 1167.52271,535.453235 Z M1123.94806,501.607117 C1128.38945,501.607117 1132.00201,505.209323 1132.00201,509.640558 C1132.00201,514.071794 1128.38945,517.676088 1123.94806,517.676088 C1119.50666,517.676088 1115.8962,514.071794 1115.8962,509.640558 C1115.8962,505.209323 1119.50666,501.607117 1123.94806,501.607117 Z M1081.19387,548.285441 C1085.63527,548.285441 1089.24573,551.887647 1089.24573,556.318882 C1089.24573,560.750117 1085.63527,564.354411 1081.19387,564.354411 C1076.75247,564.354411 1073.13992,560.750117 1073.13992,556.318882 C1073.13992,551.887647 1076.75247,548.285441 1081.19387,548.285441 Z" id="Shape" fill="#111D5F" fill-rule="nonzero" transform="translate(1146.434451, 532.980764) rotate(-19.000000) translate(-1146.434451, -532.980764) "></path>
                <path d="M1240.93193,630.939805 L1240.86286,546.888335 C1240.84402,539.717335 1234.51053,539.717335 1229.60658,539.734041 L1228.11634,539.734041 C1228.09541,539.734041 1228.07658,539.734041 1228.05774,539.734041 C1225.37239,539.734041 1222.83983,539.738217 1220.82844,540.512952 C1218.18076,541.529923 1216.83914,543.678717 1216.83914,546.896688 L1216.9396,630.939805 L1196.78169,630.939805 L1196.71262,572.204011 C1196.68751,565.037188 1190.39379,565.076864 1185.46472,565.051805 L1183.98076,565.051805 C1181.13216,565.039276 1178.70844,565.047629 1176.6782,565.826541 C1174.02634,566.849776 1172.68262,568.996482 1172.68262,572.214452 L1172.78937,630.939805 L1153.21541,630.939805 L1153.14216,538.030041 C1153.10658,530.863217 1146.93425,530.911247 1141.89844,530.875747 L1140.4082,530.875747 C1137.59937,530.850688 1135.13797,530.87157 1133.10983,531.650482 C1130.45588,532.667452 1129.11425,534.818335 1129.11425,538.038394 L1129.21053,630.939805 L1110.45914,630.939805 L1110.38588,584.012982 C1110.35239,576.833629 1104.12355,576.829452 1099.12541,576.862864 L1097.62681,576.858688 C1092.60774,576.858688 1086.35797,576.858688 1086.35797,584.025511 L1086.46053,630.939805 L1075.12681,630.939805 L1075.12681,634.905364 L1180.29515,634.905364 L1253.03379,634.905364 L1253.03379,630.939805 L1240.93193,630.939805 Z M1236.90076,567.985776 L1220.85983,583.992099 L1220.84309,571.560835 L1236.89448,555.548247 L1236.90076,567.985776 Z M1220.86402,589.592747 L1236.90914,573.590599 L1236.91751,586.635805 L1220.88286,602.633776 L1220.86402,589.592747 Z M1220.88704,608.236511 L1236.92588,592.238541 L1236.93425,603.821982 L1220.90379,619.819952 L1220.88704,608.236511 Z M1236.95518,630.939805 L1233.48914,630.939805 L1236.951,627.485864 L1236.95518,630.939805 Z M1236.88611,546.896688 L1236.88611,549.941335 L1220.83472,565.960188 L1220.82007,554.376747 L1231.51123,543.710041 C1236.18286,543.791482 1236.87774,544.445099 1236.88611,546.896688 Z M1222.25588,544.213305 C1223.1496,543.872923 1224.42634,543.770599 1225.86844,543.733011 L1220.81379,548.774011 L1220.81379,546.892511 C1220.81379,544.933747 1221.52541,544.495217 1222.25588,544.213305 Z M1220.90588,625.328717 L1220.95611,625.374658 L1236.93844,609.424717 L1236.9489,621.878952 L1227.86727,630.939805 L1220.91425,630.939805 L1220.90588,625.328717 Z M1176.68867,589.317099 L1192.73379,573.302423 L1192.75053,586.345541 L1176.70751,602.347688 L1176.68867,589.317099 Z M1176.71797,607.946247 L1192.75681,591.948276 L1192.77146,603.517099 L1176.73681,619.51507 L1176.71797,607.946247 Z M1192.80495,630.939805 L1189.02914,630.939805 L1192.79658,627.178894 L1192.80495,630.939805 Z M1178.10355,569.53107 C1179.44309,569.019452 1181.68053,569.036158 1183.97448,569.019452 L1185.46681,569.019452 C1188.15634,569.044511 1189.8496,569.148923 1190.94425,569.476776 L1176.67611,583.716452 L1176.65727,572.210276 C1176.65727,570.251511 1177.371,569.810894 1178.10355,569.53107 Z M1176.74937,625.117805 L1192.77565,609.124011 L1192.79239,621.578247 L1183.40937,630.939805 L1176.76193,630.939805 L1176.74937,625.117805 Z M1133.10565,554.044717 L1149.16332,538.025864 C1149.16332,538.030041 1149.16332,538.034217 1149.16332,538.038394 L1149.17169,549.609305 L1133.11193,565.62607 L1133.10565,554.044717 Z M1133.1203,571.226717 L1149.18007,555.212041 L1149.18634,567.655835 L1133.13704,583.664247 L1133.1203,571.226717 Z M1133.14123,589.271158 L1149.19053,573.256482 L1149.20309,586.303776 L1133.15588,602.310099 L1133.14123,589.271158 Z M1133.16007,607.910747 L1149.20727,591.910688 L1149.21565,603.492041 L1133.17681,619.494188 L1133.16007,607.910747 Z M1149.23658,630.939805 L1145.44402,630.939805 L1149.23448,627.155923 L1149.23658,630.939805 Z M1134.53518,535.352923 C1135.87472,534.839217 1138.14146,534.866364 1140.40193,534.843394 L1141.90053,534.843394 C1141.9403,534.843394 1141.97797,534.843394 1142.01355,534.843394 C1144.03332,534.843394 1145.45448,534.903952 1146.50518,535.066835 L1133.09937,548.441982 L1133.08681,538.038394 C1133.08681,536.073364 1133.80053,535.634835 1134.53518,535.352923 Z M1133.1789,625.094835 L1149.21774,609.096864 L1149.2282,621.546923 L1139.82216,630.939805 L1133.18309,630.939805 L1133.1789,625.094835 Z M1090.36611,598.607658 L1106.24588,582.755864 C1106.34634,583.121305 1106.40704,583.522247 1106.40704,584.025511 L1106.42379,593.723276 L1090.38914,609.71707 L1090.36611,598.607658 Z M1090.40169,615.313541 L1106.43216,599.323923 L1106.44681,611.274894 L1090.4289,627.258247 L1090.40169,615.313541 Z M1106.45518,616.875541 L1106.4803,630.939805 L1092.35867,630.939805 L1106.45518,616.875541 Z M1097.631,580.826335 L1099.13379,580.830511 C1100.49216,580.817982 1101.57216,580.838864 1102.48472,580.899423 L1090.35565,593.009099 L1090.33472,584.021335 C1090.33472,581.275305 1091.35611,580.826335 1097.631,580.826335 Z" id="Shape" fill="#111D5F" fill-rule="nonzero" transform="translate(1164.080298, 582.887613) rotate(-19.000000) translate(-1164.080298, -582.887613) "></path>
            </g>
        </g>
    </g>
</svg>