<?xml version="1.0" encoding="UTF-8"?>
<svg width="489px" height="96px" viewBox="0 0 489 96" version="1.1" xmlns="http://www.w3.org/2000/svg" xmlns:xlink="http://www.w3.org/1999/xlink">
    <!-- Generator: Sketch 52.3 (67297) - http://www.bohemiancoding.com/sketch -->
    <title>Group 14</title>
    <desc>Created with Sketch.</desc>
    <defs>
        <circle id="path-1" cx="46.5" cy="47.5" r="42.5"></circle>
    </defs>
    <g id="Page-1" stroke="none" stroke-width="1" fill="none" fill-rule="evenodd">
        <g id="Artboard" transform="translate(-1612.000000, -873.000000)">
            <g id="Group-14" transform="translate(1612.000000, 873.000000)">
                <g id="Group-11">
                    <circle id="Oval" fill="#FFF60F" transform="translate(479.500000, 49.500000) scale(-1, 1) translate(-479.500000, -49.500000) " cx="479.5" cy="49.5" r="9.5"></circle>
                    <path d="M467.862013,48.2422864 L298.02831,48.2422864" id="Line-2" stroke="#FFF60F" stroke-width="5" stroke-linecap="square" transform="translate(383.000000, 48.188172) scale(-1, 1) translate(-383.000000, -48.188172) "></path>
                    <rect id="Rectangle" fill="#FFF60F" x="0" y="0" width="378" height="96" rx="48"></rect>
                    <mask id="mask-2" fill="white">
                        <use xlink:href="#path-1"></use>
                    </mask>
                    <use id="Mask" fill="#FFFFFF" xlink:href="#path-1"></use>
                    <circle id="Oval" fill="#FFF60F" mask="url(#mask-2)" transform="translate(478.500000, 48.500000) scale(-1, 1) translate(-478.500000, -48.500000) " cx="478.5" cy="48.5" r="9.5"></circle>
                    <path d="M71.1034483,32 L19.8965517,32 C18.8491151,32 18,32.8655828 18,33.9333333 L18,61 L73,61 L73,33.9333333 C73,32.8655828 72.1508849,32 71.1034483,32 Z" id="Path" fill="#57A4FF" mask="url(#mask-2)"></path>
                    <path d="M73,61 L73,64.3333333 C72.9968756,65.2526682 72.149588,65.9972543 71.1034483,66 L19.8965517,66 C18.850412,65.9972543 18.0031244,65.2526682 18,64.3333333 L18,61 L73,61 Z" id="Path" fill="#E0E0E2" mask="url(#mask-2)"></path>
                    <polygon id="Path" fill="#E0E0E2" mask="url(#mask-2)" points="56.1071429 72 59 76 32 76 34.8928571 72 38.75 72 52.25 72"></polygon>
                    <polygon id="Path" fill="#57A4FF" mask="url(#mask-2)" points="51.0714286 67 52 72 39 72 39.9285714 67"></polygon>
                    <path d="M73,33.9333333 L73,61 L68,61 L68,33.9333333 C67.9967052,32.8669049 67.1032019,32.003185 66,32 L71,32 C72.1032019,32.003185 72.9967052,32.8669049 73,33.9333333 Z" id="Path" fill="#2488FF" mask="url(#mask-2)"></path>
                    <path d="M73,61 L73,64.3333333 C72.9967052,65.2526682 72.1032019,65.9972543 71,66 L66,66 C67.1032019,65.9972543 67.9967052,65.2526682 68,64.3333333 L68,61 L73,61 Z" id="Path" fill="#C6C5CA" mask="url(#mask-2)"></path>
                    <polygon id="Path" fill="#C6C5CA" mask="url(#mask-2)" points="59 76 54 76 51 72 56 72"></polygon>
                    <polygon id="Path" fill="#2488FF" mask="url(#mask-2)" points="52 72 47.8333333 72 47 67 51.1666667 67"></polygon>
                    <polygon id="Path" fill="#898890" mask="url(#mask-2)" points="65 53 69 53 69 57 65 57"></polygon>
                    <polygon id="Path" fill="#00E7F0" mask="url(#mask-2)" points="64 40 69 40 69 50 64 50"></polygon>
                    <polygon id="Path" fill="#00E7F0" mask="url(#mask-2)" points="66 30.6698113 64.9245283 31.745283 62.6698113 34 56 27.3301887 59.3301887 24"></polygon>
                    <polygon id="Path" fill="#FF3051" mask="url(#mask-2)" points="60 40 65 40 65 50 60 50"></polygon>
                    <polygon id="Path" fill="#FF3051" mask="url(#mask-2)" transform="translate(57.250550, 32.946363) rotate(-45.000000) translate(-57.250550, -32.946363) " points="54.8730591 28.1980297 59.6280409 28.1980297 59.6280409 37.6946953 54.8730591 37.6946953"></polygon>
                    <polygon id="Path" fill="#00E7F0" mask="url(#mask-2)" points="58 53 62 53 62 57 58 57"></polygon>
                    <polygon id="Path" fill="#FF7956" mask="url(#mask-2)" points="60 40 60 50 55 50 55 42.07 55.61 41.46 57.07 40"></polygon>
                    <polygon id="Path" fill="#FF7956" mask="url(#mask-2)" points="58 37.6698113 56.1881838 39.6226415 54.9102845 41 54.3763676 40.4245283 53.6323851 39.6226415 50 35.7075472 50 34.9056604 50 32.9528302 51.8118162 31"></polygon>
                    <polygon id="Path" fill="#FFDE55" mask="url(#mask-2)" points="55 40.904918 54.4285714 41.4382514 51.6838407 44 49.7447307 42.1901639 47 39.6284153 49.7447307 39.6284153 49.7447307 36 53.6323185 39.6284153 54.4285714 40.3715847"></polygon>
                    <polygon id="Path" fill="#FFDE55" mask="url(#mask-2)" points="55 42 55 49 50 49 50 42.7591425 52.07 44.5863808"></polygon>
                    <polygon id="Path" fill="#FF3051" mask="url(#mask-2)" points="50 53 54 53 54 57 50 57"></polygon>
                    <polygon id="Path" fill="#FFDE55" mask="url(#mask-2)" points="50 35.85 50 40 47.4136192 40 43.7591425 40 45.5863808 37.93 43 35 48.1727617 35 49.2496847 35 50 35"></polygon>
                    <polygon id="Path" fill="#FF7956" mask="url(#mask-2)" points="51 33.93 51 36 50.15 36 48.93 36 43.07 36 42.46 35.39 41 33.93 41 31 51 31"></polygon>
                    <polygon id="Path" fill="#FF3051" mask="url(#mask-2)" points="41 25 51 25 51 30 41 30"></polygon>
                    <polygon id="Path" fill="#00E7F0" mask="url(#mask-2)" points="41 20 51 20 51 25 41 25"></polygon>
                    <polygon id="Path" fill="#FFDE55" mask="url(#mask-2)" points="45 37.3161593 43.1901639 39.2552693 40.6284153 42 40.6284153 39.2552693 37 39.2552693 40.6284153 35.3676815 41.3715847 34.5714286 41.904918 34 42.4382514 34.5714286"></polygon>
                    <polygon id="Path" fill="#FF7956" mask="url(#mask-2)" points="42 34.0897155 41.4245283 34.6236324 40.6226415 35.3676149 36.7075472 39 35.9056604 39 33.9528302 39 32 37.1881838 38.6698113 31 40.6226415 32.8118162"></polygon>
                    <polygon id="Path" fill="#FF7956" mask="url(#mask-2)" points="37 53 41 53 41 57 37 57"></polygon>
                    <polygon id="Path" fill="#FFDE55" mask="url(#mask-2)" points="41 42.93 41 50 36 50 36 40 36.85 40 41 40"></polygon>
                    <polygon id="Path" fill="#FF3051" mask="url(#mask-2)" transform="translate(33.739713, 32.943750) rotate(-45.000000) translate(-33.739713, -32.943750) " points="28.9913797 30.5662591 38.4880453 30.5662591 38.4880453 35.3212409 28.9913797 35.3212409"></polygon>
                    <polygon id="Path" fill="#FF7956" mask="url(#mask-2)" points="36 40 36 50 31 50 31 40 33.93 40"></polygon>
                    <polygon id="Path" fill="#00E7F0" mask="url(#mask-2)" points="35 27.3301887 28.3301887 34 26.0754717 31.745283 25 30.6698113 31.6698113 24"></polygon>
                    <polygon id="Path" fill="#FFDE55" mask="url(#mask-2)" points="29 53 33 53 33 57 29 57"></polygon>
                    <polygon id="Path" fill="#FF3051" mask="url(#mask-2)" points="26 40 31 40 31 50 26 50"></polygon>
                    <polygon id="Path" fill="#00E7F0" mask="url(#mask-2)" points="22 40 27 40 27 50 22 50"></polygon>
                    <polygon id="Path" fill="#E0E0E2" mask="url(#mask-2)" points="22 53 26 53 26 57 22 57"></polygon>
                    <path d="M71.15,31.3999877 L66.571,31.3999877 C66.6244219,31.1066968 66.5323543,30.8057069 66.324,30.5924886 L59.6075,23.8759958 C59.2341425,23.5055172 58.6318575,23.5055172 58.2585,23.8759958 L51.2,30.9439882 L51.2,20.949999 C51.2,20.425329 50.7746705,20 50.25,20 L40.75,20 C40.2253295,20 39.8,20.425329 39.8,20.949999 L39.8,30.9439882 L32.7415,23.8759958 C32.3681425,23.5055172 31.7658575,23.5055172 31.3925,23.8759958 L24.676,30.5924886 C24.4676457,30.8057069 24.3755781,31.1066968 24.429,31.3999877 L19.85,31.3999877 C18.2779373,31.4046828 17.0046951,32.6779237 17,34.2499846 L17,64.6499518 C17.0046951,66.2220127 18.2779373,67.4952536 19.85,67.4999487 L38.679,67.4999487 L38.0425,71.2999446 L35.05,71.2999446 C34.75147,71.302002 34.4707639,71.4423549 34.29,71.6799442 L31.44,75.4799401 C31.2243951,75.7692274 31.1912705,76.1556802 31.3545,76.477439 C31.511475,76.8005473 31.8408018,77.0040636 32.2,76.9999384 L58.8,76.9999384 C59.1591982,77.0040636 59.488525,76.8005473 59.6455,76.477439 C59.8087295,76.1556802 59.7756049,75.7692274 59.56,75.4799401 L56.71,71.6799442 C56.5292361,71.4423549 56.24853,71.302002 55.95,71.2999446 L52.9575,71.2999446 L52.321,67.4999487 L71.15,67.4999487 C72.7220627,67.4952536 73.9953049,66.2220127 74,64.6499518 L74,34.2499846 C73.9953049,32.6779237 72.7220627,31.4046828 71.15,31.3999877 Z M58.933,25.8899936 L64.31,31.2669878 L62.296,33.2809857 L56.919,27.9039915 L58.933,25.8899936 Z M55.5795,29.25299 L60.947,34.6204842 L58.933,36.634482 L53.5655,31.2669878 L55.5795,29.25299 Z M51.2,33.6229853 L52.2165,32.6064864 L57.5935,37.9834806 L55.5795,39.9974784 L51.2,35.6179831 L51.2,33.6229853 Z M58.8,40.8999774 L58.8,48.4999692 L55.95,48.4999692 L55.95,42.3059759 L57.356,40.8999774 L58.8,40.8999774 Z M50.25,40.8999774 C50.7746705,40.8999774 51.2,40.4746484 51.2,39.9499785 L51.2,38.2969802 L54.24,41.336977 L52.2165,43.3604748 L49.756,40.8999774 L50.25,40.8999774 Z M54.05,44.2059739 L54.05,48.4999692 L51.2,48.4999692 L51.2,45.022973 L51.542,45.3744726 C51.9166193,45.7418755 52.5163807,45.7418755 52.891,45.3744726 L54.05,44.2059739 Z M41.7,21.8999979 L49.3,21.8999979 L49.3,24.7499949 L41.7,24.7499949 L41.7,21.8999979 Z M41.7,26.6499928 L49.3,26.6499928 L49.3,29.4999897 L41.7,29.4999897 L41.7,26.6499928 Z M41.7,31.3999877 L49.3,31.3999877 L49.3,34.2499846 L43.106,34.2499846 L41.7,32.8439861 L41.7,31.3999877 Z M46.1745,37.3089813 L45.006,36.1499826 L49.3,36.1499826 L49.3,38.9999795 L45.823,38.9999795 L46.1745,38.6579799 C46.544979,38.2846227 46.544979,37.6823385 46.1745,37.3089813 Z M40.75,38.9999795 L39.097,38.9999795 L42.137,35.9599828 L44.1605,37.9834806 L41.7,40.4439779 L41.7,39.9499785 C41.7,39.4253085 41.2746705,38.9999795 40.75,38.9999795 Z M39.8,40.8999774 L39.8,48.4999692 L36.95,48.4999692 L36.95,40.8999774 L39.8,40.8999774 Z M40.7975,34.6204842 L36.418,38.9999795 L34.423,38.9999795 L33.4065,37.9834806 L38.7835,32.6064864 L40.7975,34.6204842 Z M35.05,40.8999774 L35.05,48.4999692 L32.2,48.4999692 L32.2,40.8999774 L35.05,40.8999774 Z M37.4345,31.2669878 L32.067,36.634482 L30.053,34.6204842 L35.4205,29.25299 L37.4345,31.2669878 Z M32.067,25.8899936 L34.081,27.9039915 L28.704,33.2809857 L26.69,31.2669878 L32.067,25.8899936 Z M55.475,73.1999426 L56.9,75.0999405 L34.1,75.0999405 L35.525,73.1999426 L55.475,73.1999426 Z M39.971,71.2999446 L40.6075,67.4999487 L50.3925,67.4999487 L51.029,71.2999446 L39.971,71.2999446 Z M72.1,64.6499518 C72.1,65.1746217 71.6746705,65.5999508 71.15,65.5999508 L19.85,65.5999508 C19.3253295,65.5999508 18.9,65.1746217 18.9,64.6499518 L18.9,61.7999549 L72.1,61.7999549 L72.1,64.6499518 Z M72.1,59.8999569 L18.9,59.8999569 L18.9,34.2499846 C18.9,33.7253147 19.3253295,33.2999856 19.85,33.2999856 L26.044,33.2999856 L31.744,38.9999795 L21.75,38.9999795 C21.2253295,38.9999795 20.8,39.4253085 20.8,39.9499785 L20.8,49.4499682 C20.8,49.9746381 21.2253295,50.3999672 21.75,50.3999672 L40.75,50.3999672 C41.2746705,50.3999672 41.7,49.9746381 41.7,49.4499682 L41.7,43.122975 L43.923,40.8999774 L47.077,40.8999774 L49.3,43.122975 L49.3,49.4499682 C49.3,49.9746381 49.7253295,50.3999672 50.25,50.3999672 L69.25,50.3999672 C69.7746705,50.3999672 70.2,49.9746381 70.2,49.4499682 L70.2,39.9499785 C70.2,39.4253085 69.7746705,38.9999795 69.25,38.9999795 L59.256,38.9999795 L64.956,33.2999856 L71.15,33.2999856 C71.6746705,33.2999856 72.1,33.7253147 72.1,34.2499846 L72.1,59.8999569 Z M30.3,40.8999774 L30.3,48.4999692 L27.45,48.4999692 L27.45,40.8999774 L30.3,40.8999774 Z M25.55,40.8999774 L25.55,48.4999692 L22.7,48.4999692 L22.7,40.8999774 L25.55,40.8999774 Z M60.7,48.4999692 L60.7,40.8999774 L63.55,40.8999774 L63.55,48.4999692 L60.7,48.4999692 Z M65.45,48.4999692 L65.45,40.8999774 L68.3,40.8999774 L68.3,48.4999692 L65.45,48.4999692 Z" id="Shape" fill="#000000" fill-rule="nonzero" mask="url(#mask-2)"></path>
                    <path d="M21.8333333,57 L25.1666667,57 C25.626904,57 26,56.626904 26,56.1666667 L26,52.8333333 C26,52.373096 25.626904,52 25.1666667,52 L21.8333333,52 C21.373096,52 21,52.373096 21,52.8333333 L21,56.1666667 C21,56.626904 21.373096,57 21.8333333,57 Z M22.6666667,53.6666667 L24.3333333,53.6666667 L24.3333333,55.3333333 L22.6666667,55.3333333 L22.6666667,53.6666667 Z" id="Shape" fill="#000000" fill-rule="nonzero" mask="url(#mask-2)"></path>
                    <path d="M29.8333333,57 L33.1666667,57 C33.626904,57 34,56.626904 34,56.1666667 L34,52.8333333 C34,52.373096 33.626904,52 33.1666667,52 L29.8333333,52 C29.373096,52 29,52.373096 29,52.8333333 L29,56.1666667 C29,56.626904 29.373096,57 29.8333333,57 Z M30.6666667,53.6666667 L32.3333333,53.6666667 L32.3333333,55.3333333 L30.6666667,55.3333333 L30.6666667,53.6666667 Z" id="Shape" fill="#000000" fill-rule="nonzero" mask="url(#mask-2)"></path>
                    <path d="M37.8333333,57 L41.1666667,57 C41.626904,57 42,56.626904 42,56.1666667 L42,52.8333333 C42,52.373096 41.626904,52 41.1666667,52 L37.8333333,52 C37.373096,52 37,52.373096 37,52.8333333 L37,56.1666667 C37,56.626904 37.373096,57 37.8333333,57 Z M38.6666667,53.6666667 L40.3333333,53.6666667 L40.3333333,55.3333333 L38.6666667,55.3333333 L38.6666667,53.6666667 Z" id="Shape" fill="#000000" fill-rule="nonzero" mask="url(#mask-2)"></path>
                    <path d="M49.8333333,57 L53.1666667,57 C53.626904,57 54,56.626904 54,56.1666667 L54,52.8333333 C54,52.373096 53.626904,52 53.1666667,52 L49.8333333,52 C49.373096,52 49,52.373096 49,52.8333333 L49,56.1666667 C49,56.626904 49.373096,57 49.8333333,57 Z M50.6666667,53.6666667 L52.3333333,53.6666667 L52.3333333,55.3333333 L50.6666667,55.3333333 L50.6666667,53.6666667 Z" id="Shape" fill="#000000" fill-rule="nonzero" mask="url(#mask-2)"></path>
                    <path d="M58.8333333,57 L62.1666667,57 C62.626904,57 63,56.626904 63,56.1666667 L63,52.8333333 C63,52.373096 62.626904,52 62.1666667,52 L58.8333333,52 C58.373096,52 58,52.373096 58,52.8333333 L58,56.1666667 C58,56.626904 58.373096,57 58.8333333,57 Z M59.6666667,53.6666667 L61.3333333,53.6666667 L61.3333333,55.3333333 L59.6666667,55.3333333 L59.6666667,53.6666667 Z" id="Shape" fill="#000000" fill-rule="nonzero" mask="url(#mask-2)"></path>
                    <path d="M65.8333333,57 L69.1666667,57 C69.626904,57 70,56.626904 70,56.1666667 L70,52.8333333 C70,52.373096 69.626904,52 69.1666667,52 L65.8333333,52 C65.373096,52 65,52.373096 65,52.8333333 L65,56.1666667 C65,56.626904 65.373096,57 65.8333333,57 Z M66.6666667,53.6666667 L68.3333333,53.6666667 L68.3333333,55.3333333 L66.6666667,55.3333333 L66.6666667,53.6666667 Z" id="Shape" fill="#000000" fill-rule="nonzero" mask="url(#mask-2)"></path>
                    <polygon id="Path" fill="#000000" mask="url(#mask-2)" points="44 54 48 54 48 56 44 56"></polygon>
                </g>
                <g id="Group-10" transform="translate(234.000000, 48.000000) scale(-1, 1) translate(-234.000000, -48.000000) ">
                    <g id="Group-3">
                        <g id="Group-18"></g>
                        <g id="Group-2" transform="translate(279.000000, 48.000000) scale(-1, 1) translate(-279.000000, -48.000000) translate(90.000000, 0.000000)">
                            <g id="profile" transform="translate(3.274569, 4.677043)"></g>
                        </g>
                    </g>
                </g>
            </g>
        </g>
    </g>
</svg>