<?xml version="1.0" encoding="UTF-8"?>
<svg width="99px" height="99px" viewBox="0 0 99 99" version="1.1" xmlns="http://www.w3.org/2000/svg" xmlns:xlink="http://www.w3.org/1999/xlink">
    <!-- Generator: Sketch 52.3 (67297) - http://www.bohemiancoding.com/sketch -->
    <title>Group 9</title>
    <desc>Created with Sketch.</desc>
    <defs>
        <filter x="-14.1%" y="-11.8%" width="128.2%" height="128.2%" filterUnits="objectBoundingBox" id="filter-1">
            <feOffset dx="0" dy="0" in="SourceAlpha" result="shadowOffsetOuter1"></feOffset>
            <feGaussianBlur stdDeviation="2" in="shadowOffsetOuter1" result="shadowBlurOuter1"></feGaussianBlur>
            <feColorMatrix values="0 0 0 0 0   0 0 0 0 0   0 0 0 0 0  0 0 0 0.5 0" type="matrix" in="shadowBlurOuter1" result="shadowMatrixOuter1"></feColorMatrix>
            <feMerge>
                <feMergeNode in="shadowMatrixOuter1"></feMergeNode>
                <feMergeNode in="SourceGraphic"></feMergeNode>
            </feMerge>
        </filter>
        <circle id="path-2" cx="42.5" cy="42.5" r="42.5"></circle>
        <filter x="-8.2%" y="-5.9%" width="116.5%" height="116.5%" filterUnits="objectBoundingBox" id="filter-4">
            <feOffset dx="0" dy="2" in="SourceAlpha" result="shadowOffsetOuter1"></feOffset>
            <feGaussianBlur stdDeviation="2" in="shadowOffsetOuter1" result="shadowBlurOuter1"></feGaussianBlur>
            <feColorMatrix values="0 0 0 0 0   0 0 0 0 0   0 0 0 0 0  0 0 0 0.5 0" type="matrix" in="shadowBlurOuter1"></feColorMatrix>
        </filter>
    </defs>
    <g id="Page-1" stroke="none" stroke-width="1" fill="none" fill-rule="evenodd">
        <g id="Artboard" transform="translate(-81.000000, -91.000000)">
            <g id="Group-9" transform="translate(88.000000, 96.000000)">
                <g id="Group-7">
                    <g id="Group-6">
                        <g id="Group-3" filter="url(#filter-1)">
                            <g id="Group-8">
                                <mask id="mask-3" fill="white">
                                    <use xlink:href="#path-2"></use>
                                </mask>
                                <g id="Mask">
                                    <use fill="black" fill-opacity="1" filter="url(#filter-4)" xlink:href="#path-2"></use>
                                    <use fill="#FFFFFF" fill-rule="evenodd" xlink:href="#path-2"></use>
                                </g>
                                <path d="M68.1724138,28 L18.8275862,28 C17.8182382,28 17,28.8058875 17,29.8 L17,55 L70,55 L70,29.8 C70,28.8058875 69.1817618,28 68.1724138,28 Z" id="Path" fill="#57A4FF" mask="url(#mask-3)"></path>
                                <path d="M70,55 L70,59 C69.9969892,60.1032019 69.1805121,60.9967052 68.1724138,61 L18.8275862,61 C17.8194879,60.9967052 17.0030108,60.1032019 17,59 L17,55 L70,55 Z" id="Path" fill="#E0E0E2" mask="url(#mask-3)"></path>
                                <polygon id="Path" fill="#E0E0E2" mask="url(#mask-3)" points="54.2142857 65 57 70 31 70 33.7857143 65 37.5 65 50.5 65"></polygon>
                                <polygon id="Path" fill="#57A4FF" mask="url(#mask-3)" points="49.1428571 61 50 67 38 67 38.8571429 61"></polygon>
                                <path d="M69,29.8 L69,55 L64,55 L64,29.8 C63.9967052,28.8071183 63.1032019,28.0029653 62,28 L67,28 C68.1032019,28.0029653 68.9967052,28.8071183 69,29.8 Z" id="Path" fill="#2488FF" mask="url(#mask-3)"></path>
                                <path d="M69,55 L69,59 C68.9967052,60.1032019 68.1032019,60.9967052 67,61 L62,61 C63.1032019,60.9967052 63.9967052,60.1032019 64,59 L64,55 L69,55 Z" id="Path" fill="#C6C5CA" mask="url(#mask-3)"></path>
                                <polygon id="Path" fill="#C6C5CA" mask="url(#mask-3)" points="56 70 51.625 70 49 65 53.375 65"></polygon>
                                <polygon id="Path" fill="#2488FF" mask="url(#mask-3)" points="50 67 45 67 44 61 49 61"></polygon>
                                <polygon id="Path" fill="#898890" mask="url(#mask-3)" points="62 46 67 46 67 51 62 51"></polygon>
                                <polygon id="Path" fill="#00E7F0" mask="url(#mask-3)" points="62 35 67 35 67 44 62 44"></polygon>
                                <polygon id="Path" fill="#00E7F0" mask="url(#mask-3)" points="62 27.0028302 61.0320755 27.9707547 59.0028302 30 53 23.9971698 55.9971698 21"></polygon>
                                <polygon id="Path" fill="#FF3051" mask="url(#mask-3)" points="56 35 61 35 61 44 56 44"></polygon>
                                <polygon id="Path" fill="#FF3051" mask="url(#mask-3)" transform="translate(54.132100, 28.264975) rotate(-45.000000) translate(-54.132100, -28.264975) " points="51.8797402 23.7665544 56.3844598 23.7665544 56.3844598 32.7633956 51.8797402 32.7633956"></polygon>
                                <polygon id="Path" fill="#00E7F0" mask="url(#mask-3)" points="55 46 60 46 60 51 55 51"></polygon>
                                <polygon id="Path" fill="#FF7956" mask="url(#mask-3)" points="57 35 57 44 52 44 52 36.863 52.61 36.314 54.07 35"></polygon>
                                <polygon id="Path" fill="#FF7956" mask="url(#mask-3)" points="55 33.0028302 53.1881838 34.7603774 51.9102845 36 51.3763676 35.4820755 50.6323851 34.7603774 47 31.2367925 47 30.5150943 47 28.7575472 48.8118162 27"></polygon>
                                <polygon id="Path" fill="#FFDE55" mask="url(#mask-3)" points="52 35.904918 51.4285714 36.4382514 48.6838407 39 46.7447307 37.1901639 44 34.6284153 46.7447307 34.6284153 46.7447307 31 50.6323185 34.6284153 51.4285714 35.3715847"></polygon>
                                <polygon id="Path" fill="#FFDE55" mask="url(#mask-3)" points="51 37 51 44 46 44 46 37.7591425 48.07 39.5863808"></polygon>
                                <polygon id="Path" fill="#FF3051" mask="url(#mask-3)" points="46 46 51 46 51 51 46 51"></polygon>
                                <polygon id="Path" fill="#FFDE55" mask="url(#mask-3)" points="48 30.85 48 35 45.4136192 35 41.7591425 35 43.5863808 32.93 41 30 46.1727617 30 47.2496847 30 48 30"></polygon>
                                <polygon id="Path" fill="#FF7956" mask="url(#mask-3)" points="49 27.93 49 30 48.235 30 47.137 30 41.863 30 41.314 29.39 40 27.93 40 25 49 25"></polygon>
                                <polygon id="Path" fill="#FF3051" mask="url(#mask-3)" points="40 21 49 21 49 26 40 26"></polygon>
                                <polygon id="Path" fill="#00E7F0" mask="url(#mask-3)" points="40 17 49 17 49 22 40 22"></polygon>
                                <polygon id="Path" fill="#FFDE55" mask="url(#mask-3)" points="43 32.3161593 41.1901639 34.2552693 38.6284153 37 38.6284153 34.2552693 35 34.2552693 38.6284153 30.3676815 39.3715847 29.5714286 39.904918 29 40.4382514 29.5714286"></polygon>
                                <polygon id="Path" fill="#FF7956" mask="url(#mask-3)" points="40 30.0897155 39.4820755 30.6236324 38.7603774 31.3676149 35.2367925 35 34.5150943 35 32.7575472 35 31 33.1881838 37.0028302 27 38.7603774 28.8118162"></polygon>
                                <polygon id="Path" fill="#FF7956" mask="url(#mask-3)" points="35 46 40 46 40 51 35 51"></polygon>
                                <polygon id="Path" fill="#FFDE55" mask="url(#mask-3)" points="40 37.637 40 44 35 44 35 35 35.85 35 40 35"></polygon>
                                <polygon id="Path" fill="#FF3051" mask="url(#mask-3)" transform="translate(31.858675, 28.262500) rotate(-45.000000) translate(-31.858675, -28.262500) " points="27.3602544 26.0101402 36.3570956 26.0101402 36.3570956 30.5148598 27.3602544 30.5148598"></polygon>
                                <polygon id="Path" fill="#FF7956" mask="url(#mask-3)" points="34 35 34 44 29 44 29 35 31.93 35"></polygon>
                                <polygon id="Path" fill="#00E7F0" mask="url(#mask-3)" points="33 23.9971698 26.9971698 30 24.9679245 27.9707547 24 27.0028302 30.0028302 21"></polygon>
                                <polygon id="Path" fill="#FFDE55" mask="url(#mask-3)" points="28 46 33 46 33 51 28 51"></polygon>
                                <polygon id="Path" fill="#FF3051" mask="url(#mask-3)" points="25 35 30 35 30 44 25 44"></polygon>
                                <polygon id="Path" fill="#00E7F0" mask="url(#mask-3)" points="19 35 24 35 24 44 19 44"></polygon>
                                <polygon id="Path" fill="#E0E0E2" mask="url(#mask-3)" points="19 46 24 46 24 51 19 51"></polygon>
                                <path d="M67.3,26.7999883 L62.962,26.7999883 C63.0126102,26.5221338 62.9253883,26.2369854 62.728,26.0349892 L56.365,19.671996 C56.0112929,19.3210163 55.4407071,19.3210163 55.087,19.671996 L48.4,26.3679888 L48.4,16.899999 C48.4,16.4029433 47.9970563,16 47.5,16 L38.5,16 C38.0029437,16 37.6,16.4029433 37.6,16.899999 L37.6,26.3679888 L30.913,19.671996 C30.5592929,19.3210163 29.9887071,19.3210163 29.635,19.671996 L23.272,26.0349892 C23.0746117,26.2369854 22.9873898,26.5221338 23.038,26.7999883 L18.7,26.7999883 C17.2106775,26.8044363 16.004448,28.0106645 16,29.4999854 L16,58.2999543 C16.004448,59.7892752 17.2106775,60.9955034 18.7,60.9999514 L36.538,60.9999514 L35.935,64.5999475 L33.1,64.5999475 C32.8171821,64.6018966 32.55125,64.7348625 32.38,64.9599471 L29.68,68.5599432 C29.4757427,68.8340049 29.4443615,69.2001181 29.599,69.5049422 C29.7477132,69.8110448 30.059707,70.0038498 30.4,69.9999417 L55.6,69.9999417 C55.940293,70.0038498 56.2522868,69.8110448 56.401,69.5049422 C56.5556385,69.2001181 56.5242573,68.8340049 56.32,68.5599432 L53.62,64.9599471 C53.44875,64.7348625 53.1828179,64.6018966 52.9,64.5999475 L50.065,64.5999475 L49.462,60.9999514 L67.3,60.9999514 C68.7893225,60.9955034 69.995552,59.7892752 70,58.2999543 L70,29.4999854 C69.995552,28.0106645 68.7893225,26.8044363 67.3,26.7999883 Z M55.726,21.579994 L60.82,26.6739885 L58.912,28.5819864 L53.818,23.4879919 L55.726,21.579994 Z M52.549,24.7659905 L57.634,29.850985 L55.726,31.758983 L50.641,26.6739885 L52.549,24.7659905 Z M48.4,28.9059861 L49.363,27.9429871 L54.457,33.0369816 L52.549,34.9449795 L48.4,30.795984 L48.4,28.9059861 Z M55.6,35.7999786 L55.6,42.9999708 L52.9,42.9999708 L52.9,37.1319772 L54.232,35.7999786 L55.6,35.7999786 Z M47.5,35.7999786 C47.9970563,35.7999786 48.4,35.3970353 48.4,34.8999796 L48.4,33.3339813 L51.28,36.2139782 L49.363,38.1309761 L47.032,35.7999786 L47.5,35.7999786 Z M51.1,38.9319752 L51.1,42.9999708 L48.4,42.9999708 L48.4,39.7059744 L48.724,40.038974 C49.0789025,40.38704 49.6470975,40.38704 50.002,40.038974 L51.1,38.9319752 Z M39.4,17.7999981 L46.6,17.7999981 L46.6,20.4999951 L39.4,20.4999951 L39.4,17.7999981 Z M39.4,22.2999932 L46.6,22.2999932 L46.6,24.9999903 L39.4,24.9999903 L39.4,22.2999932 Z M39.4,26.7999883 L46.6,26.7999883 L46.6,29.4999854 L40.732,29.4999854 L39.4,28.1679869 L39.4,26.7999883 Z M43.639,32.3979823 L42.532,31.2999835 L46.6,31.2999835 L46.6,33.9999806 L43.306,33.9999806 L43.639,33.6759809 C43.9899801,33.3222741 43.9899801,32.7516891 43.639,32.3979823 Z M38.5,33.9999806 L36.934,33.9999806 L39.814,31.1199837 L41.731,33.0369816 L39.4,35.3679791 L39.4,34.8999796 C39.4,34.4029239 38.9970563,33.9999806 38.5,33.9999806 Z M37.6,35.7999786 L37.6,42.9999708 L34.9,42.9999708 L34.9,35.7999786 L37.6,35.7999786 Z M38.545,29.850985 L34.396,33.9999806 L32.506,33.9999806 L31.543,33.0369816 L36.637,27.9429871 L38.545,29.850985 Z M33.1,35.7999786 L33.1,42.9999708 L30.4,42.9999708 L30.4,35.7999786 L33.1,35.7999786 Z M35.359,26.6739885 L30.274,31.758983 L28.366,29.850985 L33.451,24.7659905 L35.359,26.6739885 Z M30.274,21.579994 L32.182,23.4879919 L27.088,28.5819864 L25.18,26.6739885 L30.274,21.579994 Z M52.45,66.3999456 L53.8,68.1999436 L32.2,68.1999436 L33.55,66.3999456 L52.45,66.3999456 Z M37.762,64.5999475 L38.365,60.9999514 L47.635,60.9999514 L48.238,64.5999475 L37.762,64.5999475 Z M68.2,58.2999543 C68.2,58.7970101 67.7970563,59.1999533 67.3,59.1999533 L18.7,59.1999533 C18.2029437,59.1999533 17.8,58.7970101 17.8,58.2999543 L17.8,55.5999572 L68.2,55.5999572 L68.2,58.2999543 Z M68.2,53.7999592 L17.8,53.7999592 L17.8,29.4999854 C17.8,29.0029297 18.2029437,28.5999864 18.7,28.5999864 L24.568,28.5999864 L29.968,33.9999806 L20.5,33.9999806 C20.0029437,33.9999806 19.6,34.4029239 19.6,34.8999796 L19.6,43.8999699 C19.6,44.3970256 20.0029437,44.7999689 20.5,44.7999689 L38.5,44.7999689 C38.9970563,44.7999689 39.4,44.3970256 39.4,43.8999699 L39.4,37.9059763 L41.506,35.7999786 L44.494,35.7999786 L46.6,37.9059763 L46.6,43.8999699 C46.6,44.3970256 47.0029437,44.7999689 47.5,44.7999689 L65.5,44.7999689 C65.9970563,44.7999689 66.4,44.3970256 66.4,43.8999699 L66.4,34.8999796 C66.4,34.4029239 65.9970563,33.9999806 65.5,33.9999806 L56.032,33.9999806 L61.432,28.5999864 L67.3,28.5999864 C67.7970563,28.5999864 68.2,29.0029297 68.2,29.4999854 L68.2,53.7999592 Z M28.6,35.7999786 L28.6,42.9999708 L25.9,42.9999708 L25.9,35.7999786 L28.6,35.7999786 Z M24.1,35.7999786 L24.1,42.9999708 L21.4,42.9999708 L21.4,35.7999786 L24.1,35.7999786 Z M57.4,42.9999708 L57.4,35.7999786 L60.1,35.7999786 L60.1,42.9999708 L57.4,42.9999708 Z M61.9,42.9999708 L61.9,35.7999786 L64.6,35.7999786 L64.6,42.9999708 L61.9,42.9999708 Z" id="Shape" fill="#000000" fill-rule="nonzero" mask="url(#mask-3)"></path>
                                <path d="M21,53 L25,53 C25.5522847,53 26,52.5522847 26,52 L26,48 C26,47.4477153 25.5522847,47 25,47 L21,47 C20.4477153,47 20,47.4477153 20,48 L20,52 C20,52.5522847 20.4477153,53 21,53 Z M22,49 L24,49 L24,51 L22,51 L22,49 Z" id="Shape" fill="#000000" fill-rule="nonzero" mask="url(#mask-3)"></path>
                                <path d="M28,53 L32,53 C32.5522847,53 33,52.5522847 33,52 L33,48 C33,47.4477153 32.5522847,47 32,47 L28,47 C27.4477153,47 27,47.4477153 27,48 L27,52 C27,52.5522847 27.4477153,53 28,53 Z M29,49 L31,49 L31,51 L29,51 L29,49 Z" id="Shape" fill="#000000" fill-rule="nonzero" mask="url(#mask-3)"></path>
                                <path d="M35,53 L39,53 C39.5522847,53 40,52.5522847 40,52 L40,48 C40,47.4477153 39.5522847,47 39,47 L35,47 C34.4477153,47 34,47.4477153 34,48 L34,52 C34,52.5522847 34.4477153,53 35,53 Z M36,49 L38,49 L38,51 L36,51 L36,49 Z" id="Shape" fill="#000000" fill-rule="nonzero" mask="url(#mask-3)"></path>
                                <path d="M48,53 L52,53 C52.5522847,53 53,52.5522847 53,52 L53,48 C53,47.4477153 52.5522847,47 52,47 L48,47 C47.4477153,47 47,47.4477153 47,48 L47,52 C47,52.5522847 47.4477153,53 48,53 Z M49,49 L51,49 L51,51 L49,51 L49,49 Z" id="Shape" fill="#000000" fill-rule="nonzero" mask="url(#mask-3)"></path>
                                <path d="M55,53 L59,53 C59.5522847,53 60,52.5522847 60,52 L60,48 C60,47.4477153 59.5522847,47 59,47 L55,47 C54.4477153,47 54,47.4477153 54,48 L54,52 C54,52.5522847 54.4477153,53 55,53 Z M56,49 L58,49 L58,51 L56,51 L56,49 Z" id="Shape" fill="#000000" fill-rule="nonzero" mask="url(#mask-3)"></path>
                                <path d="M62,53 L66,53 C66.5522847,53 67,52.5522847 67,52 L67,48 C67,47.4477153 66.5522847,47 66,47 L62,47 C61.4477153,47 61,47.4477153 61,48 L61,52 C61,52.5522847 61.4477153,53 62,53 Z M63,49 L65,49 L65,51 L63,51 L63,49 Z" id="Shape" fill="#000000" fill-rule="nonzero" mask="url(#mask-3)"></path>
                                <polygon id="Path" fill="#000000" mask="url(#mask-3)" points="42 49 47 49 47 50 42 50"></polygon>
                            </g>
                        </g>
                    </g>
                </g>
            </g>
        </g>
    </g>
</svg>