<?xml version="1.0" encoding="UTF-8"?>
<svg width="488px" height="96px" viewBox="0 0 488 96" version="1.1" xmlns="http://www.w3.org/2000/svg" xmlns:xlink="http://www.w3.org/1999/xlink">
    <!-- Generator: Sketch 52.3 (67297) - http://www.bohemiancoding.com/sketch -->
    <title>Group 16</title>
    <desc>Created with Sketch.</desc>
    <defs>
        <circle id="path-1" cx="43.2254309" cy="42.8229572" r="42.5"></circle>
    </defs>
    <g id="Page-1" stroke="none" stroke-width="1" fill="none" fill-rule="evenodd">
        <g id="Artboard" transform="translate(-1616.000000, -570.000000)">
            <g id="Group-16" transform="translate(1616.000000, 570.000000)">
                <g id="Group-10">
                    <g id="Group-3">
                        <path d="M189.862013,48.2422864 L20.0283096,48.2422864" id="Line-2" stroke="#FFF60F" stroke-width="5" stroke-linecap="square"></path>
                        <g id="Group-2" transform="translate(110.000000, 0.000000)">
                            <rect id="Rectangle" fill="#FFF60F" x="0" y="1.42108547e-14" width="378" height="96" rx="48"></rect>
                            <g id="profile" transform="translate(3.274569, 4.677043)">
                                <mask id="mask-2" fill="white">
                                    <use xlink:href="#path-1"></use>
                                </mask>
                                <use id="Mask" fill="#FFFFFF" xlink:href="#path-1"></use>
                            </g>
                        </g>
                        <circle id="Oval" fill="#FFF60F" cx="9.5" cy="48.5" r="9.5"></circle>
                    </g>
                </g>
                <g id="responsive-design" transform="translate(127.000000, 24.000000)">
                    <g id="Group" transform="translate(1.000000, 1.000000)">
                        <g id="Path">
                            <path d="M45.0657631,0.103917431 C44.3420382,0.103917431 6.91509036,0.103917431 6.705251,0.103917431 C4.70713855,0.103917431 3.08154618,1.69059862 3.08154618,3.64088303 L3.08154618,30.1710894 C3.08154618,31.8959679 4.39116466,33.3909128 6.13393574,33.6634266 L6.78653614,34.1720183 L44.4212249,34.1720183 L45.6370783,33.6634266 C47.3798494,33.3909128 48.6894679,31.8959679 48.6894679,30.1710894 C48.6894679,29.2883303 48.6894679,4.43934404 48.6894679,3.64088303 C48.6894679,1.69059862 47.0638755,0.103917431 45.0657631,0.103917431 Z" fill="#3F6D8E"></path>
                            <path d="M6.53837349,30.1710894 L6.53837349,3.64088303 C6.53837349,1.69059862 8.16396586,0.103917431 10.1620783,0.103917431 C8.05197791,0.103917431 6.74401606,0.103917431 6.705251,0.103917431 C4.70713855,0.103917431 3.08154618,1.69059862 3.08154618,3.64088303 L3.08154618,30.1710894 C3.08154618,31.8959679 4.39116466,33.3909128 6.13393574,33.6634266 L6.78653614,34.1720183 L10.2433635,34.1720183 L9.59076305,33.6634266 C7.84799197,33.3909128 6.53837349,31.8959679 6.53837349,30.1710894 Z" fill="#365E7D"></path>
                            <path d="M44.9929819,6.3510367 L6.99449799,6.3510367 L6.33692771,7.02100229 L6.33692771,29.8800344 C6.33692771,30.2304862 6.62805221,30.5146422 6.98709839,30.5146422 L44.7840261,30.5146422 C45.1430723,30.5146422 45.4340863,30.2304862 45.4340863,29.8800344 C45.4340863,29.2807844 45.4340863,7.71457569 45.4340863,7.02100229 L44.9929819,6.3510367 Z" fill="#E4F6FF"></path>
                            <path d="M10.5630924,29.8800344 L10.5630924,7.02111009 L11.2206627,6.3511445 L6.99449799,6.3511445 L6.33692771,7.02111009 L6.33692771,29.8801422 C6.33692771,30.230594 6.62805221,30.51475 6.98709839,30.51475 L11.2132631,30.51475 C10.8542169,30.51475 10.5630924,30.2304862 10.5630924,29.8800344 Z" fill="#D3EFFB"></path>
                            <path d="M10.5630924,3.25755275 L6.98698795,3.25755275 C6.62794177,3.25755275 6.33681727,3.54170872 6.33681727,3.89216055 L6.33681727,7.02111009 L10.5629819,7.02111009 L10.8409639,6.73167202 L10.8409639,3.45902752 L10.5630924,3.25755275 Z" fill="#DD636E"></path>
                            <path d="M44.7839157,3.25755275 C43.1049799,3.25755275 11.8936948,3.25755275 10.5630924,3.25755275 L10.5630924,7.02111009 L45.4339759,7.02111009 L45.4339759,3.89216055 C45.4339759,3.54170872 45.1429618,3.25755275 44.7839157,3.25755275 Z" fill="#B1E4F9"></path>
                            <path d="M51.1154317,33.6634266 L0.655582329,33.6634266 C0.321385542,33.6634266 0.0505823293,33.9304427 0.0505823293,34.2597661 L0.0505823293,36.3109495 C0.0505823293,37.832844 1.3139257,39.0780206 2.85812249,39.0780206 L48.9128916,39.0780206 C50.4569779,39.0780206 51.7204317,37.832844 51.7204317,36.3109495 L51.7204317,34.2597661 C51.7204317,33.9304427 51.4495181,33.6634266 51.1154317,33.6634266 Z" fill="#407093"></path>
                            <path d="M6.33692771,36.3108417 L6.33692771,34.2596583 C6.33692771,33.9303349 6.60784137,33.6633188 6.94192771,33.6633188 L0.655582329,33.6633188 C0.321385542,33.6633188 0.0505823293,33.9303349 0.0505823293,34.2596583 L0.0505823293,36.3108417 C0.0505823293,37.8327362 1.3139257,39.0779128 2.85812249,39.0779128 L9.14457831,39.0779128 C7.60038153,39.0779128 6.33692771,37.8327362 6.33692771,36.3108417 Z" fill="#365E7D"></path>
                        </g>
                        <path d="M54.3649598,41.0556858 L54.3649598,19.9991468 L54.940251,19.4678096 C54.940251,18.1385505 54.940251,17.271422 54.940251,17.1021789 C54.940251,15.8874014 53.9313655,14.9026651 52.6866867,14.9026651 L38.8558434,14.9026651 C37.6112751,14.9026651 36.6023896,15.8874014 36.6023896,17.1021789 L36.6023896,19.4678096 L37.2465964,20.0351514 L37.2465964,41.253711 L36.6023896,41.6429702 L36.6023896,44.768578 C36.6023896,45.9833555 37.6112751,46.9680917 38.8558434,46.9680917 L52.6867972,46.9680917 C53.9313655,46.9680917 54.9403614,45.9833555 54.9403614,44.768578 C54.9403614,44.5689358 54.9403614,43.3982477 54.9403614,41.6429702 L54.3649598,41.0556858 Z" id="Path" fill="#365E7D"></path>
                        <path d="M39.9248092,44.7683624 L39.9248092,41.6427546 L40.5690161,41.2534954 L40.5690161,20.0350436 L39.9248092,19.4677018 L39.9248092,17.1021789 C39.9248092,15.8874014 40.9336948,14.9026651 42.1782631,14.9026651 L38.8558434,14.9026651 C37.6112751,14.9026651 36.6023896,15.8874014 36.6023896,17.1021789 L36.6023896,19.4678096 L37.2465964,20.0351514 L37.2465964,41.253711 L36.6023896,41.6429702 L36.6023896,44.768578 C36.6023896,45.9833555 37.6112751,46.9680917 38.8558434,46.9680917 L42.1782631,46.9680917 C40.9338052,46.9679839 39.9248092,45.9831399 39.9248092,44.7683624 Z" id="Path" fill="#294B64"></path>
                        <ellipse id="Oval" fill="#DD636E" cx="25.333243" cy="18.7678761" rx="6.92657631" ry="6.76077752"></ellipse>
                        <path d="M21.0572691,18.7678761 C21.0572691,15.4765826 23.4673293,12.735922 26.6585442,12.1321445 C26.2294779,12.0509725 25.7866064,12.0070986 25.333243,12.0070986 C21.507761,12.0070986 18.4066667,15.0339633 18.4066667,18.7678761 C18.4066667,22.501789 21.507761,25.5286537 25.333243,25.5286537 C25.7866064,25.5286537 26.2294779,25.4847798 26.6585442,25.4036078 C23.4673293,24.7999381 21.0572691,22.0591697 21.0572691,18.7678761 Z" id="Path" fill="#DA4A54"></path>
                        <path d="M28.1519378,18.0677271 L24.5974799,15.7019885 C24.0210843,15.3184427 23.2400402,15.7212844 23.2400402,16.4021376 L23.2400402,21.1335069 C23.2400402,21.8143601 24.0210843,22.2172018 24.5974799,21.833656 L28.1519378,19.4679174 C28.6573193,19.131695 28.6573193,18.4041651 28.1519378,18.0677271 Z" id="Path" fill="#E4F6FF"></path>
                        <path d="M25.8906426,16.5627569 L24.5974799,15.7020963 C24.0210843,15.3185505 23.2400402,15.7213922 23.2400402,16.4022454 L23.2400402,21.1336147 C23.2400402,21.8144679 24.0210843,22.2173096 24.5974799,21.8337638 L25.8906426,20.9731032 L25.8906426,16.5627569 Z" id="Path" fill="#D3EFFB"></path>
                        <polygon id="Path" fill="#90D8F9" points="36.6023896 22.5502982 54.9403614 22.5502982 54.9403614 41.6427546 36.6023896 41.6427546"></polygon>
                        <polygon id="Path" fill="#75CEF9" points="36.6023896 22.5502982 39.9245884 22.5502982 39.9245884 41.6428624 36.6023896 41.6428624"></polygon>
                        <path d="M46.6517068,44.9438578 L44.8909337,44.9438578 C44.4334839,44.9438578 44.0626205,44.5818716 44.0626205,44.1353716 C44.0626205,43.6888716 44.4334839,43.3268853 44.8909337,43.3268853 L46.6517068,43.3268853 C47.1091566,43.3268853 47.4800201,43.6888716 47.4800201,44.1353716 C47.4800201,44.5818716 47.1091566,44.9438578 46.6517068,44.9438578 Z" id="Path" fill="#365E7D"></path>
                        <ellipse id="Oval" fill="#DD636E" cx="45.7713755" cy="32.0654266" rx="6.02846386" ry="5.88416284"></ellipse>
                        <path d="M42.0206627,32.0654266 C42.0206627,29.1958394 44.1255723,26.8074633 46.910251,26.2875528 C46.5412651,26.2186697 46.1609036,26.1812638 45.7713755,26.1812638 C42.4418876,26.1812638 39.7429116,28.8157431 39.7429116,32.0654266 C39.7429116,35.3151101 42.4418876,37.9495894 45.7713755,37.9495894 C46.1609036,37.9495894 46.5413755,37.9121835 46.910251,37.8433005 C44.1255723,37.3233899 42.0206627,34.9350138 42.0206627,32.0654266 Z" id="Path" fill="#DA4A54"></path>
                        <polygon id="Path" fill="#DD636E" points="36.6023896 19.4677018 39.9800301 19.4677018 39.9800301 22.7035872 36.6023896 22.7035872"></polygon>
                        <path d="M39.9245884,19.4677018 L39.9245884,22.7035872 L54.9403614,22.7035872 L54.9403614,19.4677018 C53.1150904,19.4677018 41.7707329,19.4677018 39.9245884,19.4677018 Z" id="Path" fill="#B1E4F9"></path>
                        <path d="M48.224508,31.4560436 L45.1309237,29.3970986 C44.6292972,29.0632477 43.9495281,29.4139151 43.9495281,30.0064817 L43.9495281,34.1243716 C43.9495281,34.7169381 44.6292972,35.0676055 45.1309237,34.7337546 L48.224508,32.6748096 C48.6643976,32.3820298 48.6643976,31.7488234 48.224508,31.4560436 Z" id="Path" fill="#E4F6FF"></path>
                        <path d="M46.2273896,30.1268922 L45.1309237,29.3970986 C44.6292972,29.0632477 43.9495281,29.4139151 43.9495281,30.0064817 L43.9495281,34.1243716 C43.9495281,34.7169381 44.6292972,35.0676055 45.1309237,34.7337546 L46.2273896,34.003961 L46.2273896,30.1268922 Z" id="Path" fill="#D3EFFB"></path>
                    </g>
                    <g id="Group" fill="#000000">
                        <path d="M53.7886667,14.9627489 L50.6005556,14.9627489 L50.6005556,4.40379333 C50.6005556,1.98341111 48.5912222,0.0143733333 46.1214444,0.0143733333 L7.52844444,0.0143733333 C5.05866667,0.0143733333 3.04944444,1.98341111 3.04944444,4.40379333 L3.04944444,31.2024378 C3.04944444,32.21064 3.41211111,33.1584089 4.02133333,33.9134444 L1.44211111,33.9134444 C0.646888889,33.9133356 2.84217094e-14,34.5500089 2.84217094e-14,35.3323756 L2.84217094e-14,37.4043133 C2.84217094e-14,39.3958911 1.641,41.0160489 3.658,41.0160489 L24.325,41.0160489 C24.7853333,41.0160489 25.1583333,40.6504 25.1583333,40.1993822 C25.1583333,39.7483644 24.7853333,39.3827156 24.325,39.3827156 L3.658,39.3827156 C2.56,39.3827156 1.66666667,38.4952711 1.66666667,37.4043133 L1.66666667,35.5466689 L36.7734444,35.5466689 L36.7734444,39.3827156 L28.2138889,39.3827156 C27.7535556,39.3827156 27.3805556,39.7483644 27.3805556,40.1993822 C27.3805556,40.6504 27.7535556,41.0160489 28.2138889,41.0160489 L36.7734444,41.0160489 L36.7734444,45.9474089 C36.7734444,47.6228822 38.1643333,48.9859533 39.8738889,48.9859533 L53.7885556,48.9859533 C55.4982222,48.9859533 56.889,47.6228822 56.889,45.9474089 C56.889,44.6993244 56.889,18.8941822 56.889,18.0012933 C56.8891111,16.32582 55.4982222,14.9627489 53.7886667,14.9627489 Z M36.7734444,33.9133356 L7.02444444,33.9133356 C5.70422222,33.6760667 4.71622222,32.5213 4.71622222,31.2023289 L4.71622222,4.40379333 C4.71622222,2.88403111 5.97777778,1.64770667 7.52855556,1.64770667 L46.1215556,1.64770667 C47.6723333,1.64770667 48.934,2.88403111 48.934,4.40379333 L48.934,14.9628578 L47.3254444,14.9628578 C47.3254444,13.8207222 47.3254444,5.91103333 47.3254444,4.65761333 C47.3254444,3.85390444 46.6582222,3.19991778 45.8381111,3.19991778 C45.6111111,3.19991778 8.97066667,3.19991778 7.81211111,3.19991778 C6.99188889,3.19991778 6.32466667,3.85379556 6.32466667,4.65761333 L6.32466667,30.9085467 C6.32466667,31.7122556 6.99188889,32.3662422 7.81211111,32.3662422 L36.7735556,32.3662422 L36.7735556,33.9133356 L36.7734444,33.9133356 Z M45.6586667,4.83314222 L45.6586667,7.00144667 L12.2431111,7.00144667 L12.2431111,4.83314222 L45.6586667,4.83314222 Z M10.5764444,4.83314222 L10.5764444,7.00144667 L7.99122222,7.00144667 L7.99122222,4.83314222 L10.5764444,4.83314222 Z M36.7734444,18.0011844 L36.7734444,30.7328 L7.99122222,30.7328 L7.99122222,8.63478 L45.6586667,8.63478 L45.6586667,14.9627489 L39.874,14.9627489 C38.1643333,14.9627489 36.7734444,16.32582 36.7734444,18.0011844 Z M38.4401111,21.2074178 L40.1157778,21.2074178 L40.1157778,22.8427111 L38.4401111,22.8427111 L38.4401111,21.2074178 Z M55.2224444,45.9474089 C55.2224444,46.7222622 54.5792222,47.35262 53.7886667,47.35262 L39.8738889,47.35262 C39.0833333,47.35262 38.4401111,46.7222622 38.4401111,45.9474089 L38.4401111,43.6068422 L55.2224444,43.6068422 L55.2224444,45.9474089 Z M55.2224444,41.9735089 L38.4401111,41.9735089 C38.4401111,35.3067867 38.4401111,31.1357978 38.4401111,24.4760444 L55.2224444,24.4760444 L55.2224444,41.9735089 Z M55.2224444,22.8427111 L41.7824444,22.8427111 L41.7824444,21.2074178 L55.2224444,21.2074178 L55.2224444,22.8427111 Z M55.2224444,19.5740844 C54.3718889,19.5740844 39.1985556,19.5740844 38.4401111,19.5740844 L38.4401111,18.0011844 C38.4401111,17.22644 39.0833333,16.5960822 39.8738889,16.5960822 L53.7885556,16.5960822 C54.5791111,16.5960822 55.2223333,17.22644 55.2223333,18.0011844 L55.2224444,19.5740844 Z" id="Shape" fill-rule="nonzero"></path>
                        <path d="M45.9455556,46.1245711 L47.717,46.1245711 C48.1773333,46.1245711 48.5503333,45.7589222 48.5503333,45.3079044 C48.5503333,44.8568867 48.1773333,44.4912378 47.717,44.4912378 L45.9455556,44.4912378 C45.4852222,44.4912378 45.1122222,44.8568867 45.1122222,45.3079044 C45.1122222,45.7589222 45.4852222,46.1245711 45.9455556,46.1245711 Z" id="Path"></path>
                        <path d="M29.5745556,18.3018267 L25.9985556,15.91226 C24.8668889,15.1559178 23.33,15.9516778 23.33,17.2941689 L23.33,22.0734111 C23.33,23.4155756 24.8663333,24.2117711 25.9985556,23.45532 L29.5745556,21.0657533 C30.5674444,20.4022933 30.5672222,18.9650689 29.5745556,18.3018267 Z M28.6355556,19.7162933 L25.0595556,22.1059689 C25.0487778,22.1130467 25.0395556,22.1193622 25.0181111,22.1082556 C24.9967778,22.0971489 24.9967778,22.0861511 24.9967778,22.0734111 L24.9967778,17.2941689 C24.9967778,17.2814289 24.9967778,17.2704311 25.0181111,17.2593244 C25.0265556,17.2549689 25.0331111,17.2532267 25.0386667,17.2532267 C25.0471111,17.2532267 25.0531111,17.2572556 25.0595556,17.2616111 L28.6355556,19.6511778 C28.643,19.6561867 28.6531111,19.6629378 28.6531111,19.6837356 C28.6531111,19.7046422 28.643,19.7113933 28.6355556,19.7162933 Z" id="Shape" fill-rule="nonzero"></path>
                        <path d="M26.2694444,12.0378844 C21.9674444,12.0378844 18.4674444,15.4678844 18.4674444,19.6837356 C18.4674444,23.8995867 21.9674444,27.3295867 26.2694444,27.3295867 C30.5714444,27.3295867 34.0713333,23.8996956 34.0713333,19.6837356 C34.0713333,15.4677756 30.5714444,12.0378844 26.2694444,12.0378844 Z M26.2694444,25.6963622 C22.8864444,25.6963622 20.1341111,22.9991844 20.1341111,19.6838444 C20.1341111,16.3685044 22.8864444,13.6713267 26.2694444,13.6713267 C29.6523333,13.6713267 32.4046667,16.3686133 32.4046667,19.6838444 C32.4046667,22.9990756 29.6523333,25.6963622 26.2694444,25.6963622 Z" id="Shape" fill-rule="nonzero"></path>
                        <path d="M46.6563333,29.7458311 C45.5977778,29.0384889 44.165,29.7857933 44.165,31.0361644 L44.165,35.19572 C44.165,36.4563267 45.6065556,37.1875156 46.6564444,36.4859444 L49.7686667,34.4061667 C50.6957778,33.7868067 50.6955556,32.4449689 49.7687778,31.8256089 L46.6563333,29.7458311 Z M45.8316667,35.0601533 L45.8316667,31.1716222 L48.7412222,33.1159422 L45.8316667,35.0601533 Z" id="Shape" fill-rule="nonzero"></path>
                        <path d="M46.8312222,39.8763089 C49.7311111,39.8763089 52.3396667,38.0802956 53.3223333,35.4071822 C53.4783333,34.9828422 53.2538889,34.5149467 52.8207778,34.3620667 C52.3878889,34.2094044 51.9103333,34.4292511 51.7543333,34.8535911 C51.009,36.8808844 49.0304444,38.2429756 46.8311111,38.2429756 C43.9463333,38.2429756 41.5994444,35.9429156 41.5994444,33.1159422 C41.5994444,30.2889689 43.9463333,27.9889089 46.8311111,27.9889089 C49.1228889,27.9889089 51.1273333,29.42646 51.8191111,31.5660178 C51.958,31.99602 52.4266667,32.23416 52.8651111,32.09794 C53.3038889,31.96172 53.5468889,31.5027533 53.4078889,31.0727511 C52.4958889,28.2513311 49.8528889,26.3556844 46.8312222,26.3556844 C43.0275556,26.3556844 39.9328889,29.3884578 39.9328889,33.1160511 C39.9328889,36.8436444 43.0275556,39.8763089 46.8312222,39.8763089 Z" id="Path"></path>
                    </g>
                </g>
            </g>
        </g>
    </g>
</svg>