<?xml version="1.0" encoding="UTF-8"?>
<svg width="99px" height="99px" viewBox="0 0 99 99" version="1.1" xmlns="http://www.w3.org/2000/svg" xmlns:xlink="http://www.w3.org/1999/xlink">
    <!-- Generator: Sketch 52.3 (67297) - http://www.bohemiancoding.com/sketch -->
    <title>Group 6</title>
    <desc>Created with Sketch.</desc>
    <defs>
        <filter x="-14.1%" y="-11.8%" width="128.2%" height="128.2%" filterUnits="objectBoundingBox" id="filter-1">
            <feOffset dx="0" dy="0" in="SourceAlpha" result="shadowOffsetOuter1"></feOffset>
            <feGaussianBlur stdDeviation="2" in="shadowOffsetOuter1" result="shadowBlurOuter1"></feGaussianBlur>
            <feColorMatrix values="0 0 0 0 0   0 0 0 0 0   0 0 0 0 0  0 0 0 0.5 0" type="matrix" in="shadowBlurOuter1" result="shadowMatrixOuter1"></feColorMatrix>
            <feMerge>
                <feMergeNode in="shadowMatrixOuter1"></feMergeNode>
                <feMergeNode in="SourceGraphic"></feMergeNode>
            </feMerge>
        </filter>
        <circle id="path-2" cx="42.5" cy="42.5" r="42.5"></circle>
        <filter x="-8.2%" y="-5.9%" width="116.5%" height="116.5%" filterUnits="objectBoundingBox" id="filter-4">
            <feOffset dx="0" dy="2" in="SourceAlpha" result="shadowOffsetOuter1"></feOffset>
            <feGaussianBlur stdDeviation="2" in="shadowOffsetOuter1" result="shadowBlurOuter1"></feGaussianBlur>
            <feColorMatrix values="0 0 0 0 0   0 0 0 0 0   0 0 0 0 0  0 0 0 0.5 0" type="matrix" in="shadowBlurOuter1"></feColorMatrix>
        </filter>
        <filter x="-13.8%" y="-13.8%" width="127.6%" height="127.6%" filterUnits="objectBoundingBox" id="filter-5">
            <feOffset dx="0" dy="0" in="SourceAlpha" result="shadowOffsetOuter1"></feOffset>
            <feGaussianBlur stdDeviation="2" in="shadowOffsetOuter1" result="shadowBlurOuter1"></feGaussianBlur>
            <feColorMatrix values="0 0 0 0 0   0 0 0 0 0   0 0 0 0 0  0 0 0 0.5 0" type="matrix" in="shadowBlurOuter1" result="shadowMatrixOuter1"></feColorMatrix>
            <feMerge>
                <feMergeNode in="shadowMatrixOuter1"></feMergeNode>
                <feMergeNode in="SourceGraphic"></feMergeNode>
            </feMerge>
        </filter>
    </defs>
    <g id="Page-1" stroke="none" stroke-width="1" fill="none" fill-rule="evenodd">
        <g id="Artboard" transform="translate(-81.000000, -91.000000)">
            <g id="Group-6" transform="translate(88.000000, 96.000000)">
                <g id="Group-3" filter="url(#filter-1)">
                    <mask id="mask-3" fill="white">
                        <use xlink:href="#path-2"></use>
                    </mask>
                    <g id="Mask">
                        <use fill="black" fill-opacity="1" filter="url(#filter-4)" xlink:href="#path-2"></use>
                        <use fill="#FFFFFF" fill-rule="evenodd" xlink:href="#path-2"></use>
                    </g>
                </g>
                <g id="browser" filter="url(#filter-5)" transform="translate(13.000000, 15.000000)">
                    <path d="M54.8059556,57 L4.19392928,57 C2.42991476,57 1,55.6082597 1,53.8913391 L1,13 L58,13 L58,53.8913391 C58,55.6082597 56.5700852,57 54.8059556,57 Z" id="Path" fill="#ECF0F1"></path>
                    <path d="M58,12 L1,12 L1,3.97915995 C1,2.33376303 2.42991187,1 4.19392283,1 L54.805962,1 C56.569973,1 57.9998848,2.33376303 57.9998848,3.97915995 L58,12 Z" id="Path" fill="#687492"></path>
                    <rect id="Rectangle" fill="#E64C3C" x="6" y="6" width="3" height="3"></rect>
                    <rect id="Rectangle" fill="#F0C419" x="12" y="6" width="3" height="3"></rect>
                    <rect id="Rectangle" fill="#24AE5F" x="21" y="6" width="3" height="3"></rect>
                    <rect id="Rectangle" fill="#26B99A" x="7" y="19" width="47" height="18"></rect>
                    <g id="Group" transform="translate(20.000000, 21.000000)" fill="#FFFFFF">
                        <path d="M1.02222222,10.9536842 C0.779444444,10.9536842 0.536777778,10.8568842 0.351888889,10.6642105 C-0.0188888889,10.2778211 -0.0188888889,9.65336842 0.351888889,9.26709474 L4.14444444,5.31473684 C4.51422222,4.92834737 5.11533333,4.92834737 5.48511111,5.31473684 C5.85588889,5.70112632 5.85588889,6.32557895 5.48511111,6.71185263 L1.69255556,10.6642105 C1.50766667,10.8568842 1.265,10.9536842 1.02222222,10.9536842 Z" id="Path"></path>
                        <path d="M8.60744444,10.9536842 C8.36466667,10.9536842 8.122,10.8568842 7.93711111,10.6642105 L4.14444444,6.71185263 C3.77366667,6.32546316 3.77366667,5.70101053 4.14444444,5.31473684 C4.51422222,4.92834737 5.11533333,4.92834737 5.48511111,5.31473684 L9.27766667,9.26697895 C9.64844444,9.65336842 9.64844444,10.2778211 9.27766667,10.6640947 C9.09288889,10.8568842 8.85011111,10.9536842 8.60744444,10.9536842 Z" id="Path"></path>
                        <path d="M6.71111111,8.97750526 C6.46833333,8.97750526 6.22566667,8.88070526 6.04077778,8.68803158 C5.67,8.30164211 5.67,7.67718947 6.04077778,7.29091579 L9.83333333,3.33867368 C10.2031111,2.95228421 10.8042222,2.95228421 11.174,3.33867368 C11.5447778,3.72506316 11.5447778,4.34951579 11.174,4.73578947 L7.38144444,8.68803158 C7.19655556,8.88070526 6.95388889,8.97750526 6.71111111,8.97750526 Z" id="Path"></path>
                        <path d="M14.2963333,8.97750526 C14.0535556,8.97750526 13.8108889,8.88070526 13.626,8.68803158 L9.83333333,4.73578947 C9.46255556,4.3494 9.46255556,3.72494737 9.83333333,3.33867368 C10.2031111,2.95228421 10.8042222,2.95228421 11.174,3.33867368 L14.9665556,7.29091579 C15.3373333,7.67730526 15.3373333,8.30175789 14.9665556,8.68803158 C14.7817778,8.88070526 14.539,8.97750526 14.2963333,8.97750526 Z" id="Path"></path>
                        <path d="M19.0152222,4.03723158 L17.1625556,4.03723158 C16.6268889,4.03723158 16.1925556,3.58472632 16.1925556,3.02638947 L16.1925556,1.09571579 C16.1925556,0.537494737 16.6267778,0.0848736842 17.1625556,0.0848736842 L19.0152222,0.0848736842 C19.5508889,0.0848736842 19.9852222,0.537378947 19.9852222,1.09571579 L19.9852222,3.02638947 C19.9852222,3.58461053 19.5508889,4.03723158 19.0152222,4.03723158 Z" id="Path"></path>
                    </g>
                    <g id="Group" transform="translate(5.000000, 39.000000)" fill="#BDC3C7">
                        <path d="M36.2233645,2.07489256 L1.05327103,2.07489256 C0.514042056,2.07489256 0.0763621495,1.63360331 0.0763621495,1.08760331 C0.0763621495,0.541603306 0.514042056,0.10031405 1.05327103,0.10031405 L36.2233645,0.10031405 C36.7625935,0.10031405 37.2002734,0.541603306 37.2002734,1.08760331 C37.2002734,1.63360331 36.7625935,2.07489256 36.2233645,2.07489256 Z" id="Path"></path>
                        <path d="M47.946729,2.07489256 L41.1081379,2.07489256 C40.5689089,2.07489256 40.131229,1.63360331 40.131229,1.08760331 C40.131229,0.541603306 40.5689089,0.10031405 41.1081379,0.10031405 L47.946729,0.10031405 C48.4859579,0.10031405 48.9236379,0.541603306 48.9236379,1.08760331 C48.9236379,1.63360331 48.4859579,2.07489256 47.946729,2.07489256 Z" id="Path"></path>
                        <path d="M47.946729,6.02428099 L12.7766355,6.02428099 C12.2374065,6.02428099 11.7997266,5.58299174 11.7997266,5.03699174 C11.7997266,4.49099174 12.2374065,4.04958678 12.7766355,4.04958678 L47.946729,4.04958678 C48.4859579,4.04958678 48.9236379,4.49087603 48.9236379,5.03687603 C48.9236379,5.58287603 48.4859579,6.02428099 47.946729,6.02428099 Z" id="Path"></path>
                        <path d="M7.89186215,6.02428099 L1.05327103,6.02428099 C0.514042056,6.02428099 0.0763621495,5.58299174 0.0763621495,5.03699174 C0.0763621495,4.49099174 0.514042056,4.04958678 1.05327103,4.04958678 L7.89186215,4.04958678 C8.43109112,4.04958678 8.86877103,4.49087603 8.86877103,5.03687603 C8.86877103,5.58287603 8.43120561,6.02428099 7.89186215,6.02428099 Z" id="Path"></path>
                        <path d="M36.2233645,9.97355372 L1.05327103,9.97355372 C0.514042056,9.97355372 0.0763621495,9.53226446 0.0763621495,8.98626446 C0.0763621495,8.44026446 0.514042056,7.99897521 1.05327103,7.99897521 L36.2233645,7.99897521 C36.7625935,7.99897521 37.2002734,8.44026446 37.2002734,8.98626446 C37.2002734,9.53226446 36.7625935,9.97355372 36.2233645,9.97355372 Z" id="Path"></path>
                        <path d="M47.946729,9.97355372 L41.1081379,9.97355372 C40.5689089,9.97355372 40.131229,9.53226446 40.131229,8.98626446 C40.131229,8.44026446 40.5689089,7.99897521 41.1081379,7.99897521 L47.946729,7.99897521 C48.4859579,7.99897521 48.9236379,8.44026446 48.9236379,8.98626446 C48.9236379,9.53226446 48.4859579,9.97355372 47.946729,9.97355372 Z" id="Path"></path>
                        <path d="M47.946729,13.9228264 L12.7766355,13.9228264 C12.2374065,13.9228264 11.7997266,13.4815372 11.7997266,12.9355372 C11.7997266,12.3895372 12.2374065,11.9482479 12.7766355,11.9482479 L47.946729,11.9482479 C48.4859579,11.9482479 48.9236379,12.3895372 48.9236379,12.9355372 C48.9236379,13.4815372 48.4859579,13.9228264 47.946729,13.9228264 Z" id="Path"></path>
                        <path d="M7.89186215,13.9228264 L1.05327103,13.9228264 C0.514042056,13.9228264 0.0763621495,13.4815372 0.0763621495,12.9355372 C0.0763621495,12.3895372 0.514042056,11.9482479 1.05327103,11.9482479 L7.89186215,11.9482479 C8.43109112,11.9482479 8.86877103,12.3895372 8.86877103,12.9355372 C8.86888551,13.4815372 8.43120561,13.9228264 7.89186215,13.9228264 Z" id="Path"></path>
                    </g>
                    <g id="Group" fill="#611C90">
                        <path d="M52.2,36.7333711 L5.8,36.7333711 C5.26644531,36.7333711 4.83337109,36.3013164 4.83337109,35.7667422 L4.83337109,17.4 C4.83337109,16.8664453 5.26644531,16.4333711 5.8,16.4333711 L52.2,16.4333711 C52.7345742,16.4333711 53.1666289,16.8664453 53.1666289,17.4 L53.1666289,35.7666289 C53.1666289,36.3012031 52.7345742,36.7333711 52.2,36.7333711 Z M6.76662891,34.8 L51.2332578,34.8 L51.2332578,18.3666289 L6.76662891,18.3666289 L6.76662891,34.8 Z" id="Shape" fill-rule="nonzero"></path>
                        <path d="M20.3,31.9 C20.0524805,31.9 19.8050742,31.8052969 19.6165742,31.6167969 C19.2385547,31.2387773 19.2385547,30.6278516 19.6165742,30.2499453 L23.4832031,26.3832031 C23.8612227,26.0051836 24.4721484,26.0051836 24.8500547,26.3832031 C25.2280742,26.7612227 25.2280742,27.3721484 24.8500547,27.7500547 L20.9834258,31.6167969 C20.7949258,31.8052969 20.5475195,31.9 20.3,31.9 Z" id="Path"></path>
                        <path d="M28.0333711,31.9 C27.7858516,31.9 27.5384453,31.8052969 27.3499453,31.6167969 L23.4832031,27.7500547 C23.1051836,27.3720352 23.1051836,26.7611094 23.4832031,26.3832031 C23.8612227,26.0051836 24.4721484,26.0051836 24.8500547,26.3832031 L28.7166836,30.249832 C29.0947031,30.6278516 29.0947031,31.2387773 28.7166836,31.6166836 C28.5282969,31.8052969 28.2807773,31.9 28.0333711,31.9 Z" id="Path"></path>
                        <path d="M26.1,29.9666289 C25.8524805,29.9666289 25.6050742,29.8719258 25.4165742,29.6834258 C25.0385547,29.3054062 25.0385547,28.6944805 25.4165742,28.3165742 L29.2832031,24.4499453 C29.6612227,24.0719258 30.2721484,24.0719258 30.6500547,24.4499453 C31.0280742,24.8279648 31.0280742,25.4388906 30.6500547,25.8167969 L26.7834258,29.6834258 C26.5949258,29.8719258 26.3475195,29.9666289 26.1,29.9666289 Z" id="Path"></path>
                        <path d="M33.8333711,29.9666289 C33.5858516,29.9666289 33.3384453,29.8719258 33.1499453,29.6834258 L29.2832031,25.8167969 C28.9051836,25.4387773 28.9051836,24.8278516 29.2832031,24.4499453 C29.6612227,24.0719258 30.2721484,24.0719258 30.6500547,24.4499453 L34.5166836,28.3165742 C34.8947031,28.6945937 34.8947031,29.3055195 34.5166836,29.6834258 C34.3282969,29.8719258 34.0807773,29.9666289 33.8333711,29.9666289 Z" id="Path"></path>
                        <path d="M53.65,58 L4.35,58 C1.95172266,58 0,56.0482773 0,53.65 L0,4.35 C0,1.95172266 1.95172266,0 4.35,0 L53.65,0 C56.0482773,0 58,1.95172266 58,4.35 L58,53.65 C58,56.0482773 56.0482773,58 53.65,58 Z M4.35,1.93337109 C3.01792578,1.93337109 1.93337109,3.01792578 1.93337109,4.35 L1.93337109,53.65 C1.93337109,54.9829805 3.01792578,56.0666289 4.35,56.0666289 L53.65,56.0666289 C54.9829805,56.0666289 56.0666289,54.9829805 56.0666289,53.65 L56.0666289,4.35 C56.0666289,3.01792578 54.9829805,1.93337109 53.65,1.93337109 L4.35,1.93337109 Z" id="Shape" fill-rule="nonzero"></path>
                        <path d="M8.7,9.66662891 L4.83337109,9.66662891 C4.29981641,9.66662891 3.86674219,9.23355469 3.86674219,8.7 L3.86674219,4.83337109 C3.86674219,4.29981641 4.29981641,3.86674219 4.83337109,3.86674219 L8.7,3.86674219 C9.23355469,3.86674219 9.66662891,4.29981641 9.66662891,4.83337109 L9.66662891,8.7 C9.66662891,9.23355469 9.23355469,9.66662891 8.7,9.66662891 Z M5.8,7.73337109 L7.73337109,7.73337109 L7.73337109,5.8 L5.8,5.8 L5.8,7.73337109 Z" id="Shape" fill-rule="nonzero"></path>
                        <path d="M16.4333711,9.66662891 L12.5667422,9.66662891 C12.0331875,9.66662891 11.6001133,9.23355469 11.6001133,8.7 L11.6001133,4.83337109 C11.6001133,4.29981641 12.0331875,3.86674219 12.5667422,3.86674219 L16.4333711,3.86674219 C16.9669258,3.86674219 17.4,4.29981641 17.4,4.83337109 L17.4,8.7 C17.4,9.23355469 16.9669258,9.66662891 16.4333711,9.66662891 Z M13.5333711,7.73337109 L15.4667422,7.73337109 L15.4667422,5.8 L13.5333711,5.8 L13.5333711,7.73337109 Z" id="Shape" fill-rule="nonzero"></path>
                        <path d="M24.1666289,9.66662891 L20.3,9.66662891 C19.7664453,9.66662891 19.3333711,9.23355469 19.3333711,8.7 L19.3333711,4.83337109 C19.3333711,4.29981641 19.7664453,3.86674219 20.3,3.86674219 L24.1666289,3.86674219 C24.7001836,3.86674219 25.1332578,4.29981641 25.1332578,4.83337109 L25.1332578,8.7 C25.1333711,9.23355469 24.7002969,9.66662891 24.1666289,9.66662891 Z M21.2666289,7.73337109 L23.2,7.73337109 L23.2,5.8 L21.2666289,5.8 L21.2666289,7.73337109 Z" id="Shape" fill-rule="nonzero"></path>
                        <path d="M38.6444258,26.1 L36.7564805,26.1 C35.6766836,26.1 34.8,25.2222969 34.8,24.1444258 L34.8,22.2555742 C34.8,21.1777031 35.6767969,20.3 36.7555742,20.3 L38.6435195,20.3 C39.7233164,20.3 40.6,21.1777031 40.6,22.2555742 L40.6,24.1444258 C40.6,25.2222969 39.7232031,26.1 38.6444258,26.1 Z M36.7555742,22.2333711 L36.7333711,24.1444258 L38.6444258,24.1666289 C38.6559805,24.1666289 38.6666289,24.157 38.6666289,24.1444258 L38.6666289,22.2555742 L36.7555742,22.2333711 Z" id="Shape" fill-rule="nonzero"></path>
                        <path d="M57.0333711,13.5333711 L0.966628906,13.5333711 C0.433074219,13.5333711 0,13.1002969 0,12.5667422 L0,4.35 C0,1.95172266 1.95172266,0 4.35,0 L53.65,0 C56.0482773,0 58,1.95172266 58,4.35 L58,12.5666289 C58,13.1002969 57.5679453,13.5333711 57.0333711,13.5333711 Z M1.93337109,11.6 L56.0667422,11.6 L56.0667422,4.35 C56.0667422,3.01792578 54.9830937,1.93337109 53.6501133,1.93337109 L4.35,1.93337109 C3.01792578,1.93337109 1.93337109,3.01792578 1.93337109,4.35 L1.93337109,11.6 Z" id="Shape" fill-rule="nonzero"></path>
                        <path d="M40.6,41.5666289 L5.8,41.5666289 C5.26644531,41.5666289 4.83337109,41.1345742 4.83337109,40.6 C4.83337109,40.0654258 5.26644531,39.6333711 5.8,39.6333711 L40.6,39.6333711 C41.1345742,39.6333711 41.5666289,40.0654258 41.5666289,40.6 C41.5666289,41.1345742 41.1345742,41.5666289 40.6,41.5666289 Z" id="Path"></path>
                        <path d="M52.2,41.5666289 L45.4333711,41.5666289 C44.8987969,41.5666289 44.4667422,41.1345742 44.4667422,40.6 C44.4667422,40.0654258 44.8987969,39.6333711 45.4333711,39.6333711 L52.2,39.6333711 C52.7345742,39.6333711 53.1666289,40.0654258 53.1666289,40.6 C53.1666289,41.1345742 52.7345742,41.5666289 52.2,41.5666289 Z" id="Path"></path>
                        <path d="M52.2,45.4333711 L17.4,45.4333711 C16.8664453,45.4333711 16.4333711,45.0013164 16.4333711,44.4667422 C16.4333711,43.932168 16.8664453,43.5 17.4,43.5 L52.2,43.5 C52.7345742,43.5 53.1666289,43.9320547 53.1666289,44.4666289 C53.1666289,45.0012031 52.7345742,45.4333711 52.2,45.4333711 Z" id="Path"></path>
                        <path d="M12.5666289,45.4333711 L5.8,45.4333711 C5.26644531,45.4333711 4.83337109,45.0013164 4.83337109,44.4667422 C4.83337109,43.932168 5.26644531,43.5 5.8,43.5 L12.5666289,43.5 C13.1001836,43.5 13.5332578,43.9320547 13.5332578,44.4666289 C13.5332578,45.0012031 13.1002969,45.4333711 12.5666289,45.4333711 Z" id="Path"></path>
                        <path d="M40.6,49.3 L5.8,49.3 C5.26644531,49.3 4.83337109,48.8679453 4.83337109,48.3333711 C4.83337109,47.7987969 5.26644531,47.3667422 5.8,47.3667422 L40.6,47.3667422 C41.1345742,47.3667422 41.5666289,47.7987969 41.5666289,48.3333711 C41.5666289,48.8679453 41.1345742,49.3 40.6,49.3 Z" id="Path"></path>
                        <path d="M52.2,49.3 L45.4333711,49.3 C44.8987969,49.3 44.4667422,48.8679453 44.4667422,48.3333711 C44.4667422,47.7987969 44.8987969,47.3667422 45.4333711,47.3667422 L52.2,47.3667422 C52.7345742,47.3667422 53.1666289,47.7987969 53.1666289,48.3333711 C53.1666289,48.8679453 52.7345742,49.3 52.2,49.3 Z" id="Path"></path>
                        <path d="M52.2,53.1666289 L17.4,53.1666289 C16.8664453,53.1666289 16.4333711,52.7345742 16.4333711,52.2 C16.4333711,51.6654258 16.8664453,51.2333711 17.4,51.2333711 L52.2,51.2333711 C52.7345742,51.2333711 53.1666289,51.6654258 53.1666289,52.2 C53.1666289,52.7345742 52.7345742,53.1666289 52.2,53.1666289 Z" id="Path"></path>
                        <path d="M12.5666289,53.1666289 L5.8,53.1666289 C5.26644531,53.1666289 4.83337109,52.7345742 4.83337109,52.2 C4.83337109,51.6654258 5.26644531,51.2333711 5.8,51.2333711 L12.5666289,51.2333711 C13.1001836,51.2333711 13.5332578,51.6654258 13.5332578,52.2 C13.5333711,52.7345742 13.1002969,53.1666289 12.5666289,53.1666289 Z" id="Path"></path>
                    </g>
                </g>
            </g>
        </g>
    </g>
</svg>