<?xml version="1.0" encoding="UTF-8"?>
<svg width="638px" height="70px" viewBox="0 0 638 70" version="1.1" xmlns="http://www.w3.org/2000/svg" xmlns:xlink="http://www.w3.org/1999/xlink">
    <!-- Generator: Sketch 52.3 (67297) - http://www.bohemiancoding.com/sketch -->
    <title>Group 4</title>
    <desc>Created with Sketch.</desc>
    <defs>
        <circle id="path-1" cx="31.3910506" cy="31.3910506" r="31.3910506"></circle>
    </defs>
    <g id="Page-1" stroke="none" stroke-width="1" fill="none" fill-rule="evenodd">
        <g id="Artboard" transform="translate(-1537.000000, -2442.000000)">
            <g id="Group-4" transform="translate(1537.000000, 2442.000000)">
                <g id="Group-5">
                    <g id="Group-3">
                        <g id="Group-2" transform="translate(187.120623, 0.000000)">
                            <rect id="Rectangle" fill="#FFF60F" x="0" y="0" width="450.36965" height="70" rx="35"></rect>
                            <g id="profile" transform="translate(4.221790, 3.677043)">
                                <mask id="mask-2" fill="white">
                                    <use xlink:href="#path-1"></use>
                                </mask>
                                <use id="Mask" fill="#FFFFFF" xlink:href="#path-1"></use>
                            </g>
                        </g>
                        <path d="M187.120623,36.9457792 L19.5026484,36.9457792" id="Line-2" stroke="#FFF60F" stroke-width="5" stroke-linecap="square"></path>
                        <ellipse id="Oval" fill="#FFF60F" cx="9.73735409" cy="36.9747082" rx="9.73735409" ry="10.0097276"></ellipse>
                    </g>
                </g>
                <g id="browser" transform="translate(205.000000, 19.000000)">
                    <path d="M34.0387446,35 L2.96118465,35 C1.87801783,35 1,34.1459775 1,33.0924126 L1,8 L36,8 L36,33.0924126 C36,34.1459775 35.1219822,35 34.0387446,35 Z" id="Path" fill="#ECF0F1"></path>
                    <path d="M36,8 L1,8 L1,2.89582906 C1,1.84875829 1.87801606,1 2.96118068,1 L34.0387486,1 C35.1219132,1 35.9999293,1.84875829 35.9999293,2.89582906 L36,8 Z" id="Path" fill="#687492"></path>
                    <rect id="Rectangle" fill="#E64C3C" x="4" y="4" width="2" height="2"></rect>
                    <rect id="Rectangle" fill="#F0C419" x="7" y="4" width="2" height="2"></rect>
                    <rect id="Rectangle" fill="#24AE5F" x="13" y="4" width="2" height="2"></rect>
                    <rect id="Rectangle" fill="#26B99A" x="4" y="12" width="29" height="11"></rect>
                    <g id="Group" transform="translate(13.000000, 13.000000)" fill="#FFFFFF">
                        <path d="M0.613333333,6.97052632 C0.467666667,6.97052632 0.322066667,6.90892632 0.211133333,6.78631579 C-0.0113333333,6.54043158 -0.0113333333,6.14305263 0.211133333,5.89724211 L2.48666667,3.38210526 C2.70853333,3.13622105 3.0692,3.13622105 3.29106667,3.38210526 C3.51353333,3.62798947 3.51353333,4.02536842 3.29106667,4.27117895 L1.01553333,6.78631579 C0.9046,6.90892632 0.759,6.97052632 0.613333333,6.97052632 Z" id="Path"></path>
                        <path d="M5.16446667,6.97052632 C5.0188,6.97052632 4.8732,6.90892632 4.76226667,6.78631579 L2.48666667,4.27117895 C2.2642,4.02529474 2.2642,3.62791579 2.48666667,3.38210526 C2.70853333,3.13622105 3.0692,3.13622105 3.29106667,3.38210526 L5.5666,5.89716842 C5.78906667,6.14305263 5.78906667,6.54043158 5.5666,6.78624211 C5.45573333,6.90892632 5.31006667,6.97052632 5.16446667,6.97052632 Z" id="Path"></path>
                        <path d="M4.02666667,5.71295789 C3.881,5.71295789 3.7354,5.65135789 3.62446667,5.52874737 C3.402,5.28286316 3.402,4.88548421 3.62446667,4.63967368 L5.9,2.12461053 C6.12186667,1.87872632 6.48253333,1.87872632 6.7044,2.12461053 C6.92686667,2.37049474 6.92686667,2.76787368 6.7044,3.01368421 L4.42886667,5.52874737 C4.31793333,5.65135789 4.17233333,5.71295789 4.02666667,5.71295789 Z" id="Path"></path>
                        <path d="M8.5778,5.71295789 C8.43213333,5.71295789 8.28653333,5.65135789 8.1756,5.52874737 L5.9,3.01368421 C5.67753333,2.7678 5.67753333,2.37042105 5.9,2.12461053 C6.12186667,1.87872632 6.48253333,1.87872632 6.7044,2.12461053 L8.97993333,4.63967368 C9.2024,4.88555789 9.2024,5.28293684 8.97993333,5.52874737 C8.86906667,5.65135789 8.7234,5.71295789 8.5778,5.71295789 Z" id="Path"></path>
                        <path d="M11.4091333,2.56914737 L10.2975333,2.56914737 C9.97613333,2.56914737 9.71553333,2.28118947 9.71553333,1.92588421 L9.71553333,0.697273684 C9.71553333,0.342042105 9.97606667,0.0540105263 10.2975333,0.0540105263 L11.4091333,0.0540105263 C11.7305333,0.0540105263 11.9911333,0.341968421 11.9911333,0.697273684 L11.9911333,1.92588421 C11.9911333,2.28111579 11.7305333,2.56914737 11.4091333,2.56914737 Z" id="Path"></path>
                    </g>
                    <g id="Group" transform="translate(3.000000, 24.000000)" fill="#BDC3C7">
                        <path d="M22.1775701,1.3338595 L0.644859813,1.3338595 C0.314719626,1.3338595 0.0467523364,1.05017355 0.0467523364,0.699173554 C0.0467523364,0.348173554 0.314719626,0.0644876033 0.644859813,0.0644876033 L22.1775701,0.0644876033 C22.5077103,0.0644876033 22.7756776,0.348173554 22.7756776,0.699173554 C22.7756776,1.05017355 22.5077103,1.3338595 22.1775701,1.3338595 Z" id="Path"></path>
                        <path d="M29.3551402,1.3338595 L25.1682477,1.3338595 C24.8381075,1.3338595 24.5701402,1.05017355 24.5701402,0.699173554 C24.5701402,0.348173554 24.8381075,0.0644876033 25.1682477,0.0644876033 L29.3551402,0.0644876033 C29.6852804,0.0644876033 29.9532477,0.348173554 29.9532477,0.699173554 C29.9532477,1.05017355 29.6852804,1.3338595 29.3551402,1.3338595 Z" id="Path"></path>
                        <path d="M29.3551402,3.87275207 L7.82242991,3.87275207 C7.49228972,3.87275207 7.22432243,3.58906612 7.22432243,3.23806612 C7.22432243,2.88706612 7.49228972,2.60330579 7.82242991,2.60330579 L29.3551402,2.60330579 C29.6852804,2.60330579 29.9532477,2.88699174 29.9532477,3.23799174 C29.9532477,3.58899174 29.6852804,3.87275207 29.3551402,3.87275207 Z" id="Path"></path>
                        <path d="M4.83175234,3.87275207 L0.644859813,3.87275207 C0.314719626,3.87275207 0.0467523364,3.58906612 0.0467523364,3.23806612 C0.0467523364,2.88706612 0.314719626,2.60330579 0.644859813,2.60330579 L4.83175234,2.60330579 C5.16189252,2.60330579 5.42985981,2.88699174 5.42985981,3.23799174 C5.42985981,3.58899174 5.16196262,3.87275207 4.83175234,3.87275207 Z" id="Path"></path>
                        <path d="M22.1775701,6.41157025 L0.644859813,6.41157025 C0.314719626,6.41157025 0.0467523364,6.1278843 0.0467523364,5.7768843 C0.0467523364,5.4258843 0.314719626,5.14219835 0.644859813,5.14219835 L22.1775701,5.14219835 C22.5077103,5.14219835 22.7756776,5.4258843 22.7756776,5.7768843 C22.7756776,6.1278843 22.5077103,6.41157025 22.1775701,6.41157025 Z" id="Path"></path>
                        <path d="M29.3551402,6.41157025 L25.1682477,6.41157025 C24.8381075,6.41157025 24.5701402,6.1278843 24.5701402,5.7768843 C24.5701402,5.4258843 24.8381075,5.14219835 25.1682477,5.14219835 L29.3551402,5.14219835 C29.6852804,5.14219835 29.9532477,5.4258843 29.9532477,5.7768843 C29.9532477,6.1278843 29.6852804,6.41157025 29.3551402,6.41157025 Z" id="Path"></path>
                        <path d="M29.3551402,8.95038843 L7.82242991,8.95038843 C7.49228972,8.95038843 7.22432243,8.66670248 7.22432243,8.31570248 C7.22432243,7.96470248 7.49228972,7.68101653 7.82242991,7.68101653 L29.3551402,7.68101653 C29.6852804,7.68101653 29.9532477,7.96470248 29.9532477,8.31570248 C29.9532477,8.66670248 29.6852804,8.95038843 29.3551402,8.95038843 Z" id="Path"></path>
                        <path d="M4.83175234,8.95038843 L0.644859813,8.95038843 C0.314719626,8.95038843 0.0467523364,8.66670248 0.0467523364,8.31570248 C0.0467523364,7.96470248 0.314719626,7.68101653 0.644859813,7.68101653 L4.83175234,7.68101653 C5.16189252,7.68101653 5.42985981,7.96470248 5.42985981,8.31570248 C5.42992991,8.66670248 5.16196262,8.95038843 4.83175234,8.95038843 Z" id="Path"></path>
                    </g>
                    <g id="Group" fill="#611C90">
                        <path d="M32.4,22.8000234 L3.6,22.8000234 C3.26882812,22.8000234 3.00002344,22.5318516 3.00002344,22.2000469 L3.00002344,10.8 C3.00002344,10.4688281 3.26882812,10.2000234 3.6,10.2000234 L32.4,10.2000234 C32.7318047,10.2000234 32.9999766,10.4688281 32.9999766,10.8 L32.9999766,22.1999766 C32.9999766,22.5317812 32.7318047,22.8000234 32.4,22.8000234 Z M4.19997656,21.6 L31.7999531,21.6 L31.7999531,11.3999766 L4.19997656,11.3999766 L4.19997656,21.6 Z" id="Shape" fill-rule="nonzero"></path>
                        <path d="M12.6,19.8 C12.4463672,19.8 12.2928047,19.7412187 12.1758047,19.6242187 C11.9411719,19.3895859 11.9411719,19.0103906 12.1758047,18.7758281 L14.5757812,16.3757812 C14.8104141,16.1411484 15.1896094,16.1411484 15.4241719,16.3757812 C15.6588047,16.6104141 15.6588047,16.9896094 15.4241719,17.2241719 L13.0241953,19.6242187 C12.9071953,19.7412187 12.7536328,19.8 12.6,19.8 Z" id="Path"></path>
                        <path d="M17.4000234,19.8 C17.2463906,19.8 17.0928281,19.7412187 16.9758281,19.6242187 L14.5757813,17.2241719 C14.3411484,16.9895391 14.3411484,16.6103437 14.5757813,16.3757812 C14.8104141,16.1411484 15.1896094,16.1411484 15.4241719,16.3757812 L17.8241484,18.7757578 C18.0587812,19.0103906 18.0587812,19.3895859 17.8241484,19.6241484 C17.7072187,19.7412187 17.5535859,19.8 17.4000234,19.8 Z" id="Path"></path>
                        <path d="M16.2,18.5999766 C16.0463672,18.5999766 15.8928047,18.5411953 15.7758047,18.4241953 C15.5411719,18.1895625 15.5411719,17.8103672 15.7758047,17.5758047 L18.1757812,15.1758281 C18.4104141,14.9411953 18.7896094,14.9411953 19.0241719,15.1758281 C19.2588047,15.4104609 19.2588047,15.7896563 19.0241719,16.0242188 L16.6241953,18.4241953 C16.5071953,18.5411953 16.3536328,18.5999766 16.2,18.5999766 Z" id="Path"></path>
                        <path d="M21.0000234,18.5999766 C20.8463906,18.5999766 20.6928281,18.5411953 20.5758281,18.4241953 L18.1757812,16.0242188 C17.9411484,15.7895859 17.9411484,15.4103906 18.1757812,15.1758281 C18.4104141,14.9411953 18.7896094,14.9411953 19.0241719,15.1758281 L21.4241484,17.5758047 C21.6587812,17.8104375 21.6587812,18.1896328 21.4241484,18.4241953 C21.3072187,18.5411953 21.1535859,18.5999766 21.0000234,18.5999766 Z" id="Path"></path>
                        <path d="M33.3,36 L2.7,36 C1.21141406,36 0,34.7885859 0,33.3 L0,2.7 C0,1.21141406 1.21141406,0 2.7,0 L33.3,0 C34.7885859,0 36,1.21141406 36,2.7 L36,33.3 C36,34.7885859 34.7885859,36 33.3,36 Z M2.7,1.20002344 C1.87319531,1.20002344 1.20002344,1.87319531 1.20002344,2.7 L1.20002344,33.3 C1.20002344,34.1273672 1.87319531,34.7999766 2.7,34.7999766 L33.3,34.7999766 C34.1273672,34.7999766 34.7999766,34.1273672 34.7999766,33.3 L34.7999766,2.7 C34.7999766,1.87319531 34.1273672,1.20002344 33.3,1.20002344 L2.7,1.20002344 Z" id="Shape" fill-rule="nonzero"></path>
                        <path d="M5.4,5.99997656 L3.00002344,5.99997656 C2.66885156,5.99997656 2.40004687,5.73117187 2.40004687,5.4 L2.40004687,3.00002344 C2.40004687,2.66885156 2.66885156,2.40004687 3.00002344,2.40004687 L5.4,2.40004687 C5.73117187,2.40004687 5.99997656,2.66885156 5.99997656,3.00002344 L5.99997656,5.4 C5.99997656,5.73117187 5.73117187,5.99997656 5.4,5.99997656 Z M3.6,4.80002344 L4.80002344,4.80002344 L4.80002344,3.6 L3.6,3.6 L3.6,4.80002344 Z" id="Shape" fill-rule="nonzero"></path>
                        <path d="M10.2000234,5.99997656 L7.80004687,5.99997656 C7.468875,5.99997656 7.20007031,5.73117187 7.20007031,5.4 L7.20007031,3.00002344 C7.20007031,2.66885156 7.468875,2.40004687 7.80004687,2.40004687 L10.2000234,2.40004687 C10.5311953,2.40004687 10.8,2.66885156 10.8,3.00002344 L10.8,5.4 C10.8,5.73117187 10.5311953,5.99997656 10.2000234,5.99997656 Z M8.40002344,4.80002344 L9.60004687,4.80002344 L9.60004687,3.6 L8.40002344,3.6 L8.40002344,4.80002344 Z" id="Shape" fill-rule="nonzero"></path>
                        <path d="M14.9999766,5.99997656 L12.6,5.99997656 C12.2688281,5.99997656 12.0000234,5.73117187 12.0000234,5.4 L12.0000234,3.00002344 C12.0000234,2.66885156 12.2688281,2.40004687 12.6,2.40004687 L14.9999766,2.40004687 C15.3311484,2.40004687 15.5999531,2.66885156 15.5999531,3.00002344 L15.5999531,5.4 C15.6000234,5.73117187 15.3312187,5.99997656 14.9999766,5.99997656 Z M13.1999766,4.80002344 L14.4,4.80002344 L14.4,3.6 L13.1999766,3.6 L13.1999766,4.80002344 Z" id="Shape" fill-rule="nonzero"></path>
                        <path d="M23.9861953,16.2 L22.8143672,16.2 C22.1441484,16.2 21.6,15.6552187 21.6,14.9861953 L21.6,13.8138047 C21.6,13.1447812 22.1442187,12.6 22.8138047,12.6 L23.9856328,12.6 C24.6558516,12.6 25.2,13.1447812 25.2,13.8138047 L25.2,14.9861953 C25.2,15.6552187 24.6557812,16.2 23.9861953,16.2 Z M22.8138047,13.8000234 L22.8000234,14.9861953 L23.9861953,14.9999766 C23.9933672,14.9999766 23.9999766,14.994 23.9999766,14.9861953 L23.9999766,13.8138047 L22.8138047,13.8000234 Z" id="Shape" fill-rule="nonzero"></path>
                        <path d="M35.4000234,8.40002344 L0.599976562,8.40002344 C0.268804687,8.40002344 0,8.13121875 0,7.80004687 L0,2.7 C0,1.21141406 1.21141406,0 2.7,0 L33.3,0 C34.7885859,0 36,1.21141406 36,2.7 L36,7.79997656 C36,8.13121875 35.7318281,8.40002344 35.4000234,8.40002344 Z M1.20002344,7.2 L34.8000469,7.2 L34.8000469,2.7 C34.8000469,1.87319531 34.1274375,1.20002344 33.3000703,1.20002344 L2.7,1.20002344 C1.87319531,1.20002344 1.20002344,1.87319531 1.20002344,2.7 L1.20002344,7.2 Z" id="Shape" fill-rule="nonzero"></path>
                        <path d="M25.2,25.7999766 L3.6,25.7999766 C3.26882812,25.7999766 3.00002344,25.5318047 3.00002344,25.2 C3.00002344,24.8681953 3.26882812,24.6000234 3.6,24.6000234 L25.2,24.6000234 C25.5318047,24.6000234 25.7999766,24.8681953 25.7999766,25.2 C25.7999766,25.5318047 25.5318047,25.7999766 25.2,25.7999766 Z" id="Path"></path>
                        <path d="M32.4,25.7999766 L28.2000234,25.7999766 C27.8682188,25.7999766 27.6000469,25.5318047 27.6000469,25.2 C27.6000469,24.8681953 27.8682188,24.6000234 28.2000234,24.6000234 L32.4,24.6000234 C32.7318047,24.6000234 32.9999766,24.8681953 32.9999766,25.2 C32.9999766,25.5318047 32.7318047,25.7999766 32.4,25.7999766 Z" id="Path"></path>
                        <path d="M32.4,28.2000234 L10.8,28.2000234 C10.4688281,28.2000234 10.2000234,27.9318516 10.2000234,27.6000469 C10.2000234,27.2682422 10.4688281,27 10.8,27 L32.4,27 C32.7318047,27 32.9999766,27.2681719 32.9999766,27.5999766 C32.9999766,27.9317812 32.7318047,28.2000234 32.4,28.2000234 Z" id="Path"></path>
                        <path d="M7.79997656,28.2000234 L3.6,28.2000234 C3.26882812,28.2000234 3.00002344,27.9318516 3.00002344,27.6000469 C3.00002344,27.2682422 3.26882812,27 3.6,27 L7.79997656,27 C8.13114844,27 8.39995313,27.2681719 8.39995313,27.5999766 C8.39995313,27.9317812 8.13121875,28.2000234 7.79997656,28.2000234 Z" id="Path"></path>
                        <path d="M25.2,30.6 L3.6,30.6 C3.26882812,30.6 3.00002344,30.3318281 3.00002344,30.0000234 C3.00002344,29.6682187 3.26882812,29.4000469 3.6,29.4000469 L25.2,29.4000469 C25.5318047,29.4000469 25.7999766,29.6682187 25.7999766,30.0000234 C25.7999766,30.3318281 25.5318047,30.6 25.2,30.6 Z" id="Path"></path>
                        <path d="M32.4,30.6 L28.2000234,30.6 C27.8682188,30.6 27.6000469,30.3318281 27.6000469,30.0000234 C27.6000469,29.6682187 27.8682188,29.4000469 28.2000234,29.4000469 L32.4,29.4000469 C32.7318047,29.4000469 32.9999766,29.6682187 32.9999766,30.0000234 C32.9999766,30.3318281 32.7318047,30.6 32.4,30.6 Z" id="Path"></path>
                        <path d="M32.4,32.9999766 L10.8,32.9999766 C10.4688281,32.9999766 10.2000234,32.7318047 10.2000234,32.4 C10.2000234,32.0681953 10.4688281,31.8000234 10.8,31.8000234 L32.4,31.8000234 C32.7318047,31.8000234 32.9999766,32.0681953 32.9999766,32.4 C32.9999766,32.7318047 32.7318047,32.9999766 32.4,32.9999766 Z" id="Path"></path>
                        <path d="M7.79997656,32.9999766 L3.6,32.9999766 C3.26882812,32.9999766 3.00002344,32.7318047 3.00002344,32.4 C3.00002344,32.0681953 3.26882812,31.8000234 3.6,31.8000234 L7.79997656,31.8000234 C8.13114844,31.8000234 8.39995312,32.0681953 8.39995312,32.4 C8.40002344,32.7318047 8.13121875,32.9999766 7.79997656,32.9999766 Z" id="Path"></path>
                    </g>
                </g>
            </g>
        </g>
    </g>
</svg>