<?xml version="1.0" encoding="UTF-8"?>
<svg width="124px" height="93px" viewBox="0 0 124 93" version="1.1" xmlns="http://www.w3.org/2000/svg" xmlns:xlink="http://www.w3.org/1999/xlink">
    <!-- Generator: Sketch 52.3 (67297) - http://www.bohemiancoding.com/sketch -->
    <title>Artboard</title>
    <desc>Created with Sketch.</desc>
    <g id="Artboard" stroke="none" stroke-width="1" fill="none" fill-rule="evenodd">
        <g id="noun_Target-Marketing_995683" transform="translate(34.000000, 14.000000)" fill="#FFFFFF">
            <g id="Group">
                <rect id="Rectangle" x="19.3059701" y="12.5149254" width="1.45522388" height="6.40298507"></rect>
                <rect id="Rectangle" x="19.3059701" y="40.6492537" width="1.45522388" height="5.62686567"></rect>
                <rect id="Rectangle" x="3.20149254" y="29.2014925" width="6.40298507" height="1.45522388"></rect>
                <rect id="Rectangle" x="31.3358209" y="29.2014925" width="5.62686567" height="1.45522388"></rect>
                <path d="M18.3358209,17.1716418 L18.141791,15.7164179 C11.738806,16.5895522 6.69402985,21.5373134 5.82089552,27.9402985 L7.2761194,28.1343284 C8.14925373,22.4104478 12.6119403,17.8507463 18.3358209,17.1716418 Z" id="Path"></path>
                <path d="M32.7910448,31.5298507 C32.0149254,37.2537313 27.5522388,41.8134328 21.7313433,42.5895522 L21.9253731,44.0447761 C28.3283582,43.1716418 33.3731343,38.1268657 34.2462687,31.7238806 L32.7910448,31.5298507 Z" id="Path"></path>
                <path d="M7.37313433,31.5298507 L5.91791045,31.7238806 C6.69402985,38.1268657 11.8358209,43.1716418 18.238806,44.0447761 L18.4328358,42.5895522 C12.6119403,41.8134328 8.05223881,37.2537313 7.37313433,31.5298507 Z" id="Path"></path>
                <path d="M53.358209,55.2014925 L44.0447761,45.8880597 C42.9776119,44.8208955 41.619403,44.238806 40.1641791,44.238806 C39.7761194,44.238806 39.3880597,44.238806 39,44.3358209 L35.9925373,41.3283582 C41.4253731,33.858209 40.9402985,23.380597 34.5373134,16.3955224 L36.8656716,14.0671642 L41.3283582,14.9402985 L49.5746269,6.79104478 L44.238806,5.7238806 L43.1716418,0.388059701 L34.9253731,8.53731343 L35.7985075,13 L33.4701493,15.3283582 C29.7835821,11.9328358 25.0298507,9.99253731 19.9850746,9.99253731 C14.7462687,9.99253731 9.79850746,12.0298507 6.01492537,15.8134328 C-1.64925373,23.4776119 -1.64925373,35.9925373 6.01492537,43.7537313 C9.70149254,47.4402985 14.6492537,49.5746269 19.9850746,49.5746269 C24.2537313,49.5746269 28.2313433,48.2164179 31.6268657,45.7910448 L34.6343284,48.7985075 C34.2462687,50.5447761 34.7313433,52.4850746 36.0895522,53.8432836 L45.4029851,63.1567164 C46.4701493,64.2238806 47.8283582,64.8059701 49.2835821,64.8059701 C50.738806,64.8059701 52.1940299,64.2238806 53.261194,63.1567164 C55.4925373,60.8283582 55.4925373,57.3358209 53.358209,55.2014925 Z M51.1268657,55.0074627 L45.3059701,60.8283582 L43.5597015,59.0820896 L49.380597,53.261194 L51.1268657,55.0074627 Z M42.2014925,3.29850746 L42.880597,6.8880597 L46.5671642,7.6641791 L40.8432836,13.3880597 L37.2537313,12.7089552 L36.5746269,9.11940299 L42.2014925,3.29850746 Z M7.17910448,42.6865672 C5.55111512e-16,35.5074627 5.55111512e-16,23.9626866 7.17910448,16.7835821 C10.6716418,13.2910448 15.2313433,11.4477612 20.0820896,11.4477612 C24.738806,11.4477612 29.1044776,13.1940299 32.5,16.3955224 L29.5895522,19.3059701 C27.4552239,17.4626866 24.8358209,16.1044776 21.9253731,15.7164179 L21.7313433,17.1716418 C24.3507463,17.5597015 26.6791045,18.6268657 28.619403,20.2761194 L22.7985075,26.0970149 C22.0223881,25.5149254 21.1492537,25.2238806 20.0820896,25.2238806 C17.5597015,25.2238806 15.4253731,27.261194 15.4253731,29.880597 C15.4253731,32.4029851 17.4626866,34.5373134 20.0820896,34.5373134 C22.6044776,34.5373134 24.738806,32.5 24.738806,29.880597 C24.738806,28.9104478 24.4477612,27.9402985 23.8656716,27.1641791 L29.6865672,21.3432836 C31.3358209,23.1865672 32.5,25.5149254 32.7910448,28.1343284 L34.2462687,27.9402985 C33.858209,25.0298507 32.5970149,22.4104478 30.6567164,20.2761194 L33.5671642,17.3656716 C40.1641791,24.5447761 39.9701493,35.7014925 32.9850746,42.5895522 C29.4925373,46.0820896 24.9328358,47.9253731 20.0820896,47.9253731 C15.1343284,48.0223881 10.5746269,46.0820896 7.17910448,42.6865672 Z M23.1865672,29.880597 C23.1865672,31.6268657 21.7313433,33.0820896 19.9850746,33.0820896 C18.238806,33.0820896 16.7835821,31.6268657 16.7835821,29.880597 C16.7835821,28.1343284 18.238806,26.6791045 19.9850746,26.6791045 C20.5671642,26.6791045 21.1492537,26.8731343 21.6343284,27.1641791 L19.5,29.2985075 L20.5671642,30.3656716 L22.7014925,28.2313433 C22.9925373,28.7164179 23.1865672,29.2014925 23.1865672,29.880597 Z M32.7910448,44.7238806 C33.1791045,44.3358209 33.5671642,44.0447761 33.9552239,43.6567164 C34.3432836,43.2686567 34.7313433,42.880597 35.0223881,42.4925373 L37.4477612,44.9179104 C36.9626866,45.2089552 36.4776119,45.5 36.0895522,45.8880597 C35.7014925,46.2761194 35.4104478,46.761194 35.119403,47.1492537 L32.7910448,44.7238806 Z M37.1567164,46.858209 C37.9328358,46.0820896 39,45.6940299 40.0671642,45.6940299 C41.1343284,45.6940299 42.2014925,46.0820896 42.9776119,46.858209 L48.3134328,52.1940299 L42.4925373,58.0149254 L37.1567164,52.6791045 C35.6044776,51.0298507 35.6044776,48.5074627 37.1567164,46.858209 Z M52.2910448,61.9925373 C51.5149254,62.7686567 50.4477612,63.1567164 49.380597,63.1567164 C48.3134328,63.1567164 47.2462687,62.7686567 46.4701493,61.9925373 L46.2761194,61.7985075 L52.0970149,55.9776119 L52.2910448,56.1716418 C53.9402985,57.8208955 53.9402985,60.3432836 52.2910448,61.9925373 Z" id="Shape" fill-rule="nonzero"></path>
            </g>
        </g>
    </g>
</svg>