<?xml version="1.0" encoding="UTF-8"?>
<svg width="638px" height="70px" viewBox="0 0 638 70" version="1.1" xmlns="http://www.w3.org/2000/svg" xmlns:xlink="http://www.w3.org/1999/xlink">
    <!-- Generator: Sketch 52.3 (67297) - http://www.bohemiancoding.com/sketch -->
    <title>Group 31</title>
    <desc>Created with Sketch.</desc>
    <defs>
        <circle id="path-1" cx="35.6128405" cy="35.0680934" r="31.3910506"></circle>
        <circle id="path-3" cx="35.6128405" cy="35.0680934" r="31.3910506"></circle>
    </defs>
    <g id="Page-1" stroke="none" stroke-width="1" fill="none" fill-rule="evenodd">
        <g id="Group-31">
            <g id="Group-8" transform="translate(0.000000, 0.000000)">
                <rect id="Rectangle" fill="#FFF60F" x="0" y="0" width="450.36965" height="70" rx="35"></rect>
                <mask id="mask-2" fill="white">
                    <use xlink:href="#path-1"></use>
                </mask>
                <use id="Mask" fill="#FFFFFF" xlink:href="#path-1"></use>
                <path d="M48.7790599,57.1984436 L23.536026,57.1984436 C22.7973238,57.1984436 22.1984436,56.6004463 22.1984436,55.8628333 L22.1984436,14.2733535 C22.1984436,13.5357404 22.7973238,12.9377432 23.536026,12.9377432 L48.7791491,12.9377432 C49.5178513,12.9377432 50.1167315,13.5357404 50.1167315,14.2733535 L50.1167315,55.8627442 C50.1166423,56.6004463 49.5178513,57.1984436 48.7790599,57.1984436 Z" id="Path" fill="#FFF5F5" mask="url(#mask-2)"></path>
                <path d="M50.1167315,14.2733562 L50.1167315,55.8628306 C50.1167315,56.6004451 49.5113039,57.1984436 48.7645257,57.1984436 L44.8054475,57.1984436 C46.2062425,57.1984436 47.3421855,56.0765287 47.3421855,54.6928336 L47.3421855,15.4433531 C47.3421855,14.0597471 46.2063327,12.9377432 44.8054475,12.9377432 L48.7645257,12.9377432 C49.5113039,12.9377432 50.1167315,13.5357416 50.1167315,14.2733562 Z" id="Path" fill="#EFE2DD" mask="url(#mask-2)"></path>
                <path d="M48.7790599,57.1984436 L23.536026,57.1984436 C22.7973238,57.1984436 22.1984436,56.5963271 22.1984436,55.8536331 L22.1984436,51.8871595 L50.1167315,51.8871595 L50.1167315,55.8536331 C50.1166423,56.5963271 49.5178513,57.1984436 48.7790599,57.1984436 Z" id="Path" fill="#7CA1B1" mask="url(#mask-2)"></path>
                <path d="M50.1167315,18.385214 L22.1984436,18.385214 L22.1984436,14.2654879 C22.1984436,13.5322187 22.7973238,12.9377432 23.536026,12.9377432 L48.7791491,12.9377432 C49.5178513,12.9377432 50.1167315,13.5322187 50.1167315,14.2654879 L50.1167315,18.385214 Z" id="Path" fill="#7CA1B1" mask="url(#mask-2)"></path>
                <path d="M50.1167315,51.8871595 L50.1167315,55.8536331 C50.1167315,56.5963271 49.5119198,57.1984436 48.7659014,57.1984436 L44.8054475,57.1984436 C46.2048175,57.1984436 47.3387043,56.0688028 47.3387043,54.6755792 L47.3387043,51.8871595 L50.1167315,51.8871595 Z" id="Path" fill="#678D98" mask="url(#mask-2)"></path>
                <path d="M50.1167315,14.2654879 L50.1167315,18.385214 L47.3387043,18.385214 L47.3387043,15.4285922 C47.3387043,14.0531372 46.2049075,12.9377432 44.8054475,12.9377432 L48.7659014,12.9377432 C49.5119198,12.9377432 50.1167315,13.5322187 50.1167315,14.2654879 Z" id="Path" fill="#678D98" mask="url(#mask-2)"></path>
                <path d="M46.219637,32.5486381 L25.9594404,32.5486381 C25.4617921,32.5486381 25.0583658,32.1466566 25.0583658,31.6507907 L25.0583658,22.551544 C25.0583658,22.055678 25.4617921,21.6536965 25.9594404,21.6536965 L46.219548,21.6536965 C46.7171962,21.6536965 47.1206226,22.055678 47.1206226,22.551544 L47.1206226,31.6507907 C47.1207116,32.1466566 46.7172852,32.5486381 46.219637,32.5486381 Z" id="Path" fill="#C9F0FF" mask="url(#mask-2)"></path>
                <path d="M47.1206226,22.5518926 L47.1206226,31.6504421 C47.1206226,32.1460781 46.725515,32.5486381 46.2375488,32.5486381 L43.8521401,32.5486381 C44.3401063,32.5486381 44.7352139,32.1460781 44.7352139,31.6504421 L44.7352139,22.5518926 C44.7352139,22.0562566 44.3401063,21.6536965 43.8521401,21.6536965 L46.2375488,21.6536965 C46.725515,21.6536965 47.1206226,22.0562566 47.1206226,22.5518926 Z" id="Path" fill="#9AE7FD" mask="url(#mask-2)"></path>
                <path d="M27.2373541,32.5486381 L33.3303243,26.4689279 C33.5878944,26.2118869 34.0091456,26.2245385 34.2508296,26.4964584 L39.6303502,32.5486381 L27.2373541,32.5486381 Z" id="Path" fill="#A3E72D" mask="url(#mask-2)"></path>
                <path d="M35,32.5485486 L39.7980799,27.6954564 C40.0533383,27.437237 40.4708087,27.4499466 40.7103236,27.7231131 L44.9416342,32.5486381 L35,32.5486381 L35,32.5485486 Z" id="Path" fill="#A3E72D" mask="url(#mask-2)"></path>
                <path d="M29.5320275,35.5215353 C28.9536117,35.2735836 28.3189011,35.4434797 27.9409345,35.935959 C27.7442623,36.1922519 27.6458813,36.4131608 27.6458813,36.4131608 C27.6458813,36.4131608 27.5475902,36.1922519 27.3508281,35.935959 C26.9728614,35.4434797 26.3381508,35.2735836 25.7597351,35.5215353 C24.8895035,35.8946922 24.9069495,37.0982768 25.3883332,37.7639887 C25.8341953,38.3806194 26.4407585,38.9690659 27.1280769,39.3586416 C27.4469609,39.5393374 27.8448016,39.5393374 28.1636857,39.3586416 C28.8510041,38.9690659 29.4575672,38.3806194 29.9034294,37.7639887 C30.384903,37.0982768 30.402349,35.8946044 29.5320275,35.5215353 Z" id="Path" fill="#FF5757" mask="url(#mask-2)"></path>
                <path d="M34.1754991,54.7470817 L38.139676,54.7470817 C38.511747,54.7470817 38.8132296,54.4422957 38.8132296,54.0661479 C38.8132296,53.69 38.511747,53.385214 38.139676,53.385214 L34.1754991,53.385214 C33.8034281,53.385214 33.5019455,53.69 33.5019455,54.0661479 C33.5019455,54.4422957 33.8034281,54.7470817 34.1754991,54.7470817 Z" id="Path" fill="#000000" mask="url(#mask-2)"></path>
                <path d="M34.3394568,16.4785992 C34.7043409,16.4785992 35,16.1738132 35,15.7976654 C35,15.4215175 34.7043409,15.1167315 34.3394568,15.1167315 L32.5282475,15.1167315 C32.1633634,15.1167315 31.8677043,15.4215175 31.8677043,15.7976654 C31.8677043,16.1738132 32.1633634,16.4785992 32.5282475,16.4785992 L34.3394568,16.4785992 Z" id="Path" fill="#000000" mask="url(#mask-2)"></path>
                <path d="M39.7725406,16.4785992 C40.1453721,16.4785992 40.4474708,16.1738132 40.4474708,15.7976654 C40.4474708,15.4215175 40.1453721,15.1167315 39.7725406,15.1167315 L36.355864,15.1167315 C35.9830326,15.1167315 35.6809339,15.4215175 35.6809339,15.7976654 C35.6809339,16.1738132 35.9830326,16.4785992 36.355864,16.4785992 L39.7725406,16.4785992 Z" id="Path" fill="#000000" mask="url(#mask-2)"></path>
                <path d="M48.6627731,12.2568093 L30.182209,12.2568093 C29.8141807,12.2568093 29.5159738,12.5549983 29.5159738,12.9230045 C29.5159738,13.2910106 29.8141807,13.5891996 30.182209,13.5891996 L48.6627731,13.5891996 C49.0301796,13.5891996 49.3290083,13.8880103 49.3290083,14.2553947 L49.3290083,17.72334 L22.8499801,17.72334 L22.8499801,14.2553947 C22.8499801,13.8880103 23.1488087,13.5891996 23.5162152,13.5891996 L27.2116885,13.5891996 C27.5797168,13.5891996 27.8779236,13.2910106 27.8779236,12.9230045 C27.8779236,12.5549983 27.5797168,12.2568093 27.2116885,12.2568093 L23.5162152,12.2568093 C22.4141734,12.2568093 21.5175097,13.1534191 21.5175097,14.2553947 L21.5175097,51.8147647 L21.5175097,55.7446053 C21.5175097,56.8465809 22.4141734,57.7431907 23.5162152,57.7431907 L48.6627731,57.7431907 C49.7648149,57.7431907 50.6614786,56.8465809 50.6614786,55.7446053 L50.6614786,51.8147647 L50.6614786,14.2553947 C50.6614786,13.1534191 49.7648149,12.2568093 48.6627731,12.2568093 Z M49.3290083,55.7446053 C49.3290083,56.1119897 49.0301796,56.4108004 48.6627731,56.4108004 L23.5162152,56.4108004 C23.1488087,56.4108004 22.8499801,56.1119897 22.8499801,55.7446053 L22.8499801,52.4809599 L49.3290083,52.4809599 L49.3290083,55.7446053 Z M49.3290083,51.1485696 L22.8499801,51.1485696 L22.8499801,19.0557302 L49.3290083,19.0557302 L49.3290083,51.1485696 Z" id="Shape" fill="#000000" fill-rule="nonzero" mask="url(#mask-2)"></path>
                <path d="M25.9481697,33.229572 L46.2308186,33.229572 C47.0969622,33.229572 47.8015564,32.5265115 47.8015564,31.6622533 L47.8015564,27.3206791 C47.8015564,26.9521128 47.5022621,26.65347 47.1328918,26.65347 C46.7635214,26.65347 46.4642272,26.9521128 46.4642272,27.3206791 L46.4642272,31.6622533 C46.4642272,31.7906243 46.3594697,31.8951538 46.2308186,31.8951538 L45.3490729,31.8951538 L41.2347348,27.2685478 C40.9979384,27.002109 40.6574543,26.8432243 40.300744,26.8325489 C39.940735,26.8236528 39.5946342,26.9601193 39.3423247,27.2118795 L37.4353823,29.1137814 L34.6856551,26.0217564 C34.4488586,25.7553176 34.1083746,25.5964328 33.7516643,25.5857575 C33.3929034,25.5765055 33.0456436,25.7133279 32.793245,25.9650881 L26.8473008,31.8952427 L25.9480806,31.8952427 C25.8194295,31.8952427 25.714672,31.7907133 25.714672,31.6623423 L25.714672,22.5400813 C25.714672,22.4117103 25.8194295,22.3071809 25.9480806,22.3071809 L46.2307295,22.3071809 C46.3593805,22.3071809 46.464138,22.4117103 46.464138,22.5400813 L46.464138,24.2366607 C46.464138,24.605227 46.7634323,24.9038698 47.1328026,24.9038698 C47.502173,24.9038698 47.8014673,24.605227 47.8014673,24.2366607 L47.8014673,22.5400813 C47.8014673,21.6758231 47.0968731,20.9727626 46.2307295,20.9727626 L25.9481697,20.9727626 C25.0820261,20.9727626 24.3774319,21.6758231 24.3774319,22.5400813 L24.3774319,31.6622533 C24.3774319,32.5265115 25.0820261,33.229572 25.9481697,33.229572 Z M33.7110986,26.9362777 L37.306553,30.979298 C37.5515517,31.2550778 37.9742369,31.2802538 38.2504399,31.0355215 C38.5199564,30.7969276 38.5498234,30.3901969 38.3235473,30.114595 L40.2601784,28.1830691 L43.5612419,31.8951538 L28.7390867,31.8951538 L33.7110986,26.9362777 Z" id="Shape" fill="#000000" fill-rule="nonzero" mask="url(#mask-2)"></path>
                <path d="M26.8736979,39.9486967 C27.1329468,40.0996009 27.4234326,40.1750973 27.7140067,40.1750973 C28.0045808,40.1750973 28.2951548,40.0996009 28.5542273,39.9486967 C29.2636763,39.5357238 29.9439179,38.8968813 30.4698278,38.149972 C30.8775845,37.5706061 31.0202685,36.7604143 30.8333763,36.0859036 C30.6816037,35.5384002 30.3255555,35.1169306 29.8307943,34.8989382 C29.0931085,34.573941 28.2814777,34.7213049 27.7140067,35.2565944 C27.1464475,34.7213049 26.3350814,34.573941 25.5972191,34.8989382 C25.1024578,35.1169306 24.7463215,35.5384887 24.594637,36.0859036 C24.4077449,36.7605029 24.5504288,37.5706946 24.9582738,38.1500605 C25.4840073,38.8968813 26.1642489,39.5356353 26.8736979,39.9486967 Z M25.8698805,36.4414356 C25.9300601,36.2243283 26.0468015,36.1508676 26.1293941,36.1144913 C26.2178987,36.0755483 26.307374,36.0565193 26.3943786,36.0565193 C26.5856827,36.0565193 26.7649863,36.1485665 26.8948754,36.3223939 C27.0335886,36.5081698 27.1070925,36.6701374 27.1070925,36.6701374 C27.2115685,36.91123 27.4488457,37.0658515 27.7109183,37.0673561 C27.9722849,37.065232 28.2121211,36.9133542 28.3194208,36.6736776 C28.320215,36.671996 28.3937188,36.5093204 28.5332262,36.3224824 C28.7222361,36.0696184 29.0154574,35.9896967 29.2987075,36.1144913 C29.3813883,36.1508676 29.4981298,36.2243283 29.5582211,36.4414356 C29.6390489,36.7332427 29.5677511,37.1297534 29.388624,37.3842107 C28.9703668,37.9783572 28.4381035,38.4813416 27.8898689,38.8004973 C27.7830103,38.8627176 27.6450913,38.8627176 27.5382328,38.8004973 C26.9899981,38.4813416 26.4578231,37.9783572 26.0396541,37.3842107 C25.8603506,37.129842 25.7890527,36.7332427 25.8698805,36.4414356 Z" id="Shape" fill="#000000" fill-rule="nonzero" mask="url(#mask-2)"></path>
                <path d="M32.6848249,42.3540856 C32.6848249,41.9779377 32.3850854,41.6731518 32.0151657,41.6731518 L25.8642118,41.6731518 C25.494292,41.6731518 25.1945525,41.9779377 25.1945525,42.3540856 C25.1945525,42.7302335 25.494292,43.0350195 25.8642118,43.0350195 L32.0151657,43.0350195 C32.3849961,43.0350195 32.6848249,42.7301427 32.6848249,42.3540856 Z" id="Path" fill="#000000" mask="url(#mask-2)"></path>
                <path d="M38.0152439,43.0350195 C38.3808216,43.0350195 38.6770428,42.7302335 38.6770428,42.3540856 C38.6770428,41.9779377 38.3808216,41.6731518 38.0152439,41.6731518 L35.6617989,41.6731518 C35.2962212,41.6731518 35,41.9779377 35,42.3540856 C35,42.7302335 35.2962212,43.0350195 35.6617989,43.0350195 L38.0152439,43.0350195 Z" id="Path" fill="#000000" mask="url(#mask-2)"></path>
                <path d="M47.132843,41.6731518 L41.5247446,41.6731518 C41.1553473,41.6731518 40.8560311,41.9779377 40.8560311,42.3540856 C40.8560311,42.7302335 41.1553473,43.0350195 41.5247446,43.0350195 L47.132843,43.0350195 C47.5022403,43.0350195 47.8015564,42.7302335 47.8015564,42.3540856 C47.8015564,41.9779377 47.5022403,41.6731518 47.132843,41.6731518 Z" id="Path" fill="#000000" mask="url(#mask-2)"></path>
                <path d="M25.7344228,44.6692607 C25.3609689,44.6692607 25.0583658,44.9740467 25.0583658,45.3501946 C25.0583658,45.7263424 25.3609689,46.0311284 25.7344228,46.0311284 L29.6935928,46.0311284 C30.0670467,46.0311284 30.3696498,45.7263424 30.3696498,45.3501946 C30.3696498,44.9740467 30.0670467,44.6692607 29.6935928,44.6692607 L25.7344228,44.6692607 Z" id="Path" fill="#000000" mask="url(#mask-2)"></path>
                <path d="M40.1750973,45.3501946 C40.1750973,44.9740467 39.8755581,44.6692607 39.5058854,44.6692607 L32.4007294,44.6692607 C32.0310567,44.6692607 31.7315175,44.9740467 31.7315175,45.3501946 C31.7315175,45.7263424 32.0310567,46.0311284 32.4007294,46.0311284 L39.5058854,46.0311284 C39.8755581,46.0311284 40.1750973,45.7262516 40.1750973,45.3501946 Z" id="Path" fill="#000000" mask="url(#mask-2)"></path>
                <path d="M47.1416432,44.6692607 L42.877812,44.6692607 C42.513276,44.6692607 42.2178988,44.9740467 42.2178988,45.3501946 C42.2178988,45.7263424 42.513276,46.0311284 42.877812,46.0311284 L47.1416432,46.0311284 C47.5061793,46.0311284 47.8015564,45.7263424 47.8015564,45.3501946 C47.8015564,44.9740467 47.5061793,44.6692607 47.1416432,44.6692607 Z" id="Path" fill="#000000" mask="url(#mask-2)"></path>
                <path d="M30.7941224,47.2568093 L25.8595741,47.2568093 C25.4922162,47.2568093 25.1945525,47.5615953 25.1945525,47.9377432 C25.1945525,48.3138911 25.4922162,48.618677 25.8595741,48.618677 L30.7941224,48.618677 C31.1614803,48.618677 31.459144,48.3138911 31.459144,47.9377432 C31.459144,47.5615953 31.1614803,47.2568093 30.7941224,47.2568093 Z" id="Path" fill="#000000" mask="url(#mask-2)"></path>
                <path d="M42.2353427,47.2568093 L33.893062,47.2568093 C33.5265501,47.2568093 33.229572,47.5615953 33.229572,47.9377432 C33.229572,48.3138911 33.5265501,48.618677 33.893062,48.618677 L42.2353427,48.618677 C42.6018546,48.618677 42.8988327,48.3138911 42.8988327,47.9377432 C42.8988327,47.5615953 42.6017661,47.2568093 42.2353427,47.2568093 Z" id="Path" fill="#000000" mask="url(#mask-2)"></path>
                <path d="M47.1325531,47.2568093 L45.2020772,47.2568093 C44.8325198,47.2568093 44.5330739,47.5615953 44.5330739,47.9377432 C44.5330739,48.3138911 44.8325198,48.618677 45.2020772,48.618677 L47.1325531,48.618677 C47.5021105,48.618677 47.8015564,48.3138911 47.8015564,47.9377432 C47.8015564,47.5615953 47.5021105,47.2568093 47.1325531,47.2568093 Z" id="Path" fill="#000000" mask="url(#mask-2)"></path>
            </g>
            <rect id="Rectangle" fill="#FFF60F" x="6.53699317e-13" y="0" width="450.36965" height="70" rx="35"></rect>
            <mask id="mask-4" fill="white">
                <use xlink:href="#path-3"></use>
            </mask>
            <use id="Mask" fill="#FFFFFF" xlink:href="#path-3"></use>
            <g id="Group-20" transform="translate(449.000000, 24.000000)">
                <g id="profile" transform="translate(0.221790, 0.677043)">
                    <g id="Group-6" transform="translate(94.404669, 10.881323) scale(-1, 1) translate(-94.404669, -10.881323) translate(0.404669, 0.381323)"></g>
                </g>
                <g id="Group-7" transform="translate(94.626459, 11.558366) scale(-1, 1) translate(-94.626459, -11.558366) translate(0.626459, 1.058366)">
                    <path d="M187.120623,9.98079869 L19.5026484,9.98079869" id="Line-2" stroke="#FFF60F" stroke-width="5" stroke-linecap="square"></path>
                    <ellipse id="Oval" fill="#FFF60F" cx="9.73735409" cy="10.0097276" rx="9.73735409" ry="10.0097276"></ellipse>
                </g>
            </g>
            <g id="Group-21" transform="translate(16.000000, 19.000000)">
                <g id="Group" transform="translate(1.000000, 1.000000)">
                    <path d="M34.366498,0.664344498 C24.1200803,-0.145913876 13.8735863,-0.145913876 3.62716867,0.664344498 C2.0973253,0.785301435 0.875068273,1.98545455 0.709638554,3.51609569 C-0.189694779,11.8367847 -0.189694779,20.1573971 0.709638554,28.4780861 C0.875068273,30.0087273 2.0973253,31.2088804 3.62709237,31.3298373 C13.87351,32.1400957 24.120004,32.1400957 34.3664217,31.3298373 C35.8962651,31.2088804 37.1184458,30.0087273 37.2838755,28.4780861 C38.1832088,20.1573971 38.1832088,11.8367847 37.2838755,3.51609569 C37.1185221,1.98545455 35.8962651,0.785301435 34.366498,0.664344498 Z" id="Path" fill="#E4F6FF"></path>
                    <path d="M37.7054618,8.35192344 L37.6902008,8.35039234 C25.2281847,7.248 12.7660924,7.248 0.304076305,8.35039234 L0.288815261,8.352689 C0.394879518,6.74044019 0.535281124,5.12895694 0.71002008,3.51678469 C0.87560241,1.98568421 2.09801205,0.785301435 3.62716867,0.664344498 C13.8740442,-0.145607656 24.1202329,-0.145607656 34.3671847,0.664344498 C35.8963414,0.785301435 37.118751,1.98568421 37.2843333,3.51678469 C37.458996,5.12819139 37.5993976,6.74044019 37.7054618,8.35192344 Z" id="Path" fill="#617881"></path>
                    <ellipse id="Oval" fill="#DA4A54" cx="4.86369478" cy="4.12195215" rx="1.78989157" ry="1.7957512"></ellipse>
                    <ellipse id="Oval" fill="#86F1A7" cx="15.6029679" cy="4.12195215" rx="1.78989157" ry="1.7957512"></ellipse>
                    <ellipse id="Oval" fill="#F4DD45" cx="10.2332932" cy="4.12195215" rx="1.78989157" ry="1.7957512"></ellipse>
                    <g transform="translate(17.931727, 2.220096)" id="Path">
                        <path d="M13.4826747,4.16635407 L14.5056988,2.26625837 C14.7642209,1.78602871 14.5855141,1.18537799 14.1068514,0.925933014 L12.6378996,0.129913876 C12.1585502,-0.129837321 11.5605462,0.0498373206 11.3019478,0.530066986 L10.2789237,2.43016268" fill="#E4F6FF"></path>
                        <path d="M13.8423012,0.782545455 C13.3629518,0.522794258 12.7649478,0.7024689 12.5063494,1.18269856 L11.4833253,3.08279426 L10.2789237,2.43008612 L11.3019478,0.529990431 C11.5604699,0.0497607656 12.1585502,-0.129990431 12.6378996,0.129837321 L13.8423012,0.782545455 Z" fill="#B9E4EF"></path>
                        <path d="M9.87923695,13.9422775 C6.38193976,20.4381244 2.25413253,25.0043254 0.659658635,24.1402488 C-0.934815261,23.2761722 0.608228916,17.309244 4.1055261,10.8133971 C5.87878313,7.51969378 7.81457028,4.72176077 9.49916064,2.87709091 C9.95706827,2.37573206 10.6967711,2.25286124 11.2930964,2.576 L12.8049317,3.39529187 C13.4013333,3.71850718 13.7044177,4.40643062 13.5375382,5.06556938 C12.92351,7.49037321 11.652494,10.6485742 9.87923695,13.9422775 Z" fill="#6BBEF6"></path>
                        <path d="M0.659658635,24.1402488 C-0.934815261,23.2761722 0.608228916,17.309244 4.1055261,10.8133971 C5.87878313,7.51969378 7.81434137,4.72191388 9.49900803,2.87670813 C9.95691566,2.37573206 10.6968474,2.2529378 11.2930201,2.576 L11.8408916,2.87288038 C11.6770643,2.78407656 11.315759,3.11211483 10.9639157,3.67058373 C9.6666506,5.72570335 7.97214056,8.65408612 6.19880723,11.9477895 C2.70158635,18.4436364 0.221285141,23.9026986 0.659658635,24.1402488 Z" fill="#528ECB"></path>
                    </g>
                </g>
                <g id="Group" fill="#000000">
                    <path d="M38.3199375,3.98169444 C38.1249375,2.17929861 36.6802617,0.768090278 34.8848145,0.626159722 C26.0542852,-0.0717291667 17.1011953,-0.167368056 8.27447461,0.341916667 C7.95950391,0.360097222 7.71880078,0.630895833 7.73692969,0.946763889 C7.75505859,1.26263194 8.02524023,1.50394444 8.34005859,1.48584028 C17.1153633,0.979611111 26.0160469,1.07463889 34.7950078,1.76840278 C36.0434648,1.86709722 37.0481719,2.84991667 37.1839863,4.10529167 C37.33275,5.48082639 37.4560723,6.85972222 37.5550957,8.24068056 C36.5662324,8.15627083 35.5731035,8.07820139 34.5792129,8.00723611 C34.3263223,7.22157639 33.776209,6.57746528 32.9611699,6.12898611 L33.4166016,5.28351389 C33.8241973,4.52672917 33.5418281,3.57851389 32.7872695,3.16975694 L31.3208848,2.37546528 C30.5663262,1.96678472 29.6207285,2.24980556 29.2131328,3.00659028 L28.3051641,4.69234028 C28.0030664,4.8021875 27.7235918,4.98345833 27.4948477,5.23378472 C26.8778555,5.90913889 26.2426582,6.69113194 25.6041094,7.55799306 C17.581002,7.3266875 9.45666211,7.55661806 1.43850586,8.24068056 C1.5375293,6.85972222 1.66077539,5.48082639 1.80961523,4.10529167 C1.94542969,2.84991667 2.95013672,1.86709722 4.19874609,1.76840278 C4.840875,1.71745139 5.47096875,1.67085417 6.07166016,1.62983333 C6.38640234,1.60836806 6.62421094,1.33497222 6.60280664,1.01933333 C6.58140234,0.703694444 6.30939258,0.465284722 5.99404102,0.486673611 C5.3893125,0.528 4.75495313,0.574902778 4.10886328,0.626159722 C2.31333984,0.768090278 0.868664063,2.179375 0.673664063,3.98177083 C-0.224554687,12.2863125 -0.224554687,20.7078819 0.673664063,29.0125 C0.868664063,30.8148958 2.31333984,32.2261042 4.10878711,32.3680347 C9.21832031,32.7715208 14.3668535,32.9735694 19.5102832,32.9734931 C23.3980957,32.9734931 27.2834707,32.8580694 31.1438613,32.6269931 C31.458832,32.608125 31.6989258,32.3367917 31.6801113,32.021 C31.6612969,31.7051319 31.3914961,31.4644306 31.0757637,31.4832222 C22.1606074,32.0167986 13.1177871,31.9301736 4.19851758,31.2257917 C2.95006055,31.1270972 1.94535352,30.1442778 1.80953906,28.8889028 C1.11050977,22.4257153 0.961212891,15.8910278 1.36111523,9.39720833 C9.13803516,8.72720139 17.0171016,8.48734028 24.8061328,8.683125 C23.9506465,9.93338194 23.1000352,11.3197639 22.2893379,12.7907847 L11.1900293,12.7907847 C10.8745254,12.7907847 10.6187402,13.0472986 10.6187402,13.3637014 C10.6187402,13.6801042 10.8745254,13.9366181 11.1900293,13.9366181 L21.6752402,13.9366181 C21.3065684,14.6439028 20.9595293,15.3478264 20.6354941,16.0426597 L11.1900293,16.0426597 C10.8745254,16.0426597 10.6187402,16.2991736 10.6187402,16.6155764 C10.6187402,16.9319792 10.8745254,17.1884931 11.1900293,17.1884931 L20.1188965,17.1884931 C19.8059063,17.9076181 19.5211758,18.6118472 19.2671426,19.2944583 L4.86585938,19.2944583 C4.55035547,19.2944583 4.29457031,19.5509722 4.29457031,19.867375 C4.29457031,20.1837778 4.55035547,20.4402917 4.86585938,20.4402917 L18.8630508,20.4402917 C18.6658418,21.0340625 18.4938457,21.6075903 18.3529277,22.1524722 C18.3182695,22.2864583 18.2862012,22.4172361 18.2554277,22.5463333 L4.86585938,22.5463333 C4.55035547,22.5463333 4.29457031,22.8028472 4.29457031,23.11925 C4.29457031,23.4356528 4.55035547,23.6921667 4.86585938,23.6921667 L18.0231797,23.6921667 C17.772498,25.2375903 17.8843945,26.3250625 18.3573457,26.9428194 L18.225416,27.1583125 C18.0603516,27.4279653 18.1444453,27.7807292 18.413332,27.9463403 C18.5065664,28.0037083 18.6097793,28.0310556 18.7116973,28.0310556 C18.9037266,28.0310556 19.0912617,27.9339653 19.1991211,27.7578125 L19.3524551,27.5073333 C19.4101934,27.5136736 19.4688457,27.5171875 19.528793,27.5171875 C20.5242832,27.5171875 21.8235469,26.6371875 23.4047227,24.8889514 C23.7385078,24.5199167 24.0775488,24.1197153 24.4194844,23.6921667 L34.1278184,23.6921667 C34.4433223,23.6921667 34.6991074,23.4356528 34.6991074,23.11925 C34.6991074,22.8028472 34.4433223,22.5463333 34.1278184,22.5463333 L25.2945469,22.5463333 C25.7754961,21.8888542 26.2581211,21.1836319 26.7360234,20.4402917 L27.4332246,20.4402917 C27.3378574,20.7511181 27.2992383,21.0226806 27.324832,21.2576528 C27.356748,21.5511389 27.6043066,21.7685417 27.8920078,21.7685417 C27.9126504,21.7685417 27.9335977,21.7673958 27.9546973,21.7651042 C28.268373,21.7308056 28.494832,21.4480139 28.4606309,21.1334444 C28.4524043,21.0573611 28.4663438,20.8667708 28.6469473,20.4403681 L34.127666,20.4403681 C34.4431699,20.4403681 34.6989551,20.1838542 34.6989551,19.8674514 C34.6989551,19.5510486 34.4431699,19.2945347 34.127666,19.2945347 L29.2397168,19.2945347 C29.6082363,18.6615 30.0710566,17.9469583 30.573334,17.1885694 L34.127666,17.1885694 C34.4431699,17.1885694 34.6989551,16.9320556 34.6989551,16.6156528 C34.6989551,16.29925 34.4431699,16.0427361 34.127666,16.0427361 L31.3361191,16.0427361 C31.8063281,15.33675 32.2749375,14.6276319 32.7072129,13.9366944 L34.127666,13.9366944 C34.4431699,13.9366944 34.6989551,13.6801806 34.6989551,13.3637778 C34.6989551,13.047375 34.4431699,12.7908611 34.127666,12.7908611 L33.3966445,12.7908611 C34.0560645,11.6399097 34.5460781,10.5807014 34.6834922,9.72583333 C34.7141133,9.53501389 34.7310996,9.34877778 34.7362031,9.16697222 C35.7038145,9.23709722 36.6703594,9.31440278 37.6324102,9.39736111 C38.0323125,15.8911806 37.8830918,22.4258681 37.1839863,28.8890556 C37.0481719,30.1444306 36.0434648,31.12725 34.7950078,31.2259444 C34.2586055,31.2682639 33.785502,31.3036319 33.3485801,31.3340347 C33.0338379,31.3558819 32.796334,31.6295069 32.8181953,31.9451458 C32.8390664,32.2473403 33.0899766,32.4784931 33.3875039,32.4784931 C33.4007578,32.4784931 33.4141641,32.4780347 33.4275703,32.4771181 C33.8681484,32.4464861 34.3447559,32.4108889 34.8847383,32.3682639 C36.6801855,32.2263333 38.1248613,30.815125 38.3198613,29.0127292 C39.2181563,20.7078056 39.2181563,12.2863125 38.3199375,3.98169444 Z M33.2880996,7.91831944 C33.0305625,7.90151389 32.7739395,7.88623611 32.5168594,7.87042361 C32.5640098,7.65027083 32.5744453,7.429125 32.5505273,7.21386111 C32.8688496,7.40964583 33.1150371,7.64461806 33.2880996,7.91831944 Z M30.7778555,3.38364583 L32.2442402,4.1779375 C32.4444961,4.28640972 32.5194492,4.53811111 32.4112852,4.7389375 L31.8114316,5.8526875 C31.7117988,5.77110417 31.6043203,5.69700694 31.487625,5.63383333 L29.9784316,4.81631944 C29.8618887,4.75314583 29.7412324,4.70364583 29.6185957,4.66484028 L30.2184492,3.55116667 C30.3266133,3.35034028 30.5776758,3.27517361 30.7778555,3.38364583 Z M28.3373086,6.00790972 C28.5128086,5.81579167 28.7557207,5.7145 29.0028223,5.7145 C29.1499863,5.7145 29.2985977,5.75047917 29.4354023,5.82457639 L30.9445957,6.64209028 C31.3110586,6.840625 31.4957754,7.26061111 31.3937051,7.6635625 C30.7642969,10.1481875 29.4854473,13.2472083 27.7929082,16.3897708 C27.1091895,17.659125 26.39325,18.8694306 25.6687031,19.9860069 L21.2010703,17.5659306 C21.7351113,16.3456944 22.3507324,15.0819931 23.0346035,13.8122569 C24.7271426,10.6696944 26.610416,7.89807639 28.3373086,6.00790972 Z M22.558377,24.1190278 C20.6639824,26.2136111 19.6401563,26.4836458 19.3636523,26.3337708 C19.0869961,26.1838958 18.7509258,25.1772431 19.4589434,22.4400764 C19.758832,21.280875 20.1994863,19.9893681 20.7536367,18.6258264 L25.0303828,20.9424722 C24.1966816,22.1552986 23.3609238,23.2316944 22.558377,24.1190278 Z M27.9326074,19.2943819 L27.450668,19.2943819 C27.8613867,18.6155903 28.2660117,17.9115903 28.6604297,17.1884167 L29.2066582,17.1884167 C28.6812246,17.9966875 28.2499395,18.6944236 27.9326074,19.2943819 Z M30.1458574,15.7665903 C30.0837012,15.8598611 30.0225352,15.9516806 29.9619785,16.0425833 L29.2670625,16.0425833 C29.6321543,15.3343819 29.9769844,14.6301528 30.296373,13.9365417 L31.3518105,13.9365417 C30.9566309,14.5504792 30.5442363,15.1691528 30.1458574,15.7665903 Z M33.5555391,9.54341667 C33.423,10.3681111 32.828707,11.532125 32.0688164,12.7907083 L30.8060391,12.7907083 C31.378166,11.4572639 31.8513457,10.1779792 32.2072207,8.99922222 C32.669584,9.02718056 33.1324043,9.05628472 33.5963672,9.08745139 C33.5944629,9.23350694 33.5809043,9.38544444 33.5555391,9.54341667 Z" id="Shape" fill-rule="nonzero"></path>
                    <path d="M3.0303457,4.64765278 C3.0303457,5.95161111 4.08814453,7.01242361 5.38839844,7.01242361 C6.68857617,7.01242361 7.74645117,5.95161111 7.74645117,4.64765278 C7.74645117,3.34369444 6.68865234,2.28295833 5.38839844,2.28295833 C4.0882207,2.28295833 3.0303457,3.34377083 3.0303457,4.64765278 Z M6.60387305,4.64765278 C6.60387305,5.31979861 6.05863477,5.86659028 5.38839844,5.86659028 C4.71816211,5.86659028 4.17292383,5.31979861 4.17292383,4.64765278 C4.17292383,3.97550694 4.71816211,3.42871528 5.38839844,3.42871528 C6.05863477,3.42879167 6.60387305,3.97558333 6.60387305,4.64765278 Z" id="Shape" fill-rule="nonzero"></path>
                    <path d="M18.4668809,4.64765278 C18.4668809,3.34369444 17.409082,2.28288194 16.1088281,2.28288194 C14.8085742,2.28288194 13.7507754,3.34369444 13.7507754,4.64765278 C13.7507754,5.95161111 14.8085742,7.01242361 16.1088281,7.01242361 C17.409082,7.01242361 18.4668809,5.95161111 18.4668809,4.64765278 Z M14.8934297,4.64765278 C14.8934297,3.97550694 15.438668,3.42871528 16.1089043,3.42871528 C16.7791406,3.42871528 17.3243789,3.97550694 17.3243789,4.64765278 C17.3243789,5.31979861 16.7791406,5.86659028 16.1089043,5.86659028 C15.438668,5.86659028 14.8934297,5.31979861 14.8934297,4.64765278 Z" id="Shape" fill-rule="nonzero"></path>
                    <path d="M13.106666,4.64765278 C13.106666,3.34369444 12.0488672,2.28288194 10.7486133,2.28288194 C9.44835937,2.28288194 8.39056055,3.34369444 8.39056055,4.64765278 C8.39056055,5.95161111 9.44835937,7.01242361 10.7486133,7.01242361 C12.0488672,7.01242361 13.106666,5.95161111 13.106666,4.64765278 Z M9.53321484,4.64765278 C9.53321484,3.97550694 10.0784531,3.42871528 10.7486895,3.42871528 C11.4189258,3.42871528 11.9641641,3.97550694 11.9641641,4.64765278 C11.9641641,5.31979861 11.4189258,5.86659028 10.7486895,5.86659028 C10.0784531,5.86659028 9.53321484,5.31979861 9.53321484,4.64765278 Z" id="Shape" fill-rule="nonzero"></path>
                    <path d="M4.86608789,25.7985139 C4.55058398,25.7985139 4.29479883,26.0550278 4.29479883,26.3714306 C4.29479883,26.6878333 4.55058398,26.9443472 4.86608789,26.9443472 L15.0908672,26.9443472 C15.4063711,26.9443472 15.6621562,26.6878333 15.6621562,26.3714306 C15.6621562,26.0550278 15.4063711,25.7985139 15.0908672,25.7985139 L4.86608789,25.7985139 Z" id="Path"></path>
                    <path d="M6.50286914,10.4011875 L4.86585937,10.4011875 C4.55035547,10.4011875 4.29457031,10.6577014 4.29457031,10.9741042 L4.29457031,13.5765972 L4.29457031,13.5807986 L4.29457031,16.6258889 C4.29457031,16.7782847 4.35512695,16.9244167 4.46275781,17.0318958 C4.56985547,17.1388403 4.71481055,17.1988056 4.86585937,17.1988056 L4.86837305,17.1988056 C4.86837305,17.1988056 6.37383398,17.1920833 6.78874219,17.1920833 C7.94023242,17.1920833 8.87699414,16.2526528 8.87699414,15.0978819 C8.87699414,14.3957917 8.53033594,13.7738333 8.00010352,13.3936458 C8.23288477,13.0812153 8.3709082,12.6937708 8.3709082,12.274625 C8.37098437,11.2415417 7.53294141,10.4011875 6.50286914,10.4011875 Z M6.50286914,11.5470208 C6.90292383,11.5470208 7.22833008,11.8733542 7.22833008,12.2745486 C7.22833008,12.6757431 6.90292383,13.0020764 6.50286914,13.0020764 C6.38251758,13.0020764 6.15583008,13.0027639 5.90872852,13.0036042 L5.43714844,13.0036042 L5.43714844,11.5469444 L6.50286914,11.5469444 L6.50286914,11.5470208 Z M6.78881836,16.0461736 C6.54194531,16.0461736 5.91017578,16.0485417 5.43714844,16.0504514 L5.43714844,14.1511944 C5.58873047,14.1505833 5.75379492,14.1499722 5.91078516,14.1493611 L6.78881836,14.1493611 C7.31029102,14.1493611 7.73449219,14.5747708 7.73449219,15.0977292 C7.73449219,15.6207639 7.31021484,16.0461736 6.78881836,16.0461736 Z" id="Shape" fill-rule="nonzero"></path>
                </g>
            </g>
        </g>
    </g>
</svg>