<?xml version="1.0" encoding="UTF-8"?>
<svg width="638px" height="70px" viewBox="0 0 638 70" version="1.1" xmlns="http://www.w3.org/2000/svg" xmlns:xlink="http://www.w3.org/1999/xlink">
    <!-- Generator: Sketch 52.3 (67297) - http://www.bohemiancoding.com/sketch -->
    <title>Group 30</title>
    <desc>Created with Sketch.</desc>
    <defs>
        <circle id="path-1" cx="31.3910506" cy="31.3910506" r="31.3910506"></circle>
    </defs>
    <g id="Page-1" stroke="none" stroke-width="1" fill="none" fill-rule="evenodd">
        <g id="Group-30">
            <g id="Group-4">
                <g id="Group-5">
                    <g id="Group-3">
                        <g id="Group-2" transform="translate(187.120623, 0.000000)">
                            <rect id="Rectangle" fill="#FFF60F" x="0" y="0" width="450.36965" height="70" rx="35"></rect>
                            <g id="profile" transform="translate(4.221790, 3.677043)">
                                <mask id="mask-2" fill="white">
                                    <use xlink:href="#path-1"></use>
                                </mask>
                                <use id="Mask" fill="#FFFFFF" xlink:href="#path-1"></use>
                            </g>
                        </g>
                        <path d="M187.120623,36.9457792 L19.5026484,36.9457792" id="Line-2" stroke="#FFF60F" stroke-width="5" stroke-linecap="square"></path>
                        <ellipse id="Oval" fill="#FFF60F" cx="9.73735409" cy="36.9747082" rx="9.73735409" ry="10.0097276"></ellipse>
                    </g>
                </g>
            </g>
            <g id="responsive-design" transform="translate(202.000000, 17.000000)">
                <g id="Group" transform="translate(1.000000, 1.000000)">
                    <g id="Path">
                        <path d="M33.5944779,0.0795963303 C33.0549739,0.0795963303 5.15488554,0.0795963303 4.99845984,0.0795963303 C3.50895783,0.0795963303 2.29715261,1.29492661 2.29715261,2.78876147 L2.29715261,23.1097706 C2.29715261,24.4309541 3.27341365,25.5760183 4.57257028,25.7847523 L5.05905422,26.1743119 L33.114004,26.1743119 L34.0203675,25.7847523 C35.3195241,25.5760183 36.2957851,24.4309541 36.2957851,23.1097706 C36.2957851,22.4336147 36.2957851,3.40034862 36.2957851,2.78876147 C36.2957851,1.29492661 35.0839799,0.0795963303 33.5944779,0.0795963303 Z" fill="#3F6D8E"></path>
                        <path d="M4.87406024,23.1097706 L4.87406024,2.78876147 C4.87406024,1.29492661 6.08586546,0.0795963303 7.57536747,0.0795963303 C6.00238353,0.0795963303 5.02735743,0.0795963303 4.99845984,0.0795963303 C3.50895783,0.0795963303 2.29715261,1.29492661 2.29715261,2.78876147 L2.29715261,23.1097706 C2.29715261,24.4309541 3.27341365,25.5760183 4.57257028,25.7847523 L5.05905422,26.1743119 L7.63596185,26.1743119 L7.14947791,25.7847523 C5.85032129,25.5760183 4.87406024,24.4309541 4.87406024,23.1097706 Z" fill="#365E7D"></path>
                        <path d="M33.5402229,4.86462385 L5.21408032,4.86462385 L4.72389157,5.37778899 L4.72389157,22.8868349 C4.72389157,23.1552661 4.94091165,23.3729174 5.20856426,23.3729174 L33.3844558,23.3729174 C33.6521084,23.3729174 33.8690462,23.1552661 33.8690462,22.8868349 C33.8690462,22.4278349 33.8690462,5.9090367 33.8690462,5.37778899 L33.5402229,4.86462385 Z" fill="#E4F6FF"></path>
                        <path d="M7.87430522,22.8868349 L7.87430522,5.37787156 L8.36449398,4.86470642 L5.21408032,4.86470642 L4.72389157,5.37787156 L4.72389157,22.8869174 C4.72389157,23.1553486 4.94091165,23.373 5.20856426,23.373 L8.35897791,23.373 C8.0913253,23.373 7.87430522,23.1552661 7.87430522,22.8868349 Z" fill="#D3EFFB"></path>
                        <path d="M7.87430522,2.49514679 L5.20848193,2.49514679 C4.94082932,2.49514679 4.72380924,2.71279817 4.72380924,2.98122936 L4.72380924,5.37787156 L7.87422289,5.37787156 L8.08144578,5.15617431 L8.08144578,2.64946789 L7.87430522,2.49514679 Z" fill="#DD636E"></path>
                        <path d="M33.3843735,2.49514679 C32.1328032,2.49514679 8.86620884,2.49514679 7.87430522,2.49514679 L7.87430522,5.37787156 L33.8689639,5.37787156 L33.8689639,2.98122936 C33.8689639,2.71279817 33.6520261,2.49514679 33.3843735,2.49514679 Z" fill="#B1E4F9"></path>
                        <path d="M38.1042309,25.7847523 L0.488706827,25.7847523 C0.239578313,25.7847523 0.0377068273,25.9892752 0.0377068273,26.2415229 L0.0377068273,27.8126422 C0.0377068273,28.9783486 0.979471888,29.9321009 2.1306004,29.9321009 L36.4623373,29.9321009 C37.6133835,29.9321009 38.5552309,28.9783486 38.5552309,27.8126422 L38.5552309,26.2415229 C38.5552309,25.9892752 38.3532771,25.7847523 38.1042309,25.7847523 Z" fill="#407093"></path>
                        <path d="M4.72389157,27.8125596 L4.72389157,26.2414404 C4.72389157,25.9891927 4.92584538,25.7846697 5.17489157,25.7846697 L0.488706827,25.7846697 C0.239578313,25.7846697 0.0377068273,25.9891927 0.0377068273,26.2414404 L0.0377068273,27.8125596 C0.0377068273,28.9782661 0.979471888,29.9320183 2.1306004,29.9320183 L6.81686747,29.9320183 C5.66573896,29.9320183 4.72389157,28.9782661 4.72389157,27.8125596 Z" fill="#365E7D"></path>
                    </g>
                    <path d="M40.5266064,31.4469083 L40.5266064,15.3184954 L40.9554598,14.9115138 C40.9554598,13.8933578 40.9554598,13.2291743 40.9554598,13.0995413 C40.9554598,12.1690734 40.2033815,11.4148073 39.2755301,11.4148073 L28.9652651,11.4148073 C28.037496,11.4148073 27.2854177,12.1690734 27.2854177,13.0995413 L27.2854177,14.9115138 L27.7656446,15.3460734 L27.7656446,31.5985872 L27.2854177,31.8967431 L27.2854177,34.2908257 C27.2854177,35.2212936 28.037496,35.9755596 28.9652651,35.9755596 L39.2756124,35.9755596 C40.2033815,35.9755596 40.9555422,35.2212936 40.9555422,34.2908257 C40.9555422,34.1379083 40.9555422,33.241211 40.9555422,31.8967431 L40.5266064,31.4469083 Z" id="Path" fill="#365E7D"></path>
                    <path d="M29.7621305,34.2906606 L29.7621305,31.896578 L30.2423574,31.598422 L30.2423574,15.3459908 L29.7621305,14.9114312 L29.7621305,13.0995413 C29.7621305,12.1690734 30.5142088,11.4148073 31.4419779,11.4148073 L28.9652651,11.4148073 C28.037496,11.4148073 27.2854177,12.1690734 27.2854177,13.0995413 L27.2854177,14.9115138 L27.7656446,15.3460734 L27.7656446,31.5985872 L27.2854177,31.8967431 L27.2854177,34.2908257 C27.2854177,35.2212936 28.037496,35.9755596 28.9652651,35.9755596 L31.4419779,35.9755596 C30.5142912,35.9754771 29.7621305,35.2211284 29.7621305,34.2906606 Z" id="Path" fill="#294B64"></path>
                    <ellipse id="Oval" fill="#DD636E" cx="18.8847811" cy="14.3753945" rx="5.16344779" ry="5.17846789"></ellipse>
                    <path d="M15.6972369,14.3753945 C15.6972369,11.8544037 17.4938273,9.75517431 19.8727329,9.29270642 C19.5528835,9.23053211 19.222743,9.19692661 18.8847811,9.19692661 C16.0330582,9.19692661 13.7213333,11.5153761 13.7213333,14.3753945 C13.7213333,17.2354128 16.0330582,19.5538624 18.8847811,19.5538624 C19.222743,19.5538624 19.5528835,19.5202569 19.8727329,19.4580826 C17.4938273,18.9956972 15.6972369,16.8963853 15.6972369,14.3753945 Z" id="Path" fill="#DA4A54"></path>
                    <path d="M20.98599,13.8391101 L18.3363032,12.027055 C17.9066265,11.7332752 17.3243936,12.0418349 17.3243936,12.5633394 L17.3243936,16.187367 C17.3243936,16.7088716 17.9066265,17.0174312 18.3363032,16.7236514 L20.98599,14.9115963 C21.3627289,14.6540642 21.3627289,14.0968073 20.98599,13.8391101 Z" id="Path" fill="#E4F6FF"></path>
                    <path d="M19.3002972,12.686367 L18.3363032,12.0271376 C17.9066265,11.7333578 17.3243936,12.0419174 17.3243936,12.563422 L17.3243936,16.1874495 C17.3243936,16.7089541 17.9066265,17.0175138 18.3363032,16.7237339 L19.3002972,16.0645046 L19.3002972,12.686367 Z" id="Path" fill="#D3EFFB"></path>
                    <polygon id="Path" fill="#90D8F9" points="27.2854177 17.2725688 40.9555422 17.2725688 40.9555422 31.896578 27.2854177 31.896578"></polygon>
                    <polygon id="Path" fill="#75CEF9" points="27.2854177 17.2725688 29.7619659 17.2725688 29.7619659 31.8966606 27.2854177 31.8966606"></polygon>
                    <path d="M34.7767269,34.4250826 L33.4641506,34.4250826 C33.1231426,34.4250826 32.8466807,34.1478165 32.8466807,33.8058165 C32.8466807,33.4638165 33.1231426,33.1865505 33.4641506,33.1865505 L34.7767269,33.1865505 C35.1177349,33.1865505 35.3941968,33.4638165 35.3941968,33.8058165 C35.3941968,34.1478165 35.1177349,34.4250826 34.7767269,34.4250826 Z" id="Path" fill="#365E7D"></path>
                    <ellipse id="Oval" fill="#DD636E" cx="34.1204799" cy="24.5607523" rx="4.49394578" ry="4.50701835"></ellipse>
                    <path d="M31.324494,24.5607523 C31.324494,22.3627706 32.8936084,20.5333761 34.9694598,20.1351468 C34.6943976,20.0823853 34.4108554,20.0537339 34.1204799,20.0537339 C31.638498,20.0537339 29.6265341,22.071633 29.6265341,24.5607523 C29.6265341,27.0498716 31.638498,29.0677706 34.1204799,29.0677706 C34.4108554,29.0677706 34.6944799,29.0391193 34.9694598,28.9863578 C32.8936084,28.5881284 31.324494,26.7587339 31.324494,24.5607523 Z" id="Path" fill="#DA4A54"></path>
                    <polygon id="Path" fill="#DD636E" points="27.2854177 14.9114312 29.8032952 14.9114312 29.8032952 17.3899817 27.2854177 17.3899817"></polygon>
                    <path d="M29.7619659,14.9114312 L29.7619659,17.3899817 L40.9555422,17.3899817 L40.9555422,14.9114312 C39.5948855,14.9114312 31.1381827,14.9114312 29.7619659,14.9114312 Z" id="Path" fill="#B1E4F9"></path>
                    <path d="M35.9491787,24.0939908 L33.6430522,22.5169266 C33.2691124,22.261211 32.7623755,22.5298073 32.7623755,22.9836881 L32.7623755,26.1378165 C32.7623755,26.5916972 33.2691124,26.8602936 33.6430522,26.604578 L35.9491787,25.0275138 C36.2770964,24.8032569 36.2770964,24.3182477 35.9491787,24.0939908 Z" id="Path" fill="#E4F6FF"></path>
                    <path d="M34.4604177,23.0759174 L33.6430522,22.5169266 C33.2691124,22.261211 32.7623755,22.5298073 32.7623755,22.9836881 L32.7623755,26.1378165 C32.7623755,26.5916972 33.2691124,26.8602936 33.6430522,26.604578 L34.4604177,26.0455872 L34.4604177,23.0759174 Z" id="Path" fill="#D3EFFB"></path>
                </g>
                <g id="Group" fill="#000000">
                    <path d="M39.6337544,11.2984022 L37.2846199,11.2984022 L37.2846199,3.32531333 C37.2846199,1.49767778 35.8040585,0.0108533333 33.9842222,0.0108533333 L5.54727485,0.0108533333 C3.7274386,0.0108533333 2.24695906,1.49767778 2.24695906,3.32531333 L2.24695906,23.5610244 C2.24695906,24.32232 2.51418713,25.0379822 2.96308772,25.6081111 L1.06260819,25.6081111 C0.476654971,25.6080289 2.84217094e-14,26.0887822 2.84217094e-14,26.6795489 L2.84217094e-14,28.2440733 C2.84217094e-14,29.7479178 1.20915789,30.9713022 2.69536842,30.9713022 L17.9236842,30.9713022 C18.2628772,30.9713022 18.5377193,30.6952 18.5377193,30.3546356 C18.5377193,30.0140711 18.2628772,29.7379689 17.9236842,29.7379689 L2.69536842,29.7379689 C1.88631579,29.7379689 1.22807018,29.0678578 1.22807018,28.2440733 L1.22807018,26.8413622 L27.0962222,26.8413622 L27.0962222,29.7379689 L20.7891813,29.7379689 C20.4499883,29.7379689 20.1751462,30.0140711 20.1751462,30.3546356 C20.1751462,30.6952 20.4499883,30.9713022 20.7891813,30.9713022 L27.0962222,30.9713022 L27.0962222,34.6949822 C27.0962222,35.9601356 28.1210877,36.9893933 29.3807602,36.9893933 L39.6336725,36.9893933 C40.8934269,36.9893933 41.9182105,35.9601356 41.9182105,34.6949822 C41.9182105,33.7525511 41.9182105,14.2670356 41.9182105,13.5928133 C41.9182924,12.32766 40.8934269,11.2984022 39.6337544,11.2984022 Z M27.0962222,25.6080289 L5.17590643,25.6080289 C4.20311111,25.4288667 3.47511111,24.5569 3.47511111,23.5609422 L3.47511111,3.32531333 C3.47511111,2.17773778 4.40467836,1.24418667 5.54735673,1.24418667 L33.9843041,1.24418667 C35.1269825,1.24418667 36.0566316,2.17773778 36.0566316,3.32531333 L36.0566316,11.2984844 L34.8713801,11.2984844 C34.8713801,10.4360556 34.8713801,4.46343333 34.8713801,3.51697333 C34.8713801,2.91009111 34.3797427,2.41626444 33.7754503,2.41626444 C33.6081871,2.41626444 6.60996491,2.41626444 5.7562924,2.41626444 C5.15191813,2.41626444 4.6602807,2.91000889 4.6602807,3.51697333 L4.6602807,23.3391067 C4.6602807,23.9459889 5.15191813,24.4398156 5.7562924,24.4398156 L27.0963041,24.4398156 L27.0963041,25.6080289 L27.0962222,25.6080289 Z M33.6432281,3.64951556 L33.6432281,5.28680667 L9.02123977,5.28680667 L9.02123977,3.64951556 L33.6432281,3.64951556 Z M7.79316959,3.64951556 L7.79316959,5.28680667 L5.88826901,5.28680667 L5.88826901,3.64951556 L7.79316959,3.64951556 Z M27.0962222,13.5927311 L27.0962222,23.2064 L5.88826901,23.2064 L5.88826901,6.52014 L33.6432281,6.52014 L33.6432281,11.2984022 L29.3808421,11.2984022 C28.1210877,11.2984022 27.0962222,12.32766 27.0962222,13.5927311 Z M28.3242924,16.0137644 L29.5589942,16.0137644 L29.5589942,17.2485778 L28.3242924,17.2485778 L28.3242924,16.0137644 Z M40.6902222,34.6949822 C40.6902222,35.2800756 40.216269,35.75606 39.6337544,35.75606 L29.3807602,35.75606 C28.7982456,35.75606 28.3242924,35.2800756 28.3242924,34.6949822 L28.3242924,32.9276156 L40.6902222,32.9276156 L40.6902222,34.6949822 Z M40.6902222,31.6942822 L28.3242924,31.6942822 C28.3242924,26.6602267 28.3242924,23.5107044 28.3242924,18.4819111 L40.6902222,18.4819111 L40.6902222,31.6942822 Z M40.6902222,17.2485778 L30.7870643,17.2485778 L30.7870643,16.0137644 L40.6902222,16.0137644 L40.6902222,17.2485778 Z M40.6902222,14.7804311 C40.0634971,14.7804311 28.8831462,14.7804311 28.3242924,14.7804311 L28.3242924,13.5927311 C28.3242924,13.00772 28.7982456,12.5317356 29.3807602,12.5317356 L39.6336725,12.5317356 C40.2161871,12.5317356 40.6901404,13.00772 40.6901404,13.5927311 L40.6902222,14.7804311 Z" id="Shape" fill-rule="nonzero"></path>
                    <path d="M33.8546199,34.8287578 L35.1598947,34.8287578 C35.4990877,34.8287578 35.7739298,34.5526556 35.7739298,34.2120911 C35.7739298,33.8715267 35.4990877,33.5954244 35.1598947,33.5954244 L33.8546199,33.5954244 C33.5154269,33.5954244 33.2405848,33.8715267 33.2405848,34.2120911 C33.2405848,34.5526556 33.5154269,34.8287578 33.8546199,34.8287578 Z" id="Path"></path>
                    <path d="M21.7917778,13.8197467 L19.1568304,12.01538 C18.3229708,11.4442644 17.1905263,12.0451444 17.1905263,13.0588622 L17.1905263,16.6676778 C17.1905263,17.6811489 18.3225614,18.2823578 19.1568304,17.71116 L21.7917778,15.9067933 C22.5233801,15.4058133 22.5232164,14.3205622 21.7917778,13.8197467 Z M21.099883,14.8878133 L18.4649357,16.6922622 C18.4569942,16.6976067 18.4501988,16.7023756 18.4343977,16.6939889 C18.4186784,16.6856022 18.4186784,16.6772978 18.4186784,16.6676778 L18.4186784,13.0588622 C18.4186784,13.0492422 18.4186784,13.0409378 18.4343977,13.0325511 C18.4406199,13.0292622 18.4454503,13.0279467 18.4495439,13.0279467 C18.4557661,13.0279467 18.4601871,13.0309889 18.4649357,13.0342778 L21.099883,14.8386444 C21.1053684,14.8424267 21.1128187,14.8475244 21.1128187,14.8632289 C21.1128187,14.8790156 21.1053684,14.8841133 21.099883,14.8878133 Z" id="Shape" fill-rule="nonzero"></path>
                    <path d="M19.3564327,9.08983111 C16.186538,9.08983111 13.6075906,11.6798311 13.6075906,14.8632289 C13.6075906,18.0466267 16.186538,20.6366267 19.3564327,20.6366267 C22.5263275,20.6366267 25.105193,18.0467089 25.105193,14.8632289 C25.105193,11.6797489 22.5263275,9.08983111 19.3564327,9.08983111 Z M19.3564327,19.4033756 C16.8636959,19.4033756 14.8356608,17.3667311 14.8356608,14.8633111 C14.8356608,12.3598911 16.8636959,10.3232467 19.3564327,10.3232467 C21.8490877,10.3232467 23.8771228,12.3599733 23.8771228,14.8633111 C23.8771228,17.3666489 21.8490877,19.4033756 19.3564327,19.4033756 Z" id="Shape" fill-rule="nonzero"></path>
                    <path d="M34.3783509,22.4611378 C33.5983626,21.9270222 32.5426316,22.4913133 32.5426316,23.4354711 L32.5426316,26.57636 C32.5426316,27.5282467 33.6048304,28.0803689 34.3784327,27.5506111 L36.6716491,25.9801667 C37.3547836,25.5124867 37.3546199,24.4992622 36.671731,24.0315822 L34.3783509,22.4611378 Z M33.7707018,26.4739933 L33.7707018,23.5377556 L35.9145848,25.0059156 L33.7707018,26.4739933 Z" id="Shape" fill-rule="nonzero"></path>
                    <path d="M34.5072164,30.1106822 C36.6439766,30.1106822 38.5660702,28.7545089 39.2901404,26.7360356 C39.4050877,26.4156156 39.2397076,26.0623067 38.9205731,25.9468667 C38.6016023,25.8315911 38.2497193,25.9975978 38.1347719,26.3180178 C37.5855789,27.8488311 36.1276959,28.8773489 34.5071345,28.8773489 C32.3815088,28.8773489 30.6522222,27.1405689 30.6522222,25.0059156 C30.6522222,22.8712622 32.3815088,21.1344822 34.5071345,21.1344822 C36.1958129,21.1344822 37.6727719,22.21998 38.1825029,23.8355644 C38.2848421,24.16026 38.6301754,24.34008 38.9532398,24.23722 C39.2765497,24.13436 39.4556023,23.7877933 39.3531813,23.4630978 C38.6811813,21.3326378 36.7337076,19.9012311 34.5072164,19.9012311 C31.7045146,19.9012311 29.4242339,22.1912844 29.4242339,25.0059978 C29.4242339,27.8207111 31.7045146,30.1106822 34.5072164,30.1106822 Z" id="Path"></path>
                </g>
            </g>
        </g>
    </g>
</svg>