<?xml version="1.0" encoding="UTF-8"?>
<svg width="488px" height="96px" viewBox="0 0 488 96" version="1.1" xmlns="http://www.w3.org/2000/svg" xmlns:xlink="http://www.w3.org/1999/xlink">
    <!-- Generator: Sketch 52.3 (67297) - http://www.bohemiancoding.com/sketch -->
    <title>Group 15</title>
    <desc>Created with Sketch.</desc>
    <defs>
        <circle id="path-1" cx="43.2254309" cy="42.8229572" r="42.5"></circle>
    </defs>
    <g id="Page-1" stroke="none" stroke-width="1" fill="none" fill-rule="evenodd">
        <g id="Artboard" transform="translate(-1616.000000, -445.000000)">
            <g id="Group-15" transform="translate(1616.000000, 445.000000)">
                <g id="Group-12">
                    <g id="Group-10">
                        <g id="Group-3">
                            <path d="M189.862013,48.2422864 L20.0283096,48.2422864" id="Line-2" stroke="#FFF60F" stroke-width="5" stroke-linecap="square"></path>
                            <g id="Group-2" transform="translate(110.000000, 0.000000)">
                                <rect id="Rectangle" fill="#FFF60F" x="0" y="1.42108547e-14" width="378" height="96" rx="48"></rect>
                                <g id="profile" transform="translate(3.274569, 4.677043)">
                                    <mask id="mask-2" fill="white">
                                        <use xlink:href="#path-1"></use>
                                    </mask>
                                    <use id="Mask" fill="#FFFFFF" xlink:href="#path-1"></use>
                                </g>
                            </g>
                            <circle id="Oval" fill="#FFF60F" cx="9.5" cy="48.5" r="9.5"></circle>
                        </g>
                    </g>
                </g>
                <g id="browser" transform="translate(132.000000, 23.000000)">
                    <path d="M46.3102784,48 L3.68962466,48 C2.20413874,48 1,46.8296729 1,45.3858988 L1,11 L49,11 L49,45.3858988 C49,46.8296729 47.7958613,48 46.3102784,48 Z" id="Path" fill="#ECF0F1"></path>
                    <path d="M49,10 L1,10 L1,3.43749451 C1,2.09126066 2.20413631,1 3.68961922,1 L46.3102838,1 C47.7957667,1 48.999903,2.09126066 48.999903,3.43749451 L49,10 Z" id="Path" fill="#687492"></path>
                    <rect id="Rectangle" fill="#E64C3C" x="5" y="5" width="3" height="3"></rect>
                    <rect id="Rectangle" fill="#F0C419" x="10" y="5" width="3" height="3"></rect>
                    <rect id="Rectangle" fill="#24AE5F" x="18" y="5" width="3" height="3"></rect>
                    <rect id="Rectangle" fill="#26B99A" x="5" y="16" width="40" height="15"></rect>
                    <g id="Group" transform="translate(17.000000, 18.000000)" fill="#FFFFFF">
                        <path d="M0.868888889,8.96210526 C0.662527778,8.96210526 0.456261111,8.88290526 0.299105556,8.72526316 C-0.0160555556,8.40912632 -0.0160555556,7.89821053 0.299105556,7.58216842 L3.52277778,4.34842105 C3.83708889,4.03228421 4.34803333,4.03228421 4.66234444,4.34842105 C4.97750556,4.66455789 4.97750556,5.17547368 4.66234444,5.49151579 L1.43867222,8.72526316 C1.28151667,8.88290526 1.07525,8.96210526 0.868888889,8.96210526 Z" id="Path"></path>
                        <path d="M7.31632778,8.96210526 C7.10996667,8.96210526 6.9037,8.88290526 6.74654444,8.72526316 L3.52277778,5.49151579 C3.20761667,5.17537895 3.20761667,4.66446316 3.52277778,4.34842105 C3.83708889,4.03228421 4.34803333,4.03228421 4.66234444,4.34842105 L7.88601667,7.58207368 C8.20117778,7.89821053 8.20117778,8.40912632 7.88601667,8.72516842 C7.72895556,8.88290526 7.52259444,8.96210526 7.31632778,8.96210526 Z" id="Path"></path>
                        <path d="M5.70444444,7.34523158 C5.49808333,7.34523158 5.29181667,7.26603158 5.13466111,7.10838947 C4.8195,6.79225263 4.8195,6.28133684 5.13466111,5.96529474 L8.35833333,2.73164211 C8.67264444,2.41550526 9.18358889,2.41550526 9.4979,2.73164211 C9.81306111,3.04777895 9.81306111,3.55869474 9.4979,3.87473684 L6.27422778,7.10838947 C6.11707222,7.26603158 5.91080556,7.34523158 5.70444444,7.34523158 Z" id="Path"></path>
                        <path d="M12.1518833,7.34523158 C11.9455222,7.34523158 11.7392556,7.26603158 11.5821,7.10838947 L8.35833333,3.87473684 C8.04317222,3.5586 8.04317222,3.04768421 8.35833333,2.73164211 C8.67264444,2.41550526 9.18358889,2.41550526 9.4979,2.73164211 L12.7215722,5.96529474 C13.0367333,6.28143158 13.0367333,6.79234737 12.7215722,7.10838947 C12.5645111,7.26603158 12.35815,7.34523158 12.1518833,7.34523158 Z" id="Path"></path>
                        <path d="M16.1629389,3.30318947 L14.5881722,3.30318947 C14.1328556,3.30318947 13.7636722,2.93295789 13.7636722,2.47613684 L13.7636722,0.896494737 C13.7636722,0.439768421 14.1327611,0.0694421053 14.5881722,0.0694421053 L16.1629389,0.0694421053 C16.6182556,0.0694421053 16.9874389,0.439673684 16.9874389,0.896494737 L16.9874389,2.47613684 C16.9874389,2.93286316 16.6182556,3.30318947 16.1629389,3.30318947 Z" id="Path"></path>
                    </g>
                    <g id="Group" transform="translate(4.000000, 33.000000)" fill="#BDC3C7">
                        <path d="M30.3093458,1.77847934 L0.881308411,1.77847934 C0.430116822,1.77847934 0.0638948598,1.4002314 0.0638948598,0.932231405 C0.0638948598,0.464231405 0.430116822,0.0859834711 0.881308411,0.0859834711 L30.3093458,0.0859834711 C30.7605374,0.0859834711 31.1267593,0.464231405 31.1267593,0.932231405 C31.1267593,1.4002314 30.7605374,1.77847934 30.3093458,1.77847934 Z" id="Path"></path>
                        <path d="M40.1186916,1.77847934 L34.3966051,1.77847934 C33.9454136,1.77847934 33.5791916,1.4002314 33.5791916,0.932231405 C33.5791916,0.464231405 33.9454136,0.0859834711 34.3966051,0.0859834711 L40.1186916,0.0859834711 C40.5698832,0.0859834711 40.9361051,0.464231405 40.9361051,0.932231405 C40.9361051,1.4002314 40.5698832,1.77847934 40.1186916,1.77847934 Z" id="Path"></path>
                        <path d="M40.1186916,5.16366942 L10.6906542,5.16366942 C10.2394626,5.16366942 9.87324065,4.78542149 9.87324065,4.31742149 C9.87324065,3.84942149 10.2394626,3.47107438 10.6906542,3.47107438 L40.1186916,3.47107438 C40.5698832,3.47107438 40.9361051,3.84932231 40.9361051,4.31732231 C40.9361051,4.78532231 40.5698832,5.16366942 40.1186916,5.16366942 Z" id="Path"></path>
                        <path d="M6.60339486,5.16366942 L0.881308411,5.16366942 C0.430116822,5.16366942 0.0638948598,4.78542149 0.0638948598,4.31742149 C0.0638948598,3.84942149 0.430116822,3.47107438 0.881308411,3.47107438 L6.60339486,3.47107438 C7.05458645,3.47107438 7.42080841,3.84932231 7.42080841,4.31732231 C7.42080841,4.78532231 7.05468224,5.16366942 6.60339486,5.16366942 Z" id="Path"></path>
                        <path d="M30.3093458,8.54876033 L0.881308411,8.54876033 C0.430116822,8.54876033 0.0638948598,8.1705124 0.0638948598,7.7025124 C0.0638948598,7.2345124 0.430116822,6.85626446 0.881308411,6.85626446 L30.3093458,6.85626446 C30.7605374,6.85626446 31.1267593,7.2345124 31.1267593,7.7025124 C31.1267593,8.1705124 30.7605374,8.54876033 30.3093458,8.54876033 Z" id="Path"></path>
                        <path d="M40.1186916,8.54876033 L34.3966051,8.54876033 C33.9454136,8.54876033 33.5791916,8.1705124 33.5791916,7.7025124 C33.5791916,7.2345124 33.9454136,6.85626446 34.3966051,6.85626446 L40.1186916,6.85626446 C40.5698832,6.85626446 40.9361051,7.2345124 40.9361051,7.7025124 C40.9361051,8.1705124 40.5698832,8.54876033 40.1186916,8.54876033 Z" id="Path"></path>
                        <path d="M40.1186916,11.9338512 L10.6906542,11.9338512 C10.2394626,11.9338512 9.87324065,11.5556033 9.87324065,11.0876033 C9.87324065,10.6196033 10.2394626,10.2413554 10.6906542,10.2413554 L40.1186916,10.2413554 C40.5698832,10.2413554 40.9361051,10.6196033 40.9361051,11.0876033 C40.9361051,11.5556033 40.5698832,11.9338512 40.1186916,11.9338512 Z" id="Path"></path>
                        <path d="M6.60339486,11.9338512 L0.881308411,11.9338512 C0.430116822,11.9338512 0.0638948598,11.5556033 0.0638948598,11.0876033 C0.0638948598,10.6196033 0.430116822,10.2413554 0.881308411,10.2413554 L6.60339486,10.2413554 C7.05458645,10.2413554 7.42080841,10.6196033 7.42080841,11.0876033 C7.42090421,11.5556033 7.05468224,11.9338512 6.60339486,11.9338512 Z" id="Path"></path>
                    </g>
                    <g id="Group" fill="#611C90">
                        <path d="M44.1,31.0333652 L4.9,31.0333652 C4.44923828,31.0333652 4.08336523,30.6683535 4.08336523,30.2167305 L4.08336523,14.7 C4.08336523,14.2492383 4.44923828,13.8833652 4.9,13.8833652 L44.1,13.8833652 C44.551623,13.8833652 44.9166348,14.2492383 44.9166348,14.7 L44.9166348,30.2166348 C44.9166348,30.6682578 44.551623,31.0333652 44.1,31.0333652 Z M5.71663477,29.4 L43.2832695,29.4 L43.2832695,15.5166348 L5.71663477,15.5166348 L5.71663477,29.4 Z" id="Shape" fill-rule="nonzero"></path>
                        <path d="M17.15,26.95 C16.9408887,26.95 16.731873,26.8699922 16.572623,26.7107422 C16.2532617,26.3913809 16.2532617,25.8752539 16.572623,25.5559883 L19.8392578,22.2892578 C20.1586191,21.9698965 20.6747461,21.9698965 20.9940117,22.2892578 C21.313373,22.6086191 21.313373,23.1247461 20.9940117,23.4440117 L17.727377,26.7107422 C17.568127,26.8699922 17.3591113,26.95 17.15,26.95 Z" id="Path"></path>
                        <path d="M23.6833652,26.95 C23.4742539,26.95 23.2652383,26.8699922 23.1059883,26.7107422 L19.8392578,23.4440117 C19.5198965,23.1246504 19.5198965,22.6085234 19.8392578,22.2892578 C20.1586191,21.9698965 20.6747461,21.9698965 20.9940117,22.2892578 L24.2606465,25.5558926 C24.5800078,25.8752539 24.5800078,26.3913809 24.2606465,26.7106465 C24.1014922,26.8699922 23.8923809,26.95 23.6833652,26.95 Z" id="Path"></path>
                        <path d="M22.05,25.3166348 C21.8408887,25.3166348 21.631873,25.236627 21.472623,25.077377 C21.1532617,24.7580156 21.1532617,24.2418887 21.472623,23.922623 L24.7392578,20.6559883 C25.0586191,20.336627 25.5747461,20.336627 25.8940117,20.6559883 C26.213373,20.9753496 26.213373,21.4914766 25.8940117,21.8107422 L22.627377,25.077377 C22.468127,25.236627 22.2591113,25.3166348 22.05,25.3166348 Z" id="Path"></path>
                        <path d="M28.5833652,25.3166348 C28.3742539,25.3166348 28.1652383,25.236627 28.0059883,25.077377 L24.7392578,21.8107422 C24.4198965,21.4913809 24.4198965,20.9752539 24.7392578,20.6559883 C25.0586191,20.336627 25.5747461,20.336627 25.8940117,20.6559883 L29.1606465,23.922623 C29.4800078,24.2419844 29.4800078,24.7581113 29.1606465,25.077377 C29.0014922,25.236627 28.7923809,25.3166348 28.5833652,25.3166348 Z" id="Path"></path>
                        <path d="M45.325,49 L3.675,49 C1.64886914,49 0,47.3511309 0,45.325 L0,3.675 C0,1.64886914 1.64886914,0 3.675,0 L45.325,0 C47.3511309,0 49,1.64886914 49,3.675 L49,45.325 C49,47.3511309 47.3511309,49 45.325,49 Z M3.675,1.63336523 C2.54962695,1.63336523 1.63336523,2.54962695 1.63336523,3.675 L1.63336523,45.325 C1.63336523,46.4511387 2.54962695,47.3666348 3.675,47.3666348 L45.325,47.3666348 C46.4511387,47.3666348 47.3666348,46.4511387 47.3666348,45.325 L47.3666348,3.675 C47.3666348,2.54962695 46.4511387,1.63336523 45.325,1.63336523 L3.675,1.63336523 Z" id="Shape" fill-rule="nonzero"></path>
                        <path d="M7.35,8.16663477 L4.08336523,8.16663477 C3.63260352,8.16663477 3.26673047,7.80076172 3.26673047,7.35 L3.26673047,4.08336523 C3.26673047,3.63260352 3.63260352,3.26673047 4.08336523,3.26673047 L7.35,3.26673047 C7.80076172,3.26673047 8.16663477,3.63260352 8.16663477,4.08336523 L8.16663477,7.35 C8.16663477,7.80076172 7.80076172,8.16663477 7.35,8.16663477 Z M4.9,6.53336523 L6.53336523,6.53336523 L6.53336523,4.9 L4.9,4.9 L4.9,6.53336523 Z" id="Shape" fill-rule="nonzero"></path>
                        <path d="M13.8833652,8.16663477 L10.6167305,8.16663477 C10.1659687,8.16663477 9.8000957,7.80076172 9.8000957,7.35 L9.8000957,4.08336523 C9.8000957,3.63260352 10.1659687,3.26673047 10.6167305,3.26673047 L13.8833652,3.26673047 C14.334127,3.26673047 14.7,3.63260352 14.7,4.08336523 L14.7,7.35 C14.7,7.80076172 14.334127,8.16663477 13.8833652,8.16663477 Z M11.4333652,6.53336523 L13.0667305,6.53336523 L13.0667305,4.9 L11.4333652,4.9 L11.4333652,6.53336523 Z" id="Shape" fill-rule="nonzero"></path>
                        <path d="M20.4166348,8.16663477 L17.15,8.16663477 C16.6992383,8.16663477 16.3333652,7.80076172 16.3333652,7.35 L16.3333652,4.08336523 C16.3333652,3.63260352 16.6992383,3.26673047 17.15,3.26673047 L20.4166348,3.26673047 C20.8673965,3.26673047 21.2332695,3.63260352 21.2332695,4.08336523 L21.2332695,7.35 C21.2333652,7.80076172 20.8674922,8.16663477 20.4166348,8.16663477 Z M17.9666348,6.53336523 L19.6,6.53336523 L19.6,4.9 L17.9666348,4.9 L17.9666348,6.53336523 Z" id="Shape" fill-rule="nonzero"></path>
                        <path d="M32.647877,22.05 L31.0528887,22.05 C30.1406465,22.05 29.4,21.3084922 29.4,20.397877 L29.4,18.802123 C29.4,17.8915078 30.1407422,17.15 31.052123,17.15 L32.6471113,17.15 C33.5593535,17.15 34.3,17.8915078 34.3,18.802123 L34.3,20.397877 C34.3,21.3084922 33.5592578,22.05 32.647877,22.05 Z M31.052123,18.7833652 L31.0333652,20.397877 L32.647877,20.4166348 C32.6576387,20.4166348 32.6666348,20.4085 32.6666348,20.397877 L32.6666348,18.802123 L31.052123,18.7833652 Z" id="Shape" fill-rule="nonzero"></path>
                        <path d="M48.1833652,11.4333652 L0.816634766,11.4333652 C0.365873047,11.4333652 0,11.0674922 0,10.6167305 L0,3.675 C0,1.64886914 1.64886914,0 3.675,0 L45.325,0 C47.3511309,0 49,1.64886914 49,3.675 L49,10.6166348 C49,11.0674922 48.6349883,11.4333652 48.1833652,11.4333652 Z M1.63336523,9.8 L47.3667305,9.8 L47.3667305,3.675 C47.3667305,2.54962695 46.4512344,1.63336523 45.3250957,1.63336523 L3.675,1.63336523 C2.54962695,1.63336523 1.63336523,2.54962695 1.63336523,3.675 L1.63336523,9.8 Z" id="Shape" fill-rule="nonzero"></path>
                        <path d="M34.3,35.1166348 L4.9,35.1166348 C4.44923828,35.1166348 4.08336523,34.751623 4.08336523,34.3 C4.08336523,33.848377 4.44923828,33.4833652 4.9,33.4833652 L34.3,33.4833652 C34.751623,33.4833652 35.1166348,33.848377 35.1166348,34.3 C35.1166348,34.751623 34.751623,35.1166348 34.3,35.1166348 Z" id="Path"></path>
                        <path d="M44.1,35.1166348 L38.3833652,35.1166348 C37.9317422,35.1166348 37.5667305,34.751623 37.5667305,34.3 C37.5667305,33.848377 37.9317422,33.4833652 38.3833652,33.4833652 L44.1,33.4833652 C44.551623,33.4833652 44.9166348,33.848377 44.9166348,34.3 C44.9166348,34.751623 44.551623,35.1166348 44.1,35.1166348 Z" id="Path"></path>
                        <path d="M44.1,38.3833652 L14.7,38.3833652 C14.2492383,38.3833652 13.8833652,38.0183535 13.8833652,37.5667305 C13.8833652,37.1151074 14.2492383,36.75 14.7,36.75 L44.1,36.75 C44.551623,36.75 44.9166348,37.1150117 44.9166348,37.5666348 C44.9166348,38.0182578 44.551623,38.3833652 44.1,38.3833652 Z" id="Path"></path>
                        <path d="M10.6166348,38.3833652 L4.9,38.3833652 C4.44923828,38.3833652 4.08336523,38.0183535 4.08336523,37.5667305 C4.08336523,37.1151074 4.44923828,36.75 4.9,36.75 L10.6166348,36.75 C11.0673965,36.75 11.4332695,37.1150117 11.4332695,37.5666348 C11.4332695,38.0182578 11.0674922,38.3833652 10.6166348,38.3833652 Z" id="Path"></path>
                        <path d="M34.3,41.65 L4.9,41.65 C4.44923828,41.65 4.08336523,41.2849883 4.08336523,40.8333652 C4.08336523,40.3817422 4.44923828,40.0167305 4.9,40.0167305 L34.3,40.0167305 C34.751623,40.0167305 35.1166348,40.3817422 35.1166348,40.8333652 C35.1166348,41.2849883 34.751623,41.65 34.3,41.65 Z" id="Path"></path>
                        <path d="M44.1,41.65 L38.3833652,41.65 C37.9317422,41.65 37.5667305,41.2849883 37.5667305,40.8333652 C37.5667305,40.3817422 37.9317422,40.0167305 38.3833652,40.0167305 L44.1,40.0167305 C44.551623,40.0167305 44.9166348,40.3817422 44.9166348,40.8333652 C44.9166348,41.2849883 44.551623,41.65 44.1,41.65 Z" id="Path"></path>
                        <path d="M44.1,44.9166348 L14.7,44.9166348 C14.2492383,44.9166348 13.8833652,44.551623 13.8833652,44.1 C13.8833652,43.648377 14.2492383,43.2833652 14.7,43.2833652 L44.1,43.2833652 C44.551623,43.2833652 44.9166348,43.648377 44.9166348,44.1 C44.9166348,44.551623 44.551623,44.9166348 44.1,44.9166348 Z" id="Path"></path>
                        <path d="M10.6166348,44.9166348 L4.9,44.9166348 C4.44923828,44.9166348 4.08336523,44.551623 4.08336523,44.1 C4.08336523,43.648377 4.44923828,43.2833652 4.9,43.2833652 L10.6166348,43.2833652 C11.0673965,43.2833652 11.4332695,43.648377 11.4332695,44.1 C11.4333652,44.551623 11.0674922,44.9166348 10.6166348,44.9166348 Z" id="Path"></path>
                    </g>
                </g>
            </g>
        </g>
    </g>
</svg>