<?xml version="1.0" encoding="UTF-8"?>
<svg width="282px" height="242px" viewBox="0 0 282 242" version="1.1" xmlns="http://www.w3.org/2000/svg" xmlns:xlink="http://www.w3.org/1999/xlink">
    <!-- Generator: Sketch 52.3 (67297) - http://www.bohemiancoding.com/sketch -->
    <title>Artboard</title>
    <desc>Created with Sketch.</desc>
    <g id="Artboard" stroke="none" stroke-width="1" fill="none" fill-rule="evenodd">
        <g id="noun_worklife_2133993" transform="translate(24.000000, 4.000000)" fill="#111D5E">
            <path d="M65.4565957,231.158723 C70.4461181,231.405276 74.9531123,228.196379 76.352766,223.400851 L54.5102128,223.400851 C55.9220894,228.209781 60.4514964,231.419842 65.4565957,231.158723 Z" id="Path"></path>
            <path d="M122.849787,231.158723 C127.852183,231.410535 132.376407,228.204147 133.79617,223.400851 L111.978723,223.400851 C113.376206,228.186887 117.869421,231.393362 122.849787,231.158723 Z" id="Path"></path>
            <path d="M163.92383,223.400851 L142.106383,223.400851 C143.73367,228.038658 148.112651,231.1429 153.02766,231.1429 C157.942668,231.1429 162.32165,228.038658 163.948936,223.400851 L163.92383,223.400851 Z" id="Path"></path>
            <path d="M59.2553191,133.068085 L59.2553191,91.1153191 C59.2690233,88.8747488 61.0819829,87.0617893 63.3225532,87.0480851 L124.933617,87.0480851 C127.170078,87.0618907 128.975787,88.878816 128.975745,91.1153191 L128.975745,133.068085 C128.983843,133.604745 128.872351,134.136475 128.649362,134.624681 L141.955745,134.624681 C142.282128,107.735745 135.227234,86.9225532 120.916596,72.7123404 C120.665532,72.4110638 120.339149,72.1097872 120.012766,71.7834043 C118.535272,70.4245921 116.678477,69.5487455 114.690213,69.272766 C101.067634,67.3321151 87.2387494,67.3321151 73.6161702,69.272766 C71.6222136,69.5545509 69.759025,70.4292873 68.2685106,71.7834043 L67.3646809,72.7123404 C53.0791489,86.9476596 46.0242553,107.861277 46.3506383,134.624681 L59.6319149,134.624681 C59.3915937,134.140494 59.2629047,133.608579 59.2553191,133.068085 Z" id="Path"></path>
            <path d="M94.1531915,64.2765957 C104.438031,64.2905744 113.21794,56.8499739 114.891064,46.7021277 C115.072263,45.5729442 115.164603,44.4312861 115.167234,43.2876596 C115.218211,35.2079881 110.637647,27.8128971 103.381106,24.2595466 C96.1245646,20.7061961 87.4741601,21.6224057 81.1229787,26.6170213 C79.7975377,27.6871051 78.5935874,28.8994747 77.532766,30.2323404 C72.5651151,36.5815125 71.6569274,45.2090902 75.1936428,52.4534802 C78.7303583,59.6978701 86.0915909,64.2883119 94.1531915,64.2765957 Z M93.9021277,55.0876596 L109.618723,47.1038298 C110.069182,51.71374 107.647585,56.1284211 103.517872,58.2259574 C102.71428,58.6190546 101.873161,58.9302686 101.007234,59.1548936 C100.184083,59.3479197 99.3420457,59.4489641 98.4965957,59.4561702 C95.7177895,59.4697655 93.0332008,58.4496218 90.9646809,56.5940426 L93.9021277,55.0876596 Z" id="Shape" fill-rule="nonzero"></path>
            <path d="M177.581702,42.8357447 C186.093521,42.845902 193.77286,37.7263229 197.037233,29.8653411 C200.301605,22.0043594 198.507787,12.9509315 192.492612,6.92857024 C186.477438,0.906208967 177.426158,-0.898417699 169.561284,2.35656626 C161.69641,5.61155022 156.567666,13.2847709 156.56766,21.7965957 C156.567651,33.4063993 165.971907,42.8218905 177.581702,42.8357447 Z M162.191489,25.6629787 L180.870638,35.1280851 C177.424617,38.2340134 172.422706,38.8994713 168.284494,36.8025549 C164.146283,34.7056385 161.724837,30.278614 162.191489,25.6629787 Z" id="Shape" fill-rule="nonzero"></path>
            <path d="M63.372766,89.533617 C62.5130819,89.533617 61.8161702,90.2305287 61.8161702,91.0902128 L61.8161702,133.042979 C61.8161702,133.902663 62.5130819,134.599574 63.372766,134.599574 L124.933617,134.599574 C125.344181,134.59963 125.737575,134.434835 126.025518,134.142172 C126.31346,133.849509 126.471837,133.453487 126.465106,133.042979 L126.465106,91.0902128 C126.471837,90.6797041 126.31346,90.2836827 126.025518,89.9910196 C125.737575,89.6983566 125.344181,89.5335618 124.933617,89.533617 L63.372766,89.533617 Z M94.1531915,119.837021 C90.0479129,120.068578 86.4750305,117.056885 86.0085251,112.971631 C85.5420197,108.886377 88.3439497,105.146728 92.3957447,104.446809 C92.9709526,104.30717 93.56131,104.239701 94.1531915,104.245957 C95.9959766,104.24088 97.7787866,104.900519 99.1744681,106.10383 C97.3301,107.343078 96.3384089,109.513466 96.6087972,111.718986 C96.8791855,113.924507 98.3657907,115.791065 100.454894,116.548085 C99.0154294,118.605393 96.6640781,119.832592 94.1531915,119.837021 Z" id="Shape" fill-rule="nonzero"></path>
            <path d="M9.49446809,130.331489 C8.75957685,130.331489 8.16382979,130.927236 8.16382979,131.662128 L8.16382979,133.319149 C8.16376494,133.669792 8.30475269,134.005721 8.55504458,134.25129 C8.80533647,134.49686 9.14389015,134.631424 9.49446809,134.624681 L39.6221277,134.624681 C39.9727056,134.631424 40.3112593,134.49686 40.5615512,134.25129 C40.8118431,134.005721 40.9528308,133.669792 40.952766,133.319149 L40.952766,131.662128 C40.952766,130.927236 40.3570189,130.331489 39.6221277,130.331489 L9.49446809,130.331489 Z" id="Path"></path>
            <rect id="Rectangle" x="10.2476596" y="125.184681" width="32.8893617" height="4.29319149" rx="0.53"></rect>
            <rect id="Rectangle" x="8.16382979" y="120.062979" width="32.8893617" height="4.29319149" rx="0.53"></rect>
            <rect id="Rectangle" x="10.2476596" y="114.891064" width="32.8893617" height="4.29319149" rx="0.53"></rect>
            <path d="M204.87234,57.6987234 C203.792766,56.5438298 202.51234,55.1880851 200.955745,53.6565957 C200.679574,53.3302128 200.328085,53.0038298 200.001702,52.6774468 C198.437487,51.3008067 196.495615,50.4260894 194.428085,50.1668085 C182.019348,48.1931551 169.385479,48.0831482 156.944255,49.8404255 C156.367415,49.7144487 155.776673,49.6638136 155.186809,49.6897872 L122.021277,50.267234 C120.966809,49.8153191 119.309787,48.9868085 117.225957,47.7565957 C116.049584,53.7748408 112.538219,59.0825079 107.459574,62.5191489 C116.698723,67.4148936 118.908085,67.766383 120.54,67.766383 L120.941702,67.766383 L147.002128,67.3144681 L146.876596,134.574468 L188.201702,134.574468 L188.201702,145.420426 L177.682128,145.420426 L177.682128,223.250213 C177.682128,228.798723 182.904255,233.292766 189.331489,233.292766 C195.758723,233.292766 201.005957,228.798723 201.005957,223.250213 L201.005957,127.845957 L229.526809,97.2914894 C231.969198,94.6775454 233.246604,91.1845529 233.066776,87.6116502 C232.886947,84.0387476 231.265274,80.691669 228.572766,78.3361702 L204.87234,57.6987234 Z M173.614894,125.008936 L163.748085,112.882553 L169.171064,66.1344681 C167.628835,64.4399882 166.78561,62.2242796 166.811064,59.9331915 C166.253132,57.1804081 167.412133,54.3631162 169.745642,52.799838 C172.079152,51.2365598 175.125529,51.2365598 177.459039,52.799838 C179.792548,54.3631162 180.951549,57.1804081 180.393617,59.9331915 C180.425216,62.0931088 179.686462,64.1936632 178.309787,65.8582979 L183.98383,112.882553 L173.614894,125.008936 Z M201.005957,101.93617 L201.005957,77.6080851 L213.559149,88.6046809 L201.005957,101.93617 Z" id="Shape" fill-rule="nonzero"></path>
            <polygon id="Path" points="14.5157447 233.242553 20.3153191 233.242553 20.3153191 220.890213 54.2842553 220.890213 76.5285106 220.890213 111.752766 220.890213 133.997021 220.890213 162.944681 220.890213 166.308936 220.890213 166.308936 230.55617 166.308936 233.242553 172.083404 233.242553 172.083404 142.96 177.682128 142.96 185.691064 142.96 185.691064 137.135319 146.876596 137.135319 141.880426 137.135319 126.665957 137.135319 120.891489 137.135319 67.3646809 137.135319 61.5902128 137.135319 46.4008511 137.135319 0.933191489 137.135319 0.933191489 142.96 14.5157447 142.96"></polygon>
        </g>
    </g>
</svg>