<?xml version="1.0" encoding="UTF-8"?>
<svg width="124px" height="93px" viewBox="0 0 124 93" version="1.1" xmlns="http://www.w3.org/2000/svg" xmlns:xlink="http://www.w3.org/1999/xlink">
    <!-- Generator: Sketch 52.3 (67297) - http://www.bohemiancoding.com/sketch -->
    <title>Artboard</title>
    <desc>Created with Sketch.</desc>
    <g id="Artboard" stroke="none" stroke-width="1" fill="none" fill-rule="evenodd">
        <g id="noun_Content-marketing_1211569" fill="#FFFFFF" fill-rule="nonzero">
            <path d="M20.0803783,61.9511811 C24.4775414,61.9511811 27.9952719,58.4362205 27.9952719,54.0425197 C27.9952719,49.6488189 24.4775414,46.1338583 20.0803783,46.1338583 C15.6832151,46.1338583 12.1654846,49.6488189 12.1654846,54.0425197 C12.1654846,58.4362205 15.6832151,61.9511811 20.0803783,61.9511811 C20.0803783,61.9511811 20.0803783,61.9511811 20.0803783,61.9511811 Z M20.0803783,48.623622 C23.0118203,48.623622 25.5035461,51.1133858 25.5035461,54.0425197 C25.5035461,56.9716535 23.0118203,59.4614173 20.0803783,59.4614173 C17.1489362,59.4614173 14.6572104,56.9716535 14.6572104,54.0425197 C14.6572104,51.1133858 17.0023641,48.7700787 20.0803783,48.623622 Z M84.1323877,16.1102362 L38.9881797,16.1102362 L38.9881797,13.6204724 L83.9858156,13.6204724 L83.9858156,16.1102362 L84.1323877,16.1102362 Z M96.5910165,50.3811024 L96.5910165,38.5181102 L120.189125,29.7307087 L114.472813,14.2062992 L96.7375887,20.7968504 L96.7375887,0 L26.6761229,0 L26.6761229,35.1496063 L0,35.1496063 L0,93 L124,93 L124,50.3811024 L96.5910165,50.3811024 Z M114.472813,53.896063 L104.945626,64.0015748 L91.4609929,64.0015748 L100.98818,53.896063 L114.472813,53.896063 Z M97.6170213,53.896063 L88.0898345,64.0015748 L74.6052009,64.0015748 L84.1323877,53.896063 L97.6170213,53.896063 Z M66.3971631,49.6488189 L93.2198582,39.6897638 L93.2198582,50.3811024 L66.3971631,50.3811024 L66.3971631,49.6488189 Z M81.4940898,40.4220472 L69.7683215,34.5637795 L82.3735225,29.8771654 L94.0992908,35.7354331 L81.4940898,40.4220472 Z M78.4160757,41.5937008 L66.3971631,45.9874016 L66.3971631,35.7354331 L66.6903073,35.5889764 L78.4160757,41.5937008 Z M66.3971631,53.896063 L80.9078014,53.896063 L71.3806147,64.0015748 L66.3971631,64.0015748 L66.3971631,53.896063 Z M112.274232,18.7464567 L115.64539,27.8267717 L113.007092,28.8519685 L101.281324,22.9937008 L112.274232,18.7464567 Z M98.2033097,24.0188976 L109.929078,29.8771654 L97.177305,34.5637795 L85.4515366,28.7055118 L98.2033097,24.0188976 Z M30.0472813,3.51496063 L93.0732861,3.51496063 L93.0732861,22.1149606 L82.8132388,25.9228346 L38.9881797,25.9228346 L38.9881797,28.4125984 L76.2174941,28.4125984 L57.749409,35.296063 L30.0472813,35.296063 L30.0472813,3.51496063 Z M62.8794326,38.6645669 L62.8794326,69.4204724 L46.7565012,53.3102362 L24.7706856,75.2787402 L16.5626478,67.223622 L3.37115839,80.4047244 L3.37115839,38.6645669 L62.8794326,38.6645669 Z M3.37115839,89.6314961 L3.37115839,83.919685 L16.5626478,70.7385827 L24.7706856,78.9401575 L46.7565012,56.9716535 L62.8794326,73.0818898 L62.8794326,89.6314961 L3.37115839,89.6314961 Z M120.628842,89.6314961 L66.3971631,89.6314961 L66.3971631,66.4913386 L120.628842,66.4913386 L120.628842,89.6314961 Z M120.628842,64.0015748 L108.316785,64.0015748 L117.6974,53.896063 L120.628842,53.896063 L120.628842,64.0015748 Z" id="Shape"></path>
        </g>
    </g>
</svg>