<?xml version="1.0" encoding="UTF-8"?>
<svg width="93px" height="93px" viewBox="0 0 93 93" version="1.1" xmlns="http://www.w3.org/2000/svg" xmlns:xlink="http://www.w3.org/1999/xlink">
    <!-- Generator: Sketch 52.3 (67297) - http://www.bohemiancoding.com/sketch -->
    <title>Group 3</title>
    <desc>Created with Sketch.</desc>
    <defs>
        <filter x="-9.4%" y="-9.4%" width="118.8%" height="118.8%" filterUnits="objectBoundingBox" id="filter-1">
            <feOffset dx="0" dy="0" in="SourceAlpha" result="shadowOffsetOuter1"></feOffset>
            <feGaussianBlur stdDeviation="2" in="shadowOffsetOuter1" result="shadowBlurOuter1"></feGaussianBlur>
            <feColorMatrix values="0 0 0 0 0   0 0 0 0 0   0 0 0 0 0  0 0 0 0.5 0" type="matrix" in="shadowBlurOuter1" result="shadowMatrixOuter1"></feColorMatrix>
            <feMerge>
                <feMergeNode in="shadowMatrixOuter1"></feMergeNode>
                <feMergeNode in="SourceGraphic"></feMergeNode>
            </feMerge>
        </filter>
        <circle id="path-2" cx="42.5" cy="42.5" r="42.5"></circle>
        <filter x="-14.8%" y="-12.1%" width="129.6%" height="124.2%" filterUnits="objectBoundingBox" id="filter-4">
            <feOffset dx="0" dy="0" in="SourceAlpha" result="shadowOffsetOuter1"></feOffset>
            <feGaussianBlur stdDeviation="2" in="shadowOffsetOuter1" result="shadowBlurOuter1"></feGaussianBlur>
            <feColorMatrix values="0 0 0 0 0   0 0 0 0 0   0 0 0 0 0  0 0 0 0.5 0" type="matrix" in="shadowBlurOuter1" result="shadowMatrixOuter1"></feColorMatrix>
            <feMerge>
                <feMergeNode in="shadowMatrixOuter1"></feMergeNode>
                <feMergeNode in="SourceGraphic"></feMergeNode>
            </feMerge>
        </filter>
    </defs>
    <g id="Page-1" stroke="none" stroke-width="1" fill="none" fill-rule="evenodd">
        <g id="Artboard" transform="translate(-84.000000, -92.000000)">
            <g id="Group-3" filter="url(#filter-1)" transform="translate(88.000000, 96.000000)">
                <mask id="mask-3" fill="white">
                    <use xlink:href="#path-2"></use>
                </mask>
                <use id="Mask" fill="#FFFFFF" xlink:href="#path-2"></use>
                <g id="call-center" filter="url(#filter-4)" mask="url(#mask-3)">
                    <g transform="translate(13.000000, 9.000000)">
                        <path d="M6,18 L6,47.1955356 C6,54.2672548 11.8070556,60 18.9704416,60 L40.0295584,60 C47.1929444,60 53,54.2672548 53,47.1955356 L53,18 L6,18 Z" id="Path" fill="#FFAA00" fill-rule="evenodd"></path>
                        <path d="M52,18 L52,47.1948552 C52,54.2667665 46.3702888,60 39.4278511,60 L34,60 C40.9424377,60 46.5721489,54.2667665 46.5721489,47.1948552 L46.5721489,18 L52,18 Z" id="Path" fill="#FF9500" fill-rule="evenodd"></path>
                        <path d="M34.2844254,52 L23.7155746,52 C16.1406763,52 10,45.7592087 10,38.0608125 L10,20 L48,20 L48,38.0606818 C48,45.759078 41.8593237,52 34.2844254,52 Z" id="Path" fill="#FFDFCF" fill-rule="evenodd"></path>
                        <path d="M48,20 L48,38.0604877 C48,45.7600503 41.9028974,52 34.3833035,52 L29,52 C36.5212536,52 42.6166965,45.7600503 42.6166965,38.0604877 L42.6166965,20 L48,20 Z" id="Path" fill="#FFCEBF" fill-rule="evenodd"></path>
                        <circle id="Oval" fill="#FF9A9A" fill-rule="evenodd" cx="18" cy="41" r="2"></circle>
                        <circle id="Oval" fill="#FF9A9A" fill-rule="evenodd" cx="40" cy="41" r="2"></circle>
                        <path d="M38,65 L38,59.3732796 C38,57.4945408 37.072455,55.6966491 35.5391988,54.5976298 C34.7645415,54.042383 33.8570365,53.678637 32.9110441,53.5462219 C31.6843595,53.3746361 31.6680356,53.4115647 31.6680356,52.1350246 C31.6680356,52.1315956 31.6680356,51 31.6680356,51 L26.3319644,51 L26.3319644,52.1350246 C26.3319644,53.4115647 26.3156405,53.3745042 25.0889559,53.5462219 C24.1429635,53.678637 23.2355912,54.0422511 22.4608012,54.5976298 C20.9276777,55.6965172 20,57.4945408 20,59.3732796 L20,65 L38,65 Z" id="Path" fill="#FFDFCF" fill-rule="evenodd"></path>
                        <path d="M38,59.6930654 L38,65 L20,65 L20,59.6930654 C20,57.9205211 20.9269361,56.2248547 22.4598845,55.1888698 C22.9549406,54.8542397 23.5040149,54.5935019 24.0832172,54.4164838 C24.4101135,54.3163436 24.7474949,54.2423269 25.0889906,54.1966729 C25.5892229,54.1304933 25.8882474,54.0983987 26.0667596,54.0001244 L26.2961046,54.0477688 L26.8742451,54.3541605 C28.1810339,55.0487979 29.7783529,55.0536494 31.0903179,54.3677199 L31.7037627,54.0476444 L31.9331077,54 C32.1116199,54.0982743 32.4105116,54.1303689 32.9108766,54.1965485 C33.2523724,54.2423269 33.5897538,54.3162192 33.9166501,54.4163594 C34.4958524,54.5933775 35.0449267,54.8541153 35.5399827,55.1887454 C37.0731966,56.2248547 38,57.9205211 38,59.6930654 Z" id="Path" fill="#E41D71" fill-rule="evenodd"></path>
                        <path d="M38,59.6934298 L38,65 L20,65 L20,59.6934298 C20,57.9208413 20.926412,56.225376 22.4593718,55.1891892 C22.9544315,54.8545742 23.503908,54.5933507 24.0825837,54.4167138 C24.4104114,54.3172 24.7475299,54.2425647 25.08863,54.1965396 C25.5889987,54.1306118 25.8876272,54.0982698 26.0668043,54 L26.2964165,54.0485129 L26.8737649,54.3545177 C28.1810942,55.048626 29.7790886,55.0536017 31.0903996,54.3682008 L31.7035835,54.0485129 L31.9331957,54 C31.9491225,54.0087075 31.9677039,54.0174149 31.9862852,54.0261224 C32.1681168,54.1044894 32.4574547,54.1368314 32.91137,54.1965396 C33.2524701,54.2425647 33.5895886,54.3172 33.9174163,54.4167138 C34.496092,54.5933507 35.0455685,54.8545742 35.5406282,55.1891892 C37.073588,56.225376 38,57.9208413 38,59.6934298 Z" id="Path" fill="#FF5757" fill-rule="evenodd"></path>
                        <path d="M10,40 L6.38152164,40 C6.17079452,40 6,39.822062 6,39.6025212 L6,26.3974788 C6,26.177938 6.17079452,26 6.38152164,26 L10,26 L10,40 Z" id="Path" fill="#7CA1B1" fill-rule="evenodd"></path>
                        <path d="M6,39 L3.89205073,39 C2.29484998,39 1,37.6670794 1,36.0229185 L1,29.9770815 C1,28.3329206 2.29484998,27 3.89205073,27 L6,27 L6,39 Z" id="Path" fill="#FF5757" fill-rule="evenodd"></path>
                        <circle id="Oval" fill="#7CA1B1" fill-rule="evenodd" cx="21.5" cy="46.5" r="1.5"></circle>
                        <path d="M23,46.500518 C23,47.3287671 22.2047487,48 21.2246788,48 C20.7498979,48 20.3192446,47.8427535 20,47.5853574 C20.9616834,47.5677449 21.7336451,46.9038794 21.7336451,46.0869115 C21.7336451,45.6588005 21.5219957,45.2740877 21.1830027,45.001036 C21.1964861,45 21.2111954,45 21.2245426,45 C22.2047487,45 23,45.6712329 23,46.500518 Z" id="Path" fill="#678D98" fill-rule="evenodd"></path>
                        <path d="M51.7452527,36.5552731 C50.8829518,37.4437072 49.6494356,38 48.2796972,38 L48,38 L48,29 L48.2796972,29 C50.8866442,29 53,31.0147227 53,33.5 C53,34.6794664 52.5240795,35.7528286 51.7452527,36.5552731 Z" id="Path" fill="#FFCEBF" fill-rule="evenodd"></path>
                        <path d="M6,18.4563117 C6,18.4563117 19.7123318,29.9357796 30.6320533,29.8929116 C31.0642261,29.891258 31.3713606,29.47568 31.243238,29.0672254 L30.9534521,28.1442276 C30.7807372,27.5939397 31.3762439,27.118321 31.8832085,27.4018605 C35.2087419,29.2615943 43.7788207,33.5333852 51.4068065,32.9448087 C51.7415701,32.9189861 52,32.6419341 52,32.3094208 L52,18.4563117 C52,8.81546155 44.1044603,1 34.364829,1 L23.635171,1 C13.8955397,1 6,8.81546155 6,18.4563117 Z" id="Path" fill="#FFAA00" fill-rule="evenodd"></path>
                        <path d="M53,18.4559052 L53,32.3094771 C53,32.6416107 52.7342602,32.9187916 52.3896061,32.9447415 C50.6738828,33.0734735 48.9111552,32.9699282 47.1696127,32.7105561 L47.1696127,18.4559052 C47.1696127,13.6353246 45.1359815,9.27128475 41.8480636,6.11251719 C38.5600132,2.95374963 34.0158226,1 29,1 L34.8303873,1 C39.8463423,1 44.3904005,2.95374963 47.6784508,6.11251719 C50.9663688,9.27141196 53,13.6353246 53,18.4559052 Z" id="Path" fill="#FF9500" fill-rule="evenodd"></path>
                        <path d="M30.9199889,44.0046885 L30.9199889,44.1356999 C30.9199889,45.1584729 30.058587,45.9906229 28.9998613,45.9906229 C27.9411357,45.9906229 27.0800111,45.1584729 27.0800111,44.1356999 L27.0800111,44.0046885 C27.0800111,43.4496986 26.6143659,43 26.0400055,43 C25.4656452,43 25,43.4496986 25,44.0046885 L25,44.1356999 C25,46.2664434 26.7943562,48 28.9998613,48 C31.2055051,48 33,46.2665774 33,44.1356999 L33,44.0046885 C33,43.4496986 32.5344935,43 31.9599945,43 C31.3854954,43 30.9199889,43.4496986 30.9199889,44.0046885 Z" id="Path" fill="#000000" fill-rule="evenodd"></path>
                        <path d="M24,36 C23.4477333,36 23,36.4214689 23,36.9416196 L23,39.0583804 C23,39.5785311 23.4477333,40 24,40 C24.5522667,40 25,39.5785311 25,39.0583804 L25,36.9416196 C25,36.4214689 24.5522667,36 24,36 Z" id="Path" fill="#000000" fill-rule="evenodd"></path>
                        <path d="M34,40 C34.5524,40 35,39.5785311 35,39.0583804 L35,36.9416196 C35,36.4214689 34.5524,36 34,36 C33.4476,36 33,36.4214689 33,36.9416196 L33,39.0583804 C33,39.5785311 33.4476,40 34,40 Z" id="Path" fill="#000000" fill-rule="evenodd"></path>
                        <path d="M54,33.6075889 C54,32.5149598 53.6829637,31.4955249 53.1372434,30.6343338 L53.1372434,18.6503362 C53.1372434,8.36655655 44.7629967,0 34.4697646,0 L23.7004622,0 C19.3740389,0 15.1568629,1.51259343 11.8257891,4.25930742 C11.81934,4.2645908 11.81302,4.26987418 11.8068288,4.27528643 L11.1210347,4.87101989 C11.1129089,4.87810735 11.104912,4.88519482 11.0970442,4.89254001 L10.9132457,5.06341229 C10.5219161,5.42680584 10.4997313,6.03826058 10.8634589,6.42923081 C11.2273154,6.82032989 11.8393322,6.84262318 12.2306617,6.47897191 L12.402594,6.3193107 L13.0669772,5.7421335 C16.050704,3.28574776 19.8267636,1.9329444 23.7005912,1.9329444 L34.4697646,1.9329444 C43.6961915,1.9329444 51.2023933,9.43238209 51.2023933,18.6503362 L51.2023933,32.3845505 C43.8927591,32.8284834 35.6766436,28.6896628 32.4545591,26.870891 C31.8753036,26.5440946 31.1668088,26.6022118 30.6490774,27.0193412 C30.1313461,27.4364706 29.9244599,28.1163515 30.1218014,28.7512593 L30.2814804,29.2646494 C20.8152771,29.0234179 9.12607932,19.9372906 6.97363763,18.1981561 C7.05205833,15.27941 7.88914765,12.4383684 9.4064849,9.95440594 L9.67515317,9.52928704 C9.96046003,9.07800895 9.82554548,8.48098686 9.3738526,8.19607085 C8.92215972,7.91102598 8.32458887,8.04581664 8.03941098,8.49709473 L7.76661531,8.92865678 C7.76403568,8.93265153 7.76145606,8.93677515 7.75900541,8.94089876 C6.02988069,11.7694407 5.09373365,15.0125349 5.03840063,18.3384879 C5.01634481,18.4192849 5.00383361,18.5040768 5.00383361,18.5918324 L5.00383361,26.5890677 L3.86170327,26.5890677 C1.73234925,26.5890677 0,28.3198262 0,30.4470959 L0,36.3195099 C0,38.4469085 1.73234925,40.1776669 3.86170327,40.1776669 L5.00383361,40.1776669 L5.00383361,47.6535226 C5.00383361,55.214428 11.160761,61.3655725 18.728616,61.3655725 L19.3710723,61.3655725 L19.3710723,65.0335278 C19.3710723,65.567407 19.8041919,66 20.3384329,66 L37.8319229,66 C38.3662929,66 38.7992834,65.567407 38.7992834,65.0335278 L38.7992834,61.3655725 L39.4417398,61.3655725 C44.8240049,61.3655725 49.7352298,58.1986364 51.953452,53.2974626 C52.1734943,52.8112626 51.9573215,52.2385956 51.4705457,52.0186266 C50.9836409,51.7987863 50.4105765,52.0147607 50.1905342,52.5010895 C48.2848339,56.7118156 44.0655942,59.4326281 39.4417398,59.4326281 L38.7960589,59.4326281 C38.7631686,57.3186312 37.726932,55.3258944 36.0061911,54.0861039 C35.125893,53.4515827 34.0936548,53.0363862 33.0207875,52.8854877 L32.9163126,52.8709262 C32.8269285,52.8584265 32.732772,52.8452824 32.6476443,52.8323961 C32.6451937,52.7137134 32.6451937,52.5782784 32.6451937,52.4638481 L32.6451937,52.32197 L34.3851528,52.32197 C41.9840923,52.32197 48.256587,46.540791 49.0289277,39.149727 C49.8078464,39.0626157 50.5590341,38.8141679 51.2315431,38.4221668 L51.2315431,48.1133057 L51.1796926,48.7600689 C51.1368708,49.292144 51.5340045,49.7579836 52.0665687,49.8006373 C52.599133,49.8439352 53.0654007,49.4466507 53.1080936,48.9145756 L53.1631686,48.2294112 C53.1653613,48.2037675 53.1662642,48.177866 53.1662642,48.1519646 L53.1662642,36.540381 C53.708502,35.6655303 54,34.6542138 54,33.6075889 Z M5.00383361,38.2448513 L3.86170327,38.2448513 C2.79915446,38.2448513 1.93472108,37.3812118 1.93472108,36.3196387 L1.93472108,30.4472248 C1.93472108,29.3857806 2.79915446,28.522141 3.86170327,28.522141 L5.00383361,28.522141 L5.00383361,38.2448513 Z M9.4800043,41.1581851 L9.49445022,41.1581851 C9.92911755,42.9059535 10.6774677,44.5309154 11.6760417,45.9704435 L11.6178711,45.9704435 C10.43911,45.9704435 9.48013328,45.0122186 9.48013328,43.8346688 L9.48013328,41.1581851 L9.4800043,41.1581851 Z M6.93855469,20.6339238 C7.512135,21.0745062 8.22811078,21.609803 9.06210455,22.2037323 C9.06184658,22.2128816 9.06068575,22.2217732 9.06068575,22.2309224 L9.06068575,25.6086783 L6.93855469,25.6086783 L6.93855469,20.6339238 Z M6.93855469,39.2113235 L6.93855469,27.5555399 L6.93855469,27.5417516 L9.06068575,27.5417516 L9.06068575,37.611361 L9.06068575,39.2252407 L6.93855469,39.2252407 L6.93855469,39.2113235 Z M19.3741679,59.4326281 L18.728487,59.4326281 C12.2274372,59.4326281 6.93842571,54.1484736 6.93842571,47.6535226 L6.93842571,41.1581851 L7.54515424,41.1581851 L7.54515424,43.8346688 C7.54515424,46.078173 9.37204686,47.9033879 11.6176131,47.9033879 L13.2752821,47.9033879 C15.9493246,50.6283241 19.6725019,52.32197 23.784687,52.32197 L25.5246462,52.32197 L25.5246462,52.4638481 C25.5246462,52.5784073 25.5246462,52.7137134 25.5223245,52.8323961 C25.4371968,52.8452824 25.3429114,52.8584265 25.2536563,52.8709262 L25.1490523,52.8854877 C24.076572,53.0363862 23.0442048,53.4515827 22.1639067,54.085975 C20.4431658,55.3258944 19.4070581,57.3186312 19.3741679,59.4326281 Z M32.6486761,54.7851854 L32.7512164,54.7994892 C33.5137544,54.9068321 34.2479166,55.202186 34.8745083,55.6537218 C36.1205976,56.5516389 36.8645624,58.0027647 36.8645624,59.5358473 L36.8645624,64.0670556 L34.550249,64.0670556 L34.550249,61.9098896 C34.550249,61.3760104 34.1172584,60.9434174 33.5828885,60.9434174 C33.0485185,60.9434174 32.6155279,61.3760104 32.6155279,61.9098896 L32.6155279,64.0670556 L25.5549568,64.0670556 L25.5549568,61.9098896 C25.5549568,61.3760104 25.1218373,60.9434174 24.5875963,60.9434174 C24.0533553,60.9434174 23.6202357,61.3760104 23.6202357,61.9098896 L23.6202357,64.0670556 L21.3057934,64.0670556 L21.3057934,59.5358473 C21.3057934,58.0028936 22.0497582,56.5516389 23.2958475,55.6537218 C23.9223102,55.202186 24.6564724,54.9068321 25.4188814,54.7994892 L25.5214217,54.7851854 C25.7746122,54.749877 26.0075526,54.7171458 26.2201139,54.665214 C26.7137258,54.9251306 27.780015,55.3842693 29.1559887,55.3842693 C30.0159077,55.3842693 30.9962954,55.2038612 32.032145,54.684028 C32.2222636,54.7252642 32.427602,54.7542583 32.6486761,54.7851854 Z M30.7260793,53.1487547 C29.2961915,53.69668 28.078478,53.3729763 27.4469851,53.1097092 C27.4593673,52.9126778 27.4596252,52.6988941 27.4596252,52.4637192 L27.4596252,52.3218411 L30.7107305,52.3218411 L30.7107305,52.4637192 C30.7107305,52.7146154 30.7111175,52.9410276 30.7260793,53.1487547 Z M47.17482,37.6112322 C47.17482,44.6569434 41.4375981,50.3888967 34.3854108,50.3888967 L31.6906023,50.3888967 C31.6863459,50.3888967 31.6823475,50.3882524 31.6780911,50.3882524 L26.4921357,50.3882524 C26.4878793,50.3882524 26.4838809,50.3887678 26.4796245,50.3888967 L23.784816,50.3888967 C20.9540611,50.3888967 18.3354806,49.4646915 16.2145104,47.9032591 L18.5436566,47.9032591 C18.9311168,48.8851948 19.8879008,49.5828589 21.0066855,49.5828589 C22.467142,49.5828589 23.6553187,48.3957733 23.6553187,46.9367869 C23.6553187,45.4776716 22.467142,44.290586 21.0066855,44.290586 C19.8879008,44.290586 18.9309878,44.9883789 18.5436566,45.9703147 L14.1193365,45.9703147 C12.1739099,43.7280992 10.9952778,40.8045852 10.9952778,37.6112322 L10.9952778,26.5751505 L10.9952778,23.5359176 C11.8453943,24.1027858 12.7686432,24.6937513 13.7517395,25.2867787 C20.2598832,29.2125887 25.9480922,31.2026194 30.6606858,31.2024906 C30.6826126,31.2024906 30.7050554,31.2024906 30.7269822,31.2023617 C31.2359428,31.2002999 31.7194941,30.9541716 32.0206657,30.5440008 C32.3218373,30.1335723 32.4113504,29.5984044 32.2601842,29.1127199 L32.2078177,28.9441672 C35.2658378,30.6067571 41.1421017,33.4075935 47.174691,34.1579626 L47.174691,37.6112322 L47.17482,37.6112322 Z M20.2929024,46.9367869 C20.2929024,46.5434971 20.6131633,46.2235304 21.0068145,46.2235304 C21.4004658,46.2235304 21.7207266,46.5434971 21.7207266,46.9367869 C21.7207266,47.3300766 21.4004658,47.6499145 21.0068145,47.6499145 C20.6131633,47.6499145 20.2929024,47.3300766 20.2929024,46.9367869 Z M51.0954677,36.0830463 C50.5567124,36.6648626 49.8679517,37.0451372 49.10967,37.1890771 L49.10967,34.3239381 C49.4451507,34.3392727 49.7802443,34.3494529 50.1144352,34.3494529 C50.6284261,34.3494529 51.1413851,34.3306389 51.6497008,34.291078 C51.7758446,34.2812844 51.8970872,34.2551252 52.0132994,34.217755 C51.8960553,34.9118109 51.5808248,35.5588318 51.0954677,36.0830463 Z" id="Shape" fill="#000000" fill-rule="nonzero"></path>
                    </g>
                </g>
            </g>
        </g>
    </g>
</svg>