<?xml version="1.0" encoding="UTF-8"?>
<svg width="638px" height="70px" viewBox="0 0 638 70" version="1.1" xmlns="http://www.w3.org/2000/svg" xmlns:xlink="http://www.w3.org/1999/xlink">
    <!-- Generator: Sketch 52.3 (67297) - http://www.bohemiancoding.com/sketch -->
    <title>Group 7</title>
    <desc>Created with Sketch.</desc>
    <defs>
        <circle id="path-1" cx="31.3910506" cy="31.3910506" r="31.3910506"></circle>
    </defs>
    <g id="Page-1" stroke="none" stroke-width="1" fill="none" fill-rule="evenodd">
        <g id="Artboard" transform="translate(-1540.000000, -1668.000000)">
            <g id="Group-7" transform="translate(1540.000000, 1668.000000)">
                <g id="Group-2">
                    <rect id="Rectangle" fill="#FFF60F" x="0" y="0" width="450.36965" height="70" rx="35"></rect>
                    <g id="profile" transform="translate(4.221790, 3.677043)">
                        <mask id="mask-2" fill="white">
                            <use xlink:href="#path-1"></use>
                        </mask>
                        <use id="Mask" fill="#FFFFFF" xlink:href="#path-1"></use>
                    </g>
                </g>
                <g id="Group-6" transform="translate(543.626459, 35.558366) scale(-1, 1) translate(-543.626459, -35.558366) translate(449.626459, 25.058366)">
                    <path d="M187.120623,9.98079869 L19.5026484,9.98079869" id="Line-2" stroke="#FFF60F" stroke-width="5" stroke-linecap="square"></path>
                    <ellipse id="Oval" fill="#FFF60F" cx="9.73735409" cy="10.0097276" rx="9.73735409" ry="10.0097276"></ellipse>
                </g>
                <g id="call-center" transform="translate(15.116732, 11.712062)">
                    <path d="M4.08560311,13.2101167 L4.08560311,33.8476873 C4.08560311,38.846503 8.1407827,42.8988327 13.1431141,42.8988327 L27.8491038,42.8988327 C32.8514352,42.8988327 36.9066148,38.846503 36.9066148,33.8476873 L36.9066148,13.2101167 L4.08560311,13.2101167 Z" id="Path" fill="#FFAA00"></path>
                    <path d="M36.9066148,13.2101167 L36.9066148,33.8472063 C36.9066148,38.8461579 32.8601838,42.8988327 27.8702129,42.8988327 L23.9688716,42.8988327 C28.9588425,42.8988327 33.0052735,38.8461579 33.0052735,33.8472063 L33.0052735,13.2101167 L36.9066148,13.2101167 Z" id="Path" fill="#FF9500"></path>
                    <path d="M24.3140557,36.4980545 L16.8143489,36.4980545 C11.4391652,36.4980545 7.08171206,32.1156894 7.08171206,26.7097753 L7.08171206,14.0272374 L34.0466926,14.0272374 L34.0466926,26.7096835 C34.0466926,32.1155977 29.6892395,36.4980545 24.3140557,36.4980545 Z" id="Path" fill="#FFDFCF"></path>
                    <path d="M34.0466926,14.0272374 L34.0466926,26.7095473 C34.0466926,32.1162805 29.6764573,36.4980545 24.2866194,36.4980545 L20.4280156,36.4980545 C25.8190431,36.4980545 30.1880888,32.1162805 30.1880888,26.7095473 L30.1880888,14.0272374 L34.0466926,14.0272374 Z" id="Path" fill="#FFCEBF"></path>
                    <circle id="Oval" fill="#FF9A9A" cx="12.5972763" cy="29.348249" r="1.42996109"></circle>
                    <circle id="Oval" fill="#FF9A9A" cx="28.3949416" cy="29.348249" r="1.42996109"></circle>
                    <path d="M26.692607,46.1673152 L26.692607,42.2811561 C26.692607,40.9835836 26.0539925,39.7418491 24.9983459,38.9827988 C24.4649945,38.5993112 23.8401775,38.3480859 23.188862,38.2566319 C22.3442899,38.1381242 22.3330509,38.1636293 22.3330509,37.2819723 C22.3330509,37.2796039 22.3330509,36.4980545 22.3330509,36.4980545 L18.659167,36.4980545 L18.659167,37.2819723 C18.659167,38.1636293 18.647928,38.1380331 17.8033559,38.2566319 C17.1520404,38.3480859 16.5273147,38.5992201 15.993872,38.9827988 C14.9383168,39.741758 14.2996109,40.9835836 14.2996109,42.2811561 L14.2996109,46.1673152 L26.692607,46.1673152 Z" id="Path" fill="#FFDFCF"></path>
                    <path d="M26.692607,42.2908313 L26.692607,46.1673152 L14.2996109,46.1673152 L14.2996109,42.2908313 C14.2996109,40.9960651 14.9378062,39.7574549 15.9932409,39.0007132 C16.3340869,38.7562805 16.7121244,38.5658229 17.1109051,38.436519 C17.3359731,38.3633709 17.5682601,38.3093049 17.8033799,38.2759567 C18.1477897,38.2276154 18.353668,38.2041716 18.4765735,38.1323866 L18.6344775,38.1671887 L19.0325272,38.3909945 C19.932251,38.8983967 21.0320048,38.9019406 21.9352924,38.400899 L22.357649,38.1670978 L22.515553,38.1322957 C22.6384586,38.2040808 22.8442455,38.2275245 23.1887467,38.2758658 C23.4238664,38.3093049 23.6561534,38.36328 23.8812215,38.4364281 C24.2800021,38.5657321 24.6580397,38.7561896 24.9988857,39.0006223 C26.0545031,39.7574549 26.692607,40.9960651 26.692607,42.2908313 Z" id="Path" fill="#E41D71"></path>
                    <path d="M26.692607,42.2910975 L26.692607,46.1673152 L14.2996109,46.1673152 L14.2996109,42.2910975 C14.2996109,40.996299 14.9374454,39.7578357 15.9928878,39.0009465 C16.3337363,38.7565249 16.7120508,38.5657125 17.1104689,38.4366869 C17.3361782,38.3639965 17.5682842,38.3094787 17.8031315,38.2758593 C18.1476353,38.2277019 18.3532409,38.2040775 18.4766043,38.1322957 L18.6346923,38.1677323 L19.0321966,38.3912554 C19.9322925,38.8982712 21.0325113,38.9019057 21.9353487,38.4012503 L22.3575256,38.1677323 L22.5156136,38.1322957 C22.5265792,38.1386561 22.5393724,38.1450165 22.5521657,38.151377 C22.6773567,38.2086207 22.8765657,38.2322451 23.1890864,38.2758593 C23.4239337,38.3094787 23.6560397,38.3639965 23.881749,38.4366869 C24.2801671,38.5657125 24.6584816,38.7565249 24.9993301,39.0009465 C26.0547725,39.7578357 26.692607,40.996299 26.692607,42.2910975 Z" id="Path" fill="#FF5757"></path>
                    <path d="M7.08171206,28.5992218 L4.49457043,28.5992218 C4.34390464,28.5992218 4.22178988,28.4763268 4.22178988,28.3246985 L4.22178988,19.2044844 C4.22178988,19.052856 4.34390464,18.9299611 4.49457043,18.9299611 L7.08171206,18.9299611 L7.08171206,28.5992218 Z" id="Path" fill="#7CA1B1"></path>
                    <path d="M4.22178988,27.9182879 L2.7290009,27.9182879 C1.59790933,27.9182879 0.680933852,26.99553 0.680933852,25.8573058 L0.680933852,21.6718771 C0.680933852,20.5336529 1.59790933,19.6108949 2.7290009,19.6108949 L4.22178988,19.6108949 L4.22178988,27.9182879 Z" id="Path" fill="#FF5757"></path>
                    <circle id="Oval" fill="#7CA1B1" cx="14.844358" cy="33.3657588" r="1.22568093"></circle>
                    <path d="M16.0700389,33.366182 C16.0700389,34.0429615 15.5285254,34.5914397 14.8611626,34.5914397 C14.5378682,34.5914397 14.2446218,34.4629504 14.0272374,34.2526267 C14.6820801,34.2382351 15.207735,33.6957769 15.207735,33.0282156 C15.207735,32.6783973 15.0636158,32.3640405 14.8327839,32.1409244 C14.8419653,32.1400778 14.8519813,32.1400778 14.8610699,32.1400778 C15.5285254,32.1400778 16.0700389,32.688556 16.0700389,33.366182 Z" id="Path" fill="#678D98"></path>
                    <path d="M36.5969619,26.0518196 C36.0097921,26.6971155 35.1698491,27.1011673 34.2371479,27.1011673 L34.0466926,27.1011673 L34.0466926,20.5642023 L34.2371479,20.5642023 C36.0123063,20.5642023 37.4513619,22.0275548 37.4513619,23.8326848 C37.4513619,24.689366 37.1272915,25.4689806 36.5969619,26.0518196 Z" id="Path" fill="#FFCEBF"></path>
                    <path d="M4.22178988,13.2361483 C4.22178988,13.2361483 13.9649456,21.4925993 21.7238409,21.4617671 C22.0309169,21.4605777 22.2491481,21.1616789 22.1581119,20.8679035 L21.9522076,20.2040499 C21.8294868,19.8082628 22.2526179,19.4661805 22.6128363,19.6701124 C24.9757598,21.0077007 31.0651408,24.0801281 36.4851272,23.6568024 C36.7229901,23.6382299 36.9066148,23.438964 36.9066148,23.1998084 L36.9066148,13.2361483 C36.9066148,6.30209814 31.2965206,0.680933852 24.3761262,0.680933852 L16.7522785,0.680933852 C9.83188404,0.680933852 4.22178988,6.30209814 4.22178988,13.2361483 Z" id="Path" fill="#FFAA00"></path>
                    <path d="M36.9066148,13.2358559 L36.9066148,23.1998489 C36.9066148,23.4387314 36.7226477,23.63809 36.4840496,23.6567541 C35.296284,23.7493428 34.0759781,23.6748693 32.8703382,23.4883195 L32.8703382,13.2358559 C32.8703382,9.76871902 31.4624904,6.62994276 29.1863216,4.35804222 C26.910061,2.08614167 23.7641962,0.680933852 20.2918288,0.680933852 L24.3281053,0.680933852 C27.8005644,0.680933852 30.9463376,2.08614167 33.2225981,4.35804222 C35.498767,6.63003426 36.9066148,9.76871902 36.9066148,13.2358559 Z" id="Path" fill="#FF9500"></path>
                    <path d="M21.7708098,31.189963 L21.7708098,31.2791731 C21.7708098,31.9756138 21.198916,32.542253 20.4960169,32.542253 C19.7931178,32.542253 19.2214081,31.9756138 19.2214081,31.2791731 L19.2214081,31.189963 C19.2214081,30.8120516 18.9122614,30.5058366 18.5309375,30.5058366 C18.1496136,30.5058366 17.8404669,30.8120516 17.8404669,31.189963 L17.8404669,31.2791731 C17.8404669,32.7300685 19.0317589,33.9105058 20.4960169,33.9105058 C21.960367,33.9105058 23.151751,32.7301597 23.151751,31.2791731 L23.151751,31.189963 C23.151751,30.8120516 22.8426963,30.5058366 22.4612804,30.5058366 C22.0798644,30.5058366 21.7708098,30.8120516 21.7708098,31.189963 Z" id="Path" fill="#000000"></path>
                    <path d="M16.8871595,25.6031128 C16.5111025,25.6031128 16.2062257,25.9044549 16.2062257,26.2763525 L16.2062257,27.7897953 C16.2062257,28.1616929 16.5111025,28.463035 16.8871595,28.463035 C17.2632166,28.463035 17.5680934,28.1616929 17.5680934,27.7897953 L17.5680934,26.2763525 C17.5680934,25.9044549 17.2632166,25.6031128 16.8871595,25.6031128 Z" id="Path" fill="#000000"></path>
                    <path d="M24.2412451,28.463035 C24.617393,28.463035 24.922179,28.1616929 24.922179,27.7897953 L24.922179,26.2763525 C24.922179,25.9044549 24.617393,25.6031128 24.2412451,25.6031128 C23.8650973,25.6031128 23.5603113,25.9044549 23.5603113,26.2763525 L23.5603113,27.7897953 C23.5603113,28.1616929 23.8650973,28.463035 24.2412451,28.463035 Z" id="Path" fill="#000000"></path>
                    <path d="M38.2684825,23.8554044 C38.2684825,23.0798323 38.0438066,22.3562151 37.6570679,21.7449227 L37.6570679,13.2384181 C37.6570679,5.93876552 31.7224436,0 24.4278812,0 L16.7959393,0 C13.7299087,0 10.7412989,1.07367202 8.38064822,3.02334992 C8.37607792,3.02710018 8.37159903,3.03085044 8.36721154,3.03469217 L7.88120597,3.45755686 C7.87544739,3.4625877 7.86978022,3.46761854 7.86420446,3.47283231 L7.73395094,3.59412121 C7.45662522,3.85206593 7.44090339,4.28608993 7.69866824,4.56360918 C7.95652449,4.8412199 8.39024584,4.85704416 8.66757157,4.59891651 L8.78941574,4.48558548 L9.26024791,4.07589243 C11.3747423,2.3322959 14.0507437,1.37204637 16.7960307,1.37204637 L24.4278812,1.37204637 C30.9664248,1.37204637 36.2858869,6.6953119 36.2858869,13.2384181 L36.2858869,22.9872649 C31.1057275,23.3023783 25.2831669,20.3645526 22.9997542,19.0735484 C22.58925,18.8415811 22.087157,18.882834 21.7202534,19.1789216 C21.3533498,19.4750092 21.2067346,19.9576036 21.3465858,20.4082751 L21.4597464,20.7726906 C14.751279,20.6014592 6.46742976,14.1519266 4.94204685,12.9174507 C4.99762168,10.8456607 5.59084646,8.82902695 6.66614635,7.06585589 L6.85654499,6.76409715 C7.05873501,6.44377006 6.96312436,6.01999067 6.64302063,5.81775103 C6.32291691,5.61541993 5.89943303,5.7110973 5.69733442,6.03142439 L5.50401078,6.33775661 C5.50218266,6.34059217 5.50035454,6.34351921 5.49861783,6.34644624 C4.27322933,8.35420743 3.60980476,10.6562268 3.5705916,13.0170613 C3.55496118,13.0744128 3.5460948,13.1345999 3.5460948,13.1968908 L3.5460948,18.873504 L2.73669489,18.873504 C1.22767365,18.873504 0,20.1020344 0,21.6120171 L0,25.7803855 C0,27.2904597 1.22767365,28.51899 2.73669489,28.51899 L3.5460948,28.51899 L3.5460948,33.8255166 C3.5460948,39.1924132 7.90935901,43.5586306 13.2725132,43.5586306 L13.7278063,43.5586306 L13.7278063,46.1622258 C13.7278063,46.541185 14.0347476,46.848249 14.4133512,46.848249 L26.8105607,46.848249 C27.1892557,46.848249 27.4961055,46.541185 27.4961055,46.1622258 L27.4961055,43.5586306 L27.9513987,43.5586306 C31.7656786,43.5586306 35.2461439,41.3106699 36.8181439,37.8317091 C36.9740825,37.4865937 36.8208861,37.0801021 36.4759199,36.9239632 C36.1308624,36.7679158 35.7247456,36.9212191 35.568807,37.266426 C34.2182837,40.2552918 31.2282115,42.1865843 27.9513987,42.1865843 L27.4938204,42.1865843 C27.4705119,40.6860229 26.7361563,39.2715345 25.5167091,38.391504 C24.8928634,37.9411069 24.1613414,37.6463913 23.4010265,37.5392803 L23.3269876,37.5289442 C23.2636433,37.5200716 23.1969169,37.5107417 23.136589,37.5015947 C23.1348523,37.4173511 23.1348523,37.3212164 23.1348523,37.2399912 L23.1348523,37.139283 L24.3679189,37.139283 C29.7531019,37.139283 34.1982658,33.0356752 34.7456048,27.7893358 C35.2976055,27.7275022 35.8299539,27.5511485 36.3065446,27.2728975 L36.3065446,34.1518807 L36.2697994,34.6109674 C36.2394527,34.9886461 36.5208917,35.3193092 36.8983069,35.3495857 C37.2757222,35.3803196 37.6061548,35.0983183 37.6364102,34.7206397 L37.6754405,34.234295 C37.6769944,34.2160925 37.6776343,34.1977071 37.6776343,34.1793216 L37.6776343,25.9371647 C38.061905,25.3161765 38.2684825,24.5983218 38.2684825,23.8554044 Z M3.5460948,27.1470351 L2.73669489,27.1470351 C1.98369247,27.1470351 1.37108962,26.5340048 1.37108962,25.780477 L1.37108962,21.6121086 C1.37108962,20.8586722 1.98369247,20.2456419 2.73669489,20.2456419 L3.5460948,20.2456419 L3.5460948,27.1470351 Z M6.71824775,29.2149834 L6.72848522,29.2149834 C7.03652336,30.4555878 7.56686082,31.6090214 8.27452588,32.6308301 L8.23330179,32.6308301 C7.39794258,32.6308301 6.71833916,31.950661 6.71833916,31.1148103 L6.71833916,29.2149834 L6.71824775,29.2149834 Z M4.91718442,14.6464121 C5.32366679,14.9591472 5.83106136,15.3391126 6.42209239,15.7606967 C6.42190958,15.767191 6.42108693,15.7735025 6.42108693,15.7799968 L6.42108693,18.1776021 L4.91718442,18.1776021 L4.91718442,14.6464121 Z M4.91718442,27.8330583 L4.91718442,19.5595272 L4.91718442,19.54974 L6.42108693,19.54974 L6.42108693,26.6973698 L6.42108693,27.8429371 L4.91718442,27.8429371 L4.91718442,27.8330583 Z M13.7300001,42.1865843 L13.2724218,42.1865843 C8.66528642,42.1865843 4.91709301,38.4357754 4.91709301,33.8255166 L4.91709301,29.2149834 L5.34706672,29.2149834 L5.34706672,31.1148103 C5.34706672,32.7072988 6.64174095,34.0028765 8.23311897,34.0028765 L9.40786856,34.0028765 C11.3028972,35.937096 13.9414221,37.139283 16.8556274,37.139283 L18.088694,37.139283 L18.088694,37.2399912 C18.088694,37.3213078 18.088694,37.4173511 18.0870487,37.5015947 C18.0267208,37.5107417 17.959903,37.5200716 17.89665,37.5289442 L17.8225198,37.5392803 C17.0624791,37.6463913 16.3308657,37.9411069 15.7070199,38.3914125 C14.4875728,39.2715345 13.7533086,40.6860229 13.7300001,42.1865843 Z M23.1373202,38.8877274 L23.209988,38.8978806 C23.7503801,38.9740749 24.2706629,39.1837236 24.7147131,39.5042336 C25.5977862,40.1415949 26.1250159,41.1716358 26.1250159,42.2598515 L26.1250159,45.4762027 L24.4849185,45.4762027 L24.4849185,43.9449989 C24.4849185,43.5660397 24.1780686,43.2589757 23.7993737,43.2589757 C23.4206787,43.2589757 23.1138289,43.5660397 23.1138289,43.9449989 L23.1138289,45.4762027 L18.1101744,45.4762027 L18.1101744,43.9449989 C18.1101744,43.5660397 17.8032331,43.2589757 17.4246296,43.2589757 C17.046026,43.2589757 16.7390848,43.5660397 16.7390848,43.9449989 L16.7390848,45.4762027 L15.098896,45.4762027 L15.098896,42.2598515 C15.098896,41.1717273 15.6261256,40.1415949 16.5091988,39.5042336 C16.9531576,39.1837236 17.4734404,38.9740749 18.0137411,38.8978806 L18.0864089,38.8877274 C18.2658388,38.8626647 18.430918,38.8394314 18.581555,38.8025691 C18.9313657,38.9870636 19.6870189,39.3129703 20.6621378,39.3129703 C21.2715415,39.3129703 21.9663183,39.1849127 22.7003997,38.8159237 C22.8351321,38.845194 22.9806504,38.8657747 23.1373202,38.8877274 Z M21.7748228,37.726153 C20.7614961,38.1150824 19.8985323,37.8853104 19.4510087,37.6984376 C19.4597836,37.5585804 19.4599664,37.406832 19.4599664,37.2398997 L19.4599664,37.1391915 L21.7639454,37.1391915 L21.7639454,37.2398997 C21.7639454,37.4179914 21.7642197,37.5787037 21.7748228,37.726153 Z M33.4316439,26.6972783 C33.4316439,31.6984788 29.3658148,35.7671452 24.3681017,35.7671452 L22.4583566,35.7671452 C22.4553402,35.7671452 22.4525066,35.7666878 22.4494903,35.7666878 L18.7743302,35.7666878 C18.7713138,35.7666878 18.7684802,35.7670537 18.7654638,35.7671452 L16.8557188,35.7671452 C14.8496319,35.7671452 12.9939078,35.1111241 11.4908279,34.002785 L13.141437,34.002785 C13.4160206,34.6997846 14.0940701,35.1950018 14.8869255,35.1950018 C15.9219154,35.1950018 16.7639472,34.3523824 16.7639472,33.3167618 C16.7639472,32.2810497 15.9219154,31.4384303 14.8869255,31.4384303 C14.0940701,31.4384303 13.4159292,31.9337391 13.141437,32.6307386 L10.0060293,32.6307386 C8.62735294,31.0391648 7.79208514,28.9639904 7.79208514,26.6972783 L7.79208514,18.8636253 L7.79208514,16.7063111 C8.39454192,17.1086865 9.04882589,17.5281668 9.74552223,17.9491107 C14.3576849,20.7357368 18.3887798,22.1483043 21.7284799,22.1482129 C21.7440189,22.1482129 21.7599236,22.1482129 21.7754626,22.1481214 C22.1361506,22.1466579 22.4788316,21.9719506 22.6922645,21.6808024 C22.9056975,21.3894712 22.9691332,21.0095973 22.8620054,20.6648478 L22.8248946,20.5452053 C24.9920389,21.7253482 29.1564037,23.7134434 33.4315525,24.2460718 L33.4315525,26.6972783 L33.4316439,26.6972783 Z M14.3810848,33.3167618 C14.3810848,33.0375961 14.6080459,32.8104767 14.8870169,32.8104767 C15.165988,32.8104767 15.392949,33.0375961 15.392949,33.3167618 C15.392949,33.5959275 15.165988,33.8229555 14.8870169,33.8229555 C14.6080459,33.8229555 14.3810848,33.5959275 14.3810848,33.3167618 Z M36.2101113,25.6125385 C35.8283086,26.0255244 35.3402007,26.2954517 34.802825,26.3976234 L34.802825,24.3638848 C35.0405719,24.3747697 35.2780446,24.3819958 35.5148775,24.3819958 C35.8791303,24.3819958 36.2426519,24.3686412 36.6028828,24.34056 C36.6922779,24.3336083 36.7781995,24.31504 36.8605563,24.2885137 C36.7774682,24.7811698 36.554072,25.2404395 36.2101113,25.6125385 Z" id="Shape" fill="#000000" fill-rule="nonzero"></path>
                </g>
            </g>
        </g>
    </g>
</svg>