<?xml version="1.0" encoding="UTF-8"?>
<svg width="488px" height="96px" viewBox="0 0 488 96" version="1.1" xmlns="http://www.w3.org/2000/svg" xmlns:xlink="http://www.w3.org/1999/xlink">
    <!-- Generator: Sketch 52.3 (67297) - http://www.bohemiancoding.com/sketch -->
    <title>Group 12</title>
    <desc>Created with Sketch.</desc>
    <defs>
        <circle id="path-1" cx="43.2254309" cy="42.8229572" r="42.5"></circle>
    </defs>
    <g id="Page-1" stroke="none" stroke-width="1" fill="none" fill-rule="evenodd">
        <g id="Artboard" transform="translate(-1616.000000, -445.000000)">
            <g id="Group-12" transform="translate(1616.000000, 445.000000)">
                <g id="Group-10">
                    <g id="Group-3">
                        <path d="M189.862013,48.2422864 L20.0283096,48.2422864" id="Line-2" stroke="#FFF60F" stroke-width="5" stroke-linecap="square"></path>
                        <g id="Group-2" transform="translate(110.000000, 0.000000)">
                            <rect id="Rectangle" fill="#FFF60F" x="0" y="1.42108547e-14" width="378" height="96" rx="48"></rect>
                            <g id="profile" transform="translate(3.274569, 4.677043)">
                                <mask id="mask-2" fill="white">
                                    <use xlink:href="#path-1"></use>
                                </mask>
                                <use id="Mask" fill="#FFFFFF" xlink:href="#path-1"></use>
                            </g>
                        </g>
                        <circle id="Oval" fill="#FFF60F" cx="9.5" cy="48.5" r="9.5"></circle>
                    </g>
                </g>
                <g id="Group-4" transform="translate(120.000000, 28.000000)">
                    <g id="followers" transform="translate(24.953469, 24.095917) rotate(-21.000000) translate(-24.953469, -24.095917) translate(5.953469, 6.595917)">
                        <path d="M34.8741845,0.483664123 L6.06116793,0.483664123 C5.01808843,0.483664123 4.16465975,1.35238765 4.16465975,2.41416085 L4.16465975,23.3413889 C4.16465975,24.4031621 5.01808843,25.2718856 6.06116793,25.2718856 L14.4841929,25.2718856 L16.6746599,33.8651701 L20.4676762,33.8651701 L26.4498952,25.2718856 L34.8741845,25.2718856 C35.9159997,25.2718856 36.7706927,24.4031621 36.7706927,23.3413889 L36.7706927,2.41416085 C36.7706927,1.35238765 35.9159997,0.483664123 34.8741845,0.483664123 Z" id="Path" fill="#DB785A"></path>
                        <path d="M20.4676762,34.1869195 L16.6746599,34.1869195 C16.5305252,34.1869195 16.4047235,34.0878207 16.3686899,33.9456074 L14.2401755,25.5929916 L6.06116793,25.5929916 C4.841081,25.5929916 3.84857505,24.5826983 3.84857505,23.3407454 L3.84857505,2.41416085 C3.84857505,1.17220796 4.841081,0.161914668 6.06116793,0.161914668 L34.8741845,0.161914668 C36.0942714,0.161914668 37.0867774,1.17220796 37.0867774,2.41416085 L37.0867774,23.3413889 C37.0867774,24.5833418 36.0942714,25.5936351 34.8741845,25.5936351 L26.613627,25.5936351 L20.7262335,34.0517848 C20.6661774,34.1360831 20.5700877,34.1869195 20.4676762,34.1869195 Z M16.9193094,33.5434206 L20.3039443,33.5434206 L26.1913379,25.085271 C26.2507618,25.0003291 26.3468516,24.9494927 26.449263,24.9494927 L34.8735523,24.9494927 C35.7453139,24.9494927 36.4539758,24.2274869 36.4539758,23.3407454 L36.4539758,2.41416085 C36.4539758,1.52741935 35.7453139,0.805413578 34.8735523,0.805413578 L6.06116793,0.805413578 C5.18940633,0.805413578 4.48074445,1.52741935 4.48074445,2.41416085 L4.48074445,23.3413889 C4.48074445,24.2281304 5.18940633,24.9501362 6.06116793,24.9501362 L14.4841929,24.9501362 C14.6283275,24.9501362 14.7541292,25.049235 14.7901629,25.1914483 L16.9193094,33.5434206 Z" id="Shape" fill="#63312D" fill-rule="nonzero"></path>
                        <path d="M31.0811681,0.483664123 L2.26815157,0.483664123 C1.22507207,0.483664123 0.371643394,1.35238765 0.371643394,2.41416085 L0.371643394,23.3413889 C0.371643394,24.4031621 1.22507207,25.2718856 2.26815157,25.2718856 L10.6911766,25.2718856 L16.6746599,33.8651701 L22.6568788,25.2718856 L31.0811681,25.2718856 C32.1229833,25.2718856 32.9776763,24.4031621 32.9776763,23.3413889 L32.9776763,2.41416085 C32.9776763,1.35238765 32.1229833,0.483664123 31.0811681,0.483664123 Z" id="Path" fill="#F9A287"></path>
                        <path d="M1.63598218,24.6277432 L1.63598218,3.70115867 C1.63598218,2.63938547 2.48941086,1.77066194 3.53249036,1.77066194 L32.3455069,1.77066194 C32.5345256,1.77066194 32.7146939,1.80798488 32.8872761,1.86139529 C32.6514769,1.06860463 31.9339647,0.483664123 31.0811681,0.483664123 L2.26815157,0.483664123 C1.22507207,0.483664123 0.371643394,1.35238765 0.371643394,2.41416085 L0.371643394,23.3413889 C0.371643394,24.2101124 0.946917541,24.9404837 1.72511806,25.1811523 C1.672648,25.0041901 1.63598218,24.8207929 1.63598218,24.6277432 Z" id="Path" fill="#FFC8BB"></path>
                        <path d="M16.6746599,34.1869195 C16.5722484,34.1869195 16.4761587,34.1360831 16.4167347,34.0511413 L10.5280769,25.5929916 L2.26815157,25.5929916 C1.04806464,25.5929916 0.0555586975,24.5826983 0.0555586975,23.3407454 L0.0555586975,2.41416085 C0.0555586975,1.17220796 1.04806464,0.161914668 2.26815157,0.161914668 L31.0811681,0.161914668 C32.3012551,0.161914668 33.293761,1.17220796 33.293761,2.41416085 L33.293761,23.3413889 C33.293761,24.5833418 32.3012551,25.5936351 31.0811681,25.5936351 L22.8206107,25.5936351 L16.9332171,34.0517848 C16.873161,34.1360831 16.7770713,34.1869195 16.6746599,34.1869195 Z M2.26815157,0.805413578 C1.39638998,0.805413578 0.68772809,1.52741935 0.68772809,2.41416085 L0.68772809,23.3413889 C0.68772809,24.2281304 1.39638998,24.9501362 2.26815157,24.9501362 L10.6911766,24.9501362 C10.793588,24.9501362 10.8896777,25.0009726 10.9491017,25.0859145 L16.6746599,33.3085435 L22.3989537,25.085271 C22.4583776,25.0003291 22.5544674,24.9494927 22.6568788,24.9494927 L31.0811681,24.9494927 C31.9529297,24.9494927 32.6615916,24.2274869 32.6615916,23.3407454 L32.6615916,2.41416085 C32.6615916,1.52741935 31.9529297,0.805413578 31.0811681,0.805413578 L2.26815157,0.805413578 Z" id="Shape" fill="#63312D" fill-rule="nonzero"></path>
                        <path d="M20.3576787,10.2300986 C20.3576787,12.3015216 18.7083488,13.9797668 16.6733955,13.9797668 C14.6409709,13.9797668 12.991641,12.3015216 12.991641,10.2300986 C12.991641,8.15867562 14.6409709,6.48171746 16.6733955,6.48171746 C18.7083488,6.48171746 20.3576787,8.15867562 20.3576787,10.2300986 Z" id="Path" fill="#F8F3F3"></path>
                        <path d="M16.6733955,14.3015162 C14.4690208,14.3015162 12.6755563,12.4752663 12.6755563,10.2300986 C12.6755563,7.98621792 14.4690208,6.15996801 16.6733955,6.15996801 C18.8790345,6.15996801 20.6737634,7.98557442 20.6737634,10.2300986 C20.6737634,12.4752663 18.8790345,14.3015162 16.6733955,14.3015162 Z M16.6733955,6.80346692 C14.8173462,6.80346692 13.3077257,8.34078581 13.3077257,10.2300986 C13.3077257,12.1200549 14.8179784,13.6580173 16.6733955,13.6580173 C18.5307092,13.6580173 20.041594,12.1200549 20.041594,10.2300986 C20.041594,8.34078581 18.5307092,6.80346692 16.6733955,6.80346692 Z" id="Shape" fill="#63312D" fill-rule="nonzero"></path>
                        <path d="M22.2181533,19.2738323 C22.030399,16.3175983 19.6230979,13.9797668 16.6733955,13.9797668 C13.7236931,13.9797668 11.3170243,16.3175983 11.1305343,19.2738323 L22.2181533,19.2738323 Z" id="Path" fill="#F8F3F3"></path>
                        <path d="M22.2187854,19.5955818 L11.1305343,19.5955818 C11.0432949,19.5955818 10.9592164,19.5589023 10.9004246,19.4939089 C10.8403685,19.4289155 10.8093922,19.3420432 10.8150818,19.2532403 C11.0129508,16.1161831 13.5865124,13.6580173 16.6733955,13.6580173 C19.7609108,13.6580173 22.3344724,16.1155396 22.534238,19.2532403 C22.5399275,19.3420432 22.5089512,19.4289155 22.4495273,19.4939089 C22.3894712,19.5589023 22.3060248,19.5955818 22.2187854,19.5955818 Z M11.4782275,18.9520828 L21.8698279,18.9520828 C21.5354103,16.3175983 19.3145992,14.3015162 16.6727634,14.3015162 C14.0321918,14.3015162 11.8126451,16.3175983 11.4782275,18.9520828 Z" id="Shape" fill="#63312D" fill-rule="nonzero"></path>
                    </g>
                    <g id="love" transform="translate(48.157916, 24.076632) rotate(18.000000) translate(-48.157916, -24.076632) translate(31.157916, 6.576632)">
                        <path d="M26.8197964,0.559308641 L6.57560131,0.559308641 C3.20675827,0.559308641 0.475786489,3.3392918 0.475786489,6.76844219 L0.475786489,20.2841514 C0.475786489,23.7134376 3.20682494,26.493285 6.57560131,26.493285 L9.48092589,26.493285 C9.61914134,26.493285 9.73115385,26.6073728 9.73115385,26.7479974 L9.73115385,33.4149754 C9.73115385,34.2032742 10.678393,34.5854447 11.2088523,34.011137 L18.0807533,26.5733704 C18.128092,26.5221293 18.1940327,26.4931493 18.2631071,26.4931493 L26.8197297,26.4931493 C30.1886394,26.4931493 32.9195445,23.7131661 32.9195445,20.2840157 L32.9195445,6.76851006 C32.9197445,3.33922393 30.1887061,0.559308641 26.8197964,0.559308641 Z" id="Path" fill="#EC5569"></path>
                        <path d="M12.2975072,24.175965 C12.2975072,24.0278069 12.1890284,23.9077466 12.0552135,23.9077466 L9.24256593,23.9077466 C5.98120156,23.9077466 3.33730618,20.9803519 3.33730618,17.3691768 L3.33730618,3.13656702 C3.33730618,2.52554218 3.413248,1.93419936 3.55486382,1.37312613 C1.71559167,2.4424705 0.475719815,4.45804482 0.475719815,6.76851006 L0.475719815,20.2842193 C0.475719815,23.7134376 3.20675827,26.4933529 6.57553463,26.4933529 L9.48085922,26.4933529 C9.61907466,26.4933529 9.73108718,26.6074407 9.73108718,26.7480653 L9.73108718,33.4150433 C9.73108718,34.203342 10.6783263,34.5855125 11.2087856,34.0112048 L12.2972405,32.8330664 L12.2972405,24.175965 L12.2975072,24.175965 Z" id="Path" fill="#E63950"></path>
                        <path d="M23.5516312,8.61746593 C22.0029249,7.0410042 19.4919777,7.0410042 17.9432713,8.61746593 L17.0684403,9.50797541 C16.8598836,9.72026973 16.5216458,9.72026973 16.3130225,9.50797541 L15.452193,8.63171842 C13.9034867,7.05525669 11.3925395,7.05525669 9.8438331,8.63171842 C8.29512675,10.2081802 8.29512675,12.7641277 9.8438331,14.3405894 L16.3135559,20.9262603 C16.5221125,21.1385546 16.8603503,21.1385546 17.0689736,20.9262603 L23.5516312,14.3263369 C25.1003376,12.7498752 25.1003376,10.1939277 23.5516312,8.61746593 Z" id="Path" fill="#EC5569"></path>
                        <path d="M23.5516312,8.61746593 C22.0029249,7.0410042 19.4919777,7.0410042 17.9432713,8.61746593 L17.0684403,9.50797541 C16.8598836,9.72026973 16.5216458,9.72026973 16.3130225,9.50797541 L15.452193,8.63171842 C13.9034867,7.05525669 11.3925395,7.05525669 9.8438331,8.63171842 C8.29512675,10.2081802 8.29512675,12.7641277 9.8438331,14.3405894 L16.3135559,20.9262603 C16.5221125,21.1385546 16.8603503,21.1385546 17.0689736,20.9262603 L23.5516312,14.3263369 C25.1003376,12.7498752 25.1003376,10.1939277 23.5516312,8.61746593 Z" id="Path" fill="#FFF5F5"></path>
                        <path d="M11.9183315,14.3405894 C10.3696252,12.7641277 10.3696252,10.2081802 11.9183315,8.63171842 C12.4263216,8.11462432 13.0381233,7.76822081 13.6852623,7.59040396 C12.3595142,7.22601516 10.8845494,7.5723508 9.84389978,8.63171842 C8.29519342,10.2081802 8.29519342,12.7641277 9.84389978,14.3405894 L16.3136226,20.9262603 C16.5221792,21.1385546 16.860417,21.1385546 17.0690403,20.9262603 L17.7284473,20.2548999 L11.9183315,14.3405894 Z" id="Path" fill="#DCE6EB"></path>
                        <path d="M26.8573339,0 L6.61307216,0 C5.18764624,0 3.83036127,0.455197555 2.68796697,1.31625188 C2.46520875,1.48415985 2.41840352,1.80409444 2.58328861,2.03084486 C2.74824037,2.25759527 3.06254215,2.30517146 3.28530037,2.13739923 C4.25354188,1.40753572 5.40427044,1.02170031 6.61307216,1.02170031 L26.8572672,1.02170031 C29.9440121,1.02170031 32.455226,3.57798716 32.455226,6.71998371 L32.455226,20.235693 C32.455226,23.3777574 29.9439454,25.9339764 26.8572672,25.9339764 L18.3007113,25.9339764 C18.0939548,25.9339764 17.8941992,26.0219346 17.75285,26.175115 L10.8808823,33.6128815 C10.7325324,33.7733239 10.5605132,33.7277838 10.4935057,33.7008398 C10.4264315,33.6738279 10.2704808,33.5870913 10.2704808,33.3666527 L10.2704808,26.6996747 C10.2704808,26.2775294 9.93310975,25.9341121 9.51839675,25.9341121 L6.61307216,25.9341121 C3.5263273,25.9341121 1.01504674,23.3778252 1.01504674,20.2358287 L1.01504674,6.71998371 C1.01504674,5.56403846 1.35301783,4.45119005 1.99248927,3.50183812 C2.14917344,3.26911523 2.09096694,2.95121671 1.86240807,2.79165663 C1.63391588,2.63209655 1.3214143,2.69148195 1.16473013,2.9240691 C0.410245833,4.04431524 0.0114012738,5.3569022 0.0114012738,6.71998371 L0.0114012738,20.235693 C0.0114012738,23.9410703 2.97293214,26.9556767 6.61313883,26.9556767 L9.26683531,26.9556767 L9.26683531,33.3666527 C9.26683531,33.9366168 9.60313955,34.4406122 10.1236644,34.6505989 C10.2877494,34.7167712 10.4581684,34.7489411 10.6265872,34.7489411 C10.9925614,34.7489411 11.3493346,34.5971181 11.6120307,34.3128827 L18.4094567,26.9557445 L26.8573339,26.9557445 C30.4974739,26.9557445 33.4590048,23.9411382 33.4590048,20.2357608 L33.4590048,6.71998371 C33.4590048,3.01460638 30.4975406,0 26.8573339,0 Z" id="Path" fill="#000000"></path>
                        <path d="M21.7358284,15.4421715 C21.5398065,15.6417065 21.5398065,15.9651703 21.735895,16.1645695 C21.9319169,16.3640365 22.2496858,16.3641044 22.4455743,16.1645016 L23.9439417,14.6390774 C25.6857363,12.8659991 25.6857363,9.98081892 23.9438751,8.20774062 C22.2020805,6.43466232 19.3676971,6.43479806 17.6257692,8.20774062 L16.7510715,9.09818224 C16.7487379,9.10055765 16.7414704,9.10788751 16.7281356,9.10788751 C16.7148007,9.10788751 16.7076666,9.10069339 16.705333,9.09818224 L15.8445035,8.22199311 C14.1026422,6.44891482 11.2683256,6.44898269 9.52646431,8.22199311 C7.78460304,9.99507141 7.78460304,12.8802516 9.52646431,14.6533299 L15.9961871,21.2390008 C16.191809,21.4381964 16.4520381,21.5478727 16.7287356,21.5478727 C17.0054332,21.5478727 17.2656623,21.4381285 17.4612841,21.2389329 L21.0166814,17.6192063 C21.2127033,17.4196713 21.2127033,17.0962076 21.0166147,16.8968084 C20.8205928,16.6973413 20.5027573,16.6972734 20.3069354,16.8968762 L16.7515382,20.5166029 C16.7492046,20.5189783 16.7420038,20.5262403 16.7287356,20.5262403 C16.7153341,20.5262403 16.7082,20.5190461 16.7058664,20.516535 L10.2361436,13.9308641 C8.88559272,12.5561091 8.88559272,10.3192139 10.2361436,8.94439102 C11.5866945,7.56956817 13.7842067,7.56970391 15.1347576,8.94439102 L15.9955204,9.82058015 C16.1911422,10.0198436 16.4513713,10.12952 16.7280689,10.12952 C17.0048331,10.12952 17.2649289,10.0198436 17.4606841,9.82064801 L18.3354485,8.9302064 C19.6862661,7.55551928 21.8835782,7.55558715 23.2341291,8.9302064 C24.58468,10.3049614 24.58468,12.5417887 23.2341291,13.9166795 L21.7358284,15.4421715 Z" id="Path" fill="#000000"></path>
                    </g>
                </g>
            </g>
        </g>
    </g>
</svg>