<?xml version="1.0" encoding="UTF-8"?>
<svg width="145px" height="151px" viewBox="0 0 145 151" version="1.1" xmlns="http://www.w3.org/2000/svg" xmlns:xlink="http://www.w3.org/1999/xlink">
    <!-- Generator: Sketch 52.3 (67297) - http://www.bohemiancoding.com/sketch -->
    <title>Group 16</title>
    <desc>Created with Sketch.</desc>
    <g id="Page-1" stroke="none" stroke-width="1" fill="none" fill-rule="evenodd">
        <g id="Group-16">
            <g id="Group-15">
                <g id="Group-4">
                    <g id="Group-2">
                        <ellipse id="Oval" fill="#111D5F" cx="72.5" cy="75.41011" rx="72.5" ry="75.41011"></ellipse>
                        <ellipse id="Oval" fill="#FFF60F" cx="72.8302961" cy="70.2835455" rx="66.5546697" ry="66.6453385"></ellipse>
                    </g>
                </g>
            </g>
            <g id="noun_tools_2383697" transform="translate(53.000000, 38.000000)" fill="#111D5F">
                <g id="Group">
                    <path d="M38.4426197,33.4424242 L23.8123167,18.5333333 L26.6729228,15.7272727 L33.7638319,15.4484848 C33.9859288,15.4365834 34.1836634,15.3039849 34.2789834,15.1030303 L38.7820137,5.02424242 C38.8773448,4.80259065 38.8321168,4.54550496 38.6668622,4.36969697 L35.5820137,1.21212121 C35.4100303,1.04520954 35.1558412,0.995321978 34.9335288,1.08484848 L24.7759531,5.42424242 C24.5721127,5.51515154 24.4347351,5.71074004 24.4183773,5.93333333 L24.0062561,13.0181818 L22.4244379,14.5454545 C22.2754885,14.782761 22.3086176,15.0912334 22.5045611,15.2914993 C22.7005047,15.4917651 23.008181,15.5316158 23.2486804,15.3878788 L25.0244379,13.6787879 C25.1513632,13.5464205 25.2115272,13.3637003 25.1880743,13.1818182 L25.5820137,6.36363636 L35.0244379,2.34545455 L37.54565,4.90909091 L33.34565,14.2848485 L26.5638319,14.5454545 C26.3710255,14.5085008 26.1722628,14.5672262 26.0304985,14.7030303 L23.0001955,17.6909091 L17.7517107,12.3818182 L17.7880743,5.83030303 C17.7874529,5.67426088 17.7266687,5.52447121 17.6183773,5.41212121 L12.8365591,0.563636364 C12.7266783,0.454559955 12.5792186,0.391672719 12.4244379,0.387878788 L5.63049853,0.303030303 C5.43389323,0.297448267 5.24831442,0.393674314 5.13958944,0.557575758 C5.03148286,0.720830308 5.00890861,0.926255991 5.07898338,1.10909091 L6.3941349,4.37575758 C6.48632395,4.5937389 6.69696852,4.73811326 6.93352884,4.74545455 L10.8183773,4.78181818 L13.3698925,7.38181818 L13.3335288,11.0181818 L10.7395894,13.569697 L7.10322581,13.5333333 L4.54565005,10.9090909 L4.58201369,7.02424242 C4.57915447,6.78832234 4.43964081,6.57550489 4.22443793,6.47878788 L0.982013685,5.1030303 C0.801504951,5.03523952 0.599510037,5.05738746 0.437979375,5.16268152 C0.276448713,5.26797559 0.174660276,5.44384938 0.163831867,5.63636364 L0.0971652004,12.4848485 C0.0977866103,12.6408906 0.158570824,12.7906803 0.26686217,12.9030303 L5.04261975,17.7515152 C5.15250055,17.8605916 5.29996027,17.9234788 5.45474096,17.9272727 L12.0304985,17.9878788 L15.4062561,21.4242424 L10.3274682,26.4121212 L9.06080156,25.1212121 C8.82749853,24.901853 8.46380157,24.901853 8.23049853,25.1212121 L7.26686217,26.0606061 C6.83177006,26.4898483 6.80782583,27.1842309 7.21231672,27.6424242 L1.27292278,33.4727273 C0.704047899,34.0296867 0.380428734,34.7902864 0.373605016,35.5863868 C0.366781297,36.3824872 0.677315021,37.1485224 1.23655914,37.7151515 L1.53958944,38.0242424 C2.09280112,38.5919133 2.84999553,38.9148666 3.64261975,38.9212121 C4.42494093,38.9228927 5.17632509,38.6158053 5.73352884,38.0666667 L11.6911046,32.2484848 C12.1357722,32.6717653 12.8343158,32.6717653 13.2789834,32.2484848 L14.2486804,31.2969697 C14.4680395,31.0636667 14.4680395,30.6999697 14.2486804,30.4666667 L12.9820137,29.1757576 L16.8062561,25.4242424 C16.9552056,25.186936 16.9220765,24.8784635 16.7261329,24.6781977 C16.5301894,24.4779319 16.222513,24.4380811 15.9820137,24.5818182 L12.1698925,28.3030303 L11.1577713,27.2727273 L16.2365591,22.2848485 L32.7092864,39.0727273 C33.1028622,39.4658041 33.6379136,39.6841925 34.1941349,39.6787879 C34.3303467,39.6798458 34.466339,39.6676674 34.6001955,39.6424242 L36.6668622,39.2363636 C37.6049701,39.046329 38.343439,38.3221071 38.5517107,37.3878788 L38.9941349,35.3272727 C39.137369,34.6462819 38.930354,33.9387909 38.4426197,33.4424242 Z M12.4971652,31.3818182 L12.1274682,31.0060606 C12.0175874,30.8969842 11.8701277,30.834097 11.715347,30.830303 C11.5608877,30.8384645 11.4136342,30.8982195 11.2971652,31 L4.93958944,37.2363636 C4.60289525,37.581919 4.13702079,37.7709059 3.65474096,37.7575758 C3.17305169,37.7523407 2.71312703,37.5561643 2.37595308,37.2121212 L2.07292278,36.9030303 C1.36797079,36.1938713 1.36797079,35.0485529 2.07292278,34.3393939 L8.44868035,28.0969697 C8.66803949,27.8636667 8.66803949,27.4999697 8.44868035,27.2666667 L8.07898338,26.9272727 L8.63049853,26.3878788 L9.87292278,27.6727273 L11.6911046,29.5393939 L12.9638319,30.830303 L12.4971652,31.3818182 Z M37.8486804,35.0969697 L37.4062561,37.1515152 C37.3065081,37.6329297 36.9258467,38.0064087 36.4426197,38.0969697 L34.3759531,38.5030303 C34.0758791,38.5622408 33.7661438,38.4665873 33.5517107,38.2484848 L12.7092864,17.0363636 C12.5994056,16.9272872 12.4519459,16.8644 12.2971652,16.8606061 L5.72140762,16.8 L1.28504399,12.2787879 L1.33958944,6.58181818 L3.40625611,7.46060606 L3.36989247,11.1939394 C3.37051388,11.3499815 3.4312981,11.4997712 3.53958944,11.6121212 L6.42443793,14.5454545 C6.53431873,14.654531 6.68177846,14.7174182 6.83655914,14.7212121 L10.9638319,14.7575758 C11.1177731,14.7554085 11.2651197,14.6947364 11.3759531,14.5878788 L14.3214076,11.6969697 C14.430484,11.5870889 14.4933713,11.4396292 14.4971652,11.2848485 L14.5335288,7.15757576 C14.5329074,7.00153361 14.4721232,6.85174394 14.3638319,6.73939394 L11.4729228,3.79393939 C11.3664529,3.69700637 11.2289501,3.64114588 11.085044,3.63636364 L7.35171065,3.6 L6.50928641,1.51515152 L12.2062561,1.56969697 L16.6304985,6.06060606 L16.5941349,12.6121212 C16.5963021,12.7660624 16.6569742,12.913409 16.7638319,13.0242424 L22.5517107,18.9212121 L37.6062561,34.2666667 C37.8208029,34.4854124 37.909795,34.7980257 37.8426197,35.0969697 L37.8486804,35.0969697 Z" id="Shape" fill-rule="nonzero"></path>
                    <path d="M24.5759531,24.2424242 C24.4472156,24.027022 24.1990457,23.9132353 23.9518199,23.9562572 C23.704594,23.9992792 23.5094508,24.1902107 23.4610458,24.4364391 C23.4126407,24.6826675 23.5209863,24.9332607 23.7335288,25.0666667 L26.7032258,28.0969697 C26.8319633,28.312372 27.0801332,28.4261587 27.327359,28.3831367 C27.5745848,28.3401148 27.7697281,28.1491833 27.8181331,27.9029549 C27.8665382,27.6567264 27.7581926,27.4061333 27.54565,27.2727273 L24.5759531,24.2424242 Z" id="Path"></path>
                    <path d="M29.0365591,28.7575758 C28.9078216,28.5421735 28.6596517,28.4283868 28.4124259,28.4714087 C28.1652001,28.5144307 27.9700569,28.7053622 27.9216518,28.9515906 C27.8732467,29.197819 27.9815924,29.4484122 28.1941349,29.5818182 L29.9274682,31.3515152 C30.1647746,31.5004646 30.4732471,31.4673355 30.6735129,31.271392 C30.8737788,31.0754484 30.9136295,30.7677721 30.7698925,30.5272727 L29.0365591,28.7575758 Z" id="Path"></path>
                    <path d="M35.6668622,33.769697 C35.5569814,33.6606206 35.4095216,33.5977333 35.254741,33.5939394 L34.2244379,33.5939394 C34.0683958,33.5945608 33.9186061,33.655345 33.8062561,33.7636364 L33.0729228,34.4848485 C32.9638464,34.5947293 32.9009591,34.742189 32.8971652,34.8969697 L32.8971652,35.9272727 C32.8977866,36.0833149 32.9585708,36.2331045 33.0668622,36.3454545 L33.7880743,37.0787879 C33.8979551,37.1878643 34.0454148,37.2507515 34.2001955,37.2545455 L35.2304985,37.2545455 C35.3844397,37.2523782 35.5317863,37.1917061 35.6426197,37.0848485 L36.3698925,36.3636364 C36.4789689,36.2537556 36.5418561,36.1062958 36.54565,35.9515152 L36.54565,34.9212121 C36.5450286,34.76517 36.4842444,34.6153803 36.3759531,34.5030303 L35.6668622,33.769697 Z M35.3698925,35.6969697 L34.9820137,36.0787879 L34.4426197,36.0787879 L34.0608016,35.6909091 L34.0608016,35.1515152 L34.4486804,34.769697 L34.9880743,34.769697 L35.3698925,35.1575758 L35.3698925,35.6969697 Z" id="Shape" fill-rule="nonzero"></path>
                </g>
            </g>
            <text id="Internal-&amp;-External" font-family="Roboto-Bold, Roboto" font-size="11" font-weight="bold" fill="#111D5F">
                <tspan x="49.0126953" y="97">Internal &amp; </tspan>
                <tspan x="38.2194824" y="110">External Audit</tspan>
            </text>
        </g>
    </g>
</svg>