<?xml version="1.0" encoding="UTF-8"?>
<svg width="94px" height="93px" viewBox="0 0 94 93" version="1.1" xmlns="http://www.w3.org/2000/svg" xmlns:xlink="http://www.w3.org/1999/xlink">
    <!-- Generator: Sketch 52.3 (67297) - http://www.bohemiancoding.com/sketch -->
    <title>Artboard</title>
    <desc>Created with Sketch.</desc>
    <g id="Artboard" stroke="none" stroke-width="1" fill="none" fill-rule="evenodd">
        <g id="noun_Calendar_1417275" transform="translate(3.000000, 0.000000)" fill="#FFFFFF">
            <g id="Group">
                <path d="M56.6758424,80.9562339 L47.84243,80.9562339 C46.8818225,80.9562339 46.0882772,80.1630569 46.0882772,79.2028953 L46.0882772,70.4988217 C46.0882772,69.5386601 46.8818225,68.7454831 47.84243,68.7454831 L56.6758424,68.7454831 C57.6468913,68.7454831 58.4299953,69.5386601 58.4299953,70.4988217 L58.4299953,79.2028953 C58.4299953,80.1630569 57.6468913,80.9562339 56.6758424,80.9562339 Z" id="Path"></path>
                <path d="M40.15757,80.9562339 L31.3241576,80.9562339 C30.3531087,80.9562339 29.5700047,80.1630569 29.5700047,79.2028953 L29.5700047,70.4988217 C29.5700047,69.5386601 30.3531087,68.7454831 31.3241576,68.7454831 L40.15757,68.7454831 C41.1181775,68.7454831 41.9117228,69.5386601 41.9117228,70.4988217 L41.9117228,79.2028953 C41.9117228,80.1630569 41.1181775,80.9562339 40.15757,80.9562339 Z" id="Path"></path>
                <path d="M23.6288562,80.9562339 L14.7954438,80.9562339 C13.8348363,80.9562339 13.0412909,80.1630569 13.0412909,79.2028953 L13.0412909,70.4988217 C13.0412909,69.5386601 13.8348363,68.7454831 14.7954438,68.7454831 L23.6288562,68.7454831 C24.5894637,68.7454831 25.383009,69.5386601 25.383009,70.4988217 L25.383009,79.2028953 C25.383009,80.1630569 24.5999051,80.9562339 23.6288562,80.9562339 Z" id="Path"></path>
                <path d="M73.2045562,64.0281674 L64.3711438,64.0281674 C63.4000949,64.0281674 62.616991,63.245427 62.616991,62.2748289 L62.616991,53.5811918 C62.616991,52.6105936 63.4105363,51.8278532 64.3711438,51.8278532 L73.2045562,51.8278532 C74.1651637,51.8278532 74.9587091,52.6105936 74.9587091,53.5811918 L74.9587091,62.2748289 C74.9587091,63.2349905 74.1651637,64.0281674 73.2045562,64.0281674 Z" id="Path"></path>
                <path d="M56.6758424,64.0281674 L47.84243,64.0281674 C46.8818225,64.0281674 46.0882772,63.2349905 46.0882772,62.2748289 L46.0882772,53.5811918 C46.0882772,52.6105936 46.8818225,51.8278532 47.84243,51.8278532 L56.6758424,51.8278532 C57.6468913,51.8278532 58.4299953,52.6105936 58.4299953,53.5811918 L58.4299953,62.2748289 C58.4299953,63.2349905 57.6468913,64.0281674 56.6758424,64.0281674 Z" id="Path"></path>
                <path d="M40.15757,64.0281674 L31.3241576,64.0281674 C30.3531087,64.0281674 29.5700047,63.245427 29.5700047,62.2748289 L29.5700047,53.5811918 C29.5700047,52.6105936 30.3531087,51.8278532 31.3241576,51.8278532 L40.15757,51.8278532 C41.1181775,51.8278532 41.9117228,52.6105936 41.9117228,53.5811918 L41.9117228,62.2748289 C41.9117228,63.245427 41.1181775,64.0281674 40.15757,64.0281674 Z" id="Path"></path>
                <path d="M23.6288562,64.0281674 L14.7954438,64.0281674 C13.8348363,64.0281674 13.0412909,63.245427 13.0412909,62.2748289 L13.0412909,53.5811918 C13.0412909,52.6105936 13.8348363,51.8278532 14.7954438,51.8278532 L23.6288562,51.8278532 C24.5894637,51.8278532 25.383009,52.6105936 25.383009,53.5811918 L25.383009,62.2748289 C25.383009,63.245427 24.5999051,64.0281674 23.6288562,64.0281674 Z" id="Path"></path>
                <path d="M73.2045562,47.1105375 L64.3711438,47.1105375 C63.4000949,47.1105375 62.616991,46.3173606 62.616991,45.357199 L62.616991,36.6531254 C62.616991,35.6929638 63.4000949,34.8997868 64.3711438,34.8997868 L73.2045562,34.8997868 C74.1651637,34.8997868 74.9587091,35.6929638 74.9587091,36.6531254 L74.9587091,45.357199 C74.9587091,46.3173606 74.1651637,47.1105375 73.2045562,47.1105375 Z" id="Path"></path>
                <path d="M56.6758424,47.1105375 L47.84243,47.1105375 C46.8818225,47.1105375 46.0882772,46.3173606 46.0882772,45.357199 L46.0882772,36.6531254 C46.0882772,35.6929638 46.8818225,34.8997868 47.84243,34.8997868 L56.6758424,34.8997868 C57.6468913,34.8997868 58.4299953,35.6929638 58.4299953,36.6531254 L58.4299953,45.357199 C58.4299953,46.3173606 57.6468913,47.1105375 56.6758424,47.1105375 Z" id="Path"></path>
                <path d="M5.89938301,91.5597576 L82.100617,91.5597576 C84.5543427,91.5597576 86.5590888,89.5559421 86.5590888,87.1033554 L86.5590888,24.296263 L1.44091125,24.296263 L1.44091125,87.1033554 C1.44091125,89.5559421 3.44565733,91.5597576 5.89938301,91.5597576 Z M16.5704794,12.1585681 C18.6796393,14.1728201 18.7318462,17.5438222 16.6540104,19.610257 C14.6179402,21.6453821 11.3184623,21.6453821 9.28239203,19.610257 C7.20455624,17.5438222 7.26720456,14.1728201 9.36592311,12.1585681 L9.36592311,8.99629671 L5.89938301,8.99629671 C3.44565733,8.99629671 1.44091125,11.0105488 1.44091125,13.4631355 L1.44091125,22.8560206 L86.5590888,22.8560206 L86.5590888,13.4631355 C86.5590888,11.0105488 84.5543427,8.99629671 82.100617,8.99629671 L78.6340769,8.99629671 L78.6340769,12.1585681 C80.7327954,14.1728201 80.7954438,17.5438222 78.717608,19.610257 C76.6815377,21.6453821 73.3820598,21.6453821 71.3459896,19.610257 C69.2681538,17.5438222 69.3203607,14.1728201 71.4295206,12.1585681 L71.4295206,8.99629671 L63.1181775,8.99629671 L63.1181775,12.1585681 C65.2273374,14.1728201 65.2795444,17.5438222 63.2017086,19.610257 C61.1656383,21.6453821 57.8661604,21.6453821 55.8300902,19.610257 C53.7522544,17.5438222 53.8044613,14.1728201 55.9136213,12.1585681 L55.9136213,8.99629671 L47.6022781,8.99629671 L47.6022781,12.1585681 C49.7114381,14.1728201 49.763645,17.5438222 47.6858092,19.610257 C45.649739,21.6453821 42.350261,21.6453821 40.3141908,19.610257 C38.236355,17.5438222 38.2885619,14.1728201 40.3977219,12.1585681 L40.3977219,8.99629671 L32.0863787,8.99629671 L32.0863787,12.1585681 C34.1955387,14.1728201 34.2477456,17.5438222 32.1699098,19.610257 C30.1338396,21.6453821 26.8343617,21.6453821 24.7982914,19.610257 C22.7204556,17.5438222 22.7726626,14.1728201 24.8818225,12.1585681 L24.8818225,8.99629671 L16.5704794,8.99629671 L16.5704794,12.1585681 Z M78.6340769,14.7885759 C78.6340769,18.3161261 74.8438538,20.017282 72.4841006,17.6586242 C71.6383484,16.8132645 71.4295206,15.9261587 71.4295206,14.7885759 C70.6672995,17.209853 72.4632178,19.7041858 75.0317988,19.7041858 C77.5899383,19.7041858 79.3962981,17.209853 78.6340769,14.7885759 Z M63.1181775,14.7885759 C63.1181775,18.3161261 59.3279544,20.017282 56.9682012,17.6586242 C56.122449,16.8132645 55.9136213,15.9261587 55.9136213,14.7885759 C55.1514001,17.209853 56.9473185,19.7041858 59.5158994,19.7041858 C62.0740389,19.7041858 63.8803987,17.209853 63.1181775,14.7885759 Z M47.6022781,14.7885759 C47.6022781,18.3161261 43.8224964,20.017282 41.4523019,17.6586242 C40.616991,16.8132645 40.3977219,15.9365952 40.3977219,14.7885759 C39.6355007,17.209853 41.4418605,19.7041858 44,19.7041858 C46.5581395,19.7041858 48.3644993,17.209853 47.6022781,14.7885759 Z M32.0863787,14.7885759 C32.0863787,18.3161261 28.3065971,20.017282 25.9364025,17.6586242 C25.1010916,16.8132645 24.8818225,15.9365952 24.8818225,14.7885759 C24.1196013,17.209853 25.9259611,19.7041858 28.4841006,19.7041858 C31.0526815,19.7041858 32.8485999,17.209853 32.0863787,14.7885759 Z M9.36592311,7.56649085 L9.36592311,3.55885984 C9.36592311,-1.23151161 16.5704794,-1.13758276 16.5704794,3.55885984 L16.5704794,7.56649085 L24.8818225,7.56649085 L24.8818225,3.55885984 C24.8818225,-1.23151161 32.0863787,-1.13758276 32.0863787,3.55885984 L32.0863787,7.56649085 L40.3977219,7.56649085 L40.3977219,3.55885984 C40.3977219,-1.23151161 47.6022781,-1.13758276 47.6022781,3.55885984 L47.6022781,7.56649085 L55.9136213,7.56649085 L55.9136213,3.55885984 C55.9136213,-1.23151161 63.1181775,-1.13758276 63.1181775,3.55885984 L63.1181775,7.56649085 L71.4295206,7.56649085 L71.4295206,3.55885984 C71.4295206,-1.23151161 78.6340769,-1.13758276 78.6340769,3.55885984 L78.6340769,7.56649085 L82.100617,7.56649085 C85.347888,7.56649085 88,10.2173718 88,13.4631355 L88,87.1033554 C88,90.3491191 85.347888,93 82.100617,93 L5.89938301,93 C2.65211201,93 0,90.3491191 0,87.1033554 L0,13.4631355 C0,10.2173718 2.65211201,7.56649085 5.89938301,7.56649085 L9.36592311,7.56649085 Z M72.8599905,3.55885984 L72.8599905,15.1121086 C72.8599905,17.9925934 77.1931656,17.9299742 77.1931656,15.1121086 L77.1931656,3.55885984 C77.1931656,0.709684659 72.8599905,0.709684659 72.8599905,3.55885984 Z M57.3545325,3.55885984 L57.3545325,15.1121086 C57.3545325,17.9925934 61.6772663,17.9299742 61.6772663,15.1121086 L61.6772663,3.55885984 C61.6772663,0.709684659 57.3545325,0.709684659 57.3545325,3.55885984 Z M41.8386331,3.55885984 L41.8386331,15.1121086 C41.8386331,17.9925934 46.1613669,17.9299742 46.1613669,15.1121086 L46.1613669,3.55885984 C46.1613669,0.709684659 41.8386331,0.709684659 41.8386331,3.55885984 Z M26.3227337,3.55885984 L26.3227337,15.1121086 C26.3227337,17.9925934 30.6454675,17.9299742 30.6454675,15.1121086 L30.6454675,3.55885984 C30.6454675,0.709684659 26.3227337,0.709684659 26.3227337,3.55885984 Z M10.8068344,15.1121086 C10.8068344,17.0115587 13.124822,18.0134665 14.503085,16.6358433 C14.8894162,16.2496914 15.1400095,15.7069914 15.1400095,15.1121086 L15.1400095,3.55885984 C15.1400095,0.678375042 10.8068344,0.740994277 10.8068344,3.55885984 L10.8068344,15.1121086 Z M16.7479829,15.9261587 C16.7479829,15.5295702 16.6853346,15.1434182 16.5704794,14.7885759 C16.5704794,18.3161261 12.7906977,20.017282 10.4309445,17.6586242 C9.58519222,16.8132645 9.36592311,15.9365952 9.36592311,14.7885759 C8.60370195,17.209853 10.4100617,19.7041858 12.9682012,19.7041858 C15.0564784,19.7041858 16.7479829,18.0134665 16.7479829,15.9261587 Z" id="Shape" fill-rule="nonzero"></path>
                <path d="M8.86473659,30.1824711 L8.86473659,82.1042532 C8.86473659,84.0663225 10.47271,85.6735495 12.4356906,85.6735495 L75.5643094,85.6735495 C77.52729,85.6735495 79.1352634,84.0663225 79.1352634,82.1042532 L79.1352634,30.1824711 L8.86473659,30.1824711 Z M80.5761747,82.1042532 C80.5761747,84.8594995 78.3208353,87.1033554 75.5643094,87.1033554 L12.4356906,87.1033554 C9.67916469,87.1033554 7.42382534,84.8594995 7.42382534,82.1042532 L7.42382534,28.7422287 L80.5761747,28.7422287 L80.5761747,82.1042532 Z" id="Shape" fill-rule="nonzero"></path>
            </g>
        </g>
    </g>
</svg>