<?xml version="1.0" encoding="UTF-8"?>
<svg width="93px" height="93px" viewBox="0 0 93 93" version="1.1" xmlns="http://www.w3.org/2000/svg" xmlns:xlink="http://www.w3.org/1999/xlink">
    <!-- Generator: Sketch 52.3 (67297) - http://www.bohemiancoding.com/sketch -->
    <title>Group 2</title>
    <desc>Created with Sketch.</desc>
    <defs>
        <circle id="path-1" cx="42.5" cy="42.5" r="42.5"></circle>
        <filter x="-7.1%" y="-7.1%" width="114.1%" height="114.1%" filterUnits="objectBoundingBox" id="filter-3">
            <feOffset dx="0" dy="0" in="SourceAlpha" result="shadowOffsetOuter1"></feOffset>
            <feGaussianBlur stdDeviation="2" in="shadowOffsetOuter1" result="shadowBlurOuter1"></feGaussianBlur>
            <feColorMatrix values="0 0 0 0 0   0 0 0 0 0   0 0 0 0 0  0 0 0 0.5 0" type="matrix" in="shadowBlurOuter1"></feColorMatrix>
        </filter>
        <filter x="-16.0%" y="-12.3%" width="132.0%" height="124.6%" filterUnits="objectBoundingBox" id="filter-4">
            <feOffset dx="0" dy="0" in="SourceAlpha" result="shadowOffsetOuter1"></feOffset>
            <feGaussianBlur stdDeviation="2" in="shadowOffsetOuter1" result="shadowBlurOuter1"></feGaussianBlur>
            <feColorMatrix values="0 0 0 0 0   0 0 0 0 0   0 0 0 0 0  0 0 0 0.5 0" type="matrix" in="shadowBlurOuter1" result="shadowMatrixOuter1"></feColorMatrix>
            <feMerge>
                <feMergeNode in="shadowMatrixOuter1"></feMergeNode>
                <feMergeNode in="SourceGraphic"></feMergeNode>
            </feMerge>
        </filter>
    </defs>
    <g id="Page-1" stroke="none" stroke-width="1" fill="none" fill-rule="evenodd">
        <g id="Artboard" transform="translate(-198.000000, -100.000000)">
            <g id="Group-2" transform="translate(202.000000, 104.000000)">
                <mask id="mask-2" fill="white">
                    <use xlink:href="#path-1"></use>
                </mask>
                <g id="Mask">
                    <use fill="black" fill-opacity="1" filter="url(#filter-3)" xlink:href="#path-1"></use>
                    <use fill="#FFFFFF" fill-rule="evenodd" xlink:href="#path-1"></use>
                </g>
                <g id="profile" filter="url(#filter-4)" mask="url(#mask-2)">
                    <g transform="translate(17.000000, 9.000000)" id="Group">
                        <g transform="translate(0.925310, 0.922098)">
                            <path d="M0.0816519936,6.88968721 L0.0816519936,60.7524821 C0.0816519936,62.1011796 1.18158996,63.194567 2.53836753,63.194567 L45.7628118,63.194567 C47.1195894,63.194567 48.2196551,62.1011796 48.2196551,60.7524821 L48.2196551,6.88968721 L0.0816519936,6.88968721 Z" id="Path" fill="#DFEBFA"></path>
                            <path d="M4.29842162,60.7526092 L4.29842162,6.88968721 L0.0816519936,6.88968721 L0.0816519936,60.7524821 C0.0816519936,62.1011796 1.18158996,63.194567 2.53836753,63.194567 L6.75513715,63.194567 C5.39835958,63.194694 4.29842162,62.1013066 4.29842162,60.7526092 Z" id="Path" fill="#B1DBFC"></path>
                            <path d="M45.7628118,0.0655422761 L6.85863968,0.0655422761 L6.85863968,7.14385406 L48.2196551,7.14385406 L48.2196551,2.50762716 C48.2196551,1.15880268 47.1195894,0.0655422761 45.7628118,0.0655422761 Z" id="Path" fill="#5CB3F8"></path>
                            <path d="M7.11420148,0.0655422761 L2.53836753,0.0655422761 C1.18158996,0.0655422761 0.0816519936,1.1589297 0.0816519936,2.50762716 L0.0816519936,7.14385406 L7.11420148,7.14385406 L7.11420148,0.0655422761 Z" id="Path" fill="#FF656F"></path>
                            <path d="M6.75513715,0.0655422761 L2.53836753,0.0655422761 C1.18158996,0.0655422761 0.0816519936,1.1589297 0.0816519936,2.50762716 L0.0816519936,7.14385406 L4.29842162,7.14385406 L4.29842162,2.50762716 C4.29842162,1.15880268 5.39835958,0.0655422761 6.75513715,0.0655422761 Z" id="Path" fill="#FF4756"></path>
                            <path d="M24.1505897,11.040698 C19.222336,11.040698 15.2272662,15.0121027 15.2272662,19.9108797 C15.2272662,22.731865 16.5536319,25.2434298 18.6185713,26.8681415 L18.6185713,24.6162055 C18.6185713,22.9597388 19.864435,21.6044363 21.3870722,21.6044363 L26.9142349,21.6044363 C28.4368721,21.6044363 29.6827358,22.9597388 29.6827358,24.6162055 L29.6827358,26.8681415 C31.7476751,25.2435568 33.0740409,22.7319921 33.0740409,19.9108797 C33.0740409,15.0121027 29.0788433,11.040698 24.1505897,11.040698 Z" id="Path" fill="#5CB3F8"></path>
                            <path d="M19.2204193,19.9110068 C19.2204193,15.6947077 22.1807193,12.1681268 26.1471662,11.2664124 C25.5049394,11.1204665 24.8372842,11.040698 24.1505897,11.040698 C19.222336,11.040698 15.2272662,15.0121027 15.2272662,19.9108797 C15.2272662,22.731865 16.5536319,25.2434298 18.6185713,26.8681415 L18.6185713,24.6162055 C18.6185713,23.7174126 18.9859413,22.9077876 19.5647888,22.3547429 C19.3410445,21.5785242 19.2204193,20.7588647 19.2204193,19.9110068 Z" id="Path" fill="#0290F4"></path>
                            <ellipse id="Oval" fill="#FFCEBE" cx="24.1505897" cy="18.1367926" rx="3.26262966" ry="3.24319949"></ellipse>
                            <path d="M23.6992675,18.1367926 C23.6992675,16.8460162 24.4580305,15.7314165 25.5563073,15.2094916 C25.1306691,15.0071489 24.6540464,14.8937201 24.1507174,14.8937201 C22.348879,14.8937201 20.8880878,16.3456848 20.8880878,18.1369196 C20.8880878,19.9281545 22.3487512,21.3799921 24.1505897,21.3799921 C24.6539186,21.3799921 25.1305414,21.2665633 25.5561795,21.0642206 C24.4580305,20.5421687 23.6992675,19.427696 23.6992675,18.1367926 Z" id="Path" fill="#FFB1A0"></path>
                            <path d="M27.0007426,21.3799921 L21.3005645,21.3799921 C19.7302651,21.3799921 18.4455559,22.6571773 18.4455559,24.217998 L18.4455559,26.730579 C19.9923437,28.0105587 21.9807422,28.7811885 24.1507174,28.7811885 C26.3206926,28.7811885 28.3090912,28.0106857 29.855879,26.730579 L29.855879,24.217998 C29.8557512,22.6571773 28.571042,21.3799921 27.0007426,21.3799921 Z" id="Path" fill="#FF656F"></path>
                            <path d="M21.2567357,23.9639582 C21.2567357,22.8190007 21.9484137,21.8274832 22.9365433,21.3799921 L21.3006923,21.3799921 C19.7303928,21.3799921 18.4455559,22.6571773 18.4455559,24.217998 L18.4455559,26.730579 C19.2699983,27.4128029 20.2208159,27.9484459 21.2567357,28.3016883 L21.2567357,23.9639582 Z" id="Path" fill="#FF4756"></path>
                            <g transform="translate(5.366798, 33.533258)" fill="#43CB8E" id="Path">
                                <path d="M10.8142252,0.0375978948 L1.3318603,0.0375978948 C0.608620416,0.0375978948 0.0223616571,0.620365265 0.0223616571,1.33929798 L0.0223616571,8.71115279 C0.0223616571,9.4300855 0.608620416,10.0128529 1.3318603,10.0128529 L10.8142252,10.0128529 C11.537465,10.0128529 12.1237238,9.4300855 12.1237238,8.71115279 L12.1237238,1.33929798 C12.1237238,0.620365265 11.537465,0.0375978948 10.8142252,0.0375978948 Z"></path>
                                <path d="M10.8142252,14.2967265 L1.3318603,14.2967265 C0.608620416,14.2967265 0.0223616571,14.8794939 0.0223616571,15.5984266 L0.0223616571,22.9702814 C0.0223616571,23.6892141 0.608620416,24.2719815 1.3318603,24.2719815 L10.8142252,24.2719815 C11.537465,24.2719815 12.1237238,23.6892141 12.1237238,22.9702814 L12.1237238,15.5984266 C12.1237238,14.8796209 11.537465,14.2967265 10.8142252,14.2967265 Z"></path>
                            </g>
                        </g>
                        <g>
                            <path d="M44.2446535,3.53583716 L12.6525466,3.53583716 C12.1244543,3.53583716 11.6965504,3.96197006 11.6965504,4.4875932 C11.6965504,5.01321634 12.1244543,5.43934925 12.6525466,5.43934925 L44.244781,5.43934925 C44.7728733,5.43934925 45.2007773,5.01321634 45.2007773,4.4875932 C45.2007773,3.96197006 44.7727459,3.53583716 44.2446535,3.53583716 Z" id="Path" fill="#000000"></path>
                            <path d="M19.2957008,35.7261301 C19.2957008,34.4842788 18.2809427,33.4738946 17.0335587,33.4738946 L7.57442201,33.4738946 C6.3270381,33.4738946 5.31215248,34.4841519 5.31215248,35.7261301 L5.31215248,43.0910722 C5.31215248,44.3329235 6.3270381,45.3433077 7.57442201,45.3433077 L17.0335587,45.3433077 C18.2809427,45.3433077 19.2957008,44.3330504 19.2957008,43.0910722 L19.2957008,35.7261301 Z M17.3837083,43.0910722 C17.3837083,43.2833269 17.22667,43.4397956 17.0335587,43.4397956 L7.57442201,43.4397956 C7.3811833,43.4397956 7.22414498,43.2834538 7.22414498,43.0910722 L7.22414498,35.7261301 C7.22414498,35.5338754 7.3811833,35.3774067 7.57442201,35.3774067 L17.0335587,35.3774067 C17.22667,35.3774067 17.3837083,35.5337485 17.3837083,35.7261301 L17.3837083,43.0910722 Z" id="Shape" fill="#000000" fill-rule="nonzero"></path>
                            <path d="M17.0335587,47.7197791 L7.57442201,47.7197791 C6.3270381,47.7197791 5.31215248,48.7301633 5.31215248,49.9720146 L5.31215248,57.3369567 C5.31215248,58.578808 6.3270381,59.5891922 7.57442201,59.5891922 L17.0335587,59.5891922 C18.2809427,59.5891922 19.2957008,58.578808 19.2957008,57.3369567 L19.2957008,49.9720146 C19.2957008,48.7300364 18.2809427,47.7197791 17.0335587,47.7197791 Z M17.3837083,57.3368298 C17.3837083,57.5290845 17.22667,57.6855532 17.0335587,57.6855532 L7.57442201,57.6855532 C7.3811833,57.6855532 7.22414498,57.5290845 7.22414498,57.3368298 L7.22414498,49.9718877 C7.22414498,49.779633 7.3811833,49.6231643 7.57442201,49.6231643 L17.0335587,49.6231643 C17.22667,49.6231643 17.3837083,49.779633 17.3837083,49.9718877 L17.3837083,57.3368298 Z" id="Shape" fill="#000000" fill-rule="nonzero"></path>
                            <path d="M42.7920491,34.7006447 L22.8344165,34.7006447 C22.3063242,34.7006447 21.8784203,35.1267776 21.8784203,35.6524007 C21.8784203,36.1780239 22.3063242,36.6041568 22.8344165,36.6041568 L42.7920491,36.6041568 C43.3201414,36.6041568 43.7480454,36.1780239 43.7480454,35.6524007 C43.7480454,35.1267776 43.320014,34.7006447 42.7920491,34.7006447 Z" id="Path" fill="#000000"></path>
                            <path d="M42.7920491,38.4569086 L22.8344165,38.4569086 C22.3063242,38.4569086 21.8784203,38.8830415 21.8784203,39.4086646 C21.8784203,39.9342877 22.3063242,40.3604207 22.8344165,40.3604207 L42.7920491,40.3604207 C43.3201414,40.3604207 43.7480454,39.9342877 43.7480454,39.4086646 C43.7480454,38.8830415 43.320014,38.4569086 42.7920491,38.4569086 Z" id="Path" fill="#000000"></path>
                            <path d="M42.7920491,42.2131724 L22.8344165,42.2131724 C22.3063242,42.2131724 21.8784203,42.6393053 21.8784203,43.1649285 C21.8784203,43.6905516 22.3063242,44.1166845 22.8344165,44.1166845 L42.7920491,44.1166845 C43.3201414,44.1166845 43.7480454,43.6905516 43.7480454,43.1649285 C43.7480454,42.6393053 43.320014,42.2131724 42.7920491,42.2131724 Z" id="Path" fill="#000000"></path>
                            <path d="M42.7920491,48.9464023 L22.8344165,48.9464023 C22.3063242,48.9464023 21.8784203,49.3725352 21.8784203,49.8981583 C21.8784203,50.4237815 22.3063242,50.8499144 22.8344165,50.8499144 L42.7920491,50.8499144 C43.3201414,50.8499144 43.7480454,50.4237815 43.7480454,49.8981583 C43.7480454,49.3725352 43.320014,48.9464023 42.7920491,48.9464023 Z" id="Path" fill="#000000"></path>
                            <path d="M42.7920491,52.7026661 L22.8344165,52.7026661 C22.3063242,52.7026661 21.8784203,53.1287991 21.8784203,53.6544222 C21.8784203,54.1800453 22.3063242,54.6061782 22.8344165,54.6061782 L42.7920491,54.6061782 C43.3201414,54.6061782 43.7480454,54.1800453 43.7480454,53.6544222 C43.7480454,53.1287991 43.320014,52.7026661 42.7920491,52.7026661 Z" id="Path" fill="#000000"></path>
                            <path d="M42.7920491,56.45893 L22.8344165,56.45893 C22.3063242,56.45893 21.8784203,56.8850629 21.8784203,57.410686 C21.8784203,57.9363092 22.3063242,58.3624421 22.8344165,58.3624421 L42.7920491,58.3624421 C43.3201414,58.3624421 43.7480454,57.9363092 43.7480454,57.410686 C43.7480454,56.8850629 43.320014,56.45893 42.7920491,56.45893 Z" id="Path" fill="#000000"></path>
                            <path d="M13.5530951,37.5844655 L11.916557,39.2138719 L11.0546307,38.3557686 C10.6811549,37.9840762 10.0759455,37.9840762 9.70259712,38.3557686 C9.32924872,38.7274611 9.32924872,39.330113 9.70259712,39.7016786 L11.2404764,41.2327368 C11.6136974,41.6041755 12.2190342,41.6044293 12.59251,41.2327368 L14.9051287,38.9303755 C15.2784771,38.558683 15.2784771,37.9560311 14.9051287,37.5844655 C14.5317803,37.2129 13.9265709,37.2129 13.5530951,37.5844655 Z" id="Path" fill="#000000"></path>
                            <path d="M13.5530951,51.8302231 L11.916557,53.4596295 L11.0545033,52.6015262 C10.6812823,52.2297068 10.0759455,52.2298337 9.70259712,52.6015262 C9.32924872,52.9732187 9.32924872,53.5758706 9.70272459,53.9474362 L11.2406039,55.4784944 C11.6135699,55.8500599 12.2189067,55.8503137 12.59251,55.4784944 L14.9051287,53.1761331 C15.2784771,52.8044406 15.2784771,52.2017887 14.9051287,51.8302231 C14.5317803,51.4585306 13.9265709,51.4585306 13.5530951,51.8302231 Z" id="Path" fill="#000000"></path>
                            <path d="M24.9834961,30.5922311 C30.4317824,30.5922311 34.8408371,26.1712608 34.8408371,20.7786111 C34.8408371,16.301043 31.8028085,12.3933865 27.4530256,11.2757711 C26.9413764,11.1445557 26.4201672,11.4506404 26.2884947,11.9595127 C26.1565672,12.4685118 26.4640156,12.9875361 26.9752824,13.1188784 C30.480602,14.0194934 32.9288446,17.1691715 32.9288446,20.7784842 C32.9288446,22.3742618 32.4502092,23.8600164 31.6304743,25.104152 L31.6304743,25.0814367 C31.6304743,23.2124416 30.2631447,21.656384 28.4723725,21.3500454 C28.9276817,20.6805168 29.193831,19.8735545 29.193831,19.0059337 C29.193831,16.6945624 27.3050374,14.8140194 24.9833686,14.8140194 C22.6615724,14.8140194 20.7727787,16.6944355 20.7727787,19.0059337 C20.7727787,19.8735545 21.0389281,20.6805168 21.4942372,21.3500454 C19.7034651,21.6565109 18.3361355,23.2125685 18.3361355,25.0814367 L18.3361355,25.104152 C17.5165281,23.8600164 17.0377651,22.3742618 17.0377651,20.7784842 C17.0377651,17.1691715 19.4860078,14.0193665 22.9914548,13.1188784 C23.5027216,12.9875361 23.81017,12.4685118 23.6782425,11.9595127 C23.5464425,11.4506404 23.0247235,11.1444288 22.5137116,11.2757711 C18.1638012,12.3933865 15.1257726,16.301043 15.1257726,20.7786111 C15.1260276,26.1570479 19.5162173,30.5922311 24.9834961,30.5922311 Z M24.9834961,16.7177853 C26.2508922,16.7177853 27.281966,17.7442859 27.281966,19.0061875 C27.281966,20.2680891 26.2508922,21.2945898 24.9834961,21.2945898 C23.7161,21.2945898 22.6848987,20.2680891 22.6848987,19.0061875 C22.6848987,17.7442859 23.7161,16.7177853 24.9834961,16.7177853 Z M20.2483829,25.0815636 C20.2483829,24.0428805 21.0971801,23.1979749 22.1404907,23.1979749 L27.8266289,23.1979749 C28.8699395,23.1979749 29.7186092,24.0430074 29.7186092,25.0815636 L29.7186092,27.1263163 C28.2997833,28.1780702 26.6173574,28.688719 24.9836235,28.688719 C23.3463206,28.688719 21.6630024,28.1748977 20.2485104,27.1263163 L20.2485104,25.0815636 L20.2483829,25.0815636 Z" id="Shape" fill="#000000" fill-rule="nonzero"></path>
                            <path d="M0.0178452633,3.39155094 L0.0178452633,61.5819155 C0.0178452633,63.4520527 1.54603713,64.9734665 3.42450603,64.9734665 L46.5426136,64.9734665 C48.4210825,64.9734665 49.9494018,63.4520527 49.9494018,61.5819155 L49.9494018,34.7074973 C49.9494018,34.1818742 49.5214979,33.7557413 48.9934056,33.7557413 C48.4653133,33.7557413 48.0374093,34.1818742 48.0374093,34.7074973 L48.0374093,61.5819155 C48.0374093,62.4024562 47.3668098,63.0699544 46.5426136,63.0699544 L3.42437856,63.0699544 C2.60018233,63.0699544 1.92971029,62.4024562 1.92971029,61.5819155 L1.92971029,8.97518641 L48.0371544,8.97518641 L48.0371544,30.2659691 C48.0371544,30.7915923 48.4650583,31.2177252 48.9931506,31.2177252 C49.521243,31.2177252 49.9491469,30.7915923 49.9491469,30.2659691 L49.9491469,3.39155094 C49.9491469,1.52141376 48.420955,-5.68434189e-14 46.5424861,-5.68434189e-14 L3.42437856,-5.68434189e-14 C1.54603713,-5.68434189e-14 0.0178452633,1.52141376 0.0178452633,3.39155094 Z M8.94493823,1.90351209 L46.5424861,1.90351209 C47.3666824,1.90351209 48.0372819,2.57101033 48.0372819,3.39155094 L48.0372819,7.07167432 L8.94493823,7.07167432 L8.94493823,1.90351209 Z M7.03294573,7.07167432 L1.92983776,7.07167432 L1.92983776,3.39155094 C1.92983776,2.57101033 2.60018233,1.90351209 3.42437856,1.90351209 L7.03294573,1.90351209 L7.03294573,7.07167432 Z" id="Shape" fill="#000000" fill-rule="nonzero"></path>
                        </g>
                    </g>
                </g>
            </g>
        </g>
    </g>
</svg>