<?xml version="1.0" encoding="UTF-8"?>
<svg width="104px" height="329px" viewBox="0 0 104 329" version="1.1" xmlns="http://www.w3.org/2000/svg" xmlns:xlink="http://www.w3.org/1999/xlink">
    <!-- Generator: Sketch 52.3 (67297) - http://www.bohemiancoding.com/sketch -->
    <title>Group</title>
    <desc>Created with Sketch.</desc>
    <g id="Page-1" stroke="none" stroke-width="1" fill="none" fill-rule="evenodd">
        <g id="Group">
            <polygon id="Fill-83" fill="#E4E4DE" points="29.445 156.189 59.07 156.189 59.07 110.866 29.445 110.866"></polygon>
            <polygon id="Fill-86" fill="#DDDED8" points="32.779 156.189 47.804 156.189 47.804 118.201 32.779 118.201"></polygon>
            <path d="M20.721,11.18 C14.504,12.482 10.469,18.453 14.559,26.244 C18.649,34.034 4.73,39.837 13.347,45.758 C21.965,51.679 40.912,50.494 54.529,43.39 C68.148,36.284 48.964,9.025 48.964,9.025 L20.721,11.18" id="Fill-221" fill="#132529"></path>
            <polyline id="Fill-222" fill="#EFA573" points="51.914 308.842 61.922 311.627 74.536 283.835 60.626 277.811 51.914 308.842"></polyline>
            <path d="M63.357,309.048 L53.19,303.142 C52.82,302.927 52.398,302.969 52.174,303.243 L47.187,309.349 C46.67,309.981 47.011,311.063 47.872,311.547 C51.446,313.555 53.252,314.371 57.724,316.969 C60.474,318.566 64.414,320.638 68.319,322.648 C72.139,324.615 74.058,321.516 72.579,320.384 C65.947,315.309 66.039,313.474 64.605,310.394 C64.346,309.84 63.898,309.362 63.357,309.048" id="Fill-223" fill="#132529"></path>
            <path d="M68.506,311.713 C68.672,311.809 68.796,311.908 68.869,312.011 C68.934,312.102 68.944,312.188 68.901,312.289 C68.789,312.548 68.601,312.69 68.327,312.724 C67.542,312.821 66.011,312.029 64.166,310.583 C65.691,310.802 67.648,311.215 68.506,311.713 Z M66.002,312.353 C66.902,312.877 67.798,313.241 68.462,313.159 C68.883,313.107 69.181,312.887 69.345,312.505 C69.444,312.276 69.412,312.037 69.253,311.813 C68.434,310.656 63.949,310.114 63.441,310.056 C63.341,310.044 63.253,310.093 63.223,310.176 L63.308,310.427 C64.003,311.002 65.005,311.775 66.002,312.353 Z" id="Fill-224" fill="#3769A4"></path>
            <path d="M67.249,308.615 L67.375,308.696 C67.748,308.957 67.699,309.103 67.683,309.151 C67.49,309.728 65.311,310.181 63.895,310.103 C64.338,309.567 65.334,308.511 66.376,308.421 C66.69,308.393 66.978,308.458 67.249,308.615 Z M63.348,310.454 L63.445,310.489 C64.755,310.705 67.818,310.3 68.138,309.339 C68.214,309.111 68.187,308.758 67.621,308.362 C67.198,308.07 66.744,307.941 66.258,307.984 C64.67,308.122 63.302,310.053 63.244,310.135 L63.243,310.35 L63.348,310.454 Z" id="Fill-225" fill="#3769A4"></path>
            <path d="M63.678,60.328 C64.34,62.991 65.065,65.86 65.868,68.595 C66.658,71.356 67.509,74.093 68.417,76.783 C69.337,79.467 70.335,82.1 71.441,84.608 C72.563,87.092 73.804,89.503 75.203,91.403 L75.463,91.759 L75.496,91.806 L75.48,91.812 C75.428,91.761 75.328,91.718 75.102,91.606 C74.895,91.514 74.584,91.465 74.356,91.462 C74.124,91.462 73.96,91.522 73.935,91.542 C73.852,91.616 74.146,91.53 74.481,91.311 C74.825,91.097 75.241,90.767 75.66,90.383 C77.36,88.794 79.115,86.552 80.702,84.25 C83.913,79.604 86.914,74.491 89.748,69.427 L89.786,69.36 C90.501,68.084 92.114,67.628 93.391,68.343 C94.51,68.97 94.997,70.289 94.619,71.465 C92.74,77.309 90.514,82.907 87.584,88.444 C86.84,89.822 86.044,91.192 85.163,92.561 C84.275,93.932 83.311,95.29 82.078,96.644 C81.459,97.322 80.777,98.003 79.929,98.675 C79.072,99.335 78.073,100.03 76.557,100.518 C75.823,100.761 74.912,100.919 73.939,100.89 C72.966,100.874 71.924,100.614 71.046,100.212 C70.133,99.807 69.456,99.276 68.847,98.737 L68.45,98.339 C68.333,98.218 68.157,98.032 68.11,97.973 L67.671,97.46 C65.351,94.712 63.712,91.874 62.249,89.015 C60.793,86.159 59.574,83.269 58.475,80.362 C57.376,77.458 56.412,74.531 55.55,71.583 C54.705,68.608 53.909,65.727 53.264,62.592 C52.67,59.71 54.525,56.891 57.408,56.298 C60.215,55.72 62.962,57.464 63.651,60.22 L63.678,60.328" id="Fill-226" fill="#EFA573"></path>
            <path d="M58.106,53.162 C62.393,54.244 65.689,58.384 66.961,61.016 C64.435,66.377 55.109,78.367 55.109,78.367 C55.109,78.367 47.011,50.305 58.106,53.162" id="Fill-227" fill="#132529"></path>
            <polyline id="Fill-228" fill="#EFA573" points="49.886 320.479 59.506 320.81 58.582 287.314 45.28 287.505 49.886 320.479"></polyline>
            <path d="M60.204,317.752 L49.435,317.675 C49.043,317.672 48.772,317.941 48.782,318.323 L49.017,326.824 C49.042,327.706 49.945,328.547 50.847,328.537 C54.59,328.499 56.361,328.292 61.097,328.326 C64.01,328.347 68.319,328.679 72.342,328.707 C76.277,328.735 75.897,324.765 74.16,324.392 C66.371,322.726 64.802,320.492 61.907,318.351 C61.385,317.966 60.777,317.756 60.204,317.752" id="Fill-229" fill="#132529"></path>
            <path d="M62.747,58.292 C64.087,64.626 65.649,78.935 65.689,111.228 L27.212,114.632 C25.445,100.074 23.98,90.68 13.822,64.584 C12.294,60.658 14.598,56.28 18.704,55.334 C21.182,54.764 24.044,54.19 26.962,53.788 C33.386,52.901 38.657,52.224 44.434,52.243 C48.699,52.258 53.333,52.577 56.586,52.856 C59.614,53.116 62.119,55.318 62.747,58.292" id="Fill-230" fill="#132529"></path>
            <path d="M53.212,109.731 C54.676,107.407 54.846,104.455 55.003,101.753 C55.022,101.415 55.042,101.082 55.063,100.755 C55.386,96.234 55.3,91.506 54.808,86.701 C54.435,83.064 53.116,79.501 51.84,76.056 C51.557,75.292 51.275,74.529 51.002,73.768 C49.121,68.496 48.784,63.188 50.029,58.419 C50.272,57.492 50.608,56.539 51.423,55.858 C51.981,55.393 52.58,55.208 53.163,55.208 C54.051,55.208 54.902,55.64 55.508,56.171 C57.694,58.085 58.54,60.665 59.218,63.143 C59.453,64.002 59.671,64.865 59.89,65.727 C60.436,67.88 61,70.106 61.82,72.228 C62.664,74.414 63.761,76.418 64.903,78.232 C64.921,78.556 64.939,78.891 64.957,79.223 C63.635,77.199 62.335,74.926 61.362,72.406 C60.532,70.256 59.963,68.015 59.414,65.848 C59.196,64.988 58.978,64.129 58.744,63.272 C58.085,60.866 57.268,58.364 55.185,56.54 C54.64,56.063 53.919,55.693 53.176,55.693 C52.692,55.693 52.199,55.85 51.738,56.235 C51.029,56.828 50.727,57.694 50.505,58.544 C49.285,63.217 49.617,68.424 51.465,73.602 C51.737,74.362 52.019,75.123 52.3,75.885 C53.587,79.359 54.917,82.952 55.296,86.65 C55.791,91.484 55.878,96.241 55.553,100.788 C55.532,101.113 55.513,101.445 55.493,101.781 C55.339,104.436 55.167,107.322 53.816,109.678 L53.212,109.731" id="Fill-231" fill="#26373A"></path>
            <path d="M60.995,109.043 C60.929,108.852 60.869,108.669 60.815,108.494 C60.253,106.672 60.239,104.935 60.773,103.471 C61.603,101.197 63.612,99.672 65.556,98.197 L65.579,98.18 C65.582,98.382 65.585,98.586 65.588,98.79 C63.786,100.161 61.978,101.602 61.234,103.639 C60.737,105.002 60.754,106.631 61.285,108.35 C61.35,108.562 61.421,108.779 61.498,108.998 L60.995,109.043" id="Fill-232" fill="#26373A"></path>
            <path d="M40.181,110.884 C39.671,109.848 39.57,108.534 39.87,106.915 C40.287,104.663 40.809,102.228 41.466,99.473 C42.124,96.716 42.848,93.924 43.548,91.225 C44.097,89.109 44.645,86.994 45.169,84.875 C46.87,77.99 47.17,72.455 46.116,67.454 C45.547,64.753 44.927,61.814 43.643,59.121 C43.864,59.211 44.087,59.302 44.311,59.394 C45.468,61.996 46.055,64.78 46.597,67.352 C47.667,72.429 47.365,78.033 45.646,84.992 C45.122,87.114 44.573,89.231 44.024,91.348 C43.324,94.045 42.601,96.834 41.944,99.586 C41.289,102.335 40.768,104.761 40.353,107.005 C40.057,108.6 40.176,109.868 40.718,110.836 L40.181,110.884" id="Fill-233" fill="#26373A"></path>
            <path d="M22.481,89.517 C22.34,89.019 22.194,88.515 22.042,88.003 C22.042,88.002 22.042,88.002 22.043,88.001 C22.194,88.514 22.34,89.018 22.481,89.515 C22.481,89.516 22.481,89.516 22.481,89.517" id="Fill-234" fill="#FFFFFE"></path>
            <path d="M22.481,89.515 C22.34,89.018 22.194,88.514 22.043,88.001 C22.228,84.802 22.916,81.614 24.1,78.578 C24.598,77.301 25.163,76.075 25.71,74.891 C27.603,70.78 29.393,66.897 27.989,61.757 C27.195,58.852 24.927,56.581 22.371,54.558 C22.583,54.516 22.796,54.477 23.01,54.436 C25.497,56.446 27.668,58.72 28.462,61.628 C29.914,66.94 28.088,70.902 26.155,75.096 C25.612,76.274 25.051,77.493 24.558,78.756 C23.209,82.214 22.51,85.875 22.481,89.515" id="Fill-235" fill="#26373A"></path>
            <path d="M24.39,97 C24.389,96.999 24.389,96.999 24.388,96.999 C24.338,96.776 24.288,96.554 24.236,96.329 C24.237,96.329 24.237,96.33 24.238,96.33 C24.289,96.554 24.34,96.778 24.39,97" id="Fill-236" fill="#FFFFFE"></path>
            <path d="M26.32,97.452 C26.22,97.452 26.121,97.449 26.022,97.443 C25.409,97.404 24.868,97.246 24.39,97 C24.34,96.778 24.289,96.554 24.238,96.33 C24.704,96.666 25.287,96.903 26.054,96.953 C26.141,96.958 26.229,96.961 26.318,96.961 C27.523,96.961 28.784,96.487 29.735,95.647 C30.932,94.593 31.442,93.189 31.9,91.725 C33.918,85.266 36.206,77.946 36.893,70.644 C37.112,68.311 37.027,65.981 36.639,63.721 L36.603,63.509 C36.167,60.956 35.786,58.724 33.014,55.342 C33.282,55.422 33.557,55.506 33.84,55.594 C36.295,58.786 36.681,61.049 37.087,63.426 L37.123,63.638 C37.518,65.94 37.606,68.313 37.382,70.69 C36.69,78.044 34.394,85.39 32.369,91.871 C31.889,93.405 31.352,94.877 30.06,96.017 C29.021,96.932 27.642,97.452 26.32,97.452" id="Fill-237" fill="#26373A"></path>
            <path d="M18.721,77.766 C18.047,75.839 17.313,73.801 16.51,71.637 L21.627,63.126 C21.801,67.804 20.827,74.786 18.721,77.766" id="Fill-238" fill="#09181B"></path>
            <path d="M25.469,33.831 C27.492,39.392 30.28,49.664 26.962,53.788 C26.962,53.788 34.232,55.076 46.139,60.16 C49.558,53.41 44.434,52.243 44.434,52.243 C37.92,51.291 37.319,46.595 37.695,42.1 L25.469,33.831" id="Fill-239" fill="#EFA573"></path>
            <path d="M37.657,45.266 C37.65,45.183 37.644,45.1 37.639,45.017 C37.645,45.1 37.652,45.183 37.659,45.266 C37.659,45.266 37.658,45.266 37.657,45.266 M37.69,42.097 L29.163,36.329 C29.214,36.148 29.257,35.992 29.279,35.87 L37.69,42.097" id="Fill-240" fill="#09181B"></path>
            <path d="M37.494,45.272 C35.523,45.272 30.249,42.635 28.986,39.13 C28.631,38.145 28.96,37.042 29.163,36.329 L37.69,42.097 C37.604,43.075 37.57,44.062 37.639,45.017 C37.644,45.1 37.65,45.183 37.657,45.266 C37.606,45.27 37.551,45.272 37.494,45.272" id="Fill-241" fill="#D0885A"></path>
            <path d="M24.798,18.916 C23.91,28.375 23.332,32.36 27.314,37.908 C33.302,46.254 45.116,45.275 48.812,36.271 C52.139,28.168 53.031,14.06 44.442,8.898 C35.98,3.813 25.686,9.456 24.798,18.916" id="Fill-242" fill="#EFA573"></path>
            <path d="M23.596,24.236 C30.535,25.31 34.945,17.16 34.945,12.778 C41.436,16.213 47.385,13.59 49.983,16.049 C54.766,20.578 55.655,28.113 50.326,38.949 C47.615,44.461 51.179,46.402 56.543,45.272 C64.329,43.633 69.616,37.592 59.609,22.954 C52.635,12.753 57.197,10.143 50.578,4.667 C42.633,-1.906 16.51,-1.965 20.721,11.18 C19.822,21.364 23.596,24.236 23.596,24.236" id="Fill-243" fill="#132529"></path>
            <path d="M23.485,23.517 C23.485,23.517 23.74,24.074 24.827,25.466 C25.953,24.94 28.16,24.424 30.066,25.743 C28.531,22.377 25.395,22.506 23.485,23.517" id="Fill-244" fill="#132529"></path>
            <path d="M24.133,23.845 C24.133,23.845 24.128,24.457 24.523,26.178 C25.766,26.18 27.984,26.647 29.151,28.649 C29.187,24.95 26.292,23.738 24.133,23.845" id="Fill-245" fill="#132529"></path>
            <path d="M65.335,111.228 C65.335,111.228 95.353,186.233 95.833,207.938 C96.395,233.318 74.536,285.855 74.536,285.855 L59.125,279.021 C59.125,279.021 70.064,236.798 75.327,214.459 C68.267,193.147 36.248,134.792 34.088,114.017 L65.335,111.228" id="Fill-246" fill="#3769A4"></path>
            <path d="M75.739,282.887 L59.858,276.183 C62.395,266.35 70.884,233.318 75.327,214.459 C72.679,206.466 66.52,193.26 59.742,178.782 C59.742,178.779 59.742,178.775 59.741,178.772 C61.561,182.659 63.336,186.453 65.01,190.079 C64.902,178.177 63.536,164.99 59.205,154.403 C58.779,136.208 58.346,119.631 58.187,113.654 L61.849,113.33 L61.856,113.467 C61.863,113.589 62.01,113.678 62.195,113.678 C62.212,113.678 62.229,113.677 62.247,113.676 L63.29,113.583 C63.493,113.565 63.655,113.447 63.656,113.317 C63.656,113.314 63.656,113.311 63.655,113.308 L63.648,113.171 L66.022,112.961 C70.504,124.31 95.396,188.189 95.833,207.938 C95.84,208.261 95.844,208.587 95.844,208.918 C95.844,219.941 91.932,235.641 87.461,249.988 C87.435,250.071 87.409,250.156 87.383,250.238 C82.944,264.446 77.974,277.288 75.739,282.887" id="Fill-247" fill="#1D5697"></path>
            <polyline id="Fill-248" fill="#3769A4" points="57.151 280.422 75.518 287.649 78.314 283.974 57.925 275.366 57.151 280.422"></polyline>
            <path d="M65.01,190.079 C63.336,186.453 61.561,182.659 59.741,178.772 C59.581,170.852 59.394,162.469 59.205,154.403 C63.536,164.99 64.902,178.177 65.01,190.079" id="Fill-249" fill="#194876"></path>
            <path d="M58.124,111.298 C58.124,111.298 60.085,183.978 60.206,209.041 C60.35,238.798 59.313,288.099 59.313,288.099 L44.925,287.505 C44.925,287.505 39.245,245.467 38.807,218.806 C34.7,183.417 22.813,136.892 27.212,114.632 L58.124,111.298" id="Fill-250" fill="#3769A4"></path>
            <path d="M59.313,288.099 L58.603,288.07 L45.282,287.52 L44.925,287.505 C44.925,287.505 39.245,245.467 38.807,218.806 C36.512,199.029 31.787,175.773 28.832,155.219 C28.443,152.512 28.085,149.853 27.767,147.253 C26.837,139.653 26.252,132.574 26.251,126.369 C26.25,122.729 26.451,119.389 26.901,116.421 L30.771,116.079 L30.779,116.216 C30.785,116.338 30.935,116.427 31.12,116.427 C31.136,116.427 31.153,116.426 31.17,116.425 L32.213,116.332 C32.416,116.314 32.577,116.195 32.578,116.066 C32.578,116.063 32.578,116.06 32.578,116.057 L32.571,115.92 L46.31,114.704 L46.318,114.842 C46.324,114.963 46.472,115.052 46.656,115.052 C46.673,115.052 46.691,115.051 46.708,115.05 L47.752,114.958 C47.955,114.94 48.116,114.821 48.117,114.692 C48.117,114.689 48.117,114.686 48.117,114.683 L48.109,114.545 L58.187,113.654 C58.523,126.329 60.098,186.664 60.206,209.041 C60.215,210.973 60.22,212.988 60.22,215.067 C60.22,225.873 60.101,238.395 59.95,249.988 C59.949,250.07 59.948,250.157 59.947,250.238 C59.819,260.068 59.667,269.21 59.544,276.05 C59.509,278.01 59.476,279.782 59.447,281.325 C59.366,285.575 59.313,288.099 59.313,288.099" id="Fill-251" fill="#1D5697"></path>
            <polyline id="Fill-252" fill="#3769A4" points="44.115 290.122 60.495 289.659 61.107 284.489 42.467 283.974 44.115 290.122"></polyline>
            <path d="M40.142,23.714 C40.023,24.477 40.331,25.158 40.829,25.236 C41.328,25.314 41.829,24.759 41.948,23.996 C42.067,23.233 41.759,22.552 41.26,22.474 C40.762,22.395 40.261,22.951 40.142,23.714" id="Fill-253" fill="#132529"></path>
            <path d="M48.765,25.06 C48.646,25.823 48.954,26.505 49.453,26.583 C49.951,26.661 50.452,26.105 50.571,25.343 C50.69,24.58 50.383,23.898 49.884,23.82 C49.385,23.742 48.885,24.298 48.765,25.06" id="Fill-254" fill="#132529"></path>
            <path d="M49.657,23.828 L51.572,23.586 C51.572,23.586 50.408,24.87 49.657,23.828" id="Fill-255" fill="#132529"></path>
            <path d="M45.29,26.244 C45.29,26.244 46.072,29.73 47.25,31.538 C46.096,32.32 44.45,31.624 44.45,31.624 L45.29,26.244" id="Fill-256" fill="#E8824C"></path>
            <path d="M39.484,33.711 C39.869,33.843 40.288,33.949 40.747,34.02 C40.87,34.04 40.986,33.955 41.006,33.831 C41.025,33.708 40.943,33.593 40.816,33.572 C37.47,33.052 36.269,30.467 36.258,30.44 C36.207,30.326 36.072,30.275 35.958,30.326 C35.844,30.378 35.792,30.513 35.844,30.626 C35.889,30.727 36.854,32.81 39.484,33.711" id="Fill-257" fill="#132529"></path>
            <path d="M20.044,26.883 C20.476,28.947 21.821,30.62 23.287,31.546 C25.491,32.937 26.994,31.842 27.004,29.371 C27.014,27.147 26.249,23.813 23.71,22.652 C21.431,21.61 19.55,24.521 20.044,26.883" id="Fill-258" fill="#EFA573"></path>
            <path d="M35.575,19.42 C35.693,19.444 35.82,19.423 35.927,19.349 C37.59,18.198 39.141,18.81 39.159,18.817 C39.389,18.909 39.655,18.801 39.75,18.568 C39.845,18.337 39.734,18.072 39.501,17.977 C39.42,17.944 37.474,17.174 35.41,18.603 C35.204,18.746 35.153,19.028 35.295,19.234 C35.364,19.334 35.466,19.397 35.575,19.42" id="Fill-259" fill="#132529"></path>
            <path d="M51.861,22.185 C51.968,22.223 52.088,22.22 52.198,22.169 C52.426,22.063 52.525,21.794 52.42,21.566 C51.369,19.29 49.301,18.962 49.213,18.95 C48.965,18.914 48.734,19.085 48.698,19.333 C48.662,19.58 48.833,19.81 49.08,19.848 C49.161,19.859 50.761,20.136 51.596,21.947 C51.651,22.064 51.748,22.147 51.861,22.185" id="Fill-260" fill="#132529"></path>
            <path d="M22.226,64.822 C20.943,67.167 19.57,69.73 18.346,72.239 C17.108,74.767 15.903,77.306 14.811,79.866 C13.702,82.419 12.717,84.999 11.866,87.559 C11.035,90.116 10.37,92.688 10.057,95.089 C9.972,95.682 9.938,96.293 9.901,96.813 C9.878,97.026 9.895,97.391 9.981,97.822 C10.155,98.694 10.544,99.806 11.07,100.914 C12.138,103.149 13.594,105.483 15.187,107.744 C18.379,112.276 22.073,116.767 25.795,121.06 L25.853,121.126 C26.812,122.231 26.693,123.904 25.587,124.862 C24.627,125.696 23.237,125.714 22.26,124.979 C17.41,121.339 12.962,117.399 8.821,112.833 C6.775,110.528 4.791,108.108 3.075,105.202 C2.225,103.737 1.401,102.167 0.829,100.212 C0.549,99.229 0.327,98.142 0.283,96.893 C0.27,95.954 0.274,95.105 0.333,94.243 C0.537,90.819 1.221,87.675 2.044,84.634 C2.868,81.597 3.896,78.683 5.015,75.836 C6.14,72.99 7.37,70.215 8.707,67.499 C10.067,64.768 11.403,62.15 13.032,59.431 C14.545,56.906 17.817,56.086 20.342,57.599 C22.803,59.073 23.644,62.22 22.284,64.716 L22.226,64.822" id="Fill-261" fill="#EFA573"></path>
            <path d="M18.704,55.334 C14.418,56.415 10.865,59.258 8.793,63.126 C12.76,67.783 22.648,75.776 22.648,75.776 C22.648,75.776 29.799,52.477 18.704,55.334" id="Fill-262" fill="#132529"></path>
            <path d="M61.769,318.767 C62.832,318.059 64.372,317.261 65.004,317.53 C65.084,317.563 65.183,317.627 65.243,317.818 C65.354,318.174 65.321,318.438 65.149,318.624 C64.74,319.062 63.494,319.11 61.769,318.767 Z M65.595,318.859 C65.793,318.579 65.823,318.209 65.681,317.759 C65.562,317.376 65.311,317.199 65.12,317.118 C63.919,316.606 61.33,318.462 61.039,318.676 L60.979,318.903 C61.01,318.992 61.09,319.064 61.182,319.086 C62.473,319.389 64.753,319.773 65.512,318.961 L65.595,318.859 Z" id="Fill-263" fill="#3769A4"></path>
            <path d="M61.647,315.52 L61.732,315.418 C61.883,315.263 62.07,315.201 62.303,315.23 C62.6,315.267 62.683,315.396 62.724,315.504 C62.968,316.163 62.148,317.706 61.362,318.427 C61.262,317.561 61.21,316.138 61.647,315.52 Z M62.359,318.006 C62.944,317.18 63.408,316.103 63.154,315.419 C63.077,315.212 62.861,314.853 62.281,314.78 C61.913,314.734 61.607,314.834 61.372,315.076 C60.494,315.988 60.949,318.747 60.969,318.864 L61.115,319.06 L61.342,319.063 C61.644,318.877 62.022,318.482 62.359,318.006 Z" id="Fill-264" fill="#3769A4"></path>
            <path d="M26.266,112.409 L25.847,115.963 C25.756,116.244 26.117,116.49 26.562,116.451 L66.162,112.948 C66.509,112.918 66.769,112.722 66.755,112.5 L66.537,109.002 C66.522,108.76 66.188,108.583 65.809,108.617 L26.845,112.063 C26.559,112.089 26.325,112.228 26.266,112.409" id="Fill-265" fill="#FFFFFE"></path>
            <path d="M32.213,116.332 L31.17,116.425 C30.962,116.442 30.786,116.349 30.779,116.216 L30.535,111.668 C30.528,111.535 30.692,111.411 30.9,111.393 L31.943,111.301 C32.151,111.282 32.327,111.376 32.334,111.509 L32.578,116.057 C32.585,116.189 32.421,116.313 32.213,116.332" id="Fill-266" fill="#3769A4"></path>
            <path d="M31.12,116.427 C30.935,116.427 30.785,116.338 30.779,116.216 L30.771,116.079 L30.539,111.737 L30.535,111.668 C30.535,111.665 30.535,111.662 30.535,111.659 C30.535,111.529 30.697,111.411 30.9,111.393 L31.943,111.301 C31.961,111.299 31.978,111.298 31.995,111.298 C32.18,111.298 32.327,111.387 32.334,111.509 L32.578,116.057 C32.578,116.06 32.578,116.063 32.578,116.066 C32.577,116.195 32.416,116.314 32.213,116.332 L31.17,116.425 C31.153,116.426 31.136,116.427 31.12,116.427" id="Fill-267" fill="#1D5697"></path>
            <path d="M63.29,113.583 L62.247,113.676 C62.039,113.694 61.863,113.601 61.856,113.467 L61.612,108.919 C61.605,108.786 61.769,108.662 61.977,108.643 L63.021,108.552 C63.229,108.533 63.404,108.627 63.411,108.761 L63.655,113.308 C63.663,113.441 63.498,113.564 63.29,113.583" id="Fill-268" fill="#3769A4"></path>
            <path d="M62.195,113.678 C62.01,113.678 61.863,113.589 61.856,113.467 L61.849,113.33 L61.616,108.988 L61.612,108.919 C61.612,108.916 61.612,108.913 61.612,108.91 C61.613,108.78 61.774,108.662 61.977,108.643 L63.021,108.552 C63.038,108.55 63.056,108.549 63.073,108.549 C63.257,108.549 63.405,108.638 63.411,108.761 L63.655,113.308 C63.656,113.311 63.656,113.314 63.656,113.317 C63.655,113.447 63.493,113.565 63.29,113.583 L62.247,113.676 C62.229,113.677 62.212,113.678 62.195,113.678" id="Fill-269" fill="#1D5697"></path>
            <path d="M47.752,114.958 L46.708,115.05 C46.5,115.068 46.325,114.975 46.318,114.842 L46.073,110.294 C46.066,110.161 46.231,110.037 46.439,110.018 L47.482,109.926 C47.69,109.908 47.866,110.002 47.873,110.135 L48.117,114.683 C48.124,114.815 47.96,114.939 47.752,114.958" id="Fill-270" fill="#3769A4"></path>
            <path d="M46.656,115.052 C46.472,115.052 46.324,114.963 46.318,114.842 L46.31,114.704 L46.077,110.362 L46.073,110.294 C46.073,110.291 46.073,110.288 46.073,110.284 C46.074,110.155 46.236,110.037 46.439,110.018 L47.482,109.926 C47.499,109.924 47.515,109.924 47.532,109.924 C47.717,109.924 47.866,110.013 47.873,110.135 L48.117,114.683 C48.117,114.686 48.117,114.689 48.117,114.692 C48.116,114.821 47.955,114.94 47.752,114.958 L46.708,115.05 C46.691,115.051 46.673,115.052 46.656,115.052" id="Fill-271" fill="#1D5697"></path>
            <path d="M24.093,118.836 L31.478,122.311 C32.536,122.81 33.381,123.668 33.862,124.733 L35.189,127.673 C35.84,129.115 35.179,130.811 33.722,131.433 L30.82,132.669 C29.62,133.181 28.226,132.804 27.447,131.757 L24.233,127.434 C24.234,127.434 19.525,123.838 20.261,119.82 L24.093,118.836" id="Fill-272" fill="#EFA573"></path>
            <path d="M94.978,69.452 L86.252,67.98 C85.44,67.843 85.008,67.087 85.293,66.299 L91.28,49.766 C91.565,48.978 92.463,48.446 93.276,48.583 L102.002,50.056 C102.815,50.192 103.246,50.949 102.961,51.737 L96.975,68.269 C96.689,69.058 95.791,69.59 94.978,69.452" id="Fill-273" fill="#3769A4"></path>
            <path d="M95.24,69.474 C95.152,69.474 95.065,69.467 94.978,69.452 L94.405,69.355 L90.341,68.67 L86.252,67.98 C85.611,67.872 85.207,67.378 85.206,66.788 C85.205,66.63 85.233,66.465 85.293,66.299 L91.28,49.766 C91.535,49.062 92.281,48.561 93.017,48.561 C93.104,48.561 93.19,48.568 93.276,48.583 L102.002,50.056 C102.643,50.163 103.047,50.657 103.049,51.248 C103.049,51.406 103.021,51.571 102.961,51.737 L102.873,51.98 L96.975,68.269 C96.72,68.974 95.975,69.474 95.24,69.474" id="Fill-274" fill="#275E9C"></path>
            <path d="M94.979,69.452 L87.287,68.155 C86.475,68.018 86.043,67.261 86.328,66.474 L92.315,49.94 C92.6,49.153 93.498,48.621 94.311,48.758 L102.002,50.056 C102.815,50.192 103.246,50.949 102.961,51.737 L96.975,68.269 C96.689,69.058 95.791,69.59 94.979,69.452" id="Fill-275" fill="#3769A4"></path>
            <path d="M91.909,64.224 L94.569,59.136 C95.214,57.902 96.552,57.324 97.807,57.736 L100.841,58.733 C102.363,59.233 103.228,61 102.758,62.647 L101.765,66.13 C101.441,67.266 100.756,68.233 99.832,68.858 L92.823,73.597 L88.898,72.987 C87.674,68.703 91.909,64.224 91.909,64.224" id="Fill-276" fill="#EFA573"></path>
            <path d="M41.034,22.481 L42.949,22.239 C42.949,22.239 41.785,23.523 41.034,22.481" id="Fill-277" fill="#132529"></path>
        </g>
    </g>
</svg>