<?xml version="1.0" encoding="UTF-8"?>
<svg width="99px" height="99px" viewBox="0 0 99 99" version="1.1" xmlns="http://www.w3.org/2000/svg" xmlns:xlink="http://www.w3.org/1999/xlink">
    <!-- Generator: Sketch 52.3 (67297) - http://www.bohemiancoding.com/sketch -->
    <title>Group 15</title>
    <desc>Created with Sketch.</desc>
    <defs>
        <filter x="-18.8%" y="-18.8%" width="137.6%" height="137.6%" filterUnits="objectBoundingBox" id="filter-1">
            <feOffset dx="0" dy="2" in="SourceAlpha" result="shadowOffsetOuter1"></feOffset>
            <feGaussianBlur stdDeviation="2" in="shadowOffsetOuter1" result="shadowBlurOuter1"></feGaussianBlur>
            <feColorMatrix values="0 0 0 0 0   0 0 0 0 0   0 0 0 0 0  0 0 0 0.5 0" type="matrix" in="shadowBlurOuter1" result="shadowMatrixOuter1"></feColorMatrix>
            <feMerge>
                <feMergeNode in="shadowMatrixOuter1"></feMergeNode>
                <feMergeNode in="SourceGraphic"></feMergeNode>
            </feMerge>
        </filter>
        <circle id="path-2" cx="42.5" cy="42.5" r="42.5"></circle>
        <filter x="-7.1%" y="-7.1%" width="114.1%" height="114.1%" filterUnits="objectBoundingBox" id="filter-4">
            <feOffset dx="0" dy="0" in="SourceAlpha" result="shadowOffsetOuter1"></feOffset>
            <feGaussianBlur stdDeviation="2" in="shadowOffsetOuter1" result="shadowBlurOuter1"></feGaussianBlur>
            <feColorMatrix values="0 0 0 0 0   0 0 0 0 0   0 0 0 0 0  0 0 0 0.5 0" type="matrix" in="shadowBlurOuter1"></feColorMatrix>
        </filter>
        <filter x="-14.8%" y="-14.8%" width="129.6%" height="129.6%" filterUnits="objectBoundingBox" id="filter-5">
            <feOffset dx="0" dy="0" in="SourceAlpha" result="shadowOffsetOuter1"></feOffset>
            <feGaussianBlur stdDeviation="2" in="shadowOffsetOuter1" result="shadowBlurOuter1"></feGaussianBlur>
            <feColorMatrix values="0 0 0 0 0   0 0 0 0 0   0 0 0 0 0  0 0 0 0.5 0" type="matrix" in="shadowBlurOuter1" result="shadowMatrixOuter1"></feColorMatrix>
            <feMerge>
                <feMergeNode in="shadowMatrixOuter1"></feMergeNode>
                <feMergeNode in="SourceGraphic"></feMergeNode>
            </feMerge>
        </filter>
    </defs>
    <g id="Page-1" stroke="none" stroke-width="1" fill="none" fill-rule="evenodd">
        <g id="Artboard" transform="translate(-195.000000, -99.000000)">
            <g id="Group-15" transform="translate(202.000000, 104.000000)">
                <g id="Group-14">
                    <g id="Group-13">
                        <g id="Group-12">
                            <g id="Group-11">
                                <g id="Group-10">
                                    <g id="Group-5">
                                        <g id="Group">
                                            <g id="Group-2" filter="url(#filter-1)">
                                                <mask id="mask-3" fill="white">
                                                    <use xlink:href="#path-2"></use>
                                                </mask>
                                                <g id="Mask">
                                                    <use fill="black" fill-opacity="1" filter="url(#filter-4)" xlink:href="#path-2"></use>
                                                    <use fill="#FFFFFF" fill-rule="evenodd" xlink:href="#path-2"></use>
                                                </g>
                                            </g>
                                        </g>
                                    </g>
                                </g>
                            </g>
                        </g>
                    </g>
                </g>
                <g id="pay-per-click" filter="url(#filter-5)" transform="translate(15.000000, 18.000000)">
                    <path d="M0.9,9.9 L53.1,9.9 L53.1,44.1 C53.1,45.0941125 52.2941125,45.9 51.3,45.9 L2.7,45.9 C1.70588745,45.9 0.9,45.0941125 0.9,44.1 L0.9,9.9 Z" id="Path" fill="#FFDAAA"></path>
                    <path d="M20.7,45.9 L51.3,45.9 C52.2941125,45.9 53.1,45.0941125 53.1,44.1 L53.1,13.5 C53.1,31.3940259 38.5940259,45.9 20.7,45.9 Z" id="Path" fill="#FFC477"></path>
                    <path d="M53.1,2.7 L53.1,9.9 L0.9,9.9 L0.9,2.7 C0.902965321,1.70711832 1.70711832,0.902965321 2.7,0.9 L51.3,0.9 C52.2928817,0.902965321 53.0970347,1.70711832 53.1,2.7 Z" id="Path" fill="#005ECE"></path>
                    <path d="M47.7,3.6 L22.5,3.6 C21.5058875,3.6 20.7,4.40588745 20.7,5.4 C20.7,6.39411255 21.5058875,7.2 22.5,7.2 L47.7,7.2 C48.6941125,7.2 49.5,6.39411255 49.5,5.4 C49.5,4.40588745 48.6941125,3.6 47.7,3.6 Z" id="Path" fill="#FFCD00"></path>
                    <g id="Group" transform="translate(4.500000, 4.500000)" fill="#57A4FF">
                        <circle id="Oval" cx="0.9" cy="0.9" r="1"></circle>
                        <circle id="Oval" cx="6.3" cy="0.9" r="1"></circle>
                        <circle id="Oval" cx="11.7" cy="0.9" r="1"></circle>
                    </g>
                    <circle id="Oval" fill="#FF9811" cx="17.1" cy="26.1" r="10.8"></circle>
                    <path d="M47.7,35.1 C44.7176624,35.1 42.3,37.5176624 42.3,40.5 L42.3,42.3 L53.1,42.3 L53.1,40.5 C53.1,37.5176624 50.6823376,35.1 47.7,35.1 Z" id="Path" fill="#FF5023"></path>
                    <path d="M42.3,47.7 C42.3,50.6823376 44.7176624,53.1 47.7,53.1 C50.6823376,53.1 53.1,50.6823376 53.1,47.7 L53.1,42.3 L42.3,42.3 L42.3,47.7 Z" id="Path" fill="#FF7956"></path>
                    <path d="M51.3,3.99680289e-16 L2.7,3.99680289e-16 C1.20883118,0 3.99680289e-16,1.20883118 0,2.7 L0,44.1 C3.99680289e-16,45.5911688 1.20883118,46.8 2.7,46.8 L16.2,46.8 L16.2,49.5 C16.2,51.9852814 18.2147186,54 20.7,54 C23.1852814,54 25.2,51.9852814 25.2,49.5 L25.2,42.3 C25.2,40.8088312 26.4088312,39.6 27.9,39.6 C29.3911688,39.6 30.6,40.8088312 30.6,42.3 L30.6,49.5 C30.6,51.9852814 32.6147186,54 35.1,54 C37.5852814,54 39.6,51.9852814 39.6,49.5 L39.6,25.2 C39.6,23.2117749 41.2117749,21.6 43.2,21.6 C45.1882251,21.6 46.8,23.2117749 46.8,25.2 L46.8,34.272 C43.7043514,34.7211567 41.4059826,37.3719421 41.4,40.5 L41.4,47.7 C41.4,51.1793939 44.2206061,54 47.7,54 C51.1793939,54 54,51.1793939 54,47.7 L54,2.7 C54,1.20883118 52.7911688,0 51.3,0 Z M17.1,36 C11.632381,36 7.2,31.567619 7.2,26.1 C7.2,20.632381 11.632381,16.2 17.1,16.2 C22.567619,16.2 27,20.632381 27,26.1 C26.9935528,31.5649463 22.5649463,35.9935528 17.1,36 Z M47.7,52.2 C45.2159522,52.1970245 43.2029755,50.1840478 43.2,47.7 L43.2,43.2 L52.2,43.2 L52.2,47.7 C52.1970245,50.1840478 50.1840478,52.1970245 47.7,52.2 Z M52.2,41.4 L43.2,41.4 L43.2,40.5 C43.2,38.0147186 45.2147186,36 47.7,36 C50.1852814,36 52.2,38.0147186 52.2,40.5 L52.2,41.4 Z M52.2,36.0999 C51.2339063,35.1109603 49.9684842,34.4684423 48.6,34.272 L48.6,25.2 C48.6,22.2176624 46.1823376,19.8 43.2,19.8 C40.2176624,19.8 37.8,22.2176624 37.8,25.2 L37.8,49.5 C37.8,50.9911688 36.5911688,52.2 35.1,52.2 C33.6088312,52.2 32.4,50.9911688 32.4,49.5 L32.4,42.3 C32.4,39.8147186 30.3852814,37.8 27.9,37.8 C25.4147186,37.8 23.4,39.8147186 23.4,42.3 L23.4,49.5 C23.4,50.9911688 22.1911688,52.2 20.7,52.2 C19.2088312,52.2 18,50.9911688 18,49.5 L18,37.7541 C24.2678883,37.2705219 29.0332984,31.9202896 28.7913301,25.638433 C28.5493618,19.3565764 23.386515,14.3887667 17.1,14.3887667 C10.813485,14.3887667 5.65063824,19.3565764 5.4086699,25.638433 C5.16670156,31.9202896 9.93211175,37.2705219 16.2,37.7541 L16.2,45 L2.7,45 C2.20294373,45 1.8,44.5970563 1.8,44.1 L1.8,10.8 L52.2,10.8 L52.2,36.0999 Z M1.8,9 L1.8,2.7 C1.8,2.20294373 2.20294373,1.8 2.7,1.8 L51.3,1.8 C51.7970563,1.8 52.2,2.20294373 52.2,2.7 L52.2,9 L1.8,9 Z" id="Shape" fill="#000000" fill-rule="nonzero"></path>
                    <path d="M47.7,2.7 L22.5,2.7 C21.0088312,2.7 19.8,3.90883118 19.8,5.4 C19.8,6.89116882 21.0088312,8.1 22.5,8.1 L47.7,8.1 C49.1911688,8.1 50.4,6.89116882 50.4,5.4 C50.4,3.90883118 49.1911688,2.7 47.7,2.7 Z M47.7,6.3 L22.5,6.3 C22.0029437,6.3 21.6,5.89705627 21.6,5.4 C21.6,4.90294373 22.0029437,4.5 22.5,4.5 L47.7,4.5 C48.1970563,4.5 48.6,4.90294373 48.6,5.4 C48.6,5.89705627 48.1970563,6.3 47.7,6.3 Z" id="Shape" fill="#000000" fill-rule="nonzero"></path>
                    <circle id="Oval" fill="#000000" cx="5.4" cy="5.4" r="1.8"></circle>
                    <circle id="Oval" fill="#000000" cx="10.8" cy="5.4" r="1.8"></circle>
                    <circle id="Oval" fill="#000000" cx="16.2" cy="5.4" r="1.8"></circle>
                    <path d="M17.1,21.6 C18.0941125,21.6 18.9,22.4058875 18.9,23.4 C18.9,23.8970563 19.3029437,24.3 19.8,24.3 C20.2970563,24.3 20.7,23.8970563 20.7,23.4 C20.6938667,21.7634295 19.5846166,20.336934 18,19.9278 L18,18.9 C18,18.4029437 17.5970563,18 17.1,18 C16.6029437,18 16.2,18.4029437 16.2,18.9 L16.2,19.9278 C14.4465532,20.3791011 13.3028998,22.0646525 13.5314704,23.8607605 C13.7600411,25.6568685 15.289408,27.0022543 17.1,27 C18.0941125,27 18.9,27.8058875 18.9,28.8 C18.9,29.7941125 18.0941125,30.6 17.1,30.6 C16.1058875,30.6 15.3,29.7941125 15.3,28.8 C15.3,28.3029437 14.8970563,27.9 14.4,27.9 C13.9029437,27.9 13.5,28.3029437 13.5,28.8 C13.5061333,30.4365705 14.6153834,31.863066 16.2,32.2722 L16.2,33.3 C16.2,33.7970563 16.6029437,34.2 17.1,34.2 C17.5970563,34.2 18,33.7970563 18,33.3 L18,32.2722 C19.7534468,31.8208989 20.8971002,30.1353475 20.6685296,28.3392395 C20.4399589,26.5431315 18.910592,25.1977457 17.1,25.2 C16.1058875,25.2 15.3,24.3941125 15.3,23.4 C15.3,22.4058875 16.1058875,21.6 17.1,21.6 Z" id="Path" fill="#000000"></path>
                    <path d="M47.7,36.9 C47.2029437,36.9 46.8,37.3029437 46.8,37.8 L46.8,39.6 C46.8,40.0970563 47.2029437,40.5 47.7,40.5 C48.1970563,40.5 48.6,40.0970563 48.6,39.6 L48.6,37.8 C48.6,37.3029437 48.1970563,36.9 47.7,36.9 Z" id="Path" fill="#000000"></path>
                </g>
            </g>
        </g>
    </g>
</svg>