<?xml version="1.0" encoding="UTF-8"?>
<svg width="99px" height="99px" viewBox="0 0 99 99" version="1.1" xmlns="http://www.w3.org/2000/svg" xmlns:xlink="http://www.w3.org/1999/xlink">
    <!-- Generator: Sketch 52.3 (67297) - http://www.bohemiancoding.com/sketch -->
    <title>Group 14</title>
    <desc>Created with Sketch.</desc>
    <defs>
        <filter x="-18.8%" y="-18.8%" width="137.6%" height="137.6%" filterUnits="objectBoundingBox" id="filter-1">
            <feOffset dx="0" dy="2" in="SourceAlpha" result="shadowOffsetOuter1"></feOffset>
            <feGaussianBlur stdDeviation="2" in="shadowOffsetOuter1" result="shadowBlurOuter1"></feGaussianBlur>
            <feColorMatrix values="0 0 0 0 0   0 0 0 0 0   0 0 0 0 0  0 0 0 0.5 0" type="matrix" in="shadowBlurOuter1" result="shadowMatrixOuter1"></feColorMatrix>
            <feMerge>
                <feMergeNode in="shadowMatrixOuter1"></feMergeNode>
                <feMergeNode in="SourceGraphic"></feMergeNode>
            </feMerge>
        </filter>
        <circle id="path-2" cx="42.5" cy="42.5" r="42.5"></circle>
        <filter x="-7.1%" y="-7.1%" width="114.1%" height="114.1%" filterUnits="objectBoundingBox" id="filter-4">
            <feOffset dx="0" dy="0" in="SourceAlpha" result="shadowOffsetOuter1"></feOffset>
            <feGaussianBlur stdDeviation="2" in="shadowOffsetOuter1" result="shadowBlurOuter1"></feGaussianBlur>
            <feColorMatrix values="0 0 0 0 0   0 0 0 0 0   0 0 0 0 0  0 0 0 0.5 0" type="matrix" in="shadowBlurOuter1"></feColorMatrix>
        </filter>
        <filter x="-14.8%" y="-14.8%" width="129.6%" height="129.6%" filterUnits="objectBoundingBox" id="filter-5">
            <feOffset dx="0" dy="0" in="SourceAlpha" result="shadowOffsetOuter1"></feOffset>
            <feGaussianBlur stdDeviation="2" in="shadowOffsetOuter1" result="shadowBlurOuter1"></feGaussianBlur>
            <feColorMatrix values="0 0 0 0 0   0 0 0 0 0   0 0 0 0 0  0 0 0 0.5 0" type="matrix" in="shadowBlurOuter1" result="shadowMatrixOuter1"></feColorMatrix>
            <feMerge>
                <feMergeNode in="shadowMatrixOuter1"></feMergeNode>
                <feMergeNode in="SourceGraphic"></feMergeNode>
            </feMerge>
        </filter>
    </defs>
    <g id="Page-1" stroke="none" stroke-width="1" fill="none" fill-rule="evenodd">
        <g id="Artboard" transform="translate(-195.000000, -99.000000)">
            <g id="Group-14" transform="translate(202.000000, 104.000000)">
                <g id="Group-13">
                    <g id="Group-12">
                        <g id="Group-11">
                            <g id="Group-10">
                                <g id="Group-5">
                                    <g id="Group">
                                        <g id="Group-2" filter="url(#filter-1)">
                                            <mask id="mask-3" fill="white">
                                                <use xlink:href="#path-2"></use>
                                            </mask>
                                            <g id="Mask">
                                                <use fill="black" fill-opacity="1" filter="url(#filter-4)" xlink:href="#path-2"></use>
                                                <use fill="#FFFFFF" fill-rule="evenodd" xlink:href="#path-2"></use>
                                            </g>
                                        </g>
                                    </g>
                                </g>
                            </g>
                        </g>
                    </g>
                </g>
                <g id="preformance" filter="url(#filter-5)" transform="translate(19.000000, 16.000000)">
                    <polygon id="Path" fill="#FFEB99" points="0.9 0.9 40.5 0.9 40.5 53.1 0.9 53.1"></polygon>
                    <path d="M8.1,53.1 L40.5,53.1 L40.5,20.7 C40.5,38.5940259 25.9940259,53.1 8.1,53.1 Z" id="Path" fill="#FFDE55"></path>
                    <path d="M39.6,32.274 C32.7119982,36.2479724 23.9066513,33.8863032 19.9317856,26.9988168 C15.9569199,20.1113305 18.3174472,11.3056773 25.204418,7.32991844 C32.0913888,3.35415955 40.897348,5.71354489 44.874,12.6 C48.8435855,19.4901015 46.4837067,28.2933354 39.6,32.274 Z" id="Path" fill="#57A4FF"></path>
                    <path d="M37.8,29.151 C34.0173246,31.3362521 29.2907142,31.0275018 25.8244584,28.3687369 C22.3582026,25.7099721 20.8350282,21.2248732 21.9652789,17.0050991 C23.0955295,12.785325 26.6565868,9.66201844 30.9877253,9.09175643 C35.3188638,8.52149443 39.5670063,10.6165979 41.751,14.4 C44.7269503,19.5652546 42.9593023,26.1647423 37.8,29.151 Z" id="Path" fill="#FFDAAA"></path>
                    <path d="M50.7726,51.6222 C52.4943654,50.6280586 53.0842656,48.4264091 52.0902,46.7046 L45.8676,35.9271 L44.3088,36.8271 L41.1912,38.6271 L39.6324,39.5271 L40.5,41.0292 L45.855,50.3046 C46.8491414,52.0263654 49.0507909,52.6162656 50.7726,51.6222 Z" id="Path" fill="#005ECE"></path>
                    <polygon id="Path" fill="#FFCD00" points="15.3 40.5 18.9 40.5 18.9 49.5 15.3 49.5"></polygon>
                    <polygon id="Path" fill="#ED1C24" points="8.1 44.1 11.7 44.1 11.7 49.5 8.1 49.5"></polygon>
                    <polygon id="Path" fill="#FFCD00" points="39.6 21.6 36.747 21.6 38.763 23.616 36.216 26.163 34.2 24.147 34.2 27 30.6 27 30.6 24.147 28.584 26.163 26.037 23.616 28.053 21.6 25.2 21.6 25.2 18 28.053 18 26.037 15.984 28.584 13.437 30.6 15.453 30.6 12.6 34.2 12.6 34.2 15.453 36.216 13.437 38.763 15.984 36.747 18 39.6 18"></polygon>
                    <circle id="Oval" fill="#F1F2F2" cx="32.4" cy="19.8" r="1.8"></circle>
                    <path d="M6.3,9.9 C6.3,11.8882251 7.9117749,13.5 9.9,13.5 C11.8882251,13.5 13.5,11.8882251 13.5,9.9 C13.5,7.9117749 11.8882251,6.3 9.9,6.3 C7.9117749,6.3 6.3,7.9117749 6.3,9.9 Z M9.9,9 C10.3970563,9 10.8,9.40294373 10.8,9.9 C10.8,10.3970563 10.3970563,10.8 9.9,10.8 C9.40294373,10.8 9,10.3970563 9,9.9 C9,9.40294373 9.40294373,9 9.9,9 Z" id="Shape" fill="#ED1C24" fill-rule="nonzero"></path>
                    <circle id="Oval" fill="#57A4FF" cx="9.9" cy="9.9" r="1"></circle>
                    <path d="M41.0121,31.3308 C40.1104357,32.0171475 39.125128,32.5860131 38.0799,33.0237 L37.9899,33.0768 L41.1939,38.6271 L44.3115,36.8271 L41.1075,31.2768 L41.0121,31.3308 Z" id="Path" fill="#FF5023"></path>
                    <polygon id="Path" fill="#5EAC24" points="29.7 36.9 33.3 36.9 33.3 49.5 29.7 49.5"></polygon>
                    <polygon id="Path" fill="#006DF0" points="22.5 38.7 26.1 38.7 26.1 49.5 22.5 49.5"></polygon>
                    <path d="M26.55,9.6678 C21.7081013,12.4573174 19.5115853,18.2791198 21.3041534,23.5717646 C23.0967216,28.8644095 28.3789225,32.1532419 33.9194108,31.4263443 C39.459899,30.6994466 43.7149647,26.1593495 44.0816044,20.5834222 C44.4482441,15.0074949 40.8243035,9.94932134 35.4267,8.5032 C32.4303246,7.70061781 29.2379392,8.11945049 26.55,9.6678 Z M40.9734,14.85 C43.3559435,18.9543379 42.5049493,24.1704203 38.9414435,27.3046713 C35.3779377,30.4389222 30.0958963,30.6170985 26.3292793,27.7301106 C22.5626623,24.8431227 21.3621,19.6962443 23.4626435,15.4406809 C25.563187,11.1851174 30.3789273,9.0078823 34.9614,10.242 C37.4964849,10.9213729 39.6585874,12.5785532 40.9734,14.85 Z" id="Shape" fill="#000000" fill-rule="nonzero"></path>
                    <path d="M52.8705,46.26 L46.647,35.4762 C46.3984647,35.0457587 45.8480523,34.8982836 45.4176,35.1468 L44.6382,35.5968 L42.264,31.4856 C45.8591906,28.4588344 47.8613555,23.9458897 47.6926399,19.2492696 C47.5239243,14.5526495 45.2031031,10.1949985 41.4,7.434 L41.4,0.9 C41.4,0.402943725 40.9970563,0 40.5,0 L0.9,0 C0.402943725,0 0,0.402943725 0,0.9 L0,53.1 C0,53.5970563 0.402943725,54 0.9,54 L40.5,54 C40.9970563,54 41.4,53.5970563 41.4,53.1 L41.4,44.3889 L45.0756,50.76 C45.8794476,52.1524248 47.3650831,53.0102307 48.9728822,53.0102907 C50.5806812,53.0103507 52.0663807,52.1526555 52.8703322,50.7602907 C53.6742836,49.3679259 53.6743476,47.6524248 52.8705,46.26 Z M43.0794,36.4968 L42.3,36.9468 L41.5206,37.3968 L39.2562,33.4746 C39.5262,33.3405 39.789,33.2046 40.05,33.0507 C40.311,32.8968 40.5567,32.7276 40.8078,32.5629 L43.0794,36.4968 Z M44.091,13.05 C47.1329581,18.3348315 46.2489767,25.0035375 41.935189,29.3133158 C37.6214013,33.6230941 30.9518763,34.5008742 25.6698756,31.4540033 C20.387875,28.4071323 17.8085382,22.1942357 19.3795145,16.3022932 C20.9504908,10.4103506 26.2806305,6.30636805 32.3784,6.2937 C33.5655366,6.29482978 34.7474039,6.45156487 35.8938,6.7599 C39.356695,7.67751229 42.3084712,9.94255007 44.091,13.05 Z M39.6,52.2 L1.8,52.2 L1.8,1.8 L39.6,1.8 L39.6,6.3117 C38.5724765,5.75993911 37.4854775,5.32695116 36.36,5.0211 C28.1978389,2.83405239 19.8081476,7.67783891 17.6211,15.84 C15.4340524,24.0021611 20.2778389,32.3918524 28.44,34.5789 C29.7393551,34.9280129 31.0788623,35.1053228 32.4243,35.1063 C34.1865338,35.104282 35.9348492,34.7942149 37.5903,34.1901 L39.96,38.2968 L39.1806,38.7468 C38.7501587,38.9953353 38.6026836,39.5457477 38.8512,39.9762 L39.6,41.2704 L39.6,52.2 Z M51.5808,49.2039 C51.2996011,50.2609749 50.4084035,51.0439453 49.3239218,51.1867025 C48.2394401,51.3294598 47.1759783,50.8037936 46.6308,49.8555 L40.86,39.8565 L45.54,37.1565 L51.3108,47.16 C51.6700049,47.7779508 51.7672203,48.5138719 51.5808,49.2039 Z" id="Shape" fill="#000000" fill-rule="nonzero"></path>
                    <path d="M35.1,48.6 L34.2,48.6 L34.2,36.9 C34.2,36.4029437 33.7970563,36 33.3,36 L29.7,36 C29.2029437,36 28.8,36.4029437 28.8,36.9 L28.8,48.6 L27,48.6 L27,38.7 C27,38.2029437 26.5970563,37.8 26.1,37.8 L22.5,37.8 C22.0029437,37.8 21.6,38.2029437 21.6,38.7 L21.6,48.6 L19.8,48.6 L19.8,40.5 C19.8,40.0029437 19.3970563,39.6 18.9,39.6 L15.3,39.6 C14.8029437,39.6 14.4,40.0029437 14.4,40.5 L14.4,48.6 L12.6,48.6 L12.6,44.1 C12.6,43.6029437 12.1970563,43.2 11.7,43.2 L8.1,43.2 C7.60294373,43.2 7.2,43.6029437 7.2,44.1 L7.2,48.6 L6.3,48.6 C5.80294373,48.6 5.4,49.0029437 5.4,49.5 C5.4,49.9970563 5.80294373,50.4 6.3,50.4 L35.1,50.4 C35.5970563,50.4 36,49.9970563 36,49.5 C36,49.0029437 35.5970563,48.6 35.1,48.6 Z M9,48.6 L9,45 L10.8,45 L10.8,48.6 L9,48.6 Z M16.2,48.6 L16.2,41.4 L18,41.4 L18,48.6 L16.2,48.6 Z M23.4,48.6 L23.4,39.6 L25.2,39.6 L25.2,48.6 L23.4,48.6 Z M30.6,48.6 L30.6,37.8 L32.4,37.8 L32.4,48.6 L30.6,48.6 Z" id="Shape" fill="#000000" fill-rule="nonzero"></path>
                    <path d="M34.2,11.7 L30.6,11.7 C30.1029437,11.7 29.7,12.1029437 29.7,12.6 L29.7,13.2804 L29.2203,12.8007 C28.8688501,12.4493563 28.2991499,12.4493563 27.9477,12.8007 L25.4007,15.3477 C25.0493563,15.6991499 25.0493563,16.2688501 25.4007,16.6203 L25.8804,17.1 L25.2,17.1 C24.7029437,17.1 24.3,17.5029437 24.3,18 L24.3,21.6 C24.3,22.0970563 24.7029437,22.5 25.2,22.5 L25.8804,22.5 L25.4007,22.9797 C25.0493563,23.3311499 25.0493563,23.9008501 25.4007,24.2523 L27.9477,26.7993 C28.2991499,27.1506437 28.8688501,27.1506437 29.2203,26.7993 L29.7,26.3196 L29.7,27 C29.7,27.4970563 30.1029437,27.9 30.6,27.9 L34.2,27.9 C34.6970563,27.9 35.1,27.4970563 35.1,27 L35.1,26.3196 L35.5797,26.7993 C35.9311499,27.1506437 36.5008501,27.1506437 36.8523,26.7993 L39.3993,24.2523 C39.7506437,23.9008501 39.7506437,23.3311499 39.3993,22.9797 L38.9196,22.5 L39.6,22.5 C40.0970563,22.5 40.5,22.0970563 40.5,21.6 L40.5,18 C40.5,17.5029437 40.0970563,17.1 39.6,17.1 L38.9196,17.1 L39.3993,16.6203 C39.7506437,16.2688501 39.7506437,15.6991499 39.3993,15.3477 L36.8523,12.8007 C36.5008501,12.4493563 35.9311499,12.4493563 35.5797,12.8007 L35.1,13.2804 L35.1,12.6 C35.1,12.1029437 34.6970563,11.7 34.2,11.7 Z M36.216,14.7096 L37.4904,15.984 L36.1107,17.3637 C35.8533829,17.6210948 35.7764203,18.008133 35.9156898,18.3443891 C36.0549594,18.6806452 36.3830437,18.8999223 36.747,18.9 L38.7,18.9 L38.7,20.7 L36.747,20.7 C36.3830437,20.7000777 36.0549594,20.9193548 35.9156898,21.2556109 C35.7764203,21.591867 35.8533829,21.9789052 36.1107,22.2363 L37.4904,23.616 L36.216,24.8904 L34.8363,23.5107 C34.5789052,23.2533829 34.191867,23.1764203 33.8556109,23.3156898 C33.5193548,23.4549594 33.3000777,23.7830437 33.3,24.147 L33.3,26.1 L31.5,26.1 L31.5,24.147 C31.4999223,23.7830437 31.2806452,23.4549594 30.9443891,23.3156898 C30.608133,23.1764203 30.2210948,23.2533829 29.9637,23.5107 L28.584,24.8904 L27.3096,23.616 L28.6893,22.2363 C28.9466171,21.9789052 29.0235797,21.591867 28.8843102,21.2556109 C28.7450406,20.9193548 28.4169563,20.7000777 28.053,20.7 L26.1,20.7 L26.1,18.9 L28.053,18.9 C28.4169563,18.8999223 28.7450406,18.6806452 28.8843102,18.3443891 C29.0235797,18.008133 28.9466171,17.6210948 28.6893,17.3637 L27.3096,15.984 L28.584,14.7096 L29.9637,16.0893 C30.2210948,16.3466171 30.608133,16.4235797 30.9443891,16.2843102 C31.2806452,16.1450406 31.4999223,15.8169563 31.5,15.453 L31.5,13.5 L33.3,13.5 L33.3,15.453 C33.3000777,15.8169563 33.5193548,16.1450406 33.8556109,16.2843102 C34.191867,16.4235797 34.5789052,16.3466171 34.8363,16.0893 L36.216,14.7096 Z" id="Shape" fill="#000000" fill-rule="nonzero"></path>
                    <path d="M32.4,17.1 C30.9088312,17.1 29.7,18.3088312 29.7,19.8 C29.7,21.2911688 30.9088312,22.5 32.4,22.5 C33.8911688,22.5 35.1,21.2911688 35.1,19.8 C35.1,18.3088312 33.8911688,17.1 32.4,17.1 Z M32.4,20.7 C31.9029437,20.7 31.5,20.2970563 31.5,19.8 C31.5,19.3029437 31.9029437,18.9 32.4,18.9 C32.8970563,18.9 33.3,19.3029437 33.3,19.8 C33.3,20.2970563 32.8970563,20.7 32.4,20.7 Z" id="Shape" fill="#000000" fill-rule="nonzero"></path>
                    <path d="M4.5,10.8 L5.49,10.8 C5.85403916,12.5659786 7.23402143,13.9459608 9,14.31 L9,15.3 C9,15.7970563 9.40294373,16.2 9.9,16.2 C10.3970563,16.2 10.8,15.7970563 10.8,15.3 L10.8,14.31 C12.5659786,13.9459608 13.9459608,12.5659786 14.31,10.8 L15.3,10.8 C15.7970563,10.8 16.2,10.3970563 16.2,9.9 C16.2,9.40294373 15.7970563,9 15.3,9 L14.31,9 C13.9459608,7.23402143 12.5659786,5.85403916 10.8,5.49 L10.8,4.5 C10.8,4.00294373 10.3970563,3.6 9.9,3.6 C9.40294373,3.6 9,4.00294373 9,4.5 L9,5.49 C7.23402143,5.85403916 5.85403916,7.23402143 5.49,9 L4.5,9 C4.00294373,9 3.6,9.40294373 3.6,9.9 C3.6,10.3970563 4.00294373,10.8 4.5,10.8 Z M9.9,7.2 C11.3911688,7.2 12.6,8.40883118 12.6,9.9 C12.6,11.3911688 11.3911688,12.6 9.9,12.6 C8.40883118,12.6 7.2,11.3911688 7.2,9.9 C7.2,8.40883118 8.40883118,7.2 9.9,7.2 Z" id="Shape" fill="#000000" fill-rule="nonzero"></path>
                    <circle id="Oval" fill="#000000" cx="9.9" cy="9.9" r="1.8"></circle>
                    <path d="M4.5,21.6 L13.5,21.6 C13.9970563,21.6 14.4,21.1970563 14.4,20.7 C14.4,20.2029437 13.9970563,19.8 13.5,19.8 L4.5,19.8 C4.00294373,19.8 3.6,20.2029437 3.6,20.7 C3.6,21.1970563 4.00294373,21.6 4.5,21.6 Z" id="Path" fill="#000000"></path>
                    <path d="M4.5,25.2 L15.3,25.2 C15.7970563,25.2 16.2,24.7970563 16.2,24.3 C16.2,23.8029437 15.7970563,23.4 15.3,23.4 L4.5,23.4 C4.00294373,23.4 3.6,23.8029437 3.6,24.3 C3.6,24.7970563 4.00294373,25.2 4.5,25.2 Z" id="Path" fill="#000000"></path>
                    <path d="M4.5,28.8 L15.3,28.8 C15.7970563,28.8 16.2,28.3970563 16.2,27.9 C16.2,27.4029437 15.7970563,27 15.3,27 L4.5,27 C4.00294373,27 3.6,27.4029437 3.6,27.9 C3.6,28.3970563 4.00294373,28.8 4.5,28.8 Z" id="Path" fill="#000000"></path>
                    <path d="M4.5,32.4 L17.1,32.4 C17.5970563,32.4 18,31.9970563 18,31.5 C18,31.0029437 17.5970563,30.6 17.1,30.6 L4.5,30.6 C4.00294373,30.6 3.6,31.0029437 3.6,31.5 C3.6,31.9970563 4.00294373,32.4 4.5,32.4 Z" id="Path" fill="#000000"></path>
                    <path d="M21.6,35.1 C21.6,34.6029437 21.1970563,34.2 20.7,34.2 L4.5,34.2 C4.00294373,34.2 3.6,34.6029437 3.6,35.1 C3.6,35.5970563 4.00294373,36 4.5,36 L20.7,36 C21.1970563,36 21.6,35.5970563 21.6,35.1 Z" id="Path" fill="#000000"></path>
                </g>
            </g>
        </g>
    </g>
</svg>