<?xml version="1.0" encoding="UTF-8"?>
<svg width="488px" height="96px" viewBox="0 0 488 96" version="1.1" xmlns="http://www.w3.org/2000/svg" xmlns:xlink="http://www.w3.org/1999/xlink">
    <!-- Generator: Sketch 52.3 (67297) - http://www.bohemiancoding.com/sketch -->
    <title>Group 29</title>
    <desc>Created with Sketch.</desc>
    <defs>
        <circle id="path-1" cx="46.5" cy="47.5" r="42.5"></circle>
    </defs>
    <g id="Page-1" stroke="none" stroke-width="1" fill="none" fill-rule="evenodd">
        <g id="Artboard" transform="translate(-1617.000000, -736.000000)">
            <g id="Group-29" transform="translate(1617.000000, 736.000000)">
                <g id="Group-27">
                    <g id="Group-28">
                        <path d="M467.862013,48.2422864 L298.02831,48.2422864" id="Line-2" stroke="#FFF60F" stroke-width="5" stroke-linecap="square" transform="translate(383.000000, 48.188172) scale(-1, 1) translate(-383.000000, -48.188172) "></path>
                        <rect id="Rectangle" fill="#FFF60F" x="1.42108547e-13" y="1.42108547e-14" width="378" height="96" rx="48"></rect>
                        <mask id="mask-2" fill="white">
                            <use xlink:href="#path-1"></use>
                        </mask>
                        <use id="Mask" fill="#FFFFFF" xlink:href="#path-1"></use>
                    </g>
                    <circle id="Oval" fill="#FFF60F" transform="translate(478.500000, 48.500000) scale(-1, 1) translate(-478.500000, -48.500000) " cx="478.5" cy="48.5" r="9.5"></circle>
                </g>
                <g id="pay-per-click" transform="translate(17.000000, 20.000000)">
                    <path d="M0.95,10.45 L56.05,10.45 L56.05,46.55 C56.05,47.599341 55.199341,48.45 54.15,48.45 L2.85,48.45 C1.80065898,48.45 0.95,47.599341 0.95,46.55 L0.95,10.45 Z" id="Path" fill="#FFDAAA"></path>
                    <path d="M21.85,48.45 L54.15,48.45 C55.199341,48.45 56.05,47.599341 56.05,46.55 L56.05,14.25 C56.05,33.1381384 40.7381384,48.45 21.85,48.45 Z" id="Path" fill="#FFC477"></path>
                    <path d="M56.05,2.85 L56.05,10.45 L0.95,10.45 L0.95,2.85 C0.953130061,1.80195823 1.80195823,0.953130061 2.85,0.95 L54.15,0.95 C55.1980418,0.953130061 56.0468699,1.80195823 56.05,2.85 Z" id="Path" fill="#005ECE"></path>
                    <path d="M50.35,3.8 L23.75,3.8 C22.700659,3.8 21.85,4.65065898 21.85,5.7 C21.85,6.74934102 22.700659,7.6 23.75,7.6 L50.35,7.6 C51.399341,7.6 52.25,6.74934102 52.25,5.7 C52.25,4.65065898 51.399341,3.8 50.35,3.8 Z" id="Path" fill="#FFCD00"></path>
                    <g id="Group" transform="translate(3.750000, 3.750000)" fill="#57A4FF">
                        <circle id="Oval" cx="1.95" cy="1.95" r="1"></circle>
                        <circle id="Oval" cx="7.65" cy="1.95" r="1"></circle>
                        <circle id="Oval" cx="13.35" cy="1.95" r="1"></circle>
                    </g>
                    <circle id="Oval" fill="#FF9811" cx="18.05" cy="27.55" r="11.4"></circle>
                    <path d="M50.35,37.05 C47.2019769,37.05 44.65,39.6019769 44.65,42.75 L44.65,44.65 L56.05,44.65 L56.05,42.75 C56.05,39.6019769 53.4980231,37.05 50.35,37.05 Z" id="Path" fill="#FF5023"></path>
                    <path d="M44.65,50.35 C44.65,53.4980231 47.2019769,56.05 50.35,56.05 C53.4980231,56.05 56.05,53.4980231 56.05,50.35 L56.05,44.65 L44.65,44.65 L44.65,50.35 Z" id="Path" fill="#FF7956"></path>
                    <path d="M54.15,4.21884749e-16 L2.85,4.21884749e-16 C1.27598846,0 4.21884749e-16,1.27598846 0,2.85 L0,46.55 C4.21884749e-16,48.1240115 1.27598846,49.4 2.85,49.4 L17.1,49.4 L17.1,52.25 C17.1,54.8733526 19.2266474,57 21.85,57 C24.4733526,57 26.6,54.8733526 26.6,52.25 L26.6,44.65 C26.6,43.0759885 27.8759885,41.8 29.45,41.8 C31.0240115,41.8 32.3,43.0759885 32.3,44.65 L32.3,52.25 C32.3,54.8733526 34.4266474,57 37.05,57 C39.6733526,57 41.8,54.8733526 41.8,52.25 L41.8,26.6 C41.8,24.501318 43.501318,22.8 45.6,22.8 C47.698682,22.8 49.4,24.501318 49.4,26.6 L49.4,36.176 C46.1323709,36.6501099 43.7063149,39.4481611 43.7,42.75 L43.7,50.35 C43.7,54.0226936 46.6773064,57 50.35,57 C54.0226936,57 57,54.0226936 57,50.35 L57,2.85 C57,1.27598846 55.7240115,0 54.15,4.21884749e-16 Z M18.05,38 C12.2786244,38 7.6,33.3213756 7.6,27.55 C7.6,21.7786244 12.2786244,17.1 18.05,17.1 C23.8213756,17.1 28.5,21.7786244 28.5,27.55 C28.4931947,33.3185544 23.8185544,37.9931947 18.05,38 Z M50.35,55.1 C47.7279495,55.0968592 45.6031408,52.9720505 45.6,50.35 L45.6,45.6 L55.1,45.6 L55.1,50.35 C55.0968592,52.9720505 52.9720505,55.0968592 50.35,55.1 Z M55.1,43.7 L45.6,43.7 L45.6,42.75 C45.6,40.1266474 47.7266474,38 50.35,38 C52.9733526,38 55.1,40.1266474 55.1,42.75 L55.1,43.7 Z M55.1,38.10545 C54.0802345,37.0615692 52.7445111,36.3833557 51.3,36.176 L51.3,26.6 C51.3,23.4519769 48.7480231,20.9 45.6,20.9 C42.4519769,20.9 39.9,23.4519769 39.9,26.6 L39.9,52.25 C39.9,53.8240115 38.6240115,55.1 37.05,55.1 C35.4759885,55.1 34.2,53.8240115 34.2,52.25 L34.2,44.65 C34.2,42.0266474 32.0733526,39.9 29.45,39.9 C26.8266474,39.9 24.7,42.0266474 24.7,44.65 L24.7,52.25 C24.7,53.8240115 23.4240115,55.1 21.85,55.1 C20.2759885,55.1 19,53.8240115 19,52.25 L19,39.85155 C25.6161043,39.3411065 30.6462595,33.6936391 30.3908484,27.0627904 C30.1354374,20.4319418 24.6857658,15.1881427 18.05,15.1881427 C11.4142342,15.1881427 5.96456259,20.4319418 5.70915156,27.0627904 C5.45374053,33.6936391 10.4838957,39.3411065 17.1,39.85155 L17.1,47.5 L2.85,47.5 C2.32532949,47.5 1.9,47.0746705 1.9,46.55 L1.9,11.4 L55.1,11.4 L55.1,38.10545 Z M1.9,9.5 L1.9,2.85 C1.9,2.32532949 2.32532949,1.9 2.85,1.9 L54.15,1.9 C54.6746705,1.9 55.1,2.32532949 55.1,2.85 L55.1,9.5 L1.9,9.5 Z" id="Shape" fill="#000000" fill-rule="nonzero"></path>
                    <path d="M50.35,2.85 L23.75,2.85 C22.1759885,2.85 20.9,4.12598846 20.9,5.7 C20.9,7.27401154 22.1759885,8.55 23.75,8.55 L50.35,8.55 C51.9240115,8.55 53.2,7.27401154 53.2,5.7 C53.2,4.12598846 51.9240115,2.85 50.35,2.85 Z M50.35,6.65 L23.75,6.65 C23.2253295,6.65 22.8,6.22467051 22.8,5.7 C22.8,5.17532949 23.2253295,4.75 23.75,4.75 L50.35,4.75 C50.8746705,4.75 51.3,5.17532949 51.3,5.7 C51.3,6.22467051 50.8746705,6.65 50.35,6.65 Z" id="Shape" fill="#000000" fill-rule="nonzero"></path>
                    <circle id="Oval" fill="#000000" cx="5.7" cy="5.7" r="1.9"></circle>
                    <circle id="Oval" fill="#000000" cx="11.4" cy="5.7" r="1.9"></circle>
                    <circle id="Oval" fill="#000000" cx="17.1" cy="5.7" r="1.9"></circle>
                    <path d="M18.05,22.8 C19.099341,22.8 19.95,23.650659 19.95,24.7 C19.95,25.2246705 20.3753295,25.65 20.9,25.65 C21.4246705,25.65 21.85,25.2246705 21.85,24.7 C21.8435259,22.972509 20.6726509,21.4667637 19,21.0349 L19,19.95 C19,19.4253295 18.5746705,19 18.05,19 C17.5253295,19 17.1,19.4253295 17.1,19.95 L17.1,21.0349 C15.2491395,21.5112734 14.0419498,23.2904665 14.2832188,25.1863583 C14.5244878,27.08225 16.1388196,28.5023796 18.05,28.5 C19.099341,28.5 19.95,29.350659 19.95,30.4 C19.95,31.449341 19.099341,32.3 18.05,32.3 C17.000659,32.3 16.15,31.449341 16.15,30.4 C16.15,29.8753295 15.7246705,29.45 15.2,29.45 C14.6753295,29.45 14.25,29.8753295 14.25,30.4 C14.2564741,32.127491 15.4273491,33.6332363 17.1,34.0651 L17.1,35.15 C17.1,35.6746705 17.5253295,36.1 18.05,36.1 C18.5746705,36.1 19,35.6746705 19,35.15 L19,34.0651 C20.8508605,33.5887266 22.0580502,31.8095335 21.8167812,29.9136417 C21.5755122,28.01775 19.9611804,26.5976204 18.05,26.6 C17.000659,26.6 16.15,25.749341 16.15,24.7 C16.15,23.650659 17.000659,22.8 18.05,22.8 Z" id="Path" fill="#000000"></path>
                    <path d="M50.35,38.95 C49.8253295,38.95 49.4,39.3753295 49.4,39.9 L49.4,41.8 C49.4,42.3246705 49.8253295,42.75 50.35,42.75 C50.8746705,42.75 51.3,42.3246705 51.3,41.8 L51.3,39.9 C51.3,39.3753295 50.8746705,38.95 50.35,38.95 Z" id="Path" fill="#000000"></path>
                </g>
            </g>
        </g>
    </g>
</svg>