<?xml version="1.0" encoding="UTF-8"?>
<svg width="145px" height="151px" viewBox="0 0 145 151" version="1.1" xmlns="http://www.w3.org/2000/svg" xmlns:xlink="http://www.w3.org/1999/xlink">
    <!-- Generator: Sketch 52.3 (67297) - http://www.bohemiancoding.com/sketch -->
    <title>Group 37</title>
    <desc>Created with Sketch.</desc>
    <defs>
        <path d="M5.71975185,0.0274576271 L0.011435821,0.0274576271 L0.011435821,6.98779661 L5.71975185,6.98779661 C6.39672199,6.98779661 6.94588655,6.42881356 6.94588655,5.73932203 L6.94588655,1.27627119 C6.94588655,0.586440678 6.39672199,0.0274576271 5.71975185,0.0274576271" id="path-1"></path>
        <linearGradient x1="18.8144948%" y1="84.9023523%" x2="78.8768898%" y2="6.31422588%" id="linearGradient-3">
            <stop stop-color="#EDBE3F" offset="0%"></stop>
            <stop stop-color="#FAEB3C" offset="100%"></stop>
        </linearGradient>
        <path d="M3.99400763,1.98789916 C3.07958735,1.77310924 2.22258802,1.44067227 1.43495851,1.0097479 C0.934101817,0.735798319 0.461457726,0.422184874 0.0200134559,0.0739495798 C0.019017717,0.072605042 0.018021978,0.0715966387 0.0170262391,0.0702521008 C0.618452568,0.54487395 1.27696793,0.954957983 1.98560215,1.28806723 C2.61756448,1.58521008 3.28836062,1.82218487 3.99400763,1.98789916" id="path-4"></path>
        <linearGradient x1="629.394091%" y1="-3192.84487%" x2="-773.90252%" y2="222.545136%" id="linearGradient-6">
            <stop stop-color="#CB6558" offset="0%"></stop>
            <stop stop-color="#E88656" offset="100%"></stop>
        </linearGradient>
        <path d="M3.92290989,12.9724067 C1.43455824,10.9714281 -0.0470681319,7.8237231 0.0540923077,4.48260249 C-0.0467428571,7.82204414 1.43358242,10.9677344 3.91998242,12.968713 C3.92095824,12.9700562 3.92193407,12.9710636 3.92290989,12.9724067 M0.0540923077,4.48260249 C0.0547428571,4.46581294 0.0550681319,4.44969497 0.0557186813,4.43290542 C0.0550681319,4.44935918 0.0547428571,4.46581294 0.0540923077,4.48260249 M0.567375824,1.5145457 C0.604457143,1.39970518 0.64349011,1.28553623 0.683824176,1.17271045 C0.829872527,0.768082275 0.99869011,0.376549951 1.18832527,0.000799804687 C0.94567033,0.481652539 0.737494505,0.987018018 0.567375824,1.5145457" id="path-7"></path>
        <linearGradient x1="733.178398%" y1="-370.170349%" x2="-678.724199%" y2="132.74107%" id="linearGradient-9">
            <stop stop-color="#B86156" offset="0%"></stop>
            <stop stop-color="#CC7D54" offset="100%"></stop>
        </linearGradient>
        <path d="M0.0612380952,2.999472 C0.0997749992,2.511228 0.201016018,2.0202 0.368880159,1.527432 C0.368880159,1.527084 0.368880159,1.526736 0.368880159,1.526388 C0.370839663,1.521864 0.372145999,1.516992 0.374105502,1.512468 L0.374105502,1.51212 C0.382596684,1.48776 0.390434699,1.464096 0.399579049,1.439736 C0.399579049,1.43904 0.399579049,1.43904 0.399579049,1.438344 C0.401538552,1.43382 0.402844888,1.429992 0.404151224,1.425468 C0.404804392,1.424424 0.404804392,1.423728 0.40545756,1.422684 C0.406763895,1.418508 0.408070231,1.415028 0.409376567,1.410852 C0.410029735,1.409808 0.410682903,1.408068 0.41133607,1.407024 C0.412642406,1.402848 0.413948742,1.39902 0.415255078,1.395192 C0.415908245,1.394496 0.415908245,1.393104 0.416561413,1.392408 C0.417867749,1.387884 0.419174085,1.384404 0.421133588,1.37988 C0.421133588,1.379184 0.421133588,1.378488 0.421786756,1.377792 C0.426358931,1.364568 0.431584274,1.351344 0.436809617,1.33812 C0.436809617,1.337424 0.437462785,1.335684 0.437462785,1.334988 C0.438769121,1.33116 0.440075456,1.328376 0.441381792,1.324548 C0.442688128,1.32246 0.442688128,1.321068 0.443994464,1.31898 C0.444647631,1.315848 0.445953967,1.312368 0.447260303,1.309236 C0.447913471,1.307496 0.449219807,1.30506 0.449872974,1.30332 C0.450526142,1.300188 0.451832478,1.297056 0.453138814,1.293924 C0.454445149,1.291488 0.455098317,1.289748 0.455751485,1.286964 C0.457057821,1.28418 0.458364157,1.281396 0.459017324,1.278264 C0.46032366,1.276176 0.460976828,1.27374 0.461629996,1.271652 C0.462936332,1.268868 0.464242667,1.265388 0.465549003,1.262256 C0.466202171,1.260516 0.466855339,1.259124 0.467508507,1.257036 C0.472080682,1.2459 0.476652857,1.234416 0.480571864,1.222932 C0.4818782,1.220496 0.482531368,1.218756 0.483837703,1.21632 C0.484490871,1.213536 0.485797207,1.210404 0.487103543,1.20762 C0.487756711,1.205184 0.489063046,1.202748 0.489716214,1.200312 C0.49102255,1.19718 0.492328886,1.194744 0.493635221,1.191612 C0.494288389,1.189176 0.494941557,1.187088 0.496247893,1.184652 C0.497554228,1.181868 0.498207396,1.179084 0.499513732,1.1763 C0.500820068,1.173864 0.501473236,1.170732 0.502779571,1.168296 C0.504085907,1.165512 0.504739075,1.163076 0.506045411,1.16064 C0.507351746,1.157508 0.508658082,1.154376 0.509964418,1.151244 C0.510617586,1.149156 0.511270754,1.147068 0.512577089,1.14498 C0.513883425,1.1415 0.515189761,1.137672 0.516496097,1.134192 C0.517802432,1.131756 0.519108768,1.12932 0.519761936,1.126884 C0.521721439,1.12236 0.523680943,1.117836 0.525640447,1.113312 C0.526293615,1.111224 0.526946782,1.109832 0.52759995,1.108092 C0.528906286,1.104612 0.53086579,1.101132 0.532172125,1.097652 C0.532825293,1.095216 0.534131629,1.093128 0.534784797,1.09104 C0.536091132,1.08756 0.537397468,1.084428 0.538703804,1.081296 C0.54001014,1.079208 0.540663308,1.076772 0.541969643,1.074684 C0.542622811,1.0719 0.544582315,1.06842 0.54588865,1.065288 C0.546541818,1.0632 0.547194986,1.060764 0.548501322,1.058676 C0.549807658,1.055544 0.551113993,1.052064 0.552420329,1.048932 C0.553726665,1.046844 0.554379833,1.044756 0.555033001,1.042668 C0.556992504,1.039188 0.55829884,1.036056 0.559605176,1.032576 C0.560258343,1.030488 0.561564679,1.0284 0.562217847,1.02666 C0.564177351,1.02144 0.566790022,1.01622 0.568749526,1.011 C0.571362197,1.006476 0.573321701,1.001952 0.575281204,0.99708 C0.575934372,0.995688 0.57658754,0.994296 0.577240708,0.992556 C0.578547044,0.989424 0.579853379,0.986988 0.581159715,0.983508 C0.581812883,0.981768 0.582466051,0.97968 0.583772387,0.97794 C0.584425554,0.975156 0.58573189,0.973068 0.587038226,0.970284 C0.587691394,0.967848 0.588997729,0.96576 0.589650897,0.963672 C0.590957233,0.961584 0.592263569,0.9588 0.592916737,0.956712 C0.594223072,0.954624 0.59487624,0.952188 0.595529408,0.9501 C0.596835744,0.947316 0.59814208,0.945576 0.599448415,0.942792 C0.600101583,0.940704 0.600754751,0.938616 0.602061087,0.936528 C0.603367422,0.934092 0.60402059,0.931656 0.605326926,0.92922 C0.605980094,0.927132 0.60728643,0.924696 0.607939598,0.922956 C0.609245933,0.920868 0.609899101,0.918432 0.611205437,0.916692 C0.61316494,0.91182 0.615124444,0.907296 0.617083948,0.902772 C0.618390283,0.900684 0.619043451,0.898248 0.620349787,0.89616 C0.621002955,0.894072 0.622309291,0.891636 0.623615626,0.8892 C0.624268794,0.887112 0.624921962,0.885372 0.626228298,0.883284 C0.627534633,0.8805 0.628840969,0.877716 0.630147305,0.874932 C0.630800473,0.873192 0.631453641,0.8718 0.632106808,0.87006 C0.633413144,0.866928 0.63471948,0.864144 0.636025816,0.86136 C0.636678984,0.859968 0.637332151,0.858228 0.637985319,0.856836 C0.639944823,0.854052 0.641251159,0.85092 0.642557494,0.848136 C0.643210662,0.846744 0.64386383,0.845004 0.644516998,0.843612 C0.645823334,0.84048 0.647129669,0.837348 0.649089173,0.834564 C0.649089173,0.833868 0.649742341,0.832824 0.649742341,0.832128 C0.656927187,0.816468 0.664765202,0.800808 0.671950048,0.785496 C0.672603216,0.784452 0.672603216,0.784104 0.673256384,0.78306 C0.67456272,0.77958 0.676522223,0.7761 0.677828559,0.77262 C0.678481727,0.771576 0.678481727,0.771228 0.679134895,0.770184 C0.681094398,0.766356 0.683053902,0.762876 0.684360238,0.759048 C0.685013405,0.758352 0.685013405,0.7587 0.685013405,0.758004 C0.686972909,0.753828 0.688932413,0.75 0.690891916,0.746172 C0.690891916,0.745824 0.690891916,0.745824 0.690891916,0.745476 C0.801277285,0.517884 0.925379179,0.293772 1.0612381,0.073488 C0.872472583,0.379032 0.707874281,0.691536 0.569402694,1.011 C0.279396162,1.676028 0.112838357,2.341404 0.0612380952,2.999472" id="path-10"></path>
        <linearGradient x1="5532.25602%" y1="-1674.85915%" x2="-5123.19392%" y2="529.553117%" id="linearGradient-12">
            <stop stop-color="#A6352B" offset="0%"></stop>
            <stop stop-color="#C05A2D" offset="100%"></stop>
        </linearGradient>
    </defs>
    <g id="Page-1" stroke="none" stroke-width="1" fill="none" fill-rule="evenodd">
        <g id="Group-37">
            <g id="Group-29">
                <g id="Group-19">
                    <g id="Group-15">
                        <g id="Group-4">
                            <g id="Group-2">
                                <ellipse id="Oval" fill="#FFF60F" cx="72.5" cy="75.41011" rx="72.5" ry="75.41011"></ellipse>
                                <ellipse id="Oval" fill="#FFFFFF" cx="72.8302961" cy="70.2835455" rx="66.5546697" ry="66.6453385"></ellipse>
                            </g>
                        </g>
                    </g>
                </g>
            </g>
            <g id="Group-35" transform="translate(37.000000, 45.000000)">
                <path d="M28.2828124,19 C27.5743936,19 27,19.5621682 27,20.2559295 L27,24.7444114 C27,25.4378318 27.5743936,26 28.2828124,26 L64,26 L64,19 L28.2828124,19" id="Fill-55" fill="#EAEAE3"></path>
                <path d="M29.0094124,21 C28.4519344,21 28,21.4016237 28,21.8970416 L28,25.1029584 C28,25.5983763 28.4519344,26 29.0094124,26 L63,26 L63,21 L29.0094124,21" id="Fill-56" fill="#FFFFFE"></path>
                <g id="Group-59" transform="translate(64.000000, 19.000000)">
                    <mask id="mask-2" fill="white">
                        <use xlink:href="#path-1"></use>
                    </mask>
                    <g id="Clip-58"></g>
                    <path d="M5.71975185,0.0274576271 L0.011435821,0.0274576271 L0.011435821,6.98779661 L5.71975185,6.98779661 C6.39672199,6.98779661 6.94588655,6.42881356 6.94588655,5.73932203 L6.94588655,1.27627119 C6.94588655,0.586440678 6.39672199,0.0274576271 5.71975185,0.0274576271" id="Fill-57" fill="url(#linearGradient-3)" mask="url(#mask-2)"></path>
                </g>
                <path d="M65.6009744,22.5164729 C65.6009744,22.0051511 66.0257775,21.5886929 66.5481102,21.5886929 C67.0700994,21.5886929 67.4952459,22.0051511 67.4952459,22.5164729 C67.4952459,23.0281311 67.0700994,23.4442529 66.5481102,23.4442529 C66.0257775,23.4442529 65.6009744,23.0281311 65.6009744,22.5164729 Z M68.895688,24.3215735 L67.862012,23.3086853 C68.0076195,23.0775813 68.0962203,22.8077918 68.0962203,22.5164729 C68.0962203,21.680529 67.4014939,21 66.5481102,21 C65.6947264,21 65,21.680529 65,22.5164729 C65,23.3527532 65.6947264,24.0329458 66.5481102,24.0329458 C66.8015497,24.0329458 67.0378185,23.9670122 67.2490181,23.8607111 L68.3077633,24.8978197 C68.446846,25.0340601 68.6724689,25.0340601 68.8115516,24.8978197 L68.895688,24.8150663 C69.0347707,24.678826 69.0347707,24.4578138 68.895688,24.3215735 Z" id="Fill-60" fill="#E3692B"></path>
                <path d="M48.9672677,26 L47.2862691,26 C47.3303745,25.7572688 47.368932,25.5141967 47.4016644,25.2714654 L49,25.2714654 C48.9947295,25.5135148 48.9839112,25.756587 48.9672677,26 M48.1270458,19.7285346 L47.1789182,19.7285346 C47.1248266,19.4834169 47.0651872,19.2403448 47,19 L47.8485437,19 C47.9472954,19.2389812 48.0404993,19.4823942 48.1270458,19.7285346" id="Fill-65" fill="#C1C2BD"></path>
                <path d="M65,39.9998223 C65,44.9704994 60.9705789,49 56,49 C51.0294211,49 47,44.9704994 47,39.9998223 C47,35.0291452 51.0294211,31 56,31 C60.9705789,31 65,35.0291452 65,39.9998223" id="Fill-67" fill="#FFFFFE"></path>
                <path d="M64,40.5 C64,44.6422005 60.6422005,48 56.5,48 C52.3577995,48 49,44.6422005 49,40.5 C49,36.3581605 52.3577995,33 56.5,33 C60.6422005,33 64,36.3581605 64,40.5" id="Fill-68" fill="#E98437"></path>
                <path d="M62,40.4998271 C62,43.5375766 59.5374992,46 56.5,46 C53.4625008,46 51,43.5375766 51,40.4998271 C51,37.4624234 53.4625008,35 56.5,35 C59.5374992,35 62,37.4624234 62,40.4998271" id="Fill-69" fill="#FFFFFE"></path>
                <path d="M60,40.5 C60,42.4331186 58.4331186,44 56.5,44 C54.5668814,44 53,42.4331186 53,40.5 C53,38.5672081 54.5668814,37 56.5,37 C58.4331186,37 60,38.5672081 60,40.5" id="Fill-70" fill="#E98437"></path>
                <path d="M59,41 C59,42.104604 58.104604,43 57,43 C55.895396,43 55,42.104604 55,41 C55,39.895396 55.895396,39 57,39 C58.104604,39 59,39.895396 59,41" id="Fill-71" fill="#FFFFFE"></path>
                <polyline id="Fill-72" fill="#54251A" points="57.6179297 40 57 39.3238362 65.3820703 33 66 33.6761638 57.6179297 40"></polyline>
                <polyline id="Fill-73" fill="#54251A" points="58 39.7606408 56.5341201 38 56 40 58 39.7606408"></polyline>
                <polyline id="Fill-74" fill="#54251A" points="64 33.7795008 64 31.984115 65.4963316 30 65.7143402 32.1100605 68 32.551059 65.9049071 34 64 33.7795008"></polyline>
                <path d="M56.0001718,12.2725711 C54.7481527,12.2725711 53.7332715,11.2576898 53.7332715,10.0060144 C53.7332715,8.75399526 54.7481527,7.739114 56.0001718,7.739114 C57.2518473,7.739114 58.2667285,8.75399526 58.2667285,10.0060144 C58.2667285,11.2576898 57.2518473,12.2725711 56.0001718,12.2725711 Z M60.8240368,9.36230539 L59.6259752,9.1540365 C59.6063855,9.07121009 59.5850775,8.98907104 59.5603327,8.9083067 L60.4906691,8.12643915 C60.5697151,8.05976561 60.5896484,7.94600818 60.537753,7.85665189 L60.1071244,7.11636939 C60.0548854,7.02701309 59.9462831,6.9878338 59.8493659,7.02357631 L58.7056054,7.44698766 C58.6543974,7.39303021 58.6018146,7.34044747 58.5475135,7.28958312 L58.9685191,6.14479156 C59.0042616,6.04787435 58.9650823,5.93927209 58.875726,5.88737671 L58.1344125,5.45812283 C58.0447125,5.40657112 57.9312988,5.42650445 57.8649689,5.50589408 L57.0817266,6.44104203 C57.0047428,6.41767192 56.9263842,6.39739492 56.8469945,6.37883631 L56.6376946,5.17630684 C56.620167,5.07457814 56.5318418,5 56.4283947,5 L55.5716053,5 C55.4685019,5 55.3801767,5.07457814 55.3623054,5.17630684 L55.1530055,6.37883631 C55.0828951,6.39533285 55.0134722,6.41320411 54.9450802,6.43348111 L54.1683679,5.49214696 C54.1027254,5.41241365 53.9893116,5.39144929 53.899268,5.44265732 L53.1548613,5.86641234 C53.0651614,5.9172767 53.024951,6.02553528 53.0600062,6.12279616 L53.4724198,7.27068083 C53.417775,7.3212015 53.3651923,7.37344056 53.3136406,7.42705434 L52.1726295,6.99539471 C52.076056,6.95896484 51.96711,6.9971131 51.9145273,7.08612572 L51.4783998,7.82331512 C51.4258171,7.91232773 51.4447194,8.02608516 51.5234217,8.09310238 L52.4479156,8.88218717 C52.4200777,8.97119978 52.3956765,9.06193078 52.3743685,9.1540365 L51.1763068,9.36230539 C51.0742345,9.38017665 51,9.46850191 51,9.571949 L51,10.4283947 C51,10.5318418 51.0742345,10.620167 51.1763068,10.6376946 L52.3716191,10.8459635 C52.390865,10.9298209 52.4121731,11.0126474 52.4372616,11.094099 L51.5093309,11.8739045 C51.4302849,11.9405781 51.4106953,12.0543355 51.4625906,12.1436918 L51.8932192,12.8839743 C51.9451146,12.9733306 52.0537169,13.0125099 52.1506341,12.9764237 L53.28649,12.5561054 C53.3390728,12.612125 53.3933739,12.6664261 53.4493934,12.7190088 L53.0314809,13.8555521 C52.9957384,13.9524693 53.0349177,14.0610716 53.1246177,14.112967 L53.8659312,14.5418772 C53.9552875,14.5937726 54.0690449,14.5738392 54.1353748,14.4944496 L54.9107124,13.568581 C54.9907894,13.5929821 55.0725848,13.6142901 55.1550675,13.6331924 L55.3623054,14.8240368 C55.3801767,14.9257655 55.4685019,15 55.5716053,15 L56.4283947,15 C56.5318418,15 56.620167,14.9257655 56.6376946,14.8240368 L56.8449325,13.6331924 C56.9184796,13.6163522 56.9909956,13.5974499 57.0628243,13.5761419 L57.8316321,14.5081967 C57.8972746,14.58793 58.0110321,14.6088944 58.100732,14.5576864 L58.8451387,14.1339313 C58.9351823,14.0827233 58.975049,13.9744647 58.9399938,13.8772038 L58.5306733,12.7382548 C58.5870365,12.6860157 58.6416813,12.6317146 58.6946077,12.5760388 L59.8273705,13.004949 C59.923944,13.0413788 60.03289,13.0032306 60.0854727,12.914218 L60.5216002,12.1770286 C60.5741829,12.0880159 60.5552806,11.9742585 60.4765783,11.9072413 L59.5551775,11.1205623 C59.5833591,11.0305186 59.6070729,10.9387566 59.6287246,10.8459635 L60.8240368,10.6376946 C60.9257655,10.620167 61,10.5318418 61,10.4283947 L61,9.571949 C61,9.46850191 60.9257655,9.38017665 60.8240368,9.36230539 Z" id="Fill-75" fill="#E98437"></path>
                <path d="M66,9.09064409 C64.9983343,9.09064409 64.186563,8.38034425 64.186563,7.50388673 C64.186563,6.6277531 64.9983343,5.91712937 66,5.91712937 C67.0012956,5.91712937 67.813437,6.6277531 67.813437,7.50388673 C67.813437,8.38034425 67.0012956,9.09064409 66,9.09064409 Z M69.8589672,7.05334999 L68.9006108,6.90759763 C68.8850639,6.84962058 68.8680363,6.79196743 68.8480474,6.73560985 L69.5924486,6.18822876 C69.6557468,6.14158801 69.6716639,6.06191005 69.6298353,5.99939848 L69.2855821,5.48116787 C69.2437535,5.4186563 69.1571349,5.39144919 69.0794003,5.41638904 L68.1643531,5.71275217 C68.1232649,5.67485656 68.0814362,5.63825652 68.038127,5.60262817 L68.3749769,4.80099019 C68.4034795,4.73329632 68.3720155,4.6571812 68.3005738,4.62090505 L67.7071997,4.32065519 C67.6357579,4.28437905 67.5446974,4.2983065 67.4917638,4.35369239 L66.8654451,5.00860633 C66.8036276,4.99208773 66.7410698,4.97783639 66.6777716,4.96520452 L66.510087,4.12307977 C66.4960207,4.05182306 66.4253193,4 66.3427725,4 L65.6572275,4 C65.5746807,4 65.5039793,4.05182306 65.489913,4.12307977 L65.3222284,4.96520452 C65.2663335,4.97654081 65.2108088,4.98917268 65.1560244,5.00342402 L64.534888,4.34429946 C64.4823246,4.28858967 64.3912641,4.27401444 64.3194522,4.30964279 L63.7238571,4.60632982 C63.6520452,4.64195817 63.6198408,4.7177494 63.6479733,4.78576717 L63.9777901,5.58934851 C63.9341107,5.62465297 63.8919119,5.66125301 63.8508236,5.69882473 L62.9379974,5.3966315 C62.8610031,5.37104386 62.7736443,5.39760318 62.7314455,5.46011475 L62.3827503,5.9760781 C62.3405515,6.03826578 62.3557283,6.11794373 62.4186563,6.16490838 L63.1582454,6.71747177 C63.1360355,6.77965945 63.1164168,6.8431427 63.0993892,6.90759763 L62.1410328,7.05334999 C62.0595965,7.06598186 62,7.12784564 62,7.20007403 L62,7.79960207 C62,7.87215436 62.0595965,7.93401814 62.1410328,7.94632612 L63.0971682,8.09175458 C63.1127152,8.15037942 63.1297427,8.20868036 63.1497316,8.26568573 L62.4075514,8.81144734 C62.3442532,8.8580881 62.3283361,8.93776606 62.3697946,9.00027762 L62.7144179,9.51850824 C62.7558764,9.5810198 62.8428651,9.60855081 62.9205997,9.58328706 L63.8289839,9.28919119 C63.8711827,9.32838238 63.9148621,9.36627799 63.9592819,9.40320192 L63.6250231,10.1986859 C63.5965205,10.2663798 63.6279845,10.3424949 63.6994262,10.3787711 L64.2924301,10.6790209 C64.3642421,10.7152971 64.4553026,10.7013696 64.5082362,10.6459837 L65.1282621,9.99754766 C65.1926707,10.014714 65.2581899,10.0296132 65.3240792,10.0432167 L65.489913,10.8765963 C65.5039793,10.947853 65.5746807,11 65.6572275,11 L66.3427725,11 C66.4253193,11 66.4960207,10.947853 66.510087,10.8765963 L66.6759208,10.0432167 C66.734777,10.0312326 66.7928928,10.017953 66.8502684,10.0030539 L67.465112,10.6553766 C67.5176754,10.7114103 67.6087359,10.7259856 67.6805478,10.6900333 L68.2761429,10.3936702 C68.3479548,10.3577179 68.3801592,10.2819267 68.3520267,10.2139089 L68.0244309,9.41648158 C68.069591,9.37988155 68.1132704,9.34198593 68.1554692,9.30311864 L69.0616324,9.6030446 C69.1389969,9.62863224 69.2263557,9.60207292 69.2681843,9.53988525 L69.6172497,9.023598 C69.6594485,8.96141033 69.6442717,8.88173237 69.5813437,8.83476772 L68.8439756,8.2841477 C68.8665556,8.22131223 68.8858042,8.1568573 68.9028318,8.09175458 L69.8589672,7.94632612 C69.9404035,7.93401814 70,7.87215436 70,7.79960207 L70,7.20007403 C70,7.12784564 69.9404035,7.06598186 69.8589672,7.05334999 Z" id="Fill-76" fill="#FDF9CA"></path>
                <path d="M59.5,3.63623932 C58.8740599,3.63623932 58.3667442,3.12888889 58.3667442,2.50290598 C58.3667442,1.87692308 58.8740599,1.36957265 59.5,1.36957265 C60.1259401,1.36957265 60.6332558,1.87692308 60.6332558,2.50290598 C60.6332558,3.12888889 60.1259401,3.63623932 59.5,3.63623932 Z M61.9118009,2.18119658 L61.3128675,2.07692308 C61.3032955,2.03555556 61.2923561,1.99452991 61.2800492,1.95418803 L61.7453166,1.56307692 C61.7846301,1.52991453 61.794544,1.47282051 61.7685628,1.42837607 L61.5535348,1.05811966 C61.5275537,1.01333333 61.4731984,0.993846154 61.4246547,1.01162393 L60.852728,1.22324786 L60.7737591,1.14461538 L60.984343,0.572307692 C61.0021195,0.523760684 60.9826337,0.469401709 60.9378504,0.443418803 L60.5669356,0.229059829 C60.5224942,0.203076923 60.4654041,0.212991453 60.4322439,0.252649573 L60.0408177,0.72034188 C60.0021879,0.708717949 59.9632162,0.698461538 59.9235608,0.689230769 L59.8189526,0.0878632479 C59.8100643,0.0369230769 59.7659647,0 59.7140025,0 L59.2859975,0 C59.2340353,0 59.1899357,0.0369230769 59.1810474,0.0878632479 L59.0764392,0.689230769 C59.0415698,0.697435897 59.0067004,0.706666667 58.9725147,0.716581197 L58.5841652,0.245811966 C58.5513469,0.206153846 58.4945987,0.195555556 58.4498154,0.221196581 L58.0775332,0.432820513 C58.032408,0.458461538 58.0125803,0.512820513 58.030015,0.561367521 L58.2361548,1.13504274 L58.156844,1.21333333 L57.5862847,0.997606838 C57.5380829,0.979145299 57.4837276,0.998290598 57.4574046,1.04273504 L57.2392999,1.41162393 C57.2129769,1.45606838 57.2225489,1.51282051 57.2618624,1.54632479 L57.7240531,1.94119658 C57.7100369,1.98564103 57.6977301,2.03111111 57.6871325,2.07692308 L57.0881991,2.18119658 C57.0372624,2.19008547 57,2.23418803 57,2.28581197 L57,2.71418803 C57,2.76581197 57.0372624,2.80991453 57.0881991,2.81880342 L57.6857651,2.92273504 C57.6953371,2.96478632 57.7062765,3.00615385 57.7185833,3.04683761 L57.2546834,3.43692308 C57.215028,3.47008547 57.2051142,3.52717949 57.2310953,3.57162393 L57.4464652,3.94188034 C57.4724463,3.98666667 57.5268016,4.00615385 57.5753453,3.98837607 L58.1431697,3.77811966 L58.2245317,3.85948718 L58.015657,4.42769231 C57.9978805,4.47623932 58.0173663,4.53059829 58.0621496,4.5565812 L58.4327225,4.77094017 C58.4775058,4.79692308 58.5345959,4.78700855 58.5677561,4.74735043 L58.9554219,4.28410256 C58.9954191,4.29641026 59.0361001,4.30700855 59.0774648,4.3165812 L59.1810474,4.91213675 C59.1899357,4.96307692 59.2340353,5 59.2859975,5 L59.7140025,5 C59.7659647,5 59.8100643,4.96307692 59.8189526,4.91213675 L59.9225352,4.3165812 C59.9591139,4.30803419 59.9953507,4.29880342 60.0312457,4.28820513 L60.4158348,4.75418803 C60.4486531,4.79384615 60.5054013,4.80444444 60.5501846,4.77880342 L60.9224668,4.56717949 C60.967592,4.54153846 60.9874197,4.48717949 60.969985,4.43863248 L60.7652126,3.86905983 L60.8472583,3.78803419 L61.4137153,4.00239316 C61.4619171,4.0208547 61.5162724,4.0017094 61.5425954,3.95726496 L61.7607001,3.58837607 C61.7870231,3.54393162 61.7774511,3.48717949 61.7381376,3.45367521 L61.2773144,3.06017094 C61.2916724,3.01538462 61.3036374,2.96923077 61.3142349,2.92273504 L61.9118009,2.81880342 C61.9627376,2.80991453 62,2.76581197 62,2.71418803 L62,2.28581197 C62,2.23418803 61.9627376,2.19008547 61.9118009,2.18119658 Z" id="Fill-77" fill="#F7C036"></path>
                <path d="M50.0337091,12.7976314 C49.5853332,12.0889814 49.3341891,11.0767784 49.3348588,9.9716732 C49.3345239,7.96671201 50.1542583,5.6733216 52,4.29599104 L51.8087956,4 C49.8558991,5.4612307 49.0003349,7.86696807 49,9.9716732 C49.0006697,11.1343923 49.2595156,12.2110507 49.756446,13 L50.0337091,12.7976314" id="Fill-78" fill="#FDF9CA"></path>
                <polyline id="Fill-79" fill="#FDF9CA" points="51.9651145 6 53 4.04647189 51 4 51.9651145 6"></polyline>
                <path d="M71.2613948,10 C71.7510913,9.34606322 71.9995939,8.49841554 72,7.58446413 C71.9991879,5.6018526 70.8224546,3.28772243 68.2127703,2 L68,2.27659056 C70.4663486,3.48955879 71.594762,5.69903307 71.5939499,7.58446413 C71.5943559,8.45096287 71.3547863,9.24498253 70.9130038,9.83261558 L71.2613948,10" id="Fill-80" fill="#FDF9CA"></path>
                <polyline id="Fill-81" fill="#FDF9CA" points="69 1 67 1.16802258 68.131492 3 69 1"></polyline>
                <path d="M43.8113011,26 L27.9212652,26 C27.2097657,25.2581698 26.5671791,24.454634 26,23.6033702 L26,20.2559295 C26,19.5621682 26.5953216,19 27.3295516,19 L43.3343222,19 C43.4429233,19.2389812 43.5421436,19.4820533 43.631983,19.7285346 L28.0118263,19.7285346 C27.4305759,19.7285346 26.9593698,20.1737691 26.9593698,20.7229825 L26.9593698,24.2770175 C26.9593698,24.8262309 27.4305759,25.2714654 28.0118263,25.2714654 L44,25.2714654 C43.9823208,25.3522622 43.9635591,25.4327181 43.943715,25.5135148 C43.9033053,25.6774948 43.8592876,25.8397701 43.8113011,26" id="Fill-85" fill="#F0EED8"></path>
                <path d="M43.7834138,26 L28.9748088,26 C28.4364416,26 28,25.5983763 28,25.1029584 L28,21.8970416 C28,21.4016237 28.4364416,21 28.9748088,21 L43.4425482,21 C44.0246931,22.5591365 44.1724016,24.2760317 43.7834138,26 Z M30.0876347,24.3526047 L41.0324279,24.3526047 L41.0324279,22.3460237 L30.0876347,22.3460237 L30.0876347,24.3526047 Z" id="Fill-86" fill="#FFFCEA"></path>
                <polygon id="Fill-87" fill="#FFFCEA" points="29 23 41 23 41 21 29 21"></polygon>
                <path d="M30.4391275,24 C30.3246387,24 30.1782644,23.9721153 30,23.9163449 L30,23.6486486 C30.1920952,23.7481772 30.3499951,23.7979408 30.4737044,23.7979408 C30.5689837,23.7979408 30.6456285,23.770056 30.7036413,23.7142857 C30.761654,23.6585154 30.79066,23.585157 30.79066,23.4942085 C30.79066,23.419562 30.7716428,23.3560706 30.733608,23.3037323 C30.6955731,23.251394 30.6254594,23.1930505 30.5232647,23.1287001 L30.4057031,23.0527671 C30.2604791,22.9601025 30.1580939,22.8728018 30.0985444,22.7908623 C30.0389948,22.7089228 30.0092205,22.6134712 30.0092205,22.5045045 C30.0092205,22.3577856 30.0568594,22.2370232 30.1521386,22.1422136 C30.2474179,22.0474041 30.3688202,22 30.5163494,22 C30.6477425,22 30.7864331,22.0244528 30.9324255,22.0733591 L30.9324255,22.3204633 C30.7526244,22.2415268 30.6185439,22.2020592 30.5301801,22.2020592 C30.4464266,22.2020592 30.3772734,22.226941 30.3227183,22.2767053 C30.2681633,22.3264696 30.2408862,22.389103 30.2408862,22.4646075 C30.2408862,22.5280998 30.2608638,22.5842983 30.3008196,22.6332046 C30.3407754,22.6821109 30.4137705,22.7404544 30.5198071,22.8082368 L30.641979,22.8854569 C30.7895081,22.9789794 30.8924696,23.0673527 30.9508666,23.1505792 C31.0092635,23.2338056 31.0384615,23.3337618 31.0384615,23.4504505 C31.0384615,23.6160454 30.9837152,23.7490342 30.874221,23.8494208 C30.7647267,23.9498075 30.619697,24 30.4391275,24 Z M31.3846154,24 L31.3846154,22.125 L32.3717507,22.125 L32.3717507,22.323902 L31.6352785,22.323902 L31.6352785,22.9256757 L32.2523873,22.9256757 L32.2523873,23.1220439 L31.6352785,23.1220439 L31.6352785,23.801098 L32.4230769,23.801098 L32.4230769,24 L31.3846154,24 Z M33.5769231,23.25 L33.2890327,22.5 L33,23.25 L33.5769231,23.25 Z M33.8867724,24 L33.69735,23.4805743 L32.9596616,23.4805743 L32.7678862,24 L32.5384615,24 L33.2290885,22.125 L33.4738081,22.125 L34.1538462,24 L33.8867724,24 Z M34.3846154,24 L34.3846154,22.125 L34.9096527,22.125 C35.0760716,22.125 35.2036184,22.1646955 35.292297,22.2440878 C35.3809757,22.3234801 35.4253143,22.4387661 35.4253143,22.5899493 C35.4253143,22.8399506 35.3085103,23.0173137 35.0748988,23.1220439 L35.6538462,24 L35.3514809,24 L34.8580865,23.2069257 L34.6283827,23.2069257 L34.6283827,24 L34.3846154,24 Z M34.6153846,23 L34.6999337,23 C35.0281847,23 35.1923077,22.8800166 35.1923077,22.6400463 C35.1923077,22.4633479 35.0547096,22.375 34.7795093,22.375 L34.6153846,22.375 L34.6153846,23 Z M36.7172323,24 C36.451625,24 36.2464561,23.9131283 36.1017194,23.7393822 C35.9569827,23.5656362 35.8846154,23.3196069 35.8846154,23.001287 C35.8846154,22.6838251 35.9583299,22.4375813 36.1057612,22.2625483 C36.2531925,22.0875152 36.4608635,22 36.7287804,22 C36.8819858,22 37.0613642,22.0278847 37.2669212,22.0836551 L37.2669212,22.3371943 C37.0328788,22.2471038 36.8523455,22.2020592 36.725316,22.2020592 C36.5397758,22.2020592 36.3961961,22.2719856 36.2945724,22.4118404 C36.1929487,22.5516953 36.1421377,22.7490335 36.1421377,23.003861 C36.1421377,23.2466765 36.1964131,23.4382232 36.3049657,23.5785071 C36.4135182,23.7187909 36.5617172,23.7889318 36.7495669,23.7889318 C36.9112409,23.7889318 37.0844605,23.7335913 37.2692308,23.6229086 L37.2692308,23.8545689 C37.1006279,23.9515234 36.9166302,24 36.7172323,24 Z M37.6153846,24 L37.6153846,22.125 L37.8740761,22.125 L37.8740761,22.9155405 L38.7413085,22.9155405 L38.7413085,22.125 L39,22.125 L39,24 L38.7413085,24 L38.7413085,23.1144426 L37.8740761,23.1144426 L37.8740761,24 L37.6153846,24 Z" id="search" fill="#A0A292"></path>
                <g id="Group-95" transform="translate(27.000000, 32.000000)">
                    <mask id="mask-5" fill="white">
                        <use xlink:href="#path-4"></use>
                    </mask>
                    <g id="Clip-94"></g>
                    <path d="M3.99400763,1.98789916 C3.07958735,1.77310924 2.22258802,1.44067227 1.43495851,1.0097479 C0.934101817,0.735798319 0.461457726,0.422184874 0.0200134559,0.0739495798 C0.019017717,0.072605042 0.018021978,0.0715966387 0.0170262391,0.0702521008 C0.618452568,0.54487395 1.27696793,0.954957983 1.98560215,1.28806723 C2.61756448,1.58521008 3.28836062,1.82218487 3.99400763,1.98789916" id="Fill-93" fill="url(#linearGradient-6)" mask="url(#mask-5)"></path>
                </g>
                <g id="Group-98" transform="translate(23.000000, 18.000000)">
                    <mask id="mask-8" fill="white">
                        <use xlink:href="#path-7"></use>
                    </mask>
                    <g id="Clip-97"></g>
                    <path d="M3.92290989,12.9724067 C1.43455824,10.9714281 -0.0470681319,7.8237231 0.0540923077,4.48260249 C-0.0467428571,7.82204414 1.43358242,10.9677344 3.91998242,12.968713 C3.92095824,12.9700562 3.92193407,12.9710636 3.92290989,12.9724067 M0.0540923077,4.48260249 C0.0547428571,4.46581294 0.0550681319,4.44969497 0.0557186813,4.43290542 C0.0550681319,4.44935918 0.0547428571,4.46581294 0.0540923077,4.48260249 M0.567375824,1.5145457 C0.604457143,1.39970518 0.64349011,1.28553623 0.683824176,1.17271045 C0.829872527,0.768082275 0.99869011,0.376549951 1.18832527,0.000799804687 C0.94567033,0.481652539 0.737494505,0.987018018 0.567375824,1.5145457" id="Fill-96" fill="url(#linearGradient-9)" mask="url(#mask-8)"></path>
                </g>
                <polyline id="Fill-99" fill="#E98437" points="18.4759783 34 24 31.0369173 22.5240217 29 17 31.9630827 18.4759783 34"></polyline>
                <polyline id="Fill-100" fill="#EEA13A" points="19.5496597 33 22 31.4775386 20.4503403 29 18 30.5224614 19.5496597 33"></polyline>
                <path d="M15.579255,31.201385 C16.2061667,30.8132652 17.0311795,31.002974 17.4221227,31.6257061 L19.7972342,35.4073502 C20.1881774,36.0297341 19.9967379,36.8491368 19.3698263,37.2369085 L6.7099283,45 L3,38.9143517 L15.579255,31.201385" id="Fill-101" fill="#F7C036"></path>
                <path d="M0.676679342,40.2439131 L3.01530249,39 L7,44.6165632 L4.74799252,45.814215 C4.07464982,46.1724183 3.18853384,45.9970111 2.76863612,45.4226008 L0.21761628,41.9321267 C-0.201904845,41.3580377 0.00333663876,40.6017951 0.676679342,40.2439131" id="Fill-102" fill="#EEA13A"></path>
                <path d="M18.7974622,35.6534086 L17.7327706,34 L4,42.23991 L5.72522067,45 L18.3705348,37.4360374 C18.9967416,37.0582123 19.1879658,36.259828 18.7974622,35.6534086" id="Fill-103" fill="#EEA13A"></path>
                <path d="M1,43.8604496 L2.06189108,45.4222887 C2.45265298,45.9970095 3.27728324,46.1725115 3.90390411,45.8141146 L6,44.6158153 L4.27363847,42 L1,43.8604496" id="Fill-104" fill="#E98437"></path>
                <path d="M31.0547421,34.0429967 C25.2319021,32.6927377 21.6064,26.8776412 22.9566644,21.0548249 C24.3072797,15.2320086 30.1223999,11.6061702 35.9452399,12.9567801 C41.7680799,14.30739 45.393582,20.1224865 44.0433176,25.9453028 C42.6927022,31.7681191 36.877582,35.3936066 31.0547421,34.0429967 M20.3519313,20.450577 C18.6679606,27.7120788 23.1893113,34.9637554 30.4504917,36.6480701 C37.712023,38.3320339 44.9637291,33.8107016 46.6480507,26.5495507 C48.3320213,19.2880489 43.8110215,12.0363723 36.5494902,10.3520576 C29.2879589,8.66774286 22.0362529,13.1890752 20.3519313,20.450577 Z" id="Fill-105" fill="#F7C036"></path>
                <path d="M35.8310235,16.9628712 C36.319611,17.0590933 36.9045201,17.3070885 37.4883822,17.696937 C38.3667928,18.2795604 39.2385725,19.1733351 39.8712934,20.2453357 C40.5068061,21.3179977 40.9067499,22.560619 40.906052,23.8627592 C40.905703,24.751574 40.7231806,25.6714709 40.2921766,26.61253 C40.0618425,27.1151337 40.3050893,27.6994104 40.8352068,27.9176461 C41.3656732,28.1358819 41.9823405,27.9054117 42.2126746,27.4031388 C42.7588457,26.2130924 43.0006965,25.0121343 42.9999985,23.8627592 C42.9999985,22.7378529 42.7707113,21.663207 42.3850762,20.6798233 C41.805402,19.2037559 40.8798776,17.9293911 39.809173,16.9499754 C39.2731226,16.4605982 38.6993813,16.0442969 38.1047005,15.7162819 C37.5093217,15.3889282 36.8930034,15.1478769 36.2634235,15.0215647 C35.6977089,14.9084788 35.1421151,15.2513736 35.0227601,15.7873739 C34.9034052,16.3233742 35.265309,16.8497853 35.8310235,16.9628712" id="Fill-106" fill="#FDF9CA"></path>
                <g id="Group-109" transform="translate(23.000000, 20.000000)">
                    <mask id="mask-11" fill="white">
                        <use xlink:href="#path-10"></use>
                    </mask>
                    <g id="Clip-108"></g>
                    <path d="M0.0612380952,2.999472 C0.0997749992,2.511228 0.201016018,2.0202 0.368880159,1.527432 C0.368880159,1.527084 0.368880159,1.526736 0.368880159,1.526388 C0.370839663,1.521864 0.372145999,1.516992 0.374105502,1.512468 L0.374105502,1.51212 C0.382596684,1.48776 0.390434699,1.464096 0.399579049,1.439736 C0.399579049,1.43904 0.399579049,1.43904 0.399579049,1.438344 C0.401538552,1.43382 0.402844888,1.429992 0.404151224,1.425468 C0.404804392,1.424424 0.404804392,1.423728 0.40545756,1.422684 C0.406763895,1.418508 0.408070231,1.415028 0.409376567,1.410852 C0.410029735,1.409808 0.410682903,1.408068 0.41133607,1.407024 C0.412642406,1.402848 0.413948742,1.39902 0.415255078,1.395192 C0.415908245,1.394496 0.415908245,1.393104 0.416561413,1.392408 C0.417867749,1.387884 0.419174085,1.384404 0.421133588,1.37988 C0.421133588,1.379184 0.421133588,1.378488 0.421786756,1.377792 C0.426358931,1.364568 0.431584274,1.351344 0.436809617,1.33812 C0.436809617,1.337424 0.437462785,1.335684 0.437462785,1.334988 C0.438769121,1.33116 0.440075456,1.328376 0.441381792,1.324548 C0.442688128,1.32246 0.442688128,1.321068 0.443994464,1.31898 C0.444647631,1.315848 0.445953967,1.312368 0.447260303,1.309236 C0.447913471,1.307496 0.449219807,1.30506 0.449872974,1.30332 C0.450526142,1.300188 0.451832478,1.297056 0.453138814,1.293924 C0.454445149,1.291488 0.455098317,1.289748 0.455751485,1.286964 C0.457057821,1.28418 0.458364157,1.281396 0.459017324,1.278264 C0.46032366,1.276176 0.460976828,1.27374 0.461629996,1.271652 C0.462936332,1.268868 0.464242667,1.265388 0.465549003,1.262256 C0.466202171,1.260516 0.466855339,1.259124 0.467508507,1.257036 C0.472080682,1.2459 0.476652857,1.234416 0.480571864,1.222932 C0.4818782,1.220496 0.482531368,1.218756 0.483837703,1.21632 C0.484490871,1.213536 0.485797207,1.210404 0.487103543,1.20762 C0.487756711,1.205184 0.489063046,1.202748 0.489716214,1.200312 C0.49102255,1.19718 0.492328886,1.194744 0.493635221,1.191612 C0.494288389,1.189176 0.494941557,1.187088 0.496247893,1.184652 C0.497554228,1.181868 0.498207396,1.179084 0.499513732,1.1763 C0.500820068,1.173864 0.501473236,1.170732 0.502779571,1.168296 C0.504085907,1.165512 0.504739075,1.163076 0.506045411,1.16064 C0.507351746,1.157508 0.508658082,1.154376 0.509964418,1.151244 C0.510617586,1.149156 0.511270754,1.147068 0.512577089,1.14498 C0.513883425,1.1415 0.515189761,1.137672 0.516496097,1.134192 C0.517802432,1.131756 0.519108768,1.12932 0.519761936,1.126884 C0.521721439,1.12236 0.523680943,1.117836 0.525640447,1.113312 C0.526293615,1.111224 0.526946782,1.109832 0.52759995,1.108092 C0.528906286,1.104612 0.53086579,1.101132 0.532172125,1.097652 C0.532825293,1.095216 0.534131629,1.093128 0.534784797,1.09104 C0.536091132,1.08756 0.537397468,1.084428 0.538703804,1.081296 C0.54001014,1.079208 0.540663308,1.076772 0.541969643,1.074684 C0.542622811,1.0719 0.544582315,1.06842 0.54588865,1.065288 C0.546541818,1.0632 0.547194986,1.060764 0.548501322,1.058676 C0.549807658,1.055544 0.551113993,1.052064 0.552420329,1.048932 C0.553726665,1.046844 0.554379833,1.044756 0.555033001,1.042668 C0.556992504,1.039188 0.55829884,1.036056 0.559605176,1.032576 C0.560258343,1.030488 0.561564679,1.0284 0.562217847,1.02666 C0.564177351,1.02144 0.566790022,1.01622 0.568749526,1.011 C0.571362197,1.006476 0.573321701,1.001952 0.575281204,0.99708 C0.575934372,0.995688 0.57658754,0.994296 0.577240708,0.992556 C0.578547044,0.989424 0.579853379,0.986988 0.581159715,0.983508 C0.581812883,0.981768 0.582466051,0.97968 0.583772387,0.97794 C0.584425554,0.975156 0.58573189,0.973068 0.587038226,0.970284 C0.587691394,0.967848 0.588997729,0.96576 0.589650897,0.963672 C0.590957233,0.961584 0.592263569,0.9588 0.592916737,0.956712 C0.594223072,0.954624 0.59487624,0.952188 0.595529408,0.9501 C0.596835744,0.947316 0.59814208,0.945576 0.599448415,0.942792 C0.600101583,0.940704 0.600754751,0.938616 0.602061087,0.936528 C0.603367422,0.934092 0.60402059,0.931656 0.605326926,0.92922 C0.605980094,0.927132 0.60728643,0.924696 0.607939598,0.922956 C0.609245933,0.920868 0.609899101,0.918432 0.611205437,0.916692 C0.61316494,0.91182 0.615124444,0.907296 0.617083948,0.902772 C0.618390283,0.900684 0.619043451,0.898248 0.620349787,0.89616 C0.621002955,0.894072 0.622309291,0.891636 0.623615626,0.8892 C0.624268794,0.887112 0.624921962,0.885372 0.626228298,0.883284 C0.627534633,0.8805 0.628840969,0.877716 0.630147305,0.874932 C0.630800473,0.873192 0.631453641,0.8718 0.632106808,0.87006 C0.633413144,0.866928 0.63471948,0.864144 0.636025816,0.86136 C0.636678984,0.859968 0.637332151,0.858228 0.637985319,0.856836 C0.639944823,0.854052 0.641251159,0.85092 0.642557494,0.848136 C0.643210662,0.846744 0.64386383,0.845004 0.644516998,0.843612 C0.645823334,0.84048 0.647129669,0.837348 0.649089173,0.834564 C0.649089173,0.833868 0.649742341,0.832824 0.649742341,0.832128 C0.656927187,0.816468 0.664765202,0.800808 0.671950048,0.785496 C0.672603216,0.784452 0.672603216,0.784104 0.673256384,0.78306 C0.67456272,0.77958 0.676522223,0.7761 0.677828559,0.77262 C0.678481727,0.771576 0.678481727,0.771228 0.679134895,0.770184 C0.681094398,0.766356 0.683053902,0.762876 0.684360238,0.759048 C0.685013405,0.758352 0.685013405,0.7587 0.685013405,0.758004 C0.686972909,0.753828 0.688932413,0.75 0.690891916,0.746172 C0.690891916,0.745824 0.690891916,0.745824 0.690891916,0.745476 C0.801277285,0.517884 0.925379179,0.293772 1.0612381,0.073488 C0.872472583,0.379032 0.707874281,0.691536 0.569402694,1.011 C0.279396162,1.676028 0.112838357,2.341404 0.0612380952,2.999472" id="Fill-107" fill="url(#linearGradient-12)" mask="url(#mask-11)"></path>
                </g>
                <path d="M28,26 L27.3840376,26 C26.6197183,26 26,25.5308677 26,24.9522048 L26,24 C26.5904225,24.7103841 27.2593427,25.3809388 28,26" id="Fill-113" fill="#F1E8BD"></path>
                <path d="M24,19 C24.3218045,18.6616541 24.6541353,18.3283208 25,18 C24.6541353,18.3283208 24.3218045,18.6616541 24,19" id="Fill-117" fill="#F7C036"></path>
                <path d="M30.7217127,34.148619 C29.9981726,33.9817944 29.3103671,33.7432319 28.6623802,33.4440982 C24.253074,31.4083646 21.7257887,26.5193555 22.8679338,21.6235787 C23.1133112,20.5705197 23.5111561,19.5922441 24.0325406,18.7060097 C23.7643611,17.4901867 23.6231245,16.2459393 23.6200615,15 C22.0535258,16.6303465 20.890961,18.6850297 20.3413292,21.040877 C18.708089,28.0434486 23.0932318,35.0365454 30.1356657,36.6608009 C35.6047572,37.9216292 41.0663616,35.5732265 44,31.181984 C42.6250697,31.5650376 41.2947225,31.7721302 40.0167861,31.8239033 C37.5619909,33.9628448 34.144064,34.9380749 30.7217127,34.148619" id="Fill-118" fill="#E98437"></path>
                <path d="M31.1033633,33.8327841 C25.3966937,32.5094534 21.8435232,26.8103272 23.1671927,21.1036353 C24.4908622,15.3969433 30.189966,11.843759 35.8966357,13.1670897 C41.6033054,14.4907644 45.1564759,20.1898905 43.8328064,25.8965825 C42.5094808,31.6032744 36.8103769,35.1564588 31.1033633,33.8327841 Z M36.097817,12.2997716 C29.9120952,10.8653608 23.734627,14.7167073 22.2998779,20.9024532 C20.8651289,27.0881992 24.7168042,33.2656915 30.902526,34.7001023 C37.0879039,36.1348569 43.2653721,32.2835105 44.7001211,26.0977645 C46.1348702,19.9120186 42.2831949,13.7345263 36.097817,12.2997716 Z" id="Fill-119" fill="#EEA13A"></path>
            </g>
        </g>
    </g>
</svg>