<?xml version="1.0" encoding="UTF-8"?>
<svg width="638px" height="70px" viewBox="0 0 638 70" version="1.1" xmlns="http://www.w3.org/2000/svg" xmlns:xlink="http://www.w3.org/1999/xlink">
    <!-- Generator: Sketch 52.3 (67297) - http://www.bohemiancoding.com/sketch -->
    <title>Group 40</title>
    <desc>Created with Sketch.</desc>
    <defs>
        <circle id="path-1" cx="31.3910506" cy="31.3910506" r="31.3910506"></circle>
    </defs>
    <g id="Page-1" stroke="none" stroke-width="1" fill="none" fill-rule="evenodd">
        <g id="Group-40">
            <g id="Group-30">
                <g id="Group-4">
                    <g id="Group-5">
                        <g id="Group-3">
                            <g id="Group-2" transform="translate(187.120623, 0.000000)">
                                <rect id="Rectangle" fill="#FFF60F" x="0" y="0" width="450.36965" height="70" rx="35"></rect>
                                <g id="profile" transform="translate(4.221790, 3.677043)">
                                    <mask id="mask-2" fill="white">
                                        <use xlink:href="#path-1"></use>
                                    </mask>
                                    <use id="Mask" fill="#FFFFFF" xlink:href="#path-1"></use>
                                </g>
                            </g>
                            <path d="M187.120623,36.9457792 L19.5026484,36.9457792" id="Line-2" stroke="#FFF60F" stroke-width="5" stroke-linecap="square"></path>
                            <ellipse id="Oval" fill="#FFF60F" cx="9.73735409" cy="36.9747082" rx="9.73735409" ry="10.0097276"></ellipse>
                        </g>
                    </g>
                </g>
            </g>
            <g id="marketing" transform="translate(202.000000, 15.000000)">
                <g id="Group" transform="translate(1.000000, 1.000000)">
                    <path d="M0,4.55 L0,29.25 L26,29.25 C26,27.456 27.456,26 29.25,26 C31.044,26 32.5,27.456 32.5,29.25 L35.1,29.25 L35.1,4.55 L0,4.55 Z" id="Path" fill="#E6E9ED"></path>
                    <polygon id="Path" fill="#FCD770" points="2.6 21.45 5.2 21.45 5.2 26.65 2.6 26.65"></polygon>
                    <polygon id="Path" fill="#FCD770" points="7.8 22.75 10.4 22.75 10.4 26.65 7.8 26.65"></polygon>
                    <polygon id="Path" fill="#FCD770" points="13 17.55 15.6 17.55 15.6 26.65 13 26.65"></polygon>
                    <path d="M20.8,20.15 L20.8,24.388 C20.397,25.09 20.072,25.8505 19.851,26.65 L18.2,26.65 L18.2,20.15 L20.8,20.15 Z" id="Path" fill="#FCD770"></path>
                    <path d="M29.25,23.4 C26.0195,23.4 23.4,26.0195 23.4,29.25 C23.4,30.316 23.686,31.317 24.1865,32.175 C25.194,33.9235 27.0855,35.1 29.25,35.1 C31.4145,35.1 33.306,33.9235 34.3135,32.175 C34.814,31.317 35.1,30.316 35.1,29.25 C35.1,26.0195 32.4805,23.4 29.25,23.4 Z M29.25,32.5 C27.456,32.5 26,31.044 26,29.25 C26,27.456 27.456,26 29.25,26 C31.044,26 32.5,27.456 32.5,29.25 C32.5,31.044 31.044,32.5 29.25,32.5 Z" id="Shape" fill="#CCD1D9" fill-rule="nonzero"></path>
                    <path d="M34.3135,32.175 L37.6935,34.125 C36.0035,37.037 32.8575,39 29.25,39 C25.6425,39 22.4965,37.037 20.8065,34.125 L24.1865,32.175 C25.194,33.9235 27.0855,35.1 29.25,35.1 C31.4145,35.1 33.306,33.9235 34.3135,32.175 Z" id="Path" fill="#FCD770"></path>
                    <path d="M39,29.25 C39,31.0245 38.5255,32.695 37.6935,34.125 L34.3135,32.175 C34.814,31.317 35.1,30.316 35.1,29.25 C35.1,26.0195 32.4805,23.4 29.25,23.4 L29.25,19.5 C31.447,19.5 33.475,20.228 35.1,21.45 C37.466,23.231 39,26.065 39,29.25 Z" id="Path" fill="#FF826E"></path>
                    <path d="M29.25,19.5 L29.25,23.4 C26.0195,23.4 23.4,26.0195 23.4,29.25 C23.4,30.316 23.686,31.317 24.1865,32.175 L20.8065,34.125 C19.9745,32.695 19.5,31.0245 19.5,29.25 C19.5,28.353 19.6235,27.4755 19.851,26.65 C20.072,25.8505 20.397,25.09 20.8,24.388 C22.4835,21.463 25.6425,19.5 29.25,19.5 Z" id="Path" fill="#B4DD7F"></path>
                    <path d="M17.8165,13.3835 C18.057,13.6175 18.2,13.9425 18.2,14.3 C18.2,15.015 17.615,15.6 16.9,15.6 C16.185,15.6 15.6,15.015 15.6,14.3 C15.6,13.585 16.185,13 16.9,13 C17.2575,13 17.5825,13.143 17.8165,13.3835 Z" id="Path" fill="#FF826E"></path>
                    <path d="M23.6665,9.3665 C23.4325,9.607 23.1075,9.75 22.75,9.75 C22.3925,9.75 22.0675,9.607 21.8335,9.3665 C21.593,9.1325 21.45,8.8075 21.45,8.45 C21.45,7.735 22.035,7.15 22.75,7.15 C23.465,7.15 24.05,7.735 24.05,8.45 C24.05,8.8075 23.907,9.1325 23.6665,9.3665 Z" id="Path" fill="#FF826E"></path>
                    <path d="M27.5665,11.4335 C27.807,11.6675 27.95,11.9925 27.95,12.35 C27.95,13.065 27.365,13.65 26.65,13.65 C25.935,13.65 25.35,13.065 25.35,12.35 C25.35,11.9925 25.493,11.6675 25.7335,11.4335 C25.9675,11.193 26.2925,11.05 26.65,11.05 C27.0075,11.05 27.3325,11.193 27.5665,11.4335 Z" id="Path" fill="#FF826E"></path>
                    <path d="M35.1,0 C37.2515,0 39,1.7485 39,3.9 C39,6.0515 37.2515,7.8 35.1,7.8 C34.021,7.8 33.046,7.3645 32.344,6.656 C31.785,6.097 31.395,5.369 31.2585,4.55 C31.2195,4.342 31.2,4.121 31.2,3.9 C31.2,1.7485 32.9485,0 35.1,0 Z" id="Path" fill="#FF826E"></path>
                </g>
                <g id="Group" fill="#000000">
                    <path d="M36.1290323,21.6322581 L36.1290323,8.98064516 C38.3141935,8.66580645 40,6.78645161 40,4.51612903 C40,2.02645161 37.9741935,1.77635684e-15 35.483871,1.77635684e-15 C32.9935484,1.77635684e-15 30.9677419,2.02645161 30.9677419,4.51612903 L0,4.51612903 L0,30.3225806 L19.3877419,30.3225806 C19.7232258,35.7135484 24.203871,40 29.6774194,40 C35.3690323,40 40,35.3690323 40,29.6774194 C40,26.4264516 38.4858065,23.5258065 36.1290323,21.6322581 Z M35.483871,1.29032258 C37.2625806,1.29032258 38.7096774,2.73741935 38.7096774,4.51612903 C38.7096774,6.29483871 37.2625806,7.74193548 35.483871,7.74193548 C33.7051613,7.74193548 32.2580645,6.29483871 32.2580645,4.51612903 C32.2580645,2.73741935 33.7051613,1.29032258 35.483871,1.29032258 Z M1.29032258,5.80645161 L31.1580645,5.80645161 C31.3122581,6.32129032 31.5574194,6.79548387 31.8722581,7.21612903 L27.9264516,11.1619355 C27.6735484,11.0406452 27.3948387,10.9677419 27.0967742,10.9677419 C26.7987097,10.9677419 26.52,11.0406452 26.2677419,11.1619355 L24.9677419,9.86193548 C25.0883871,9.60903226 25.1612903,9.33032258 25.1612903,9.03225806 C25.1612903,7.96516129 24.2929032,7.09677419 23.2258065,7.09677419 C22.1587097,7.09677419 21.2903226,7.96516129 21.2903226,9.03225806 C21.2903226,9.33032258 21.3632258,9.60903226 21.4845161,9.86129032 L18.2490323,13.0967742 C17.996129,12.976129 17.7174194,12.9032258 17.4193548,12.9032258 C16.3522581,12.9032258 15.483871,13.7716129 15.483871,14.8387097 C15.483871,15.9058065 16.3522581,16.7741935 17.4193548,16.7741935 C18.4864516,16.7741935 19.3548387,15.9058065 19.3548387,14.8387097 C19.3548387,14.5406452 19.2819355,14.2619355 19.1606452,14.0096774 L22.396129,10.7741935 C22.6490323,10.8948387 22.9277419,10.9677419 23.2258065,10.9677419 C23.523871,10.9677419 23.8025806,10.8948387 24.0548387,10.7735484 L25.3548387,12.0735484 C25.2341935,12.3264516 25.1612903,12.6051613 25.1612903,12.9032258 C25.1612903,13.9703226 26.0296774,14.8387097 27.0967742,14.8387097 C28.163871,14.8387097 29.0322581,13.9703226 29.0322581,12.9032258 C29.0322581,12.6051613 28.9593548,12.3264516 28.8380645,12.0741935 L32.7845161,8.1283871 C33.3748387,8.57096774 34.0754839,8.87096774 34.8387097,8.98129032 L34.8387097,20.7522581 C33.3180645,19.8690323 31.5587097,19.3548387 29.6774194,19.3548387 C26.5935484,19.3548387 23.8283871,20.7212903 21.9354839,22.8729032 L21.9354839,20 L18.0645161,20 L18.0645161,27.7419355 L19.5432258,27.7419355 C19.4632258,28.1632258 19.4148387,28.5948387 19.3877419,29.0322581 L1.29032258,29.0322581 L1.29032258,5.80645161 Z M27.0967742,12.2580645 C27.4522581,12.2580645 27.7419355,12.5470968 27.7419355,12.9032258 C27.7419355,13.2593548 27.4522581,13.5483871 27.0967742,13.5483871 C26.7412903,13.5483871 26.4516129,13.2593548 26.4516129,12.9032258 C26.4516129,12.5470968 26.7412903,12.2580645 27.0967742,12.2580645 Z M22.5806452,9.03225806 C22.5806452,8.67612903 22.8703226,8.38709677 23.2258065,8.38709677 C23.5812903,8.38709677 23.8709677,8.67612903 23.8709677,9.03225806 C23.8709677,9.3883871 23.5812903,9.67741935 23.2258065,9.67741935 C22.8703226,9.67741935 22.5806452,9.3883871 22.5806452,9.03225806 Z M18.0645161,14.8387097 C18.0645161,15.1948387 17.7748387,15.483871 17.4193548,15.483871 C17.063871,15.483871 16.7741935,15.1948387 16.7741935,14.8387097 C16.7741935,14.4825806 17.063871,14.1935484 17.4193548,14.1935484 C17.7748387,14.1935484 18.0645161,14.4825806 18.0645161,14.8387097 Z M29.6774194,34.8387097 C26.8316129,34.8387097 24.516129,32.5232258 24.516129,29.6774194 C24.516129,26.8316129 26.8316129,24.516129 29.6774194,24.516129 C32.5232258,24.516129 34.8387097,26.8316129 34.8387097,29.6774194 C34.8387097,32.5232258 32.5232258,34.8387097 29.6774194,34.8387097 Z M20.6451613,24.6909677 C20.336129,25.2483871 20.0806452,25.8374194 19.8780645,26.4516129 L19.3548387,26.4516129 L19.3548387,21.2903226 L20.6451613,21.2903226 L20.6451613,24.6909677 Z M29.0322581,20.6780645 L29.0322581,23.2587097 C25.7767742,23.583871 23.2258065,26.3380645 23.2258065,29.6774194 C23.2258065,30.6212903 23.4348387,31.516129 23.8006452,32.3251613 L21.5625806,33.6174194 C20.9806452,32.4251613 20.6451613,31.0909677 20.6451613,29.6774194 C20.6451613,24.9148387 24.3529032,21.0109677 29.0322581,20.6780645 Z M29.6774194,38.7096774 C26.5716129,38.7096774 23.8270968,37.1335484 22.2012903,34.7387097 L24.4483871,33.4412903 C25.6212903,35.0658065 27.5251613,36.1290323 29.6774194,36.1290323 C31.8296774,36.1290323 33.7335484,35.0658065 34.9064516,33.4412903 L37.1535484,34.7387097 C35.5277419,37.1335484 32.7832258,38.7096774 29.6774194,38.7096774 Z M37.7922581,33.6174194 L35.5541935,32.3251613 C35.92,31.516129 36.1290323,30.6212903 36.1290323,29.6774194 C36.1290323,26.3380645 33.5780645,23.5832258 30.3225806,23.2587097 L30.3225806,20.6780645 C35.0019355,21.0109677 38.7096774,24.9148387 38.7096774,29.6774194 C38.7096774,31.0909677 38.3741935,32.4251613 37.7922581,33.6174194 Z" id="Shape" fill-rule="nonzero"></path>
                    <path d="M29.6774194,25.8064516 C27.5425806,25.8064516 25.8064516,27.5425806 25.8064516,29.6774194 C25.8064516,31.8122581 27.5425806,33.5483871 29.6774194,33.5483871 C31.8122581,33.5483871 33.5483871,31.8122581 33.5483871,29.6774194 C33.5483871,27.5425806 31.8122581,25.8064516 29.6774194,25.8064516 Z M29.6774194,32.2580645 C28.2541935,32.2580645 27.0967742,31.1006452 27.0967742,29.6774194 C27.0967742,28.2541935 28.2541935,27.0967742 29.6774194,27.0967742 C31.1006452,27.0967742 32.2580645,28.2541935 32.2580645,29.6774194 C32.2580645,31.1006452 31.1006452,32.2580645 29.6774194,32.2580645 Z" id="Shape" fill-rule="nonzero"></path>
                    <polygon id="Path" points="2.58064516 7.09677419 3.87096774 7.09677419 3.87096774 8.38709677 2.58064516 8.38709677"></polygon>
                    <polygon id="Path" points="5.16129032 7.09677419 14.1935484 7.09677419 14.1935484 8.38709677 5.16129032 8.38709677"></polygon>
                    <polygon id="Path" points="2.58064516 9.67741935 3.87096774 9.67741935 3.87096774 10.9677419 2.58064516 10.9677419"></polygon>
                    <polygon id="Path" points="5.16129032 9.67741935 14.1935484 9.67741935 14.1935484 10.9677419 5.16129032 10.9677419"></polygon>
                    <polygon id="Path" points="2.58064516 12.2580645 3.87096774 12.2580645 3.87096774 13.5483871 2.58064516 13.5483871"></polygon>
                    <polygon id="Path" points="5.16129032 12.2580645 14.1935484 12.2580645 14.1935484 13.5483871 5.16129032 13.5483871"></polygon>
                    <polygon id="Path" points="2.58064516 14.8387097 3.87096774 14.8387097 3.87096774 16.1290323 2.58064516 16.1290323"></polygon>
                    <polygon id="Path" points="5.16129032 14.8387097 14.1935484 14.8387097 14.1935484 16.1290323 5.16129032 16.1290323"></polygon>
                    <path d="M2.58064516,27.7419355 L6.4516129,27.7419355 L6.4516129,21.2903226 L2.58064516,21.2903226 L2.58064516,27.7419355 Z M3.87096774,22.5806452 L5.16129032,22.5806452 L5.16129032,26.4516129 L3.87096774,26.4516129 L3.87096774,22.5806452 Z" id="Shape" fill-rule="nonzero"></path>
                    <path d="M7.74193548,27.7419355 L11.6129032,27.7419355 L11.6129032,22.5806452 L7.74193548,22.5806452 L7.74193548,27.7419355 Z M9.03225806,23.8709677 L10.3225806,23.8709677 L10.3225806,26.4516129 L9.03225806,26.4516129 L9.03225806,23.8709677 Z" id="Shape" fill-rule="nonzero"></path>
                    <path d="M12.9032258,27.7419355 L16.7741935,27.7419355 L16.7741935,17.4193548 L12.9032258,17.4193548 L12.9032258,27.7419355 Z M14.1935484,18.7096774 L15.483871,18.7096774 L15.483871,26.4516129 L14.1935484,26.4516129 L14.1935484,18.7096774 Z" id="Shape" fill-rule="nonzero"></path>
                </g>
            </g>
        </g>
    </g>
</svg>