<?xml version="1.0" encoding="UTF-8"?>
<svg width="488px" height="96px" viewBox="0 0 488 96" version="1.1" xmlns="http://www.w3.org/2000/svg" xmlns:xlink="http://www.w3.org/1999/xlink">
    <!-- Generator: Sketch 52.3 (67297) - http://www.bohemiancoding.com/sketch -->
    <title>Group 30</title>
    <desc>Created with Sketch.</desc>
    <defs>
        <circle id="path-1" cx="46.5" cy="47.5" r="42.5"></circle>
    </defs>
    <g id="Page-1" stroke="none" stroke-width="1" fill="none" fill-rule="evenodd">
        <g id="Artboard" transform="translate(-1617.000000, -736.000000)">
            <g id="Group-30" transform="translate(1617.000000, 736.000000)">
                <g id="Group-29">
                    <g id="Group-27">
                        <g id="Group-28">
                            <path d="M467.862013,48.2422864 L298.02831,48.2422864" id="Line-2" stroke="#FFF60F" stroke-width="5" stroke-linecap="square" transform="translate(383.000000, 48.188172) scale(-1, 1) translate(-383.000000, -48.188172) "></path>
                            <rect id="Rectangle" fill="#FFF60F" x="1.42108547e-13" y="1.42108547e-14" width="378" height="96" rx="48"></rect>
                            <mask id="mask-2" fill="white">
                                <use xlink:href="#path-1"></use>
                            </mask>
                            <use id="Mask" fill="#FFFFFF" xlink:href="#path-1"></use>
                        </g>
                        <circle id="Oval" fill="#FFF60F" transform="translate(478.500000, 48.500000) scale(-1, 1) translate(-478.500000, -48.500000) " cx="478.5" cy="48.5" r="9.5"></circle>
                    </g>
                </g>
                <g id="webompt" transform="translate(17.000000, 16.000000)">
                    <path d="M50.35,14.25 L6.65,14.25 C4.55131795,14.25 2.85,15.951318 2.85,18.05 L2.85,44.65 C2.85,46.748682 4.55131795,48.45 6.65,48.45 L50.35,48.45 C52.448682,48.45 54.15,46.748682 54.15,44.65 L54.15,18.05 C54.15,15.951318 52.448682,14.25 50.35,14.25 Z" id="Path" fill="#57A4FF"></path>
                    <path d="M50.35,14.25 L48.45,14.25 C50.548682,14.25 52.25,15.951318 52.25,18.05 L52.25,44.65 C52.25,46.748682 50.548682,48.45 48.45,48.45 L50.35,48.45 C52.448682,48.45 54.15,46.748682 54.15,44.65 L54.15,18.05 C54.15,15.951318 52.448682,14.25 50.35,14.25 Z" id="Path" fill="#2488FF"></path>
                    <path d="M6.65,48.45 L0.95,48.45 L0.95,52.25 C0.95,54.348682 2.65131795,56.05 4.75,56.05 L52.25,56.05 C54.348682,56.05 56.05,54.348682 56.05,52.25 L56.05,48.45 L6.65,48.45 Z" id="Path" fill="#005ECE"></path>
                    <path d="M54.15,48.45 L54.15,52.25 C54.15,54.348682 52.448682,56.05 50.35,56.05 L52.25,56.05 C54.348682,56.05 56.05,54.348682 56.05,52.25 L56.05,48.45 L54.15,48.45 Z" id="Path" fill="#004FAC"></path>
                    <path d="M23.75,50.35 C23.75,51.399341 24.600659,52.25 25.65,52.25 L31.35,52.25 C32.399341,52.25 33.25,51.399341 33.25,50.35 L33.25,48.45 L23.75,48.45 L23.75,50.35 Z" id="Path" fill="#FFCD00"></path>
                    <polygon id="Path" fill="#FFDAAA" points="6.65 18.05 50.35 18.05 50.35 44.65 6.65 44.65"></polygon>
                    <path d="M38.95,0.95 L18.05,0.95 C15.951318,0.95 14.25,2.65131795 14.25,4.75 L14.25,15.2 C14.25,17.298682 15.951318,19 18.05,19 L20.9,19 L20.9,25.65 L26.6,19 L38.95,19 C41.048682,19 42.75,17.298682 42.75,15.2 L42.75,4.75 C42.75,2.65131795 41.048682,0.95 38.95,0.95 Z" id="Path" fill="#FFCD00"></path>
                    <path d="M22.8,44.65 L50.35,44.65 L50.35,18.05 C50.35,33.8029 38.02755,44.65 22.8,44.65 Z" id="Path" fill="#FFC477"></path>
                    <path d="M56.05,47.5 L54.1253,47.5 C54.7540163,46.6826306 55.096507,45.6811958 55.1,44.65 L55.1,18.05 C55.0968592,15.4279495 52.9720505,13.3031408 50.35,13.3 L43.7,13.3 L43.7,4.75 C43.6968592,2.12794951 41.5720505,0.00314081052 38.95,0 L18.05,0 C15.4279495,0.00314081052 13.3031408,2.12794951 13.3,4.75 L13.3,13.3 L6.65,13.3 C4.02794951,13.3031408 1.90314081,15.4279495 1.9,18.05 L1.9,44.65 C1.90349298,45.6811958 2.24598367,46.6826306 2.8747,47.5 L0.95,47.5 C0.425329488,47.5 0,47.9253295 0,48.45 L0,52.25 C0.00314081052,54.8720505 2.12794951,56.9968592 4.75,57 L52.25,57 C54.8720505,56.9968592 56.9968592,54.8720505 57,52.25 L57,48.45 C57,47.9253295 56.5746705,47.5 56.05,47.5 Z M15.2,4.75 C15.2,3.17598846 16.4759885,1.9 18.05,1.9 L38.95,1.9 C40.5240115,1.9 41.8,3.17598846 41.8,4.75 L41.8,15.2 C41.8,16.7740115 40.5240115,18.05 38.95,18.05 L26.6,18.05 C26.3227883,18.0500215 26.0594148,18.1711248 25.87895,18.38155 L21.85,23.085 L21.85,19 C21.85,18.4753295 21.4246705,18.05 20.9,18.05 L18.05,18.05 C16.4759885,18.05 15.2,16.7740115 15.2,15.2 L15.2,4.75 Z M3.8,44.65 L3.8,18.05 C3.8,16.4759885 5.07598846,15.2 6.65,15.2 L13.3,15.2 C13.3031408,17.8220505 15.4279495,19.9468592 18.05,19.95 L19.95,19.95 L19.95,25.65 C19.950036,26.0474681 20.1975074,26.402898 20.5702658,26.5408546 C20.9430242,26.6788113 21.3622623,26.5701283 21.62105,26.26845 L27.037,19.95 L38.95,19.95 C41.5720505,19.9468592 43.6968592,17.8220505 43.7,15.2 L50.35,15.2 C51.9240115,15.2 53.2,16.4759885 53.2,18.05 L53.2,44.65 C53.2,46.2240115 51.9240115,47.5 50.35,47.5 L6.65,47.5 C5.07598846,47.5 3.8,46.2240115 3.8,44.65 Z M24.7,49.4 L32.3,49.4 L32.3,50.35 C32.3,50.8746705 31.8746705,51.3 31.35,51.3 L25.65,51.3 C25.1253295,51.3 24.7,50.8746705 24.7,50.35 L24.7,49.4 Z M55.1,52.25 C55.1,53.8240115 53.8240115,55.1 52.25,55.1 L4.75,55.1 C3.17598846,55.1 1.9,53.8240115 1.9,52.25 L1.9,49.4 L22.8,49.4 L22.8,50.35 C22.8,51.9240115 24.0759885,53.2 25.65,53.2 L31.35,53.2 C32.9240115,53.2 34.2,51.9240115 34.2,50.35 L34.2,49.4 L55.1,49.4 L55.1,52.25 Z" id="Shape" fill="#000000" fill-rule="nonzero"></path>
                    <path d="M51.3,44.65 L51.3,18.05 C51.3,17.5253295 50.8746705,17.1 50.35,17.1 L45.6,17.1 C45.0753295,17.1 44.65,17.5253295 44.65,18.05 C44.65,18.5746705 45.0753295,19 45.6,19 L49.4,19 L49.4,43.7 L7.6,43.7 L7.6,19 L11.4,19 C11.9246705,19 12.35,18.5746705 12.35,18.05 C12.35,17.5253295 11.9246705,17.1 11.4,17.1 L6.65,17.1 C6.12532949,17.1 5.7,17.5253295 5.7,18.05 L5.7,44.65 C5.7,45.1746705 6.12532949,45.6 6.65,45.6 L50.35,45.6 C50.8746705,45.6 51.3,45.1746705 51.3,44.65 Z" id="Path" fill="#000000"></path>
                    <path d="M11.4,25.65 C11.4,26.1746705 11.8253295,26.6 12.35,26.6 L14.25,26.6 C14.7746705,26.6 15.2,26.1746705 15.2,25.65 C15.2,25.1253295 14.7746705,24.7 14.25,24.7 L12.35,24.7 C11.8253295,24.7 11.4,25.1253295 11.4,25.65 Z" id="Path" fill="#000000"></path>
                    <path d="M14.25,28.5 L12.35,28.5 C11.8253295,28.5 11.4,28.9253295 11.4,29.45 C11.4,29.9746705 11.8253295,30.4 12.35,30.4 L14.25,30.4 C14.7746705,30.4 15.2,29.9746705 15.2,29.45 C15.2,28.9253295 14.7746705,28.5 14.25,28.5 Z" id="Path" fill="#000000"></path>
                    <path d="M14.25,32.3 L12.35,32.3 C11.8253295,32.3 11.4,32.7253295 11.4,33.25 C11.4,33.7746705 11.8253295,34.2 12.35,34.2 L14.25,34.2 C14.7746705,34.2 15.2,33.7746705 15.2,33.25 C15.2,32.7253295 14.7746705,32.3 14.25,32.3 Z" id="Path" fill="#000000"></path>
                    <path d="M14.25,36.1 L12.35,36.1 C11.8253295,36.1 11.4,36.5253295 11.4,37.05 C11.4,37.5746705 11.8253295,38 12.35,38 L14.25,38 C14.7746705,38 15.2,37.5746705 15.2,37.05 C15.2,36.5253295 14.7746705,36.1 14.25,36.1 Z" id="Path" fill="#000000"></path>
                    <path d="M14.25,39.9 L12.35,39.9 C11.8253295,39.9 11.4,40.3253295 11.4,40.85 C11.4,41.3746705 11.8253295,41.8 12.35,41.8 L14.25,41.8 C14.7746705,41.8 15.2,41.3746705 15.2,40.85 C15.2,40.3253295 14.7746705,39.9 14.25,39.9 Z" id="Path" fill="#000000"></path>
                    <path d="M26.6,26.6 L44.65,26.6 C45.1746705,26.6 45.6,26.1746705 45.6,25.65 C45.6,25.1253295 45.1746705,24.7 44.65,24.7 L26.6,24.7 C26.0753295,24.7 25.65,25.1253295 25.65,25.65 C25.65,26.1746705 26.0753295,26.6 26.6,26.6 Z" id="Path" fill="#000000"></path>
                    <path d="M25.65,30.4 L40.85,30.4 C41.3746705,30.4 41.8,29.9746705 41.8,29.45 C41.8,28.9253295 41.3746705,28.5 40.85,28.5 L25.65,28.5 C25.1253295,28.5 24.7,28.9253295 24.7,29.45 C24.7,29.9746705 25.1253295,30.4 25.65,30.4 Z" id="Path" fill="#000000"></path>
                    <path d="M18.05,34.2 L29.45,34.2 C29.9746705,34.2 30.4,33.7746705 30.4,33.25 C30.4,32.7253295 29.9746705,32.3 29.45,32.3 L18.05,32.3 C17.5253295,32.3 17.1,32.7253295 17.1,33.25 C17.1,33.7746705 17.5253295,34.2 18.05,34.2 Z" id="Path" fill="#000000"></path>
                    <path d="M18.05,38 L29.45,38 C29.9746705,38 30.4,37.5746705 30.4,37.05 C30.4,36.5253295 29.9746705,36.1 29.45,36.1 L18.05,36.1 C17.5253295,36.1 17.1,36.5253295 17.1,37.05 C17.1,37.5746705 17.5253295,38 18.05,38 Z" id="Path" fill="#000000"></path>
                    <path d="M18.05,41.8 L29.45,41.8 C29.9746705,41.8 30.4,41.3746705 30.4,40.85 C30.4,40.3253295 29.9746705,39.9 29.45,39.9 L18.05,39.9 C17.5253295,39.9 17.1,40.3253295 17.1,40.85 C17.1,41.3746705 17.5253295,41.8 18.05,41.8 Z" id="Path" fill="#000000"></path>
                    <path d="M17.52275,10.2904 L23.22275,14.0904 C23.5051327,14.2787683 23.8665584,14.3021784 24.1708815,14.1518119 C24.4752046,14.0014454 24.6761912,13.7001467 24.6981315,13.3614119 C24.7200719,13.0226771 24.5596327,12.6979683 24.27725,12.5096 L19.9386,9.6178 L24.17465,7.505 C24.6442301,7.27047228 24.8347777,6.69968011 24.60025,6.2301 C24.3657223,5.76051989 23.7949301,5.56997228 23.32535,5.8045 L17.62535,8.6545 C17.3221622,8.80577988 17.1224986,9.10709082 17.1013506,9.44526418 C17.0802025,9.78343753 17.2407716,10.1072761 17.52275,10.29515 L17.52275,10.2904 Z" id="Path" fill="#000000"></path>
                    <path d="M32.82535,7.505 L37.0614,9.62255 L32.72275,12.51435 C32.4403673,12.7027183 32.2799282,13.0274271 32.3018685,13.3661619 C32.3238089,13.7048966 32.5247954,14.0061954 32.8291185,14.1565619 C33.1334416,14.3069284 33.4948673,14.2835183 33.77725,14.09515 L39.47725,10.29515 C39.7592284,10.1072761 39.9197975,9.78343753 39.8986494,9.44526418 C39.8775014,9.10709082 39.6778378,8.80577988 39.37465,8.6545 L33.67465,5.8045 C33.2050699,5.56997229 32.6342777,5.76051991 32.39975,6.23010001 C32.1652223,6.69968011 32.3557699,7.27047227 32.82535,7.505 Z" id="Path" fill="#000000"></path>
                    <path d="M26.2751,16.093 C26.5120611,16.1788542 26.7734268,16.1670278 27.001666,16.0601242 C27.2299052,15.9532206 27.4063097,15.7600024 27.49205,15.523 L31.29205,5.073 C31.4227816,4.75089634 31.3671456,4.38310996 31.1469926,4.11408551 C30.9268395,3.84506105 30.5773292,3.71776335 30.2357285,3.78218739 C29.8941277,3.84661143 29.6149923,4.09246828 29.50795,4.4232 L25.70795,14.8732 C25.6210695,15.1101466 25.632041,15.3719252 25.7384436,15.600771 C25.8448462,15.8296168 26.0379342,16.0067198 26.2751,16.093 Z" id="Path" fill="#000000"></path>
                    <path d="M18.05,30.4 L21.85,30.4 C22.3746705,30.4 22.8,29.9746705 22.8,29.45 C22.8,28.9253295 22.3746705,28.5 21.85,28.5 L18.05,28.5 C17.5253295,28.5 17.1,28.9253295 17.1,29.45 C17.1,29.9746705 17.5253295,30.4 18.05,30.4 Z" id="Path" fill="#000000"></path>
                    <path d="M41.8,33.25 C41.8,32.7253295 41.3746705,32.3 40.85,32.3 L33.25,32.3 C32.7253295,32.3 32.3,32.7253295 32.3,33.25 C32.3,33.7746705 32.7253295,34.2 33.25,34.2 L40.85,34.2 C41.3746705,34.2 41.8,33.7746705 41.8,33.25 Z" id="Path" fill="#000000"></path>
                    <path d="M35.15,36.1 L33.25,36.1 C32.7253295,36.1 32.3,36.5253295 32.3,37.05 C32.3,37.5746705 32.7253295,38 33.25,38 L35.15,38 C35.6746705,38 36.1,37.5746705 36.1,37.05 C36.1,36.5253295 35.6746705,36.1 35.15,36.1 Z" id="Path" fill="#000000"></path>
                    <path d="M35.15,39.9 L33.25,39.9 C32.7253295,39.9 32.3,40.3253295 32.3,40.85 C32.3,41.3746705 32.7253295,41.8 33.25,41.8 L35.15,41.8 C35.6746705,41.8 36.1,41.3746705 36.1,40.85 C36.1,40.3253295 35.6746705,39.9 35.15,39.9 Z" id="Path" fill="#000000"></path>
                </g>
            </g>
        </g>
    </g>
</svg>