<?xml version="1.0" encoding="UTF-8"?>
<svg width="488px" height="96px" viewBox="0 0 488 96" version="1.1" xmlns="http://www.w3.org/2000/svg" xmlns:xlink="http://www.w3.org/1999/xlink">
    <!-- Generator: Sketch 52.3 (67297) - http://www.bohemiancoding.com/sketch -->
    <title>Group 23</title>
    <desc>Created with Sketch.</desc>
    <defs>
        <circle id="path-1" cx="43.2254309" cy="42.8229572" r="42.5"></circle>
    </defs>
    <g id="Page-1" stroke="none" stroke-width="1" fill="none" fill-rule="evenodd">
        <g id="Artboard" transform="translate(-1616.000000, -445.000000)">
            <g id="Group-23" transform="translate(1616.000000, 445.000000)">
                <g id="Group-17">
                    <g id="Group-22">
                        <g id="Group-15">
                            <g id="Group-12">
                                <g id="Group-10">
                                    <g id="Group-3">
                                        <path d="M189.862013,48.2422864 L20.0283096,48.2422864" id="Line-2" stroke="#FFF60F" stroke-width="5" stroke-linecap="square"></path>
                                        <g id="Group-2" transform="translate(110.000000, 0.000000)">
                                            <rect id="Rectangle" fill="#FFF60F" x="0" y="1.42108547e-14" width="378" height="96" rx="48"></rect>
                                            <g id="profile" transform="translate(3.274569, 4.677043)">
                                                <mask id="mask-2" fill="white">
                                                    <use xlink:href="#path-1"></use>
                                                </mask>
                                                <use id="Mask" fill="#FFFFFF" xlink:href="#path-1"></use>
                                            </g>
                                        </g>
                                        <circle id="Oval" fill="#FFF60F" cx="9.5" cy="48.5" r="9.5"></circle>
                                    </g>
                                </g>
                            </g>
                        </g>
                    </g>
                </g>
                <g id="preformance" transform="translate(130.000000, 20.000000)">
                    <polygon id="Path" fill="#FFEB99" points="0.95 0.95 42.75 0.95 42.75 56.05 0.95 56.05"></polygon>
                    <path d="M8.55,56.05 L42.75,56.05 L42.75,21.85 C42.75,40.7381384 27.4381384,56.05 8.55,56.05 Z" id="Path" fill="#FFDE55"></path>
                    <path d="M41.8,34.067 C34.5293315,38.2617487 25.2347986,35.7688755 21.039107,28.4987511 C16.8434154,21.2286266 19.3350832,11.9337705 26.6046634,7.73713614 C33.8742437,3.54050175 43.1694229,6.03096405 47.367,13.3 C51.557118,20.572885 49.0661348,29.8651874 41.8,34.067 Z" id="Path" fill="#57A4FF"></path>
                    <path d="M39.9,30.7705 C35.907176,33.077155 30.9179761,32.7512519 27.2591505,29.9447779 C23.600325,27.1383039 21.9925298,22.4040328 23.1855721,17.9498268 C24.3786145,13.4956209 28.1375083,10.1987972 32.7092656,9.59685401 C37.2810229,8.99491078 41.7651733,11.2064089 44.0705,15.2 C47.2117809,20.6522132 45.3459302,27.6183391 39.9,30.7705 Z" id="Path" fill="#FFDAAA"></path>
                    <path d="M53.5933,54.4901 C55.410719,53.4407286 56.0333915,51.1167652 54.9841,49.2993 L48.4158,37.92305 L46.7704,38.87305 L43.4796,40.77305 L41.8342,41.72305 L42.75,43.3086 L48.4025,53.0993 C49.4518714,54.916719 51.7758348,55.5393915 53.5933,54.4901 Z" id="Path" fill="#005ECE"></path>
                    <polygon id="Path" fill="#FFCD00" points="16.15 42.75 19.95 42.75 19.95 52.25 16.15 52.25"></polygon>
                    <polygon id="Path" fill="#ED1C24" points="8.55 46.55 12.35 46.55 12.35 52.25 8.55 52.25"></polygon>
                    <polygon id="Path" fill="#FFCD00" points="41.8 22.8 38.7885 22.8 40.9165 24.928 38.228 27.6165 36.1 25.4885 36.1 28.5 32.3 28.5 32.3 25.4885 30.172 27.6165 27.4835 24.928 29.6115 22.8 26.6 22.8 26.6 19 29.6115 19 27.4835 16.872 30.172 14.1835 32.3 16.3115 32.3 13.3 36.1 13.3 36.1 16.3115 38.228 14.1835 40.9165 16.872 38.7885 19 41.8 19"></polygon>
                    <circle id="Oval" fill="#F1F2F2" cx="34.2" cy="20.9" r="1.9"></circle>
                    <path d="M6.65,10.45 C6.65,12.548682 8.35131795,14.25 10.45,14.25 C12.548682,14.25 14.25,12.548682 14.25,10.45 C14.25,8.35131795 12.548682,6.65 10.45,6.65 C8.35131795,6.65 6.65,8.35131795 6.65,10.45 Z M10.45,9.5 C10.9746705,9.5 11.4,9.92532949 11.4,10.45 C11.4,10.9746705 10.9746705,11.4 10.45,11.4 C9.92532949,11.4 9.5,10.9746705 9.5,10.45 C9.5,9.92532949 9.92532949,9.5 10.45,9.5 Z" id="Shape" fill="#ED1C24" fill-rule="nonzero"></path>
                    <circle id="Oval" fill="#57A4FF" cx="10.45" cy="10.45" r="1"></circle>
                    <path d="M43.29055,33.0714 C42.3387933,33.795878 41.2987462,34.3963471 40.19545,34.85835 L40.10045,34.9144 L43.48245,40.77305 L46.77325,38.87305 L43.39125,33.0144 L43.29055,33.0714 Z" id="Path" fill="#FF5023"></path>
                    <polygon id="Path" fill="#5EAC24" points="31.35 38.95 35.15 38.95 35.15 52.25 31.35 52.25"></polygon>
                    <polygon id="Path" fill="#006DF0" points="23.75 40.85 27.55 40.85 27.55 52.25 23.75 52.25"></polygon>
                    <path d="M28.025,10.2049 C22.914107,13.1493906 20.5955622,19.2946264 22.4877175,24.8813071 C24.3798728,30.4679878 29.9555293,33.9395332 35.8038225,33.1722523 C41.6521156,32.4049714 46.1435739,27.6126467 46.5305825,21.7269456 C46.917591,15.8412446 43.0923203,10.5020614 37.39485,8.9756 C34.2320093,8.12842991 30.8622692,8.57053107 28.025,10.2049 Z M43.2497,15.675 C45.764607,20.0073566 44.8663354,25.5132215 41.104857,28.8215975 C37.3433786,32.1299735 31.7678906,32.3180484 27.7920171,29.2706723 C23.8161435,26.2232962 22.5488833,20.79048 24.7661237,16.2984965 C26.983364,11.8065129 32.0666454,9.50832021 36.9037,10.811 C39.5796229,11.5281158 41.8618422,13.2773617 43.2497,15.675 Z" id="Shape" fill="#000000" fill-rule="nonzero"></path>
                    <path d="M55.80775,48.83 L49.2385,37.4471 C48.9761571,36.9927452 48.3951663,36.8370771 47.9408,37.0994 L47.1181,37.5744 L44.612,33.2348 C48.4069234,30.0398807 50.5203197,25.2762169 50.342231,20.3186735 C50.1641424,15.36113 47.7143866,10.7613873 43.7,7.847 L43.7,0.95 C43.7,0.425329488 43.2746705,0 42.75,0 L0.95,0 C0.425329488,0 0,0.425329488 0,0.95 L0,56.05 C0,56.5746705 0.425329488,57 0.95,57 L42.75,57 C43.2746705,57 43.7,56.5746705 43.7,56.05 L43.7,46.85495 L47.5798,53.58 C48.4283058,55.0497817 49.9964767,55.9552436 51.6935978,55.9553069 C53.390719,55.9553702 54.9589574,55.0500253 55.8075728,53.5803069 C56.6561882,52.1105885 56.6562558,50.2997817 55.80775,48.83 Z M45.4727,38.5244 L44.65,38.9994 L43.8273,39.4744 L41.4371,35.3343 C41.7221,35.19275 41.9995,35.0493 42.275,34.88685 C42.5505,34.7244 42.80985,34.5458 43.0749,34.37195 L45.4727,38.5244 Z M46.5405,13.775 C49.7514558,19.3534333 48.8183642,26.3926229 44.2649217,30.9418333 C39.7114791,35.4910438 32.6714249,36.4175895 27.0959798,33.2014479 C21.5205347,29.9853063 18.7979014,23.4272488 20.4561542,17.2079761 C22.114407,10.9887034 27.7406655,6.65672183 34.1772,6.64335 C35.4302886,6.64454254 36.6778152,6.80998514 37.8879,7.13545 C41.543178,8.10404075 44.6589418,10.494914 46.5405,13.775 Z M41.8,55.1 L1.9,55.1 L1.9,1.9 L41.8,1.9 L41.8,6.66235 C40.7153919,6.07993572 39.568004,5.62289289 38.38,5.30005 C29.7643855,2.99149975 20.9086003,8.10438552 18.60005,16.72 C16.2914997,25.3356145 21.4043855,34.1913997 30.02,36.49995 C31.3915415,36.8684581 32.8054657,37.0556186 34.22565,37.05665 C36.0857857,37.0545199 37.9312297,36.7272269 39.67865,36.08955 L42.18,40.4244 L41.3573,40.8994 C40.9029452,41.1617429 40.7472771,41.7427337 41.0096,42.1971 L41.8,43.5632 L41.8,55.1 Z M54.4464,51.93745 C54.1495789,53.0532513 53.2088704,53.87972 52.0641397,54.0304082 C50.919409,54.1810964 49.796866,53.6262266 49.2214,52.62525 L43.13,42.07075 L48.07,39.22075 L54.1614,49.78 C54.5405607,50.4322814 54.643177,51.209087 54.4464,51.93745 Z" id="Shape" fill="#000000" fill-rule="nonzero"></path>
                    <path d="M37.05,51.3 L36.1,51.3 L36.1,38.95 C36.1,38.4253295 35.6746705,38 35.15,38 L31.35,38 C30.8253295,38 30.4,38.4253295 30.4,38.95 L30.4,51.3 L28.5,51.3 L28.5,40.85 C28.5,40.3253295 28.0746705,39.9 27.55,39.9 L23.75,39.9 C23.2253295,39.9 22.8,40.3253295 22.8,40.85 L22.8,51.3 L20.9,51.3 L20.9,42.75 C20.9,42.2253295 20.4746705,41.8 19.95,41.8 L16.15,41.8 C15.6253295,41.8 15.2,42.2253295 15.2,42.75 L15.2,51.3 L13.3,51.3 L13.3,46.55 C13.3,46.0253295 12.8746705,45.6 12.35,45.6 L8.55,45.6 C8.02532949,45.6 7.6,46.0253295 7.6,46.55 L7.6,51.3 L6.65,51.3 C6.12532949,51.3 5.7,51.7253295 5.7,52.25 C5.7,52.7746705 6.12532949,53.2 6.65,53.2 L37.05,53.2 C37.5746705,53.2 38,52.7746705 38,52.25 C38,51.7253295 37.5746705,51.3 37.05,51.3 Z M9.5,51.3 L9.5,47.5 L11.4,47.5 L11.4,51.3 L9.5,51.3 Z M17.1,51.3 L17.1,43.7 L19,43.7 L19,51.3 L17.1,51.3 Z M24.7,51.3 L24.7,41.8 L26.6,41.8 L26.6,51.3 L24.7,51.3 Z M32.3,51.3 L32.3,39.9 L34.2,39.9 L34.2,51.3 L32.3,51.3 Z" id="Shape" fill="#000000" fill-rule="nonzero"></path>
                    <path d="M36.1,12.35 L32.3,12.35 C31.7753295,12.35 31.35,12.7753295 31.35,13.3 L31.35,14.0182 L30.84365,13.51185 C30.4726751,13.1409872 29.8713249,13.1409872 29.50035,13.51185 L26.81185,16.20035 C26.4409872,16.5713249 26.4409872,17.1726751 26.81185,17.54365 L27.3182,18.05 L26.6,18.05 C26.0753295,18.05 25.65,18.4753295 25.65,19 L25.65,22.8 C25.65,23.3246705 26.0753295,23.75 26.6,23.75 L27.3182,23.75 L26.81185,24.25635 C26.4409872,24.6273249 26.4409872,25.2286751 26.81185,25.59965 L29.50035,28.28815 C29.8713249,28.6590128 30.4726751,28.6590128 30.84365,28.28815 L31.35,27.7818 L31.35,28.5 C31.35,29.0246705 31.7753295,29.45 32.3,29.45 L36.1,29.45 C36.6246705,29.45 37.05,29.0246705 37.05,28.5 L37.05,27.7818 L37.55635,28.28815 C37.9273249,28.6590128 38.5286751,28.6590128 38.89965,28.28815 L41.58815,25.59965 C41.9590128,25.2286751 41.9590128,24.6273249 41.58815,24.25635 L41.0818,23.75 L41.8,23.75 C42.3246705,23.75 42.75,23.3246705 42.75,22.8 L42.75,19 C42.75,18.4753295 42.3246705,18.05 41.8,18.05 L41.0818,18.05 L41.58815,17.54365 C41.9590128,17.1726751 41.9590128,16.5713249 41.58815,16.20035 L38.89965,13.51185 C38.5286751,13.1409872 37.9273249,13.1409872 37.55635,13.51185 L37.05,14.0182 L37.05,13.3 C37.05,12.7753295 36.6246705,12.35 36.1,12.35 Z M38.228,15.5268 L39.5732,16.872 L38.11685,18.32835 C37.8452375,18.6000445 37.7639992,19.0085848 37.9110059,19.3635218 C38.0580127,19.7184589 38.4043239,19.949918 38.7885,19.95 L40.85,19.95 L40.85,21.85 L38.7885,21.85 C38.4043239,21.850082 38.0580127,22.0815411 37.9110059,22.4364782 C37.7639992,22.7914152 37.8452375,23.1999555 38.11685,23.47165 L39.5732,24.928 L38.228,26.2732 L36.77165,24.81685 C36.4999555,24.5452375 36.0914152,24.4639992 35.7364782,24.6110059 C35.3815411,24.7580127 35.150082,25.1043239 35.15,25.4885 L35.15,27.55 L33.25,27.55 L33.25,25.4885 C33.249918,25.1043239 33.0184589,24.7580127 32.6635218,24.6110059 C32.3085848,24.4639992 31.9000445,24.5452375 31.62835,24.81685 L30.172,26.2732 L28.8268,24.928 L30.28315,23.47165 C30.5547625,23.1999555 30.6360008,22.7914152 30.4889941,22.4364782 C30.3419873,22.0815411 29.9956761,21.850082 29.6115,21.85 L27.55,21.85 L27.55,19.95 L29.6115,19.95 C29.9956761,19.949918 30.3419873,19.7184589 30.4889941,19.3635218 C30.6360008,19.0085848 30.5547625,18.6000445 30.28315,18.32835 L28.8268,16.872 L30.172,15.5268 L31.62835,16.98315 C31.9000445,17.2547625 32.3085848,17.3360008 32.6635218,17.1889941 C33.0184589,17.0419873 33.249918,16.6956761 33.25,16.3115 L33.25,14.25 L35.15,14.25 L35.15,16.3115 C35.150082,16.6956761 35.3815411,17.0419873 35.7364782,17.1889941 C36.0914152,17.3360008 36.4999555,17.2547625 36.77165,16.98315 L38.228,15.5268 Z" id="Shape" fill="#000000" fill-rule="nonzero"></path>
                    <path d="M34.2,18.05 C32.6259885,18.05 31.35,19.3259885 31.35,20.9 C31.35,22.4740115 32.6259885,23.75 34.2,23.75 C35.7740115,23.75 37.05,22.4740115 37.05,20.9 C37.05,19.3259885 35.7740115,18.05 34.2,18.05 Z M34.2,21.85 C33.6753295,21.85 33.25,21.4246705 33.25,20.9 C33.25,20.3753295 33.6753295,19.95 34.2,19.95 C34.7246705,19.95 35.15,20.3753295 35.15,20.9 C35.15,21.4246705 34.7246705,21.85 34.2,21.85 Z" id="Shape" fill="#000000" fill-rule="nonzero"></path>
                    <path d="M4.75,11.4 L5.795,11.4 C6.17926356,13.2640885 7.63591151,14.7207364 9.5,15.105 L9.5,16.15 C9.5,16.6746705 9.92532949,17.1 10.45,17.1 C10.9746705,17.1 11.4,16.6746705 11.4,16.15 L11.4,15.105 C13.2640885,14.7207364 14.7207364,13.2640885 15.105,11.4 L16.15,11.4 C16.6746705,11.4 17.1,10.9746705 17.1,10.45 C17.1,9.92532949 16.6746705,9.5 16.15,9.5 L15.105,9.5 C14.7207364,7.63591151 13.2640885,6.17926356 11.4,5.795 L11.4,4.75 C11.4,4.22532949 10.9746705,3.8 10.45,3.8 C9.92532949,3.8 9.5,4.22532949 9.5,4.75 L9.5,5.795 C7.63591151,6.17926356 6.17926356,7.63591151 5.795,9.5 L4.75,9.5 C4.22532949,9.5 3.8,9.92532949 3.8,10.45 C3.8,10.9746705 4.22532949,11.4 4.75,11.4 Z M10.45,7.6 C12.0240115,7.6 13.3,8.87598846 13.3,10.45 C13.3,12.0240115 12.0240115,13.3 10.45,13.3 C8.87598846,13.3 7.6,12.0240115 7.6,10.45 C7.6,8.87598846 8.87598846,7.6 10.45,7.6 Z" id="Shape" fill="#000000" fill-rule="nonzero"></path>
                    <circle id="Oval" fill="#000000" cx="10.45" cy="10.45" r="1.9"></circle>
                    <path d="M4.75,22.8 L14.25,22.8 C14.7746705,22.8 15.2,22.3746705 15.2,21.85 C15.2,21.3253295 14.7746705,20.9 14.25,20.9 L4.75,20.9 C4.22532949,20.9 3.8,21.3253295 3.8,21.85 C3.8,22.3746705 4.22532949,22.8 4.75,22.8 Z" id="Path" fill="#000000"></path>
                    <path d="M4.75,26.6 L16.15,26.6 C16.6746705,26.6 17.1,26.1746705 17.1,25.65 C17.1,25.1253295 16.6746705,24.7 16.15,24.7 L4.75,24.7 C4.22532949,24.7 3.8,25.1253295 3.8,25.65 C3.8,26.1746705 4.22532949,26.6 4.75,26.6 Z" id="Path" fill="#000000"></path>
                    <path d="M4.75,30.4 L16.15,30.4 C16.6746705,30.4 17.1,29.9746705 17.1,29.45 C17.1,28.9253295 16.6746705,28.5 16.15,28.5 L4.75,28.5 C4.22532949,28.5 3.8,28.9253295 3.8,29.45 C3.8,29.9746705 4.22532949,30.4 4.75,30.4 Z" id="Path" fill="#000000"></path>
                    <path d="M4.75,34.2 L18.05,34.2 C18.5746705,34.2 19,33.7746705 19,33.25 C19,32.7253295 18.5746705,32.3 18.05,32.3 L4.75,32.3 C4.22532949,32.3 3.8,32.7253295 3.8,33.25 C3.8,33.7746705 4.22532949,34.2 4.75,34.2 Z" id="Path" fill="#000000"></path>
                    <path d="M22.8,37.05 C22.8,36.5253295 22.3746705,36.1 21.85,36.1 L4.75,36.1 C4.22532949,36.1 3.8,36.5253295 3.8,37.05 C3.8,37.5746705 4.22532949,38 4.75,38 L21.85,38 C22.3746705,38 22.8,37.5746705 22.8,37.05 Z" id="Path" fill="#000000"></path>
                </g>
            </g>
        </g>
    </g>
</svg>