<?xml version="1.0" encoding="UTF-8"?>
<svg width="124px" height="93px" viewBox="0 0 124 93" version="1.1" xmlns="http://www.w3.org/2000/svg" xmlns:xlink="http://www.w3.org/1999/xlink">
    <!-- Generator: Sketch 52.3 (67297) - http://www.bohemiancoding.com/sketch -->
    <title>Artboard</title>
    <desc>Created with Sketch.</desc>
    <g id="Artboard" stroke="none" stroke-width="1" fill="none" fill-rule="evenodd">
        <g id="noun_Search_995553" transform="translate(28.000000, 14.000000)" fill="#FFFFFF">
            <g id="Group">
                <path d="M64.484127,0.206349206 L4.64285714,0.206349206 C2.47619048,0.206349206 0.722222222,1.96031746 0.722222222,4.12698413 L0.722222222,52.9285714 L14.7539683,52.9285714 L14.7539683,59.8412698 C14.7539683,62.6269841 17.0238095,64.8968254 19.8095238,64.8968254 C22.5952381,64.8968254 24.8650794,62.6269841 24.8650794,59.8412698 L24.8650794,52.9285714 L68.1984127,52.9285714 L68.1984127,4.02380952 C68.4047619,1.85714286 66.6507937,0.206349206 64.484127,0.206349206 Z M23.4206349,59.7380952 C23.4206349,61.6984127 21.8730159,63.2460317 19.9126984,63.2460317 C17.952381,63.2460317 16.4047619,61.6984127 16.4047619,59.7380952 L16.4047619,51.0714286 C16.4047619,50.5555556 16.8174603,50.1428571 17.3333333,50.1428571 L18.6746032,50.1428571 L18.6746032,46.2222222 C19.0873016,46.2222222 19.5,46.3253968 19.9126984,46.3253968 C20.3253968,46.3253968 20.7380952,46.3253968 21.1507937,46.2222222 L21.1507937,50.1428571 L22.4920635,50.1428571 C23.0079365,50.1428571 23.4206349,50.5555556 23.4206349,51.0714286 L23.4206349,59.7380952 Z M6.5,31.2619048 C6.5,23.8333333 12.5873016,17.7460317 20.015873,17.7460317 C27.4444444,17.7460317 33.531746,23.8333333 33.531746,31.2619048 C33.531746,38.6904762 27.4444444,44.7777778 20.015873,44.7777778 C12.484127,44.6746032 6.5,38.6904762 6.5,31.2619048 Z M66.8571429,51.2777778 L24.968254,51.2777778 L24.968254,51.0714286 C24.968254,49.8333333 23.9365079,48.6984127 22.6984127,48.5952381 L22.6984127,46.015873 C29.6111111,44.6746032 34.8730159,38.5873016 34.8730159,31.2619048 C34.8730159,23.0079365 28.1666667,16.1984127 19.8095238,16.1984127 C11.5555556,16.1984127 4.74603175,22.9047619 4.74603175,31.2619048 C4.74603175,38.5873016 10.0079365,44.6746032 16.9206349,46.015873 L16.9206349,48.5952381 C15.6825397,48.6984127 14.6507937,49.7301587 14.6507937,51.0714286 L14.6507937,51.2777778 L2.37301587,51.2777778 L2.37301587,13.4126984 L66.8571429,13.4126984 L66.8571429,51.2777778 Z M66.8571429,11.8650794 L2.37301587,11.8650794 L2.37301587,4.02380952 C2.37301587,2.78571429 3.4047619,1.65079365 4.74603175,1.65079365 L64.5873016,1.65079365 C65.8253968,1.65079365 66.9603175,2.68253968 66.9603175,4.02380952 L66.9603175,11.8650794 L66.8571429,11.8650794 Z" id="Shape" fill-rule="nonzero"></path>
                <path d="M46.6349206,4.02380952 C45.1904762,4.02380952 43.952381,5.26190476 43.952381,6.70634921 C43.952381,8.15079365 45.1904762,9.38888889 46.6349206,9.38888889 C48.0793651,9.38888889 49.3174603,8.15079365 49.3174603,6.70634921 C49.3174603,5.26190476 48.1825397,4.02380952 46.6349206,4.02380952 Z M46.6349206,7.84126984 C46.015873,7.84126984 45.5,7.32539683 45.5,6.70634921 C45.5,6.08730159 46.015873,5.57142857 46.6349206,5.57142857 C47.2539683,5.57142857 47.7698413,6.08730159 47.7698413,6.70634921 C47.7698413,7.32539683 47.2539683,7.84126984 46.6349206,7.84126984 Z" id="Shape" fill-rule="nonzero"></path>
                <path d="M54.1666667,4.02380952 C52.7222222,4.02380952 51.484127,5.26190476 51.484127,6.70634921 C51.484127,8.15079365 52.7222222,9.38888889 54.1666667,9.38888889 C55.6111111,9.38888889 56.8492063,8.15079365 56.8492063,6.70634921 C56.8492063,5.26190476 55.7142857,4.02380952 54.1666667,4.02380952 Z M54.1666667,7.84126984 C53.547619,7.84126984 53.031746,7.32539683 53.031746,6.70634921 C53.031746,6.08730159 53.547619,5.57142857 54.1666667,5.57142857 C54.7857143,5.57142857 55.3015873,6.08730159 55.3015873,6.70634921 C55.3015873,7.32539683 54.7857143,7.84126984 54.1666667,7.84126984 Z" id="Shape" fill-rule="nonzero"></path>
                <path d="M61.6984127,4.02380952 C60.2539683,4.02380952 59.015873,5.26190476 59.015873,6.70634921 C59.015873,8.15079365 60.2539683,9.38888889 61.6984127,9.38888889 C63.1428571,9.38888889 64.3809524,8.15079365 64.3809524,6.70634921 C64.3809524,5.26190476 63.1428571,4.02380952 61.6984127,4.02380952 Z M61.6984127,7.84126984 C61.0793651,7.84126984 60.5634921,7.32539683 60.5634921,6.70634921 C60.5634921,6.08730159 61.0793651,5.57142857 61.6984127,5.57142857 C62.3174603,5.57142857 62.8333333,6.08730159 62.8333333,6.70634921 C62.8333333,7.32539683 62.3174603,7.84126984 61.6984127,7.84126984 Z" id="Shape" fill-rule="nonzero"></path>
                <rect id="Rectangle" x="6.29365079" y="5.98412698" width="33.9444444" height="1.54761905"></rect>
                <path d="M19.9126984,19.8095238 C13.6190476,19.8095238 8.46031746,24.968254 8.46031746,31.2619048 L10.0079365,31.2619048 C10.0079365,25.7936508 14.4444444,21.3571429 19.9126984,21.3571429 L19.9126984,19.8095238 Z" id="Path"></path>
                <rect id="Rectangle" x="19.1904762" y="57.984127" width="1.54761905" height="1.54761905"></rect>
                <rect id="Rectangle" x="19.1904762" y="54.6825397" width="1.54761905" height="1.54761905"></rect>
                <path d="M63.8650794,16.9206349 L39.515873,16.9206349 L39.515873,26.9285714 L63.8650794,26.9285714 L63.8650794,16.9206349 Z M62.3174603,25.3809524 L41.0634921,25.3809524 L41.0634921,18.468254 L62.3174603,18.468254 L62.3174603,25.3809524 Z" id="Shape" fill-rule="nonzero"></path>
                <rect id="Rectangle" x="46.531746" y="31.0555556" width="17.2301587" height="1.54761905"></rect>
                <rect id="Rectangle" x="37.452381" y="37.7619048" width="26.2063492" height="1.54761905"></rect>
                <rect id="Rectangle" x="32.0873016" y="44.468254" width="31.6746032" height="1.54761905"></rect>
                <rect id="Rectangle" x="52.515873" y="21.1507937" width="1.54761905" height="1.54761905"></rect>
                <rect id="Rectangle" x="55.8174603" y="21.1507937" width="1.54761905" height="1.54761905"></rect>
                <rect id="Rectangle" x="45.9126984" y="21.1507937" width="1.54761905" height="1.54761905"></rect>
                <rect id="Rectangle" x="49.2142857" y="21.1507937" width="1.54761905" height="1.54761905"></rect>
            </g>
        </g>
    </g>
</svg>