<?xml version="1.0" encoding="UTF-8"?>
<svg width="124px" height="93px" viewBox="0 0 124 93" version="1.1" xmlns="http://www.w3.org/2000/svg" xmlns:xlink="http://www.w3.org/1999/xlink">
    <!-- Generator: Sketch 52.3 (67297) - http://www.bohemiancoding.com/sketch -->
    <title>Artboard</title>
    <desc>Created with Sketch.</desc>
    <g id="Artboard" stroke="none" stroke-width="1" fill="none" fill-rule="evenodd">
        <g id="noun_Weblinks-Optimization_986342" transform="translate(25.000000, 14.000000)" fill="#FFFFFF">
            <g id="Group">
                <path d="M53.5423729,16.7457627 C51.779661,16.7457627 50.0169492,17.2966102 48.4745763,18.2881356 L41.2033898,23.1355932 C38.2288136,25.1186441 36.6864407,28.6440678 37.2372881,32.059322 L37.4576271,33.3813559 L42.4152542,30.0762712 L42.5254237,29.7457627 C42.7457627,28.7542373 43.2966102,27.9830508 44.1779661,27.4322034 L51.4491525,22.5847458 C52.1101695,22.1440678 52.8813559,21.9237288 53.6525424,21.9237288 C54.9745763,21.9237288 56.1864407,22.5847458 56.9576271,23.6864407 C58.1694915,25.559322 57.7288136,27.9830508 55.8559322,29.1949153 L48.4745763,34.0423729 C47.7033898,34.5932203 46.6016949,34.8135593 45.6101695,34.7033898 L45.279661,34.7033898 L40.3220339,38.0084746 L41.4237288,38.6694915 C42.8559322,39.5508475 44.5084746,39.9915254 46.1610169,39.9915254 C47.9237288,39.9915254 49.6864407,39.440678 51.2288136,38.4491525 L58.5,33.6016949 C60.4830508,32.279661 61.9152542,30.1864407 62.3559322,27.7627119 C62.7966102,25.3389831 62.3559322,22.9152542 61.0338983,20.9322034 C59.4915254,18.2881356 56.6271186,16.7457627 53.5423729,16.7457627 Z M60.9237288,27.3220339 C60.4830508,29.3050847 59.3813559,30.9576271 57.7288136,32.059322 L50.4576271,36.9067797 C48.4745763,38.2288136 45.8305085,38.559322 43.6271186,37.6779661 L45.720339,36.2457627 C47.0423729,36.3559322 48.2542373,36.0254237 49.3559322,35.3644068 L56.6271186,30.5169492 C59.1610169,28.7542373 59.9322034,25.2288136 58.1694915,22.6949153 C57.0677966,21.1525424 55.4152542,20.1610169 53.4322034,20.1610169 C52.3305085,20.1610169 51.2288136,20.4915254 50.3474576,21.1525424 L43.0762712,26 C41.9745763,26.7711864 41.2033898,27.7627119 40.8728814,28.9745763 L38.779661,30.4067797 C38.8898305,27.9830508 40.1016949,25.779661 42.0847458,24.4576271 L49.3559322,19.6101695 C50.5677966,18.7288136 52,18.3983051 53.5423729,18.3983051 C56.0762712,18.3983051 58.3898305,19.6101695 59.8220339,21.7033898 C60.9237288,23.3559322 61.2542373,25.3389831 60.9237288,27.3220339 Z" id="Shape" fill-rule="nonzero"></path>
                <path d="M36.3559322,40.6525424 L31.3983051,43.9576271 L31.2881356,44.2881356 C31.0677966,45.279661 30.4067797,46.0508475 29.6355932,46.6016949 L22.3644068,51.4491525 C21.7033898,51.8898305 20.9322034,52.1101695 20.1610169,52.1101695 C18.8389831,52.1101695 17.6271186,51.4491525 16.8559322,50.3474576 C15.6440678,48.4745763 16.0847458,46.0508475 17.9576271,44.8389831 L25.2288136,39.9915254 C26,39.440678 27.1016949,39.220339 28.0932203,39.3305085 L28.4237288,39.3305085 L33.3813559,36.0254237 L32.279661,35.3644068 C29.3050847,33.6016949 25.3389831,33.6016949 22.4745763,35.5847458 L15.2033898,40.4322034 C11.0169492,43.1864407 9.91525424,48.9152542 12.6694915,53.1016949 C14.3220339,55.6355932 17.1864407,57.1779661 20.2711864,57.1779661 C22.0338983,57.1779661 23.7966102,56.6271186 25.3389831,55.6355932 L32.6101695,50.7881356 C35.5847458,48.8050847 37.1271186,45.279661 36.5762712,41.8644068 L36.3559322,40.6525424 Z M31.7288136,49.4661017 L24.4576271,54.3135593 C23.2457627,55.1949153 21.8135593,55.5254237 20.2711864,55.5254237 C17.7372881,55.5254237 15.4237288,54.3135593 13.9915254,52.220339 C11.6779661,48.8050847 12.6694915,44.0677966 16.0847458,41.8644068 L23.3559322,37.0169492 C24.5677966,36.2457627 26,35.8050847 27.5423729,35.8050847 C28.4237288,35.8050847 29.3050847,35.9152542 30.1864407,36.2457627 L28.0932203,37.6779661 C26.7711864,37.5677966 25.559322,37.8983051 24.4576271,38.559322 L17.1864407,43.4067797 C14.6525424,45.1694915 13.8813559,48.6949153 15.6440678,51.2288136 C16.7457627,52.7711864 18.3983051,53.7627119 20.3813559,53.7627119 C21.4830508,53.7627119 22.5847458,53.4322034 23.4661017,52.7711864 L30.7372881,47.9237288 C31.8389831,47.1525424 32.6101695,46.1610169 32.940678,44.9491525 L35.0338983,43.5169492 C34.9237288,45.940678 33.7118644,48.1440678 31.7288136,49.4661017 Z" id="Shape" fill-rule="nonzero"></path>
                <polygon id="Rectangle" transform="translate(36.931441, 37.033442) rotate(146.267025) translate(-36.931441, -37.033442) " points="22.6100041 36.2072048 51.2528781 36.2072048 51.2528781 37.8596783 22.6100041 37.8596783"></polygon>
                <path d="M68.8559322,0.771186441 L4.95762712,0.771186441 C2.6440678,0.771186441 0.771186441,2.6440678 0.771186441,4.95762712 L0.771186441,60.2627119 C0.771186441,62.5762712 2.6440678,64.4491525 4.95762712,64.4491525 L68.8559322,64.4491525 C71.1694915,64.4491525 73.0423729,62.5762712 73.0423729,60.2627119 L73.0423729,4.84745763 C73.0423729,2.53389831 71.1694915,0.771186441 68.8559322,0.771186441 Z M4.95762712,2.42372881 L68.8559322,2.42372881 C70.1779661,2.42372881 71.3898305,3.52542373 71.3898305,4.95762712 L71.3898305,9.58474576 L2.53389831,9.58474576 L2.53389831,4.84745763 C2.53389831,3.52542373 3.63559322,2.42372881 4.95762712,2.42372881 Z M68.8559322,62.5762712 L4.95762712,62.5762712 C3.63559322,62.5762712 2.42372881,61.4745763 2.42372881,60.0423729 L2.42372881,11.1271186 L71.279661,11.1271186 L71.279661,60.0423729 C71.3898305,61.4745763 70.1779661,62.5762712 68.8559322,62.5762712 Z" id="Shape" fill-rule="nonzero"></path>
                <rect id="Rectangle" x="61.5847458" y="5.1779661" width="1.65254237" height="1.65254237"></rect>
                <rect id="Rectangle" x="65.7711864" y="5.1779661" width="1.65254237" height="1.65254237"></rect>
                <rect id="Rectangle" x="57.3983051" y="5.1779661" width="1.65254237" height="1.65254237"></rect>
                <path d="M7.38135593,6.83050847 L51.779661,6.83050847 C52.220339,6.83050847 52.6610169,6.5 52.6610169,5.94915254 C52.6610169,5.50847458 52.3305085,5.06779661 51.779661,5.06779661 L7.38135593,5.06779661 C6.94067797,5.1779661 6.5,5.50847458 6.5,5.94915254 C6.5,6.5 6.94067797,6.83050847 7.38135593,6.83050847 Z" id="Path"></path>
            </g>
        </g>
    </g>
</svg>