<?xml version="1.0" encoding="UTF-8"?>
<svg width="124px" height="93px" viewBox="0 0 124 93" version="1.1" xmlns="http://www.w3.org/2000/svg" xmlns:xlink="http://www.w3.org/1999/xlink">
    <!-- Generator: Sketch 52.3 (67297) - http://www.bohemiancoding.com/sketch -->
    <title>Artboard</title>
    <desc>Created with Sketch.</desc>
    <g id="Artboard" stroke="none" stroke-width="1" fill="none" fill-rule="evenodd">
        <g id="noun_Search-graph_981147" transform="translate(30.000000, 14.000000)" fill="#FFFFFF">
            <g id="Group">
                <path d="M38.8,29.4 C38.3,29 38,28.4 38,27.8 L36.5,27.8 C36.5,28.8 37,29.8 37.8,30.5 C38.4,31 39.2,31.4 40,31.5 L40,34 L41.5,34 L41.5,31.5 C42.3,31.4 43.1,31 43.7,30.5 C44.5,29.8 45,28.8 45,27.8 C45,26.8 44.5,25.8 43.7,25.1 C42.9,24.4 41.8,24 40.7,24 C39.9,24 39.2,23.8 38.7,23.3 C38.2,22.9 37.9,22.3 37.9,21.7 C37.9,21.1 38.2,20.6 38.7,20.1 C39.8,19.2 41.6,19.2 42.7,20.1 C43.2,20.5 43.5,21.1 43.5,21.7 L45,21.7 C45,20.7 44.5,19.7 43.7,19 C43.1,18.5 42.3,18.1 41.5,18 L41.5,15.5 L40,15.5 L40,18 C39.2,18.1 38.4,18.4 37.8,19 C37,19.7 36.5,20.7 36.5,21.7 C36.5,22.7 37,23.7 37.8,24.4 C38.6,25.1 39.7,25.5 40.8,25.5 C41.6,25.5 42.3,25.8 42.8,26.2 C43.3,26.6 43.6,27.2 43.6,27.8 C43.6,28.4 43.3,28.9 42.8,29.4 C41.8,30.4 39.9,30.4 38.8,29.4 Z" id="Path"></path>
                <path d="M28.9,36.8 L22.1,36.8 L22.1,52.1 L28.9,52.1 L28.9,36.8 Z M27.4,50.6 L23.7,50.6 L23.7,38.3 L27.4,38.3 L27.4,50.6 Z" id="Shape" fill-rule="nonzero"></path>
                <path d="M19.7,41.7 L12.9,41.7 L12.9,52.2 L19.7,52.2 L19.7,41.7 Z M18.1,50.6 L14.4,50.6 L14.4,43.2 L18.1,43.2 L18.1,50.6 Z" id="Shape" fill-rule="nonzero"></path>
                <polygon id="Path" points="65 59.7 57.8 59.7 57.8 57 56.3 57 56.3 59.7 48.8 59.7 48.8 57 47.3 57 47.3 59.7 39.9 59.7 39.9 57 38.4 57 38.4 59.7 30.9 59.7 30.9 57 29.4 57 29.4 59.7 22 59.7 22 57 20.5 57 20.5 59.7 13 59.7 13 57 11.5 57 11.5 59.7 5.1 59.7 5.1 52.9 7.8 52.9 7.8 51.4 5.1 51.4 5.1 44 7.8 44 7.8 42.5 5.1 42.5 5.1 35.1 7.8 35.1 7.8 33.5 5.1 33.5 5.1 26.1 7.8 26.1 7.8 24.6 5.1 24.6 5.1 17.2 7.8 17.2 7.8 15.6 5.1 15.6 5.1 8.2 7.8 8.2 7.8 6.7 5.1 6.7 5.1 0.2 3.5 0.2 3.5 59.7 0 59.7 0 61.3 3.5 61.3 3.5 64.8 5.1 64.8 5.1 61.3 65 61.3"></polygon>
                <path d="M37.4,39.5 C40.8,40.3 44.4,39.9 47.6,38.5 L55.4,51.3 C57.6,54.5 60.5,52.8 61,52.5 C61.9,51.9 62.5,50.9 62.6,49.8 C62.7,48.7 62.4,47.6 61.7,46.8 L52.2,35.2 C54.3,33 55.8,30.3 56.4,27.3 C57.9,19.4 53.4,11.7 45.8,9.3 C44.2,8.8 42.6,8.6 41,8.6 C33,8.6 26.3,14.6 25.4,22.7 C25.2,24.8 25.4,27 26,29 C27.7,34.2 32,38.3 37.4,39.5 Z M26.9,22.8 C27.7,15.6 33.7,10.1 41,10.1 C42.5,10.1 43.9,10.3 45.3,10.8 C52,12.9 56.2,20 54.9,27 C54.3,30 52.9,32.6 50.7,34.6 L50.2,35.1 L60.6,47.8 C61.8,49.7 60.7,50.9 60.1,51.3 C59.8,51.5 58.1,52.4 56.7,50.6 L48.1,36.6 L47.5,36.9 C44.5,38.4 41,38.9 37.7,38.1 C32.9,37 29,33.3 27.4,28.5 C26.9,26.6 26.7,24.7 26.9,22.8 Z" id="Shape" fill-rule="nonzero"></path>
                <polygon id="Path" points="40.6 41.2 40.6 52.1 47.4 52.1 47.4 40.3 45.8 40.3 45.8 50.6 42.1 50.6 42.1 41.2"></polygon>
                <polygon id="Path" points="31.4 38.7 31.4 52.1 38.1 52.1 38.1 40.8 36.6 40.8 36.6 50.6 32.9 50.6 32.9 38.7"></polygon>
            </g>
        </g>
    </g>
</svg>