<?xml version="1.0" encoding="UTF-8"?>
<svg width="325px" height="579px" viewBox="0 0 325 579" version="1.1" xmlns="http://www.w3.org/2000/svg" xmlns:xlink="http://www.w3.org/1999/xlink">
    <!-- Generator: Sketch 52.3 (67297) - http://www.bohemiancoding.com/sketch -->
    <title>Group 48</title>
    <desc>Created with Sketch.</desc>
    <g id="Page-1" stroke="none" stroke-width="1" fill="none" fill-rule="evenodd">
        <g id="Group-48">
            <g id="Group-16">
                <g id="Group-15">
                    <g id="Group-4">
                        <g id="Group-2">
                            <ellipse id="Oval" fill="#111D5F" cx="72.5" cy="75.41011" rx="72.5" ry="75.41011"></ellipse>
                            <ellipse id="Oval" fill="#FFF60F" cx="72.8302961" cy="70.2835455" rx="66.5546697" ry="66.6453385"></ellipse>
                        </g>
                    </g>
                </g>
                <text id="Internal-Audit" font-family="Roboto-Bold, Roboto" font-size="11" font-weight="bold" fill="#111D5F">
                    <tspan x="39.4279785" y="97">Internal Audit</tspan>
                </text>
            </g>
            <g id="Group-16" transform="translate(115.000000, 75.000000)">
                <g id="Group-15">
                    <g id="Group-4">
                        <g id="Group-2">
                            <ellipse id="Oval" fill="#111D5F" cx="72.5" cy="75.41011" rx="72.5" ry="75.41011"></ellipse>
                            <ellipse id="Oval" fill="#FFF60F" cx="72.8302961" cy="70.2835455" rx="66.5546697" ry="66.6453385"></ellipse>
                        </g>
                    </g>
                </g>
                <text id="Keyword-Research" font-family="Roboto-Bold, Roboto" font-size="11" font-weight="bold" fill="#111D5F">
                    <tspan x="51.5183105" y="97">Keyword </tspan>
                    <tspan x="49.8156738" y="110">Research</tspan>
                </text>
            </g>
            <g id="Group-16" transform="translate(19.000000, 174.000000)">
                <g id="Group-15">
                    <g id="Group-4">
                        <g id="Group-2">
                            <ellipse id="Oval" fill="#111D5F" cx="72.5" cy="75.41011" rx="72.5" ry="75.41011"></ellipse>
                            <ellipse id="Oval" fill="#FFF60F" cx="72.8302961" cy="70.2835455" rx="66.5546697" ry="66.6453385"></ellipse>
                        </g>
                    </g>
                </g>
                <text id="Content-Development" font-family="Roboto-Bold, Roboto" font-size="11" font-weight="bold" fill="#111D5F">
                    <tspan x="53.4411621" y="104">Content </tspan>
                    <tspan x="40.3625488" y="117">Development</tspan>
                </text>
            </g>
            <g id="Group-16" transform="translate(135.000000, 249.000000)">
                <g id="Group-15">
                    <g id="Group-4">
                        <g id="Group-2">
                            <ellipse id="Oval" fill="#111D5F" cx="72.5" cy="75.41011" rx="72.5" ry="75.41011"></ellipse>
                            <ellipse id="Oval" fill="#FFF60F" cx="72.8302961" cy="70.2835455" rx="66.5546697" ry="66.6453385"></ellipse>
                        </g>
                    </g>
                </g>
                <text id="Link-Building" font-family="Roboto-Bold, Roboto" font-size="11" font-weight="bold" fill="#111D5F">
                    <tspan x="40.8942871" y="97">Link Building</tspan>
                </text>
            </g>
            <g id="Group-16" transform="translate(58.000000, 362.000000)">
                <g id="Group-15">
                    <g id="Group-4">
                        <g id="Group-2">
                            <ellipse id="Oval" fill="#111D5F" cx="72.5" cy="75.41011" rx="72.5" ry="75.41011"></ellipse>
                            <ellipse id="Oval" fill="#FFF60F" cx="72.8302961" cy="70.2835455" rx="66.5546697" ry="66.6453385"></ellipse>
                        </g>
                    </g>
                </g>
                <text id="Paid-Campaigns" font-family="Roboto-Bold, Roboto" font-size="11" font-weight="bold" fill="#111D5F">
                    <tspan x="32.7167969" y="97">Paid Campaigns</tspan>
                </text>
            </g>
            <g id="noun_Business-research_3215575" transform="translate(55.000000, 38.000000)" fill="#111D5F">
                <g id="Group">
                    <path d="M2.07206769,39.6914092 L29.3455077,39.6914092 C30.3058462,39.6914092 31.0870954,38.9131631 31.0870954,37.9564308 L31.0870954,35.3224185 L34.5840923,38.8194154 C35.7511692,39.9793108 37.6422523,39.9860123 38.7980308,38.8302338 C39.9635446,37.6659692 39.9584985,35.7797169 38.7920185,34.6144862 L34.0227877,29.8452554 C33.55464,29.3759815 32.7730892,29.3407877 32.2493477,29.7269785 L31.4741046,28.9520738 C33.8145477,25.51112 33.6818892,20.8804062 31.0870831,17.5456 L31.0870831,2.04236923 C31.0870831,1.08563692 30.3058338,0.306793846 29.3454954,0.306793846 L8.95788308,0.306793846 C8.85514462,0.306793846 8.69386462,0.379704615 8.63216,0.441409231 C7.79462154,1.27500308 11.6606769,-2.57284308 0.464492308,8.57061538 C0.337015385,8.69763077 0.345612308,8.83597538 0.33048,8.89753846 L0.33048,37.9564308 C0.33048,38.9131631 1.11172923,39.6914092 2.07206769,39.6914092 Z M33.3701415,30.4978954 L38.1393723,35.2671262 C38.94528,36.0730338 38.9496308,37.3733354 38.1453846,38.1775815 C37.3485108,38.9738585 36.0432185,38.9672431 35.2355262,38.1655631 C33.3689846,36.2990215 31.2478769,34.1779138 30.4723077,33.4023446 C30.3033785,33.2322215 30.2935692,32.9571262 30.4662954,32.78696 L32.7559569,30.4978954 C32.92184,30.3295754 33.1970462,30.3248 33.3701415,30.4978954 Z M30.3364862,31.6048677 L29.7006708,30.9690523 C29.7168985,30.9450523 29.7263631,30.9169538 29.7387569,30.8904 C30.1552985,30.5361354 30.5723631,30.1204185 30.9206215,29.7040246 L31.5792738,30.36208 L30.3364862,31.6048677 Z M30.3010338,28.9928985 C30.2836062,29.0146831 30.2671569,29.0360554 30.2492,29.0579138 C30.0686892,29.2779754 29.8772062,29.4920308 29.6718277,29.6974092 C25.8569292,33.5123077 19.3733169,33.0237662 16.2084862,28.3992923 C12.8281415,23.4466892 15.2491508,16.6119754 21.0760492,15.00728 C29.3118523,12.7559569 35.58912,22.4189108 30.3010338,28.9928985 Z M25.7024738,32.9215754 L25.7024738,35.2917662 L21.88096,35.2917662 L21.88096,33.0916062 C23.194,33.2883323 24.7351323,33.1489415 25.7024738,32.9215754 Z M13.7950215,22.3813108 L13.7950215,20.46064 L14.2036738,20.46064 C14.0550831,20.9225477 13.8472985,21.90088 13.7950215,22.3813108 Z M13.7950215,24.4714523 C13.9673662,26.0619692 14.5583569,27.6137292 15.4297846,28.8964431 C16.0710523,29.8391877 16.8096677,30.5857969 17.6165354,31.2177723 L17.6165354,35.2917662 L13.7950215,35.2917662 L13.7950215,24.4714523 Z M30.1640123,2.04236923 L30.1640123,16.5027077 C27.6882892,14.1139631 24.1094154,13.2153477 20.8300308,14.1181662 C20.5520862,14.1941908 20.2792492,14.2836554 20.0100185,14.3841292 C17.4956431,15.3235938 15.5912185,17.1932862 14.5649292,19.5375631 L13.3334831,19.5375631 C13.0786769,19.5375631 12.8719446,19.7442954 12.8719446,19.9991015 L12.8719446,35.7533108 C12.8719446,36.0081169 13.0786769,36.2148492 13.3334831,36.2148492 L18.0780738,36.2148492 C18.33288,36.2148492 18.5396123,36.0081169 18.5396123,35.7533108 L18.5396123,31.8615569 C19.3450523,32.3570892 20.1574031,32.69216 20.9578831,32.9017846 L20.9578831,35.7533108 C20.9578831,36.0081169 21.1646154,36.2148492 21.4194215,36.2148492 L26.1640123,36.2148492 C26.4188185,36.2148492 26.6255508,36.0081169 26.6255508,35.7533108 L26.6255508,32.6499077 C27.4793538,32.3581662 28.4077046,31.8810215 28.9614892,31.53576 C29.0230769,31.5973046 29.7562523,32.3299569 29.6946646,32.2684062 C29.2982585,32.7807938 29.318,33.5533292 29.8196677,34.0549908 L30.1640185,34.3993415 L30.1640185,37.9564308 C30.1640185,38.4041477 29.7968308,38.7683323 29.3455077,38.7683323 L2.07206769,38.7683323 C1.62074462,38.7683323 1.25355692,38.4041477 1.25355692,37.9564308 L1.25355692,9.35907692 L7.67723077,9.35907692 C8.63816615,9.35907692 9.41942154,8.58022769 9.41942154,7.62289846 L9.41942154,1.22986462 L29.3455015,1.22986462 C29.7968246,1.22986462 30.1640123,1.59465231 30.1640123,2.04236923 Z M8.49634462,1.88131077 L8.49634462,7.62289846 C8.49634462,8.07121846 8.12915692,8.436 7.67723692,8.436 L1.90972923,8.436 C10.9360554,-0.546578462 7.82286769,2.55152615 8.49634462,1.88131077 Z" id="Shape" fill-rule="nonzero"></path>
                    <path d="M9.99514462,23.2322708 L5.25055385,23.2322708 C4.99574769,23.2322708 4.78901538,23.4390031 4.78901538,23.6938092 L4.78901538,35.7557108 C4.78901538,36.0105169 4.99574769,36.2172492 5.25055385,36.2172492 L9.99514462,36.2172492 C10.2499508,36.2172492 10.4566831,36.0105169 10.4566831,35.7557108 L10.4566831,23.6938092 C10.4566831,23.4390031 10.2499508,23.2322708 9.99514462,23.2322708 Z M9.53360615,35.2941723 L5.71209231,35.2941723 L5.71209231,24.1553477 L9.53360615,24.1553477 L9.53360615,35.2941723 Z" id="Shape" fill-rule="nonzero"></path>
                    <path d="M17.0894954,14.6168862 L5.25055385,14.6168862 C4.99574769,14.6168862 4.78901538,14.8236185 4.78901538,15.0784246 C4.78901538,15.3332308 4.99574769,15.5399631 5.25055385,15.5399631 C16.7618892,15.3464923 17.5510338,15.9613908 17.5510338,15.0784246 C17.5510338,14.8236185 17.3443015,14.6168862 17.0894954,14.6168862 Z" id="Path"></path>
                    <path d="M26.1664185,11.5261415 L5.25055385,11.5261415 C4.99574769,11.5261415 4.78901538,11.7328738 4.78901538,11.98768 C4.78901538,12.2424862 4.99574769,12.4492185 5.25055385,12.4492185 L26.1664185,12.4492185 C26.4212246,12.4492185 26.6279569,12.2424862 26.6279569,11.98768 C26.6279569,11.7328738 26.4212246,11.5261415 26.1664185,11.5261415 Z" id="Path"></path>
                    <path d="M26.1664185,8.436 L12.5281969,8.436 C12.2733908,8.436 12.0666585,8.64273231 12.0666585,8.89753846 C12.0666585,9.15234462 12.2733908,9.35907692 12.5281969,9.35907692 L26.1664185,9.35907692 C26.4212246,9.35907692 26.6279569,9.15234462 26.6279569,8.89753846 C26.6279569,8.64273231 26.4212246,8.436 26.1664185,8.436 Z" id="Path"></path>
                    <path d="M12.5281969,6.26832615 L26.1664185,6.26832615 C26.4212246,6.26832615 26.6279569,6.06159385 26.6279569,5.80678769 C26.6279569,5.55198154 26.4212246,5.34524923 26.1664185,5.34524923 L12.5281969,5.34524923 C12.2733908,5.34524923 12.0666585,5.55198154 12.0666585,5.80678769 C12.0666585,6.06159385 12.2733908,6.26832615 12.5281969,6.26832615 Z" id="Path"></path>
                    <path d="M26.3443015,16.6084738 C19.2151446,13.5829169 13.1168369,21.8456308 17.3465538,27.7398585 C20.1094646,31.6691385 25.5926338,31.9356923 28.7379323,28.7617169 C29.1896308,28.3096431 29.5680123,27.8056615 29.8839631,27.2693785 C30.5519323,26.1361908 30.9137108,24.8444985 30.9092062,23.4936862 C30.9092062,23.4930831 30.9092062,23.4930831 30.9092062,23.4930831 C30.8989908,20.4942892 29.10752,17.7923692 26.3443015,16.6084738 Z M29.9861292,23.4963938 C29.98688,23.7416985 29.9708062,23.9841846 29.9448123,24.2245723 C29.7868369,25.6916308 29.1423015,27.0513846 28.0822831,28.11088 C27.6500431,28.5475508 27.1562031,28.9086215 26.6255508,29.2009477 L26.6255508,17.7801969 C26.7004431,17.8224123 26.7769908,17.8623754 26.8498585,17.9072246 C28.7739877,19.0922462 29.9781662,21.1948985 29.9861292,23.4963938 Z M21.88096,29.8184738 L21.88096,17.1138831 C23.1411138,16.8058462 24.5135815,16.9024677 25.7024738,17.3541169 L25.7024738,29.6210215 C24.4691138,30.0669046 23.1663385,30.1394277 21.88096,29.8184738 Z M17.6165354,20.4955692 L17.6165354,26.4041477 C16.7169908,24.6258215 16.6286523,22.4227077 17.6165354,20.4955692 Z M18.5396123,27.7599508 L18.5396123,19.9991015 C18.5396123,19.7841477 18.3893723,19.61152 18.1904554,19.5602523 C18.1939138,19.5554831 18.1971385,19.5501477 18.2006708,19.5453785 C18.8397908,18.6831508 19.78616,17.8651631 20.9578831,17.3701969 L20.9578831,29.5095077 C20.0303754,29.1242892 19.2000738,28.5300492 18.5396123,27.7599508 Z" id="Shape" fill-rule="nonzero"></path>
                </g>
            </g>
            <g id="noun_Search_995553" transform="translate(166.000000, 117.000000)" fill="#111D5F">
                <g id="Group">
                    <path d="M39.6825397,0.126984127 L2.85714286,0.126984127 C1.52380952,0.126984127 0.444444444,1.20634921 0.444444444,2.53968254 L0.444444444,32.5714286 L9.07936508,32.5714286 L9.07936508,36.8253968 C9.07936508,38.5396825 10.4761905,39.9365079 12.1904762,39.9365079 C13.9047619,39.9365079 15.3015873,38.5396825 15.3015873,36.8253968 L15.3015873,32.5714286 L41.968254,32.5714286 L41.968254,2.47619048 C42.0952381,1.14285714 41.015873,0.126984127 39.6825397,0.126984127 Z M14.4126984,36.7619048 C14.4126984,37.968254 13.4603175,38.9206349 12.2539683,38.9206349 C11.047619,38.9206349 10.0952381,37.968254 10.0952381,36.7619048 L10.0952381,31.4285714 C10.0952381,31.1111111 10.3492063,30.8571429 10.6666667,30.8571429 L11.4920635,30.8571429 L11.4920635,28.4444444 C11.7460317,28.4444444 12,28.5079365 12.2539683,28.5079365 C12.5079365,28.5079365 12.7619048,28.5079365 13.015873,28.4444444 L13.015873,30.8571429 L13.8412698,30.8571429 C14.1587302,30.8571429 14.4126984,31.1111111 14.4126984,31.4285714 L14.4126984,36.7619048 Z M4,19.2380952 C4,14.6666667 7.74603175,10.9206349 12.3174603,10.9206349 C16.8888889,10.9206349 20.6349206,14.6666667 20.6349206,19.2380952 C20.6349206,23.8095238 16.8888889,27.5555556 12.3174603,27.5555556 C7.68253968,27.4920635 4,23.8095238 4,19.2380952 Z M41.1428571,31.5555556 L15.3650794,31.5555556 L15.3650794,31.4285714 C15.3650794,30.6666667 14.7301587,29.968254 13.968254,29.9047619 L13.968254,28.3174603 C18.2222222,27.4920635 21.4603175,23.7460317 21.4603175,19.2380952 C21.4603175,14.1587302 17.3333333,9.96825397 12.1904762,9.96825397 C7.11111111,9.96825397 2.92063492,14.0952381 2.92063492,19.2380952 C2.92063492,23.7460317 6.15873016,27.4920635 10.4126984,28.3174603 L10.4126984,29.9047619 C9.65079365,29.968254 9.01587302,30.6031746 9.01587302,31.4285714 L9.01587302,31.5555556 L1.46031746,31.5555556 L1.46031746,8.25396825 L41.1428571,8.25396825 L41.1428571,31.5555556 Z M41.1428571,7.3015873 L1.46031746,7.3015873 L1.46031746,2.47619048 C1.46031746,1.71428571 2.0952381,1.01587302 2.92063492,1.01587302 L39.7460317,1.01587302 C40.5079365,1.01587302 41.2063492,1.65079365 41.2063492,2.47619048 L41.2063492,7.3015873 L41.1428571,7.3015873 Z" id="Shape" fill-rule="nonzero"></path>
                    <path d="M28.6984127,2.47619048 C27.8095238,2.47619048 27.047619,3.23809524 27.047619,4.12698413 C27.047619,5.01587302 27.8095238,5.77777778 28.6984127,5.77777778 C29.5873016,5.77777778 30.3492063,5.01587302 30.3492063,4.12698413 C30.3492063,3.23809524 29.6507937,2.47619048 28.6984127,2.47619048 Z M28.6984127,4.82539683 C28.3174603,4.82539683 28,4.50793651 28,4.12698413 C28,3.74603175 28.3174603,3.42857143 28.6984127,3.42857143 C29.0793651,3.42857143 29.3968254,3.74603175 29.3968254,4.12698413 C29.3968254,4.50793651 29.0793651,4.82539683 28.6984127,4.82539683 Z" id="Shape" fill-rule="nonzero"></path>
                    <path d="M33.3333333,2.47619048 C32.4444444,2.47619048 31.6825397,3.23809524 31.6825397,4.12698413 C31.6825397,5.01587302 32.4444444,5.77777778 33.3333333,5.77777778 C34.2222222,5.77777778 34.984127,5.01587302 34.984127,4.12698413 C34.984127,3.23809524 34.2857143,2.47619048 33.3333333,2.47619048 Z M33.3333333,4.82539683 C32.952381,4.82539683 32.6349206,4.50793651 32.6349206,4.12698413 C32.6349206,3.74603175 32.952381,3.42857143 33.3333333,3.42857143 C33.7142857,3.42857143 34.031746,3.74603175 34.031746,4.12698413 C34.031746,4.50793651 33.7142857,4.82539683 33.3333333,4.82539683 Z" id="Shape" fill-rule="nonzero"></path>
                    <path d="M37.968254,2.47619048 C37.0793651,2.47619048 36.3174603,3.23809524 36.3174603,4.12698413 C36.3174603,5.01587302 37.0793651,5.77777778 37.968254,5.77777778 C38.8571429,5.77777778 39.6190476,5.01587302 39.6190476,4.12698413 C39.6190476,3.23809524 38.8571429,2.47619048 37.968254,2.47619048 Z M37.968254,4.82539683 C37.5873016,4.82539683 37.2698413,4.50793651 37.2698413,4.12698413 C37.2698413,3.74603175 37.5873016,3.42857143 37.968254,3.42857143 C38.3492063,3.42857143 38.6666667,3.74603175 38.6666667,4.12698413 C38.6666667,4.50793651 38.3492063,4.82539683 37.968254,4.82539683 Z" id="Shape" fill-rule="nonzero"></path>
                    <rect id="Rectangle" x="3.87301587" y="3.68253968" width="20.8888889" height="1"></rect>
                    <path d="M12.2539683,12.1904762 C8.38095238,12.1904762 5.20634921,15.3650794 5.20634921,19.2380952 L6.15873016,19.2380952 C6.15873016,15.8730159 8.88888889,13.1428571 12.2539683,13.1428571 L12.2539683,12.1904762 Z" id="Path"></path>
                    <rect id="Rectangle" x="11.8095238" y="35.6825397" width="1" height="1"></rect>
                    <rect id="Rectangle" x="11.8095238" y="33.6507937" width="1" height="1"></rect>
                    <path d="M39.3015873,10.4126984 L24.3174603,10.4126984 L24.3174603,16.5714286 L39.3015873,16.5714286 L39.3015873,10.4126984 Z M38.3492063,15.6190476 L25.2698413,15.6190476 L25.2698413,11.3650794 L38.3492063,11.3650794 L38.3492063,15.6190476 Z" id="Shape" fill-rule="nonzero"></path>
                    <rect id="Rectangle" x="28.6349206" y="19.1111111" width="10.6031746" height="1"></rect>
                    <rect id="Rectangle" x="23.047619" y="23.2380952" width="16.1269841" height="1"></rect>
                    <rect id="Rectangle" x="19.7460317" y="27.3650794" width="19.4920635" height="1"></rect>
                    <rect id="Rectangle" x="32.3174603" y="13.015873" width="1" height="1"></rect>
                    <rect id="Rectangle" x="34.3492063" y="13.015873" width="1" height="1"></rect>
                    <rect id="Rectangle" x="28.2539683" y="13.015873" width="1" height="1"></rect>
                    <rect id="Rectangle" x="30.2857143" y="13.015873" width="1" height="1"></rect>
                </g>
            </g>
            <g id="noun_Organic-Content_1545765" transform="translate(71.000000, 209.000000)" fill="#111D5F">
                <g id="Group">
                    <path d="M34.1321739,12.8826087 L29.9830435,12.8826087 L29.9830435,8.66695652 C29.9830435,8.66391304 29.9821739,8.66130435 29.9821739,8.65826087 C29.9778261,7.28043478 28.89,6.15347826 27.5278261,6.08565217 C27.4878261,6.06913043 27.4443478,6.05956522 27.3982609,6.05956522 L25.1534783,6.05956522 C25.1526087,6.05956522 25.1517391,6.06 25.1508696,6.06 L18.1434783,6.06 L18.1434783,3.50478261 C18.4565217,3.33304348 18.6695652,3.00043478 18.6695652,2.61869565 C18.6695652,2.23695652 18.4565217,1.90391304 18.1434783,1.7326087 L18.1434783,0.440869565 C18.1434783,0.253478261 17.9913043,0.101304348 17.803913,0.101304348 L15.0591304,0.101304348 C14.8717391,0.101304348 14.7195652,0.253478261 14.7195652,0.440869565 L14.7195652,1.7326087 C14.4065217,1.90434783 14.193913,2.23695652 14.193913,2.61869565 C14.193913,3.00043478 14.4065217,3.33304348 14.7195652,3.50478261 L14.7195652,6.06 L9.13956522,6.06 C7.71478261,6.06 6.55565217,7.21913043 6.55565217,8.64391304 L6.55565217,16.8147826 L4.62347826,16.8147826 C4.6226087,16.8147826 4.62130435,16.8152174 4.62,16.8152174 C3.29217391,16.8169565 2.2126087,17.8973913 2.2126087,19.2252174 C2.2126087,19.226087 2.21304348,19.2269565 2.21304348,19.2278261 L2.21304348,36.7017391 L1.56173913,36.7017391 C0.870869565,36.7017391 0.309130435,37.2643478 0.309130435,37.9556522 L0.309130435,38.6434783 C0.309130435,39.3347826 0.870869565,39.8969565 1.56173913,39.8969565 L31.5226087,39.8969565 C32.213913,39.8969565 32.7765217,39.3347826 32.7765217,38.6434783 L32.7765217,37.9556522 C32.7765217,37.2643478 32.213913,36.7017391 31.5226087,36.7017391 L30.8726087,36.7017391 L30.8726087,23.1513043 C31.1895652,23.2873913 31.5330435,23.3582609 31.8882609,23.3582609 C33.3104348,23.3582609 34.4673913,22.2026087 34.4704348,20.7804348 C34.4708696,20.7782609 34.4713043,20.776087 34.4713043,20.773913 L34.4713043,13.2217391 C34.4717391,13.0343478 34.32,12.8826087 34.1321739,12.8826087 Z M27.3986957,6.76130435 C28.4491304,6.76130435 29.303913,7.61608696 29.303913,8.66652174 C29.303913,8.66869565 29.3047826,8.67086957 29.3047826,8.67304348 L29.3047826,13.2152174 C29.3047826,13.2173913 29.303913,13.2195652 29.303913,13.2217391 C29.303913,13.223913 29.3047826,13.226087 29.3047826,13.2286957 L29.3047826,16.9673913 C29.0430435,16.8695652 28.7604348,16.8156522 28.4647826,16.8152174 C28.463913,16.8152174 28.4634783,16.8152174 28.4626087,16.8152174 L25.4930435,16.8152174 L25.4930435,8.66956522 C25.4930435,8.66869565 25.4934783,8.6673913 25.4934783,8.66652174 C25.4934783,7.61565217 26.3482609,6.76130435 27.3986957,6.76130435 Z M18.143913,10.85 C18.8152174,9.79956522 20.263913,9.11869565 22.4565217,8.8226087 C22.1595652,11.0221739 21.4747826,12.4752174 20.4178261,13.143913 C19.5586957,13.6873913 18.6513043,13.5743478 18.1443478,13.4395652 L18.1443478,10.85 L18.143913,10.85 Z M15.3991304,0.780434783 L17.4647826,0.780434783 L17.4647826,1.60913043 L15.3991304,1.60913043 L15.3991304,0.780434783 Z M15.1265217,2.29782609 C15.1304348,2.29695652 15.1343478,2.29521739 15.1382609,2.29434783 C15.1595652,2.29 15.1813043,2.28782609 15.2034783,2.28782609 L17.6604348,2.28782609 C17.6826087,2.28782609 17.7043478,2.29 17.7247826,2.29434783 C17.7291304,2.29521739 17.7334783,2.29695652 17.7373913,2.29782609 C17.8821739,2.33304348 17.9904348,2.46304348 17.9904348,2.61869565 C17.9904348,2.80086957 17.8421739,2.94913043 17.66,2.94913043 L15.2030435,2.94913043 C15.0208696,2.94913043 14.8726087,2.80086957 14.8726087,2.61869565 C14.8730435,2.46304348 14.9813043,2.3326087 15.1265217,2.29782609 Z M15.3991304,6.39869565 L15.3991304,3.62826087 L16.0926087,3.62826087 L16.0926087,26.4126087 L15.3991304,26.4126087 L15.3991304,16.1147826 C15.3991304,16.1147826 15.3991304,16.113913 15.3991304,16.113913 L15.3991304,6.4 C15.3991304,6.4 15.3991304,6.39956522 15.3991304,6.39913043 C15.3991304,6.39869565 15.3991304,6.39913043 15.3991304,6.39869565 Z M17.2482609,27.0913043 L16.4321739,28.6804348 L15.616087,27.0913043 L17.2482609,27.0913043 Z M16.7713043,26.4126087 L16.7713043,3.62826087 L17.4647826,3.62826087 L17.4647826,26.4126087 L16.7713043,26.4126087 Z M6.89565217,31.5586957 C7.08304348,31.5586957 7.23478261,31.4065217 7.23478261,31.2191304 L7.23478261,19.2269565 C7.23478261,19.2265217 7.23478261,19.2256522 7.23478261,19.2252174 C7.23478261,19.2247826 7.23478261,19.2243478 7.23478261,19.2234783 L7.23478261,17.156087 C7.23478261,17.1556522 7.23478261,17.1552174 7.23478261,17.1547826 C7.23478261,17.1543478 7.23478261,17.1534783 7.23478261,17.1530435 L7.23478261,8.64434783 C7.23478261,7.59391304 8.08956522,6.73913043 9.14,6.73913043 L14.7204348,6.73913043 L14.7204348,15.1986957 C13.7573913,14.3317391 12.2152174,13.7786957 10.1169565,13.5521739 C10.1165217,13.5521739 10.1156522,13.5521739 10.1152174,13.5521739 C10.103913,13.5508696 10.0917391,13.5517391 10.0795652,13.5521739 C10.0686957,13.5521739 10.0573913,13.5513043 10.046087,13.5521739 C10.0452174,13.5521739 10.0447826,13.5521739 10.043913,13.5521739 C10.0334783,13.5530435 10.0243478,13.5565217 10.0143478,13.5582609 C10.0030435,13.5604348 9.99130435,13.5617391 9.98043478,13.5652174 C9.96695652,13.5695652 9.95478261,13.5752174 9.94217391,13.5813043 C9.93478261,13.5843478 9.92695652,13.5869565 9.92,13.5908696 C9.9073913,13.5978261 9.89565217,13.606087 9.88391304,13.6143478 C9.87782609,13.6186957 9.87130435,13.6226087 9.86521739,13.6273913 C9.85521739,13.6356522 9.84652174,13.6456522 9.8373913,13.6547826 C9.83130435,13.6613043 9.82478261,13.6669565 9.81913043,13.673913 C9.81130435,13.6830435 9.80565217,13.6930435 9.79913043,13.7030435 C9.79347826,13.7117391 9.7873913,13.7195652 9.7826087,13.7282609 C9.77652174,13.7386957 9.7726087,13.7504348 9.76826087,13.7617391 C9.76434783,13.7708696 9.76,13.7795652 9.75695652,13.7891304 C9.7526087,13.8030435 9.75043478,13.8173913 9.74782609,13.8317391 C9.74652174,13.8391304 9.74391304,13.846087 9.74304348,13.8534783 C9.74304348,13.853913 9.74304348,13.8543478 9.74304348,13.8552174 C9.74217391,13.8665217 9.74304348,13.8782609 9.74304348,13.8895652 C9.74304348,13.9013043 9.74217391,13.9130435 9.74304348,13.9247826 C9.74304348,13.9252174 9.74304348,13.926087 9.74304348,13.9265217 C10.0278261,16.5608696 10.826087,18.32 12.1165217,19.1552174 C12.7443478,19.5617391 13.3934783,19.6834783 13.9456522,19.6834783 C14.2373913,19.6834783 14.5004348,19.6491304 14.7208696,19.6047826 L14.7208696,26.7526087 C14.7208696,26.7569565 14.7217391,26.7608696 14.7221739,26.7643478 C14.7226087,26.7765217 14.723913,26.7886957 14.7256522,26.8008696 C14.7269565,26.8113043 14.7286957,26.8221739 14.7313043,26.8321739 C14.733913,26.8421739 14.7373913,26.8526087 14.7408696,26.8621739 C14.7447826,26.873913 14.7491304,26.8856522 14.7543478,26.8965217 C14.756087,26.9 14.7569565,26.903913 14.7586957,26.9073913 L16.1308696,29.5791304 C16.1317391,29.5808696 16.1326087,29.5821739 16.1334783,29.583913 C16.1356522,29.5886957 16.1386957,29.5930435 16.1417391,29.5973913 C16.1495652,29.61 16.1578261,29.6226087 16.1669565,29.6343478 C16.1704348,29.6386957 16.1743478,29.6434783 16.1778261,29.6473913 C16.1908696,29.6621739 16.2043478,29.6756522 16.2191304,29.6878261 C16.2195652,29.6882609 16.22,29.6886957 16.2204348,29.6891304 C16.2365217,29.7017391 16.253913,29.7126087 16.2717391,29.7221739 C16.273913,29.7234783 16.2756522,29.7252174 16.2778261,29.7265217 C16.2821739,29.7286957 16.286087,29.73 16.2904348,29.7321739 C16.2956522,29.7343478 16.3008696,29.7369565 16.3069565,29.7391304 C16.3156522,29.7430435 16.3243478,29.7456522 16.3330435,29.7482609 C16.3378261,29.75 16.3426087,29.7513043 16.3473913,29.7526087 C16.3578261,29.7556522 16.3682609,29.7578261 16.3786957,29.7591304 C16.3821739,29.76 16.386087,29.7608696 16.3895652,29.7613043 C16.403913,29.7630435 16.4182609,29.7643478 16.4326087,29.7643478 C16.4326087,29.7643478 16.4326087,29.7643478 16.4326087,29.7643478 C16.4469565,29.7643478 16.4613043,29.7630435 16.4756522,29.7613043 C16.4791304,29.7608696 16.4830435,29.76 16.4869565,29.7591304 C16.4973913,29.7573913 16.5078261,29.7556522 16.5178261,29.7526087 C16.5226087,29.7513043 16.5273913,29.75 16.5326087,29.7482609 C16.5413043,29.7452174 16.55,29.7426087 16.5586957,29.7391304 C16.5643478,29.7369565 16.5695652,29.7343478 16.5752174,29.7321739 C16.5791304,29.73 16.5834783,29.7286957 16.5873913,29.7265217 C16.5895652,29.7252174 16.5917391,29.7234783 16.593913,29.7221739 C16.6117391,29.7126087 16.6291304,29.7017391 16.6452174,29.6891304 C16.6456522,29.6886957 16.646087,29.6882609 16.6465217,29.6878261 C16.6613043,29.676087 16.6747826,29.6621739 16.6873913,29.6473913 C16.6913043,29.6430435 16.6947826,29.6382609 16.6982609,29.6343478 C16.7073913,29.6226087 16.716087,29.61 16.7234783,29.5969565 C16.726087,29.5926087 16.7291304,29.5882609 16.7317391,29.583913 C16.7321739,29.5821739 16.7334783,29.5808696 16.7343478,29.5791304 L18.1065217,26.9073913 C18.1086957,26.9034783 18.1095652,26.8995652 18.1113043,26.8965217 C18.1165217,26.8856522 18.1204348,26.873913 18.1243478,26.8626087 C18.1278261,26.8526087 18.1313043,26.8421739 18.1334783,26.8317391 C18.136087,26.8221739 18.1378261,26.8113043 18.1391304,26.8013043 C18.1408696,26.7886957 18.1426087,26.7765217 18.1430435,26.763913 C18.1430435,26.76 18.1443478,26.7565217 18.1443478,26.7526087 L18.1443478,14.1382609 C18.3804348,14.19 18.6665217,14.2304348 18.9834783,14.2304348 C19.5282609,14.2304348 20.1617391,14.1104348 20.7813043,13.7186957 C22.0886957,12.8913043 22.8973913,11.1256522 23.183913,8.47086957 C23.183913,8.47043478 23.183913,8.47043478 23.183913,8.47 C23.1852174,8.45478261 23.1847826,8.43869565 23.183913,8.42304348 C23.183913,8.41565217 23.1847826,8.40826087 23.183913,8.40086957 C23.183913,8.4 23.183913,8.39913043 23.183913,8.39826087 C23.1826087,8.38695652 23.1791304,8.37695652 23.1769565,8.36608696 C23.1747826,8.35565217 23.1734783,8.34478261 23.17,8.33478261 C23.166087,8.32217391 23.1608696,8.31043478 23.1552174,8.29869565 C23.1517391,8.29043478 23.1486957,8.28217391 23.1447826,8.27434783 C23.1386957,8.2626087 23.1313043,8.2526087 23.1234783,8.24173913 C23.1182609,8.23434783 23.113913,8.22652174 23.1082609,8.21956522 C23.1004348,8.21043478 23.0921739,8.2026087 23.083913,8.19478261 C23.076087,8.1873913 23.0695652,8.17956522 23.0613043,8.17304348 C23.0530435,8.16652174 23.0443478,8.16130435 23.0356522,8.15521739 C23.026087,8.14869565 23.0169565,8.14173913 23.0069565,8.13652174 C22.9973913,8.13086957 22.986087,8.1273913 22.976087,8.12304348 C22.9665217,8.11869565 22.9569565,8.11391304 22.9469565,8.11086957 C22.9326087,8.10652174 22.9173913,8.10391304 22.9021739,8.10173913 C22.8952174,8.10086957 22.8895652,8.09826087 22.8826087,8.0973913 C22.8817391,8.0973913 22.8813043,8.0973913 22.8808696,8.0973913 C22.8678261,8.09608696 22.8534783,8.09695652 22.84,8.0973913 C22.8308696,8.0973913 22.8208696,8.09652174 22.8117391,8.0973913 C22.8108696,8.0973913 22.8104348,8.0973913 22.8095652,8.0973913 C20.6643478,8.32956522 19.1017391,8.90130435 18.1443478,9.80130435 L18.1443478,6.74 L25.1543478,6.74 C25.1552174,6.74 25.156087,6.74 25.1569565,6.74 L25.6808696,6.74 C25.1508696,7.2126087 24.8165217,7.89956522 24.8152174,8.66347826 C24.8152174,8.66478261 24.8147826,8.66652174 24.8147826,8.66782609 L24.8147826,31.2208696 C24.8147826,31.4086957 24.9669565,31.5604348 25.1543478,31.5604348 C25.3417391,31.5604348 25.4934783,31.4082609 25.4934783,31.2208696 L25.4934783,19.566087 L28.0578261,19.566087 L28.0578261,34.6347826 L5.02869565,34.6347826 L5.02869565,19.566087 L6.55608696,19.566087 L6.55608696,31.2204348 C6.55608696,31.4065217 6.70782609,31.5586957 6.89565217,31.5586957 Z M14.7204348,16.2121739 L14.7204348,18.9095652 C14.2143478,19.0321739 13.32,19.1243478 12.4852174,18.583913 C11.4413043,17.9082609 10.7643478,16.4604348 10.4695652,14.2778261 C12.5952174,14.5652174 14.0234783,15.2147826 14.7204348,16.2121739 Z M4.62391304,17.4943478 C4.62434783,17.4943478 4.62521739,17.4943478 4.62608696,17.4943478 L6.55565217,17.4943478 L6.55565217,18.886087 L4.68913043,18.886087 C4.50173913,18.886087 4.34956522,19.0382609 4.34956522,19.2256522 L4.34956522,34.9730435 C4.34956522,35.1608696 4.50173913,35.3126087 4.68913043,35.3126087 L28.3973913,35.3126087 C28.5847826,35.3126087 28.7365217,35.1604348 28.7365217,34.9730435 L28.7365217,19.2256522 C28.7365217,19.0382609 28.5843478,18.886087 28.3973913,18.886087 L25.4930435,18.886087 L25.4930435,17.4943478 L28.4608696,17.4943478 C28.4617391,17.4943478 28.4621739,17.4943478 28.4626087,17.4943478 C29.4169565,17.4943478 30.1934783,18.2704348 30.193913,19.2247826 C30.193913,19.2247826 30.193913,19.2252174 30.193913,19.2252174 L30.193913,36.7021739 L20.4773913,36.7021739 C20.453913,36.7017391 20.4313043,36.7043478 20.4082609,36.7091304 C20.4008696,36.7104348 20.3947826,36.7134783 20.3873913,36.7152174 C20.3734783,36.7191304 20.3591304,36.7226087 20.3452174,36.7282609 C20.3352174,36.7326087 20.326087,36.7382609 20.3165217,36.7430435 C20.3069565,36.7486957 20.2965217,36.7526087 20.2873913,36.7591304 C20.2686957,36.7713043 20.2513043,36.786087 20.2352174,36.8017391 L19.0773913,37.96 L14.0086957,37.96 L12.8504348,36.8013043 C12.8213043,36.7726087 12.7878261,36.7508696 12.7526087,36.7343478 C12.7486957,36.7326087 12.7452174,36.7304348 12.7413043,36.7286957 C12.723913,36.7213043 12.706087,36.7165217 12.6878261,36.7121739 C12.6843478,36.7113043 12.6808696,36.7095652 12.6778261,36.7091304 C12.6552174,36.7043478 12.6321739,36.7017391 12.6091304,36.7021739 L2.8926087,36.7021739 L2.8926087,19.2252174 C2.8926087,19.2247826 2.8926087,19.2243478 2.8926087,19.2234783 C2.89347826,18.27 3.66956522,17.4943478 4.62391304,17.4943478 Z M31.5230435,37.3808696 C31.84,37.3808696 32.0978261,37.6391304 32.0978261,37.9556522 L32.0978261,38.6434783 C32.0978261,38.9604348 31.84,39.2182609 31.5230435,39.2182609 L1.5626087,39.2182609 C1.24608696,39.2182609 0.988695652,38.96 0.988695652,38.6434783 L0.988695652,37.9556522 C0.988695652,37.6386957 1.24608696,37.3808696 1.5626087,37.3808696 L2.55304348,37.3808696 L12.47,37.3808696 L13.6282609,38.5395652 C13.643913,38.5552174 13.6613043,38.5691304 13.68,38.5817391 C13.6886957,38.5878261 13.6978261,38.5913043 13.7065217,38.596087 C13.7169565,38.6021739 13.7273913,38.6082609 13.7386957,38.6130435 C13.75,38.6178261 13.7617391,38.6204348 13.7734783,38.6234783 C13.7830435,38.6265217 13.7921739,38.63 13.8017391,38.6321739 C13.823913,38.6365217 13.846087,38.6391304 13.8682609,38.6391304 L19.2186957,38.6391304 C19.2408696,38.6391304 19.2630435,38.6365217 19.2847826,38.6321739 C19.2947826,38.6304348 19.303913,38.6265217 19.3134783,38.6234783 C19.3247826,38.62 19.3369565,38.6173913 19.3478261,38.6130435 C19.3586957,38.6086957 19.3691304,38.6021739 19.3791304,38.5965217 C19.3882609,38.5913043 19.3978261,38.5873913 19.4065217,38.5817391 C19.423913,38.5704348 19.44,38.5569565 19.4543478,38.5426087 C19.4556522,38.5413043 19.4569565,38.5404348 19.4582609,38.5395652 L20.6165217,37.3808696 L30.5334783,37.3808696 L31.5230435,37.3808696 Z M33.7930435,20.7695652 C33.7930435,20.7713043 33.7926087,20.7730435 33.7926087,20.7743478 C33.7926087,21.8252174 32.9382609,22.68 31.8882609,22.68 C31.5230435,22.68 31.1752174,22.5786957 30.8730435,22.3852174 L30.8730435,19.226087 C30.8730435,19.226087 30.8730435,19.2256522 30.8730435,19.2252174 C30.8730435,18.4721739 30.5256522,17.7991304 29.9830435,17.3569565 L29.9830435,13.5613043 L33.7930435,13.5613043 L33.7930435,20.7695652 Z" id="Shape" fill-rule="nonzero"></path>
                    <path d="M10.5934783,31.5591304 L22.2704348,31.5591304 C22.4578261,31.5591304 22.6095652,31.4069565 22.6095652,31.2195652 C22.6095652,31.0321739 22.4573913,30.8804348 22.2704348,30.8804348 L10.5934783,30.8804348 C10.406087,30.8804348 10.253913,31.0326087 10.253913,31.2195652 C10.253913,31.4069565 10.406087,31.5591304 10.5934783,31.5591304 Z" id="Path"></path>
                </g>
            </g>
            <g id="noun_Weblinks-Optimization_986342" transform="translate(184.000000, 287.000000)" fill="#111D5F">
                <g id="Group">
                    <path d="M32.9491525,10.3050847 C31.8644068,10.3050847 30.779661,10.6440678 29.8305085,11.2542373 L25.3559322,14.2372881 C23.5254237,15.4576271 22.5762712,17.6271186 22.9152542,19.7288136 L23.0508475,20.5423729 L26.1016949,18.5084746 L26.1694915,18.3050847 C26.3050847,17.6949153 26.6440678,17.220339 27.1864407,16.8813559 L31.6610169,13.8983051 C32.0677966,13.6271186 32.5423729,13.4915254 33.0169492,13.4915254 C33.8305085,13.4915254 34.5762712,13.8983051 35.0508475,14.5762712 C35.7966102,15.7288136 35.5254237,17.220339 34.3728814,17.9661017 L29.8305085,20.9491525 C29.3559322,21.2881356 28.6779661,21.4237288 28.0677966,21.3559322 L27.8644068,21.3559322 L24.8135593,23.3898305 L25.4915254,23.7966102 C26.3728814,24.3389831 27.3898305,24.6101695 28.4067797,24.6101695 C29.4915254,24.6101695 30.5762712,24.2711864 31.5254237,23.6610169 L36,20.6779661 C37.220339,19.8644068 38.1016949,18.5762712 38.3728814,17.0847458 C38.6440678,15.5932203 38.3728814,14.1016949 37.559322,12.8813559 C36.6101695,11.2542373 34.8474576,10.3050847 32.9491525,10.3050847 Z M37.4915254,16.8135593 C37.220339,18.0338983 36.5423729,19.0508475 35.5254237,19.7288136 L31.0508475,22.7118644 C29.8305085,23.5254237 28.2033898,23.7288136 26.8474576,23.1864407 L28.1355932,22.3050847 C28.9491525,22.3728814 29.6949153,22.1694915 30.3728814,21.7627119 L34.8474576,18.779661 C36.4067797,17.6949153 36.8813559,15.5254237 35.7966102,13.9661017 C35.1186441,13.0169492 34.1016949,12.4067797 32.8813559,12.4067797 C32.2033898,12.4067797 31.5254237,12.6101695 30.9830508,13.0169492 L26.5084746,16 C25.8305085,16.4745763 25.3559322,17.0847458 25.1525424,17.8305085 L23.8644068,18.7118644 C23.9322034,17.220339 24.6779661,15.8644068 25.8983051,15.0508475 L30.3728814,12.0677966 C31.1186441,11.5254237 32,11.3220339 32.9491525,11.3220339 C34.5084746,11.3220339 35.9322034,12.0677966 36.8135593,13.3559322 C37.4915254,14.3728814 37.6949153,15.5932203 37.4915254,16.8135593 Z" id="Shape" fill-rule="nonzero"></path>
                    <path d="M22.3728814,25.0169492 L19.3220339,27.0508475 L19.2542373,27.2542373 C19.1186441,27.8644068 18.7118644,28.3389831 18.2372881,28.6779661 L13.7627119,31.6610169 C13.3559322,31.9322034 12.8813559,32.0677966 12.4067797,32.0677966 C11.5932203,32.0677966 10.8474576,31.6610169 10.3728814,30.9830508 C9.62711864,29.8305085 9.89830508,28.3389831 11.0508475,27.5932203 L15.5254237,24.6101695 C16,24.2711864 16.6779661,24.1355932 17.2881356,24.2033898 L17.4915254,24.2033898 L20.5423729,22.1694915 L19.8644068,21.7627119 C18.0338983,20.6779661 15.5932203,20.6779661 13.8305085,21.8983051 L9.3559322,24.8813559 C6.77966102,26.5762712 6.10169492,30.1016949 7.79661017,32.6779661 C8.81355932,34.2372881 10.5762712,35.1864407 12.4745763,35.1864407 C13.559322,35.1864407 14.6440678,34.8474576 15.5932203,34.2372881 L20.0677966,31.2542373 C21.8983051,30.0338983 22.8474576,27.8644068 22.5084746,25.7627119 L22.3728814,25.0169492 Z M19.5254237,30.440678 L15.0508475,33.4237288 C14.3050847,33.9661017 13.4237288,34.1694915 12.4745763,34.1694915 C10.9152542,34.1694915 9.49152542,33.4237288 8.61016949,32.1355932 C7.18644068,30.0338983 7.79661017,27.1186441 9.89830508,25.7627119 L14.3728814,22.779661 C15.1186441,22.3050847 16,22.0338983 16.9491525,22.0338983 C17.4915254,22.0338983 18.0338983,22.1016949 18.5762712,22.3050847 L17.2881356,23.1864407 C16.4745763,23.1186441 15.7288136,23.3220339 15.0508475,23.7288136 L10.5762712,26.7118644 C9.01694915,27.7966102 8.54237288,29.9661017 9.62711864,31.5254237 C10.3050847,32.4745763 11.3220339,33.0847458 12.5423729,33.0847458 C13.220339,33.0847458 13.8983051,32.8813559 14.440678,32.4745763 L18.9152542,29.4915254 C19.5932203,29.0169492 20.0677966,28.4067797 20.2711864,27.6610169 L21.559322,26.779661 C21.4915254,28.2711864 20.7457627,29.6271186 19.5254237,30.440678 Z" id="Shape" fill-rule="nonzero"></path>
                    <polygon id="Rectangle" transform="translate(22.727041, 22.789810) rotate(146.267025) translate(-22.727041, -22.789810) " points="13.9138487 22.2813568 31.5402327 22.2813568 31.5402327 23.2982636 13.9138487 23.2982636"></polygon>
                    <path d="M42.3728814,0.474576271 L3.05084746,0.474576271 C1.62711864,0.474576271 0.474576271,1.62711864 0.474576271,3.05084746 L0.474576271,37.0847458 C0.474576271,38.5084746 1.62711864,39.6610169 3.05084746,39.6610169 L42.3728814,39.6610169 C43.7966102,39.6610169 44.9491525,38.5084746 44.9491525,37.0847458 L44.9491525,2.98305085 C44.9491525,1.55932203 43.7966102,0.474576271 42.3728814,0.474576271 Z M3.05084746,1.49152542 L42.3728814,1.49152542 C43.1864407,1.49152542 43.9322034,2.16949153 43.9322034,3.05084746 L43.9322034,5.89830508 L1.55932203,5.89830508 L1.55932203,2.98305085 C1.55932203,2.16949153 2.23728814,1.49152542 3.05084746,1.49152542 Z M42.3728814,38.5084746 L3.05084746,38.5084746 C2.23728814,38.5084746 1.49152542,37.8305085 1.49152542,36.9491525 L1.49152542,6.84745763 L43.8644068,6.84745763 L43.8644068,36.9491525 C43.9322034,37.8305085 43.1864407,38.5084746 42.3728814,38.5084746 Z" id="Shape" fill-rule="nonzero"></path>
                    <rect id="Rectangle" x="37.8983051" y="3.18644068" width="1.01694915" height="1.01694915"></rect>
                    <rect id="Rectangle" x="40.4745763" y="3.18644068" width="1.01694915" height="1.01694915"></rect>
                    <rect id="Rectangle" x="35.3220339" y="3.18644068" width="1.01694915" height="1.01694915"></rect>
                    <path d="M4.54237288,4.20338983 L31.8644068,4.20338983 C32.1355932,4.20338983 32.4067797,4 32.4067797,3.66101695 C32.4067797,3.38983051 32.2033898,3.11864407 31.8644068,3.11864407 L4.54237288,3.11864407 C4.27118644,3.18644068 4,3.38983051 4,3.66101695 C4,4 4.27118644,4.20338983 4.54237288,4.20338983 Z" id="Path"></path>
                </g>
            </g>
            <g id="noun_Search-graph_981147" transform="translate(111.000000, 403.000000)" fill="#111D5F">
                <g id="Group">
                    <path d="M23.8769231,18.0923077 C23.5692308,17.8461538 23.3846154,17.4769231 23.3846154,17.1076923 L22.4615385,17.1076923 C22.4615385,17.7230769 22.7692308,18.3384615 23.2615385,18.7692308 C23.6307692,19.0769231 24.1230769,19.3230769 24.6153846,19.3846154 L24.6153846,20.9230769 L25.5384615,20.9230769 L25.5384615,19.3846154 C26.0307692,19.3230769 26.5230769,19.0769231 26.8923077,18.7692308 C27.3846154,18.3384615 27.6923077,17.7230769 27.6923077,17.1076923 C27.6923077,16.4923077 27.3846154,15.8769231 26.8923077,15.4461538 C26.4,15.0153846 25.7230769,14.7692308 25.0461538,14.7692308 C24.5538462,14.7692308 24.1230769,14.6461538 23.8153846,14.3384615 C23.5076923,14.0923077 23.3230769,13.7230769 23.3230769,13.3538462 C23.3230769,12.9846154 23.5076923,12.6769231 23.8153846,12.3692308 C24.4923077,11.8153846 25.6,11.8153846 26.2769231,12.3692308 C26.5846154,12.6153846 26.7692308,12.9846154 26.7692308,13.3538462 L27.6923077,13.3538462 C27.6923077,12.7384615 27.3846154,12.1230769 26.8923077,11.6923077 C26.5230769,11.3846154 26.0307692,11.1384615 25.5384615,11.0769231 L25.5384615,9.53846154 L24.6153846,9.53846154 L24.6153846,11.0769231 C24.1230769,11.1384615 23.6307692,11.3230769 23.2615385,11.6923077 C22.7692308,12.1230769 22.4615385,12.7384615 22.4615385,13.3538462 C22.4615385,13.9692308 22.7692308,14.5846154 23.2615385,15.0153846 C23.7538462,15.4461538 24.4307692,15.6923077 25.1076923,15.6923077 C25.6,15.6923077 26.0307692,15.8769231 26.3384615,16.1230769 C26.6461538,16.3692308 26.8307692,16.7384615 26.8307692,17.1076923 C26.8307692,17.4769231 26.6461538,17.7846154 26.3384615,18.0923077 C25.7230769,18.7076923 24.5538462,18.7076923 23.8769231,18.0923077 Z" id="Path"></path>
                    <path d="M17.7846154,22.6461538 L13.6,22.6461538 L13.6,32.0615385 L17.7846154,32.0615385 L17.7846154,22.6461538 Z M16.8615385,31.1384615 L14.5846154,31.1384615 L14.5846154,23.5692308 L16.8615385,23.5692308 L16.8615385,31.1384615 Z" id="Shape" fill-rule="nonzero"></path>
                    <path d="M12.1230769,25.6615385 L7.93846154,25.6615385 L7.93846154,32.1230769 L12.1230769,32.1230769 L12.1230769,25.6615385 Z M11.1384615,31.1384615 L8.86153846,31.1384615 L8.86153846,26.5846154 L11.1384615,26.5846154 L11.1384615,31.1384615 Z" id="Shape" fill-rule="nonzero"></path>
                    <polygon id="Path" points="40 36.7384615 35.5692308 36.7384615 35.5692308 35.0769231 34.6461538 35.0769231 34.6461538 36.7384615 30.0307692 36.7384615 30.0307692 35.0769231 29.1076923 35.0769231 29.1076923 36.7384615 24.5538462 36.7384615 24.5538462 35.0769231 23.6307692 35.0769231 23.6307692 36.7384615 19.0153846 36.7384615 19.0153846 35.0769231 18.0923077 35.0769231 18.0923077 36.7384615 13.5384615 36.7384615 13.5384615 35.0769231 12.6153846 35.0769231 12.6153846 36.7384615 8 36.7384615 8 35.0769231 7.07692308 35.0769231 7.07692308 36.7384615 3.13846154 36.7384615 3.13846154 32.5538462 4.8 32.5538462 4.8 31.6307692 3.13846154 31.6307692 3.13846154 27.0769231 4.8 27.0769231 4.8 26.1538462 3.13846154 26.1538462 3.13846154 21.6 4.8 21.6 4.8 20.6153846 3.13846154 20.6153846 3.13846154 16.0615385 4.8 16.0615385 4.8 15.1384615 3.13846154 15.1384615 3.13846154 10.5846154 4.8 10.5846154 4.8 9.6 3.13846154 9.6 3.13846154 5.04615385 4.8 5.04615385 4.8 4.12307692 3.13846154 4.12307692 3.13846154 0.123076923 2.15384615 0.123076923 2.15384615 36.7384615 0 36.7384615 0 37.7230769 2.15384615 37.7230769 2.15384615 39.8769231 3.13846154 39.8769231 3.13846154 37.7230769 40 37.7230769"></polygon>
                    <path d="M23.0153846,24.3076923 C25.1076923,24.8 27.3230769,24.5538462 29.2923077,23.6923077 L34.0923077,31.5692308 C35.4461538,33.5384615 37.2307692,32.4923077 37.5384615,32.3076923 C38.0923077,31.9384615 38.4615385,31.3230769 38.5230769,30.6461538 C38.5846154,29.9692308 38.4,29.2923077 37.9692308,28.8 L32.1230769,21.6615385 C33.4153846,20.3076923 34.3384615,18.6461538 34.7076923,16.8 C35.6307692,11.9384615 32.8615385,7.2 28.1846154,5.72307692 C27.2,5.41538462 26.2153846,5.29230769 25.2307692,5.29230769 C20.3076923,5.29230769 16.1846154,8.98461538 15.6307692,13.9692308 C15.5076923,15.2615385 15.6307692,16.6153846 16,17.8461538 C17.0461538,21.0461538 19.6923077,23.5692308 23.0153846,24.3076923 Z M16.5538462,14.0307692 C17.0461538,9.6 20.7384615,6.21538462 25.2307692,6.21538462 C26.1538462,6.21538462 27.0153846,6.33846154 27.8769231,6.64615385 C32,7.93846154 34.5846154,12.3076923 33.7846154,16.6153846 C33.4153846,18.4615385 32.5538462,20.0615385 31.2,21.2923077 L30.8923077,21.6 L37.2923077,29.4153846 C38.0307692,30.5846154 37.3538462,31.3230769 36.9846154,31.5692308 C36.8,31.6923077 35.7538462,32.2461538 34.8923077,31.1384615 L29.6,22.5230769 L29.2307692,22.7076923 C27.3846154,23.6307692 25.2307692,23.9384615 23.2,23.4461538 C20.2461538,22.7692308 17.8461538,20.4923077 16.8615385,17.5384615 C16.5538462,16.3692308 16.4307692,15.2 16.5538462,14.0307692 Z" id="Shape" fill-rule="nonzero"></path>
                    <polygon id="Path" points="24.9846154 25.3538462 24.9846154 32.0615385 29.1692308 32.0615385 29.1692308 24.8 28.1846154 24.8 28.1846154 31.1384615 25.9076923 31.1384615 25.9076923 25.3538462"></polygon>
                    <polygon id="Path" points="19.3230769 23.8153846 19.3230769 32.0615385 23.4461538 32.0615385 23.4461538 25.1076923 22.5230769 25.1076923 22.5230769 31.1384615 20.2461538 31.1384615 20.2461538 23.8153846"></polygon>
                </g>
            </g>
            <g id="Group-16" transform="translate(180.000000, 428.000000)">
                <g id="Group-15">
                    <g id="Group-4">
                        <g id="Group-2">
                            <ellipse id="Oval" fill="#111D5F" cx="72.5" cy="75.41011" rx="72.5" ry="75.41011"></ellipse>
                            <ellipse id="Oval" fill="#FFF60F" cx="72.8302961" cy="70.2835455" rx="66.5546697" ry="66.6453385"></ellipse>
                        </g>
                    </g>
                </g>
                <text id="Detailed-Performance" font-family="Roboto-Bold, Roboto" font-size="11" font-weight="bold" fill="#111D5F">
                    <tspan x="52.6569824" y="97">Detailed </tspan>
                    <tspan x="40.7546387" y="110">Performance </tspan>
                    <tspan x="51.9372559" y="123">Analysis</tspan>
                </text>
            </g>
            <g id="noun_Business-paper_2790066" transform="translate(237.000000, 463.000000)" fill="#111D5F">
                <g id="Group">
                    <path d="M27.6313939,2.16841212 L11.3287152,2.16841212 L11.3287152,5.50086061 L27.6313939,5.50086061 L27.6313939,2.16841212 Z M27.0253333,4.8948 L11.9347758,4.8948 L11.9347758,2.77447273 L27.0253333,2.77447273 L27.0253333,4.8948 Z" id="Shape" fill-rule="nonzero"></path>
                    <path d="M3.08534545,17.6407152 C2.7542,18.1112424 2.57901212,18.6696545 2.57901212,19.255297 C2.57901212,19.9004182 2.79178182,20.5073697 3.19395152,21.0107394 L3.30433333,21.1489394 L4.10452121,20.2762485 L4.03852727,20.1774061 C3.85031515,19.8950909 3.75472727,19.5849576 3.75472727,19.255297 C3.75472727,18.9581879 3.82901212,18.6847455 3.97549697,18.4429758 L4.03704848,18.3414727 L3.18921212,17.4936364 L3.08534545,17.6407152 Z M3.65767273,18.3905939 C3.52272727,18.6521939 3.45169697,18.9487152 3.45169697,19.255297 C3.45169697,19.6065636 3.54284848,19.9385939 3.72277576,20.2442909 L3.32445455,20.6787152 C3.03444242,20.2596788 2.88204242,19.771103 2.88204242,19.255303 C2.88204242,18.7942485 3.00337576,18.3524242 3.23419394,17.9671273 L3.65767273,18.3905939 Z" id="Shape" fill-rule="nonzero"></path>
                    <path d="M5.36428485,29.2618061 C6.9182,29.2618061 8.18240606,27.9976 8.18240606,26.4374667 L8.18240606,26.2859515 L5.5158,26.2859515 L5.5158,23.6193455 L5.36428485,23.6193455 C3.8103697,23.6193455 2.54616364,24.8862121 2.54616364,26.4436848 C2.54616364,27.9976 3.8103697,29.2618061 5.36428485,29.2618061 Z M5.2127697,23.9268182 L5.2127697,26.5889879 L7.87523636,26.5889879 C7.79977576,27.9085333 6.70247273,28.9587818 5.36428485,28.9587818 C3.97756364,28.9587818 2.84919394,27.8304061 2.84919394,26.4436909 C2.84919394,25.1043152 3.89618788,24.0058303 5.2127697,23.9268182 Z" id="Shape" fill-rule="nonzero"></path>
                    <path d="M5.97034545,23.0132848 L5.8188303,23.0132848 L5.8188303,25.9829212 L8.78906061,25.9829212 L8.78846667,25.8308121 C8.78225455,24.2771939 7.51805455,23.0132848 5.97034545,23.0132848 Z M6.12186061,25.679897 L6.12186061,23.3207576 C7.38310303,23.3968121 8.39961818,24.4136182 8.48040606,25.679897 L6.12186061,25.679897 Z" id="Shape" fill-rule="nonzero"></path>
                    <path d="M2.7349697,35.0646606 L11.3654121,35.0646606 L11.3654121,31.8165515 L2.7349697,31.8165515 L2.7349697,35.0646606 Z M3.21969697,32.3012848 L10.8806848,32.3012848 L10.8806848,34.5799333 L3.21969697,34.5799333 L3.21969697,32.3012848 Z" id="Shape" fill-rule="nonzero"></path>
                    <path d="M12.0990182,35.0646606 L18.8606788,35.0646606 L18.8606788,31.8165515 L12.0990182,31.8165515 L12.0990182,35.0646606 Z M12.5837455,32.3012848 L18.3759394,32.3012848 L18.3759394,34.5799333 L12.5837455,34.5799333 L12.5837455,32.3012848 Z" id="Shape" fill-rule="nonzero"></path>
                    <path d="M19.5942848,35.0646606 L27.2904848,35.0646606 L27.2904848,31.8165515 L19.5942848,31.8165515 L19.5942848,35.0646606 Z M20.0790121,32.3012848 L26.8057515,32.3012848 L26.8057515,34.5799333 L20.0790121,34.5799333 L20.0790121,32.3012848 Z" id="Shape" fill-rule="nonzero"></path>
                    <path d="M5.54243636,15.4203636 C7.1946,15.4203636 8.53900606,14.0759636 8.53900606,12.4237939 C8.53900606,10.7716242 7.19460606,9.42752121 5.54243636,9.42752121 C3.89026667,9.42752121 2.54616364,10.7716242 2.54616364,12.4237939 C2.54616364,14.0759636 3.89027273,15.4203636 5.54243636,15.4203636 Z M5.54243636,9.73055758 C7.02769697,9.73055758 8.23597576,10.9388303 8.23597576,12.4238 C8.23597576,13.9090606 7.02770303,15.1173394 5.54243636,15.1173394 C4.05746667,15.1173394 2.84919394,13.9090667 2.84919394,12.4238 C2.84919394,10.9388303 4.05746667,9.73055758 5.54243636,9.73055758 Z" id="Shape" fill-rule="nonzero"></path>
                    <path d="M4.59879394,13.1281091 L4.24523636,13.5490667 C4.59713333,13.8557212 4.99389697,14.0316485 5.43593939,14.0768545 L5.43593939,14.4301212 L5.74592121,14.4301212 L5.74592121,14.0815939 C6.0750303,14.0654667 6.33944242,13.968697 6.53952727,13.7909939 C6.73957576,13.6137333 6.83978182,13.3838727 6.83978182,13.1013333 C6.83978182,12.8191636 6.75266667,12.6037333 6.57840606,12.4551758 C6.40413939,12.3067697 6.13133333,12.1891394 5.76035152,12.1019879 L5.74592727,12.1019879 L5.74592727,11.1917879 C5.99428485,11.2276667 6.22518182,11.3211818 6.43799394,11.4726242 L6.75267879,11.0272545 C6.43629697,10.8110788 6.10086061,10.6901212 5.74593333,10.664297 L5.74593333,10.4176424 L5.43593939,10.4176424 L5.43593939,10.6596364 C5.12292121,10.6756909 4.86890303,10.7725333 4.67384848,10.9497939 C4.47849697,11.127497 4.38095152,11.3556606 4.38095152,11.6348667 C4.38095152,11.914 4.46573333,12.1244788 4.6349697,12.2665273 C4.80457576,12.4086485 5.07131515,12.5229515 5.43593333,12.610097 L5.43593333,13.5490788 C5.14873939,13.5041576 4.86990303,13.3637394 4.59879394,13.1281091 Z M5.74592121,12.692503 C5.93930909,12.750503 6.07166667,12.8128 6.14272121,12.8787879 C6.21377576,12.9447758 6.24929091,13.0345939 6.24929091,13.1471939 C6.24929091,13.2605333 6.20404848,13.3540485 6.1135697,13.4280303 C6.02342424,13.5024545 5.90075758,13.5477333 5.74591515,13.5638606 L5.74591515,12.692503 L5.74592121,12.692503 Z M5.06832121,11.8332 C5.00362424,11.7702424 4.97144242,11.6847152 4.97144242,11.5768545 C4.97144242,11.4685455 5.01268485,11.3784364 5.0947697,11.3057091 C5.17722424,11.2329818 5.29082424,11.1904424 5.43593939,11.1773515 L5.43593939,12.0148303 C5.25530909,11.9565273 5.13264848,11.8962303 5.06832121,11.8332 Z" id="Shape" fill-rule="nonzero"></path>
                    <path d="M0.665169697,8.02467879 L0.576466667,8.11330909 L0.576466667,36.3401091 C0.576466667,36.9586 0.939054545,37.4894909 1.46010909,37.7451758 L1.46010909,38.0819394 C1.46010909,38.9475273 2.16412121,39.6515394 3.02970909,39.6515394 L29.3690788,39.6515394 C30.2346667,39.6515394 30.9386788,38.9475273 30.9386788,38.0819394 L30.9386788,3.66373939 C30.9386788,2.82530303 30.2764667,2.14444242 29.4483879,2.10212727 L29.4483879,1.91805455 C29.4483879,1.05246667 28.7443758,0.348454545 27.8787879,0.348454545 L8.34783636,0.348454545 L4.46215152,4.23088485 L0.665248485,8.02453333 L0.665169697,8.02467879 Z M8.17027879,1.38272121 L8.17027879,6.97221212 C8.17027879,7.5034 7.73792727,7.93575152 7.20644242,7.93575152 L1.61162424,7.93575152 L8.17027879,1.38272121 Z M30.3326242,3.66373939 L30.3326242,38.0819455 C30.3326242,38.6131333 29.9002727,39.0454848 29.3690848,39.0454848 L3.02970909,39.0454848 C2.49852121,39.0454848 2.0661697,38.6131333 2.0661697,38.0819455 L2.0661697,37.9123758 L27.8539273,37.9123758 C27.9623091,37.9123758 28.0681818,37.9012788 28.1704606,37.8802667 C28.8968182,37.7428848 29.4483879,37.1058242 29.4483879,36.3401091 L29.4483879,2.70552121 C29.9424061,2.74635758 30.3326242,3.15925455 30.3326242,3.66373939 Z M28.8423273,1.91805455 C28.8153152,39.3252606 28.8176061,36.1505212 28.8174667,36.3424727 C28.8174667,36.8072303 28.4868061,37.1961515 28.0485333,37.2864848 C27.9931939,37.2964 27.936897,37.3036485 27.8787818,37.3036485 L2.14607273,37.3036485 C1.61488485,37.3036485 1.18253333,36.871297 1.18253333,36.3401091 L1.18253333,8.54181212 L7.20644242,8.54181212 C8.0720303,8.54181212 8.77633939,7.8378 8.77633939,6.97221212 L8.77633939,0.954515152 L27.8787879,0.954515152 C28.4099758,0.954515152 28.8423273,1.38686667 28.8423273,1.91805455 Z" id="Shape" fill-rule="nonzero"></path>
                    <path d="M4.29953939,18.0002667 C4.59398788,17.7463576 4.97218182,17.6066848 5.36429091,17.6066848 C5.82801212,17.6066848 6.25562424,17.7919333 6.56842424,18.1281091 L6.64832727,18.2139273 L7.69206667,17.6478182 L7.57990909,17.5066606 C7.03717576,16.8230667 6.22958788,16.4309636 5.36429697,16.4309636 C4.66353939,16.4309636 3.99444848,16.6881273 3.48071515,17.155097 L3.36293333,17.2619273 L4.19301212,18.0920061 L4.29953939,18.0002667 Z M5.36428485,16.7339879 C6.07628485,16.7339879 6.74449091,17.0316909 7.22478182,17.5566667 L6.70720606,17.837503 C6.34558182,17.4924485 5.87327879,17.3036485 5.36428485,17.3036485 C4.94702424,17.3036485 4.54308485,17.4374061 4.21193939,17.6824364 L3.8056303,17.2761273 C4.24538182,16.9254545 4.79284848,16.7339879 5.36428485,16.7339879 Z" id="Shape" fill-rule="nonzero"></path>
                    <path d="M7.413,21.1785333 C7.90927273,20.6624364 8.18241212,19.9770667 8.18241212,19.2490848 C8.18241212,18.8341939 8.09422424,18.4335091 7.91992121,18.0582727 L7.85244848,17.9126788 L6.82024848,18.4654727 L6.87292121,18.5924242 C6.96169697,18.8051939 7.00667879,19.0262545 7.00667879,19.2490909 C7.00667879,19.6518485 6.86315152,20.0359636 6.60214545,20.3307091 L6.51188485,20.4328061 L7.30112727,21.2948424 L7.413,21.1785333 Z M7.30972121,19.2490848 C7.30972121,19.0309879 7.27332121,18.8149576 7.20170909,18.6048485 L7.70833939,18.3334848 C7.82197576,18.6252727 7.87938788,18.9324424 7.87938788,19.2490848 C7.87938788,19.8433091 7.67578788,20.4049818 7.30292121,20.8479818 L6.91614545,20.4256909 C7.17092727,20.0918848 7.30972121,19.6790667 7.30972121,19.2490848 Z" id="Shape" fill-rule="nonzero"></path>
                    <path d="M5.36428485,22.0672061 C5.92861818,22.0672061 6.47135152,21.9032606 6.93359394,21.5931273 L7.08007879,21.4948788 L6.27989091,20.6218909 L6.17513333,20.6804848 C5.61701212,20.9926909 4.89228485,20.9465212 4.3874303,20.5754303 L4.27852727,20.4955273 L3.48129697,21.3578606 L3.61002424,21.4590667 C4.11606061,21.857097 4.72241818,22.0672061 5.36428485,22.0672061 Z M4.32025455,20.8965152 C4.87215758,21.2448242 5.61346061,21.2898061 6.21567273,21.0006848 L6.61399394,21.4351091 C5.79634545,21.9023818 4.71650303,21.8603576 3.92992727,21.3188121 L4.32025455,20.8965152 Z" id="Shape" fill-rule="nonzero"></path>
                    <rect id="Rectangle" x="9.95501818" y="10.3750909" width="8.02438182" height="1"></rect>
                    <rect id="Rectangle" x="9.95501818" y="12.1814364" width="9.23650303" height="1"></rect>
                    <rect id="Rectangle" x="9.95501818" y="13.9877758" width="9.23650303" height="1"></rect>
                    <rect id="Rectangle" x="9.95501818" y="17.5489758" width="4.99407879" height="1"></rect>
                    <rect id="Rectangle" x="9.95501818" y="19.3553212" width="7.41832121" height="1"></rect>
                    <rect id="Rectangle" x="9.95501818" y="21.1613697" width="9.23650303" height="1"></rect>
                    <rect id="Rectangle" x="9.95501818" y="24.7225697" width="6.00911515" height="1"></rect>
                    <rect id="Rectangle" x="9.95501818" y="26.5289152" width="9.23650303" height="1"></rect>
                    <rect id="Rectangle" x="9.95501818" y="28.3352545" width="9.23650303" height="1"></rect>
                    <rect id="Rectangle" x="17.1303879" y="3.59241818" width="8.62245455" height="1"></rect>
                    <rect id="Rectangle" x="13.3709152" y="3.59241818" width="2.31326667" height="1"></rect>
                    <path d="M21.8522121,26.1397697 L21.8522121,28.4873697 L23.881097,29.6583576 L25.9099818,28.4873697 L25.9099818,26.1397697 L23.881097,24.9684848 L21.8522121,26.1397697 Z M25.4252485,28.2074182 L23.881097,29.0984545 L22.3369455,28.2074182 L22.3369455,26.4197152 L23.881097,25.5283818 L25.4252485,26.4197152 L25.4252485,28.2074182 Z" id="Shape" fill-rule="nonzero"></path>
                    <path d="M21.7915455,23.1929152 L23.8810909,24.3988242 L25.9706364,23.1929152 L25.9706364,20.7757758 L23.8810909,19.5695758 L21.7915455,20.7757758 L21.7915455,23.1929152 Z M22.3976061,21.1255636 L23.8810909,20.2691455 L25.3645758,21.1255636 L25.3645758,22.8431273 L23.8810909,23.6992485 L22.3976061,22.8431273 L22.3976061,21.1255636 Z" id="Shape" fill-rule="nonzero"></path>
                    <path d="M21.7915455,17.8638424 L23.8810909,19.0697515 L25.9706364,17.8638424 L25.9706364,15.4464061 L23.8810909,14.240497 L21.7915455,15.4464061 L21.7915455,17.8638424 Z M22.3976061,15.7961939 L23.8810909,14.9400727 L25.3645758,15.7961939 L25.3645758,17.5140545 L23.8810909,18.3701758 L22.3976061,17.5140545 L22.3976061,15.7961939 Z" id="Shape" fill-rule="nonzero"></path>
                    <path d="M25.9706424,12.5347697 L25.9706424,10.1173333 L23.881097,8.91142424 L21.7915515,10.1173333 L21.7915515,12.5347697 L23.881097,13.7406788 L25.9706424,12.5347697 Z M22.3976061,10.4671212 L23.8810909,9.611 L25.3645758,10.4671212 L25.3645758,12.1849818 L23.8810909,13.041103 L22.3976061,12.1849818 L22.3976061,10.4671212 Z" id="Shape" fill-rule="nonzero"></path>
                </g>
            </g>
        </g>
    </g>
</svg>