<?xml version="1.0" encoding="UTF-8"?>
<svg width="99px" height="99px" viewBox="0 0 99 99" version="1.1" xmlns="http://www.w3.org/2000/svg" xmlns:xlink="http://www.w3.org/1999/xlink">
    <!-- Generator: Sketch 52.3 (67297) - http://www.bohemiancoding.com/sketch -->
    <title>Group 16</title>
    <desc>Created with Sketch.</desc>
    <defs>
        <filter x="-18.8%" y="-18.8%" width="137.6%" height="137.6%" filterUnits="objectBoundingBox" id="filter-1">
            <feOffset dx="0" dy="2" in="SourceAlpha" result="shadowOffsetOuter1"></feOffset>
            <feGaussianBlur stdDeviation="2" in="shadowOffsetOuter1" result="shadowBlurOuter1"></feGaussianBlur>
            <feColorMatrix values="0 0 0 0 0   0 0 0 0 0   0 0 0 0 0  0 0 0 0.5 0" type="matrix" in="shadowBlurOuter1" result="shadowMatrixOuter1"></feColorMatrix>
            <feMerge>
                <feMergeNode in="shadowMatrixOuter1"></feMergeNode>
                <feMergeNode in="SourceGraphic"></feMergeNode>
            </feMerge>
        </filter>
        <circle id="path-2" cx="42.5" cy="42.5" r="42.5"></circle>
        <filter x="-7.1%" y="-7.1%" width="114.1%" height="114.1%" filterUnits="objectBoundingBox" id="filter-4">
            <feOffset dx="0" dy="0" in="SourceAlpha" result="shadowOffsetOuter1"></feOffset>
            <feGaussianBlur stdDeviation="2" in="shadowOffsetOuter1" result="shadowBlurOuter1"></feGaussianBlur>
            <feColorMatrix values="0 0 0 0 0   0 0 0 0 0   0 0 0 0 0  0 0 0 0.5 0" type="matrix" in="shadowBlurOuter1"></feColorMatrix>
        </filter>
        <filter x="-14.8%" y="-14.8%" width="129.6%" height="129.6%" filterUnits="objectBoundingBox" id="filter-5">
            <feOffset dx="0" dy="0" in="SourceAlpha" result="shadowOffsetOuter1"></feOffset>
            <feGaussianBlur stdDeviation="2" in="shadowOffsetOuter1" result="shadowBlurOuter1"></feGaussianBlur>
            <feColorMatrix values="0 0 0 0 0   0 0 0 0 0   0 0 0 0 0  0 0 0 0.5 0" type="matrix" in="shadowBlurOuter1" result="shadowMatrixOuter1"></feColorMatrix>
            <feMerge>
                <feMergeNode in="shadowMatrixOuter1"></feMergeNode>
                <feMergeNode in="SourceGraphic"></feMergeNode>
            </feMerge>
        </filter>
    </defs>
    <g id="Page-1" stroke="none" stroke-width="1" fill="none" fill-rule="evenodd">
        <g id="Artboard" transform="translate(-195.000000, -99.000000)">
            <g id="Group-16" transform="translate(202.000000, 104.000000)">
                <g id="Group-15">
                    <g id="Group-14">
                        <g id="Group-13">
                            <g id="Group-12">
                                <g id="Group-11">
                                    <g id="Group-10">
                                        <g id="Group-5">
                                            <g id="Group">
                                                <g id="Group-2" filter="url(#filter-1)">
                                                    <mask id="mask-3" fill="white">
                                                        <use xlink:href="#path-2"></use>
                                                    </mask>
                                                    <g id="Mask">
                                                        <use fill="black" fill-opacity="1" filter="url(#filter-4)" xlink:href="#path-2"></use>
                                                        <use fill="#FFFFFF" fill-rule="evenodd" xlink:href="#path-2"></use>
                                                    </g>
                                                </g>
                                            </g>
                                        </g>
                                    </g>
                                </g>
                            </g>
                        </g>
                    </g>
                </g>
                <g id="web-design" filter="url(#filter-5)" transform="translate(16.000000, 17.000000)">
                    <polygon id="Path" fill="#757C80" points="34.2 53.1 19.8 53.1 21.6 42.3 21.6 38.7 32.4 38.7 32.4 42.3"></polygon>
                    <rect id="Rectangle" fill="#B5B8B9" x="0.9" y="0.9" width="52.2" height="41.4" rx="16"></rect>
                    <path d="M2.7,0.9 L51.3,0.9 C52.2941125,0.9 53.1,1.70588745 53.1,2.7 L53.1,8.1 L0.9,8.1 L0.9,2.7 C0.9,1.70588745 1.70588745,0.9 2.7,0.9 Z" id="Path" fill="#2B70A8"></path>
                    <polygon id="Path" fill="#FAE8D8" points="0.9 8.1 53.1 8.1 53.1 33.3 0.9 33.3"></polygon>
                    <polygon id="Path" fill="#FCB442" points="8.1 15.3 18.9 15.3 18.9 26.1 8.1 26.1"></polygon>
                    <path d="M42.286644,30.8484716 L45.8861003,30.8484716 L45.8861003,51.9445479 C45.8861003,52.9385103 45.0803346,53.7442761 44.0863721,53.7442761 C43.0924097,53.7442761 42.286644,52.9385103 42.286644,51.9445479 L42.286644,30.8484716 Z" id="Path" fill="#2B70A8" transform="translate(44.086372, 42.296374) rotate(-45.000000) translate(-44.086372, -42.296374) "></path>
                    <polygon id="Path" fill="#FCB442" transform="translate(35.699288, 33.907394) rotate(-45.000000) translate(-35.699288, -33.907394) " points="33.8995598 28.5947654 37.4990162 28.5947654 37.4990162 39.2200232 33.8995598 39.2200232"></polygon>
                    <polygon id="Path" fill="#FCB442" points="26.1 11.7 49.5 11.7 49.5 17.1 26.1 17.1"></polygon>
                    <path d="M26.1,24.3 L27.51345,30.4248375 C27.8176894,31.7432163 28.8354618,32.7796762 30.1480875,33.10785 L33.1003125,33.8459625 L35.6459625,31.3003125 L34.90785,28.3480875 C34.5796762,27.0354618 33.5432163,26.0176894 32.2248375,25.71345 L26.1,24.3 Z" id="Path" fill="#976048"></path>
                    <path d="M54,40.5 L54,2.7 C53.9982642,1.20955077 52.7904492,0.00173582152 51.3,0 L2.7,0 C1.20955077,0.00173582152 0.00173582152,1.20955077 0,2.7 L0,40.5 C0.00173582152,41.9904492 1.20955077,43.1982642 2.7,43.2 L20.53755,43.2 L19.0375875,52.2 L15.3,52.2 C14.8029437,52.2 14.4,52.6029437 14.4,53.1 C14.4,53.5970563 14.8029437,54 15.3,54 L38.7,54 C39.1970563,54 39.6,53.5970563 39.6,53.1 C39.6,52.6029437 39.1970563,52.2 38.7,52.2 L34.9624125,52.2 L33.46245,43.2 L41.1814125,43.2 L49.010175,51.0287625 C50.064589,52.0831687 51.7741235,52.0831687 52.8285375,51.0287625 C53.8812075,49.97363 53.8812075,48.2655325 52.8285375,47.2104 L48.8181375,43.2 L51.3,43.2 C52.7904492,43.1982642 53.9982642,41.9904492 54,40.5 Z M34.3733625,33.8463 L35.646075,32.573475 L39.464325,36.391725 L38.1915,37.665 L34.3733625,33.8463 Z M32.8248,32.849325 L30.36645,32.2347375 C29.3805345,31.991163 28.6160691,31.212727 28.3903875,30.2225625 L27.3007125,25.5007125 L32.0225625,26.5903875 C33.012727,26.8160691 33.791163,27.5805345 34.0347375,28.56645 L34.649325,31.0248 L32.8248,32.849325 Z M36.45855,30.8406375 L35.78085,28.1293875 C35.3747398,26.4862226 34.0772874,25.2121846 32.427,24.8360625 L26.3025,23.4230625 C26.0001359,23.3532865 25.683154,23.4441958 25.4637312,23.6636187 C25.2443083,23.8830415 25.153399,24.2000234 25.223175,24.5023875 L26.636625,30.627225 C26.7854775,31.2734764 27.0753281,31.8788396 27.4854375,32.4 L1.8,32.4 L1.8,9 L52.2,9 L52.2,32.4 L38.0181375,32.4 L36.45855,30.8406375 Z M2.7,1.8 L51.3,1.8 C51.796825,1.80055799 52.199442,2.20317503 52.2,2.7 L52.2,7.2 L1.8,7.2 L1.8,2.7 C1.80055799,2.20317503 2.20317503,1.80055799 2.7,1.8 Z M33.13755,52.2 L20.86245,52.2 L22.3624125,43.2 L31.6375875,43.2 L33.13755,52.2 Z M2.7,41.4 C2.20317503,41.399442 1.80055799,40.996825 1.8,40.5 L1.8,34.2 L30.80565,34.2 L32.640075,34.65855 L39.3814125,41.4 L2.7,41.4 Z M51.5557125,49.7559375 C51.3869284,49.9247303 51.1580029,50.0195578 50.9193,50.0195578 C50.6805971,50.0195578 50.4516716,49.9247303 50.2828875,49.7559375 L39.464325,38.937375 L40.73715,37.665 L51.5557125,48.4835625 C51.906287,48.8352428 51.906287,49.4042572 51.5557125,49.7559375 Z M39.8181375,34.2 L52.2,34.2 L52.2,40.5 C52.199442,40.996825 51.796825,41.399442 51.3,41.4 L47.0181375,41.4 L39.8181375,34.2 Z" id="Shape" fill="#000000" fill-rule="nonzero"></path>
                    <path d="M28.8,36 L25.2,36 C24.7029437,36 24.3,36.4029437 24.3,36.9 C24.3,37.3970563 24.7029437,37.8 25.2,37.8 L28.8,37.8 C29.2970563,37.8 29.7,37.3970563 29.7,36.9 C29.7,36.4029437 29.2970563,36 28.8,36 Z" id="Path" fill="#000000"></path>
                    <circle id="Oval" fill="#000000" cx="4.5" cy="4.5" r="1"></circle>
                    <circle id="Oval" fill="#000000" cx="8.1" cy="4.5" r="1"></circle>
                    <circle id="Oval" fill="#000000" cx="11.7" cy="4.5" r="1"></circle>
                    <path d="M9.9,12.6 L11.7,12.6 C12.1970563,12.6 12.6,12.1970563 12.6,11.7 C12.6,11.2029437 12.1970563,10.8 11.7,10.8 L9.9,10.8 C9.40294373,10.8 9,11.2029437 9,11.7 C9,12.1970563 9.40294373,12.6 9.9,12.6 Z" id="Path" fill="#000000"></path>
                    <path d="M15.3,12.6 L17.1,12.6 C17.5970563,12.6 18,12.1970563 18,11.7 C18,11.2029437 17.5970563,10.8 17.1,10.8 L15.3,10.8 C14.8029437,10.8 14.4,11.2029437 14.4,11.7 C14.4,12.1970563 14.8029437,12.6 15.3,12.6 Z" id="Path" fill="#000000"></path>
                    <path d="M6.3,28.8 L5.4,28.8 L5.4,27.9 C5.4,27.4029437 4.99705627,27 4.5,27 C4.00294373,27 3.6,27.4029437 3.6,27.9 L3.6,29.7 C3.6,30.1970563 4.00294373,30.6 4.5,30.6 L6.3,30.6 C6.79705627,30.6 7.2,30.1970563 7.2,29.7 C7.2,29.2029437 6.79705627,28.8 6.3,28.8 Z" id="Path" fill="#000000"></path>
                    <path d="M11.7,28.8 L9.9,28.8 C9.40294373,28.8 9,29.2029437 9,29.7 C9,30.1970563 9.40294373,30.6 9.9,30.6 L11.7,30.6 C12.1970563,30.6 12.6,30.1970563 12.6,29.7 C12.6,29.2029437 12.1970563,28.8 11.7,28.8 Z" id="Path" fill="#000000"></path>
                    <path d="M17.1,28.8 L15.3,28.8 C14.8029437,28.8 14.4,29.2029437 14.4,29.7 C14.4,30.1970563 14.8029437,30.6 15.3,30.6 L17.1,30.6 C17.5970563,30.6 18,30.1970563 18,29.7 C18,29.2029437 17.5970563,28.8 17.1,28.8 Z" id="Path" fill="#000000"></path>
                    <path d="M22.5,10.8 L20.7,10.8 C20.2029437,10.8 19.8,11.2029437 19.8,11.7 C19.8,12.1970563 20.2029437,12.6 20.7,12.6 L21.6,12.6 L21.6,13.5 C21.6,13.9970563 22.0029437,14.4 22.5,14.4 C22.9970563,14.4 23.4,13.9970563 23.4,13.5 L23.4,11.7 C23.4,11.2029437 22.9970563,10.8 22.5,10.8 Z" id="Path" fill="#000000"></path>
                    <path d="M22.5,16.2 C22.0029437,16.2 21.6,16.6029437 21.6,17.1 L21.6,18.9 C21.6,19.3970563 22.0029437,19.8 22.5,19.8 C22.9970563,19.8 23.4,19.3970563 23.4,18.9 L23.4,17.1 C23.4,16.6029437 22.9970563,16.2 22.5,16.2 Z" id="Path" fill="#000000"></path>
                    <path d="M22.5,21.6 C22.0029437,21.6 21.6,22.0029437 21.6,22.5 L21.6,24.3 C21.6,24.7970563 22.0029437,25.2 22.5,25.2 C22.9970563,25.2 23.4,24.7970563 23.4,24.3 L23.4,22.5 C23.4,22.0029437 22.9970563,21.6 22.5,21.6 Z" id="Path" fill="#000000"></path>
                    <path d="M22.5,27 C22.0029437,27 21.6,27.4029437 21.6,27.9 L21.6,28.8 L20.7,28.8 C20.2029437,28.8 19.8,29.2029437 19.8,29.7 C19.8,30.1970563 20.2029437,30.6 20.7,30.6 L22.5,30.6 C22.9970563,30.6 23.4,30.1970563 23.4,29.7 L23.4,27.9 C23.4,27.4029437 22.9970563,27 22.5,27 Z" id="Path" fill="#000000"></path>
                    <path d="M4.5,14.4 C4.99705627,14.4 5.4,13.9970563 5.4,13.5 L5.4,12.6 L6.3,12.6 C6.79705627,12.6 7.2,12.1970563 7.2,11.7 C7.2,11.2029437 6.79705627,10.8 6.3,10.8 L4.5,10.8 C4.00294373,10.8 3.6,11.2029437 3.6,11.7 L3.6,13.5 C3.6,13.9970563 4.00294373,14.4 4.5,14.4 Z" id="Path" fill="#000000"></path>
                    <path d="M4.5,19.8 C4.99705627,19.8 5.4,19.3970563 5.4,18.9 L5.4,17.1 C5.4,16.6029437 4.99705627,16.2 4.5,16.2 C4.00294373,16.2 3.6,16.6029437 3.6,17.1 L3.6,18.9 C3.6,19.3970563 4.00294373,19.8 4.5,19.8 Z" id="Path" fill="#000000"></path>
                    <path d="M4.5,25.2 C4.99705627,25.2 5.4,24.7970563 5.4,24.3 L5.4,22.5 C5.4,22.0029437 4.99705627,21.6 4.5,21.6 C4.00294373,21.6 3.6,22.0029437 3.6,22.5 L3.6,24.3 C3.6,24.7970563 4.00294373,25.2 4.5,25.2 Z" id="Path" fill="#000000"></path>
                    <path d="M31.5,19.8 L26.1,19.8 C25.6029437,19.8 25.2,20.2029437 25.2,20.7 C25.2,21.1970563 25.6029437,21.6 26.1,21.6 L31.5,21.6 C31.9970563,21.6 32.4,21.1970563 32.4,20.7 C32.4,20.2029437 31.9970563,19.8 31.5,19.8 Z" id="Path" fill="#000000"></path>
                    <path d="M49.5,19.8 L35.1,19.8 C34.6029437,19.8 34.2,20.2029437 34.2,20.7 C34.2,21.1970563 34.6029437,21.6 35.1,21.6 L49.5,21.6 C49.9970563,21.6 50.4,21.1970563 50.4,20.7 C50.4,20.2029437 49.9970563,19.8 49.5,19.8 Z" id="Path" fill="#000000"></path>
                    <path d="M49.5,23.4 L36.9,23.4 C36.4029437,23.4 36,23.8029437 36,24.3 C36,24.7970563 36.4029437,25.2 36.9,25.2 L49.5,25.2 C49.9970563,25.2 50.4,24.7970563 50.4,24.3 C50.4,23.8029437 49.9970563,23.4 49.5,23.4 Z" id="Path" fill="#000000"></path>
                    <path d="M49.5,10.8 L26.1,10.8 C25.6029437,10.8 25.2,11.2029437 25.2,11.7 L25.2,17.1 C25.2,17.5970563 25.6029437,18 26.1,18 L49.5,18 C49.9970563,18 50.4,17.5970563 50.4,17.1 L50.4,11.7 C50.4,11.2029437 49.9970563,10.8 49.5,10.8 Z M48.6,16.2 L27,16.2 L27,12.6 L48.6,12.6 L48.6,16.2 Z" id="Shape" fill="#000000" fill-rule="nonzero"></path>
                    <path d="M19.8,15.3 C19.8,14.8029437 19.3970563,14.4 18.9,14.4 L8.1,14.4 C7.60294373,14.4 7.2,14.8029437 7.2,15.3 L7.2,26.1 C7.2,26.5970563 7.60294373,27 8.1,27 L18.9,27 C19.3970563,27 19.8,26.5970563 19.8,26.1 L19.8,15.3 Z M18,25.2 L9,25.2 L9,16.2 L18,16.2 L18,25.2 Z" id="Shape" fill="#000000" fill-rule="nonzero"></path>
                </g>
            </g>
        </g>
    </g>
</svg>