<?xml version="1.0" encoding="UTF-8"?>
<svg width="488px" height="96px" viewBox="0 0 488 96" version="1.1" xmlns="http://www.w3.org/2000/svg" xmlns:xlink="http://www.w3.org/1999/xlink">
    <!-- Generator: Sketch 52.3 (67297) - http://www.bohemiancoding.com/sketch -->
    <title>Group 36</title>
    <desc>Created with Sketch.</desc>
    <defs>
        <circle id="path-1" cx="43.2254309" cy="42.8229572" r="42.5"></circle>
    </defs>
    <g id="Page-1" stroke="none" stroke-width="1" fill="none" fill-rule="evenodd">
        <g id="Artboard" transform="translate(-1616.000000, -570.000000)">
            <g id="Group-36" transform="translate(1616.000000, 570.000000)">
                <g id="Group-35">
                    <g id="Group-34">
                        <g id="Group-33">
                            <g id="Group-31">
                                <g id="Group-16">
                                    <g id="Group-10">
                                        <g id="Group-3">
                                            <path d="M189.862013,48.2422864 L20.0283096,48.2422864" id="Line-2" stroke="#FFF60F" stroke-width="5" stroke-linecap="square"></path>
                                            <g id="Group-2" transform="translate(110.000000, 0.000000)">
                                                <rect id="Rectangle" fill="#FFF60F" x="0" y="1.42108547e-14" width="378" height="96" rx="48"></rect>
                                                <g id="profile" transform="translate(3.274569, 4.677043)">
                                                    <mask id="mask-2" fill="white">
                                                        <use xlink:href="#path-1"></use>
                                                    </mask>
                                                    <use id="Mask" fill="#FFFFFF" xlink:href="#path-1"></use>
                                                </g>
                                            </g>
                                            <circle id="Oval" fill="#FFF60F" cx="9.5" cy="48.5" r="9.5"></circle>
                                        </g>
                                    </g>
                                </g>
                            </g>
                        </g>
                    </g>
                </g>
                <g id="website" transform="translate(127.000000, 20.000000)">
                    <path d="M9.17820763,55.7408072 L5.06249364,55.7408072 C2.93223941,55.7408072 1.20533263,54.0139004 1.20533263,51.8836462 L1.20533263,1.25907203 L55.6870678,1.25907203 L55.6870678,51.8836462 C55.6870678,54.0139004 53.960161,55.7408072 51.8299068,55.7408072 L46.7174174,55.7408072 L9.17820763,55.7408072 Z" id="Path" fill="#FFFFFF"></path>
                    <path d="M51.8300275,1.25907203 L5.06249364,1.25907203 C2.93223941,1.25907203 1.20533263,2.98597881 1.20533263,5.11623305 L1.20533263,9.93768432 L55.6870678,9.93768432 L55.6870678,5.11623305 C55.6870678,2.98597881 53.960161,1.25907203 51.8300275,1.25907203 Z" id="Path" fill="#A5DC69"></path>
                    <g id="Group" transform="translate(7.608051, 18.355932)" fill="#78D2FA">
                        <rect id="Rectangle" x="0.106150424" y="0.0185974576" width="24.8819492" height="16.8748983"></rect>
                        <polygon id="Path" points="53.0170042 32.7532627 42.6758517 22.4119894 47.3596335 17.7280869 52.8997436 23.2680763"></polygon>
                    </g>
                    <path d="M2.42382839,9.9484322 L55.0844619,9.9484322" id="Path" fill="#231F20"></path>
                    <circle id="Oval" fill="#FF5A5A" cx="41.1119746" cy="26.9120911" r="12.9105"></circle>
                    <path d="M24.6883665,6.80365042 L49.7072606,6.80365042 C50.3729047,6.80365042 50.9125932,6.2638411 50.9125932,5.5983178 C50.9125932,4.93279449 50.3727839,4.39298517 49.7072606,4.39298517 L24.6883665,4.39298517 C24.0227225,4.39298517 23.4830339,4.93279449 23.4830339,5.5983178 C23.4830339,6.2638411 24.0228432,6.80365042 24.6883665,6.80365042 Z" id="Path" fill="#000000"></path>
                    <path d="M11.6145953,6.80365042 C11.9317182,6.80365042 12.2425614,6.67467585 12.4668178,6.45041949 C12.6909534,6.22640466 12.819928,5.91531992 12.819928,5.5983178 C12.819928,5.28131568 12.6910742,4.97035169 12.4668178,4.74609534 C12.2425614,4.52195975 11.9317182,4.39298517 11.6145953,4.39298517 C11.2975932,4.39298517 10.9866292,4.52183898 10.7624936,4.74609534 C10.5383581,4.97023093 10.4092627,5.28010805 10.4092627,5.5983178 C10.4092627,5.91531992 10.5382373,6.2262839 10.7624936,6.45041949 C10.9866292,6.67467585 11.2975932,6.80365042 11.6145953,6.80365042 Z" id="Path" fill="#000000"></path>
                    <path d="M7.18501907,6.80365042 C7.50214195,6.80365042 7.81298517,6.67467585 8.03724153,6.45041949 C8.26137712,6.22640466 8.39035169,5.91531992 8.39035169,5.5983178 C8.39035169,5.28131568 8.26149788,4.97035169 8.03724153,4.74609534 C7.81298517,4.52195975 7.50214195,4.39298517 7.18501907,4.39298517 C6.86801695,4.39298517 6.55705297,4.52183898 6.33291737,4.74609534 C6.10878178,4.97023093 5.97968644,5.28131568 5.97968644,5.5983178 C5.97968644,5.91531992 6.10866102,6.2262839 6.33291737,6.45041949 C6.5569322,6.67467585 6.86789619,6.80365042 7.18501907,6.80365042 Z" id="Path" fill="#000000"></path>
                    <path d="M16.0432055,6.80365042 C16.361536,6.80365042 16.6711716,6.67467585 16.8966356,6.45041949 C17.1207712,6.22640466 17.2485381,5.91531992 17.2485381,5.5983178 C17.2485381,5.28131568 17.1207712,4.97035169 16.8966356,4.74609534 C16.6712924,4.52195975 16.361536,4.39298517 16.0432055,4.39298517 C15.7262034,4.39298517 15.416447,4.52183898 15.1911038,4.74609534 C14.9669682,4.97023093 14.8378729,5.28131568 14.8378729,5.5983178 C14.8378729,5.91531992 14.9668475,6.2262839 15.1911038,6.45041949 C15.4163263,6.67467585 15.7262034,6.80365042 16.0432055,6.80365042 Z" id="Path" fill="#000000"></path>
                    <path d="M61.4775191,50.2567309 L51.988589,40.7679216 L53.4772309,39.2792797 C53.4775932,39.2789174 53.4780763,39.2785551 53.4784386,39.2781928 C53.4788008,39.2778305 53.4791631,39.2773475 53.4795254,39.2769852 L54.9678051,37.7887055 L59.6554513,42.4764725 C60.1263051,42.9470847 60.8892839,42.9470847 61.3601377,42.4764725 C61.8308708,42.0057394 61.8308708,41.2425191 61.3601377,40.771786 L55.8202691,35.2319174 C55.3496568,34.7614258 54.586678,34.7611843 54.1155826,35.2319174 L52.6260953,36.7212839 L51.9045381,35.9997267 C53.9770678,33.542447 55.2280487,30.3709767 55.2280487,26.9123326 C55.2280487,19.1290551 48.8958559,12.7968623 41.1125784,12.7968623 C37.1027733,12.7968623 33.4780805,14.4776377 30.9060763,17.1714915 C30.8947246,17.1711292 30.8837352,17.1698008 30.8723835,17.1698008 L7.71420127,17.1698008 C7.0485572,17.1698008 6.50886864,17.7096102 6.50886864,18.3751335 L6.50886864,35.2500318 C6.50886864,35.9156758 7.04867797,36.4553644 7.71420127,36.4553644 L30.7213093,36.4553644 C33.3032161,39.2644258 37.0055593,41.0279237 41.1124576,41.0279237 C44.5711017,41.0279237 47.7424513,39.776822 50.1998517,37.7044131 L50.9214089,38.4259703 L49.4315593,39.9158199 C49.2056123,40.1417669 49.0785699,40.4485042 49.0785699,40.7681631 C49.0785699,41.087822 49.2056123,41.3943178 49.4315593,41.6205064 L54.4817352,46.6706822 L54.4817352,51.8838877 C54.4817352,53.3460826 53.2922225,54.5355953 51.8300275,54.5355953 L5.06249364,54.5355953 C3.60029873,54.5355953 2.41078602,53.3460826 2.41078602,51.8838877 L2.41078602,11.1422924 C2.41525424,11.1422924 2.41960169,11.1430169 2.42394915,11.1430169 L54.4818559,11.1430169 L54.4818559,16.5758898 C54.4818559,17.2415339 55.0216653,17.7812225 55.6871886,17.7812225 C56.3528326,17.7812225 56.8925212,17.2414131 56.8925212,16.5758898 L56.8925212,5.11623305 C56.8925212,2.32480297 54.6215784,0.0537394068 51.8300275,0.0537394068 L5.06249364,0.0537394068 C2.2709428,0.0537394068 0,2.32480297 0,5.11623305 L0,51.8837669 C0,54.675197 2.2709428,56.9462606 5.06249364,56.9462606 L51.8300275,56.9462606 C54.6214576,56.9462606 56.8925212,54.6753178 56.8925212,51.8837669 L56.8925212,49.0811059 L59.7728326,51.9614174 C60.0081992,52.1966631 60.3166271,52.3144068 60.6251758,52.3144068 C60.9336038,52.3144068 61.2420318,52.1966631 61.4775191,51.9614174 C61.9481314,51.4906843 61.9481314,50.727464 61.4775191,50.2567309 Z M8.9195339,34.0445784 L8.9195339,19.5803453 L29.0546631,19.5803453 C27.7495805,21.7186907 26.9968665,24.2291059 26.9968665,26.9122119 C26.9968665,27.0349068 26.9984364,27.1572394 27.0015763,27.279089 L25.4826229,24.3449174 C25.1766102,23.7536631 24.4490148,23.5226441 23.8578814,23.8286568 C23.2667479,24.1346695 23.0356081,24.8620233 23.3416208,25.4533983 L26.1720572,30.9209301 C26.386411,31.3350254 26.8073898,31.5723242 27.243464,31.5723242 C27.4132564,31.5723242 27.5851017,31.5344047 27.7481314,31.4588072 C28.0574047,32.3656144 28.45725,33.2307585 28.9357119,34.0444576 L8.9195339,34.0445784 Z M29.4077733,26.9123326 C29.4077733,26.8204322 29.4091017,26.7288941 29.4112754,26.6374767 L31.6285996,30.9209301 C31.8359492,31.3215 32.2489576,31.5722034 32.6989195,31.5722034 C32.7049576,31.5722034 32.7111165,31.5722034 32.7170339,31.5720826 C33.174,31.5651992 33.5877331,31.3006081 33.7855424,30.8886864 L36.4115275,25.4211547 C36.6997881,24.820964 36.4467903,24.1010975 35.8467203,23.8127161 C35.2471335,23.5248178 34.5266631,23.7774534 34.2382818,24.3775233 L32.6585847,27.6669788 L30.9390445,24.3452797 C30.723,23.9280445 30.2970699,23.6912288 29.8574936,23.6948517 C31.2588242,18.800339 35.7739004,15.2075275 41.1125784,15.2075275 C47.5666208,15.2075275 52.8173835,20.458411 52.8173835,26.9123326 C52.8173835,33.3662542 47.5665,38.6171377 41.1125784,38.6171377 C34.6586568,38.6171377 29.4077733,33.366375 29.4077733,26.9123326 Z M5.06249364,2.46440466 L51.8300275,2.46440466 C53.2922225,2.46440466 54.4817352,3.65391737 54.4817352,5.11611229 L54.4817352,8.73211017 L2.42382839,8.73211017 C2.41936017,8.73211017 2.41501271,8.73271398 2.41066525,8.73283475 L2.41066525,5.11623305 C2.41066525,3.65403814 3.60029873,2.46440466 5.06249364,2.46440466 Z" id="Shape" fill="#000000" fill-rule="nonzero"></path>
                    <path d="M22.0362966,23.8125953 C21.4367097,23.524697 20.7162394,23.7773326 20.4278581,24.3774025 L18.848161,27.6667373 L17.1286208,24.3450381 C16.9186144,23.9390339 16.4988432,23.6856737 16.0401864,23.6938856 C15.5832203,23.7007691 15.1694873,23.9653602 14.971678,24.3772818 L13.3919809,27.6666165 L11.6724407,24.3449174 C11.366428,23.7535424 10.6385911,23.5225233 10.0478199,23.828536 C9.45656568,24.1345487 9.22542585,24.8619025 9.53143856,25.4531568 L12.3617542,30.9206886 C12.5718814,31.3266928 12.9947924,31.5788453 13.4501886,31.5718411 C13.9071547,31.5649576 14.3208877,31.3003665 14.518697,30.8884449 L16.0983941,27.5989894 L17.8179343,30.9206886 C18.0252839,31.3212585 18.4382924,31.5719619 18.8882542,31.5719619 C18.8942924,31.5719619 18.9004513,31.5719619 18.9063686,31.5718411 C19.3633347,31.5649576 19.7770678,31.3003665 19.9748771,30.8884449 L22.6008623,25.4209131 C22.8892436,24.820964 22.6364873,24.1009767 22.0362966,23.8125953 Z" id="Path" fill="#000000"></path>
                    <path d="M49.6572648,23.8125953 C49.0570742,23.524697 48.3372076,23.7773326 48.0488263,24.3774025 L46.4691292,27.6667373 L44.749589,24.3449174 C44.5395826,23.9391547 44.1146186,23.6883305 43.6611547,23.6938856 C43.2041886,23.7007691 42.7904555,23.9653602 42.5926462,24.3772818 L41.0129492,27.6667373 L39.2934089,24.3449174 C38.9873962,23.7539047 38.2602839,23.5226441 37.6686674,23.8286568 C37.0775339,24.1346695 36.8463941,24.8620233 37.1524068,25.4533983 L39.9828432,30.9209301 C40.1901928,31.3212585 40.6032013,31.5720826 41.0531631,31.5720826 C41.059322,31.5720826 41.0653602,31.5720826 41.0712775,31.5719619 C41.5282436,31.5650784 41.9419767,31.3004873 42.139786,30.8885657 L43.7194831,27.5991102 L45.4390233,30.9209301 C45.6463729,31.3212585 46.0593814,31.5720826 46.5093432,31.5720826 C46.5155021,31.5720826 46.5215403,31.5720826 46.5274576,31.5719619 C46.9844237,31.5650784 47.3981568,31.3004873 47.5959661,30.8885657 L50.2218305,25.4210339 C50.5100911,24.820964 50.257214,24.1009767 49.6572648,23.8125953 Z" id="Path" fill="#000000"></path>
                    <path d="M6.86209958,45.9690508 C6.63796398,46.1931864 6.50898941,46.5042712 6.50898941,46.8212733 C6.50898941,47.1382754 6.63784322,47.4492394 6.86209958,47.673375 C7.08623517,47.8975106 7.39731992,48.0266059 7.71432203,48.0266059 C8.03132415,48.0266059 8.34228814,47.8976314 8.56642373,47.673375 C8.79055932,47.4493602 8.91965466,47.1382754 8.91965466,46.8212733 C8.91965466,46.5042712 8.79068008,46.1933072 8.56642373,45.9690508 C8.3424089,45.7437076 8.03132415,45.6159407 7.71432203,45.6159407 C7.39719915,45.6159407 7.08623517,45.7437076 6.86209958,45.9690508 Z" id="Path" fill="#000000"></path>
                    <path d="M10.6471653,46.8224809 C10.6471653,47.488125 11.1869746,48.0278136 11.8524979,48.0278136 L35.3249047,48.0278136 C35.9905487,48.0278136 36.5302373,47.4880042 36.5302373,46.8224809 C36.5302373,46.1568369 35.990428,45.6171483 35.3249047,45.6171483 L11.8524979,45.6171483 C11.1869746,45.6171483 10.6471653,46.1567161 10.6471653,46.8224809 Z" id="Path" fill="#000000"></path>
                    <path d="M30.8569258,42.241589 C31.5225699,42.241589 32.0622585,41.7017797 32.0622585,41.0362564 C32.0622585,40.3706123 31.5224492,39.8309237 30.8569258,39.8309237 L23.7453305,39.8309237 C23.0796864,39.8309237 22.5399979,40.3707331 22.5399979,41.0362564 C22.5399979,41.7019004 23.0798072,42.241589 23.7453305,42.241589 L30.8569258,42.241589 Z" id="Path" fill="#000000"></path>
                    <path d="M18.3322627,39.830803 L7.71420127,39.830803 C7.0485572,39.830803 6.50886864,40.3706123 6.50886864,41.0361356 C6.50886864,41.7017797 7.04867797,42.2414682 7.71420127,42.2414682 L18.3322627,42.2414682 C18.9979068,42.2414682 19.5375953,41.7016589 19.5375953,41.0361356 C19.5375953,40.3706123 18.9979068,39.830803 18.3322627,39.830803 Z" id="Path" fill="#000000"></path>
                </g>
            </g>
        </g>
    </g>
</svg>