<?xml version="1.0" encoding="UTF-8"?>
<svg width="99px" height="99px" viewBox="0 0 99 99" version="1.1" xmlns="http://www.w3.org/2000/svg" xmlns:xlink="http://www.w3.org/1999/xlink">
    <!-- Generator: Sketch 52.3 (67297) - http://www.bohemiancoding.com/sketch -->
    <title>Group 17</title>
    <desc>Created with Sketch.</desc>
    <defs>
        <filter x="-18.8%" y="-18.8%" width="137.6%" height="137.6%" filterUnits="objectBoundingBox" id="filter-1">
            <feOffset dx="0" dy="2" in="SourceAlpha" result="shadowOffsetOuter1"></feOffset>
            <feGaussianBlur stdDeviation="2" in="shadowOffsetOuter1" result="shadowBlurOuter1"></feGaussianBlur>
            <feColorMatrix values="0 0 0 0 0   0 0 0 0 0   0 0 0 0 0  0 0 0 0.5 0" type="matrix" in="shadowBlurOuter1" result="shadowMatrixOuter1"></feColorMatrix>
            <feMerge>
                <feMergeNode in="shadowMatrixOuter1"></feMergeNode>
                <feMergeNode in="SourceGraphic"></feMergeNode>
            </feMerge>
        </filter>
        <circle id="path-2" cx="42.5" cy="42.5" r="42.5"></circle>
        <filter x="-7.1%" y="-7.1%" width="114.1%" height="114.1%" filterUnits="objectBoundingBox" id="filter-4">
            <feOffset dx="0" dy="0" in="SourceAlpha" result="shadowOffsetOuter1"></feOffset>
            <feGaussianBlur stdDeviation="2" in="shadowOffsetOuter1" result="shadowBlurOuter1"></feGaussianBlur>
            <feColorMatrix values="0 0 0 0 0   0 0 0 0 0   0 0 0 0 0  0 0 0 0.5 0" type="matrix" in="shadowBlurOuter1"></feColorMatrix>
        </filter>
        <filter x="-14.3%" y="-14.8%" width="128.8%" height="129.6%" filterUnits="objectBoundingBox" id="filter-5">
            <feOffset dx="0" dy="0" in="SourceAlpha" result="shadowOffsetOuter1"></feOffset>
            <feGaussianBlur stdDeviation="2" in="shadowOffsetOuter1" result="shadowBlurOuter1"></feGaussianBlur>
            <feColorMatrix values="0 0 0 0 0   0 0 0 0 0   0 0 0 0 0  0 0 0 0.5 0" type="matrix" in="shadowBlurOuter1" result="shadowMatrixOuter1"></feColorMatrix>
            <feMerge>
                <feMergeNode in="shadowMatrixOuter1"></feMergeNode>
                <feMergeNode in="SourceGraphic"></feMergeNode>
            </feMerge>
        </filter>
    </defs>
    <g id="Page-1" stroke="none" stroke-width="1" fill="none" fill-rule="evenodd">
        <g id="Artboard" transform="translate(-195.000000, -99.000000)">
            <g id="Group-17" transform="translate(202.000000, 104.000000)">
                <g id="Group-16">
                    <g id="Group-15">
                        <g id="Group-14">
                            <g id="Group-13">
                                <g id="Group-12">
                                    <g id="Group-11">
                                        <g id="Group-10">
                                            <g id="Group-5">
                                                <g id="Group">
                                                    <g id="Group-2" filter="url(#filter-1)">
                                                        <mask id="mask-3" fill="white">
                                                            <use xlink:href="#path-2"></use>
                                                        </mask>
                                                        <g id="Mask">
                                                            <use fill="black" fill-opacity="1" filter="url(#filter-4)" xlink:href="#path-2"></use>
                                                            <use fill="#FFFFFF" fill-rule="evenodd" xlink:href="#path-2"></use>
                                                        </g>
                                                    </g>
                                                </g>
                                            </g>
                                        </g>
                                    </g>
                                </g>
                            </g>
                        </g>
                    </g>
                </g>
                <g id="coding" filter="url(#filter-5)" transform="translate(15.000000, 15.000000)">
                    <path d="M40.3648911,53.9098548 L15.3770444,53.9098548 C14.3151169,53.9098548 13.4549274,53.0496653 13.4549274,51.9877379 C13.4549274,50.9258105 14.3151169,50.065621 15.3770444,50.065621 L40.3647823,50.065621 C41.4267097,50.065621 42.2868992,50.9258105 42.2868992,51.9877379 C42.2870081,53.0497742 41.4268185,53.9098548 40.3648911,53.9098548 Z" id="Path" fill="#E7ECED"></path>
                    <path d="M32.6763145,42.3770444 L32.6763145,40.4549274 L23.065621,40.4549274 L23.065621,42.3770444 C23.065621,46.6269315 21.5490484,50.065621 17.2991613,50.065621 L38.4426653,50.065621 C34.1928871,50.065621 32.6763145,46.6269315 32.6763145,42.3770444 Z" id="Path" fill="#AFB6BB"></path>
                    <path d="M52.8577258,42.3770444 L2.88420968,42.3770444 C1.29164516,42.3770444 0,41.0853992 0,39.4929435 L0,33.7274637 L55.7419355,33.7274637 L55.7419355,39.4929435 C55.7419355,41.0853992 54.4502903,42.3770444 52.8577258,42.3770444 Z" id="Path" fill="#E7ECED"></path>
                    <path d="M30.7541976,39.4939234 L24.9877379,39.4939234 C24.4572097,39.4939234 24.026625,39.0633387 24.026625,38.5328105 C24.026625,38.0022823 24.4572097,37.5716976 24.9877379,37.5716976 L30.7541976,37.5716976 C31.2847258,37.5716976 31.7153105,38.0022823 31.7153105,38.5328105 C31.7153105,39.0633387 31.2847258,39.4939234 30.7541976,39.4939234 Z" id="Path" fill="#AFB6BB"></path>
                    <path d="M48.0533589,0.0901451613 L7.68857661,0.0901451613 L2.88420968,0.0901451613 C1.29164516,0.0901451613 0,1.38179032 0,2.97424597 L0,34.6885766 L7.68857661,34.6885766 L22.1046169,34.6885766 L33.6374274,34.6885766 L48.0534677,34.6885766 L55.7419355,34.6885766 L55.7419355,2.97424597 C55.7419355,1.38179032 54.4502903,0.0900362903 52.8577258,0.0900362903 L48.0533589,0.0900362903 L48.0533589,0.0901451613 Z" id="Path" fill="#495D72"></path>
                    <rect id="Rectangle" fill="#28384C" x="25.9488508" y="3.93437903" width="25.9488508" height="30.7541976"></rect>
                    <rect id="Rectangle" fill="#EBBA16" x="3.84423387" y="3.93437903" width="24.0267339" height="30.7541976"></rect>
                    <g id="Group" transform="translate(6.641129, 6.750000)" fill="#FFFFFF">
                        <path d="M7.77393145,25.0553468 C7.62978629,25.0553468 7.48270161,25.0226855 7.34432661,24.9544234 C6.86954032,24.7170847 6.67738306,24.1394153 6.91472177,23.664629 L9.79795161,17.8982782 C10.0352903,17.4234919 10.6139395,17.2313347 11.087746,17.4686734 C11.5625323,17.7060121 11.7546895,18.2836815 11.5173508,18.7584677 L8.63412097,24.5248185 C8.46591532,24.8612298 8.12667339,25.0553468 7.77393145,25.0553468 Z" id="Path"></path>
                        <path d="M1.04744758,22.1721169 C0.801399194,22.1721169 0.555350806,22.0779435 0.367983871,21.8905766 C-0.00783870968,21.514754 -0.00783870968,20.9073629 0.367983871,20.5316492 L3.25121371,17.6484194 C3.62605645,17.2725968 4.23529839,17.2725968 4.61014113,17.6484194 C4.98596371,18.0242419 4.98596371,18.6316331 4.61014113,19.0073468 L1.72691129,21.8905766 C1.53943548,22.0779435 1.29349597,22.1721169 1.04744758,22.1721169 Z" id="Path"></path>
                        <path d="M3.93056855,25.0553468 C3.68452016,25.0553468 3.43847177,24.9611734 3.25110484,24.7738065 L0.367983871,21.8905766 C-0.00783870968,21.514754 -0.00783870968,20.9073629 0.367983871,20.5316492 C0.742826613,20.1558266 1.35206855,20.1558266 1.72691129,20.5316492 L4.61014113,23.414879 C4.98596371,23.7907016 4.98596371,24.3980927 4.61014113,24.7738065 C4.42266532,24.9611734 4.17661694,25.0553468 3.93056855,25.0553468 Z" id="Path"></path>
                        <path d="M17.3856048,22.1721169 C17.1395565,22.1721169 16.8935081,22.0779435 16.7061411,21.8905766 L13.8229113,19.0073468 C13.4470887,18.6315242 13.4470887,18.0241331 13.8229113,17.6484194 C14.197754,17.2725968 14.806996,17.2725968 15.1818387,17.6484194 L18.0650685,20.5316492 C18.4408911,20.9074718 18.4408911,21.5148629 18.0650685,21.8905766 C17.8775927,22.0779435 17.6316532,22.1721169 17.3856048,22.1721169 Z" id="Path"></path>
                        <path d="M14.502375,25.0553468 C14.2563266,25.0553468 14.0102782,24.9611734 13.8229113,24.7738065 C13.4470887,24.3979839 13.4470887,23.7905927 13.8229113,23.414879 L16.7061411,20.5316492 C17.0809839,20.1558266 17.6902258,20.1558266 18.0650685,20.5316492 C18.4408911,20.9074718 18.4408911,21.5148629 18.0650685,21.8905766 L15.1818387,24.7738065 C14.9944718,24.9611734 14.7484234,25.0553468 14.502375,25.0553468 Z" id="Path"></path>
                        <path d="M9.69702823,8.71718952 C9.1665,8.71718952 8.73591532,8.28660484 8.73591532,7.75607661 L8.73591532,1.0286129 C8.73591532,0.498084677 9.1665,0.0675 9.69702823,0.0675 C10.2275565,0.0675 10.6581411,0.498084677 10.6581411,1.0286129 L10.6581411,7.75607661 C10.6581411,8.28660484 10.2275565,8.71718952 9.69702823,8.71718952 Z" id="Path"></path>
                        <path d="M9.69702823,14.4835403 C9.1665,14.4835403 8.73591532,14.0529556 8.73591532,13.5224274 L8.73591532,11.6003105 C8.73591532,11.0697823 9.1665,10.6391976 9.69702823,10.6391976 C10.2275565,10.6391976 10.6581411,11.0697823 10.6581411,11.6003105 L10.6581411,13.5224274 C10.6581411,14.0530645 10.2275565,14.4835403 9.69702823,14.4835403 Z" id="Path"></path>
                    </g>
                    <path d="M41.3258952,8.73972581 L31.7152016,8.73972581 C31.1846734,8.73972581 30.7540887,8.30914113 30.7540887,7.7786129 C30.7540887,7.24808468 31.1846734,6.8175 31.7152016,6.8175 L41.3258952,6.8175 C41.8564234,6.8175 42.2870081,7.24808468 42.2870081,7.7786129 C42.2870081,8.30914113 41.8564234,8.73972581 41.3258952,8.73972581 Z" id="Path" fill="#DD352E"></path>
                    <path d="M48.0533589,8.73972581 L45.170129,8.73972581 C44.6396008,8.73972581 44.2090161,8.30914113 44.2090161,7.7786129 C44.2090161,7.24808468 44.6396008,6.8175 45.170129,6.8175 L48.0533589,6.8175 C48.5838871,6.8175 49.0144718,7.24808468 49.0144718,7.7786129 C49.0144718,8.30914113 48.5838871,8.73972581 48.0533589,8.73972581 Z" id="Path" fill="#366DB6"></path>
                    <path d="M48.0533589,12.5839597 L38.4426653,12.5839597 C37.9121371,12.5839597 37.4815524,12.153375 37.4815524,11.6228468 C37.4815524,11.0923185 37.9121371,10.6617339 38.4426653,10.6617339 L48.0533589,10.6617339 C48.5838871,10.6617339 49.0144718,11.0923185 49.0144718,11.6228468 C49.0144718,12.153375 48.5838871,12.5839597 48.0533589,12.5839597 Z" id="Path" fill="#75348B"></path>
                    <path d="M34.5984315,12.5839597 L31.7152016,12.5839597 C31.1846734,12.5839597 30.7540887,12.153375 30.7540887,11.6228468 C30.7540887,11.0923185 31.1846734,10.6617339 31.7152016,10.6617339 L34.5984315,10.6617339 C35.1289597,10.6617339 35.5595444,11.0923185 35.5595444,11.6228468 C35.5595444,12.153375 35.1289597,12.5839597 34.5984315,12.5839597 Z" id="Path" fill="#57ABC1"></path>
                    <path d="M41.3258952,16.4283024 L31.7152016,16.4283024 C31.1846734,16.4283024 30.7540887,15.9977177 30.7540887,15.4671895 C30.7540887,14.9366613 31.1846734,14.5060766 31.7152016,14.5060766 L41.3258952,14.5060766 C41.8564234,14.5060766 42.2870081,14.9366613 42.2870081,15.4671895 C42.2870081,15.9977177 41.8564234,16.4283024 41.3258952,16.4283024 Z" id="Path" fill="#25AE88"></path>
                    <path d="M48.0533589,16.4283024 L45.170129,16.4283024 C44.6396008,16.4283024 44.2090161,15.9977177 44.2090161,15.4671895 C44.2090161,14.9366613 44.6396008,14.5060766 45.170129,14.5060766 L48.0533589,14.5060766 C48.5838871,14.5060766 49.0144718,14.9366613 49.0144718,15.4671895 C49.0144718,15.9977177 48.5838871,16.4283024 48.0533589,16.4283024 Z" id="Path" fill="#F76363"></path>
                    <path d="M48.0533589,20.2725363 L38.4426653,20.2725363 C37.9121371,20.2725363 37.4815524,19.8419516 37.4815524,19.3114234 C37.4815524,18.7808952 37.9121371,18.3503105 38.4426653,18.3503105 L48.0533589,18.3503105 C48.5838871,18.3503105 49.0144718,18.7808952 49.0144718,19.3114234 C49.0144718,19.8419516 48.5838871,20.2725363 48.0533589,20.2725363 Z" id="Path" fill="#BF5A45"></path>
                    <path d="M34.5984315,20.2725363 L31.7152016,20.2725363 C31.1846734,20.2725363 30.7540887,19.8419516 30.7540887,19.3114234 C30.7540887,18.7808952 31.1846734,18.3503105 31.7152016,18.3503105 L34.5984315,18.3503105 C35.1289597,18.3503105 35.5595444,18.7808952 35.5595444,19.3114234 C35.5595444,19.8419516 35.1289597,20.2725363 34.5984315,20.2725363 Z" id="Path" fill="#F2ECBF"></path>
                    <path d="M48.0533589,31.8053468 L38.4426653,31.8053468 C37.9121371,31.8053468 37.4815524,31.3747621 37.4815524,30.8442339 C37.4815524,30.3137056 37.9121371,29.883121 38.4426653,29.883121 L48.0533589,29.883121 C48.5838871,29.883121 49.0144718,30.3137056 49.0144718,30.8442339 C49.0144718,31.3747621 48.5838871,31.8053468 48.0533589,31.8053468 Z" id="Path" fill="#25AE88"></path>
                    <path d="M34.5984315,31.8053468 L31.7152016,31.8053468 C31.1846734,31.8053468 30.7540887,31.3747621 30.7540887,30.8442339 C30.7540887,30.3137056 31.1846734,29.883121 31.7152016,29.883121 L34.5984315,29.883121 C35.1289597,29.883121 35.5595444,30.3137056 35.5595444,30.8442339 C35.5595444,31.3747621 35.1289597,31.8053468 34.5984315,31.8053468 Z" id="Path" fill="#DD352E"></path>
                    <path d="M41.3258952,24.1167702 L31.7152016,24.1167702 C31.1846734,24.1167702 30.7540887,23.6861855 30.7540887,23.1556573 C30.7540887,22.625129 31.1846734,22.1945444 31.7152016,22.1945444 L41.3258952,22.1945444 C41.8564234,22.1945444 42.2870081,22.625129 42.2870081,23.1556573 C42.2870081,23.6861855 41.8564234,24.1167702 41.3258952,24.1167702 Z" id="Path" fill="#75348B"></path>
                    <path d="M48.0533589,24.1167702 L45.170129,24.1167702 C44.6396008,24.1167702 44.2090161,23.6861855 44.2090161,23.1556573 C44.2090161,22.625129 44.6396008,22.1945444 45.170129,22.1945444 L48.0533589,22.1945444 C48.5838871,22.1945444 49.0144718,22.625129 49.0144718,23.1556573 C49.0144718,23.6861855 48.5838871,24.1167702 48.0533589,24.1167702 Z" id="Path" fill="#EBBA16"></path>
                    <path d="M48.0533589,27.9611129 L38.4426653,27.9611129 C37.9121371,27.9611129 37.4815524,27.5305282 37.4815524,27 C37.4815524,26.4694718 37.9121371,26.0388871 38.4426653,26.0388871 L48.0533589,26.0388871 C48.5838871,26.0388871 49.0144718,26.4694718 49.0144718,27 C49.0144718,27.5305282 48.5838871,27.9611129 48.0533589,27.9611129 Z" id="Path" fill="#ED8A19"></path>
                    <path d="M34.5984315,27.9611129 L31.7152016,27.9611129 C31.1846734,27.9611129 30.7540887,27.5305282 30.7540887,27 C30.7540887,26.4694718 31.1846734,26.0388871 31.7152016,26.0388871 L34.5984315,26.0388871 C35.1289597,26.0388871 35.5595444,26.4694718 35.5595444,27 C35.5595444,27.5305282 35.1289597,27.9611129 34.5984315,27.9611129 Z" id="Path" fill="#C5411E"></path>
                </g>
            </g>
        </g>
    </g>
</svg>