<?xml version="1.0" encoding="UTF-8"?>
<svg width="488px" height="96px" viewBox="0 0 488 96" version="1.1" xmlns="http://www.w3.org/2000/svg" xmlns:xlink="http://www.w3.org/1999/xlink">
    <!-- Generator: Sketch 52.3 (67297) - http://www.bohemiancoding.com/sketch -->
    <title>Group 33</title>
    <desc>Created with Sketch.</desc>
    <defs>
        <circle id="path-1" cx="43.2254309" cy="42.8229572" r="42.5"></circle>
    </defs>
    <g id="Page-1" stroke="none" stroke-width="1" fill="none" fill-rule="evenodd">
        <g id="Artboard" transform="translate(-1616.000000, -570.000000)">
            <g id="Group-33" transform="translate(1616.000000, 570.000000)">
                <g id="Group-31">
                    <g id="Group-16">
                        <g id="Group-10">
                            <g id="Group-3">
                                <path d="M189.862013,48.2422864 L20.0283096,48.2422864" id="Line-2" stroke="#FFF60F" stroke-width="5" stroke-linecap="square"></path>
                                <g id="Group-2" transform="translate(110.000000, 0.000000)">
                                    <rect id="Rectangle" fill="#FFF60F" x="0" y="1.42108547e-14" width="378" height="96" rx="48"></rect>
                                    <g id="profile" transform="translate(3.274569, 4.677043)">
                                        <mask id="mask-2" fill="white">
                                            <use xlink:href="#path-1"></use>
                                        </mask>
                                        <use id="Mask" fill="#FFFFFF" xlink:href="#path-1"></use>
                                    </g>
                                </g>
                                <circle id="Oval" fill="#FFF60F" cx="9.5" cy="48.5" r="9.5"></circle>
                            </g>
                        </g>
                    </g>
                </g>
                <g id="data" transform="translate(128.000000, 20.000000)">
                    <path d="M53.2652893,46.9282837 L3.67165378,46.9282837 C2.10436252,46.9282837 0.834091242,45.6580124 0.834091242,44.091156 L0.834091242,3.72731784 C0.834091242,2.16002658 2.10436252,0.889755305 3.67165378,0.889755305 L53.2652893,0.889755305 C54.8321457,0.889755305 56.102417,2.16002658 56.102417,3.72731784 L56.102417,44.091156 C56.102417,45.6580124 54.8321457,46.9282837 53.2652893,46.9282837 Z" id="Path" fill="#FFD86E"></path>
                    <path d="M56.1028518,3.72731784 L56.1028518,44.091156 C56.1028518,45.6580124 54.8325806,46.9282837 53.2657242,46.9282837 L49.7997666,46.9282837 C51.3670578,46.9282837 52.6368943,45.6580124 52.6368943,44.091156 L52.6368943,3.72731784 C52.6368943,2.16046143 51.3670578,0.890190152 49.7997666,0.890190152 L53.2657242,0.890190152 C54.8325806,0.890190152 56.1028518,2.16046143 56.1028518,3.72731784 Z" id="Path" fill="#FFB509"></path>
                    <path d="M56.102417,40.0924759 L0.834091242,40.0924759 L0.834091242,44.091156 C0.834091242,45.6580124 2.10436252,46.9282837 3.67165378,46.9282837 L53.2652893,46.9282837 C54.8321457,46.9282837 56.102417,45.6580124 56.102417,44.091156 L56.102417,40.0924759 Z" id="Path" fill="#838383"></path>
                    <path d="M56.1028518,40.0924759 L56.1028518,44.091156 C56.1028518,45.6580124 54.8325806,46.9282837 53.2657242,46.9282837 L49.7997666,46.9282837 C51.3670578,46.9282837 52.6368943,45.6580124 52.6368943,44.091156 L52.6368943,40.0924759 L56.1028518,40.0924759 Z" id="Path" fill="#5A5A5A"></path>
                    <path d="M56.1659088,10.568779 L0.895843506,10.568779 L0.895843506,3.72688288 C0.895843506,2.16002658 2.16611478,0.889755305 3.73297119,0.889755305 L53.3287812,0.889755305 C54.8956375,0.889755305 56.1659088,2.16002658 56.1659088,3.72688288 L56.1659088,10.568779 Z" id="Path" fill="#ACACAC"></path>
                    <path d="M56.1663437,3.72644803 L56.1663437,10.5692139 L52.6368943,10.5692139 L52.6368943,3.72644803 C52.6368943,2.16046143 51.3670578,0.890190152 49.7997666,0.890190152 L53.3287812,0.890190152 C54.8960723,0.890190152 56.1663437,2.16046143 56.1663437,3.72644803 Z" id="Path" fill="#9C9C9C"></path>
                    <polygon id="Path" fill="#5A5A5A" points="20.7379074 46.9282837 36.1986008 46.9282837 36.1986008 51.5884094 20.7379074 51.5884094"></polygon>
                    <path d="M41.2083664,56.1598206 L15.7281418,56.1598206 C15.4211197,56.1598206 15.171936,55.9106369 15.171936,55.6036148 L15.171936,53.8014908 C15.171936,52.5794907 16.1630173,51.5884094 17.3850174,51.5884094 L39.5519257,51.5884094 C40.7739258,51.5884094 41.7645722,52.5794907 41.7645722,53.8014908 L41.7645722,55.6036148 C41.7645722,55.9110718 41.5158233,56.1598206 41.2083664,56.1598206 Z" id="Path" fill="#838383"></path>
                    <path d="M41.7645722,53.8010559 L41.7645722,55.6040497 C41.7645722,55.9110718 41.5153885,56.1602554 41.2083664,56.1602554 L39.2453384,56.1602554 L39.2453384,53.8010559 C39.2453384,52.5799255 38.2542573,51.5888443 37.0331269,51.5888443 L39.5523606,51.5888443 C40.7739258,51.5888443 41.7645722,52.5794907 41.7645722,53.8010559 Z" id="Path" fill="#5A5A5A"></path>
                    <polygon id="Path" fill="#64DCFC" points="32.8948516 30.6835098 50.9587097 30.6835098 50.9587097 34.1072846 32.8948516 34.1072846"></polygon>
                    <polygon id="Path" fill="#64DCFC" points="32.8948516 39.774582 50.9587097 39.774582 50.9587097 43.1987915 32.8948516 43.1987915"></polygon>
                    <polygon id="Path" fill="#00D1FC" points="48.8230362 30.6835098 50.9587097 30.6835098 50.9587097 34.1072846 48.8230362 34.1072846"></polygon>
                    <polygon id="Path" fill="#00D1FC" points="48.8230362 39.774582 50.9587097 39.774582 50.9587097 43.1987915 48.8230362 43.1987915"></polygon>
                    <g id="Group" transform="translate(30.503906, 24.937500)" fill="#0396FD">
                        <path d="M21.9507751,5.7460098 L0.895408658,5.7460098 C0.450096158,5.7460098 0.0887145996,5.3850632 0.0887145996,4.9397507 L0.0887145996,0.885406494 C0.0887145996,0.440093994 0.450096158,0.0787124355 0.895408658,0.0787124355 L21.9507751,0.0787124355 C22.3960876,0.0787124355 22.7574692,0.440093994 22.7574692,0.885406494 L22.7574692,4.9397507 C22.7574692,5.3850632 22.3960876,5.7460098 21.9507751,5.7460098 Z" id="Path"></path>
                        <path d="M21.9507751,14.837082 L0.895408658,14.837082 C0.450096158,14.837082 0.0887145996,14.4761353 0.0887145996,14.0308228 L0.0887145996,9.97647855 C0.0887145996,9.53116605 0.450096158,9.1697846 0.895408658,9.1697846 L21.9507751,9.1697846 C22.3960876,9.1697846 22.7574692,9.53116605 22.7574692,9.97647855 L22.7574692,14.0308228 C22.7574692,14.4761353 22.3960876,14.837082 21.9507751,14.837082 Z" id="Path"></path>
                        <path d="M21.9507751,23.928154 L0.895408658,23.928154 C0.450096158,23.928154 0.0887145996,23.5672073 0.0887145996,23.1218948 L0.0887145996,19.0675507 C0.0887145996,18.6218033 0.450096158,18.2608567 0.895408658,18.2608567 L21.9507751,18.2608567 C22.3960876,18.2608567 22.7574692,18.6218033 22.7574692,19.0675507 L22.7574692,23.1218948 C22.7574692,23.5672073 22.3960876,23.928154 21.9507751,23.928154 Z" id="Path"></path>
                    </g>
                    <path d="M53.2609405,25.8229065 L53.2609405,29.8772507 C53.2609405,30.3221284 52.9008637,30.6835098 52.4546814,30.6835098 L50.5838471,30.6835098 C51.0300293,30.6835098 51.3901062,30.3221284 51.3901062,29.8772507 L51.3901062,25.8229065 C51.3901062,25.3780288 51.0300293,25.0166474 50.5838471,25.0166474 L52.4546814,25.0166474 C52.9008637,25.0166474 53.2609405,25.3780288 53.2609405,25.8229065 Z" id="Path" fill="#0077F0"></path>
                    <path d="M53.2609405,34.9135437 L53.2609405,38.9678879 C53.2609405,39.4136353 52.9008637,39.774147 52.4546814,39.774147 L50.5838471,39.774147 C51.0300293,39.774147 51.3901062,39.4136353 51.3901062,38.9678879 L51.3901062,34.9135437 C51.3901062,34.468666 51.0300293,34.1072846 50.5838471,34.1072846 L52.4546814,34.1072846 C52.9008637,34.1072846 53.2609405,34.468666 53.2609405,34.9135437 Z" id="Path" fill="#0077F0"></path>
                    <path d="M53.2609405,44.0054856 L53.2609405,48.0593948 C53.2609405,48.5042725 52.9008637,48.8660889 52.4546814,48.8660889 L50.5838471,48.8660889 C51.0300293,48.8660889 51.3901062,48.5042725 51.3901062,48.0593948 L51.3901062,44.0054856 C51.3901062,43.5593033 51.0300293,43.1987915 50.5838471,43.1987915 L52.4546814,43.1987915 C52.9008637,43.1987915 53.2609405,43.5593033 53.2609405,44.0054856 Z" id="Path" fill="#0077F0"></path>
                    <path d="M7.76600641,5.70556641 C7.76600641,6.5970611 7.04367826,7.31982422 6.15218356,7.31982422 C5.26068875,7.31982422 4.5383606,6.5970611 4.5383606,5.70556641 C4.5383606,4.81450656 5.26068875,4.09174344 6.15218356,4.09174344 C7.04367826,4.09174344 7.76600641,4.81450656 7.76600641,5.70556641 Z" id="Path" fill="#FF6B81"></path>
                    <path d="M13.9990769,5.70556641 C13.9990769,6.5970611 13.2763138,7.31982422 12.3852539,7.31982422 C11.4937592,7.31982422 10.7709961,6.5970611 10.7709961,5.70556641 C10.7709961,4.81450656 11.4937592,4.09174344 12.3852539,4.09174344 C13.2763138,4.09174344 13.9990769,4.81450656 13.9990769,5.70556641 Z" id="Path" fill="#FFD86E"></path>
                    <path d="M20.2317124,5.70556641 C20.2317124,6.5970611 19.5093842,7.31982422 18.6178894,7.31982422 C17.7268296,7.31982422 17.0040664,6.5970611 17.0040664,5.70556641 C17.0040664,4.81450656 17.7268296,4.09174344 18.6178894,4.09174344 C19.5093842,4.09174344 20.2317124,4.81450656 20.2317124,5.70556641 Z" id="Path" fill="#80E0DC"></path>
                    <path d="M7.76557157,5.7064361 C7.76557157,6.5970611 7.04367826,7.31895452 6.15261841,7.31895452 C5.72122192,7.31895452 5.32852933,7.14978787 5.03933716,6.87320706 C5.91256714,6.85407254 6.61532593,6.14000705 6.61532593,5.26155856 C6.61532593,4.80102539 6.42311091,4.38702393 6.11478421,4.09348294 C6.12739557,4.09217829 6.14044189,4.09217829 6.15261841,4.09217829 C7.04367826,4.09217829 7.76557157,4.81407171 7.76557157,5.7064361 Z" id="Path" fill="#FF435F"></path>
                    <path d="M13.998642,5.7064361 C13.998642,6.5970611 13.2767486,7.31895452 12.3848191,7.31895452 C11.9534226,7.31895452 11.5615997,7.14978787 11.2715378,6.87320706 C12.1456375,6.85407254 12.8488311,6.14000705 12.8488311,5.26155856 C12.8488311,4.80102539 12.6561814,4.38702393 12.3482895,4.09348294 C12.360466,4.09217829 12.3726425,4.09217829 12.3848191,4.09217829 C13.2767486,4.09217829 13.998642,4.81407171 13.998642,5.7064361 Z" id="Path" fill="#FFB509"></path>
                    <path d="M20.2321472,5.7064361 C20.2321472,6.5970611 19.5089493,7.31895452 18.6178894,7.31895452 C18.1864929,7.31895452 17.795105,7.14978787 17.5046082,6.87320706 C18.3791428,6.85407254 19.0805969,6.14000705 19.0805969,5.26155856 C19.0805969,4.80102539 18.8883819,4.38702393 18.5800552,4.09348294 C18.5926666,4.09217829 18.6057129,4.09217829 18.6178894,4.09217829 C19.5089493,4.09217829 20.2321472,4.81407171 20.2321472,5.7064361 Z" id="Path" fill="#00A8B0"></path>
                    <path d="M6.56401068,20.8235779 C6.72665405,20.9862213 6.94017795,21.067978 7.15370173,21.067978 C7.36722562,21.067978 7.58074951,20.9866562 7.74382785,20.8235779 C8.06954956,20.4978562 8.06954956,19.9694824 7.74382785,19.6437607 L5.71817777,17.6181106 L7.74382785,15.5928955 C8.06954956,15.2667388 8.06954956,14.7388 7.74382785,14.4130783 C7.41810602,14.0873565 6.88973239,14.0873565 6.56401068,14.4130783 L3.94866943,17.0284195 C3.79211426,17.1849746 3.70426946,17.3971939 3.70426946,17.6181106 C3.70426946,17.8394623 3.79211426,18.0516816 3.94866943,18.2082368 L6.56401068,20.8235779 Z" id="Path" fill="#000000"></path>
                    <path d="M14.8423004,17.6181106 L12.8166504,19.6437607 C12.4909287,19.9694824 12.4909287,20.4978562 12.8170852,20.8235779 C12.9797287,20.9862213 13.1932525,21.067978 13.4067764,21.067978 C13.6203003,21.067978 13.8338242,20.9862213 13.9964676,20.8235779 L16.6122437,18.2078018 C16.9379654,17.8820801 16.9379654,17.3537063 16.6122437,17.0284195 L13.9964676,14.4126435 C13.6707458,14.0869217 13.1428071,14.0869217 12.8170852,14.4126435 C12.4909287,14.7388 12.4909287,15.2667388 12.8170852,15.5924607 L14.8423004,17.6181106 Z" id="Path" fill="#000000"></path>
                    <path d="M9.03671265,21.0101394 C9.13673395,21.0492783 9.24023438,21.067978 9.34156034,21.067978 C9.67467502,21.067978 9.98908991,20.8670654 10.118248,20.5387344 L12.1730347,15.3076172 C12.3417664,14.87883 12.1304169,14.3948135 11.7016296,14.2260818 C11.2732773,14.0577851 10.788826,14.2686997 10.6205292,14.6974868 L8.56530762,19.9286041 C8.39701078,20.3573914 8.60792536,20.8418427 9.03671265,21.0101394 Z" id="Path" fill="#000000"></path>
                    <path d="M5.01063532,25.9620667 L10.6305313,25.9620667 C11.0910645,25.9620667 11.4646225,25.5885086 11.4646225,25.1275406 C11.4646225,24.6670074 11.0910645,24.2934494 10.6305313,24.2934494 L5.01063532,24.2934494 C4.54966741,24.2934494 4.17654419,24.6670074 4.17654419,25.1275406 C4.17654419,25.5885086 4.54966741,25.9620667 5.01063532,25.9620667 Z" id="Path" fill="#000000"></path>
                    <path d="M23.5741653,24.2934494 L13.6937942,24.2934494 C13.2332612,24.2934494 12.8597031,24.6670074 12.8597031,25.1275406 C12.8597031,25.5885086 13.2332612,25.9620667 13.6937942,25.9620667 L23.5741653,25.9620667 C24.0351333,25.9620667 24.4086914,25.5885086 24.4086914,25.1275406 C24.4086914,24.6670074 24.0351333,24.2934494 23.5741653,24.2934494 Z" id="Path" fill="#000000"></path>
                    <path d="M5.01063532,29.4806443 L7.40462497,29.4806443 C7.86515814,29.4806443 8.2387161,29.1070862 8.2387161,28.6461182 C8.2387161,28.185585 7.86515814,27.8120269 7.40462497,27.8120269 L5.01063532,27.8120269 C4.54966741,27.8120269 4.17654419,28.185585 4.17654419,28.6461182 C4.17654419,29.1070862 4.54966741,29.4806443 5.01063532,29.4806443 Z" id="Path" fill="#000000"></path>
                    <path d="M20.5222092,27.8120269 C20.0612412,27.8120269 19.688118,28.185585 19.688118,28.6461182 C19.688118,29.1070862 20.0612412,29.4806443 20.5222092,29.4806443 L21.9799118,29.4806443 C22.4408798,29.4806443 22.8144379,29.1070862 22.8144379,28.6461182 C22.8144379,28.185585 22.4408798,27.8120269 21.9799118,27.8120269 L20.5222092,27.8120269 Z" id="Path" fill="#000000"></path>
                    <path d="M18.3265229,28.6461182 C18.3265229,28.185585 17.9529648,27.8120269 17.4924316,27.8120269 L10.3317719,27.8120269 C9.87080378,27.8120269 9.49768066,28.185585 9.49768066,28.6461182 C9.49768066,29.1070862 9.87080378,29.4806443 10.3317719,29.4806443 L17.4924316,29.4806443 C17.9529648,29.4806443 18.3265229,29.1070862 18.3265229,28.6461182 Z" id="Path" fill="#000000"></path>
                    <path d="M23.7911682,28.6461182 C23.7911682,29.1070862 24.1647263,29.4806443 24.6252593,29.4806443 L27.3558426,29.4806443 C27.8168106,29.4806443 28.1903687,29.1070862 28.1903687,28.6461182 C28.1903687,28.185585 27.8168106,27.8120269 27.3558426,27.8120269 L24.6252593,27.8120269 C24.1647263,27.8120269 23.7911682,28.185585 23.7911682,28.6461182 Z" id="Path" fill="#000000"></path>
                    <path d="M19.248024,18.287384 L22.1282043,18.287384 C22.5891724,18.287384 22.9627304,17.913826 22.9627304,17.4528579 C22.9627304,16.9923248 22.5891724,16.6187668 22.1282043,16.6187668 L19.248024,16.6187668 C18.7870559,16.6187668 18.413498,16.9923248 18.413498,17.4528579 C18.413498,17.913826 18.7870559,18.287384 19.248024,18.287384 Z" id="Path" fill="#000000"></path>
                    <path d="M25.3541108,18.287384 L42.927864,18.287384 C43.3888321,18.287384 43.7619553,17.913826 43.7619553,17.4528579 C43.7619553,16.9923248 43.3888321,16.6187668 42.927864,16.6187668 L25.3541108,16.6187668 C24.8931426,16.6187668 24.5195847,16.9923248 24.5195847,17.4528579 C24.5195847,17.913826 24.8931426,18.287384 25.3541108,18.287384 Z" id="Path" fill="#000000"></path>
                    <path d="M40.2585984,20.2891159 L33.1396866,20.2891159 C32.6791534,20.2891159 32.3055954,20.6626739 32.3055954,21.123642 C32.3055954,21.5841751 32.6791534,21.9577332 33.1396866,21.9577332 L40.2585984,21.9577332 C40.7191314,21.9577332 41.0926895,21.5841751 41.0926895,21.123642 C41.0926895,20.6626739 40.7191314,20.2891159 40.2585984,20.2891159 Z" id="Path" fill="#000000"></path>
                    <path d="M30.4704209,20.2891159 L28.0233765,20.2891159 C27.5624084,20.2891159 27.1892852,20.6626739 27.1892852,21.123642 C27.1892852,21.5841751 27.5624084,21.9577332 28.0233765,21.9577332 L30.4704209,21.9577332 C30.9313889,21.9577332 31.304512,21.5841751 31.304512,21.123642 C31.304512,20.6626739 30.9313889,20.2891159 30.4704209,20.2891159 Z" id="Path" fill="#000000"></path>
                    <path d="M19.248024,21.9577332 L25.2427826,21.9577332 C25.7033157,21.9577332 26.0768738,21.5841751 26.0768738,21.123642 C26.0768738,20.6626739 25.7033157,20.2891159 25.2427826,20.2891159 L19.248024,20.2891159 C18.7870559,20.2891159 18.413498,20.6626739 18.413498,21.123642 C18.413498,21.5841751 18.7870559,21.9577332 19.248024,21.9577332 Z" id="Path" fill="#000000"></path>
                    <path d="M17.5028687,31.301033 L11.8834076,31.301033 C11.4224395,31.301033 11.0488816,31.6745911 11.0488816,32.1351242 C11.0488816,32.5956573 11.4224395,32.9692154 11.8834076,32.9692154 L17.5028687,32.9692154 C17.9634018,32.9692154 18.3369599,32.5956573 18.3369599,32.1351242 C18.3369599,31.6745911 17.9634018,31.301033 17.5028687,31.301033 Z" id="Path" fill="#000000"></path>
                    <path d="M9.32807917,31.301033 L5.01063532,31.301033 C4.54966741,31.301033 4.17654419,31.6745911 4.17654419,32.1351242 C4.17654419,32.5956573 4.54966741,32.9692154 5.01063532,32.9692154 L9.32807917,32.9692154 C9.7890473,32.9692154 10.1621704,32.5956573 10.1621704,32.1351242 C10.1621704,31.6745911 9.7890473,31.301033 9.32807917,31.301033 Z" id="Path" fill="#000000"></path>
                    <path d="M27.6898269,31.301033 L20.3486938,31.301033 C19.8877258,31.301033 19.5146026,31.6745911 19.5146026,32.1351242 C19.5146026,32.5956573 19.8877258,32.9692154 20.3486938,32.9692154 L27.6898269,32.9692154 C28.1503601,32.9692154 28.5239182,32.5956573 28.5239182,32.1351242 C28.5239182,31.6745911 28.1503601,31.301033 27.6898269,31.301033 Z" id="Path" fill="#000000"></path>
                    <path d="M37.6175995,27.01577 L33.6032639,27.01577 C33.1427307,27.01577 32.7691726,27.3893281 32.7691726,27.8498611 C32.7691726,28.3108291 33.1427307,28.6843872 33.6032639,28.6843872 L37.6175995,28.6843872 C38.0785674,28.6843872 38.4516907,28.3108291 38.4516907,27.8498611 C38.4516907,27.3893281 38.0785674,27.01577 37.6175995,27.01577 Z" id="Path" fill="#000000"></path>
                    <path d="M44.5834351,28.6843872 L50.2502976,28.6843872 C50.7112656,28.6843872 51.0848237,28.3108291 51.0848237,27.8498611 C51.0848237,27.3893281 50.7112656,27.01577 50.2502976,27.01577 L44.5834351,27.01577 C44.122467,27.01577 43.7493438,27.3893281 43.7493438,27.8498611 C43.7493438,28.3108291 44.1229019,28.6843872 44.5834351,28.6843872 Z" id="Path" fill="#000000"></path>
                    <path d="M41.7497864,27.01577 L40.4512481,27.01577 C39.9902802,27.01577 39.6167221,27.3893281 39.6167221,27.8498611 C39.6167221,28.3108291 39.9902802,28.6843872 40.4512481,28.6843872 L41.7497864,28.6843872 C42.2107544,28.6843872 42.5838775,28.3108291 42.5838775,27.8498611 C42.5838775,27.3893281 42.2107544,27.01577 41.7497864,27.01577 Z" id="Path" fill="#000000"></path>
                    <path d="M33.6032639,37.7750244 L37.6175995,37.7750244 C38.0785674,37.7750244 38.4516907,37.4019013 38.4516907,36.9409332 C38.4516907,36.4804001 38.0785674,36.106842 37.6175995,36.106842 L33.6032639,36.106842 C33.1427307,36.106842 32.7691726,36.4804001 32.7691726,36.9409332 C32.7691726,37.4019013 33.1427307,37.7750244 33.6032639,37.7750244 Z" id="Path" fill="#000000"></path>
                    <path d="M44.5834351,37.7750244 L50.2502976,37.7750244 C50.7112656,37.7750244 51.0848237,37.4019013 51.0848237,36.9409332 C51.0848237,36.4804001 50.7112656,36.106842 50.2502976,36.106842 L44.5834351,36.106842 C44.122467,36.106842 43.7493438,36.4804001 43.7493438,36.9409332 C43.7493438,37.4019013 44.1229019,37.7750244 44.5834351,37.7750244 Z" id="Path" fill="#000000"></path>
                    <path d="M40.4512481,37.7750244 L41.7497864,37.7750244 C42.2107544,37.7750244 42.5843125,37.4019013 42.5843125,36.9409332 C42.5843125,36.4804001 42.2107544,36.106842 41.7497864,36.106842 L40.4512481,36.106842 C39.9902802,36.106842 39.617157,36.4804001 39.617157,36.9409332 C39.617157,37.4019013 39.9902802,37.7750244 40.4512481,37.7750244 Z" id="Path" fill="#000000"></path>
                    <path d="M37.6175995,45.1979141 L33.6032639,45.1979141 C33.1427307,45.1979141 32.7691726,45.5714722 32.7691726,46.0320053 C32.7691726,46.4925385 33.1427307,46.8660965 33.6032639,46.8660965 L37.6175995,46.8660965 C38.0785674,46.8660965 38.4516907,46.4925385 38.4516907,46.0320053 C38.4516907,45.5714722 38.0785674,45.1979141 37.6175995,45.1979141 Z" id="Path" fill="#000000"></path>
                    <path d="M50.2502976,45.1979141 L44.5834351,45.1979141 C44.122467,45.1979141 43.7493438,45.5714722 43.7493438,46.0320053 C43.7493438,46.4925385 44.122467,46.8660965 44.5834351,46.8660965 L50.2502976,46.8660965 C50.7112656,46.8660965 51.0848237,46.4925385 51.0848237,46.0320053 C51.0848237,45.5714722 50.7112656,45.1979141 50.2502976,45.1979141 Z" id="Path" fill="#000000"></path>
                    <path d="M41.7497864,45.1979141 L40.4512481,45.1979141 C39.9902802,45.1979141 39.6167221,45.5714722 39.6167221,46.0320053 C39.6167221,46.4925385 39.9902802,46.8660965 40.4512481,46.8660965 L41.7497864,46.8660965 C42.2107544,46.8660965 42.5838775,46.4925385 42.5838775,46.0320053 C42.5838775,45.5714722 42.2107544,45.1979141 41.7497864,45.1979141 Z" id="Path" fill="#000000"></path>
                    <path d="M53.3287812,0.0556640625 L3.67165378,0.0556640625 C1.64730835,0.0556640625 -2.84217094e-14,1.70253756 -2.84217094e-14,3.72731784 L-2.84217094e-14,44.091156 C-2.84217094e-14,46.1155014 1.64730835,47.7623749 3.67165378,47.7623749 L6.81101995,47.7623749 C7.27155301,47.7623749 7.64511108,47.3892517 7.64511108,46.9282837 C7.64511108,46.4677505 7.27155301,46.0941924 6.81101995,46.0941924 L3.67165378,46.0941924 C2.56707004,46.0941924 1.66861722,45.1957397 1.66861722,44.091156 L1.66861722,40.9265671 L32.0607605,40.9265671 L32.0607605,42.3642654 L31.3993149,42.3642654 C30.4943389,42.3642654 29.7585297,43.1000747 29.7585297,44.0050507 L29.7585297,46.0941924 L11.8829727,46.0941924 C11.4224395,46.0941924 11.0488816,46.4677505 11.0488816,46.9282837 C11.0488816,47.3892517 11.4224395,47.7623749 11.8829727,47.7623749 L19.9038162,47.7623749 L19.9038162,50.7543183 L17.3850174,50.7543183 C15.7046585,50.7543183 14.3378448,52.1215668 14.3378448,53.8014908 L14.3378448,55.6036148 C14.3378448,56.3703003 14.9614563,56.9939117 15.7281418,56.9939117 L41.2083664,56.9939117 C41.9750518,56.9939117 42.5986633,56.3703003 42.5986633,55.6036148 L42.5986633,53.8014908 C42.5986633,52.1215668 41.2318496,50.7543183 39.5514908,50.7543183 L37.0326919,50.7543183 L37.0326919,49.6997452 L52.4546814,49.6997452 C53.3592224,49.6997452 54.0950317,48.9639358 54.0950317,48.05896 L54.0950317,47.6662674 C55.7210312,47.2887954 56.9365082,45.8297882 56.9365082,44.091156 L56.9995652,3.72688288 C57,1.70253756 55.3531265,0.0556640625 53.3287812,0.0556640625 Z M31.4271469,38.9404907 L31.4271469,34.9418106 L52.4268494,34.9418106 L52.4268494,38.9404907 L31.4271469,38.9404907 Z M33.7289429,33.2731934 L33.7289429,31.5180359 L50.1246186,31.5180359 L50.1246186,33.2731934 L33.7289429,33.2731934 Z M50.1246186,40.6086731 L50.1246186,42.3642654 L33.7289429,42.3642654 L33.7289429,40.6086731 L50.1246186,40.6086731 Z M21.5719986,47.7623749 L29.7585297,47.7623749 L29.7585297,48.0593948 C29.7585297,48.9639358 30.4943389,49.6997452 31.3993149,49.6997452 L35.3645096,49.6997452 L35.3645096,50.7543183 L21.5719986,50.7543183 L21.5719986,47.7623749 Z M39.5519257,52.4229355 C40.312088,52.4229355 40.930481,53.0413284 40.930481,53.8014908 L40.930481,55.3257294 L16.0060273,55.3257294 L16.0060273,53.8014908 C16.0060273,53.0413284 16.624855,52.4229355 17.3850174,52.4229355 L39.5519257,52.4229355 Z M52.4268494,48.0311279 L31.4271469,48.0311279 L31.4271469,44.0328827 L52.4268494,44.0328827 L52.4268494,48.0311279 Z M55.2683257,44.091156 C55.2683257,44.8991547 54.7864838,45.5953903 54.0954666,45.9115449 L54.0954666,44.0046158 C54.0954666,43.1000747 53.3592224,42.3642654 52.4546814,42.3642654 L51.7932358,42.3642654 L51.7932358,40.9265671 L55.2683257,40.9265671 L55.2683257,44.091156 Z M55.2683257,39.2583847 L54.0680694,39.2583847 C54.0850296,39.1640167 54.0954666,34.9139785 54.0954666,34.9139785 C54.0954666,34.0090027 53.3592224,33.2731934 52.4546814,33.2731934 L51.7932358,33.2731934 L51.7932358,31.5180359 L52.4546814,31.5180359 C53.3592224,31.5180359 54.0954666,30.7817917 54.0954666,29.8772507 L54.0954666,25.8229065 C54.0954666,24.9183655 53.3592224,24.1821213 52.4546814,24.1821213 L47.7428055,24.1821213 C47.2818374,24.1821213 46.9087143,24.5556793 46.9087143,25.0166474 C46.9087143,25.4771805 47.2818374,25.8507385 47.7428055,25.8507385 L52.4268494,25.8507385 L52.4268494,29.8494187 L31.4271469,29.8494187 L31.4271469,25.8507385 L42.5521316,25.8507385 C43.0130996,25.8507385 43.3862229,25.4771805 43.3862229,25.0166474 C43.3862229,24.5556793 43.0130996,24.1821213 42.5521316,24.1821213 L31.3993149,24.1821213 C30.4943389,24.1821213 29.7585297,24.9183655 29.7585297,25.8229065 L29.7585297,29.8772507 C29.7585297,30.7817917 30.4943389,31.5180359 31.3993149,31.5180359 L32.0607605,31.5180359 L32.0607605,33.2731934 L31.3993149,33.2731934 C30.4943389,33.2731934 29.7585297,34.0094375 29.7585297,34.9139785 C29.7585297,34.9139785 29.7689667,39.1640167 29.7859268,39.2583847 L1.66861722,39.2583847 L1.66861722,11.4033051 L55.2683257,11.4033051 L55.2683257,39.2583847 Z M55.2683257,9.73468778 L1.72993464,9.73468778 L1.72993464,3.72688288 C1.72993464,2.6227341 2.62838745,1.72428128 3.73297119,1.72428128 L53.2652893,1.72428128 C54.369873,1.72428128 55.2683257,2.6227341 55.2683257,3.72731784 L55.2683257,9.73468778 Z" id="Shape" fill="#000000" fill-rule="nonzero"></path>
                    <path d="M6.15218356,3.25765231 C4.80233004,3.25765231 3.70426946,4.35571289 3.70426946,5.70556641 C3.70426946,7.05541992 4.80233004,8.15391546 6.15218356,8.15391546 C7.50203708,8.15391546 8.6005325,7.05541992 8.6005325,5.70556641 C8.6005325,4.35571289 7.50203708,3.25765231 6.15218356,3.25765231 Z M6.15218356,6.48529813 C5.72252658,6.48529813 5.37245173,6.13565824 5.37245173,5.70556641 C5.37245173,5.27590942 5.72252658,4.92583468 6.15218356,4.92583468 C6.58227539,4.92583468 6.93191528,5.27590942 6.93191528,5.70556641 C6.93191528,6.13565824 6.58227539,6.48529813 6.15218356,6.48529813 Z" id="Shape" fill="#000000" fill-rule="nonzero"></path>
                    <path d="M12.3852539,3.25765231 C11.0354004,3.25765231 9.93690485,4.35571289 9.93690485,5.70556641 C9.93690485,7.05541992 11.0354004,8.15391546 12.3852539,8.15391546 C13.7351074,8.15391546 14.833168,7.05541992 14.833168,5.70556641 C14.833168,4.35571289 13.7346726,3.25765231 12.3852539,3.25765231 Z M12.3852539,6.48529813 C11.9551621,6.48529813 11.6055222,6.13565824 11.6055222,5.70556641 C11.6055222,5.27590942 11.9551621,4.92583468 12.3852539,4.92583468 C12.8149109,4.92583468 13.1649856,5.27590942 13.1649856,5.70556641 C13.1649856,6.13565824 12.8149109,6.48529813 12.3852539,6.48529813 Z" id="Shape" fill="#000000" fill-rule="nonzero"></path>
                    <path d="M18.6178894,3.25765231 C17.2680359,3.25765231 16.1699753,4.35571289 16.1699753,5.70556641 C16.1699753,7.05541992 17.2680359,8.15391546 18.6178894,8.15391546 C19.9677429,8.15391546 21.0662383,7.05541992 21.0662383,5.70556641 C21.0662383,4.35571289 19.9677429,3.25765231 18.6178894,3.25765231 Z M18.6178894,6.48529813 C18.1882324,6.48529813 17.8381577,6.13565824 17.8381577,5.70556641 C17.8381577,5.27590942 18.1882324,4.92583468 18.6178894,4.92583468 C19.0479812,4.92583468 19.3976211,5.27590942 19.3976211,5.70556641 C19.3976211,6.13565824 19.0479812,6.48529813 18.6178894,6.48529813 Z" id="Shape" fill="#000000" fill-rule="nonzero"></path>
                </g>
            </g>
        </g>
    </g>
</svg>