<?xml version="1.0" encoding="UTF-8"?>
<svg width="145px" height="151px" viewBox="0 0 145 151" version="1.1" xmlns="http://www.w3.org/2000/svg" xmlns:xlink="http://www.w3.org/1999/xlink">
    <!-- Generator: Sketch 52.3 (67297) - http://www.bohemiancoding.com/sketch -->
    <title>Group 53</title>
    <desc>Created with Sketch.</desc>
    <g id="Page-1" stroke="none" stroke-width="1" fill="none" fill-rule="evenodd">
        <g id="Group-53">
            <g id="Group-37">
                <g id="Group-29">
                    <g id="Group-19">
                        <g id="Group-15">
                            <g id="Group-4">
                                <g id="Group-2">
                                    <ellipse id="Oval" fill="#FFF60F" cx="72.5" cy="75.41011" rx="72.5" ry="75.41011"></ellipse>
                                    <ellipse id="Oval" fill="#FFFFFF" cx="72.8302961" cy="70.2835455" rx="66.5546697" ry="66.6453385"></ellipse>
                                </g>
                            </g>
                        </g>
                    </g>
                </g>
            </g>
            <g id="Group-52" transform="translate(28.000000, 32.000000)">
                <path d="M82,75 C79.6572028,74.9353702 77.3177459,74.6192714 75,74.046416 L75,74 C77.3164098,74.5840188 79.6551987,74.9153937 81.9946557,74.9900118 C81.9963258,74.993537 81.9983299,74.9970623 82,75" id="Fill-30" fill="#F5F8FA"></path>
                <path d="M81.0158656,75.003078 C81.0070889,75.003078 80.9983122,75.003078 80.9895355,75.002736 C80.9878476,75.001026 80.9858222,74.998974 80.9841344,74.996922 C80.9945989,74.997264 81.0054011,74.997606 81.0158656,74.997606 L81.0158656,75.003078" id="Fill-31" fill="#EBF1F5"></path>
                <polyline id="Fill-44" fill="#7876AA" points="29.9895607 4.76908141 21.8563294 7.97374139 21.8549824 7.97411123 21.788979 8 21.7751722 7.96116684 21.7731517 7.95487957 19 0.0935694143 19.050176 0 21.8253482 7.86981647 21.8334303 7.89200684 21.9273841 7.85539272 30 4.67514216 29.9895607 4.76908141"></polyline>
                <path d="M71.2074679,19 C71.2074679,19 71.7290523,21.0299471 71.9976683,21.7017549 C71.9976683,21.7017549 72.1045931,22.7437274 70.8703008,22.966422 C69.635636,23.1887442 70.1922411,22.2342855 70.1922411,22.2342855 C70.1922411,22.2342855 70.6434116,21.4008565 70,19.2178534 L71.2074679,19" id="Fill-65" fill="#E79C86"></path>
                <path d="M67.0048763,22.7356473 L67.0145696,22.764697 L67.025426,22.7875419 L67.0405475,22.8134891 L67.0533426,22.8315394 L67.0773818,22.8619993 L67.0983192,22.8842801 L67.1584173,22.9420974 C67.2103731,22.986659 67.2906332,23.0078117 67.3705056,22.9973764 L72,22.3898716 L71.9220663,22.1425264 L71.8774774,21.996996 C71.9271068,21.7290621 71.7700762,21.3745433 71.566518,21 C70.4079812,21.9467936 69.7705534,21.3181362 69.7453509,21.2919069 L69.7445755,21.2913428 L69.7399227,21.3026242 L69.7220871,21.340699 C69.6712945,21.4244636 69.5522614,21.522048 69.3905781,21.6235808 L69.3568456,21.6447335 C69.2855033,21.688449 69.2060187,21.7335747 69.1218813,21.7787004 L69.085047,21.7975968 C69.0109906,21.8356716 68.9338323,21.8740284 68.8547354,21.9115392 L68.8159625,21.9301535 C68.3394425,22.1543719 67.7877029,22.3591297 67.4306037,22.4555859 C67.3809743,22.4691236 67.3359976,22.480405 67.295286,22.4894302 C67.0382211,22.5458373 66.9812248,22.6414474 67.0048763,22.7356473" id="Fill-66" fill="#D0533F"></path>
                <path d="M68.0117532,24 L72,23.07596 L71.9288129,22.6769531 L71.888084,22.4421896 C71.8399176,22.4121617 71.7921054,22.379859 71.7467724,22.3452814 C71.5448986,22.1924121 71.3529414,22.052282 71.1170678,22.0122448 C70.6888829,21.9412698 70.2688438,22.1896823 69.9001585,22.4772221 C69.5314732,22.7661268 69.1776629,23.1068978 68.7622279,23.2579472 C68.6088746,23.3134533 68.4505631,23.3421163 68.2982723,23.4053568 C68.1757314,23.4563132 68.0450447,23.5477618 68.0103366,23.7079105 C67.99617,23.7734259 67.9993575,23.8421261 68.0036074,23.9085514 L68.0117532,24" id="Fill-67" fill="#B94035"></path>
                <path d="M67.0048763,23.6917145 L67.0145696,23.7255919 L67.025426,23.7522334 L67.0405475,23.7824929 L67.0533426,23.8035429 L67.0773818,23.8390649 L67.0983192,23.8650486 L67.1584173,23.9324745 C67.2103731,23.9844419 67.2906332,24.0091099 67.3705056,23.9969403 L72,23.2884742 L71.9220663,23.0000226 C71.8142774,22.9993648 71.7049376,23.0131789 71.6184738,23.0240329 C71.2272544,23.0743557 70.8391368,23.1605293 70.4533456,23.2299288 C69.9923348,23.3134712 69.5297731,23.3960269 69.0687623,23.4795693 C68.5623871,23.5703477 68.0005666,23.6548769 67.5542895,23.4325356 C67.5124147,23.4121434 67.4713153,23.388462 67.4306037,23.3651096 C67.3809743,23.3808972 67.3359976,23.3940535 67.295286,23.4045785 C67.0382211,23.4703599 66.9812248,23.5818595 67.0048763,23.6917145" id="Fill-68" fill="#D0CFCA"></path>
                <path d="M68.825141,21.9156917 C68.8720626,21.9758837 68.933162,22.0381277 69.0050635,22.0747217 C69.05131,22.0990037 69.1019448,22.1123417 69.1569681,22.1096057 L69.159331,22.1092637 L69.174859,22.0890857 L69.1549427,22.0709597 C69.0992443,22.0740377 69.0465841,22.0562537 69,22.0282097 C68.9426138,21.9919577 68.8933292,21.9409997 68.8545092,21.8900417 L68.825141,21.9156917" id="Fill-69" fill="#FFFFFE"></path>
                <path d="M68.8480954,21.9414719 C68.9223599,22.0201319 69.0195788,22.0875059 69.1343512,22.0810079 L69.1370517,22.0810079 L69.1519046,22.0608299 L69.1326633,22.0423619 C69.0344317,22.0481759 68.9473398,21.9890099 68.8801642,21.9185579 L68.8480954,21.9414719" id="Fill-70" fill="#FFFFFE"></path>
                <path d="M68.8722314,22.9645856 C68.9387318,23.0210156 69.0190725,23.0623976 69.1102152,23.0576096 L69.1125782,23.0579516 L69.1277686,23.0381156 L69.1078522,23.0196476 C69.0322375,23.0244356 68.9637117,22.9898936 68.905988,22.9420136 L68.8722314,22.9645856" id="Fill-71" fill="#FFFFFE"></path>
                <path d="M73.7530678,20.0182054 C73.7530678,20.0182054 73.8702802,22.1943309 74,22.9337798 C74,22.9337798 73.9088745,24.0183564 72.7056609,23.9997637 C71.5028046,23.9807836 72.202148,23.1173831 72.202148,23.1173831 C72.202148,23.1173831 72.7799907,22.3562427 72.5759411,20 L73.7530678,20.0182054" id="Fill-72" fill="#EFA58F"></path>
                <path d="M69,24.4983172 L69.0019223,24.5402891 L69.0065359,24.5743417 L69.0146096,24.61275 L69.0219144,24.6400713 L69.0376774,24.6867947 L69.0519025,24.7216393 L69.0957312,24.8127104 C69.1341775,24.8847753 69.2072254,24.9291229 69.2875782,24.9303108 L73.9511119,25 L73.9403469,24.6440309 L73.9349645,24.4345674 C74.0529945,24.0754306 73.9930183,23.5559295 73.8926735,23 C72.5178346,24.0774104 72.0622462,23.0867155 72.0445609,23.0455355 L72.043792,23.0447436 L72.0364872,23.0597901 L72.0091903,23.1080974 C71.9372958,23.213819 71.7961979,23.3250841 71.6124247,23.4331815 L71.5739784,23.4557513 C71.4928568,23.5016828 71.4044303,23.5484063 71.3102369,23.5939418 L71.2694839,23.6129479 C71.1875933,23.6509602 71.1022426,23.6889725 71.0157384,23.7250049 L70.9730631,23.7428232 C70.4505781,23.9586221 69.8600433,24.1332409 69.4874988,24.1961988 C69.4355963,24.2049099 69.3890763,24.2116413 69.3467854,24.2163928 C69.082275,24.2433182 69.0019223,24.3640863 69,24.4983172" id="Fill-73" fill="#DF5944"></path>
                <path d="M69,23.9440291 L73,24 L72.9902106,23.6950434 L72.985316,23.5155972 C72.9433616,23.4850676 72.9010576,23.4521635 72.8625994,23.4189202 C72.6895376,23.2703429 72.5241675,23.1322813 72.3018093,23.0596887 C71.8972992,22.92909 71.4536317,23.0332298 71.0536666,23.1760404 C70.6544008,23.3198687 70.2614282,23.5044031 69.8366402,23.5390032 C69.6800105,23.5512151 69.5219823,23.5427346 69.3653527,23.5610524 C69.2387903,23.575978 69.0989424,23.6190586 69.0416048,23.7296436 C69.0181802,23.7750987 69.0111878,23.8259814 69.0059435,23.8755071 L69,23.9440291" id="Fill-74" fill="#C74337"></path>
                <path d="M69,23.3758621 L69.0019413,23.4280788 L69.0066004,23.4704433 L69.0147538,23.5182266 L69.0221308,23.5522167 L69.0380494,23.6103448 L69.052415,23.6536946 L69.0966765,23.7669951 C69.1355024,23.8566502 69.2092716,23.9118227 69.2904178,23.9133005 L74,24 L73.9891287,23.5571429 C73.883134,23.5295567 73.7724802,23.5231527 73.6851219,23.5187192 C73.2898742,23.4970443 72.8888026,23.529064 72.4935549,23.5374384 C72.0214319,23.5477833 71.5485324,23.5566502 71.0764094,23.5665025 C70.5580836,23.5773399 69.9869545,23.564532 69.5986954,23.129064 C69.5621991,23.08867 69.5268675,23.0438424 69.4923125,23 C69.4398975,23.0108374 69.3929182,23.0192118 69.3502097,23.0251232 C69.0830874,23.0586207 69.0019413,23.208867 69,23.3758621" id="Fill-75" fill="#E0E0DB"></path>
                <path d="M71.8447198,23.882352 C71.879489,23.95041 71.9274234,24.023598 71.9915609,24.07353 C72.0320687,24.106362 72.0793279,24.129276 72.133676,24.137142 L72.136039,24.137142 L72.1552802,24.120384 L72.1387395,24.098838 C72.0837163,24.090972 72.0354444,24.063612 71.9949365,24.027018 C71.9456519,23.979822 71.9071694,23.920314 71.8784763,23.862858 L71.8447198,23.882352" id="Fill-76" fill="#FFFFFE"></path>
                <path d="M71.8621044,23.911593 C71.9198281,24.003249 72.0028693,24.088407 72.1162914,24.104823 L72.119667,24.104823 L72.1378956,24.088065 L72.1223676,24.066177 C72.0244735,24.052497 71.9505466,23.977941 71.8978864,23.895177 L71.8621044,23.911593" id="Fill-77" fill="#FFFFFE"></path>
                <path d="M70.8813457,23.938269 C70.9356937,24.006669 71.0069201,24.063441 71.0970501,24.076437 L71.0990755,24.077121 L71.1186543,24.060363 L71.1021136,24.038475 C71.027174,24.028215 70.9660746,23.981019 70.9188154,23.922879 L70.8813457,23.938269" id="Fill-78" fill="#FFFFFE"></path>
                <path d="M85,11.4546038 L85,60.5440392 C85,62.4526713 83.460525,64 81.5599135,64 L8.44008648,64 C6.53947502,64 5,62.4526713 5,60.5440392 L5,11.4546038 C5,9.54732869 6.53947502,8 8.44008648,8 L81.5599135,8 C83.460525,8 85,9.54732869 85,11.4546038" id="Fill-99" fill="#ACBFD9"></path>
                <polygon id="Fill-100" fill="#CDD9E6" points="9 61 81 61 81 12 9 12"></polygon>
                <path d="M57,72 L32,72 C36.4269717,69.3646577 36.2970424,64 36.2970424,64 L52.7029576,64 C52.7491695,64.777642 52.8439375,65.4833852 52.9755411,66.1225906 C53.962066,70.9032283 57,72 57,72" id="Fill-101" fill="#8CACCF"></path>
                <path d="M58.2157666,74 L31.7838922,74 C31.3511646,74 31,73.6310563 31,73.1756191 L31,71.8243809 C31,71.3689437 31.3511646,71 31.7838922,71 L58.2157666,71 C58.6491767,71 59,71.3689437 59,71.8243809 L59,73.1756191 C59,73.6310563 58.6491767,74 58.2157666,74" id="Fill-102" fill="#ACBFD9"></path>
                <path d="M54,66 L37,64 L53.722162,64 C53.7692647,64.7327292 53.8658595,65.3977121 54,66" id="Fill-103" fill="#7CA1C3"></path>
                <path d="M40.9591883,26 L12.0408117,26 C11.4658296,26 11,25.5283578 11,24.9466205 L11,16.0530397 C11,15.4713024 11.4658296,15 12.0408117,15 L40.9591883,15 C41.5341704,15 42,15.4713024 42,16.0530397 L42,24.9466205 C42,25.5283578 41.5341704,26 40.9591883,26" id="Fill-104" fill="#B4C4DB"></path>
                <path d="M40.6062057,47 L12.3937943,47 C11.6240168,47 11,46.3593742 11,45.5695332 L11,28.4304668 C11,27.6406258 11.6240168,27 12.3937943,27 L40.6062057,27 C41.3759832,27 42,27.6406258 42,28.4304668 L42,45.5695332 C42,46.3593742 41.3759832,47 40.6062057,47" id="Fill-105" fill="#B4C4DB"></path>
                <path d="M78.4999023,47 L45.5000977,47 C44.6716955,47 44,46.3087169 44,45.4561573 L44,28.5438427 C44,27.6912831 44.6716955,27 45.5000977,27 L78.4999023,27 C79.3283045,27 80,27.6912831 80,28.5438427 L80,45.4561573 C80,46.3087169 79.3283045,47 78.4999023,47" id="Fill-106" fill="#B4C4DB"></path>
                <path d="M78.8819192,26 L45.1177473,26 C44.5005187,26 44,25.4899605 44,24.8606512 L44,16.139009 C44,15.5100395 44.5005187,15 45.1177473,15 L78.8819192,15 C79.4994813,15 80,15.5100395 80,16.139009 L80,24.8606512 C80,25.4899605 79.4994813,26 78.8819192,26" id="Fill-107" fill="#B4C4DB"></path>
                <path d="M40.9591883,60 L12.0408117,60 C11.4658296,60 11,59.5283578 11,58.9466205 L11,50.0530397 C11,49.4713024 11.4658296,49 12.0408117,49 L40.9591883,49 C41.5341704,49 42,49.4713024 42,50.0530397 L42,58.9466205 C42,59.5283578 41.5341704,60 40.9591883,60" id="Fill-108" fill="#B4C4DB"></path>
                <path d="M78.8819192,60 L45.1177473,60 C44.5005187,60 44,59.4899605 44,58.8606512 L44,50.139009 C44,49.5100395 44.5005187,49 45.1177473,49 L78.8819192,49 C79.4994813,49 80,49.5100395 80,50.139009 L80,58.8606512 C80,59.4899605 79.4994813,60 78.8819192,60" id="Fill-109" fill="#B4C4DB"></path>
                <path d="M40.9588637,25 L12.0411363,25 C11.4661604,25 11,24.5283433 11,23.946588 L11,15.0530722 C11,14.4713169 11.4661604,14 12.0411363,14 L40.9588637,14 C41.5338396,14 42,14.4713169 42,15.0530722 L42,23.946588 C42,24.5283433 41.5338396,25 40.9588637,25" id="Fill-110" fill="#F4F6F9"></path>
                <path d="M40.6062208,46 L12.394115,46 C11.6240101,46 11,45.3597078 11,44.5698532 L11,27.4304914 C11,26.6406368 11.6240101,26 12.394115,26 L40.6062208,26 C41.3759899,26 42,26.6406368 42,27.4304914 L42,44.5698532 C42,45.3597078 41.3759899,46 40.6062208,46" id="Fill-111" fill="#F4F6F9"></path>
                <path d="M78.5005441,46 L45.4997907,46 C44.6713732,46 44,45.3090496 44,44.4564753 L44,27.5438693 C44,26.6912951 44.6713732,26 45.4997907,26 L78.5005441,26 C79.3289617,26 80,26.6912951 80,27.5438693 L80,44.4564753 C80,45.3090496 79.3289617,46 78.5005441,46" id="Fill-112" fill="#F4F6F9"></path>
                <path d="M78.8822527,25 L45.1177473,25 C44.5005187,25 44,24.4902845 44,23.8609558 L44,15.1390442 C44,14.5100553 44.5005187,14 45.1177473,14 L78.8822527,14 C79.4994813,14 80,14.5100553 80,15.1390442 L80,23.8609558 C80,24.4902845 79.4994813,25 78.8822527,25" id="Fill-113" fill="#F4F6F9"></path>
                <path d="M40.9588637,59 L12.0411363,59 C11.4661604,59 11,58.5283433 11,57.946588 L11,49.0530722 C11,48.4713169 11.4661604,48 12.0411363,48 L40.9588637,48 C41.5338396,48 42,48.4713169 42,49.0530722 L42,57.946588 C42,58.5283433 41.5338396,59 40.9588637,59" id="Fill-114" fill="#F4F6F9"></path>
                <path d="M78.8822527,59 L45.1177473,59 C44.5005187,59 44,58.4902845 44,57.8609558 L44,49.1390442 C44,48.5100553 44.5005187,48 45.1177473,48 L78.8822527,48 C79.4994813,48 80,48.5100553 80,49.1390442 L80,57.8609558 C80,58.4902845 79.4994813,59 78.8822527,59" id="Fill-115" fill="#F4F6F9"></path>
                <path d="M22,15.5330304 L22,23.4666424 C22,23.7608071 21.7611257,24 21.4669503,24 L13.5327225,24 C13.2385471,24 13,23.7608071 13,23.4666424 L13,15.5330304 C13,15.2388657 13.2385471,15 13.5327225,15 L21.4669503,15 C21.7611257,15 22,15.2388657 22,15.5330304" id="Fill-116" fill="#E4ECF2"></path>
                <path d="M22,22.5874971 L22,24.3916492 C22,24.7271752 21.7611257,25 21.4669503,25 L13.5327225,25 C13.2385471,25 13,24.7271752 13,24.3916492 L13,22.2601819 L15.5602094,17 L17.6924084,21.9343597 L19.1554319,17.9420107 L22,22.5874971" id="Fill-117" fill="#ACBFD9"></path>
                <path d="M18,16.9997823 C18,17.5523623 17.5519268,18 16.9997823,18 C16.4476377,18 16,17.5523623 16,16.9997823 C16,16.4476377 16.4476377,16 16.9997823,16 C17.5519268,16 18,16.4476377 18,16.9997823" id="Fill-118" fill="#CEDEEA"></path>
                <path d="M40.4747265,17 L24.5249461,17 C24.2351287,17 24,16.7760449 24,16.5 C24,16.2236432 24.2351287,16 24.5249461,16 L40.4747265,16 C40.7648713,16 41,16.2236432 41,16.5 C41,16.7760449 40.7648713,17 40.4747265,17" id="Fill-119" fill="#E4ECF2"></path>
                <path d="M40.4747265,19 L24.5249461,19 C24.2351287,19 24,18.7760449 24,18.5 C24,18.2239551 24.2351287,18 24.5249461,18 L40.4747265,18 C40.7648713,18 41,18.2239551 41,18.5 C41,18.7760449 40.7648713,19 40.4747265,19" id="Fill-120" fill="#E4ECF2"></path>
                <path d="M40.4747265,21 L24.5249461,21 C24.2351287,21 24,20.7760449 24,20.5 C24,20.2236432 24.2351287,20 24.5249461,20 L40.4747265,20 C40.7648713,20 41,20.2236432 41,20.5 C41,20.7760449 40.7648713,21 40.4747265,21" id="Fill-121" fill="#E4ECF2"></path>
                <path d="M40.4747265,23 L24.5249461,23 C24.2351287,23 24,22.7763568 24,22.5 C24,22.2239551 24.2351287,22 24.5249461,22 L40.4747265,22 C40.7648713,22 41,22.2239551 41,22.5 C41,22.7763568 40.7648713,23 40.4747265,23" id="Fill-122" fill="#E4ECF2"></path>
                <path d="M77.4535092,17 L55.5461499,17 C55.2444379,17 55,16.7760449 55,16.5 C55,16.2239551 55.2444379,16 55.5461499,16 L77.4535092,16 C77.7555621,16 78,16.2239551 78,16.5 C78,16.7760449 77.7555621,17 77.4535092,17" id="Fill-123" fill="#E4ECF2"></path>
                <path d="M77.4535092,19 L55.5461499,19 C55.2444379,19 55,18.7760449 55,18.5 C55,18.2239551 55.2444379,18 55.5461499,18 L77.4535092,18 C77.7555621,18 78,18.2239551 78,18.5 C78,18.7760449 77.7555621,19 77.4535092,19" id="Fill-124" fill="#E4ECF2"></path>
                <path d="M77.4535092,21 L55.5461499,21 C55.2444379,21 55,20.7760449 55,20.5 C55,20.2236432 55.2444379,20 55.5461499,20 L77.4535092,20 C77.7555621,20 78,20.2236432 78,20.5 C78,20.7760449 77.7555621,21 77.4535092,21" id="Fill-125" fill="#E4ECF2"></path>
                <path d="M77.4535092,23 L55.5461499,23 C55.2444379,23 55,22.7763568 55,22.5 C55,22.2239551 55.2444379,22 55.5461499,22 L77.4535092,22 C77.7555621,22 78,22.2239551 78,22.5 C78,22.7763568 77.7555621,23 77.4535092,23" id="Fill-126" fill="#E4ECF2"></path>
                <path d="M40.4567145,51 L14.5429467,51 C14.2431914,51 14,50.7763568 14,50.5 C14,50.2239551 14.2431914,50 14.5429467,50 L40.4567145,50 C40.7568086,50 41,50.2239551 41,50.5 C41,50.7763568 40.7568086,51 40.4567145,51" id="Fill-127" fill="#E4ECF2"></path>
                <path d="M40.4567145,53 L14.5429467,53 C14.2431914,53 14,52.7760449 14,52.5 C14,52.2236432 14.2431914,52 14.5429467,52 L40.4567145,52 C40.7568086,52 41,52.2236432 41,52.5 C41,52.7760449 40.7568086,53 40.4567145,53" id="Fill-128" fill="#E4ECF2"></path>
                <path d="M40.4567145,55 L14.5429467,55 C14.2431914,55 14,54.7760449 14,54.5 C14,54.2239551 14.2431914,54 14.5429467,54 L40.4567145,54 C40.7568086,54 41,54.2239551 41,54.5 C41,54.7760449 40.7568086,55 40.4567145,55" id="Fill-129" fill="#E4ECF2"></path>
                <path d="M40.4567145,57 L14.5429467,57 C14.2431914,57 14,56.7763568 14,56.5003119 C14,56.2239551 14.2431914,56 14.5429467,56 L40.4567145,56 C40.7568086,56 41,56.2239551 41,56.5003119 C41,56.7763568 40.7568086,57 40.4567145,57" id="Fill-130" fill="#E4ECF2"></path>
                <path d="M32,36.5001746 C32,39.5378607 29.5375115,42 26.5001746,42 C23.4624885,42 21,39.5378607 21,36.5001746 C21,33.4624885 23.4624885,31 26.5001746,31 C29.5375115,31 32,33.4624885 32,36.5001746" id="Fill-131" fill="#E4ECF2"></path>
                <path d="M28.6881915,36.0162194 L24.9354255,34.0757916 C24.5193455,33.8604888 24,34.1295422 24,34.5598475 L24,38.4404028 C24,38.8707082 24.5193455,39.139161 24.9354255,38.9244588 L28.6881915,36.984031 C29.1039362,36.7687282 29.1039362,36.2312219 28.6881915,36.0162194" id="Fill-132" fill="#ACBFD9"></path>
                <path d="M54,18.9998398 C54,21.2090891 52.209266,23 50.0001602,23 C47.7910543,23 46,21.2090891 46,18.9998398 C46,16.7909109 47.7910543,15 50.0001602,15 C52.209266,15 54,16.7909109 54,18.9998398" id="Fill-133" fill="#ACBFD9"></path>
                <path d="M51,32.0001786 C51,33.6569404 49.6565831,35 47.9998214,35 C46.3430596,35 45,33.6569404 45,32.0001786 C45,30.3434169 46.3430596,29 47.9998214,29 C49.6565831,29 51,30.3434169 51,32.0001786" id="Fill-134" fill="#ACBFD9"></path>
                <path d="M77.4464485,31 L52.5538968,31 C52.2479413,31 52,30.7760449 52,30.5 C52,30.2239551 52.2479413,30 52.5538968,30 L77.4464485,30 C77.752404,30 78,30.2239551 78,30.5 C78,30.7760449 77.752404,31 77.4464485,31" id="Fill-135" fill="#E4ECF2"></path>
                <path d="M77.4464411,34 L52.5535589,34 C52.2475993,34 52,33.7763568 52,33.5003119 C52,33.2239551 52.2475993,33 52.5535589,33 L77.4464411,33 C77.7524007,33 78,33.2239551 78,33.5003119 C78,33.7763568 77.7524007,34 77.4464411,34" id="Fill-136" fill="#E4ECF2"></path>
                <path d="M51,40 C51,41.6568604 49.6565831,43 47.9998214,43 C46.3430596,43 45,41.6568604 45,40 C45,38.3431396 46.3430596,37 47.9998214,37 C49.6565831,37 51,38.3431396 51,40" id="Fill-137" fill="#EFA24E"></path>
                <path d="M77.4464411,40 L52.5535589,40 C52.2475993,40 52,39.7760449 52,39.5 C52,39.2239551 52.2475993,39 52.5535589,39 L77.4464411,39 C77.7524007,39 78,39.2239551 78,39.5 C78,39.7760449 77.7524007,40 77.4464411,40" id="Fill-138" fill="#E4ECF2"></path>
                <path d="M77.4464411,41 L52.5535589,41 C52.2475993,41 52,40.7763568 52,40.5003119 C52,40.2239551 52.2475993,40 52.5535589,40 L77.4464411,40 C77.7524007,40 78,40.2239551 78,40.5003119 C78,40.7763568 77.7524007,41 77.4464411,41" id="Fill-139" fill="#E4ECF2"></path>
                <path d="M50.1305345,53 L46.869793,53 C46.3913414,53 46,52.5580845 46,52.0186225 L46,48.9813775 C46,48.4419155 46.3913414,48 46.869793,48 L50.1305345,48 C50.6086586,48 51,48.4419155 51,48.9813775 L51,52.0186225 C51,52.5580845 50.6086586,53 50.1305345,53" id="Fill-140" fill="#ACBFD9"></path>
                <path d="M77.4464411,50 L52.5535589,50 C52.2475993,50 52,49.7760449 52,49.5003119 C52,49.2239551 52.2475993,49 52.5535589,49 L77.4464411,49 C77.7520554,49 78,49.2239551 78,49.5003119 C78,49.7760449 77.7520554,50 77.4464411,50" id="Fill-141" fill="#E4ECF2"></path>
                <path d="M77.4464411,53 L52.5535589,53 C52.2475993,53 52,52.7763568 52,52.5003119 C52,52.2239551 52.2475993,52 52.5535589,52 L77.4464411,52 C77.7520554,52 78,52.2239551 78,52.5003119 C78,52.7763568 77.7520554,53 77.4464411,53" id="Fill-142" fill="#E4ECF2"></path>
                <path d="M50.1305345,59 L46.869793,59 C46.3913414,59 46,58.5583888 46,58.018847 L46,54.981153 C46,54.4412417 46.3913414,54 46.869793,54 L50.1305345,54 C50.6086586,54 51,54.4412417 51,54.981153 L51,58.018847 C51,58.5583888 50.6086586,59 50.1305345,59" id="Fill-143" fill="#E4ECF2"></path>
                <path d="M77.4464411,56 L52.5535589,56 C52.2475993,56 52,55.7760449 52,55.5 C52,55.2239551 52.2475993,55 52.5535589,55 L77.4464411,55 C77.7520554,55 78,55.2239551 78,55.5 C78,55.7760449 77.7520554,56 77.4464411,56" id="Fill-144" fill="#E4ECF2"></path>
                <path d="M77.4464411,58 L52.5535589,58 C52.2475993,58 52,57.7760449 52,57.4996881 C52,57.2236432 52.2475993,57 52.5535589,57 L77.4464411,57 C77.7520554,57 78,57.2236432 78,57.4996881 C78,57.7760449 77.7520554,58 77.4464411,58" id="Fill-145" fill="#E4ECF2"></path>
                <path d="M85,44 L81,44 L81,32 L83.5852257,32 C84.3634257,32 85,32.5657331 85,33.2570016 L85,44" id="Fill-149" fill="#9BB1D0"></path>
                <polygon id="Fill-150" fill="#ACBDD7" points="80 44 82 44 82 32 80 32"></polygon>
                <polygon id="Fill-151" fill="#9FB3D1" points="79.9809275 44 80.0190725 44 80.0190725 32 79.9809275 32"></polygon>
                <path d="M80,44 L59.2859091,44 C58.5787434,44 58,43.4342669 58,42.7426689 L58,41.2355848 L77.5919962,41.2355848 C77.8906372,41.2355848 78.132314,40.999341 78.132314,40.707743 C78.132314,40.4158155 77.8906372,40.1792422 77.5919962,40.1792422 L58,40.1792422 L58,39.3459638 L77.5919962,39.3459638 C77.8906372,39.3459638 78.132314,39.1093904 78.132314,38.8177924 C78.132314,38.5261944 77.8906372,38.2896211 77.5919962,38.2896211 L58,38.2896211 L58,33.8365733 L77.5919962,33.8365733 C77.8906372,33.8365733 78.132314,33.6003295 78.132314,33.3087315 C78.132314,33.016804 77.8906372,32.7802306 77.5919962,32.7802306 L58.0967381,32.7802306 C58.2898773,32.3235585 58.7509844,32 59.2859091,32 L80,32 L80,44" id="Fill-152" fill="#BECBDD"></path>
                <path d="M77.4632333,34 L58,34 L58,33.4513412 C58,33.2919526 58.0341548,33.1394261 58.0961023,33 L77.4632333,33 C77.7599116,33 78,33.2239551 78,33.5003119 C78,33.7763568 77.7599116,34 77.4632333,34" id="Fill-153" fill="#B6C6DB"></path>
                <path d="M77.4632333,40 L58,40 L58,39 L77.4632333,39 C77.7599116,39 78,39.2239551 78,39.5 C78,39.7760449 77.7599116,40 77.4632333,40" id="Fill-154" fill="#B6C6DB"></path>
                <path d="M77.4632333,41 L58,41 L58,40 L77.4632333,40 C77.7599116,40 78,40.2239551 78,40.5003119 C78,40.7763568 77.7599116,41 77.4632333,41" id="Fill-155" fill="#B6C6DB"></path>
                <path d="M84.7328544,42 L60.2674778,42 C59.5702986,42 59,41.4342669 59,40.7426689 L59,31.2570016 C59,30.5654036 59.5702986,30 60.2674778,30 L84.7328544,30 C85.4297014,30 86,30.5654036 86,31.2570016 L86,40.7426689 C86,41.4342669 85.4297014,42 84.7328544,42" id="Fill-159" fill="#F4F6F9"></path>
                <path d="M71,32.533377 L71,40.4669503 C71,40.7611257 70.7611257,41 70.4669503,41 L62.533377,41 C62.2385471,41 62,40.7611257 62,40.4669503 L62,32.533377 C62,32.2385471 62.2385471,32 62.533377,32 L70.4669503,32 C70.7611257,32 71,32.2385471 71,32.533377" id="Fill-160" fill="#E4ECF2"></path>
                <path d="M71,39.5878703 L71,41.3920224 C71,41.7275484 70.7611257,42 70.4669503,42 L62.533377,42 C62.2385471,42 62,41.7275484 62,41.3920224 L62,39.2605552 L64.5602094,34 L66.6927356,38.9347329 L68.1557592,34.9420107 L71,39.5878703" id="Fill-161" fill="#ACBFD9"></path>
                <path d="M67,33 C67,33.5524597 66.5519268,34 66.0002177,34 C65.4476377,34 65,33.5524597 65,33 C65,32.4479756 65.4476377,32 66.0002177,32 C66.5519268,32 67,32.4479756 67,33" id="Fill-162" fill="#CEDEEA"></path>
                <path d="M84.5819306,33 L72.4180694,33 C72.1880975,33 72,32.7746365 72,32.4995961 C72,32.2249596 72.1880975,32 72.4180694,32 L84.5819306,32 C84.8122402,32 85,32.2249596 85,32.4995961 C85,32.7746365 84.8122402,33 84.5819306,33" id="Fill-163" fill="#EFA24E"></path>
                <path d="M84.5819306,35 L72.4180694,35 C72.1880975,35 72,34.7753535 72,34.500202 C72,34.2250505 72.1880975,34 72.4180694,34 L84.5819306,34 C84.8122402,34 85,34.2250505 85,34.500202 C85,34.7753535 84.8122402,35 84.5819306,35" id="Fill-164" fill="#E4ECF2"></path>
                <path d="M84.5819306,37 L72.4180694,37 C72.1880975,37 72,36.7753535 72,36.500202 C72,36.2246465 72.1880975,36 72.4180694,36 L84.5819306,36 C84.8122402,36 85,36.2246465 85,36.500202 C85,36.7753535 84.8122402,37 84.5819306,37" id="Fill-165" fill="#E4ECF2"></path>
                <path d="M81.6337268,39 L72.3662732,39 C72.1649241,39 72,38.8029079 72,38.5613893 L72,38.4390145 C72,38.197496 72.1649241,38 72.3662732,38 L81.6337268,38 C81.8354132,38 82,38.197496 82,38.4390145 L82,38.5613893 C82,38.8029079 81.8354132,39 81.6337268,39" id="Fill-166" fill="#E4ECF2"></path>
                <path d="M81.6337268,40 L72.3662732,40 C72.1649241,40 72,39.8021002 72,39.5613893 L72,39.4386107 C72,39.1970921 72.1649241,39 72.3662732,39 L81.6337268,39 C81.8354132,39 82,39.1970921 82,39.4386107 L82,39.5613893 C82,39.8021002 81.8354132,40 81.6337268,40" id="Fill-167" fill="#E4ECF2"></path>
                <path d="M6,18 L9.5639967,18 L9.5639967,16.1080706 L6,16.1080706 L6,18 Z M36.8498761,11.8480214 L38,11.8480214 L38,8 L36.8498761,8 L36.8498761,11.8480214 Z" id="Fill-206" fill="#9BB1D0"></path>
                <path d="M9,17 L11.262667,17 L11.262667,15.1548089 L9,15.1548089 L9,17 Z M38,13.6526102 L36.8233593,13.6526102 C36.8257173,13.6160785 36.8270647,13.5792085 36.8270647,13.5420002 L36.8270647,11 L38,11 L38,13.6526102 Z" id="Fill-207" fill="#ACBDD7"></path>
                <path d="M36.3787686,17 L22.2938531,17 L22.2938531,15.3672191 C22.2938531,15.3602466 22.2935129,15.3532741 22.2931727,15.3463015 L35.1932899,15.3463015 C36.0484674,15.3463015 36.7539718,14.7490905 36.8118,14 L38,14 L38,15.5551738 C38,15.6649151 37.9860532,15.7719281 37.9598604,15.875 L24.0154335,15.875 C23.7143865,15.875 23.4701473,16.0923605 23.4701473,16.3609539 C23.4701473,16.6292441 23.7143865,16.8469078 24.0154335,16.8469078 L37.1033223,16.8469078 C36.8849357,16.9448262 36.6386555,17 36.3787686,17 M12.937926,17 L11,17 L11,15.3463015 L12.9382662,15.3463015 C12.937926,15.3532741 12.937926,15.3602466 12.937926,15.3672191 L12.937926,17" id="Fill-208" fill="#BECBDD"></path>
                <path d="M22,18 L17.3275524,18 C17.7329843,17.9871677 18.0579188,17.6153987 18.0579188,17.1582035 C18.0579188,16.6933089 17.7212042,16.316407 17.3062827,16.316407 C16.8913613,16.316407 16.5549738,16.6933089 16.5549738,17.1582035 C16.5549738,17.6153987 16.8799084,17.9871677 17.2846859,18 L15.7126963,18 L15.5602094,17.6535289 L15.3884162,18 L13,18 L13,16.0252979 C13,16.0168653 13,16.0084326 13.0003272,16 L21.9993455,16 C21.9996728,16.0084326 22,16.0168653 22,16.0252979 L22,18" id="Fill-209" fill="#B6C6DB"></path>
                <polyline id="Fill-210" fill="#9BB1D0" points="16.1672638 17.161595 15.8327362 17.161595 16.0099582 16.838405 16.1672638 17.161595"></polyline>
                <path d="M17.0280862,18 L16.9710429,18 C16.4323971,17.9847561 16,17.5431185 16,17 C16,16.4477352 16.4476377,16 16.9997823,16 C17.5519268,16 18,16.4477352 18,17 C18,17.5431185 17.5676029,17.9847561 17.0280862,18" id="Fill-211" fill="#ABBFD8"></path>
                <path d="M37.1724106,17 L24.526857,17 C24.2359846,17 24,16.7760449 24,16.5 C24,16.2236432 24.2359846,16 24.526857,16 L38,16 C37.8948258,16.4373051 37.5852193,16.8028696 37.1724106,17" id="Fill-212" fill="#B6C6DB"></path>
                <path d="M6.93408083,5.92956864 C6.79564555,5.78663231 6.44027405,6.31316308 6.21226301,6.54324681 C5.98490342,6.77333055 5.91617438,6.78609272 5.91845449,6.73212696 C5.92106033,6.67816121 6.31323933,6.11225002 6.50607152,5.87195655 C6.69890372,5.63166307 7.01258177,5.25900764 6.8601401,5.11315425 C6.70704697,4.96730085 6.4158443,5.36839769 6.14711699,5.6852642 C5.87871542,6.00213071 5.69304928,6.36968127 5.61780564,6.30732894 C5.54288772,6.24461198 6.39955779,4.95380941 6.45786347,4.85317056 C6.51649489,4.75289635 6.72365921,4.44077008 6.5881555,4.31861786 C6.45265179,4.19683027 6.24809331,4.45499079 6.14320823,4.59172835 C6.03897461,4.72846591 5.76275552,5.12336398 5.55037952,5.46830727 C5.33800351,5.81361519 5.27155458,5.92592231 5.21520328,5.89784553 C5.15917771,5.86976875 5.54549356,4.99865933 5.69467793,4.68653306 C5.84353657,4.37440678 5.91193989,4.04550737 5.71454747,4.00211599 C5.51715505,3.95908923 5.28100075,4.58261251 5.12465032,4.92792043 C4.96895135,5.27359298 4.70087551,5.87049801 4.54647946,6.07760984 C4.39208341,6.2850863 4.2901299,6.50751273 4.20544008,6.40140438 L4.15723203,6.35035569 C4.09176029,6.28654483 4.03866629,6.02801968 4.03312888,5.83731637 C4.0279172,5.64661305 3.88231586,5.42272808 3.7582127,5.32135997 C3.63443528,5.21962723 3.50479471,5.23931743 3.60511957,5.63968501 C3.70577016,6.04005259 3.69339242,6.63549909 3.61065698,6.94871926 C3.52759582,7.2615748 3.45039779,7.45337202 3.63378382,7.74143248 C3.69404388,7.83623718 2.24943105,9.79577759 2.0279346,10.072899 C1.80643816,10.3500205 2.96994595,11.1999812 3.13118233,10.9567706 C3.29274444,10.7135601 4.50641466,8.45830193 4.68296036,8.45574949 C4.85918032,8.45319706 4.98882089,8.38391669 5.34940407,8.04116121 C5.52985852,7.86941883 5.8546114,7.51535971 6.12203578,7.21563098 C6.12203578,7.21563098 6.6282203,6.65373076 6.80248588,6.41671899 C6.97642574,6.17934258 7.07219038,6.07250497 6.93408083,5.92956864" id="Fill-214" fill="#E29983"></path>
                <path d="M1.6229205,15 L35.3763986,15 C36.2693964,15 37,14.294043 37,13.4307678 L37,2.56923222 C37,1.70595703 36.2693964,1 35.3763986,1 L1.6229205,1 C0.730263158,1 0,1.70595703 0,2.56923222 L0,13.4307678 C0,14.294043 0.730263158,15 1.6229205,15" id="Fill-216" fill="#F4F6F9"></path>
                <polyline id="Fill-217" fill="#76B5D7" points="20 13 24 12.9713888 24 7 20 7 20 13"></polyline>
                <polyline id="Fill-218" fill="#4E95C5" points="21 6.70947085 19 6 19 12.3299629 21 13 21 6.70947085"></polyline>
                <polyline id="Fill-219" fill="#99CCE4" points="22.6471704 6 24 7 20.2799008 7 19 6 22.6471704 6"></polyline>
                <polyline id="Fill-220" fill="#76B5D7" points="31 13 35 12.9713888 35 7 31 7 31 13"></polyline>
                <polyline id="Fill-221" fill="#4E95C5" points="31 6.70947085 29 6 29 12.3299629 31 13 31 6.70947085"></polyline>
                <polyline id="Fill-222" fill="#99CCE4" points="32.647269 6 34 7 30.2801721 7 29 6 32.647269 6"></polyline>
                <polygon id="Fill-223" fill="#76B5D7" points="26 13 30 13 30 5 26 5"></polygon>
                <polyline id="Fill-224" fill="#4E95C5" points="26 4.71165621 24 4 24 12.0814395 26 13 26 4.71165621"></polyline>
                <polyline id="Fill-225" fill="#99CCE4" points="27.6473677 4 29 5 25.2804433 5 24 4 27.6473677 4"></polyline>
                <polygon id="Fill-226" fill="#8FC3DF" points="26 10 30 10 30 5 26 5"></polygon>
                <polyline id="Fill-227" fill="#6EABD1" points="26 10 24 8.98455665 24 4 26 4.7305223 26 10"></polyline>
                <path d="M1.53767856,5 L16.463013,5 C16.758304,5 17,4.78176709 17,4.51482985 L17,4.48548236 C17,4.21854511 16.758304,4 16.463013,4 L1.53767856,4 C1.2420418,4 1,4.21854511 1,4.48548236 L1,4.51482985 C1,4.78176709 1.2420418,5 1.53767856,5" id="Fill-228" fill="#E4ECF2"></path>
                <path d="M1.53767856,8 L16.463013,8 C16.758304,8 17,7.78176709 17,7.51482985 L17,7.48517015 C17,7.21823291 16.758304,7 16.463013,7 L1.53767856,7 C1.2420418,7 1,7.21823291 1,7.48517015 L1,7.51482985 C1,7.78176709 1.2420418,8 1.53767856,8" id="Fill-229" fill="#E4ECF2"></path>
                <path d="M1.53767856,10 L16.463013,10 C16.758304,10 17,9.78169894 17,9.51467833 L17,9.48532167 C17,9.21830106 16.758304,9 16.463013,9 L1.53767856,9 C1.2420418,9 1,9.21830106 1,9.48532167 L1,9.51467833 C1,9.78169894 1.2420418,10 1.53767856,10" id="Fill-230" fill="#E4ECF2"></path>
                <path d="M1.53767856,12 L16.463013,12 C16.758304,12 17,11.7817671 17,11.5148298 L17,11.4854824 C17,11.2185451 16.758304,11 16.463013,11 L1.53767856,11 C1.2420418,11 1,11.2185451 1,11.4854824 L1,11.5148298 C1,11.7817671 1.2420418,12 1.53767856,12" id="Fill-231" fill="#E4ECF2"></path>
            </g>
        </g>
    </g>
</svg>