<?xml version="1.0" encoding="UTF-8"?>
<svg width="99px" height="99px" viewBox="0 0 99 99" version="1.1" xmlns="http://www.w3.org/2000/svg" xmlns:xlink="http://www.w3.org/1999/xlink">
    <!-- Generator: Sketch 52.3 (67297) - http://www.bohemiancoding.com/sketch -->
    <title>Group 18</title>
    <desc>Created with Sketch.</desc>
    <defs>
        <filter x="-18.8%" y="-18.8%" width="137.6%" height="137.6%" filterUnits="objectBoundingBox" id="filter-1">
            <feOffset dx="0" dy="2" in="SourceAlpha" result="shadowOffsetOuter1"></feOffset>
            <feGaussianBlur stdDeviation="2" in="shadowOffsetOuter1" result="shadowBlurOuter1"></feGaussianBlur>
            <feColorMatrix values="0 0 0 0 0   0 0 0 0 0   0 0 0 0 0  0 0 0 0.5 0" type="matrix" in="shadowBlurOuter1" result="shadowMatrixOuter1"></feColorMatrix>
            <feMerge>
                <feMergeNode in="shadowMatrixOuter1"></feMergeNode>
                <feMergeNode in="SourceGraphic"></feMergeNode>
            </feMerge>
        </filter>
        <circle id="path-2" cx="42.5" cy="42.5" r="42.5"></circle>
        <filter x="-7.1%" y="-7.1%" width="114.1%" height="114.1%" filterUnits="objectBoundingBox" id="filter-4">
            <feOffset dx="0" dy="0" in="SourceAlpha" result="shadowOffsetOuter1"></feOffset>
            <feGaussianBlur stdDeviation="2" in="shadowOffsetOuter1" result="shadowBlurOuter1"></feGaussianBlur>
            <feColorMatrix values="0 0 0 0 0   0 0 0 0 0   0 0 0 0 0  0 0 0 0.5 0" type="matrix" in="shadowBlurOuter1"></feColorMatrix>
        </filter>
        <filter x="-14.8%" y="-14.8%" width="129.6%" height="129.6%" filterUnits="objectBoundingBox" id="filter-5">
            <feOffset dx="0" dy="0" in="SourceAlpha" result="shadowOffsetOuter1"></feOffset>
            <feGaussianBlur stdDeviation="2" in="shadowOffsetOuter1" result="shadowBlurOuter1"></feGaussianBlur>
            <feColorMatrix values="0 0 0 0 0   0 0 0 0 0   0 0 0 0 0  0 0 0 0.5 0" type="matrix" in="shadowBlurOuter1" result="shadowMatrixOuter1"></feColorMatrix>
            <feMerge>
                <feMergeNode in="shadowMatrixOuter1"></feMergeNode>
                <feMergeNode in="SourceGraphic"></feMergeNode>
            </feMerge>
        </filter>
    </defs>
    <g id="Page-1" stroke="none" stroke-width="1" fill="none" fill-rule="evenodd">
        <g id="Artboard" transform="translate(-195.000000, -99.000000)">
            <g id="Group-18" transform="translate(202.000000, 104.000000)">
                <g id="Group-17">
                    <g id="Group-16">
                        <g id="Group-15">
                            <g id="Group-14">
                                <g id="Group-13">
                                    <g id="Group-12">
                                        <g id="Group-11">
                                            <g id="Group-10">
                                                <g id="Group-5">
                                                    <g id="Group">
                                                        <g id="Group-2" filter="url(#filter-1)">
                                                            <mask id="mask-3" fill="white">
                                                                <use xlink:href="#path-2"></use>
                                                            </mask>
                                                            <g id="Mask">
                                                                <use fill="black" fill-opacity="1" filter="url(#filter-4)" xlink:href="#path-2"></use>
                                                                <use fill="#FFFFFF" fill-rule="evenodd" xlink:href="#path-2"></use>
                                                            </g>
                                                        </g>
                                                    </g>
                                                </g>
                                            </g>
                                        </g>
                                    </g>
                                </g>
                            </g>
                        </g>
                    </g>
                </g>
                <g id="data" filter="url(#filter-5)" transform="translate(16.000000, 15.000000)">
                    <path d="M50.461853,44.458374 L3.47840884,44.458374 C1.99360659,44.458374 0.790191703,43.2549591 0.790191703,41.7705688 L0.790191703,3.53114321 C0.790191703,2.04634097 1.99360659,0.842926078 3.47840884,0.842926078 L50.461853,0.842926078 C51.9462433,0.842926078 53.1496582,2.04634097 53.1496582,3.53114321 L53.1496582,41.7705688 C53.1496582,43.2549591 51.9462433,44.458374 50.461853,44.458374 Z" id="Path" fill="#FFD86E"></path>
                    <path d="M53.1500702,3.53114321 L53.1500702,41.7705688 C53.1500702,43.2549591 51.9466553,44.458374 50.462265,44.458374 L47.1787262,44.458374 C48.6635285,44.458374 49.8665314,43.2549591 49.8665314,41.7705688 L49.8665314,3.53114321 C49.8665314,2.04675293 48.6635285,0.843338039 47.1787262,0.843338039 L50.462265,0.843338039 C51.9466553,0.843338039 53.1500702,2.04675293 53.1500702,3.53114321 Z" id="Path" fill="#FFB509"></path>
                    <path d="M53.1496582,37.9823456 L0.790191703,37.9823456 L0.790191703,41.7705688 C0.790191703,43.2549591 1.99360659,44.458374 3.47840884,44.458374 L50.461853,44.458374 C51.9462433,44.458374 53.1496582,43.2549591 53.1496582,41.7705688 L53.1496582,37.9823456 Z" id="Path" fill="#838383"></path>
                    <path d="M53.1500702,37.9823456 L53.1500702,41.7705688 C53.1500702,43.2549591 51.9466553,44.458374 50.462265,44.458374 L47.1787262,44.458374 C48.6635285,44.458374 49.8665314,43.2549591 49.8665314,41.7705688 L49.8665314,37.9823456 L53.1500702,37.9823456 Z" id="Path" fill="#5A5A5A"></path>
                    <path d="M53.2098083,10.0125275 L0.848693848,10.0125275 L0.848693848,3.53073115 C0.848693848,2.04634097 2.05210874,0.842926078 3.53649902,0.842926078 L50.5220032,0.842926078 C52.0063934,0.842926078 53.2098083,2.04634097 53.2098083,3.53073115 L53.2098083,10.0125275 Z" id="Path" fill="#ACACAC"></path>
                    <path d="M53.2102204,3.53031919 L53.2102204,10.0129395 L49.8665314,10.0129395 L49.8665314,3.53031919 C49.8665314,2.04675293 48.6635285,0.843338039 47.1787262,0.843338039 L50.5220032,0.843338039 C52.0068054,0.843338039 53.2102204,2.04675293 53.2102204,3.53031919 Z" id="Path" fill="#9C9C9C"></path>
                    <polygon id="Path" fill="#5A5A5A" points="19.6464386 44.458374 34.2934113 44.458374 34.2934113 48.87323 19.6464386 48.87323"></polygon>
                    <path d="M39.039505,53.2040405 L14.9003449,53.2040405 C14.6094818,53.2040405 14.3734131,52.9679718 14.3734131,52.6771087 L14.3734131,50.9698333 C14.3734131,49.8121491 15.3123322,48.87323 16.4700165,48.87323 L37.4702454,48.87323 C38.6279297,48.87323 39.5664368,49.8121491 39.5664368,50.9698333 L39.5664368,52.6771087 C39.5664368,52.9683838 39.33078,53.2040405 39.039505,53.2040405 Z" id="Path" fill="#838383"></path>
                    <path d="M39.5664368,50.9694214 L39.5664368,52.6775208 C39.5664368,52.9683838 39.330368,53.2044525 39.039505,53.2044525 L37.1797943,53.2044525 L37.1797943,50.9694214 C37.1797943,49.812561 36.2408753,48.8736419 35.0840149,48.8736419 L37.4706574,48.8736419 C38.6279297,48.8736419 39.5664368,49.8121491 39.5664368,50.9694214 Z" id="Path" fill="#5A5A5A"></path>
                    <polygon id="Path" fill="#64DCFC" points="31.1635436 29.0685882 48.2766724 29.0685882 48.2766724 32.3121644 31.1635436 32.3121644"></polygon>
                    <polygon id="Path" fill="#64DCFC" points="31.1635436 37.6811829 48.2766724 37.6811829 48.2766724 40.9251709 31.1635436 40.9251709"></polygon>
                    <polygon id="Path" fill="#00D1FC" points="46.2534027 29.0685882 48.2766724 29.0685882 48.2766724 32.3121644 46.2534027 32.3121644"></polygon>
                    <polygon id="Path" fill="#00D1FC" points="46.2534027 37.6811829 48.2766724 37.6811829 48.2766724 40.9251709 46.2534027 40.9251709"></polygon>
                    <g id="Group" transform="translate(28.898438, 23.625000)" fill="#0396FD">
                        <path d="M20.7954712,5.44358823 L0.848281887,5.44358823 C0.426406887,5.44358823 0.0840454102,5.10163882 0.0840454102,4.67976382 L0.0840454102,0.838806152 C0.0840454102,0.416931152 0.426406887,0.0745696758 0.848281887,0.0745696758 L20.7954712,0.0745696758 C21.2173462,0.0745696758 21.5597077,0.416931152 21.5597077,0.838806152 L21.5597077,4.67976382 C21.5597077,5.10163882 21.2173462,5.44358823 20.7954712,5.44358823 Z" id="Path"></path>
                        <path d="M20.7954712,14.0561829 L0.848281887,14.0561829 C0.426406887,14.0561829 0.0840454102,13.7142334 0.0840454102,13.2923584 L0.0840454102,9.45140073 C0.0840454102,9.02952573 0.426406887,8.68716436 0.848281887,8.68716436 L20.7954712,8.68716436 C21.2173462,8.68716436 21.5597077,9.02952573 21.5597077,9.45140073 L21.5597077,13.2923584 C21.5597077,13.7142334 21.2173462,14.0561829 20.7954712,14.0561829 Z" id="Path"></path>
                        <path d="M20.7954712,22.6687775 L0.848281887,22.6687775 C0.426406887,22.6687775 0.0840454102,22.326828 0.0840454102,21.904953 L0.0840454102,18.0639954 C0.0840454102,17.6417083 0.426406887,17.2997589 0.848281887,17.2997589 L20.7954712,17.2997589 C21.2173462,17.2997589 21.5597077,17.6417083 21.5597077,18.0639954 L21.5597077,21.904953 C21.5597077,22.326828 21.2173462,22.6687775 20.7954712,22.6687775 Z" id="Path"></path>
                    </g>
                    <path d="M50.4577331,24.4638062 L50.4577331,28.3047638 C50.4577331,28.7262269 50.1166077,29.0685882 49.6939087,29.0685882 L47.9215394,29.0685882 C48.3442383,29.0685882 48.6853638,28.7262269 48.6853638,28.3047638 L48.6853638,24.4638062 C48.6853638,24.0423431 48.3442383,23.6999817 47.9215394,23.6999817 L49.6939087,23.6999817 C50.1166077,23.6999817 50.4577331,24.0423431 50.4577331,24.4638062 Z" id="Path" fill="#0077F0"></path>
                    <path d="M50.4577331,33.0759888 L50.4577331,36.9169464 C50.4577331,37.3392334 50.1166077,37.6807708 49.6939087,37.6807708 L47.9215394,37.6807708 C48.3442383,37.6807708 48.6853638,37.3392334 48.6853638,36.9169464 L48.6853638,33.0759888 C48.6853638,32.6545257 48.3442383,32.3121644 47.9215394,32.3121644 L49.6939087,32.3121644 C50.1166077,32.3121644 50.4577331,32.6545257 50.4577331,33.0759888 Z" id="Path" fill="#0077F0"></path>
                    <path d="M50.4577331,41.6894074 L50.4577331,45.529953 C50.4577331,45.951416 50.1166077,46.2941895 49.6939087,46.2941895 L47.9215394,46.2941895 C48.3442383,46.2941895 48.6853638,45.951416 48.6853638,45.529953 L48.6853638,41.6894074 C48.6853638,41.2667083 48.3442383,40.9251709 47.9215394,40.9251709 L49.6939087,40.9251709 C50.1166077,40.9251709 50.4577331,41.2667083 50.4577331,41.6894074 Z" id="Path" fill="#0077F0"></path>
                    <path d="M7.35726923,5.40527344 C7.35726923,6.24984736 6.67295835,6.93457031 5.82838443,6.93457031 C4.9838104,6.93457031 4.29949951,6.24984736 4.29949951,5.40527344 C4.29949951,4.56111148 4.9838104,3.87638852 5.82838443,3.87638852 C6.67295835,3.87638852 7.35726923,4.56111148 7.35726923,5.40527344 Z" id="Path" fill="#FF6B81"></path>
                    <path d="M13.2622834,5.40527344 C13.2622834,6.24984736 12.5775604,6.93457031 11.7333984,6.93457031 C10.8888245,6.93457031 10.2041016,6.24984736 10.2041016,5.40527344 C10.2041016,4.56111148 10.8888245,3.87638852 11.7333984,3.87638852 C12.5775604,3.87638852 13.2622834,4.56111148 13.2622834,5.40527344 Z" id="Path" fill="#FFD86E"></path>
                    <path d="M19.1668854,5.40527344 C19.1668854,6.24984736 18.4825745,6.93457031 17.6380005,6.93457031 C16.7938385,6.93457031 16.1091156,6.24984736 16.1091156,5.40527344 C16.1091156,4.56111148 16.7938385,3.87638852 17.6380005,3.87638852 C18.4825745,3.87638852 19.1668854,4.56111148 19.1668854,5.40527344 Z" id="Path" fill="#80E0DC"></path>
                    <path d="M7.35685727,5.40609736 C7.35685727,6.24984736 6.67295835,6.93374639 5.82879639,6.93374639 C5.42010498,6.93374639 5.04808042,6.77348325 4.77410889,6.51145932 C5.60137939,6.49333188 6.26715088,5.81684878 6.26715088,4.98463443 C6.26715088,4.54833984 6.08505244,4.15612793 5.79295346,3.87803647 C5.80490107,3.87680048 5.81726074,3.87680048 5.82879639,3.87680048 C6.67295835,3.87680048 7.35685727,4.56069952 7.35685727,5.40609736 Z" id="Path" fill="#FF435F"></path>
                    <path d="M13.2618714,5.40609736 C13.2618714,6.24984736 12.5779724,6.93374639 11.7329865,6.93374639 C11.3242951,6.93374639 10.9530944,6.77348325 10.678299,6.51145932 C11.5063934,6.49333188 12.1725769,5.81684878 12.1725769,4.98463443 C12.1725769,4.54833984 11.9900666,4.15612793 11.6983795,3.87803647 C11.7099152,3.87680048 11.7214508,3.87680048 11.7329865,3.87680048 C12.5779724,3.87680048 13.2618714,4.56069952 13.2618714,5.40609736 Z" id="Path" fill="#FFB509"></path>
                    <path d="M19.1672974,5.40609736 C19.1672974,6.24984736 18.4821624,6.93374639 17.6380005,6.93374639 C17.2293091,6.93374639 16.8585205,6.77348325 16.583313,6.51145932 C17.4118195,6.49333188 18.076355,5.81684878 18.076355,4.98463443 C18.076355,4.54833984 17.8942565,4.15612793 17.6021576,3.87803647 C17.6141052,3.87680048 17.6264648,3.87680048 17.6380005,3.87680048 C18.4821624,3.87680048 19.1672974,4.56069952 19.1672974,5.40609736 Z" id="Path" fill="#00A8B0"></path>
                    <path d="M6.21853643,19.7276001 C6.37261963,19.8816833 6.57490542,19.959137 6.77719111,19.959137 C6.9794769,19.959137 7.1817627,19.8820954 7.33625796,19.7276001 C7.64483643,19.4190216 7.64483643,18.918457 7.33625796,18.6098786 L5.41722104,16.6908416 L7.33625796,14.7722168 C7.64483643,14.4632263 7.64483643,13.9630737 7.33625796,13.6544953 C7.02767939,13.3459167 6.52711489,13.3459167 6.21853643,13.6544953 L3.74084473,16.1321869 C3.5925293,16.2805023 3.50930791,16.4815521 3.50930791,16.6908416 C3.50930791,16.9005433 3.5925293,17.1015931 3.74084473,17.2499085 L6.21853643,19.7276001 Z" id="Path" fill="#000000"></path>
                    <path d="M14.0611267,16.6908416 L12.1420898,18.6098786 C11.8335114,18.918457 11.8335114,19.4190216 12.1425018,19.7276001 C12.2965851,19.8816833 12.4988708,19.959137 12.7011566,19.959137 C12.9034424,19.959137 13.1057282,19.8816833 13.2598114,19.7276001 L15.737915,17.2494964 C16.0464935,16.940918 16.0464935,16.4403534 15.737915,16.1321869 L13.2598114,13.6540833 C12.9512329,13.3455047 12.4510804,13.3455047 12.1425018,13.6540833 C11.8335114,13.9630737 11.8335114,14.4632263 12.1425018,14.7718048 L14.0611267,16.6908416 Z" id="Path" fill="#000000"></path>
                    <path d="M8.56109619,19.9043426 C8.65585322,19.9414215 8.75390625,19.959137 8.84989927,19.959137 C9.16548159,19.959137 9.46334834,19.7687988 9.58570864,19.4577484 L11.5323486,14.5019531 C11.6921997,14.0957337 11.4919739,13.6371917 11.0857544,13.4773407 C10.6799469,13.3179017 10.220993,13.5177155 10.061554,13.9239349 L8.11450195,18.8797302 C7.95506284,19.2859497 8.15487666,19.7449036 8.56109619,19.9043426 Z" id="Path" fill="#000000"></path>
                    <path d="M4.74691767,24.5956421 L10.0710296,24.5956421 C10.5073242,24.5956421 10.8612213,24.241745 10.8612213,23.8050384 C10.8612213,23.3687438 10.5073242,23.0148468 10.0710296,23.0148468 L4.74691767,23.0148468 C4.31021123,23.0148468 3.95672607,23.3687438 3.95672607,23.8050384 C3.95672607,24.241745 4.31021123,24.5956421 4.74691767,24.5956421 Z" id="Path" fill="#000000"></path>
                    <path d="M22.3334198,23.0148468 L12.9730682,23.0148468 C12.5367737,23.0148468 12.1828766,23.3687438 12.1828766,23.8050384 C12.1828766,24.241745 12.5367737,24.5956421 12.9730682,24.5956421 L22.3334198,24.5956421 C22.7701263,24.5956421 23.1240234,24.241745 23.1240234,23.8050384 C23.1240234,23.3687438 22.7701263,23.0148468 22.3334198,23.0148468 Z" id="Path" fill="#000000"></path>
                    <path d="M4.74691767,27.9290314 L7.01490786,27.9290314 C7.45120245,27.9290314 7.80509946,27.5751343 7.80509946,27.1384277 C7.80509946,26.7021332 7.45120245,26.348236 7.01490786,26.348236 L4.74691767,26.348236 C4.31021123,26.348236 3.95672607,26.7021332 3.95672607,27.1384277 C3.95672607,27.5751343 4.31021123,27.9290314 4.74691767,27.9290314 Z" id="Path" fill="#000000"></path>
                    <path d="M19.4420929,26.348236 C19.0053864,26.348236 18.6519012,26.7021332 18.6519012,27.1384277 C18.6519012,27.5751343 19.0053864,27.9290314 19.4420929,27.9290314 L20.8230744,27.9290314 C21.2597809,27.9290314 21.613678,27.5751343 21.613678,27.1384277 C21.613678,26.7021332 21.2597809,26.348236 20.8230744,26.348236 L19.4420929,26.348236 Z" id="Path" fill="#000000"></path>
                    <path d="M17.361969,27.1384277 C17.361969,26.7021332 17.0080719,26.348236 16.5717773,26.348236 L9.78799444,26.348236 C9.35128779,26.348236 8.99780273,26.7021332 8.99780273,27.1384277 C8.99780273,27.5751343 9.35128779,27.9290314 9.78799444,27.9290314 L16.5717773,27.9290314 C17.0080719,27.9290314 17.361969,27.5751343 17.361969,27.1384277 Z" id="Path" fill="#000000"></path>
                    <path d="M22.5390015,27.1384277 C22.5390015,27.5751343 22.8928986,27.9290314 23.3291931,27.9290314 L25.9160614,27.9290314 C26.3527679,27.9290314 26.706665,27.5751343 26.706665,27.1384277 C26.706665,26.7021332 26.3527679,26.348236 25.9160614,26.348236 L23.3291931,26.348236 C22.8928986,26.348236 22.5390015,26.7021332 22.5390015,27.1384277 Z" id="Path" fill="#000000"></path>
                    <path d="M18.2349701,17.3248901 L20.963562,17.3248901 C21.4002686,17.3248901 21.7541657,16.970993 21.7541657,16.5342865 C21.7541657,16.0979919 21.4002686,15.7440949 20.963562,15.7440949 L18.2349701,15.7440949 C17.7982635,15.7440949 17.4443665,16.0979919 17.4443665,16.5342865 C17.4443665,16.970993 17.7982635,17.3248901 18.2349701,17.3248901 Z" id="Path" fill="#000000"></path>
                    <path d="M24.0196839,17.3248901 L40.6685028,17.3248901 C41.1052093,17.3248901 41.4586945,16.970993 41.4586945,16.5342865 C41.4586945,16.0979919 41.1052093,15.7440949 40.6685028,15.7440949 L24.0196839,15.7440949 C23.5829772,15.7440949 23.2290802,16.0979919 23.2290802,16.5342865 C23.2290802,16.970993 23.5829772,17.3248901 24.0196839,17.3248901 Z" id="Path" fill="#000000"></path>
                    <path d="M38.1397248,19.2212677 L31.3954925,19.2212677 C30.9591979,19.2212677 30.6053009,19.5751647 30.6053009,20.0118714 C30.6053009,20.4481659 30.9591979,20.802063 31.3954925,20.802063 L38.1397248,20.802063 C38.5760192,20.802063 38.9299164,20.4481659 38.9299164,20.0118714 C38.9299164,19.5751647 38.5760192,19.2212677 38.1397248,19.2212677 Z" id="Path" fill="#000000"></path>
                    <path d="M28.8667145,19.2212677 L26.5484619,19.2212677 C26.1117554,19.2212677 25.7582702,19.5751647 25.7582702,20.0118714 C25.7582702,20.4481659 26.1117554,20.802063 26.5484619,20.802063 L28.8667145,20.802063 C29.303421,20.802063 29.6569061,20.4481659 29.6569061,20.0118714 C29.6569061,19.5751647 29.303421,19.2212677 28.8667145,19.2212677 Z" id="Path" fill="#000000"></path>
                    <path d="M18.2349701,20.802063 L23.9142151,20.802063 C24.3505096,20.802063 24.7044067,20.4481659 24.7044067,20.0118714 C24.7044067,19.5751647 24.3505096,19.2212677 23.9142151,19.2212677 L18.2349701,19.2212677 C17.7982635,19.2212677 17.4443665,19.5751647 17.4443665,20.0118714 C17.4443665,20.4481659 17.7982635,20.802063 18.2349701,20.802063 Z" id="Path" fill="#000000"></path>
                    <path d="M16.581665,29.6536102 L11.2579651,29.6536102 C10.8212585,29.6536102 10.4673615,30.0075073 10.4673615,30.4438019 C10.4673615,30.8800964 10.8212585,31.2339935 11.2579651,31.2339935 L16.581665,31.2339935 C17.0179596,31.2339935 17.3718567,30.8800964 17.3718567,30.4438019 C17.3718567,30.0075073 17.0179596,29.6536102 16.581665,29.6536102 Z" id="Path" fill="#000000"></path>
                    <path d="M8.83712763,29.6536102 L4.74691767,29.6536102 C4.31021123,29.6536102 3.95672607,30.0075073 3.95672607,30.4438019 C3.95672607,30.8800964 4.31021123,31.2339935 4.74691767,31.2339935 L8.83712763,31.2339935 C9.27383428,31.2339935 9.62731934,30.8800964 9.62731934,30.4438019 C9.62731934,30.0075073 9.27383428,29.6536102 8.83712763,29.6536102 Z" id="Path" fill="#000000"></path>
                    <path d="M26.2324676,29.6536102 L19.27771,29.6536102 C18.8410034,29.6536102 18.4875183,30.0075073 18.4875183,30.4438019 C18.4875183,30.8800964 18.8410034,31.2339935 19.27771,31.2339935 L26.2324676,31.2339935 C26.6687622,31.2339935 27.0226593,30.8800964 27.0226593,30.4438019 C27.0226593,30.0075073 26.6687622,29.6536102 26.2324676,29.6536102 Z" id="Path" fill="#000000"></path>
                    <path d="M35.6377259,25.5938874 L31.834671,25.5938874 C31.3983765,25.5938874 31.0444793,25.9477845 31.0444793,26.384079 C31.0444793,26.8207855 31.3983765,27.1746826 31.834671,27.1746826 L35.6377259,27.1746826 C36.0744323,27.1746826 36.4279175,26.8207855 36.4279175,26.384079 C36.4279175,25.9477845 36.0744323,25.5938874 35.6377259,25.5938874 Z" id="Path" fill="#000000"></path>
                    <path d="M42.2369385,27.1746826 L47.6055451,27.1746826 C48.0422516,27.1746826 48.3961487,26.8207855 48.3961487,26.384079 C48.3961487,25.9477845 48.0422516,25.5938874 47.6055451,25.5938874 L42.2369385,25.5938874 C41.8002319,25.5938874 41.4467468,25.9477845 41.4467468,26.384079 C41.4467468,26.8207855 41.8006439,27.1746826 42.2369385,27.1746826 Z" id="Path" fill="#000000"></path>
                    <path d="M39.5524292,25.5938874 L38.3222351,25.5938874 C37.8855286,25.5938874 37.5316315,25.9477845 37.5316315,26.384079 C37.5316315,26.8207855 37.8855286,27.1746826 38.3222351,27.1746826 L39.5524292,27.1746826 C39.9891357,27.1746826 40.3426208,26.8207855 40.3426208,26.384079 C40.3426208,25.9477845 39.9891357,25.5938874 39.5524292,25.5938874 Z" id="Path" fill="#000000"></path>
                    <path d="M31.834671,35.7868652 L35.6377259,35.7868652 C36.0744323,35.7868652 36.4279175,35.4333802 36.4279175,34.9966735 C36.4279175,34.5603791 36.0744323,34.2064819 35.6377259,34.2064819 L31.834671,34.2064819 C31.3983765,34.2064819 31.0444793,34.5603791 31.0444793,34.9966735 C31.0444793,35.4333802 31.3983765,35.7868652 31.834671,35.7868652 Z" id="Path" fill="#000000"></path>
                    <path d="M42.2369385,35.7868652 L47.6055451,35.7868652 C48.0422516,35.7868652 48.3961487,35.4333802 48.3961487,34.9966735 C48.3961487,34.5603791 48.0422516,34.2064819 47.6055451,34.2064819 L42.2369385,34.2064819 C41.8002319,34.2064819 41.4467468,34.5603791 41.4467468,34.9966735 C41.4467468,35.4333802 41.8006439,35.7868652 42.2369385,35.7868652 Z" id="Path" fill="#000000"></path>
                    <path d="M38.3222351,35.7868652 L39.5524292,35.7868652 C39.9891357,35.7868652 40.3430329,35.4333802 40.3430329,34.9966735 C40.3430329,34.5603791 39.9891357,34.2064819 39.5524292,34.2064819 L38.3222351,34.2064819 C37.8855286,34.2064819 37.5320435,34.5603791 37.5320435,34.9966735 C37.5320435,35.4333802 37.8855286,35.7868652 38.3222351,35.7868652 Z" id="Path" fill="#000000"></path>
                    <path d="M35.6377259,42.8190765 L31.834671,42.8190765 C31.3983765,42.8190765 31.0444793,43.1729736 31.0444793,43.6092682 C31.0444793,44.0455628 31.3983765,44.3994598 31.834671,44.3994598 L35.6377259,44.3994598 C36.0744323,44.3994598 36.4279175,44.0455628 36.4279175,43.6092682 C36.4279175,43.1729736 36.0744323,42.8190765 35.6377259,42.8190765 Z" id="Path" fill="#000000"></path>
                    <path d="M47.6055451,42.8190765 L42.2369385,42.8190765 C41.8002319,42.8190765 41.4467468,43.1729736 41.4467468,43.6092682 C41.4467468,44.0455628 41.8002319,44.3994598 42.2369385,44.3994598 L47.6055451,44.3994598 C48.0422516,44.3994598 48.3961487,44.0455628 48.3961487,43.6092682 C48.3961487,43.1729736 48.0422516,42.8190765 47.6055451,42.8190765 Z" id="Path" fill="#000000"></path>
                    <path d="M39.5524292,42.8190765 L38.3222351,42.8190765 C37.8855286,42.8190765 37.5316315,43.1729736 37.5316315,43.6092682 C37.5316315,44.0455628 37.8855286,44.3994598 38.3222351,44.3994598 L39.5524292,44.3994598 C39.9891357,44.3994598 40.3426208,44.0455628 40.3426208,43.6092682 C40.3426208,43.1729736 39.9891357,42.8190765 39.5524292,42.8190765 Z" id="Path" fill="#000000"></path>
                    <path d="M50.5220032,0.052734375 L3.47840884,0.052734375 C1.56060791,0.052734375 -2.84217094e-14,1.61293032 -2.84217094e-14,3.53114321 L-2.84217094e-14,41.7705688 C-2.84217094e-14,43.6883698 1.56060791,45.2485657 3.47840884,45.2485657 L6.45254522,45.2485657 C6.8888397,45.2485657 7.24273682,44.8950806 7.24273682,44.458374 C7.24273682,44.0220794 6.8888397,43.6681823 6.45254522,43.6681823 L3.47840884,43.6681823 C2.43196109,43.6681823 1.58079526,42.8170166 1.58079526,41.7705688 L1.58079526,38.7725373 L30.3733521,38.7725373 L30.3733521,40.1345672 L29.7467194,40.1345672 C28.8893737,40.1345672 28.1922913,40.8316498 28.1922913,41.6889954 L28.1922913,43.6681823 L11.2575531,43.6681823 C10.8212585,43.6681823 10.4673615,44.0220794 10.4673615,44.458374 C10.4673615,44.8950806 10.8212585,45.2485657 11.2575531,45.2485657 L18.8562469,45.2485657 L18.8562469,48.0830384 L16.4700165,48.0830384 C14.8780975,48.0830384 13.5832214,49.3783265 13.5832214,50.9698333 L13.5832214,52.6771087 C13.5832214,53.4034424 14.1740112,53.9942321 14.9003449,53.9942321 L39.039505,53.9942321 C39.7658386,53.9942321 40.3566284,53.4034424 40.3566284,52.6771087 L40.3566284,50.9698333 C40.3566284,49.3783265 39.0617523,48.0830384 37.4698333,48.0830384 L35.0836029,48.0830384 L35.0836029,47.0839691 L49.6939087,47.0839691 C50.5508423,47.0839691 51.2479248,46.3868866 51.2479248,45.529541 L51.2479248,45.1575165 C52.7883454,44.7999115 53.9398499,43.417694 53.9398499,41.7705688 L53.999588,3.53073115 C54,1.61293032 52.4398041,0.052734375 50.5220032,0.052734375 Z M29.7730866,36.8909912 L29.7730866,33.1027679 L49.6675415,33.1027679 L49.6675415,36.8909912 L29.7730866,36.8909912 Z M31.9537354,31.5219727 L31.9537354,29.8591919 L47.4864808,29.8591919 L47.4864808,31.5219727 L31.9537354,31.5219727 Z M47.4864808,38.4713745 L47.4864808,40.1345672 L31.9537354,40.1345672 L31.9537354,38.4713745 L47.4864808,38.4713745 Z M20.4366302,45.2485657 L28.1922913,45.2485657 L28.1922913,45.529953 C28.1922913,46.3868866 28.8893737,47.0839691 29.7467194,47.0839691 L33.5032196,47.0839691 L33.5032196,48.0830384 L20.4366302,48.0830384 L20.4366302,45.2485657 Z M37.4702454,49.6638336 C38.1903991,49.6638336 38.7762451,50.2496795 38.7762451,50.9698333 L38.7762451,52.4138489 L15.1636048,52.4138489 L15.1636048,50.9698333 C15.1636048,50.2496795 15.7498626,49.6638336 16.4700165,49.6638336 L37.4702454,49.6638336 Z M49.6675415,45.5031738 L29.7730866,45.5031738 L29.7730866,41.7153626 L49.6675415,41.7153626 L49.6675415,45.5031738 Z M52.3594665,41.7705688 C52.3594665,42.5360413 51.9029847,43.195633 51.2483368,43.4951478 L51.2483368,41.6885833 C51.2483368,40.8316498 50.5508423,40.1345672 49.6939087,40.1345672 L49.067276,40.1345672 L49.067276,38.7725373 L52.3594665,38.7725373 L52.3594665,41.7705688 Z M52.3594665,37.192154 L51.2223815,37.192154 C51.2384491,37.1027526 51.2483368,33.0764007 51.2483368,33.0764007 C51.2483368,32.2190552 50.5508423,31.5219727 49.6939087,31.5219727 L49.067276,31.5219727 L49.067276,29.8591919 L49.6939087,29.8591919 C50.5508423,29.8591919 51.2483368,29.1616974 51.2483368,28.3047638 L51.2483368,24.4638062 C51.2483368,23.6068726 50.5508423,22.9093781 49.6939087,22.9093781 L45.2300262,22.9093781 C44.7933197,22.9093781 44.4398346,23.2632751 44.4398346,23.6999817 C44.4398346,24.1362762 44.7933197,24.4901733 45.2300262,24.4901733 L49.6675415,24.4901733 L49.6675415,28.2783966 L29.7730866,28.2783966 L29.7730866,24.4901733 L40.3125457,24.4901733 C40.7492523,24.4901733 41.1027375,24.1362762 41.1027375,23.6999817 C41.1027375,23.2632751 40.7492523,22.9093781 40.3125457,22.9093781 L29.7467194,22.9093781 C28.8893737,22.9093781 28.1922913,23.6068726 28.1922913,24.4638062 L28.1922913,28.3047638 C28.1922913,29.1616974 28.8893737,29.8591919 29.7467194,29.8591919 L30.3733521,29.8591919 L30.3733521,31.5219727 L29.7467194,31.5219727 C28.8893737,31.5219727 28.1922913,32.2194671 28.1922913,33.0764007 C28.1922913,33.0764007 28.202179,37.1027526 28.2182464,37.192154 L1.58079526,37.192154 L1.58079526,10.8031312 L52.3594665,10.8031312 L52.3594665,37.192154 Z M52.3594665,9.22233579 L1.63888545,9.22233579 L1.63888545,3.53073115 C1.63888545,2.48469546 2.49005127,1.63352964 3.53649902,1.63352964 L50.461853,1.63352964 C51.5083008,1.63352964 52.3594665,2.48469546 52.3594665,3.53114321 L52.3594665,9.22233579 Z" id="Shape" fill="#000000" fill-rule="nonzero"></path>
                    <path d="M5.82838443,3.08619693 C4.54957583,3.08619693 3.50930791,4.12646484 3.50930791,5.40527344 C3.50930791,6.68408203 4.54957583,7.72476202 5.82838443,7.72476202 C7.10719302,7.72476202 8.1478729,6.68408203 8.1478729,5.40527344 C8.1478729,4.12646484 7.10719302,3.08619693 5.82838443,3.08619693 Z M5.82838443,6.14396665 C5.42134097,6.14396665 5.08969111,5.81272886 5.08969111,5.40527344 C5.08969111,4.99822998 5.42134097,4.66658023 5.82838443,4.66658023 C6.23583984,4.66658023 6.56707764,4.99822998 6.56707764,5.40527344 C6.56707764,5.81272886 6.23583984,6.14396665 5.82838443,6.14396665 Z" id="Shape" fill="#000000" fill-rule="nonzero"></path>
                    <path d="M11.7333984,3.08619693 C10.4545898,3.08619693 9.41390986,4.12646484 9.41390986,5.40527344 C9.41390986,6.68408203 10.4545898,7.72476202 11.7333984,7.72476202 C13.012207,7.72476202 14.0524749,6.68408203 14.0524749,5.40527344 C14.0524749,4.12646484 13.0117951,3.08619693 11.7333984,3.08619693 Z M11.7333984,6.14396665 C11.325943,6.14396665 10.9947052,5.81272886 10.9947052,5.40527344 C10.9947052,4.99822998 11.325943,4.66658023 11.7333984,4.66658023 C12.1404419,4.66658023 12.4720916,4.99822998 12.4720916,5.40527344 C12.4720916,5.81272886 12.1404419,6.14396665 11.7333984,6.14396665 Z" id="Shape" fill="#000000" fill-rule="nonzero"></path>
                    <path d="M17.6380005,3.08619693 C16.3591919,3.08619693 15.318924,4.12646484 15.318924,5.40527344 C15.318924,6.68408203 16.3591919,7.72476202 17.6380005,7.72476202 C18.9168091,7.72476202 19.957489,6.68408203 19.957489,5.40527344 C19.957489,4.12646484 18.9168091,3.08619693 17.6380005,3.08619693 Z M17.6380005,6.14396665 C17.230957,6.14396665 16.8993073,5.81272886 16.8993073,5.40527344 C16.8993073,4.99822998 17.230957,4.66658023 17.6380005,4.66658023 C18.0454559,4.66658023 18.3766937,4.99822998 18.3766937,5.40527344 C18.3766937,5.81272886 18.0454559,6.14396665 17.6380005,6.14396665 Z" id="Shape" fill="#000000" fill-rule="nonzero"></path>
                </g>
            </g>
        </g>
    </g>
</svg>