<?xml version="1.0" encoding="UTF-8"?>
<svg width="124px" height="93px" viewBox="0 0 124 93" version="1.1" xmlns="http://www.w3.org/2000/svg" xmlns:xlink="http://www.w3.org/1999/xlink">
    <!-- Generator: Sketch 52.3 (67297) - http://www.bohemiancoding.com/sketch -->
    <title>Artboard</title>
    <desc>Created with Sketch.</desc>
    <g id="Artboard" stroke="none" stroke-width="1" fill="none" fill-rule="evenodd">
        <g id="support" transform="translate(33.000000, 14.000000)" fill="#FFFFFF">
            <path d="M43.1640625,50.2734375 C42.4632813,50.2734375 41.8945312,50.8421875 41.8945312,51.5429688 C41.8945312,52.24375 42.4632813,52.8125 43.1640625,52.8125 C43.8648437,52.8125 44.4335938,52.24375 44.4335938,51.5429688 C44.4335938,50.8421875 43.8648437,50.2734375 43.1640625,50.2734375 Z" id="Path"></path>
            <path d="M46.2899023,46.1681543 L40.2558203,44.1572168 L38.0896191,39.8246875 C40.0411426,37.8383789 41.3961133,35.2101953 41.8530176,32.4688965 L42.1231738,30.8496094 L44.4335938,30.8496094 C46.5336523,30.8496094 48.2421875,29.1410742 48.2421875,27.0410156 L48.2421875,19.0429688 C48.2421875,8.54267578 39.6995117,0 29.1992188,0 C18.6720117,0 10.15625,8.51817383 10.15625,19.0429688 L10.15625,27.0410156 C10.15625,28.6959766 11.2177051,30.1071875 12.6953125,30.63125 L12.6953125,32.1191406 C12.6953125,34.2191992 14.4038477,35.9277344 16.5039062,35.9277344 L17.6188086,35.9277344 C18.1691504,37.123252 18.8814844,38.2305371 19.7483203,39.2252148 C19.9280859,39.4318945 20.1155957,39.6322266 20.3076758,39.8270996 L18.1426172,44.1572168 L12.1084082,46.1682812 C5.09234375,48.5077734 0,55.8937793 0,63.7304688 C0,64.4316309 0.568369141,65 1.26953125,65 L57.1289062,65 C57.8299414,65 58.3984375,64.4316309 58.3984375,63.7304688 C58.3984375,55.8937793 53.3062207,48.5077734 46.2899023,46.1681543 Z M45.703125,27.0410156 C45.703125,27.7410352 45.1336133,28.3105469 44.4335938,28.3105469 L42.4960352,28.3105469 C42.81875,25.8108398 43.0338086,23.150791 43.1202637,20.5308594 C43.1228027,20.4569727 43.124834,20.3851172 43.1271191,20.3125 L45.703125,20.3125 L45.703125,27.0410156 Z M13.9648438,28.3105469 C13.2648242,28.3105469 12.6953125,27.7410352 12.6953125,27.0410156 L12.6953125,20.3125 L15.272207,20.3125 C15.2763965,20.4449121 15.2808398,20.577959 15.285791,20.7118945 C15.285918,20.7164648 15.2861719,20.7209082 15.2862988,20.7254785 C15.2862988,20.7258594 15.2862988,20.7262402 15.2862988,20.7266211 C15.375166,23.2748242 15.5874316,25.8658105 15.9027832,28.3104199 L13.9648438,28.3104199 L13.9648438,28.3105469 Z M16.5039062,33.3886719 C15.8038867,33.3886719 15.234375,32.8191602 15.234375,32.1191406 L15.234375,30.8496094 L16.2751367,30.8496094 L16.545293,32.4694043 C16.5968359,32.7772656 16.6601855,33.0839844 16.7334375,33.3886719 L16.5039062,33.3886719 Z M15.2365332,17.7734375 L12.7435547,17.7734375 C13.3865723,9.26491211 20.4873145,2.5390625 29.1992187,2.5390625 C37.8724023,2.5390625 45.004375,9.26402344 45.6547559,17.7734375 L43.1620312,17.7734375 C43.070625,10.7621973 37.3611621,5.078125 30.3355762,5.078125 L28.0631152,5.078125 C21.0376562,5.078125 15.3278125,10.7621973 15.2365332,17.7734375 Z M28.0629883,7.6171875 L30.3354492,7.6171875 C36.0240918,7.6171875 40.6283008,12.2701465 40.625,17.9524414 C40.625,18.3519629 40.6218262,18.6998145 40.6150977,19.0163086 C40.6150977,19.0203711 40.6149707,19.0245605 40.6149707,19.02875 L39.027041,18.8018848 C34.7131738,18.1859082 30.6400098,16.1493262 27.5578418,13.0671582 C27.3196777,12.8291211 26.9968359,12.6953125 26.6601562,12.6953125 C23.2507031,12.6953125 19.9869922,14.2487109 17.8295508,16.8730859 C18.3612305,11.7036816 22.7313379,7.6171875 28.0629883,7.6171875 Z M19.3654297,33.3886719 C18.7299023,31.2745215 18.0027148,25.0538184 17.8419922,21.0674902 L19.5506543,18.7891895 C21.1199219,16.6975098 23.5613574,15.3978906 26.1584375,15.2487207 C29.5756348,18.500752 33.9963965,20.648291 38.6680176,21.3153027 L40.5370215,21.5824121 C40.4120996,24.2338281 40.1567969,26.8945117 39.7910449,29.3415332 C39.790918,29.3422949 39.790791,29.3431836 39.7906641,29.3440723 C39.674375,30.1308008 39.5827148,30.6370898 39.3486133,32.0512207 C38.6762695,36.0838867 35.6672266,39.7306152 31.6949902,40.7237695 C30.0602148,41.1319238 28.3379688,41.1317969 26.704082,40.7237695 C24.2237988,40.1037305 21.9495605,38.3875781 20.4818555,35.9277344 L23.0699219,35.9277344 C23.5939844,37.4053418 25.0050684,38.4667969 26.6601563,38.4667969 L29.1992188,38.4667969 C31.3034668,38.4667969 33.0078125,36.7625781 33.0078125,34.6582031 C33.0078125,32.5581445 31.2992773,30.8496094 29.1992188,30.8496094 L26.6601563,30.8496094 C24.968252,30.8496094 23.5779883,31.9424219 23.0677637,33.3886719 L19.3654297,33.3886719 Z M26.5533887,43.2930469 C27.4241602,43.4764941 28.3119434,43.5703125 29.1992188,43.5703125 C29.8937793,43.5703125 30.5884668,43.512168 31.2752832,43.3994336 L29.0320215,45.7718066 L26.5533887,43.2930469 Z M27.2866699,47.6174512 L23.2599707,51.8757129 C22.151416,49.7538184 21.1988867,47.5454687 20.4176172,45.2846875 L21.9297559,42.2604102 L27.2866699,47.6174512 Z M36.2534961,41.830293 L37.9805664,45.2845605 C37.1980273,47.5491504 36.2452441,49.7582617 35.137832,51.8776172 L30.8280273,47.5678125 L36.2534961,41.830293 Z M25.390625,34.6582031 C25.390625,33.9572949 25.9591211,33.3886719 26.6601562,33.3886719 L29.1992188,33.3886719 C29.8992383,33.3886719 30.46875,33.9581836 30.46875,34.6582031 C30.46875,35.3592383 29.900127,35.9277344 29.1992188,35.9277344 L26.6601562,35.9277344 C25.9601367,35.9277344 25.390625,35.3582227 25.390625,34.6582031 Z M2.58984375,62.4609375 C3.09295898,56.1718066 7.27847656,50.4553613 12.9113867,48.5769629 L18.2553516,46.7960645 C19.2344141,49.5033398 20.4473242,52.1346973 21.8688184,54.6341504 C21.8712305,54.6384668 21.8735156,54.6427832 21.8759277,54.6469727 C21.8759277,54.6470996 21.8760547,54.6470996 21.8760547,54.6472266 C22.9146582,56.4739551 24.0836426,58.259043 25.3510156,59.9537402 L26.912793,62.4609375 L2.58984375,62.4609375 Z M29.1992188,61.3292773 L27.4774805,58.565127 C27.4581836,58.5341504 27.4376172,58.5040625 27.4157812,58.4748633 C26.3877148,57.1035156 25.4287109,55.6693262 24.5552734,54.2013672 L29.0828027,49.413457 L33.8534473,54.1841016 C32.9741699,55.6627246 32.0118652,57.1028809 30.9829102,58.4746094 C30.9207031,58.5575098 31.0089355,58.426875 29.1992188,61.3292773 Z M31.4856445,62.4609375 L33.0472949,59.9538672 C34.3202539,58.2526953 35.4976172,56.4532617 36.5466309,54.6050781 C36.5529785,54.5939062 36.5589453,54.5824805 36.565293,54.5713086 C36.5660547,54.5699121 36.5668164,54.5686426 36.5675781,54.5672461 C37.9710449,52.0916602 39.1712598,49.4831543 40.1430859,46.7960645 L45.4869238,48.5769629 C51.1199609,50.4553613 55.3054785,56.1718066 55.8085937,62.4609375 L31.4856445,62.4609375 Z" id="Shape" fill-rule="nonzero"></path>
            <path d="M51.9931445,57.3232715 C51.1447168,55.6250195 49.9019727,54.1163086 48.3992285,52.9602734 C47.8434277,52.5325684 47.046416,52.636543 46.6189648,53.1923438 C46.1913867,53.7481445 46.2953613,54.5451563 46.8510352,54.9727344 C48.05125,55.8960645 49.0437695,57.1012305 49.7215723,58.4579785 C50.0355273,59.0862695 50.7985156,59.3391602 51.4246484,59.0263477 C52.0517969,58.7130273 52.3063379,57.9505469 51.9931445,57.3232715 Z" id="Path"></path>
        </g>
    </g>
</svg>