<?xml version="1.0" encoding="UTF-8"?>
<svg width="124px" height="93px" viewBox="0 0 124 93" version="1.1" xmlns="http://www.w3.org/2000/svg" xmlns:xlink="http://www.w3.org/1999/xlink">
    <!-- Generator: Sketch 52.3 (67297) - http://www.bohemiancoding.com/sketch -->
    <title>Artboard</title>
    <desc>Created with Sketch.</desc>
    <g id="Artboard" stroke="none" stroke-width="1" fill="none" fill-rule="evenodd">
        <g id="exam" transform="translate(30.000000, 14.000000)" fill="#FFFFFF">
            <path d="M26.5947283,11.2783406 C26.2234808,10.9072198 25.6218823,10.9072198 25.2507615,11.2783406 L22.9362293,13.5928728 L21.6222917,12.2788085 C21.2511708,11.9076876 20.6494457,11.9076876 20.2784515,12.2788085 C19.9072039,12.6499293 19.9072039,13.2515278 20.2783248,13.6226486 L22.2643092,15.608633 C22.6353034,15.9795005 23.2370285,15.9797539 23.6082761,15.608633 L26.5947283,12.6221808 C26.9658492,12.2511866 26.9658492,11.6494615 26.5947283,11.2783406 Z" id="Path"></path>
            <path d="M26.5947283,19.2783406 C26.2234808,18.9072198 25.6218823,18.9072198 25.2507615,19.2783406 L22.9362293,21.5928728 L21.6222917,20.2788085 C21.2511708,19.9076876 20.6494457,19.9075609 20.2784515,20.2788085 C19.9072039,20.6499293 19.9072039,21.2515278 20.2783248,21.6226486 L22.2643092,23.608633 C22.6353034,23.9795005 23.2370285,23.9797539 23.6082761,23.608633 L26.5947283,20.6221808 C26.9658492,20.2510599 26.9658492,19.6493348 26.5947283,19.2783406 Z" id="Path"></path>
            <path d="M26.5947283,28.2783406 C26.2234808,27.9072198 25.6218823,27.9072198 25.2507615,28.2783406 L22.9362293,30.5928728 L21.6222917,29.2788085 C21.2511708,28.9076876 20.6494457,28.9076876 20.2784515,29.2788085 C19.9072039,29.6499293 19.9072039,30.2515278 20.2783248,30.6226486 L22.2643092,32.608633 C22.6353034,32.9795005 23.2370285,32.9797539 23.6082761,32.608633 L26.5947283,29.6221808 C26.9658492,29.2511866 26.9658492,28.6494615 26.5947283,28.2783406 Z" id="Path"></path>
            <path d="M4.37197856,64.8738012 L60.5015692,64.8738012 C62.912271,64.8738012 64.8735478,62.8975731 64.8735478,60.4683723 L64.8735478,57.907271 C64.8735478,56.9726901 64.1164815,56.2124561 63.1859552,56.2124561 L59.9367154,56.2124561 C60.7135478,55.2742008 61.1795712,54.0779727 61.1795712,52.8020468 L61.1795712,39.1381092 C61.1795712,38.6132943 60.7542203,38.1878168 60.2292788,38.1878168 C59.7043372,38.1878168 59.2789864,38.6132943 59.2789864,39.1381092 L59.2789864,52.8019201 C59.2789864,54.4623977 58.0585575,55.9160916 56.4288694,56.2123294 L8.44467836,56.2123294 C6.81499025,55.9160916 5.59468811,54.4625244 5.59468811,52.8019201 L5.59468811,19.6752339 C5.59468811,17.7640058 7.14949318,16.2092008 9.06072125,16.2092008 L14.1923002,16.2092008 L14.1923002,18.2463743 L9.40409357,18.2463743 C8.4432846,18.2463743 7.66151072,19.0281481 7.66151072,19.9890838 L7.66151072,52.438655 C7.66151072,53.3995906 8.4432846,54.1813645 9.40409357,54.1813645 L55.4693275,54.1813645 C56.4301365,54.1813645 57.2119103,53.3995906 57.2119103,52.438655 L57.2119103,19.9889571 C57.2119103,19.0280214 56.4301365,18.2462476 55.4693275,18.2462476 L50.6812476,18.2462476 L50.6812476,16.2090741 L55.8128265,16.2090741 C57.7240546,16.2090741 59.2788596,17.7638791 59.2788596,19.6751072 L59.2788596,34.7034113 C59.2788596,35.2282261 59.7042105,35.6537037 60.229152,35.6537037 C60.7540936,35.6537037 61.1794444,35.2282261 61.1794444,34.7034113 L61.1794444,19.6752339 C61.1794444,16.7160234 58.7719103,14.308616 55.8128265,14.308616 L50.6812476,14.308616 L50.6812476,2.61368421 C50.6812476,1.17240741 49.5087135,0 48.0675634,0 L34.6541228,0 C34.1291813,0 33.7038304,0.425477583 33.7038304,0.950292398 C33.7038304,1.47510721 34.1291813,1.9005848 34.6541228,1.9005848 L48.0675634,1.9005848 C48.4608577,1.9005848 48.7806628,2.22038986 48.7806628,2.6135575 L48.7806628,46.4016374 C48.7806628,46.7788402 48.4737817,47.0857212 48.0965789,47.0857212 L16.7770955,47.0857212 C16.3997661,47.0857212 16.0930117,46.7788402 16.0930117,46.4016374 C16.0930117,45.0216862 16.0930117,10.7481871 16.0930117,9.27751462 L20.856384,9.27751462 C22.2975341,9.27751462 23.4699415,8.10510721 23.4699415,6.66395712 L23.4699415,1.9005848 L30.2195517,1.9005848 C30.7444932,1.9005848 31.1698441,1.47510721 31.1698441,0.950292398 C31.1698441,0.425477583 30.7444932,9.00297813e-16 30.2195517,9.00297813e-16 L22.5196491,9.00297813e-16 C22.2606628,9.00297813e-16 22.0184016,0.107699805 21.8476023,0.27837232 L14.4706725,7.65530214 C14.3012671,7.8247076 14.1924269,8.06962963 14.1924269,8.32722222 L14.1924269,14.3084893 L9.06084795,14.3084893 C6.10176413,14.3084893 3.69423002,16.7158967 3.69423002,19.6751072 L3.69423002,52.8019201 C3.69423002,54.077846 4.16012671,55.2740741 4.93708577,56.2123294 L1.68759259,56.2123294 C0.756939571,56.2123294 0,56.9725634 0,57.9071442 L0,60.4682456 C0,62.8975731 1.9611501,64.8738012 4.37197856,64.8738012 Z M21.56923,3.24455166 L21.56923,6.66395712 C21.56923,7.05712476 21.249425,7.37692982 20.8562573,7.37692982 L17.4368519,7.37692982 L21.56923,3.24455166 Z M16.7770955,48.9864327 L48.0965789,48.9864327 C49.5215107,48.9864327 50.6812476,47.8272027 50.6812476,46.4017641 L50.6812476,20.1468324 L55.3113255,20.1468324 L55.3113255,52.280653 L9.56222222,52.280653 L9.56222222,20.1468324 L14.1924269,20.1468324 L14.1924269,46.4016374 C14.1924269,47.8268226 15.3517836,48.9864327 16.7770955,48.9864327 Z M24.2017934,58.1130409 L40.6717544,58.1130409 L40.6717544,58.8810039 C40.6717544,59.1981481 40.4104873,59.4661306 40.1014522,59.4661306 L24.7720955,59.4661306 C24.4630604,59.4661306 24.2017934,59.1981481 24.2017934,58.8810039 L24.2017934,58.1130409 Z M1.9005848,58.1130409 L22.3012086,58.1130409 L22.3012086,58.8810039 C22.3012086,60.2515789 23.4096296,61.3667154 24.7720955,61.3667154 L40.1014522,61.3667154 C41.4639181,61.3667154 42.5723392,60.2515789 42.5723392,58.8810039 L42.5723392,58.1130409 L62.972963,58.1130409 L62.972963,60.4683723 C62.972963,61.8495906 61.8642885,62.9732164 60.5015692,62.9732164 L4.37197856,62.9732164 C3.00925926,62.9732164 1.9005848,61.8495906 1.9005848,60.4683723 L1.9005848,58.1130409 Z" id="Shape" fill-rule="nonzero"></path>
            <path d="M45.4337232,11 L29.9502924,11 C29.4253509,11 29,11.4254776 29,11.9502924 C29,12.4751072 29.4253509,12.9005848 29.9502924,12.9005848 L45.4337232,12.9005848 C45.9586647,12.9005848 46.3840156,12.4751072 46.3840156,11.9502924 C46.3840156,11.4254776 45.9586647,11 45.4337232,11 Z" id="Path"></path>
            <path d="M45.4337232,14 L29.9502924,14 C29.4253509,14 29,14.4254776 29,14.9502924 C29,15.4751072 29.4253509,15.9005848 29.9502924,15.9005848 L45.4337232,15.9005848 C45.9586647,15.9005848 46.3840156,15.4751072 46.3840156,14.9502924 C46.3840156,14.4254776 45.9586647,14 45.4337232,14 Z" id="Path"></path>
            <path d="M45.4337232,19 L29.9502924,19 C29.4253509,19 29,19.4254776 29,19.9502924 C29,20.4751072 29.4253509,20.9005848 29.9502924,20.9005848 L45.4337232,20.9005848 C45.9586647,20.9005848 46.3840156,20.4751072 46.3840156,19.9502924 C46.3840156,19.4254776 45.9586647,19 45.4337232,19 Z" id="Path"></path>
            <path d="M45.4337232,23 L29.9502924,23 C29.4253509,23 29,23.4254776 29,23.9502924 C29,24.4751072 29.4253509,24.9005848 29.9502924,24.9005848 L45.4337232,24.9005848 C45.9586647,24.9005848 46.3840156,24.4751072 46.3840156,23.9502924 C46.3840156,23.4254776 45.9586647,23 45.4337232,23 Z" id="Path"></path>
            <path d="M45.4337232,28 L29.9502924,28 C29.4253509,28 29,28.4254776 29,28.9502924 C29,29.4751072 29.4253509,29.9005848 29.9502924,29.9005848 L45.4337232,29.9005848 C45.9586647,29.9005848 46.3840156,29.4751072 46.3840156,28.9502924 C46.3840156,28.4254776 45.9586647,28 45.4337232,28 Z" id="Path"></path>
            <path d="M45.4337232,32 L29.9502924,32 C29.4253509,32 29,32.4254776 29,32.9502924 C29,33.4751072 29.4253509,33.9005848 29.9502924,33.9005848 L45.4337232,33.9005848 C45.9586647,33.9005848 46.3840156,33.4751072 46.3840156,32.9502924 C46.3840156,32.4254776 45.9586647,32 45.4337232,32 Z" id="Path"></path>
            <path d="M25.2507773,37.2783406 L22.9362451,39.5928728 L21.6223075,38.2788085 C21.2510599,37.9076876 20.6494615,37.9076876 20.2783406,38.2788085 C19.9072198,38.6499293 19.9072198,39.2516545 20.2783406,39.6226486 L22.264325,41.608633 C22.6355726,41.9797539 23.2371711,41.9797539 23.6082919,41.608633 L26.5947442,38.6221808 C26.965865,38.2510599 26.965865,37.6493348 26.5947442,37.2783406 C26.2234966,36.9072198 25.6218981,36.9072198 25.2507773,37.2783406 Z" id="Path"></path>
            <path d="M45.4337232,37 L29.9502924,37 C29.4253509,37 29,37.4254776 29,37.9502924 C29,38.4751072 29.4253509,38.9005848 29.9502924,38.9005848 L45.4337232,38.9005848 C45.9586647,38.9005848 46.3840156,38.4751072 46.3840156,37.9502924 C46.3840156,37.4254776 45.9586647,37 45.4337232,37 Z" id="Path"></path>
            <path d="M45.4337232,41 L29.9502924,41 C29.4253509,41 29,41.4254776 29,41.9502924 C29,42.4751072 29.4253509,42.9005848 29.9502924,42.9005848 L45.4337232,42.9005848 C45.9586647,42.9005848 46.3840156,42.4751072 46.3840156,41.9502924 C46.3840156,41.4254776 45.9586647,41 45.4337232,41 Z" id="Path"></path>
        </g>
    </g>
</svg>