<?xml version="1.0" encoding="UTF-8"?>
<svg width="124px" height="93px" viewBox="0 0 124 93" version="1.1" xmlns="http://www.w3.org/2000/svg" xmlns:xlink="http://www.w3.org/1999/xlink">
    <!-- Generator: Sketch 52.3 (67297) - http://www.bohemiancoding.com/sketch -->
    <title>Artboard</title>
    <desc>Created with Sketch.</desc>
    <g id="Artboard" stroke="none" stroke-width="1" fill="none" fill-rule="evenodd">
        <g id="web-programming" transform="translate(25.000000, 14.000000)" fill="#FFFFFF">
            <path d="M28.9967707,47.1696874 C28.7191667,47.1696874 28.4395313,47.0742187 28.2113541,46.8798959 L20.3598959,40.194375 C20.0890626,39.9634896 19.9333333,39.626302 19.9333333,39.2701563 C19.9333333,38.9146874 20.0897396,38.5775 20.3598959,38.3466146 L28.2113541,31.6610937 C28.721198,31.2264063 29.4869793,31.2880207 29.9216667,31.7978646 C30.355677,32.3083854 30.2947396,33.0741667 29.7842187,33.508177 L23.018125,39.2701563 L29.7842187,45.0321354 C30.2947396,45.466823 30.355677,46.2326041 29.9216667,46.742448 C29.681302,47.0247917 29.340052,47.1696874 28.9967707,47.1696874 Z" id="Path"></path>
            <path d="M44.4965626,47.1696874 C44.1532813,47.1696874 43.8120313,47.0247917 43.5723437,46.742448 C43.1376563,46.2326041 43.1992707,45.466823 43.7091146,45.0321354 L50.4752083,39.2701563 L43.7091146,33.508177 C43.1992707,33.0741667 43.1376563,32.3083854 43.5723437,31.7978646 C44.0063541,31.2880207 44.7728126,31.2264063 45.2819793,31.6610937 L53.1334374,38.3466146 C53.4042707,38.5775 53.56,38.9146874 53.56,39.2701563 C53.56,39.626302 53.4042707,39.9634896 53.1334374,40.194375 L45.2819793,46.8798959 C45.053802,47.0742187 44.7741667,47.1696874 44.4965626,47.1696874 Z" id="Path"></path>
            <path d="M33.9672396,52.1841667 C33.8839583,52.1841667 33.8,52.1753646 33.7153646,52.1577604 C33.059948,52.0196354 32.6401563,51.3757293 32.7782813,50.7203126 L37.6715626,27.487552 C37.8096874,26.8321354 38.4529167,26.4123437 39.1090104,26.5504687 C39.764427,26.6885937 40.1842187,27.331823 40.0460937,27.9879167 L35.1528126,51.220677 C35.0322917,51.7921354 34.5285417,52.1841667 33.9672396,52.1841667 Z" id="Path"></path>
            <path d="M65.3466667,64.8415626 L8.14666667,64.8415626 C3.65489592,64.8415626 0,61.1873437 0,56.6948959 L0,8.14666667 C0,3.65489592 3.65489592,0 8.14666667,0 L65.3466667,0 C69.8384374,0 73.4933333,3.65489592 73.4933333,8.14666667 L73.4933333,56.6948959 C73.4933333,61.1873437 69.8384374,64.8415626 65.3466667,64.8415626 Z M8.14666667,2.42666667 C4.99281259,2.42666667 2.42666667,4.99281259 2.42666667,8.14666667 L2.42666667,56.6948959 C2.42666667,59.84875 4.99281259,62.4148959 8.14666667,62.4148959 L65.3466667,62.4148959 C68.5005207,62.4148959 71.0666667,59.84875 71.0666667,56.6948959 L71.0666667,8.14666667 C71.0666667,4.99281259 68.5005207,2.42666667 65.3466667,2.42666667 L8.14666667,2.42666667 Z" id="Shape" fill-rule="nonzero"></path>
            <path d="M72.28,19.4289063 L1.21333333,19.4289063 C0.543020747,19.4289063 0,18.8858854 0,18.215573 C0,17.5459374 0.543020747,17.0022396 1.21333333,17.0022396 L72.28,17.0022396 C72.9503126,17.0022396 73.4933333,17.5459374 73.4933333,18.215573 C73.4933333,18.8858854 72.9503126,19.4289063 72.28,19.4289063 Z" id="Path"></path>
            <path d="M20.7309374,13.6229167 C18.614375,13.6229167 16.891198,11.8997396 16.891198,9.78317704 C16.891198,7.66593741 18.614375,5.94343741 20.7309374,5.94343741 C22.848177,5.94343741 24.570677,7.66593741 24.570677,9.78317704 C24.570677,11.8997396 22.848177,13.6229167 20.7309374,13.6229167 Z M20.7309374,8.37010408 C19.9522917,8.37010408 19.3178646,9.00385408 19.3178646,9.78317704 C19.3178646,10.5625 19.9522917,11.19625 20.7309374,11.19625 C21.5102604,11.19625 22.1440104,10.5625 22.1440104,9.78317704 C22.1440104,9.00385408 21.5102604,8.37010408 20.7309374,8.37010408 Z" id="Shape" fill-rule="nonzero"></path>
            <path d="M8.93343741,13.585677 C6.81619796,13.585677 5.09369796,11.863177 5.09369796,9.74593741 C5.09369796,7.62869796 6.81619796,5.90619796 8.93343741,5.90619796 C11.050677,5.90619796 12.773177,7.62869796 12.773177,9.74593741 C12.773177,11.863177 11.050677,13.585677 8.93343741,13.585677 Z M8.93343741,8.33286463 C8.15479167,8.33286463 7.52036463,8.96729167 7.52036463,9.74593741 C7.52036463,10.5252604 8.15479167,11.1590104 8.93343741,11.1590104 C9.71276037,11.1590104 10.3465104,10.5252604 10.3465104,9.74593741 C10.3465104,8.96729167 9.71276037,8.33286463 8.93343741,8.33286463 Z" id="Shape" fill-rule="nonzero"></path>
            <path d="M32.5284374,13.6594793 C30.411875,13.6594793 28.689375,11.9369793 28.689375,9.81973963 C28.689375,7.70317704 30.411875,5.98067704 32.5284374,5.98067704 C34.645677,5.98067704 36.368177,7.70317704 36.368177,9.81973963 C36.368177,11.9369793 34.645677,13.6594793 32.5284374,13.6594793 Z M32.5284374,8.40666667 C31.7497917,8.40666667 31.1160417,9.04041667 31.1160417,9.81973963 C31.1160417,10.5990626 31.7497917,11.2328126 32.5284374,11.2328126 C33.3077604,11.2328126 33.9415104,10.5990626 33.9415104,9.81973963 C33.9415104,9.04041667 33.3077604,8.40666667 32.5284374,8.40666667 Z" id="Shape" fill-rule="nonzero"></path>
        </g>
    </g>
</svg>