<?xml version="1.0" encoding="UTF-8"?>
<svg width="750px" height="500px" viewBox="0 0 750 500" version="1.1" xmlns="http://www.w3.org/2000/svg" xmlns:xlink="http://www.w3.org/1999/xlink">
    <!-- Generator: Sketch 52.3 (67297) - http://www.bohemiancoding.com/sketch -->
    <title>Group</title>
    <desc>Created with Sketch.</desc>
    <g id="Page-1" stroke="none" stroke-width="1" fill="none" fill-rule="evenodd">
        <g id="Group">
            <polygon id="Fill-1" fill="#FFFFFE" points="0 500 750 500 750 0 0 0"></polygon>
            <path d="M282.913,430.6 C282.913,430.6 261.016,399.906 225.83,391.11 C190.645,382.313 161.323,347.603 163.278,309.248 C165.233,270.893 198.463,256.379 198.463,225.518 C198.463,194.658 182.826,160.45 213.124,118.423 C243.423,76.396 282.926,92.034 312.043,97.898 C341.16,103.762 373.414,91.056 401.757,56.848 C430.1,22.64 495.585,35.346 513.178,68.577 C530.77,101.807 526.861,122.332 528.815,141.879 C530.77,161.427 543.477,172.178 567.911,196.613 C592.345,221.047 586.48,259.911 561.069,292.279 C535.657,324.648 547.386,391.762 511.223,413.915 C475.061,436.069 427.604,452.725 372.653,446.352 C317.703,439.978 295.414,444.437 282.913,430.6" id="Fill-2" fill="#ADDBDB"></path>
            <path d="M160.672,260.685 C160.672,260.685 172.4,245.229 168.056,223.853 C163.712,202.477 165.247,195.961 170.561,195.526 C175.875,195.092 188.038,236.359 160.672,260.685" id="Fill-3" fill="#ADDBDB"></path>
            <path d="M578.336,281.318 C578.336,281.318 559.766,299.889 554.228,321.391 C548.689,342.893 561.395,338.332 566.282,321.391 C571.169,304.449 574.752,288.812 578.336,281.318" id="Fill-4" fill="#ADDBDB"></path>
            <path d="M461.051,30.894 C461.051,30.894 480.599,30.459 498.408,42.622 C498.408,42.622 503.187,46.748 506.879,42.622 C510.571,38.495 488.418,20.902 461.051,30.894" id="Fill-5" fill="#ADDBDB"></path>
            <path d="M193.466,400.232 C193.466,400.232 165.666,402.873 158.715,393.68 C151.765,384.485 149.593,347.085 149.159,328.862 C148.724,310.64 150.462,307.451 160.019,304.919 C169.575,302.386 169.515,291.961 171.282,278.061 C173.05,264.16 178.429,251.128 188.554,252.866 C198.679,254.604 194.843,304.124 200.019,307.164 C205.195,310.205 213.448,308.033 216.054,319.327 C218.661,330.621 231.692,392.087 193.466,400.232" id="Fill-6" fill="#00A97C"></path>
            <path d="M184.197,371.889 L184.197,446.352 C184.197,446.628 184.421,446.852 184.697,446.852 C184.973,446.852 185.197,446.628 185.197,446.352 L185.197,371.889 C185.197,371.613 184.973,371.389 184.697,371.389 C184.421,371.389 184.197,371.613 184.197,371.889" id="Fill-7" fill="#0D8866"></path>
            <path d="M167.771,349.571 C170.3,333.771 182.184,326.646 182.184,326.646 C182.184,326.646 171.758,322.368 175.253,292.279 C177.29,274.741 181.762,261.15 185.14,252.855 C177.202,254.249 172.84,265.814 171.282,278.061 C169.515,291.961 169.575,302.386 160.019,304.919 C150.462,307.451 148.724,310.64 149.159,328.862 C149.593,347.085 151.765,384.485 158.715,393.68 C160.915,396.588 165.203,398.311 170.036,399.309 C165.459,384.874 165.982,360.751 167.771,349.571" id="Fill-8" fill="#009464"></path>
            <path d="M517.471,400.232 C517.471,400.232 489.67,402.873 482.72,393.68 C475.77,384.485 473.598,347.085 473.163,328.862 C472.729,310.64 474.466,307.451 484.022,304.919 C493.579,302.386 493.519,291.961 495.287,278.061 C497.055,264.16 502.434,251.128 512.559,252.866 C522.684,254.604 518.848,304.124 524.023,307.164 C529.199,310.205 537.452,308.033 540.059,319.327 C542.665,330.621 555.697,392.087 517.471,400.232" id="Fill-9" fill="#636AA3"></path>
            <path d="M508.202,371.889 L508.202,446.352 C508.202,446.628 508.426,446.852 508.702,446.852 C508.978,446.852 509.202,446.628 509.202,446.352 L509.202,371.889 C509.202,371.613 508.978,371.389 508.702,371.389 C508.426,371.389 508.202,371.613 508.202,371.889" id="Fill-10" fill="#455393"></path>
            <path d="M491.775,349.571 C494.305,333.771 506.188,326.646 506.188,326.646 C506.188,326.646 495.763,322.368 499.257,292.279 C501.294,274.741 505.767,261.15 509.145,252.855 C501.206,254.249 496.844,265.814 495.287,278.061 C493.519,291.961 493.579,302.386 484.022,304.919 C474.466,307.451 472.729,310.64 473.163,328.862 C473.598,347.085 475.77,384.485 482.72,393.68 C484.919,396.588 489.207,398.311 494.04,399.309 C489.464,384.874 489.986,360.751 491.775,349.571" id="Fill-11" fill="#455393"></path>
            <path d="M300.066,320.893 L299.978,320.899 C299.794,320.912 299.325,320.938 298.609,320.938 C297.975,320.938 297.147,320.917 296.151,320.849 L296.083,321.846 C297.103,321.917 297.953,321.938 298.609,321.938 C299.596,321.938 300.141,321.89 300.155,321.889 L300.066,320.893" id="Fill-12" fill="#1E83B9"></path>
            <path d="M288.402,319.652 C286.123,319.114 283.597,318.357 280.906,317.297 L280.539,318.227 C283.278,319.307 285.85,320.077 288.172,320.625 L288.402,319.652 Z M273.808,313.921 C271.652,312.712 269.443,311.297 267.212,309.641 L266.616,310.444 C268.882,312.126 271.127,313.564 273.319,314.793 L273.808,313.921 Z M261.187,304.583 C259.368,302.866 257.555,300.97 255.764,298.876 L255.004,299.525 C256.818,301.647 258.656,303.569 260.501,305.31 L261.187,304.583 Z M250.94,292.645 C249.493,290.585 248.073,288.374 246.69,286.003 L245.826,286.507 C247.223,288.902 248.658,291.136 250.121,293.22 L250.94,292.645 Z M242.975,279.041 C241.864,276.764 240.787,274.364 239.749,271.833 L238.824,272.213 C239.869,274.763 240.955,277.183 242.076,279.479 L242.975,279.041 Z M236.968,264.439 C236.667,263.566 236.371,262.68 236.079,261.78 C235.547,260.135 235.051,258.508 234.592,256.899 L233.631,257.173 C234.093,258.794 234.592,260.432 235.128,262.088 C235.421,262.994 235.719,263.886 236.022,264.765 L236.968,264.439 Z M232.654,249.238 C232.073,246.602 231.594,244.014 231.215,241.473 L230.226,241.621 C230.609,244.185 231.092,246.796 231.677,249.453 L232.654,249.238 Z M230.343,233.628 C230.179,231.354 230.099,229.12 230.099,226.924 C230.099,226.529 230.102,226.136 230.107,225.743 L229.107,225.73 C229.102,226.127 229.099,226.525 229.099,226.924 C229.099,229.144 229.18,231.403 229.345,233.699 L230.343,233.628 Z M230.57,217.878 C230.851,215.225 231.257,212.632 231.782,210.096 L230.803,209.894 C230.271,212.461 229.86,215.087 229.576,217.773 L230.57,217.878 Z M233.767,202.477 C234.563,199.959 235.483,197.501 236.522,195.101 L235.604,194.704 C234.552,197.134 233.62,199.624 232.814,202.176 L233.767,202.477 Z M240.007,188.04 C241.28,185.753 242.667,183.522 244.162,181.345 L243.338,180.779 C241.826,182.981 240.422,185.238 239.133,187.554 L240.007,188.04 Z M248.906,175.047 C250.561,173.035 252.312,171.072 254.156,169.157 L253.436,168.464 C251.575,170.397 249.806,172.379 248.134,174.412 L248.906,175.047 Z M259.831,163.668 C261.761,161.924 263.772,160.221 265.858,158.56 L265.234,157.778 C263.133,159.452 261.107,161.167 259.16,162.925 L259.831,163.668 Z M272.175,153.809 C274.297,152.3 276.484,150.826 278.731,149.386 L278.192,148.544 C275.932,149.992 273.732,151.475 271.595,152.994 L272.175,153.809 Z M285.484,145.264 C287.739,143.951 290.045,142.668 292.4,141.414 L291.93,140.532 C289.564,141.792 287.247,143.08 284.981,144.399 L285.484,145.264 Z M299.45,137.812 C301.051,137.027 302.672,136.254 304.311,135.491 C305.083,135.132 305.85,134.774 306.611,134.415 L306.185,133.51 C305.426,133.868 304.66,134.226 303.889,134.585 C302.244,135.35 300.617,136.126 299.01,136.914 L299.45,137.812 Z M313.768,130.97 C316.197,129.774 318.56,128.58 320.858,127.387 L320.397,126.499 C318.106,127.689 315.749,128.88 313.326,130.073 L313.768,130.97 Z M327.862,123.634 C330.243,122.317 332.542,120.998 334.756,119.676 L334.244,118.817 C332.039,120.133 329.75,121.447 327.378,122.759 L327.862,123.634 Z M341.503,115.465 C343.795,113.966 345.978,112.459 348.051,110.942 L347.46,110.135 C345.403,111.641 343.234,113.138 340.956,114.628 L341.503,115.465 Z M354.322,106.033 C356.432,104.257 358.392,102.462 360.198,100.645 L359.489,99.94 C357.706,101.734 355.767,103.509 353.678,105.268 L354.322,106.033 Z M365.502,94.678 C367.204,92.509 368.696,90.301 369.969,88.048 L369.098,87.556 C367.852,89.762 366.39,91.927 364.715,94.06 L365.502,94.678 Z M373.263,80.753 C374.131,78.214 374.736,75.616 375.072,72.95 L374.08,72.825 C373.752,75.423 373.163,77.954 372.317,80.43 L373.263,80.753 Z M375.281,64.942 C375.101,62.369 374.69,59.734 374.042,57.032 L373.07,57.265 C373.706,59.918 374.108,62.497 374.283,65.012 L375.281,64.942 Z M371.654,49.401 C370.646,46.804 369.415,44.427 367.994,42.265 L367.159,42.814 C368.54,44.917 369.738,47.23 370.722,49.763 L371.654,49.401 Z M362.863,36.095 C360.91,34.224 358.772,32.601 356.492,31.216 L355.973,32.071 C358.194,33.42 360.273,34.998 362.171,36.817 L362.863,36.095 Z M349.257,27.763 C346.764,26.855 344.173,26.17 341.522,25.696 L341.346,26.68 C343.943,27.145 346.479,27.816 348.915,28.703 L349.257,27.763 Z M333.56,24.9 C333.1,24.889 332.639,24.883 332.178,24.883 C329.978,24.883 327.769,25.013 325.571,25.266 L325.686,26.259 C327.847,26.01 330.017,25.883 332.178,25.883 C332.631,25.883 333.084,25.889 333.536,25.9 L333.561,24.9 L333.56,24.9 Z M317.706,26.715 C315.11,27.377 312.564,28.213 310.107,29.214 L310.484,30.14 C312.898,29.156 315.4,28.335 317.953,27.685 L317.706,26.715 Z M302.932,32.764 C300.607,34.141 298.415,35.687 296.398,37.393 L297.044,38.157 C299.016,36.489 301.162,34.975 303.442,33.624 L302.932,32.764 Z M290.793,43.13 C289.143,45.195 287.719,47.418 286.566,49.787 L286.505,49.915 L287.405,50.349 L287.465,50.225 C288.584,47.926 289.968,45.766 291.574,43.754 L290.793,43.13 Z M283.788,57.46 C283.149,59.987 282.72,62.635 282.512,65.367 L283.509,65.443 C283.713,62.766 284.133,60.174 284.758,57.706 L283.788,57.46 Z M282.529,73.37 C282.732,75.977 283.128,78.622 283.724,81.279 L284.7,81.06 C284.114,78.45 283.726,75.851 283.526,73.292 L282.529,73.37 Z M286.006,88.941 C286.921,91.393 288.015,93.829 289.294,96.227 L290.176,95.756 C288.918,93.398 287.843,91.002 286.943,88.592 L286.006,88.941 Z M293.503,103.019 C295.017,105.144 296.694,107.217 298.539,109.219 L299.274,108.542 C297.458,106.57 295.807,104.53 294.317,102.438 L293.503,103.019 Z M304.294,114.755 C306.27,116.44 308.388,118.053 310.653,119.579 L311.211,118.75 C308.978,117.245 306.89,115.655 304.943,113.994 L304.294,114.755 Z M317.497,123.677 C319.782,124.888 322.188,126.019 324.718,127.06 L325.098,126.135 C322.598,125.106 320.222,123.989 317.966,122.793 L317.497,123.677 Z M332.216,129.759 C334.68,130.528 337.244,131.217 339.91,131.82 L340.131,130.845 C337.49,130.247 334.951,129.565 332.513,128.805 L332.216,129.759 Z M347.734,133.293 C350.286,133.681 352.92,133.995 355.638,134.231 L355.724,133.235 C353.027,133.001 350.414,132.689 347.885,132.304 L347.734,133.293 Z M363.581,134.685 C364.992,134.726 366.424,134.747 367.877,134.747 C369.084,134.747 370.304,134.732 371.539,134.704 L371.516,133.704 C370.289,133.733 369.076,133.747 367.877,133.747 C366.434,133.747 365.011,133.726 363.609,133.686 L363.581,134.685 Z M379.482,134.342 C382.186,134.17 384.823,133.955 387.399,133.702 L387.301,132.706 C384.737,132.959 382.111,133.172 379.418,133.344 L379.482,134.342 Z M395.289,132.781 C397.975,132.418 400.59,132.011 403.14,131.566 L402.968,130.581 C400.431,131.024 397.828,131.428 395.155,131.79 L395.289,132.781 Z M410.938,130.046 C413.586,129.474 416.161,128.861 418.669,128.212 L418.418,127.244 C415.924,127.889 413.362,128.499 410.727,129.068 L410.938,130.046 Z M426.319,126.065 C428.909,125.281 431.425,124.462 433.877,123.614 L433.55,122.669 C431.11,123.513 428.606,124.328 426.029,125.108 L426.319,126.065 Z M441.335,120.876 C443.851,119.901 446.301,118.901 448.694,117.885 L448.303,116.964 C445.919,117.977 443.479,118.973 440.974,119.944 L441.335,120.876 Z M455.96,114.683 C458.407,113.57 460.801,112.449 463.155,111.331 L462.725,110.428 C460.375,111.544 457.987,112.663 455.546,113.773 L455.96,114.683 Z M470.306,107.9 C472.715,106.739 475.093,105.594 477.454,104.478 L477.027,103.574 C474.661,104.692 472.281,105.838 469.872,106.999 L470.306,107.9 Z M484.645,101.165 C487.068,100.085 489.488,99.049 491.923,98.073 L491.551,97.145 C489.102,98.127 486.67,99.167 484.237,100.251 L484.645,101.165 Z M499.326,95.321 C501.806,94.477 504.316,93.705 506.872,93.021 L506.614,92.055 C504.034,92.746 501.503,93.523 499.004,94.374 L499.326,95.321 Z M514.557,91.27 C517.094,90.794 519.687,90.41 522.351,90.129 L522.247,89.134 C519.555,89.418 516.935,89.807 514.373,90.287 L514.557,91.27 Z" id="Fill-13" fill="#1E83B9"></path>
            <path d="M530.691,89.606 C531.392,89.592 532.097,89.585 532.808,89.585 C533.425,89.585 534.046,89.59 534.671,89.602 L534.689,88.602 C534.058,88.59 533.431,88.585 532.808,88.585 C532.09,88.585 531.378,88.592 530.67,88.607 L530.691,89.606" id="Fill-14" fill="#1E83B9"></path>
            <path d="M419.797,276.328 C419.802,276.319 420.491,274.935 421.421,272.632 L420.493,272.257 C420.034,273.394 419.635,274.302 419.352,274.926 C419.21,275.238 419.097,275.478 419.02,275.64 C418.942,275.802 418.902,275.882 418.902,275.883 L419.797,276.328" id="Fill-15" fill="#1E83B9"></path>
            <path d="M424.079,264.927 C424.783,262.472 425.42,259.766 425.842,256.957 L424.853,256.809 C424.439,259.564 423.812,262.23 423.118,264.651 L424.079,264.927 Z M426.332,248.785 C426.212,246.008 425.755,243.267 424.819,240.702 L423.879,241.045 C424.773,243.492 425.216,246.132 425.333,248.828 L426.332,248.785 Z M420.445,233.707 C420.201,233.46 419.948,233.217 419.685,232.98 C417.628,231.116 415.575,229.859 413.581,229.118 L413.233,230.055 C415.09,230.745 417.035,231.928 419.014,233.721 C419.262,233.946 419.502,234.176 419.733,234.41 L420.445,233.707 Z M405.31,228.934 C402.641,229.879 400.42,231.773 398.88,234.147 L399.72,234.691 C401.153,232.479 403.209,230.738 405.644,229.877 L405.31,228.934 Z M396.532,242.083 C396.542,244.778 397.345,247.525 399.129,249.942 L399.933,249.348 C398.281,247.108 397.543,244.58 397.532,242.079 L396.532,242.083 Z M406.073,254.432 C407.513,254.79 409.056,254.956 410.666,254.956 C411.85,254.956 413.069,254.866 414.312,254.698 L414.177,253.707 C412.974,253.87 411.799,253.956 410.666,253.956 C409.125,253.956 407.662,253.797 406.314,253.462 L406.073,254.432 Z M422.258,252.692 C424.797,251.78 427.316,250.632 429.708,249.316 L429.226,248.44 C426.879,249.731 424.406,250.858 421.92,251.75 L422.258,252.692 Z M436.542,244.821 C438.86,242.998 440.865,241.047 442.392,239.061 L441.599,238.451 C440.138,240.353 438.19,242.254 435.924,244.035 L436.542,244.821 Z M446.317,231.852 C447.284,229.584 448.261,227.032 449.327,224.304 L448.396,223.94 C447.328,226.671 446.353,229.217 445.397,231.459 L446.317,231.852 Z M452.384,216.813 C453.426,214.417 454.571,211.97 455.86,209.533 L454.976,209.066 C453.672,211.531 452.516,214.001 451.467,216.415 L452.384,216.813 Z M459.984,202.625 C461.463,200.443 463.097,198.317 464.918,196.296 L464.175,195.627 C462.319,197.686 460.657,199.848 459.156,202.064 L459.984,202.625 Z M470.731,190.789 C472.752,189.165 474.956,187.666 477.368,186.326 L476.882,185.452 C474.419,186.82 472.168,188.352 470.104,190.009 L470.731,190.789 Z M484.658,183.029 C486.305,182.438 488.031,181.912 489.842,181.46 C490.721,181.24 491.568,181.043 492.384,180.869 L492.176,179.891 C491.348,180.068 490.49,180.267 489.599,180.49 C487.757,180.95 485.999,181.485 484.32,182.088 L484.658,183.029 Z M500.317,179.808 C500.651,179.797 500.977,179.792 501.297,179.792 C504.038,179.792 506.234,180.195 508.069,180.891 L508.424,179.955 C506.46,179.211 504.135,178.791 501.297,178.792 C500.966,178.792 500.628,178.797 500.284,178.809 L500.317,179.808 Z M514.326,185.462 C515.982,187.366 517.439,189.611 519.141,191.921 L519.946,191.327 C518.265,189.049 516.799,186.785 515.08,184.806 L514.326,185.462 Z M524.597,198.024 C526.47,199.659 528.709,201.178 531.495,202.458 L531.913,201.55 C529.215,200.309 527.062,198.847 525.254,197.271 L524.597,198.025 L524.597,198.024 Z" id="Fill-16" fill="#1E83B9"></path>
            <path d="M539.431,205.04 C540.679,205.311 542.003,205.546 543.408,205.741 L543.545,204.751 C542.164,204.559 540.864,204.328 539.643,204.063 L539.431,205.04" id="Fill-17" fill="#1E83B9"></path>
            <path d="M149.387,446.352 C149.387,446.352 126.799,443.311 116.808,431.148 C106.817,418.985 114.636,416.379 113.333,403.347 C113.333,403.347 113.333,397.266 101.604,385.972 C89.876,374.678 95.089,365.989 98.564,358.171 C102.039,350.352 91.179,328.198 98.998,322.985 C106.817,317.772 128.971,343.401 134.618,356.434 C140.265,369.465 147.649,360.29 152.862,367.267 C158.075,374.243 159.813,394.008 164.591,405.193 C169.369,416.379 160.681,438.532 149.387,446.352" id="Fill-18" fill="#0179AC"></path>
            <path d="M164.591,405.193 C159.813,394.008 158.075,374.243 152.862,367.267 C147.649,360.29 140.265,369.465 134.618,356.434 C128.971,343.401 106.817,317.772 98.998,322.985 C98.29,323.457 97.739,324.072 97.313,324.799 C113.303,345.421 144.07,391.573 148.562,446.225 C149.087,446.311 149.387,446.352 149.387,446.352 C160.681,438.532 169.369,416.379 164.591,405.193" id="Fill-19" fill="#2181B8"></path>
            <path d="M149.884,446.293 C144.432,400.387 118.788,355.863 118.775,355.833 C118.637,355.593 118.332,355.511 118.092,355.649 C117.853,355.786 117.771,356.092 117.908,356.331 C117.909,356.332 118.007,356.502 118.195,356.837 C121.016,361.864 143.821,403.633 148.891,446.41 C148.923,446.685 149.172,446.881 149.446,446.848 C149.72,446.816 149.916,446.567 149.884,446.293" id="Fill-20" fill="#206897"></path>
            <path d="M612.957,369.301 C612.957,369.301 618.495,375.625 625.988,362.268 C633.481,348.91 643.581,332.295 654.658,336.53 C665.734,340.766 641.626,368.382 636.088,383.08 C630.549,397.779 633.425,399.733 635.245,407.227 C637.065,414.72 632.179,419.351 620.775,422.411 C609.373,425.472 609.047,426.306 600.902,437.128 C592.758,447.951 560.83,442.412 560.83,442.412 C560.83,442.412 555.292,419.607 556.595,404.62 C557.897,389.634 560.83,380.512 566.368,386.051 C571.907,391.589 576.468,406.575 583.636,399.408 C590.803,392.24 585.916,370.412 594.061,358.684 C602.205,346.955 606.965,358.684 612.957,369.301" id="Fill-21" fill="#2181B8"></path>
            <path d="M654.658,336.53 C643.581,332.295 633.481,348.91 625.988,362.268 C618.495,375.625 612.957,369.301 612.957,369.301 C606.965,358.684 602.205,346.955 594.061,358.684 C585.916,370.412 590.803,392.24 583.636,399.408 C576.468,406.575 571.907,391.589 566.368,386.051 C560.83,380.512 557.897,389.634 556.595,404.621 C555.348,418.964 560.364,440.456 560.797,442.274 C574.777,429.146 604.158,409.12 654.658,336.53" id="Fill-22" fill="#0179AC"></path>
            <path d="M622.346,378.563 C622.344,378.565 621.691,379.35 620.504,380.755 C616.349,385.674 605.686,398.152 593.894,410.82 C582.109,423.485 569.167,436.352 560.556,441.994 C560.325,442.145 560.26,442.455 560.412,442.686 C560.563,442.917 560.873,442.982 561.104,442.83 C566.125,439.536 572.488,433.924 579.235,427.346 C599.468,407.617 623.109,379.209 623.115,379.203 C623.291,378.99 623.263,378.675 623.05,378.499 C622.838,378.322 622.523,378.351 622.346,378.563" id="Fill-23" fill="#206897"></path>
            <polyline id="Fill-24" fill="#C8E6E7" points="523.169 105.174 541.195 89.536 598.535 89.536 523.169 105.174"></polyline>
            <path d="M529.468,76.07 C529.685,76.721 541.195,89.536 541.195,89.536 L598.535,89.536 L529.468,76.07" id="Fill-25" fill="#AABCB9"></path>
            <path d="M541.63,117.554 C541.63,116.902 543.477,100.96 543.477,100.96 L598.535,89.536 L541.63,117.554" id="Fill-26" fill="#8EAFAB"></path>
            <polyline id="Fill-27" fill="#C8E6E7" points="131.173 192.595 133.951 168.893 176.309 130.247 131.173 192.595"></polyline>
            <path d="M116.21,166.85 C116.81,167.185 133.951,168.893 133.951,168.893 L176.309,130.247 L116.21,166.85" id="Fill-28" fill="#AABCB9"></path>
            <path d="M153.155,189.298 C152.716,188.816 143.335,175.795 143.335,175.795 L176.309,130.247 L153.155,189.298" id="Fill-29" fill="#8EAFAB"></path>
            <path d="M519.205,178.68 C519.205,178.68 511.061,213.686 495.097,227.133 L545.202,227.133 C545.202,227.133 558.951,206.882 563.838,175.025 C563.838,175.025 530.282,184.87 519.205,178.68" id="Fill-30" fill="#FFFFFE"></path>
            <path d="M521.977,188.734 C521.99,188.735 526.076,189.153 532,189.153 C538.912,189.152 548.323,188.587 556.704,186.109 C556.969,186.031 557.12,185.753 557.042,185.488 C556.964,185.223 556.685,185.072 556.421,185.15 C548.194,187.585 538.856,188.154 532,188.153 C529.061,188.153 526.578,188.049 524.831,187.945 C523.958,187.894 523.268,187.842 522.798,187.803 C522.327,187.764 522.08,187.739 522.079,187.739 C521.804,187.711 521.559,187.911 521.531,188.185 C521.503,188.46 521.703,188.706 521.977,188.734" id="Fill-31" fill="#B3B4AF"></path>
            <path d="M520.011,195.248 C520.024,195.249 527.184,196.145 535.757,196.145 C541.831,196.144 548.61,195.699 554.092,194.147 C554.358,194.072 554.512,193.795 554.437,193.53 C554.362,193.264 554.085,193.11 553.82,193.185 C548.495,194.695 541.779,195.146 535.757,195.145 C531.505,195.145 527.596,194.923 524.752,194.7 C523.33,194.589 522.174,194.478 521.375,194.394 C520.575,194.311 520.137,194.256 520.135,194.256 C519.861,194.222 519.611,194.416 519.577,194.69 C519.543,194.964 519.737,195.214 520.011,195.248" id="Fill-32" fill="#B3B4AF"></path>
            <path d="M517.859,202.635 C517.868,202.636 524.487,203.194 532.466,203.194 C538.81,203.193 546.005,202.844 551.464,201.566 C551.733,201.503 551.899,201.234 551.836,200.965 C551.773,200.696 551.504,200.529 551.235,200.592 C545.923,201.84 538.769,202.195 532.466,202.194 C528.5,202.194 524.866,202.055 522.226,201.916 C520.906,201.846 519.835,201.777 519.093,201.725 C518.352,201.673 517.945,201.639 517.943,201.638 C517.668,201.615 517.426,201.82 517.403,202.095 C517.38,202.37 517.584,202.612 517.859,202.635" id="Fill-33" fill="#B3B4AF"></path>
            <path d="M514.5,209.146 C514.515,209.148 523.251,210.503 533.482,210.504 C538.599,210.504 544.089,210.166 549.062,209.142 C549.332,209.086 549.506,208.822 549.451,208.552 C549.395,208.281 549.131,208.107 548.86,208.163 C543.987,209.166 538.554,209.504 533.482,209.504 C528.41,209.504 523.698,209.167 520.257,208.83 C518.537,208.662 517.134,208.494 516.162,208.368 C515.19,208.242 514.654,208.158 514.653,208.158 C514.38,208.116 514.124,208.303 514.082,208.576 C514.04,208.849 514.227,209.104 514.5,209.146" id="Fill-34" fill="#B3B4AF"></path>
            <path d="M418.372,99.201 C418.372,99.201 421.951,111.608 388.726,141.554 C388.726,141.554 414.138,144.812 431.078,137.97 C431.078,137.97 440.2,131.997 454.861,97.355 C454.861,97.355 426.191,99.527 418.372,99.201" id="Fill-35" fill="#FFFFFE"></path>
            <path d="M421.78,106.76 C421.783,106.76 423.217,106.796 425.441,106.796 C430.049,106.795 438.031,106.641 443.76,105.667 C444.032,105.62 444.215,105.362 444.169,105.09 C444.122,104.818 443.864,104.635 443.592,104.681 C437.988,105.637 430.02,105.797 425.441,105.796 C424.335,105.796 423.425,105.787 422.792,105.778 C422.16,105.769 421.807,105.76 421.806,105.76 C421.53,105.753 421.3,105.971 421.293,106.247 C421.286,106.523 421.504,106.753 421.78,106.76" id="Fill-36" fill="#B3B4AF"></path>
            <path d="M418.62,112.184 C418.636,112.186 424.738,113.155 432.438,113.155 C436.288,113.155 440.538,112.913 444.632,112.182 C444.904,112.134 445.085,111.874 445.036,111.602 C444.988,111.33 444.728,111.149 444.456,111.198 C440.442,111.915 436.246,112.155 432.438,112.155 C428.63,112.155 425.21,111.915 422.745,111.675 C421.512,111.555 420.518,111.435 419.833,111.345 C419.148,111.255 418.778,111.196 418.777,111.196 C418.504,111.153 418.248,111.339 418.204,111.612 C418.161,111.884 418.347,112.14 418.62,112.184" id="Fill-37" fill="#B3B4AF"></path>
            <path d="M414.503,118.049 C414.517,118.051 421.079,118.95 428.967,118.95 C432.912,118.95 437.189,118.726 441.154,118.047 C441.426,118 441.609,117.741 441.562,117.469 C441.516,117.197 441.257,117.014 440.985,117.061 C437.101,117.727 432.874,117.951 428.967,117.95 C425.061,117.95 421.475,117.727 418.868,117.504 C417.564,117.392 416.505,117.281 415.773,117.197 C415.041,117.113 414.64,117.058 414.639,117.058 C414.366,117.021 414.113,117.212 414.076,117.486 C414.038,117.759 414.23,118.012 414.503,118.049" id="Fill-38" fill="#B3B4AF"></path>
            <path d="M206.5,222.187 C206.5,222.187 231.26,225.228 243.423,221.454 C243.423,221.454 245.595,253.3 224.961,271.11 C224.961,271.11 206.065,275.454 185.649,271.11 C185.649,271.11 205.987,247.403 206.5,222.187" id="Fill-39" fill="#FFFFFE"></path>
            <path d="M208.405,228.602 C208.413,228.602 222.944,230.058 234.602,230.058 C235.694,230.058 236.761,230.045 237.789,230.017 C238.065,230.01 238.283,229.78 238.275,229.504 C238.268,229.228 238.038,229.01 237.762,229.018 C236.744,229.045 235.686,229.058 234.602,229.058 C228.813,229.058 222.284,228.695 217.207,228.332 C214.668,228.151 212.491,227.969 210.95,227.833 C209.409,227.697 208.507,227.607 208.504,227.606 C208.23,227.579 207.985,227.779 207.957,228.054 C207.93,228.329 208.13,228.574 208.405,228.602" id="Fill-40" fill="#B3B4AF"></path>
            <path d="M207.064,234.897 C207.079,234.898 219.596,237.127 229.782,237.128 C232.33,237.128 234.734,236.989 236.775,236.635 C237.047,236.587 237.229,236.328 237.182,236.056 C237.135,235.784 236.876,235.602 236.604,235.649 C234.649,235.99 232.293,236.129 229.782,236.128 C224.758,236.129 219.115,235.575 214.735,235.02 C212.544,234.743 210.669,234.466 209.342,234.258 C208.015,234.05 207.241,233.912 207.239,233.912 C206.967,233.864 206.707,234.045 206.659,234.317 C206.611,234.589 206.792,234.848 207.064,234.897" id="Fill-41" fill="#B3B4AF"></path>
            <path d="M204.695,242.663 C204.707,242.665 215.957,244.191 227.571,244.192 C230.667,244.192 233.79,244.083 236.736,243.807 C237.011,243.781 237.213,243.537 237.187,243.262 C237.161,242.987 236.918,242.786 236.643,242.811 C233.738,243.084 230.644,243.192 227.571,243.192 C221.807,243.192 216.117,242.812 211.872,242.432 C209.749,242.242 207.987,242.052 206.756,241.909 C205.526,241.767 204.831,241.673 204.829,241.673 C204.556,241.635 204.304,241.827 204.267,242.101 C204.23,242.374 204.421,242.626 204.695,242.663" id="Fill-42" fill="#B3B4AF"></path>
            <path d="M201.213,250.494 C201.226,250.496 213.922,252.402 225.487,252.402 C228.118,252.402 230.692,252.304 233.049,252.06 C233.324,252.031 233.523,251.786 233.495,251.511 C233.466,251.236 233.221,251.037 232.946,251.065 C230.635,251.304 228.093,251.402 225.487,251.402 C219.757,251.403 213.721,250.928 209.121,250.454 C206.821,250.217 204.879,249.979 203.514,249.801 C202.148,249.624 201.363,249.506 201.361,249.506 C201.088,249.465 200.834,249.653 200.793,249.926 C200.752,250.199 200.94,250.454 201.213,250.494" id="Fill-43" fill="#B3B4AF"></path>
            <path d="M355.5,171.5 C355.5,171.5 344.092,162.404 330.735,166.966 C317.377,171.526 307.929,180.975 305.975,192.377 C304.02,203.78 303.042,206.386 295.224,211.273 C287.404,216.16 281.54,229.518 295.224,242.875 C308.907,256.232 347.024,259.816 363.314,257.861 C379.604,255.906 376.346,242.875 372.11,236.033 C367.875,229.192 375.935,223.328 375,215.183 C374.065,207.038 366.897,205.409 366.572,194.983 C366.246,184.558 365.342,176.287 355.5,171.5" id="Fill-44" fill="#1B202D"></path>
            <path d="M356.472,180.975 C356.472,180.975 345.721,197.916 325.522,202.151 C325.522,202.151 324.708,207.526 325.522,213.065 C325.522,213.065 323.079,209.318 321.287,205.897 C319.495,202.477 316.237,202.803 315.097,205.897 C313.957,208.993 314.12,216.486 320.31,218.604 C320.31,218.604 322.264,222.513 322.427,225.771 C322.59,229.029 321.124,237.662 321.124,237.662 C321.124,237.662 324.648,253.463 335.51,261.934 C335.51,261.934 336.214,251.346 335.51,241.083 L336.273,233.101 C336.273,233.101 350.119,237.988 358.101,230.169 C366.083,222.35 364.78,208.178 364.78,201.174 C364.78,194.169 364.859,190.749 364.859,190.749 C364.859,190.749 361.522,183.255 356.472,180.975" id="Fill-45" fill="#C16652"></path>
            <path d="M355.169,206.386 C355.169,206.386 350.119,215.183 353.214,216.975 C356.309,218.767 357.45,214.042 355.169,206.386" id="Fill-46" fill="#E26351"></path>
            <path d="M340.334,222.187 C340.337,222.229 340.331,223.123 340.803,224.076 C341.04,224.551 341.407,225.044 341.962,225.414 C342.516,225.785 343.25,226.02 344.165,226.018 C344.471,226.018 344.797,225.993 345.145,225.939 C345.418,225.898 345.605,225.642 345.564,225.369 C345.522,225.096 345.266,224.909 344.993,224.951 C344.69,224.998 344.415,225.018 344.165,225.018 C343.415,225.017 342.9,224.836 342.517,224.582 C341.946,224.203 341.645,223.617 341.489,223.097 C341.411,222.84 341.372,222.604 341.353,222.437 L341.336,222.244 L341.334,222.196 L341.334,222.187 C341.334,221.911 341.11,221.687 340.834,221.687 C340.558,221.687 340.334,221.911 340.334,222.187" id="Fill-47" fill="#1B202D"></path>
            <path d="M346.373,209.155 C346.373,211.315 345.388,213.065 344.174,213.065 C342.959,213.065 341.975,211.315 341.975,209.155 C341.975,206.997 342.959,205.246 344.174,205.246 C345.388,205.246 346.373,206.997 346.373,209.155" id="Fill-48" fill="#1B202D"></path>
            <path d="M364.047,209.155 C364.047,211.315 363.063,213.065 361.848,213.065 C360.633,213.065 359.649,211.315 359.649,209.155 C359.649,206.997 360.633,205.246 361.848,205.246 C363.063,205.246 364.047,206.997 364.047,209.155" id="Fill-49" fill="#1B202D"></path>
            <path d="M336.273,233.101 C336.273,233.101 332.201,231.309 327.965,229.518 C327.965,229.518 332.561,235.563 335.883,237.183 L336.273,233.101" id="Fill-50" fill="#1B202D"></path>
            <polygon id="Fill-51" fill="#BF7B6F" points="282.913 444.214 378.3 444.214 378.3 352.341 282.913 352.341"></polygon>
            <polyline id="Fill-52" fill="#D68F7E" points="282.913 352.341 282.913 444.214 378.3 444.214 283.206 352.341 282.913 352.341"></polyline>
            <polyline id="Fill-53" fill="#CF9B91" points="340.42 407.617 326.132 393.813 326.132 352.341 340.42 352.341 340.42 407.617"></polyline>
            <polyline id="Fill-54" fill="#E2AB9D" points="340.42 444.214 326.132 444.214 326.132 393.813 340.42 407.617 340.42 444.214"></polyline>
            <polygon id="Fill-55" fill="#A86B63" points="332.776 444.214 333.776 444.214 333.776 352.341 332.776 352.341"></polygon>
            <path d="M359.649,293.047 C358.101,290.44 360.979,272.848 359.649,265.028 C358.318,257.21 357.45,253.083 349.848,248.305 C342.246,243.526 335.51,241.083 335.51,241.083 C336.214,251.346 335.51,261.934 335.51,261.934 C324.648,253.463 321.124,237.662 321.124,237.662 C321.124,237.662 299.893,236.142 293.377,253.3 C286.861,270.459 281.214,288.703 283.386,292.396 C285.558,296.088 300.11,301.3 300.11,301.3 L296.635,310.205 C296.635,310.205 317.936,308.902 331.285,309.336 C344.635,309.771 347.458,310.205 347.458,310.205 L371.35,310.205 L371.35,299.346 C371.35,299.346 361.196,295.653 359.649,293.047" id="Fill-56" fill="#2881B8"></path>
            <path d="M409.576,335.074 C406.318,324.648 403.061,322.693 391.332,321.391 C391.332,321.391 387.64,315.635 367.549,312.92 C347.458,310.205 347.458,310.205 347.458,310.205 C347.458,310.205 344.635,309.771 331.285,309.336 C317.936,308.902 296.635,310.205 296.635,310.205 C296.635,310.205 287.404,336.051 304.346,349.408 C321.287,362.766 364.047,357.879 364.047,357.879 C364.047,357.879 367.139,400.884 375,413.915 C375,413.915 378.952,417.173 387.423,413.915 L393.286,371.889 C393.286,371.889 401.432,391.762 411.856,403.49 C411.856,403.49 421.631,404.793 425.54,400.232 C425.54,400.232 412.834,345.499 409.576,335.074" id="Fill-57" fill="#FEFAFA"></path>
            <polyline id="Fill-58" fill="#1C1E2F" points="310.536 313.246 346.373 313.246 349.387 310.205 310.536 310.205 310.536 313.246"></polyline>
            <path d="M329.961,300.214 L327.345,309.258 L355.495,310.205 C355.495,310.205 350.065,304.775 346.373,301.518 C342.68,298.26 329.961,300.214 329.961,300.214" id="Fill-59" fill="#C16652"></path>
            <path d="M299.97,301.78 L327.205,309.738 C327.47,309.815 327.748,309.663 327.825,309.398 C327.903,309.133 327.75,308.855 327.485,308.778 L300.251,300.82 C299.986,300.742 299.708,300.895 299.63,301.16 C299.553,301.425 299.705,301.702 299.97,301.78" id="Fill-60" fill="#1871A3"></path>
            <path d="M330.215,299.783 C330.207,299.779 317.308,292.181 310.747,289.118 C307.621,287.66 304.633,286.347 301.911,285.395 C299.188,284.444 296.734,283.847 294.645,283.846 C294.46,283.846 294.277,283.85 294.098,283.86 C293.822,283.875 293.611,284.111 293.626,284.387 C293.641,284.663 293.877,284.874 294.152,284.859 C294.313,284.85 294.477,284.846 294.645,284.846 C296.542,284.844 298.915,285.405 301.581,286.339 C304.248,287.272 307.211,288.572 310.324,290.024 C313.555,291.532 318.41,294.191 322.446,296.468 C324.465,297.607 326.281,298.652 327.592,299.411 C328.903,300.171 329.706,300.643 329.708,300.645 C329.946,300.785 330.252,300.706 330.392,300.468 C330.532,300.23 330.453,299.923 330.215,299.783" id="Fill-61" fill="#1871A3"></path>
            <path d="M309.232,261.934 L298.968,285.009 C298.968,285.009 311.918,288.929 326.132,297.992 C326.132,297.992 312.653,287.404 309.396,279.963 C306.138,272.521 309.232,261.934 309.232,261.934" id="Fill-62" fill="#1871A3"></path>
            <path d="M347.036,260.952 L347.08,261.023 C347.535,261.753 351.246,268.063 351.234,274.056 C351.234,274.721 351.189,275.382 351.091,276.031 C350.552,279.566 349.72,281.311 348.806,282.699 C347.896,284.085 346.822,285.162 345.916,287.196 C345.284,288.633 345.105,290.672 345.1,292.797 C345.101,297.038 345.878,301.587 345.88,301.601 C345.926,301.874 346.184,302.057 346.456,302.01 C346.729,301.964 346.912,301.706 346.865,301.434 C346.865,301.433 346.818,301.157 346.747,300.67 C346.531,299.212 346.1,295.89 346.1,292.797 C346.096,290.74 346.303,288.773 346.829,287.602 C347.661,285.728 348.651,284.742 349.641,283.25 C350.628,281.761 351.533,279.813 352.08,276.18 C352.186,275.477 352.234,274.766 352.234,274.056 C352.232,270.648 351.139,267.254 350.057,264.699 C348.972,262.146 347.891,260.433 347.881,260.418 C347.734,260.184 347.425,260.114 347.191,260.262 C346.958,260.409 346.888,260.718 347.036,260.952" id="Fill-63" fill="#1871A3"></path>
            <path d="M409.576,335.074 C406.361,324.785 403.13,322.748 391.774,321.444 C391.83,323.044 391.754,326.471 392.187,328.246 C394.326,337.02 396.545,350.549 392.986,374.038 L393.286,371.889 C393.286,371.889 401.432,391.762 411.856,403.49 C411.856,403.49 421.631,404.793 425.54,400.232 C425.54,400.232 412.834,345.499 409.576,335.074" id="Fill-64" fill="#DBDBE4"></path>
            <path d="M364.542,357.812 C364.542,357.812 364.516,357.613 364.474,357.228 C364.35,356.075 364.1,353.295 364.1,349.626 C364.1,347.179 364.211,344.337 364.544,341.318 C364.574,341.044 364.376,340.797 364.102,340.767 C363.827,340.736 363.58,340.934 363.55,341.209 C363.213,344.271 363.1,347.149 363.1,349.626 C363.101,354.579 363.549,357.929 363.551,357.945 C363.588,358.219 363.84,358.411 364.113,358.374 C364.387,358.338 364.579,358.086 364.542,357.813" id="Fill-65" fill="#4495C0"></path>
            <path d="M393.778,371.978 C393.781,371.961 395.65,361.62 395.65,350.471 C395.65,347.898 395.551,345.281 395.304,342.736 C393.998,329.236 391.82,321.281 391.814,321.258 C391.741,320.992 391.466,320.835 391.2,320.908 C390.934,320.981 390.777,321.256 390.85,321.523 C390.85,321.523 390.882,321.641 390.943,321.881 C391.372,323.562 393.172,331.08 394.309,342.832 C394.551,345.338 394.65,347.924 394.65,350.471 C394.65,355.991 394.186,361.328 393.722,365.282 C393.489,367.259 393.257,368.89 393.083,370.027 C392.909,371.163 392.794,371.798 392.794,371.8 C392.745,372.072 392.925,372.332 393.197,372.381 C393.469,372.43 393.729,372.249 393.778,371.978" id="Fill-66" fill="#4495C0"></path>
            <path d="M375,413.915 C375,413.915 372.653,429.228 372.653,434.006 C372.653,438.784 383.205,443.128 393.241,445.083 C403.277,447.037 406.102,447.037 408.056,442.911 C410.011,438.784 399.838,436.687 395.15,430.134 C390.463,423.58 387.423,413.915 387.423,413.915 C387.423,413.915 380.822,417.064 375,413.915" id="Fill-67" fill="#4495C0"></path>
            <path d="M411.856,403.49 C411.856,403.49 416.961,417.934 418.264,421.626 C419.567,425.318 430.21,427.999 441.938,430.134 C453.667,432.269 455.839,426.621 454.318,422.494 C452.798,418.368 438.681,412.721 434.554,410.114 C430.427,407.508 425.54,400.232 425.54,400.232 C425.54,400.232 423.694,404.25 411.856,403.49" id="Fill-68" fill="#3885A5"></path>
            <polyline id="Fill-69" fill="#1C1E2F" points="346.373 313.246 383.188 276.105 436.617 276.105 398.174 313.246 346.373 313.246"></polyline>
            <path d="M192.33,60.084 C192.33,77.878 177.906,92.303 160.112,92.303 C142.318,92.303 127.894,77.878 127.894,60.084 C127.894,42.291 142.318,27.867 160.112,27.867 C177.906,27.867 192.33,42.291 192.33,60.084" id="Fill-70" fill="#EE9A45"></path>
            <path d="M258.264,447.183 C258.264,447.183 253.109,414.648 241.757,403.853 C230.405,393.058 216.563,397.445 211.35,403.853 C206.137,410.26 205.703,421.192 191.368,418.984 C177.033,416.775 168.78,417.719 157.92,433.754 C147.06,449.789 149.287,446.531 149.287,446.531 L258.264,447.183" id="Fill-71" fill="#32377C"></path>
            <path d="M185.14,442.412 C187.446,430.837 212.808,436.395 215.414,419.454 C216.64,411.486 220.51,403.562 224.265,397.4 C218.728,397.946 213.958,400.646 211.35,403.853 C206.137,410.26 205.703,421.192 191.368,418.984 C177.033,416.775 168.78,417.719 157.92,433.754 C147.061,449.789 149.287,446.531 149.287,446.531 L184.854,446.744 C184.778,445.289 184.857,443.836 185.14,442.412" id="Fill-72" fill="#323161"></path>
            <path d="M464.17,447.04 C464.17,447.04 475.601,425.56 480.751,417.247 C485.9,408.934 495.344,409.229 501.917,417.911 C508.489,426.592 515.84,400.094 518.965,393.999 C522.089,387.904 525.591,380.191 539.572,381.282 C553.554,382.372 560.155,410.938 564.112,419.862 C568.069,428.787 573.217,441.335 585.387,448.235 L464.17,447.04" id="Fill-73" fill="#EE9A45"></path>
            <path d="M509.145,432.702 C514.095,426.187 525.48,420.105 527.814,399.309 C528.659,391.788 532.404,385.788 536.837,381.182 C525.115,381.249 521.874,388.323 518.965,393.999 C515.84,400.094 508.489,426.592 501.917,417.911 C495.344,409.229 485.9,408.934 480.751,417.246 C475.601,425.56 464.17,447.04 464.17,447.04 L507.33,447.466 C506.579,442.762 506.302,436.444 509.145,432.702" id="Fill-74" fill="#D0823D"></path>
            <path d="M51.64,99.551 C51.64,99.551 51.64,87.099 63.595,79.627 C75.55,72.155 82.025,83.612 88.5,87.348 C94.976,91.083 97.965,67.672 110.916,56.714 C123.867,45.755 134.661,54.721 138.728,68.669 C142.795,82.616 152.259,86.601 163.715,79.627 C175.172,72.653 182.644,96.563 182.146,99.551 L51.64,99.551" id="Fill-75" fill="#ADDBDB"></path>
            <path d="M107.894,75.686 C111.023,66.261 118.342,57.181 123.205,51.864 C119.478,51.568 115.322,52.985 110.916,56.714 C97.965,67.672 94.976,91.083 88.5,87.348 C82.025,83.612 75.55,72.155 63.595,79.627 C51.64,87.099 51.64,99.552 51.64,99.552 L106.765,99.552 C105.694,94.462 104.678,85.37 107.894,75.686" id="Fill-76" fill="#AABCB9"></path>
            <path d="M697.194,154.111 C697.194,154.111 697.194,141.659 685.24,134.187 C673.285,126.715 666.81,138.172 660.334,141.908 C653.858,145.644 650.87,122.232 637.919,111.274 C624.969,100.315 614.175,109.281 610.107,123.229 C606.04,137.176 596.576,141.161 585.119,134.187 C573.663,127.213 566.191,151.123 566.689,154.111 L697.194,154.111" id="Fill-77" fill="#ADDBDB"></path>
            <path d="M616.128,133.083 C618.729,119.556 625.208,111.569 630.699,107.056 C621.056,103.967 613.39,111.972 610.107,123.229 C606.04,137.176 596.576,141.161 585.119,134.187 C573.663,127.213 566.191,151.123 566.689,154.111 L618.295,154.111 C615.798,148.778 614.443,141.84 616.128,133.083" id="Fill-78" fill="#AABCB9"></path>
        </g>
    </g>
</svg>