<?xml version="1.0" encoding="UTF-8"?>
<svg width="500px" height="500px" viewBox="0 0 500 500" version="1.1" xmlns="http://www.w3.org/2000/svg" xmlns:xlink="http://www.w3.org/1999/xlink">
    <!-- Generator: Sketch 52.3 (67297) - http://www.bohemiancoding.com/sketch -->
    <title>3392209</title>
    <desc>Created with Sketch.</desc>
    <defs>
        <polygon id="path-1" points="0.06 0 500 0 500 500 0.06 500"></polygon>
    </defs>
    <g id="Page-1" stroke="none" stroke-width="1" fill="none" fill-rule="evenodd">
        <g id="3392209">
            <g id="Group-3">
                <mask id="mask-2" fill="white">
                    <use xlink:href="#path-1"></use>
                </mask>
                <g id="Clip-2"></g>
                <polygon id="Fill-1" fill="#4AB699" mask="url(#mask-2)" points="0.06 500 500 500 500 0 0.06 0"></polygon>
            </g>
            <path d="M379.916,449.333 C379.916,455.776 326.472,461 260.547,461 C194.621,461 141.177,455.776 141.177,449.333 C141.177,442.89 194.621,437.667 260.547,437.667 C326.472,437.667 379.916,442.89 379.916,449.333" id="Fill-4" fill="#26AD8B"></path>
            <path d="M364.417,386.865 L247.423,446.775 C240.541,450.3 232.105,447.577 228.581,440.695 L94.719,179.284 C91.194,172.402 93.916,163.966 100.799,160.441 L108.138,156.683 L217.855,111.073 C224.738,107.549 225.89,104.341 229.414,111.223 L370.497,368.023 C374.022,374.905 371.299,383.342 364.417,386.865" id="Fill-5" fill="#1B3547"></path>
            <path d="M365.308,386.41 L257.549,441.591 C251.158,444.863 243.324,442.335 240.052,435.944 L105.278,172.753 C102.006,166.362 104.534,158.529 110.924,155.257 L218.683,100.076 C225.073,96.804 232.907,99.332 236.179,105.722 L370.953,368.913 C374.226,375.304 371.698,383.138 365.308,386.41" id="Fill-6" fill="#FFFFFE"></path>
            <path d="M164.342,145.077 C163.402,145.435 162.324,145.035 161.854,144.12 C161.35,143.137 161.737,141.932 162.72,141.427 L188.184,128.359 C189.162,127.854 190.371,128.243 190.876,129.226 C191.38,130.208 190.993,131.414 190.01,131.918 L164.546,144.986 L164.342,145.077" id="Fill-7" fill="#1B3547"></path>
            <path d="M149.916,153.116 C153.777,153.116 153.784,147.116 149.916,147.116 C146.056,147.116 146.049,153.116 149.916,153.116" id="Fill-8" fill="#1B3547"></path>
            <path d="M353.58,352.787 L237.122,412.422 C236.138,412.926 234.933,412.537 234.43,411.554 L117.599,183.401 C117.095,182.418 117.484,181.213 118.467,180.709 L234.926,121.074 C235.909,120.57 237.114,120.959 237.618,121.942 L354.449,350.095 C354.952,351.078 354.564,352.283 353.58,352.787" id="Fill-9" fill="#F7C369"></path>
            <path d="M221.473,386.252 L234.43,411.554 C234.933,412.537 236.138,412.926 237.122,412.422 L353.58,352.787 C354.564,352.283 354.952,351.078 354.449,350.095 L320.742,284.271 C320.742,284.271 304.02,294.52 295.847,328.032 C284.668,373.87 221.473,386.252 221.473,386.252" id="Fill-10" fill="#F3B347"></path>
            <path d="M235.187,413.854 L234.429,411.553 L234.43,411.554 C234.44,411.574 234.451,411.594 234.462,411.614 C234.823,412.265 235.5,412.639 236.202,412.642 C236.205,412.642 236.208,412.642 236.211,412.642 C236.212,412.642 236.212,412.642 236.213,412.642 C236.52,412.642 236.83,412.571 237.122,412.422 L260.407,400.498 L235.187,413.854 M152.625,163.218 L152.333,162.334 L153.82,161.607 L154.225,162.399 L152.625,163.218" id="Fill-11" fill="#FFFFFE"></path>
            <path d="M236.202,412.642 C235.5,412.639 234.823,412.265 234.462,411.614 C234.823,412.265 235.5,412.639 236.202,412.642 M225.761,385.239 L220.96,370.664 L222.112,370.074 C223.095,369.57 223.484,368.365 222.981,367.383 L218.213,358.071 L222.112,356.074 C223.095,355.57 223.484,354.365 222.981,353.383 L201.357,311.154 L152.625,163.218 L154.225,162.399 L188.063,228.479 C188.417,229.17 189.118,229.567 189.845,229.567 C190.151,229.567 190.463,229.497 190.755,229.347 L220.643,214.042 L269.854,364.829 C253.408,377.085 234.164,383.056 225.761,385.239" id="Fill-12" fill="#F9CE82"></path>
            <path d="M236.211,412.642 C236.208,412.642 236.205,412.642 236.202,412.642 C235.5,412.639 234.823,412.265 234.462,411.614 C234.451,411.594 234.44,411.574 234.43,411.554 L225.761,385.239 C234.164,383.056 253.408,377.085 269.854,364.829 L278.388,390.976 L260.407,400.498 L237.122,412.422 C236.83,412.571 236.52,412.642 236.213,412.642 C236.212,412.642 236.212,412.642 236.211,412.642" id="Fill-13" fill="#F7C164"></path>
            <path d="M284.71,350.581 L234.382,207.007 L254.274,196.821 L298.131,319.887 C297.317,322.435 296.55,325.148 295.847,328.032 C293.734,336.697 289.762,344.165 284.71,350.581" id="Fill-14" fill="#F9CE82"></path>
            <path d="M295.847,382.351 L284.71,350.581 C289.762,344.165 293.734,336.697 295.847,328.032 C296.55,325.148 297.317,322.435 298.131,319.887 L316.604,371.722 L306.111,377.094 L295.847,382.351" id="Fill-15" fill="#F7C164"></path>
            <path d="M315.751,397 C315.751,391.063 310.938,386.25 305.001,386.25 C299.063,386.25 294.251,391.063 294.251,397 C294.251,402.937 299.063,407.75 305.001,407.75 C310.938,407.75 315.751,402.937 315.751,397" id="Fill-16" fill="#EDEDE9"></path>
            <polyline id="Fill-17" fill="#C69E56" points="220.643 214.042 216.729 202.047 230.221 195.137 234.382 207.007 220.643 214.042"></polyline>
            <path d="M276.897,185.236 L271.217,174.145 L303.314,157.709 L308.082,167.02 C308.586,168.003 308.196,169.208 307.214,169.711 L276.897,185.236" id="Fill-18" fill="#32A185"></path>
            <polyline id="Fill-19" fill="#C3C5C0" points="271.456 188.022 265.776 176.931 271.217 174.145 276.897 185.236 271.456 188.022"></polyline>
            <polyline id="Fill-20" fill="#C69E56" points="254.274 196.821 250.054 184.981 256.245 181.811 257.195 181.325 265.776 176.931 271.456 188.022 254.274 196.821"></polyline>
            <path d="M142.332,139.174 L128.428,112.02 C127.924,111.037 128.313,109.832 129.296,109.328 L133.196,107.331 L143.432,127.321 C143.435,127.328 143.439,127.335 143.442,127.342 L148.012,136.265 L142.332,139.174" id="Fill-21" fill="#32A185"></path>
            <path d="M153.82,161.607 L149.456,153.086 C149.603,153.105 149.756,153.116 149.916,153.116 C153.777,153.116 153.784,147.116 149.916,147.116 C148.558,147.116 147.676,147.859 147.273,148.822 L142.332,139.174 L148.012,136.265 L159.554,158.804 L153.82,161.607" id="Fill-22" fill="#C3C5C0"></path>
            <path d="M149.916,153.116 C149.756,153.116 149.603,153.105 149.456,153.086 L147.273,148.822 C147.676,147.859 148.558,147.116 149.916,147.116 C153.784,147.116 153.777,153.116 149.916,153.116" id="Fill-23" fill="#132736"></path>
            <polyline id="Fill-24" fill="#C3C5C0" points="154.225 162.399 153.82 161.607 159.554 158.804 159.905 159.49 154.225 162.399"></polyline>
            <path d="M189.845,229.567 C189.118,229.567 188.417,229.17 188.063,228.479 L154.225,162.399 L159.905,159.49 L188.063,214.479 C188.417,215.17 189.118,215.567 189.845,215.567 C190.152,215.567 190.463,215.497 190.755,215.347 L204.081,208.523 L204.712,208.2 L216.729,202.047 L220.643,214.042 L190.755,229.347 C190.463,229.497 190.151,229.567 189.845,229.567" id="Fill-25" fill="#C5A569"></path>
            <polyline id="Fill-26" fill="#C5A569" points="234.382 207.007 230.221 195.137 250.054 184.981 254.274 196.821 234.382 207.007"></polyline>
            <path d="M307.214,155.711 L190.755,215.347 C189.772,215.851 188.566,215.462 188.063,214.479 L128.428,98.02 C127.924,97.037 128.313,95.832 129.296,95.328 L245.755,35.692 C246.738,35.189 247.943,35.578 248.447,36.561 L308.082,153.02 C308.586,154.003 308.196,155.208 307.214,155.711" id="Fill-27" fill="#FFFFFE"></path>
            <path d="M289.444,121.011 L172.985,180.647 C172.002,181.15 170.797,180.761 170.294,179.778 L143.442,127.342 C142.939,126.359 143.328,125.154 144.311,124.65 L260.77,65.015 C261.753,64.511 262.958,64.9 263.462,65.883 L290.313,118.319 C290.816,119.302 290.428,120.508 289.444,121.011" id="Fill-28" fill="#E36B5A"></path>
            <path d="M157.591,98.485 C159.898,102.723 158.332,108.029 154.093,110.336 C149.855,112.643 144.549,111.077 142.242,106.838 C139.935,102.6 141.501,97.294 145.74,94.987 C149.978,92.68 155.284,94.246 157.591,98.485" id="Fill-29" fill="#E36B5A"></path>
            <path d="M151.558,101.903 C151.724,101.3 151.667,100.635 151.344,100.042 C150.683,98.826 149.161,98.377 147.945,99.039 C146.729,99.7 146.28,101.223 146.941,102.438 C147.264,103.031 147.792,103.44 148.389,103.628 C147.191,104.825 146.528,106.444 146.517,108.105 C148.413,109.313 150.889,109.481 153.002,108.331 C155.116,107.181 156.318,105.01 156.333,102.763 C154.932,101.87 153.213,101.547 151.558,101.903" id="Fill-30" fill="#FFFFFE"></path>
            <path d="M204.747,178.718 C203.728,176.604 200.926,175.841 198.49,177.016 C196.053,178.19 194.905,180.857 195.924,182.972 C194.905,180.857 192.103,180.095 189.667,181.269 C187.23,182.444 186.082,185.11 187.102,187.225 C187.102,187.225 190.136,196.86 202.249,196.089 C210.395,187.093 204.747,178.718 204.747,178.718" id="Fill-31" fill="#E36B5A"></path>
            <path d="M234.882,177.828 L231.605,175.399 C231.547,174.044 231.215,172.68 230.564,171.39 C228.112,166.532 222.186,164.581 217.327,167.032 C212.469,169.484 210.518,175.411 212.969,180.269 C215.421,185.128 221.348,187.079 226.207,184.627 C228.41,183.515 230.008,181.685 230.876,179.566 L234.41,179.389 C235.222,179.349 235.536,178.312 234.882,177.828" id="Fill-32" fill="#DCDDD7"></path>
            <polyline id="Fill-33" fill="#BEC0BB" points="249.426 150.993 244.823 164.25 234.408 165.285 249.426 150.993"></polyline>
            <polyline id="Fill-34" fill="#DCDDD7" points="249.426 150.993 244.823 164.25 252.355 171.516 249.426 150.993"></polyline>
            <path d="M166.121,95.725 L165.214,93.941 C164.963,93.449 165.159,92.847 165.651,92.597 L192.036,79.171 C192.528,78.92 193.13,79.116 193.38,79.608 L194.288,81.392 C194.538,81.884 194.342,82.486 193.85,82.736 L167.466,96.162 C166.974,96.413 166.372,96.217 166.121,95.725" id="Fill-35" fill="#BEC0BB"></path>
            <path d="M204.081,208.523 L201.316,196.129 C201.621,196.123 201.931,196.11 202.249,196.089 C210.395,187.093 204.747,178.718 204.747,178.718 C204.052,177.277 202.53,176.464 200.859,176.464 C200.078,176.464 199.266,176.642 198.49,177.016 C198.023,177.241 197.603,177.521 197.237,177.841 L195.312,169.214 L224.461,154.287 L227.199,167.606 C225.589,166.545 223.693,165.974 221.759,165.974 C220.266,165.974 218.751,166.314 217.327,167.032 C212.469,169.484 210.518,175.411 212.969,180.269 C214.703,183.704 218.173,185.686 221.774,185.686 C223.267,185.686 224.783,185.345 226.207,184.627 C227.806,183.819 229.087,182.633 230.001,181.234 L232.608,193.915 L204.712,208.2 L204.081,208.523" id="Fill-36" fill="#FFFFFE"></path>
            <path d="M181.162,105.779 L177.839,90.883 L193.85,82.736 C194.342,82.486 194.538,81.884 194.288,81.392 L193.38,79.608 C193.204,79.261 192.853,79.062 192.488,79.062 C192.336,79.062 192.181,79.097 192.036,79.171 L176.94,86.852 L173.753,72.563 L204.43,56.854 L211.314,90.34 L181.162,105.779" id="Fill-37" fill="#FFFFFE"></path>
            <polyline id="Fill-38" fill="#E78073" points="195.312 169.214 181.162 105.779 211.314 90.34 224.461 154.287 195.312 169.214"></polyline>
            <path d="M201.316,196.129 L197.237,177.841 C197.603,177.521 198.023,177.241 198.49,177.016 C199.266,176.642 200.078,176.464 200.859,176.464 C202.53,176.464 204.052,177.277 204.747,178.718 C204.747,178.718 210.395,187.093 202.249,196.089 C201.931,196.11 201.621,196.123 201.316,196.129" id="Fill-39" fill="#E78073"></path>
            <path d="M221.774,185.686 C218.173,185.686 214.703,183.704 212.969,180.269 C210.518,175.411 212.469,169.484 217.327,167.032 C218.751,166.314 220.266,165.974 221.759,165.974 C223.693,165.974 225.589,166.545 227.199,167.606 L230.001,181.234 C229.087,182.633 227.806,183.819 226.207,184.627 C224.783,185.345 223.267,185.686 221.774,185.686" id="Fill-40" fill="#E3E3DE"></path>
            <path d="M177.839,90.883 L176.94,86.852 L192.036,79.171 C192.181,79.097 192.336,79.062 192.488,79.062 C192.853,79.062 193.204,79.261 193.38,79.608 L194.288,81.392 C194.538,81.884 194.342,82.486 193.85,82.736 L177.839,90.883" id="Fill-41" fill="#CACBC6"></path>
            <polyline id="Fill-42" fill="#D0AF72" points="256.245 181.811 257.195 181.325 256.245 181.811"></polyline>
            <path d="M242.398,188.902 L237.585,164.969 L244.823,164.25 L249.426,150.993 L237.128,162.696 L234.413,149.191 L248.96,141.742 L257.195,181.325 L256.245,181.811 L242.398,188.902 M249.426,150.993 L244.823,164.25 L252.355,171.516 L249.426,150.993 M221.527,85.11 L214.78,51.554 L228.711,44.42 L235.67,77.867 L221.527,85.11" id="Fill-43" fill="#FFFFFE"></path>
            <polyline id="Fill-44" fill="#E78073" points="234.413 149.191 221.527 85.11 235.67 77.867 248.96 141.742 234.413 149.191"></polyline>
            <polyline id="Fill-45" fill="#CACBC6" points="237.585 164.969 237.128 162.696 249.426 150.993 244.823 164.25 237.585 164.969"></polyline>
            <polyline id="Fill-46" fill="#E3E3DE" points="252.355 171.516 244.823 164.25 249.426 150.993 252.355 171.516"></polyline>
            <path d="M381.373,111.997 C381.373,98.029 370.05,86.705 356.082,86.705 C342.113,86.705 330.79,98.029 330.79,111.997 C330.79,125.964 342.113,137.288 356.082,137.288 C370.05,137.288 381.373,125.964 381.373,111.997" id="Fill-47" fill="#FFFFFE"></path>
            <path d="M358.364,118.689 C359.582,116.21 358.561,113.214 356.082,111.997 C353.604,110.779 350.606,111.801 349.39,114.279 C348.172,116.758 349.193,119.754 351.672,120.972 C354.15,122.189 357.146,121.167 358.364,118.689" id="Fill-48" fill="#005C70"></path>
            <path d="M348.782,109.677 L345.792,105.67 C349.878,102.62 355.256,102.121 359.83,104.368 C364.401,106.614 367.294,111.175 367.378,116.273 L362.378,116.355 C362.325,113.144 360.504,110.27 357.625,108.855 C354.745,107.44 351.356,107.755 348.782,109.677" id="Fill-49" fill="#005C70"></path>
            <path d="M343.915,103.169 L340.924,99.162 C347.471,94.276 356.087,93.476 363.412,97.075 C370.737,100.674 375.37,107.981 375.503,116.147 L370.504,116.229 C370.401,109.949 366.839,104.33 361.208,101.563 C355.575,98.796 348.949,99.411 343.915,103.169" id="Fill-50" fill="#005C70"></path>
            <path d="M422.938,142.742 L395.646,132.791 C395.349,132.682 395.195,132.353 395.304,132.055 L401.934,113.876 C402.042,113.579 402.371,113.425 402.669,113.534 L429.96,123.486 C430.257,123.594 430.41,123.923 430.302,124.221 L423.673,142.4 C423.564,142.698 423.235,142.851 422.938,142.742" id="Fill-51" fill="#ACDAD3"></path>
            <path d="M429.974,124.557 C430.463,124.363 430.453,123.666 429.958,123.485 L416.314,118.51 L402.67,113.534 C402.175,113.354 401.719,113.88 401.969,114.345 L411.47,130.682 C411.607,130.938 411.915,131.051 412.186,130.943 L429.974,124.557" id="Fill-52" fill="#FFFFFE"></path>
            <path d="M412.282,223.525 C410.448,215.093 402.125,209.744 393.692,211.579 C385.26,213.413 379.911,221.736 381.746,230.168 C383.58,238.601 391.903,243.95 400.336,242.115 C408.769,240.281 414.117,231.958 412.282,223.525" id="Fill-53" fill="#ACDAD3"></path>
            <path d="M399.257,226.359 C398.987,225.12 397.765,224.334 396.526,224.604 C395.287,224.874 394.502,226.096 394.771,227.335 C395.041,228.574 396.264,229.359 397.502,229.09 C398.741,228.82 399.526,227.598 399.257,226.359" id="Fill-54" fill="#17B0A2"></path>
            <path d="M392.616,227.804 C392.347,226.565 391.124,225.779 389.885,226.049 C388.646,226.318 387.86,227.541 388.13,228.78 C388.399,230.019 389.622,230.804 390.861,230.535 C392.1,230.265 392.886,229.042 392.616,227.804" id="Fill-55" fill="#17B0A2"></path>
            <path d="M405.898,224.914 C405.629,223.675 404.406,222.89 403.167,223.159 C401.929,223.429 401.143,224.651 401.412,225.89 C401.682,227.129 402.904,227.915 404.144,227.645 C405.382,227.375 406.168,226.153 405.898,224.914" id="Fill-56" fill="#17B0A2"></path>
            <path d="M224.271,308.179 C224.271,308.179 221.521,325.179 233.771,337.179 C246.021,349.179 260.98,371.595 264.001,398.658 L295.847,382.351 C295.847,382.351 285.961,369.768 280.205,355.413 C277.553,348.799 275.777,341.809 276.251,335.5 C277.65,316.838 272.001,304 272.001,304 L232.802,307.432 L224.271,308.179" id="Fill-57" fill="#EB9467"></path>
            <path d="M251.439,323.413 L223.07,270.603 C221.11,266.953 222.479,262.405 226.128,260.445 C229.778,258.486 234.324,259.854 236.284,263.503 L266.646,320.025" id="Fill-58" fill="#7D3832"></path>
            <path d="M224.271,308.179 C224.271,308.179 228.477,291.878 232.024,285.717 C234.501,281.413 241.334,278.667 241.334,288.667 C241.334,298.667 240.001,308.179 240.001,308.179 L224.271,308.179" id="Fill-59" fill="#EB9467"></path>
            <path d="M280.205,355.413 C277.553,348.799 275.777,341.809 276.251,335.5 C277.65,316.838 272.001,304 272.001,304 L241.334,291.409 C241.334,291.409 220,308.978 251.044,338.896 C262.086,349.538 280.205,355.413 280.205,355.413" id="Fill-60" fill="#CE7F57"></path>
            <path d="M266.646,320.025 L271.188,328.479 C273.148,332.128 271.778,336.676 268.13,338.635 C267.043,339.219 265.875,339.508 264.72,339.528 C262,339.577 259.35,338.139 257.974,335.577 L251.439,323.413" id="Fill-61" fill="#7D3832"></path>
            <path d="M256.668,326.333 C256.668,326.333 275.668,323 280.334,317.667 C285.001,312.333 276.334,291.159 262.668,281.413 C249.001,271.667 239.43,295.485 238.215,297.243 C237.001,299 234.334,305.833 236.167,308.833 C238.001,311.833 240.501,310.5 240.501,310.5 C240.501,310.5 238.264,312.848 239.93,314.848 C241.597,316.848 244.167,316.167 244.167,316.167 C244.167,316.167 242.673,318.602 243.945,320.315 C245.751,322.75 248.167,321.5 248.167,321.5 C248.167,321.5 247.001,323.667 248.501,325.167 C250.001,326.667 253.974,326.577 253.974,326.577 C253.974,326.577 255.899,326.476 256.668,326.333" id="Fill-62" fill="#EB9467"></path>
            <path d="M241.366,310 L241.125,309.912 C240.967,309.779 240.946,309.543 241.079,309.384 C241.599,308.765 253.815,294.195 254.462,293.528 C254.608,293.379 254.845,293.376 254.992,293.52 C255.142,293.664 255.145,293.901 255.001,294.05 C254.498,294.568 246.05,304.622 241.654,309.866 C241.58,309.954 241.473,310 241.366,310" id="Fill-63" fill="#CE7F57"></path>
            <path d="M244.168,316.542 C244.045,316.542 243.926,316.482 243.854,316.372 C243.74,316.199 243.789,315.967 243.962,315.854 C244.597,315.438 259.542,305.664 262.514,304.471 C262.705,304.395 262.925,304.486 263.001,304.679 C263.078,304.871 262.985,305.089 262.793,305.166 C259.89,306.332 244.528,316.38 244.373,316.48 L244.168,316.542" id="Fill-64" fill="#CE7F57"></path>
            <path d="M248.167,321.875 C248.006,321.875 247.856,321.77 247.808,321.607 C247.749,321.408 247.862,321.2 248.061,321.141 C248.232,321.09 265.271,316.011 267.474,315.032 C267.664,314.949 267.884,315.033 267.969,315.223 C268.053,315.412 267.968,315.634 267.778,315.718 C265.532,316.716 248.978,321.649 248.274,321.859 L248.167,321.875" id="Fill-65" fill="#CE7F57"></path>
            <path d="M235.814,284.464 C234.71,284.946 233.801,285.791 233.221,286.848 C232.431,288.287 231.326,290.373 231.167,291.06 C230.917,292.144 230.838,293.144 231.94,293.394 C233.042,293.644 236.667,294.144 237.917,293.394 C239.167,292.644 239.789,288.398 239.039,286.398 C238.482,284.914 237.316,283.808 235.814,284.464" id="Fill-66" fill="#B15245"></path>
            <path d="M241.688,301.707 C241.688,301.707 238.438,299.345 237.313,302.829 C236.188,306.313 237.168,308.563 238.116,309 C239.063,309.438 240.813,309.188 242.813,306.25 C244.813,303.313 242.175,302.001 241.688,301.707" id="Fill-67" fill="#B15245"></path>
            <path d="M243.282,309.469 C243.282,309.469 239.563,312.594 241.126,314.125 C242.688,315.656 246.251,313.031 246.251,313.031 C246.251,313.031 247.938,311.836 246.438,310 C244.938,308.164 243.435,309.335 243.282,309.469" id="Fill-68" fill="#B15245"></path>
            <path d="M253.126,321.037 C253.126,321.037 248.993,321.721 249.479,323.544 C249.965,325.367 253.763,324.985 253.763,324.985 C253.763,324.985 255.541,324.84 255.234,322.818 C254.929,320.796 253.298,321.005 253.126,321.037" id="Fill-69" fill="#B15245"></path>
            <path d="M247.942,315.709 C247.942,315.709 243.908,317.07 245.001,319.417 C246.094,321.763 249.917,319.583 250.751,319.083 C251.584,318.583 250.417,315.667 250.001,315.375 C249.584,315.083 248.516,315.479 247.942,315.709" id="Fill-70" fill="#B15245"></path>
            <path d="M246.814,264.802 C246.814,264.802 240.13,267.172 234.667,273.164 C229.62,278.702 224.623,281.839 224.623,281.839 C215.617,286.451 203.013,279.833 196.471,267.058 C189.929,254.282 192.785,241.574 200.933,235.576 C204.306,233.092 209.751,232.75 215.797,232 C221.843,231.25 227.562,227.199 227.562,227.199 C227.562,227.199 236.48,223.75 238.116,212.5 C239.751,201.25 251.584,179.274 269.293,170.387 L316.604,264.997 C316.604,264.997 299.001,275.664 278.251,272 C257.501,268.335 259.128,260.604 246.814,264.802" id="Fill-71" fill="#B15245"></path>
            <path d="M324.5,201.498 C337.831,227.532 333.761,256.255 315.408,265.652 C297.056,275.051 271.371,261.564 258.04,235.53 C244.708,209.496 248.779,180.772 267.131,171.375 C285.483,161.977 311.168,175.463 324.5,201.498" id="Fill-72" fill="#EDEDE9"></path>
            <path d="M315.982,206.908 C327.109,228.638 323.254,252.847 307.371,260.979 C291.488,269.112 269.593,258.091 258.465,236.36 C247.338,214.631 251.193,190.422 267.076,182.289 C282.959,174.156 304.854,185.178 315.982,206.908" id="Fill-73" fill="#DCDDD7"></path>
            <path d="M291.27,218.514 L282.985,202.336 C282.985,202.336 272.255,205.45 264.922,218.514 C262.037,223.653 256.382,227.974 250.002,229.149 C244.167,230.225 252.354,237.25 252.354,237.25 C252.354,237.25 255.27,246.604 258.135,245.354 C264.337,242.647 270.358,238.849 276.334,239.667 C291.177,241.697 299.177,234.879 299.177,234.879 L291.27,218.514" id="Fill-74" fill="#7D3832"></path>
            <path d="M267.131,171.375 C248.779,180.772 244.708,209.496 258.04,235.53 C271.371,261.564 297.056,275.051 315.408,265.652 L306.58,270.174 C288.228,279.571 262.543,266.085 249.211,240.051 C235.88,214.017 239.95,185.293 258.303,175.896 L267.131,171.375" id="Fill-75" fill="#E36B5A"></path>
            <path d="M226.398,251.525 C221.651,242.256 222.323,232.15 227.562,227.199 C226.543,227.394 225.556,227.727 224.617,228.208 C217.143,232.035 215.486,243.732 220.915,254.333 C226.343,264.935 236.803,270.427 244.276,266.6 C245.215,266.119 246.062,265.513 246.814,264.802 C239.735,266.157 231.144,260.794 226.398,251.525" id="Fill-76" fill="#E36B5A"></path>
            <path d="M302.674,212.674 C307.249,221.608 305.853,231.466 299.554,234.691 C293.256,237.917 284.44,233.288 279.865,224.354 C275.29,215.419 276.688,205.562 282.985,202.336 C289.284,199.111 298.099,203.739 302.674,212.674" id="Fill-77" fill="#E36B5A"></path>
            <path d="M405.338,161.302 C397.852,146.683 375.455,143.192 355.313,153.507 C335.171,163.821 324.911,184.034 332.397,198.653 C335.636,204.977 341.667,209.213 349.097,211.156 L327.501,230.225 C327.501,230.225 357.463,217.822 375.798,209.314 C378.018,208.516 380.233,207.568 382.423,206.447 C384.394,205.438 386.267,204.331 388.041,203.146 C388.542,202.837 388.94,202.564 389.221,202.336 C404.765,191.366 411.927,174.169 405.338,161.302" id="Fill-78" fill="#B15245"></path>
            <path d="M362.209,176.386 C360.826,173.518 357.027,172.484 353.724,174.077 C350.419,175.67 348.862,179.286 350.244,182.153 C348.862,179.286 345.063,178.252 341.759,179.845 C338.455,181.438 336.897,185.054 338.28,187.921 C338.28,187.921 342.396,200.988 358.82,199.942 C369.868,187.743 362.209,176.386 362.209,176.386" id="Fill-79" fill="#E36B5A"></path>
            <polyline id="Fill-80" fill="#FFFFFE" points="373.971 173.45 372.196 176.29 369.012 174.16 372.404 168.169 375.85 166.439 383.518 181.709 379.206 183.875 373.971 173.45"></polyline>
            <polyline id="Fill-81" fill="#FFFFFE" points="378.626 165.045 382.938 162.879 385.963 168.903 388.072 160.301 393.162 157.745 390.72 166.958 401.274 172.791 396.118 175.381 389.281 171.577 388.575 174.104 390.606 178.149 386.294 180.314 378.626 165.045"></polyline>
            <path d="M361.532,241.946 C354.693,241.946 348.501,244.715 344.014,249.193 C344.014,249.193 337.512,253.146 323.991,249.641 C323.991,249.641 333.149,255.268 337.011,270.476 C338.809,282.404 349.103,291.55 361.532,291.55 C375.23,291.55 386.334,280.445 386.334,266.748 C386.334,253.051 375.23,241.946 361.532,241.946" id="Fill-82" fill="#FFFFFE"></path>
            <path d="M356.37,254.533 L362.514,259.715 C362.886,260.028 363.418,260.067 363.832,259.81 L370.657,255.568 C371.582,254.994 372.702,255.938 372.292,256.947 L369.263,264.391 C369.079,264.841 369.207,265.359 369.579,265.673 L375.722,270.854 C376.555,271.556 376.002,272.913 374.916,272.834 L366.901,272.254 C366.416,272.219 365.963,272.5 365.779,272.951 L362.75,280.395 C362.34,281.403 360.878,281.297 360.617,280.24 L358.692,272.438 C358.576,271.965 358.168,271.621 357.683,271.586 L349.668,271.006 C348.582,270.927 348.23,269.504 349.155,268.93 L355.981,264.688 C356.395,264.432 356.596,263.938 356.479,263.464 L354.555,255.662 C354.294,254.604 355.538,253.832 356.37,254.533" id="Fill-83" fill="#EFA43A"></path>
            <path d="M285.216,150.591 C286.581,156.744 290.309,161.762 295.232,164.904 C295.233,164.905 300.087,169.965 299.634,182.828 C299.634,182.828 302.867,173.466 315.777,166.956 C326.15,162.956 332.322,151.87 329.841,140.687 C327.105,128.364 314.899,120.592 302.576,123.327 C290.253,126.062 282.48,138.268 285.216,150.591" id="Fill-84" fill="#ACDAD3"></path>
            <polyline id="Fill-85" fill="#17B0A2" points="315.301 148.164 310.287 132.439 299.177 144.644 304.176 145.735 300.862 159.104 307.392 160.722 310.751 147.17 315.301 148.164"></polyline>
            <path d="M366.49,434.995 C365.763,434.995 365.062,434.597 364.708,433.906 L345.564,396.52 L351.998,393.226 L367.708,423.906 C368.062,424.597 368.763,424.995 369.49,424.995 C369.797,424.995 370.108,424.924 370.399,424.774 L377.084,421.351 L377.084,421.352 L451.353,383.32 L453.875,388.245 C454.379,389.229 453.99,390.434 453.007,390.937 L367.399,434.774 C367.108,434.924 366.797,434.995 366.49,434.995" id="Fill-86" fill="#32A185"></path>
            <polyline id="Fill-87" fill="#C3C5C0" points="345.564 396.52 329.487 365.124 335.921 361.83 351.998 393.226 345.564 396.52"></polyline>
            <path d="M329.487,365.124 L320.871,348.299 C320.367,347.315 320.756,346.11 321.739,345.607 L326.393,343.224 L335.921,361.83 L329.487,365.124" id="Fill-88" fill="#CA9437"></path>
            <path d="M456.007,380.938 L370.399,424.774 C369.417,425.278 368.211,424.889 367.708,423.906 L323.871,338.299 C323.367,337.315 323.756,336.11 324.739,335.607 L410.347,291.769 C411.329,291.267 412.535,291.655 413.038,292.639 L456.875,378.245 C457.379,379.228 456.99,380.434 456.007,380.938" id="Fill-89" fill="#FFFFFE"></path>
            <path d="M434.144,359.298 L365.621,394.387 C364.638,394.89 363.433,394.501 362.93,393.518 L349.339,366.978 C348.836,365.995 349.225,364.79 350.208,364.286 L418.729,329.198 C419.713,328.694 420.918,329.083 421.422,330.066 L435.012,356.606 C435.516,357.59 435.127,358.795 434.144,359.298" id="Fill-90" fill="#17B0A2"></path>
            <path d="M348.539,338.708 C350.295,341.934 349.103,345.973 345.877,347.729 C342.65,349.484 338.611,348.292 336.855,345.065 C335.101,341.84 336.292,337.801 339.519,336.045 C342.744,334.289 346.783,335.481 348.539,338.708" id="Fill-91" fill="#17B0A2"></path>
            <path d="M343.946,341.31 C344.073,340.851 344.029,340.344 343.784,339.893 C343.28,338.968 342.122,338.626 341.196,339.129 C340.271,339.633 339.93,340.791 340.433,341.717 C340.679,342.168 341.08,342.479 341.534,342.622 C340.622,343.533 340.118,344.766 340.11,346.03 C341.553,346.949 343.438,347.077 345.046,346.202 C346.654,345.326 347.57,343.674 347.581,341.964 C346.515,341.284 345.206,341.038 343.946,341.31" id="Fill-92" fill="#FFFFFE"></path>
            <path d="M352.108,334.069 L351.201,332.287 C350.95,331.795 351.147,331.192 351.639,330.942 L371.296,320.939 C371.787,320.689 372.39,320.885 372.64,321.377 L373.547,323.159 C373.798,323.651 373.602,324.254 373.109,324.504 L353.452,334.507 C352.961,334.757 352.358,334.562 352.108,334.069" id="Fill-93" fill="#BEC0BB"></path>
            <path d="M355.391,341.135 L354.936,340.244 C354.685,339.752 354.879,339.149 355.37,338.898 L403.095,314.494 C403.587,314.243 404.189,314.437 404.44,314.93 L404.896,315.82 C405.146,316.313 404.952,316.915 404.461,317.166 L356.736,341.57 C356.244,341.821 355.642,341.627 355.391,341.135" id="Fill-94" fill="#BEC0BB"></path>
            <path d="M358.183,346.775 L357.728,345.885 C357.477,345.393 357.671,344.79 358.162,344.539 L405.887,320.135 C406.379,319.884 406.981,320.078 407.232,320.57 L407.687,321.461 C407.938,321.953 407.744,322.556 407.253,322.807 L359.528,347.211 C359.036,347.462 358.434,347.268 358.183,346.775" id="Fill-95" fill="#BEC0BB"></path>
            <path d="M418.642,379.111 C417.98,377.645 416.075,377.075 414.386,377.838 C412.697,378.601 411.865,380.406 412.526,381.872 C411.865,380.406 409.96,379.836 408.27,380.599 C406.582,381.361 405.75,383.167 406.411,384.633 C406.411,384.633 408.323,391.284 416.632,390.965 C422.366,384.944 418.642,379.111 418.642,379.111" id="Fill-96" fill="#DCDDD7"></path>
            <path d="M384.013,398.867 C382.533,395.782 378.232,394.768 374.406,396.603 C370.58,398.437 368.678,402.425 370.156,405.51 C371.636,408.595 375.936,409.608 379.763,407.774 L381.532,411.467 C381.532,411.467 384.215,404.657 384.338,402.507 L384.338,402.5 C384.641,401.268 384.559,400.006 384.013,398.867" id="Fill-97" fill="#17B0A2"></path>
            <path d="M395.732,399.876 C394.967,400.238 394.052,399.918 393.686,399.156 L391.977,395.591 L394.569,398.128 L395.269,397.413 L388.624,390.91 L389.534,400.162 L390.528,400.064 L390.174,396.455 L391.884,400.021 C392.49,401.286 393.757,402.025 395.074,402.025 C395.586,402.025 396.105,401.914 396.597,401.679 L399.794,400.145 L398.929,398.343 L395.732,399.876" id="Fill-98" fill="#BEC0BB"></path>
            <path d="M395.932,388.515 C396.694,388.148 397.606,388.474 397.973,389.233 L399.678,392.789 L397.086,390.252 L396.386,390.967 L403.03,397.471 L402.121,388.218 L401.126,388.315 L401.48,391.925 L399.775,388.368 C399.368,387.519 398.653,386.878 397.765,386.564 C396.875,386.252 395.916,386.304 395.066,386.712 L391.872,388.243 L392.737,390.046 L395.932,388.515" id="Fill-99" fill="#BEC0BB"></path>
            <polyline id="Fill-100" fill="#5EB298" points="377.084 421.352 377.084 421.352 399.31 409.97 399.311 409.971 377.084 421.352"></polyline>
            <path d="M377.084,421.352 L374.319,408.539 C374.812,408.638 375.326,408.688 375.853,408.688 C377.126,408.688 378.471,408.394 379.763,407.774 L381.532,411.467 C381.532,411.467 384.215,404.657 384.338,402.507 L384.338,402.5 C384.641,401.268 384.559,400.006 384.013,398.867 C383.033,396.824 380.814,395.688 378.316,395.688 C377.043,395.688 375.698,395.983 374.406,396.603 C373.523,397.026 372.743,397.563 372.083,398.178 L370.703,391.784 L393.164,380.282 L394.547,386.961 L391.872,388.243 L392.737,390.046 L394.965,388.978 L397.086,399.227 L395.732,399.876 C395.519,399.977 395.293,400.025 395.072,400.025 C394.499,400.025 393.95,399.705 393.686,399.156 L391.977,395.591 L394.569,398.128 L395.269,397.413 L388.624,390.91 L389.534,400.162 L390.528,400.064 L390.174,396.455 L391.884,400.021 C392.49,401.286 393.757,402.025 395.074,402.025 C395.586,402.025 396.105,401.914 396.597,401.679 L397.504,401.244 L399.311,409.971 L377.084,421.351 M363.32,357.572 L360.93,346.494 L383.753,334.823 L386.053,345.931 L363.32,357.572 M360.275,343.459 L359.556,340.128 L382.43,328.432 L383.122,331.775 L360.275,343.459" id="Fill-101" fill="#FFFFFE"></path>
            <polyline id="Fill-102" fill="#6CBFA7" points="355.213 320.002 355.163 319.77 378.237 308.179 378.243 308.209 355.213 320.002"></polyline>
            <path d="M358.901,337.093 L357.859,332.264 L373.109,324.504 C373.602,324.254 373.798,323.651 373.547,323.159 L372.64,321.377 C372.464,321.03 372.112,320.831 371.748,320.831 C371.596,320.831 371.441,320.866 371.296,320.939 L356.987,328.221 L355.213,320.002 L378.243,308.209 L381.799,325.384 L358.901,337.093" id="Fill-103" fill="#FFFFFE"></path>
            <polyline id="Fill-104" fill="#57BBAF" points="370.703 391.784 363.32 357.572 386.053 345.931 393.164 380.282 370.703 391.784"></polyline>
            <path d="M357.859,332.264 L356.987,328.221 L371.296,320.939 C371.441,320.866 371.596,320.831 371.748,320.831 C372.112,320.831 372.464,321.03 372.64,321.377 L373.547,323.159 C373.798,323.651 373.602,324.254 373.109,324.504 L357.859,332.264" id="Fill-105" fill="#CACBC6"></path>
            <polyline id="Fill-106" fill="#CACBC6" points="359.556 340.128 358.901 337.093 381.799 325.384 382.43 328.432 359.556 340.128"></polyline>
            <polyline id="Fill-107" fill="#CACBC6" points="360.93 346.494 360.275 343.459 383.122 331.775 383.753 334.823 360.93 346.494"></polyline>
            <path d="M381.532,411.467 L379.763,407.774 C378.471,408.394 377.126,408.688 375.853,408.688 C375.326,408.688 374.812,408.638 374.319,408.539 L372.083,398.178 C372.743,397.563 373.523,397.026 374.406,396.603 C375.698,395.983 377.043,395.688 378.316,395.688 C380.814,395.688 383.033,396.824 384.013,398.867 C384.559,400.006 384.641,401.268 384.338,402.5 L384.338,402.507 C384.215,404.657 381.532,411.467 381.532,411.467" id="Fill-108" fill="#57BBAF"></path>
            <path d="M395.074,402.025 C393.757,402.025 392.49,401.286 391.884,400.021 L390.174,396.455 L390.528,400.064 L389.534,400.162 L388.624,390.91 L395.269,397.413 L394.569,398.128 L391.977,395.591 L393.686,399.156 C393.95,399.705 394.499,400.025 395.072,400.025 C395.293,400.025 395.519,399.977 395.732,399.876 L397.086,399.227 L397.504,401.244 L396.597,401.679 C396.105,401.914 395.586,402.025 395.074,402.025" id="Fill-109" fill="#CACBC6"></path>
            <polyline id="Fill-110" fill="#CACBC6" points="392.737 390.046 391.872 388.243 394.547 386.961 394.965 388.978 392.737 390.046"></polyline>
            <path d="M407.785,405.63 L402.051,375.732 L412.86,370.197 L414.285,377.885 C412.664,378.673 411.879,380.436 412.526,381.872 C412.064,380.847 410.994,380.26 409.815,380.26 C409.307,380.26 408.779,380.369 408.27,380.599 C406.582,381.361 405.75,383.167 406.411,384.633 C406.411,384.633 408.236,390.975 416.058,390.976 C416.246,390.976 416.437,390.972 416.632,390.965 C416.654,390.942 416.676,390.919 416.698,390.895 L418.42,400.185 L407.785,405.63 M395.416,341.137 L393.271,329.956 L404.348,324.292 L406.426,335.498 L395.416,341.137 M392.682,326.887 L392.037,323.519 L403.151,317.836 L403.777,321.213 L392.682,326.887" id="Fill-111" fill="#FFFFFE"></path>
            <polyline id="Fill-112" fill="#6CBFA7" points="388.129 303.147 388.077 302.875 399.311 297.123 399.361 297.395 388.129 303.147"></polyline>
            <polyline id="Fill-113" fill="#FFFFFE" points="391.448 320.45 388.129 303.147 399.361 297.395 402.58 314.757 391.448 320.45"></polyline>
            <polyline id="Fill-114" fill="#57BBAF" points="402.051 375.732 395.416 341.137 406.426 335.498 412.86 370.197 402.051 375.732"></polyline>
            <polyline id="Fill-115" fill="#CACBC6" points="392.037 323.519 391.448 320.45 402.58 314.757 403.151 317.836 392.037 323.519"></polyline>
            <polyline id="Fill-116" fill="#CACBC6" points="393.271 329.956 392.682 326.887 403.777 321.213 404.348 324.292 393.271 329.956"></polyline>
            <path d="M416.058,390.976 C408.236,390.975 406.411,384.633 406.411,384.633 C405.75,383.167 406.582,381.361 408.27,380.599 C408.779,380.369 409.307,380.26 409.815,380.26 C410.994,380.26 412.064,380.847 412.526,381.872 C411.879,380.436 412.664,378.673 414.285,377.885 L416.698,390.895 C416.676,390.919 416.654,390.942 416.632,390.965 C416.437,390.972 416.246,390.976 416.058,390.976" id="Fill-117" fill="#E3E3DE"></path>
            <path d="M115.065,424.645 C114.338,424.645 113.637,424.247 113.283,423.556 L44.803,289.826 C44.3,288.844 44.688,287.639 45.672,287.135 L49.572,285.138 L97.03,377.818 C97.037,377.833 97.045,377.847 97.053,377.861 L113.283,409.556 C113.637,410.247 114.338,410.645 115.065,410.645 C115.372,410.645 115.683,410.574 115.975,410.425 L123.943,406.344 L155.828,390.23 L155.788,390.037 L192.907,371.03 L198.586,382.121 L115.975,424.425 C115.683,424.574 115.372,424.645 115.065,424.645" id="Fill-118" fill="#32A185"></path>
            <polyline id="Fill-119" fill="#132736" points="198.586 382.121 192.907 371.03 203.922 365.389 209.602 376.48 198.586 382.121"></polyline>
            <polyline id="Fill-120" fill="#C3C5C0" points="209.602 376.48 203.922 365.389 209.363 362.603 215.043 373.694 209.602 376.48"></polyline>
            <polyline id="Fill-121" fill="#C69E56" points="215.043 373.694 209.363 362.603 217.014 358.685 220.96 370.664 215.043 373.694"></polyline>
            <path d="M220.96,370.664 L217.014,358.685 L218.213,358.071 L222.981,367.383 C223.484,368.365 223.095,369.57 222.112,370.074 L220.96,370.664" id="Fill-122" fill="#C5A569"></path>
            <path d="M222.112,356.074 L115.975,410.425 C114.991,410.928 113.786,410.539 113.283,409.556 L44.803,275.826 C44.3,274.844 44.688,273.639 45.672,273.135 L151.81,218.784 C152.792,218.281 153.998,218.67 154.501,219.653 L222.981,353.383 C223.484,354.365 223.095,355.57 222.112,356.074" id="Fill-123" fill="#FFFFFE"></path>
            <path d="M205.86,324.336 L99.722,378.686 C98.739,379.19 97.534,378.801 97.03,377.818 L58.933,303.418 C58.429,302.436 58.818,301.23 59.801,300.727 L165.938,246.376 C166.922,245.873 168.127,246.262 168.63,247.245 L206.729,321.645 C207.232,322.628 206.843,323.833 205.86,324.336" id="Fill-124" fill="#005C70"></path>
            <path d="M74.706,276.202 C76.842,280.126 75.392,285.039 71.468,287.175 C67.544,289.311 62.631,287.86 60.496,283.937 C58.36,280.012 59.81,275.1 63.734,272.964 C67.658,270.828 72.57,272.278 74.706,276.202" id="Fill-125" fill="#005C70"></path>
            <path d="M69.121,279.367 C69.274,278.809 69.221,278.192 68.922,277.644 C68.31,276.519 66.901,276.103 65.775,276.715 C64.65,277.328 64.234,278.736 64.847,279.862 C65.145,280.411 65.634,280.79 66.186,280.964 C65.077,282.072 64.464,283.57 64.454,285.109 C66.208,286.227 68.501,286.383 70.457,285.318 C72.414,284.253 73.528,282.243 73.542,280.163 C72.244,279.336 70.653,279.037 69.121,279.367" id="Fill-126" fill="#FFFFFE"></path>
            <path d="M80.592,268.426 L79.685,266.644 C79.434,266.151 79.63,265.549 80.122,265.299 L104.417,252.936 C104.909,252.686 105.511,252.881 105.762,253.373 L106.669,255.155 C106.919,255.647 106.724,256.25 106.231,256.5 L81.937,268.863 C81.444,269.113 80.842,268.918 80.592,268.426" id="Fill-127" fill="#BEC0BB"></path>
            <path d="M84.415,276.133 L83.96,275.242 C83.709,274.75 83.904,274.148 84.396,273.896 L120.379,255.524 C120.871,255.272 121.473,255.468 121.724,255.96 L122.179,256.851 C122.43,257.343 122.235,257.944 121.743,258.196 L85.76,276.568 C85.268,276.82 84.666,276.625 84.415,276.133" id="Fill-128" fill="#BEC0BB"></path>
            <path d="M123.027,394.488 L118.012,396.9 C117.515,397.141 116.917,396.931 116.678,396.434 L111.092,384.821 C110.852,384.323 111.062,383.726 111.56,383.486 L116.574,381.074 C117.072,380.835 117.669,381.044 117.909,381.542 L123.495,393.154 C123.734,393.651 123.525,394.249 123.027,394.488" id="Fill-129" fill="#005C70"></path>
            <path d="M123.187,392.516 L131.642,388.449 C131.939,388.306 132.185,388.082 132.356,387.8 C132.75,387.149 133.267,385.884 132.562,384.419 L130.59,380.32 C130.334,379.786 129.889,379.368 129.34,379.144 C128.568,378.826 127.464,378.498 126.766,378.834 C125.6,379.395 123.852,380.236 123.852,380.236 C123.852,380.236 124.165,376.41 123.1,374.693 C122.035,372.977 120.727,374.236 120.769,375.815 C120.811,377.393 121.772,381.118 118.469,382.707 L123.187,392.516" id="Fill-130" fill="#BEC0BB"></path>
            <path d="M147.413,364.999 L136.604,370.532 C135.873,370.907 135.584,371.803 135.958,372.534 L139.887,380.209 C140.261,380.94 141.157,381.229 141.888,380.855 L142.931,380.321 L143.897,383.926 L145.942,378.78 L152.697,375.321 C153.428,374.947 153.717,374.052 153.343,373.32 L149.414,365.646 C149.039,364.914 148.144,364.625 147.413,364.999" id="Fill-131" fill="#DCDDD7"></path>
            <path d="M161.446,375.797 C161.446,375.797 156.872,366.11 164.192,362.363 L162.162,358.398 L171.5,360.848 L167.627,369.073 L165.913,366.102 C165.913,366.102 162.327,367.742 161.446,375.797" id="Fill-132" fill="#BEC0BB"></path>
            <polyline id="Fill-133" fill="#5EB298" points="123.943 406.344 155.788 390.037 155.828 390.23 123.943 406.344"></polyline>
            <path d="M123.925,406.354 L121.712,395.121 L123.027,394.488 C123.525,394.249 123.734,393.651 123.495,393.154 L119.821,385.517 L119.821,385.516 L123.187,392.516 L131.642,388.449 C131.939,388.306 132.185,388.082 132.356,387.8 C132.75,387.149 133.267,385.884 132.562,384.419 L130.59,380.32 C130.334,379.786 129.889,379.368 129.34,379.144 C128.798,378.921 128.093,378.693 127.479,378.693 C127.218,378.693 126.974,378.734 126.766,378.834 C125.6,379.395 123.852,380.236 123.852,380.236 C123.852,380.236 124.165,376.41 123.1,374.693 C122.738,374.11 122.347,373.87 121.992,373.87 C121.301,373.87 120.741,374.773 120.769,375.815 C120.807,377.267 121.623,380.534 119.184,382.286 L116.757,369.963 L148.336,353.792 L151.686,370.083 L149.414,365.646 C149.15,365.131 148.629,364.835 148.089,364.835 C147.861,364.835 147.629,364.888 147.413,364.999 L136.604,370.532 C135.873,370.907 135.584,371.803 135.958,372.534 L139.887,380.209 C140.15,380.723 140.671,381.019 141.212,381.019 C141.44,381.019 141.671,380.966 141.888,380.855 L142.931,380.321 L143.897,383.926 L145.942,378.78 L152.697,375.321 C152.717,375.311 152.736,375.3 152.756,375.289 L155.788,390.037 L123.943,406.344 L123.925,406.354 M99.151,280.576 L97.21,270.722 L121.743,258.196 C122.235,257.944 122.43,257.343 122.179,256.851 L121.724,255.96 C121.548,255.614 121.197,255.414 120.833,255.414 C120.68,255.414 120.525,255.45 120.379,255.524 L96.607,267.662 L95.485,261.968 L106.231,256.5 C106.724,256.25 106.919,255.647 106.669,255.155 L105.762,253.373 C105.585,253.026 105.234,252.827 104.87,252.827 C104.717,252.827 104.562,252.862 104.417,252.936 L94.682,257.89 L93.969,254.27 L124.646,238.562 L130.033,264.762 L99.151,280.576" id="Fill-134" fill="#FFFFFE"></path>
            <polyline id="Fill-135" fill="#347B88" points="116.757 369.963 99.151 280.576 130.033 264.762 148.336 353.792 116.757 369.963"></polyline>
            <path d="M95.485,261.968 L94.682,257.89 L104.417,252.936 C104.562,252.862 104.717,252.827 104.87,252.827 C105.234,252.827 105.585,253.026 105.762,253.373 L106.669,255.155 C106.919,255.647 106.724,256.25 106.231,256.5 L95.485,261.968" id="Fill-136" fill="#CACBC6"></path>
            <path d="M97.21,270.722 L96.607,267.662 L120.379,255.524 C120.525,255.45 120.68,255.414 120.833,255.414 C121.197,255.414 121.548,255.614 121.724,255.96 L122.179,256.851 C122.43,257.343 122.235,257.944 121.743,258.196 L97.21,270.722" id="Fill-137" fill="#CACBC6"></path>
            <path d="M121.712,395.121 L119.821,385.517 L123.495,393.154 C123.734,393.651 123.525,394.249 123.027,394.488 L121.712,395.121" id="Fill-138" fill="#347B88"></path>
            <path d="M123.187,392.516 L119.821,385.516 L119.184,382.286 C121.623,380.534 120.807,377.267 120.769,375.815 C120.741,374.773 121.301,373.87 121.992,373.87 C122.347,373.87 122.738,374.11 123.1,374.693 C124.165,376.41 123.852,380.236 123.852,380.236 C123.852,380.236 125.6,379.395 126.766,378.834 C126.974,378.734 127.218,378.693 127.479,378.693 C128.093,378.693 128.798,378.921 129.34,379.144 C129.889,379.368 130.334,379.786 130.59,380.32 L132.562,384.419 C133.267,385.884 132.75,387.149 132.356,387.8 C132.185,388.082 131.939,388.306 131.642,388.449 L123.187,392.516" id="Fill-139" fill="#CACBC6"></path>
            <path d="M143.897,383.926 L142.931,380.321 L141.888,380.855 C141.671,380.966 141.44,381.019 141.212,381.019 C140.671,381.019 140.15,380.723 139.887,380.209 L135.958,372.534 C135.584,371.803 135.873,370.907 136.604,370.532 L147.413,364.999 C147.629,364.888 147.861,364.835 148.089,364.835 C148.629,364.835 149.15,365.131 149.414,365.646 L151.686,370.083 L152.756,375.289 C152.736,375.3 152.717,375.311 152.697,375.321 L145.942,378.78 L143.897,383.926" id="Fill-140" fill="#E3E3DE"></path>
            <polyline id="Fill-141" fill="#5EB298" points="164.395 385.63 164.395 385.63 179.528 377.88 179.528 377.881 164.395 385.63"></polyline>
            <path d="M164.395,385.63 L161.935,372.876 C163.229,367.329 165.913,366.102 165.913,366.102 L167.627,369.073 L171.5,360.848 L162.162,358.398 L164.192,362.363 C162.321,363.321 161.227,364.667 160.635,366.14 L157.361,349.171 L172.206,341.569 L179.528,377.881 L164.395,385.63 M140.081,259.617 L134.996,233.261 L148.928,226.127 L154.221,252.376 L140.081,259.617" id="Fill-142" fill="#FFFFFE"></path>
            <polyline id="Fill-143" fill="#347B88" points="157.361 349.171 140.081 259.617 154.221 252.376 172.206 341.569 157.361 349.171"></polyline>
            <path d="M161.935,372.876 L160.635,366.14 C161.227,364.667 162.321,363.321 164.192,362.363 L162.162,358.398 L171.5,360.848 L167.627,369.073 L165.913,366.102 C165.913,366.102 163.229,367.329 161.935,372.876" id="Fill-144" fill="#CACBC6"></path>
        </g>
    </g>
</svg>