<?xml version="1.0" encoding="UTF-8"?>
<svg width="124px" height="93px" viewBox="0 0 124 93" version="1.1" xmlns="http://www.w3.org/2000/svg" xmlns:xlink="http://www.w3.org/1999/xlink">
    <!-- Generator: Sketch 52.3 (67297) - http://www.bohemiancoding.com/sketch -->
    <title>Artboard</title>
    <desc>Created with Sketch.</desc>
    <g id="Artboard" stroke="none" stroke-width="1" fill="none" fill-rule="evenodd">
        <g id="noun_content-creation_2528294" transform="translate(-105.000000, 14.000000)" fill="#FFFFFF">
            <g id="Group">
                <path d="M107.545982,54.2517857 C94.8436795,54.2517857 84.5464286,43.9545348 84.5464286,31.2522321 C84.5464286,18.5499295 94.8436795,8.25267857 107.545982,8.25267857 C120.248285,8.25267857 130.545536,18.5499295 130.545536,31.2522321 C130.529548,43.9479067 120.241657,54.2357982 107.545982,54.2517857 Z M107.545982,9.41339286 C95.4847243,9.41339286 85.7071429,19.1909743 85.7071429,31.2522321 C85.7071429,43.31349 95.4847243,53.0910714 107.545982,53.0910714 C119.60724,53.0910714 129.384821,43.31349 129.384821,31.2522321 C129.372027,19.196278 119.601936,9.42618773 107.545982,9.41339286 Z" id="Shape" fill-rule="nonzero"></path>
                <path d="M101.301339,42.8013393 C101.064379,42.8060171 100.835503,42.7151464 100.666284,42.5492029 C100.497066,42.3832593 100.40174,42.1562033 100.401786,41.9191964 L100.401786,20.3125 C100.398272,19.9988962 100.564831,19.7079718 100.837054,19.5522321 C101.106488,19.3894458 101.443959,19.3894458 101.713393,19.5522321 L120.453125,30.3700893 C120.725573,30.5262788 120.893616,30.8163141 120.893616,31.1303571 C120.893616,31.4444002 120.725573,31.7344355 120.453125,31.890625 L101.736607,42.6794643 C101.605467,42.7592998 101.454869,42.8014672 101.301339,42.8013393 Z M101.301339,19.8366071 C101.223481,19.8380459 101.147391,19.8600718 101.080804,19.9004464 C100.94219,19.9775948 100.857395,20.1248718 100.860268,20.2834821 L100.860268,41.9191964 C100.85989,42.0769648 100.943808,42.2229207 101.080345,42.3019686 C101.216883,42.3810165 101.385243,42.381117 101.521875,42.3022321 L120.261607,31.484375 C120.399111,31.4058666 120.483983,31.2596773 120.483983,31.1013393 C120.483983,30.9430012 120.399111,30.7968119 120.261607,30.7183036 L101.521875,19.9004464 C101.455287,19.8600718 101.379198,19.8380459 101.301339,19.8366071 Z" id="Shape" fill-rule="nonzero"></path>
                <path d="M175.784375,60.6241071 C175.57476,60.6250381 175.365331,60.611464 175.157589,60.5834821 L144.700446,56.9098214 C144.379924,56.8713587 144.151269,56.5803438 144.189732,56.2598214 C144.228195,55.939299 144.51921,55.7106445 144.839732,55.7491071 L175.296875,59.4285714 C176.337004,59.5562411 177.385147,59.264356 178.209574,58.6174484 C179.034,57.9705408 179.5668,57.0218966 179.690179,55.98125 L179.980357,53.584375 L172.569196,52.6848214 C172.361855,52.6599404 172.183537,52.526334 172.101414,52.3343304 C172.019291,52.1423268 172.045838,51.9210959 172.171057,51.7539732 C172.296275,51.5868506 172.501141,51.4992261 172.708482,51.5241071 L180.694196,52.4875 C180.848057,52.5061425 180.98807,52.5855524 181.083036,52.7080357 C181.177803,52.8277289 181.221591,52.9799431 181.204911,53.1316964 L180.845089,56.1089286 C180.532219,58.6690368 178.36351,60.5965014 175.784375,60.6066964 L175.784375,60.6241071 Z" id="Path"></path>
                <path d="M176.353125,60.7227679 L176.277679,60.7227679 L142.704018,56.6602679 C139.093877,56.2155394 136.516773,52.9443004 136.929464,49.3303571 L141.45625,11.8799107 C141.897673,8.25540263 145.189677,5.67216601 148.815179,6.10535714 L181.26875,10.0227679 C181.448661,10.0227679 181.628571,10.0808036 181.802679,10.115625 C181.976786,10.1504464 182.191518,10.115625 182.383036,10.1620536 C182.577031,10.1837405 182.747129,10.3015004 182.835714,10.4754464 C184.824232,11.412764 185.992202,13.5151098 185.7375,15.6986607 L185.377679,18.6700893 C185.360497,18.8230496 185.283256,18.9629195 185.162946,19.0589286 C185.041767,19.1551897 184.887161,19.1990646 184.733482,19.1808036 L177.322321,18.2870536 L173.045089,53.6888393 C172.812708,55.0507657 172.984198,56.4509301 173.538393,57.7165179 C174.111853,58.8053069 175.211898,59.5159365 176.440179,59.5910714 C176.593516,59.6098951 176.73302,59.6890785 176.827791,59.811083 C176.922563,59.9330874 176.964779,60.0878428 176.945089,60.2410714 C176.895933,60.5270443 176.64312,60.7327652 176.353125,60.7227679 Z M144.851339,55.7549107 L173.14375,59.1964286 C172.88991,58.9095871 172.673453,58.5917264 172.499554,58.2504464 C171.834105,56.7788039 171.620021,55.142874 171.884375,53.5495536 L176.428571,16.0758929 C176.724554,13.6267857 177.635714,11.8508929 179.016964,10.8991071 L148.699107,7.23705357 C145.708803,6.87547098 142.991311,9.00581798 142.628571,11.9959821 L138.084375,49.4464286 C137.729575,52.4336788 139.857383,55.1453367 142.843304,55.5111607 L144.839732,55.7549107 L144.851339,55.7549107 Z M177.45,17.1205357 L184.286607,17.9446429 L184.576786,15.5477679 C184.811675,13.593899 183.575409,11.7642247 181.675,11.253125 C178.651339,11.253125 177.809821,14.3174107 177.583482,16.2151786 L177.45,17.1205357 Z" id="Shape" fill-rule="nonzero"></path>
                <polygon id="Rectangle" transform="translate(159.336074, 15.516123) rotate(-83.110000) translate(-159.336074, -15.516123) " points="159.11844 3.82192637 159.553708 3.82192637 159.553708 27.2103192 159.11844 27.2103192"></polygon>
                <polygon id="Rectangle" transform="translate(159.066596, 17.762607) rotate(-83.110000) translate(-159.066596, -17.762607) " points="158.848962 6.06841041 159.28423 6.06841041 159.28423 29.4568033 158.848962 29.4568033"></polygon>
                <polygon id="Rectangle" transform="translate(158.791315, 20.014894) rotate(-83.110000) translate(-158.791315, -20.014894) " points="158.573681 8.32069802 159.008949 8.32069802 159.008949 31.7090909 158.573681 31.7090909"></polygon>
                <polygon id="Rectangle" transform="translate(158.522533, 22.255617) rotate(-83.110000) translate(-158.522533, -22.255617) " points="158.304899 10.5614204 158.740167 10.5614204 158.740167 33.9498133 158.304899 33.9498133"></polygon>
                <polygon id="Rectangle" transform="translate(158.247252, 24.502101) rotate(-83.110000) translate(-158.247252, -24.502101) " points="158.029618 12.8079044 158.464886 12.8079044 158.464886 36.1962973 158.029618 36.1962973"></polygon>
                <polygon id="Rectangle" transform="translate(157.983536, 26.755085) rotate(-83.110000) translate(-157.983536, -26.755085) " points="157.765902 15.0608883 158.20117 15.0608883 158.20117 38.4492811 157.765902 38.4492811"></polygon>
                <polygon id="Rectangle" transform="translate(157.708254, 29.001569) rotate(-83.110000) translate(-157.708254, -29.001569) " points="157.49062 17.3073723 157.925888 17.3073723 157.925888 40.6957652 157.49062 40.6957652"></polygon>
                <polygon id="Rectangle" transform="translate(157.439473, 31.242291) rotate(-83.110000) translate(-157.439473, -31.242291) " points="157.221839 19.5480947 157.657107 19.5480947 157.657107 42.9364875 157.221839 42.9364875"></polygon>
                <polygon id="Rectangle" transform="translate(157.156409, 33.573885) rotate(-83.110000) translate(-157.156409, -33.573885) " points="156.938775 21.8796884 157.374043 21.8796884 157.374043 45.2680812 156.938775 45.2680812"></polygon>
                <polygon id="Rectangle" transform="translate(156.881127, 35.826172) rotate(-83.110000) translate(-156.881127, -35.826172) " points="156.663494 24.131976 157.098761 24.131976 157.098761 47.5203688 156.663494 47.5203688"></polygon>
                <polygon id="Rectangle" transform="translate(156.606542, 38.066895) rotate(-83.110000) translate(-156.606542, -38.066895) " points="156.388908 26.3726984 156.824176 26.3726984 156.824176 49.7610912 156.388908 49.7610912"></polygon>
                <polygon id="Rectangle" transform="translate(156.337065, 40.313379) rotate(-83.110000) translate(-156.337065, -40.313379) " points="156.119431 28.6191824 156.554699 28.6191824 156.554699 52.0075753 156.119431 52.0075753"></polygon>
                <polygon id="Rectangle" transform="translate(156.073349, 42.560559) rotate(-83.110000) translate(-156.073349, -42.560559) " points="155.855715 30.8663627 156.290982 30.8663627 156.290982 54.2547555 155.855715 54.2547555"></polygon>
                <polygon id="Rectangle" transform="translate(155.790981, 44.886391) rotate(-83.110000) translate(-155.790981, -44.886391) " points="155.573347 33.1921947 156.008615 33.1921947 156.008615 56.5805875 155.573347 56.5805875"></polygon>
                <polygon id="Rectangle" transform="translate(155.515699, 47.138679) rotate(-83.110000) translate(-155.515699, -47.138679) " points="155.298065 35.4444823 155.733333 35.4444823 155.733333 58.8328752 155.298065 58.8328752"></polygon>
                <polygon id="Rectangle" transform="translate(155.246222, 49.385163) rotate(-83.110000) translate(-155.246222, -49.385163) " points="155.028588 37.6909663 155.463856 37.6909663 155.463856 61.0793592 155.028588 61.0793592"></polygon>
                <polygon id="Rectangle" transform="translate(154.970940, 51.631647) rotate(-83.110000) translate(-154.970940, -51.631647) " points="154.753306 39.9374504 155.188574 39.9374504 155.188574 63.3258432 154.753306 63.3258432"></polygon>
                <path d="M237.557589,61.9415179 C237.457184,61.9502525 237.356209,61.9502525 237.255804,61.9415179 L190.246875,52.1334821 C189.865917,52.0526837 189.532661,51.8238545 189.320425,51.4973375 C189.108189,51.1708205 189.034359,50.7733644 189.115179,50.3924107 L195.928571,17.63125 C196.00937,17.2502919 196.238199,16.9170362 196.564716,16.7048001 C196.891233,16.4925641 197.288689,16.4187343 197.669643,16.4995536 L244.678571,26.3133929 C245.061106,26.3913328 245.396348,26.6195578 245.609108,26.9468811 C245.821868,27.2742044 245.894339,27.6732303 245.810268,28.0544643 L238.979464,60.8040179 C238.841552,61.4796497 238.247153,61.9648729 237.557589,61.9647321 L237.557589,61.9415179 Z M190.235268,50.6129464 C190.203023,50.7745395 190.306357,50.9321241 190.467411,50.9669643 L237.476339,60.775 C237.552334,60.7909079 237.631537,60.776318 237.696875,60.734375 C237.762186,60.6890417 237.807827,60.6205804 237.824554,60.5428571 L244.672768,27.7991071 C244.689878,27.7212928 244.674894,27.6398665 244.631205,27.5732402 C244.587515,27.5066139 244.51881,27.4604148 244.440625,27.4450893 L197.431696,17.6370536 C197.353882,17.6199435 197.272456,17.6349272 197.20583,17.6786166 C197.139203,17.722306 197.093004,17.791011 197.077679,17.8691964 L190.235268,50.6129464 Z" id="Shape" fill-rule="nonzero"></path>
                <path d="M232.444643,53.9035714 C232.381089,53.9121041 232.316679,53.9121041 232.253125,53.9035714 L215.155804,50.3169643 L215.120982,50.3169643 L198.290625,46.8348214 C197.979644,46.7734886 197.723894,46.5530145 197.617411,46.2544643 C197.516584,45.9436537 197.594607,45.6025804 197.820536,45.3665179 L211.145536,31.1651786 C211.388161,30.9071375 211.739013,30.7798143 212.090661,30.8221953 C212.442308,30.8645763 212.752863,31.0716129 212.927232,31.3799107 L220.715625,45.1924107 L225.358482,41.3040179 C225.612344,41.0925656 225.946952,41.0046726 226.27196,41.0640705 C226.596967,41.1234684 226.878857,41.3240319 227.041518,41.6116071 L233.216518,52.5629464 C233.372678,52.8405011 233.370445,53.1799371 233.210645,53.4554127 C233.050845,53.7308882 232.757301,53.9013386 232.438839,53.9035714 L232.444643,53.9035714 Z M215.666518,49.9745536 L232.345982,53.4566964 C232.523034,53.4981671 232.707389,53.4267294 232.810268,53.2767857 C232.919627,53.1319688 232.93328,52.936278 232.845089,52.7776786 L226.670089,41.8263393 C226.568995,41.6518422 226.39776,41.5292296 226.2,41.4897321 C225.993591,41.4463385 225.778776,41.5021905 225.619643,41.640625 L215.666518,49.9745536 Z M211.958036,31.2522321 C211.772053,31.2520003 211.593974,31.3274217 211.464732,31.4611607 L198.145536,45.5986607 C198.029026,45.7206358 197.988903,45.8967348 198.041071,46.0571429 C198.087748,46.2173414 198.219787,46.3381909 198.383482,46.3705357 L215.126786,49.8526786 L220.35,45.4651786 L212.55,31.5946429 C212.444223,31.4064436 212.253946,31.2810335 212.039286,31.2580357 L211.958036,31.2522321 Z" id="Shape" fill-rule="nonzero"></path>
                <path d="M129.889732,27.9325893 L129.889732,33.6955357 C133.859375,33.6955357 135.44375,33.7303571 139.401786,33.8348214 L140.115625,28.1879464 C135.913839,28.0486607 134.0625,27.9674107 129.889732,27.9325893 Z" id="Path"></path>
                <path d="M193.398214,33.5736607 L192.463839,38.025 C181.744643,36.4870536 185.186161,37.009375 174.60625,35.8196429 L175.186607,30.8808036 C183.439286,31.9196429 185.383482,32.2272321 193.398214,33.5736607 Z" id="Path"></path>
            </g>
        </g>
    </g>
</svg>