<?xml version="1.0" encoding="UTF-8"?>
<svg width="99px" height="99px" viewBox="0 0 99 99" version="1.1" xmlns="http://www.w3.org/2000/svg" xmlns:xlink="http://www.w3.org/1999/xlink">
    <!-- Generator: Sketch 52.3 (67297) - http://www.bohemiancoding.com/sketch -->
    <title>Group 9</title>
    <desc>Created with Sketch.</desc>
    <defs>
        <filter x="-14.1%" y="-11.8%" width="128.2%" height="128.2%" filterUnits="objectBoundingBox" id="filter-1">
            <feOffset dx="0" dy="0" in="SourceAlpha" result="shadowOffsetOuter1"></feOffset>
            <feGaussianBlur stdDeviation="2" in="shadowOffsetOuter1" result="shadowBlurOuter1"></feGaussianBlur>
            <feColorMatrix values="0 0 0 0 0   0 0 0 0 0   0 0 0 0 0  0 0 0 0.5 0" type="matrix" in="shadowBlurOuter1" result="shadowMatrixOuter1"></feColorMatrix>
            <feMerge>
                <feMergeNode in="shadowMatrixOuter1"></feMergeNode>
                <feMergeNode in="SourceGraphic"></feMergeNode>
            </feMerge>
        </filter>
        <circle id="path-2" cx="42.5" cy="42.5" r="42.5"></circle>
        <filter x="-8.2%" y="-5.9%" width="116.5%" height="116.5%" filterUnits="objectBoundingBox" id="filter-4">
            <feOffset dx="0" dy="2" in="SourceAlpha" result="shadowOffsetOuter1"></feOffset>
            <feGaussianBlur stdDeviation="2" in="shadowOffsetOuter1" result="shadowBlurOuter1"></feGaussianBlur>
            <feColorMatrix values="0 0 0 0 0   0 0 0 0 0   0 0 0 0 0  0 0 0 0.5 0" type="matrix" in="shadowBlurOuter1"></feColorMatrix>
        </filter>
        <filter x="-14.0%" y="-17.8%" width="128.1%" height="135.6%" filterUnits="objectBoundingBox" id="filter-5">
            <feOffset dx="0" dy="0" in="SourceAlpha" result="shadowOffsetOuter1"></feOffset>
            <feGaussianBlur stdDeviation="2" in="shadowOffsetOuter1" result="shadowBlurOuter1"></feGaussianBlur>
            <feColorMatrix values="0 0 0 0 0   0 0 0 0 0   0 0 0 0 0  0 0 0 0.5 0" type="matrix" in="shadowBlurOuter1" result="shadowMatrixOuter1"></feColorMatrix>
            <feMerge>
                <feMergeNode in="shadowMatrixOuter1"></feMergeNode>
                <feMergeNode in="SourceGraphic"></feMergeNode>
            </feMerge>
        </filter>
    </defs>
    <g id="Page-1" stroke="none" stroke-width="1" fill="none" fill-rule="evenodd">
        <g id="Artboard" transform="translate(-81.000000, -91.000000)">
            <g id="Group-9" transform="translate(88.000000, 96.000000)">
                <g id="Group-7">
                    <g id="Group-6">
                        <g id="Group-3" filter="url(#filter-1)">
                            <mask id="mask-3" fill="white">
                                <use xlink:href="#path-2"></use>
                            </mask>
                            <g id="Mask">
                                <use fill="black" fill-opacity="1" filter="url(#filter-4)" xlink:href="#path-2"></use>
                                <use fill="#FFFFFF" fill-rule="evenodd" xlink:href="#path-2"></use>
                            </g>
                        </g>
                    </g>
                </g>
                <g id="Group-8" filter="url(#filter-5)" transform="translate(14.000000, 21.000000)">
                    <g id="Group" transform="translate(1.000000, 0.918367)">
                        <g id="Path">
                            <path d="M45.0657631,0.0954343756 C44.3420382,0.0954343756 6.91509036,0.0954343756 6.705251,0.0954343756 C4.70713855,0.0954343756 3.08154618,1.55259057 3.08154618,3.34366809 L3.08154618,27.7081434 C3.08154618,29.2922154 4.39116466,30.665124 6.13393574,30.9153918 L6.78653614,31.3824658 L44.4212249,31.3824658 L45.6370783,30.9153918 C47.3798494,30.665124 48.6894679,29.2922154 48.6894679,27.7081434 C48.6894679,26.8974462 48.6894679,4.07694861 48.6894679,3.34366809 C48.6894679,1.55259057 47.0638755,0.0954343756 45.0657631,0.0954343756 Z" fill="#3F6D8E"></path>
                            <path d="M6.53837349,27.7081434 L6.53837349,3.34366809 C6.53837349,1.55259057 8.16396586,0.0954343756 10.1620783,0.0954343756 C8.05197791,0.0954343756 6.74401606,0.0954343756 6.705251,0.0954343756 C4.70713855,0.0954343756 3.08154618,1.55259057 3.08154618,3.34366809 L3.08154618,27.7081434 C3.08154618,29.2922154 4.39116466,30.665124 6.13393574,30.9153918 L6.78653614,31.3824658 L10.2433635,31.3824658 L9.59076305,30.9153918 C7.84799197,30.665124 6.53837349,29.2922154 6.53837349,27.7081434 Z" fill="#365E7D"></path>
                            <path d="M44.9929819,5.83258472 L6.99449799,5.83258472 L6.33692771,6.44785925 L6.33692771,27.4408479 C6.33692771,27.7626914 6.62805221,28.023651 6.98709839,28.023651 L44.7840261,28.023651 C45.1430723,28.023651 45.4340863,27.7626914 45.4340863,27.4408479 C45.4340863,26.8905163 45.4340863,7.08481441 45.4340863,6.44785925 L44.9929819,5.83258472 Z" fill="#E4F6FF"></path>
                            <path d="M10.5630924,27.4408479 L10.5630924,6.44795825 L11.2206627,5.83268372 L6.99449799,5.83268372 L6.33692771,6.44795825 L6.33692771,27.4409469 C6.33692771,27.7627904 6.62805221,28.02375 6.98709839,28.02375 L11.2132631,28.02375 C10.8542169,28.02375 10.5630924,27.7626914 10.5630924,27.4408479 Z" fill="#D3EFFB"></path>
                            <path d="M10.5630924,2.99163008 L6.98698795,2.99163008 C6.62794177,2.99163008 6.33681727,3.25258964 6.33681727,3.57443316 L6.33681727,6.44795825 L10.5629819,6.44795825 L10.8409639,6.18214777 L10.8409639,3.17665793 L10.5630924,2.99163008 Z" fill="#DD636E"></path>
                            <path d="M44.7839157,2.99163008 C43.1049799,2.99163008 11.8936948,2.99163008 10.5630924,2.99163008 L10.5630924,6.44795825 L45.4339759,6.44795825 L45.4339759,3.57443316 C45.4339759,3.25258964 45.1429618,2.99163008 44.7839157,2.99163008 Z" fill="#B1E4F9"></path>
                            <path d="M51.1154317,30.9153918 L0.655582329,30.9153918 C0.321385542,30.9153918 0.0505823293,31.1606106 0.0505823293,31.4630505 L0.0505823293,33.3467904 C0.0505823293,34.7444486 1.3139257,35.8879781 2.85812249,35.8879781 L48.9128916,35.8879781 C50.4569779,35.8879781 51.7204317,34.7444486 51.7204317,33.3467904 L51.7204317,31.4630505 C51.7204317,31.1606106 51.4495181,30.9153918 51.1154317,30.9153918 Z" fill="#407093"></path>
                            <path d="M6.33692771,33.3466914 L6.33692771,31.4629515 C6.33692771,31.1605116 6.60784137,30.9152928 6.94192771,30.9152928 L0.655582329,30.9152928 C0.321385542,30.9152928 0.0505823293,31.1605116 0.0505823293,31.4629515 L0.0505823293,33.3466914 C0.0505823293,34.7443496 1.3139257,35.8878791 2.85812249,35.8878791 L9.14457831,35.8878791 C7.60038153,35.8878791 6.33692771,34.7443496 6.33692771,33.3466914 Z" fill="#365E7D"></path>
                        </g>
                        <path d="M54.3649598,37.7042012 L54.3649598,18.3665634 L54.940251,17.8786007 C54.940251,16.6578525 54.940251,15.86151 54.940251,15.7060827 C54.940251,14.5904707 53.9313655,13.686121 52.6866867,13.686121 L38.8558434,13.686121 C37.6112751,13.686121 36.6023896,14.5904707 36.6023896,15.7060827 L36.6023896,17.8786007 L37.2465964,18.3996288 L37.2465964,37.8860611 L36.6023896,38.243544 L36.6023896,41.1140002 C36.6023896,42.2296122 37.6112751,43.1339618 38.8558434,43.1339618 L52.6867972,43.1339618 C53.9313655,43.1339618 54.9403614,42.2296122 54.9403614,41.1140002 C54.9403614,40.9306553 54.9403614,39.8555336 54.9403614,38.243544 L54.3649598,37.7042012 Z" id="Path" fill="#365E7D"></path>
                        <path d="M39.9248092,41.1138022 L39.9248092,38.243346 L40.5690161,37.8858631 L40.5690161,18.3995298 L39.9248092,17.8785017 L39.9248092,15.7060827 C39.9248092,14.5904707 40.9336948,13.686121 42.1782631,13.686121 L38.8558434,13.686121 C37.6112751,13.686121 36.6023896,14.5904707 36.6023896,15.7060827 L36.6023896,17.8786007 L37.2465964,18.3996288 L37.2465964,37.8860611 L36.6023896,38.243544 L36.6023896,41.1140002 C36.6023896,42.2296122 37.6112751,43.1339618 38.8558434,43.1339618 L42.1782631,43.1339618 C40.9338052,43.1338628 39.9248092,42.2294142 39.9248092,41.1138022 Z" id="Path" fill="#294B64"></path>
                        <ellipse id="Oval" fill="#DD636E" cx="25.333243" cy="17.2358046" rx="6.92657631" ry="6.20887732"></ellipse>
                        <path d="M21.0572691,17.2358046 C21.0572691,14.2131881 23.4673293,11.6962549 26.6585442,11.1417654 C26.2294779,11.0672196 25.7866064,11.0269273 25.333243,11.0269273 C21.507761,11.0269273 18.4066667,13.806701 18.4066667,17.2358046 C18.4066667,20.6649083 21.507761,23.4446819 25.333243,23.4446819 C25.7866064,23.4446819 26.2294779,23.4043896 26.6585442,23.3298439 C23.4673293,22.7754533 21.0572691,20.2584212 21.0572691,17.2358046 Z" id="Path" fill="#DA4A54"></path>
                        <path d="M28.1519378,16.5928106 L24.5974799,14.4201935 C24.0210843,14.0679575 23.2400402,14.4379142 23.2400402,15.0631876 L23.2400402,19.4083226 C23.2400402,20.033596 24.0210843,20.4035527 24.5974799,20.0513167 L28.1519378,17.8786997 C28.6573193,17.5699239 28.6573193,16.9017843 28.1519378,16.5928106 Z" id="Path" fill="#E4F6FF"></path>
                        <path d="M25.8906426,15.2106951 L24.5974799,14.4202925 C24.0210843,14.0680565 23.2400402,14.4380132 23.2400402,15.0632866 L23.2400402,19.4084216 C23.2400402,20.033695 24.0210843,20.4036517 24.5974799,20.0514157 L25.8906426,19.2610132 L25.8906426,15.2106951 Z" id="Path" fill="#D3EFFB"></path>
                        <polygon id="Path" fill="#90D8F9" points="36.6023896 20.7094575 54.9403614 20.7094575 54.9403614 38.243346 36.6023896 38.243346"></polygon>
                        <polygon id="Path" fill="#75CEF9" points="36.6023896 20.7094575 39.9245884 20.7094575 39.9245884 38.243445 36.6023896 38.243445"></polygon>
                        <path d="M46.6517068,41.2749714 L44.8909337,41.2749714 C44.4334839,41.2749714 44.0626205,40.9425351 44.0626205,40.5324841 C44.0626205,40.1224331 44.4334839,39.7899967 44.8909337,39.7899967 L46.6517068,39.7899967 C47.1091566,39.7899967 47.4800201,40.1224331 47.4800201,40.5324841 C47.4800201,40.9425351 47.1091566,41.2749714 46.6517068,41.2749714 Z" id="Path" fill="#365E7D"></path>
                        <ellipse id="Oval" fill="#DD636E" cx="45.7713755" cy="29.4478408" rx="6.02846386" ry="5.40382302"></ellipse>
                        <path d="M42.0206627,29.4478408 C42.0206627,26.8125056 44.1255723,24.619099 46.910251,24.1416301 C46.5412651,24.0783702 46.1609036,24.0440177 45.7713755,24.0440177 C42.4418876,24.0440177 39.7429116,26.4634376 39.7429116,29.4478408 C39.7429116,32.432244 42.4418876,34.8516638 45.7713755,34.8516638 C46.1609036,34.8516638 46.5413755,34.8173114 46.910251,34.7540514 C44.1255723,34.2765826 42.0206627,32.0831759 42.0206627,29.4478408 Z" id="Path" fill="#DA4A54"></path>
                        <polygon id="Path" fill="#DD636E" points="36.6023896 17.8785017 39.9800301 17.8785017 39.9800301 20.8502331 36.6023896 20.8502331"></polygon>
                        <path d="M39.9245884,17.8785017 L39.9245884,20.8502331 L54.9403614,20.8502331 L54.9403614,17.8785017 C53.1150904,17.8785017 41.7707329,17.8785017 39.9245884,17.8785017 Z" id="Path" fill="#B1E4F9"></path>
                        <path d="M48.224508,28.8882033 L45.1309237,26.9973355 C44.6292972,26.6907377 43.9495281,27.0127792 43.9495281,27.5569729 L43.9495281,31.3387086 C43.9495281,31.8829023 44.6292972,32.2049438 45.1309237,31.898346 L48.224508,30.0074782 C48.6643976,29.7385988 48.6643976,29.1570827 48.224508,28.8882033 Z" id="Path" fill="#E4F6FF"></path>
                        <path d="M46.2273896,27.6675541 L45.1309237,26.9973355 C44.6292972,26.6907377 43.9495281,27.0127792 43.9495281,27.5569729 L43.9495281,31.3387086 C43.9495281,31.8829023 44.6292972,32.2049438 45.1309237,31.898346 L46.2273896,31.2281275 L46.2273896,27.6675541 Z" id="Path" fill="#D3EFFB"></path>
                    </g>
                    <g id="Group" fill="#000000">
                        <path d="M53.7886667,13.7413 L50.6005556,13.7413 L50.6005556,4.0443 C50.6005556,1.8215 48.5912222,0.0132 46.1214444,0.0132 L7.52844444,0.0132 C5.05866667,0.0132 3.04944444,1.8215 3.04944444,4.0443 L3.04944444,28.6553 C3.04944444,29.5812 3.41211111,30.4516 4.02133333,31.145 L1.44211111,31.145 C0.646888889,31.1449 2.84217094e-14,31.7296 2.84217094e-14,32.4481 L2.84217094e-14,34.3509 C2.84217094e-14,36.1799 1.641,37.6678 3.658,37.6678 L24.325,37.6678 C24.7853333,37.6678 25.1583333,37.332 25.1583333,36.9178 C25.1583333,36.5036 24.7853333,36.1678 24.325,36.1678 L3.658,36.1678 C2.56,36.1678 1.66666667,35.3528 1.66666667,34.3509 L1.66666667,32.6449 L36.7734444,32.6449 L36.7734444,36.1678 L28.2138889,36.1678 C27.7535556,36.1678 27.3805556,36.5036 27.3805556,36.9178 C27.3805556,37.332 27.7535556,37.6678 28.2138889,37.6678 L36.7734444,37.6678 L36.7734444,42.1966 C36.7734444,43.7353 38.1643333,44.9871 39.8738889,44.9871 L53.7885556,44.9871 C55.4982222,44.9871 56.889,43.7353 56.889,42.1966 C56.889,41.0504 56.889,17.3518 56.889,16.5318 C56.8891111,14.9931 55.4982222,13.7413 53.7886667,13.7413 Z M36.7734444,31.1449 L7.02444444,31.1449 C5.70422222,30.927 4.71622222,29.8665 4.71622222,28.6552 L4.71622222,4.0443 C4.71622222,2.6486 5.97777778,1.5132 7.52855556,1.5132 L46.1215556,1.5132 C47.6723333,1.5132 48.934,2.6486 48.934,4.0443 L48.934,13.7414 L47.3254444,13.7414 C47.3254444,12.6925 47.3254444,5.4285 47.3254444,4.2774 C47.3254444,3.5393 46.6582222,2.9387 45.8381111,2.9387 C45.6111111,2.9387 8.97066667,2.9387 7.81211111,2.9387 C6.99188889,2.9387 6.32466667,3.5392 6.32466667,4.2774 L6.32466667,28.3854 C6.32466667,29.1235 6.99188889,29.7241 7.81211111,29.7241 L36.7735556,29.7241 L36.7735556,31.1449 L36.7734444,31.1449 Z M45.6586667,4.4386 L45.6586667,6.4299 L12.2431111,6.4299 L12.2431111,4.4386 L45.6586667,4.4386 Z M10.5764444,4.4386 L10.5764444,6.4299 L7.99122222,6.4299 L7.99122222,4.4386 L10.5764444,4.4386 Z M36.7734444,16.5317 L36.7734444,28.224 L7.99122222,28.224 L7.99122222,7.9299 L45.6586667,7.9299 L45.6586667,13.7413 L39.874,13.7413 C38.1643333,13.7413 36.7734444,14.9931 36.7734444,16.5317 Z M38.4401111,19.4762 L40.1157778,19.4762 L40.1157778,20.978 L38.4401111,20.978 L38.4401111,19.4762 Z M55.2224444,42.1966 C55.2224444,42.9082 54.5792222,43.4871 53.7886667,43.4871 L39.8738889,43.4871 C39.0833333,43.4871 38.4401111,42.9082 38.4401111,42.1966 L38.4401111,40.0471 L55.2224444,40.0471 L55.2224444,42.1966 Z M55.2224444,38.5471 L38.4401111,38.5471 C38.4401111,32.4246 38.4401111,28.5941 38.4401111,22.478 L55.2224444,22.478 L55.2224444,38.5471 Z M55.2224444,20.978 L41.7824444,20.978 L41.7824444,19.4762 L55.2224444,19.4762 L55.2224444,20.978 Z M55.2224444,17.9762 C54.3718889,17.9762 39.1985556,17.9762 38.4401111,17.9762 L38.4401111,16.5317 C38.4401111,15.8202 39.0833333,15.2413 39.8738889,15.2413 L53.7885556,15.2413 C54.5791111,15.2413 55.2223333,15.8202 55.2223333,16.5317 L55.2224444,17.9762 Z" id="Shape" fill-rule="nonzero"></path>
                        <path d="M45.9455556,42.3593 L47.717,42.3593 C48.1773333,42.3593 48.5503333,42.0235 48.5503333,41.6093 C48.5503333,41.1951 48.1773333,40.8593 47.717,40.8593 L45.9455556,40.8593 C45.4852222,40.8593 45.1122222,41.1951 45.1122222,41.6093 C45.1122222,42.0235 45.4852222,42.3593 45.9455556,42.3593 Z" id="Path"></path>
                        <path d="M29.5745556,16.8078 L25.9985556,14.6133 C24.8668889,13.9187 23.33,14.6495 23.33,15.8824 L23.33,20.2715 C23.33,21.5041 24.8663333,22.2353 25.9985556,21.5406 L29.5745556,19.3461 C30.5674444,18.7368 30.5672222,17.4169 29.5745556,16.8078 Z M28.6355556,18.1068 L25.0595556,20.3014 C25.0487778,20.3079 25.0395556,20.3137 25.0181111,20.3035 C24.9967778,20.2933 24.9967778,20.2832 24.9967778,20.2715 L24.9967778,15.8824 C24.9967778,15.8707 24.9967778,15.8606 25.0181111,15.8504 C25.0265556,15.8464 25.0331111,15.8448 25.0386667,15.8448 C25.0471111,15.8448 25.0531111,15.8485 25.0595556,15.8525 L28.6355556,18.047 C28.643,18.0516 28.6531111,18.0578 28.6531111,18.0769 C28.6531111,18.0961 28.643,18.1023 28.6355556,18.1068 Z" id="Shape" fill-rule="nonzero"></path>
                        <path d="M26.2694444,11.0552 C21.9674444,11.0552 18.4674444,14.2052 18.4674444,18.0769 C18.4674444,21.9486 21.9674444,25.0986 26.2694444,25.0986 C30.5714444,25.0986 34.0713333,21.9487 34.0713333,18.0769 C34.0713333,14.2051 30.5714444,11.0552 26.2694444,11.0552 Z M26.2694444,23.5987 C22.8864444,23.5987 20.1341111,21.1217 20.1341111,18.077 C20.1341111,15.0323 22.8864444,12.5553 26.2694444,12.5553 C29.6523333,12.5553 32.4046667,15.0324 32.4046667,18.077 C32.4046667,21.1216 29.6523333,23.5987 26.2694444,23.5987 Z" id="Shape" fill-rule="nonzero"></path>
                        <path d="M46.6563333,27.3176 C45.5977778,26.668 44.165,27.3543 44.165,28.5026 L44.165,32.3226 C44.165,33.4803 45.6065556,34.1518 46.6564444,33.5075 L49.7686667,31.5975 C50.6957778,31.0287 50.6955556,29.7964 49.7687778,29.2276 L46.6563333,27.3176 Z M45.8316667,32.1981 L45.8316667,28.627 L48.7412222,30.4126 L45.8316667,32.1981 Z" id="Shape" fill-rule="nonzero"></path>
                        <path d="M46.8312222,36.6211 C49.7311111,36.6211 52.3396667,34.9717 53.3223333,32.5168 C53.4783333,32.1271 53.2538889,31.6974 52.8207778,31.557 C52.3878889,31.4168 51.9103333,31.6187 51.7543333,32.0084 C51.009,33.8702 49.0304444,35.1211 46.8311111,35.1211 C43.9463333,35.1211 41.5994444,33.0088 41.5994444,30.4126 C41.5994444,27.8164 43.9463333,25.7041 46.8311111,25.7041 C49.1228889,25.7041 51.1273333,27.0243 51.8191111,28.9892 C51.958,29.3841 52.4266667,29.6028 52.8651111,29.4777 C53.3038889,29.3526 53.5468889,28.9311 53.4078889,28.5362 C52.4958889,25.9451 49.8528889,24.2042 46.8312222,24.2042 C43.0275556,24.2042 39.9328889,26.9894 39.9328889,30.4127 C39.9328889,33.836 43.0275556,36.6211 46.8312222,36.6211 Z" id="Path"></path>
                    </g>
                </g>
            </g>
        </g>
    </g>
</svg>