<?xml version="1.0" encoding="UTF-8"?>
<svg width="124px" height="93px" viewBox="0 0 124 93" version="1.1" xmlns="http://www.w3.org/2000/svg" xmlns:xlink="http://www.w3.org/1999/xlink">
    <!-- Generator: Sketch 52.3 (67297) - http://www.bohemiancoding.com/sketch -->
    <title>Artboard</title>
    <desc>Created with Sketch.</desc>
    <g id="Artboard" stroke="none" stroke-width="1" fill="none" fill-rule="evenodd">
        <g id="noun_Calendar_2300052" transform="translate(30.000000, 14.000000)" fill="#FFFFFF">
            <path d="M64.5,65 L0.5,65 C0.2236328,65 0,64.776123 0,64.5 L0,14.7434082 C0,14.4672851 0.2236328,14.2434082 0.5,14.2434082 L64.5,14.2434082 C64.7763672,14.2434082 65,14.4672851 65,14.7434082 L65,64.5 C65,64.776123 64.7763672,65 64.5,65 Z M1,64 L64,64 L64,15.2434082 L1,15.2434082 L1,64 Z" id="Shape" fill-rule="nonzero"></path>
            <path d="M64.5,15.2434082 L0.5,15.2434082 C0.2236328,15.2434082 0,15.0195313 0,14.7434082 L0,5.03808595 C0,4.7619629 0.2236328,4.53808595 0.5,4.53808595 L64.5,4.53808595 C64.7763672,4.53808595 65,4.7619629 65,5.03808595 L65,14.7434082 C65,15.0195313 64.7763672,15.2434082 64.5,15.2434082 Z M1,14.2434082 L64,14.2434082 L64,5.53808595 L1,5.53808595 L1,14.2434082 Z" id="Shape" fill-rule="nonzero"></path>
            <path d="M10.75,9.97924805 C9.3198242,9.97924805 8.15625,8.81567385 8.15625,7.38549805 L8.15625,2.59375 C8.15625,1.1635742 9.3198242,0 10.75,0 C12.1801758,0 13.34375,1.1635742 13.34375,2.59375 L13.34375,5.03808595 C13.34375,5.314209 13.1201172,5.53808595 12.84375,5.53808595 C12.5673828,5.53808595 12.34375,5.314209 12.34375,5.03808595 L12.34375,2.59375 C12.34375,1.7149658 11.6289062,1 10.75,1 C9.87109375,1 9.15625,1.7149658 9.15625,2.59375 L9.15625,7.38549805 C9.15625,8.26428225 9.87109375,8.97924805 10.75,8.97924805 C11.6289062,8.97924805 12.34375,8.26428225 12.34375,7.38549805 C12.34375,7.109375 12.5673828,6.88549805 12.84375,6.88549805 C13.1201172,6.88549805 13.34375,7.109375 13.34375,7.38549805 C13.34375,8.81567385 12.1801758,9.97924805 10.75,9.97924805 Z" id="Path"></path>
            <path d="M25.25,9.97924805 C23.8198242,9.97924805 22.65625,8.81567385 22.65625,7.38549805 L22.65625,2.59375 C22.65625,1.1635742 23.8198242,0 25.25,0 C26.6801758,0 27.84375,1.1635742 27.84375,2.59375 L27.84375,5.03808595 C27.84375,5.314209 27.6201172,5.53808595 27.34375,5.53808595 C27.0673828,5.53808595 26.84375,5.314209 26.84375,5.03808595 L26.84375,2.59375 C26.84375,1.7149658 26.1289063,1 25.25,1 C24.3710938,1 23.65625,1.7149658 23.65625,2.59375 L23.65625,7.38549805 C23.65625,8.26428225 24.3710938,8.97924805 25.25,8.97924805 C26.1289063,8.97924805 26.84375,8.26428225 26.84375,7.38549805 C26.84375,7.109375 27.0673828,6.88549805 27.34375,6.88549805 C27.6201172,6.88549805 27.84375,7.109375 27.84375,7.38549805 C27.84375,8.81567385 26.6801758,9.97924805 25.25,9.97924805 Z" id="Path"></path>
            <path d="M39.75,9.97924805 C38.3198242,9.97924805 37.15625,8.81567385 37.15625,7.38549805 L37.15625,2.59375 C37.15625,1.1635742 38.3198242,0 39.75,0 C41.1801758,0 42.34375,1.1635742 42.34375,2.59375 L42.34375,5.03808595 C42.34375,5.314209 42.1201172,5.53808595 41.84375,5.53808595 C41.5673828,5.53808595 41.34375,5.314209 41.34375,5.03808595 L41.34375,2.59375 C41.34375,1.7149658 40.6289063,1 39.75,1 C38.8710938,1 38.15625,1.7149658 38.15625,2.59375 L38.15625,7.38549805 C38.15625,8.26428225 38.8710938,8.97924805 39.75,8.97924805 C40.6289063,8.97924805 41.34375,8.26428225 41.34375,7.38549805 C41.34375,7.109375 41.5673828,6.88549805 41.84375,6.88549805 C42.1201172,6.88549805 42.34375,7.109375 42.34375,7.38549805 C42.34375,8.81567385 41.1801758,9.97924805 39.75,9.97924805 Z" id="Path"></path>
            <path d="M54.25,9.97924805 C52.8198242,9.97924805 51.65625,8.81567385 51.65625,7.38549805 L51.65625,2.59375 C51.65625,1.1635742 52.8198242,0 54.25,0 C55.6801758,0 56.84375,1.1635742 56.84375,2.59375 L56.84375,5.03808595 C56.84375,5.314209 56.6201172,5.53808595 56.34375,5.53808595 C56.0673828,5.53808595 55.84375,5.314209 55.84375,5.03808595 L55.84375,2.59375 C55.84375,1.7149658 55.1289063,1 54.25,1 C53.3710938,1 52.65625,1.7149658 52.65625,2.59375 L52.65625,7.38549805 C52.65625,8.26428225 53.3710938,8.97924805 54.25,8.97924805 C55.1289063,8.97924805 55.84375,8.26428225 55.84375,7.38549805 C55.84375,7.109375 56.0673828,6.88549805 56.34375,6.88549805 C56.6201172,6.88549805 56.84375,7.109375 56.84375,7.38549805 C56.84375,8.81567385 55.6801758,9.97924805 54.25,9.97924805 Z" id="Path"></path>
            <path d="M16.9570313,30.3812256 L5.1542969,30.3812256 C4.8779297,30.3812256 4.6542969,30.1573487 4.6542969,29.8812256 L4.6542969,18.0783692 C4.6542969,17.8022461 4.8779297,17.5783692 5.1542969,17.5783692 L16.9570313,17.5783692 C17.2333985,17.5783692 17.4570313,17.8022461 17.4570313,18.0783692 L17.4570313,29.8812256 C17.4570313,30.1573487 17.2333985,30.3812256 16.9570313,30.3812256 Z M5.6542969,29.3812256 L16.4570313,29.3812256 L16.4570313,18.5783692 L5.6542969,18.5783692 L5.6542969,29.3812256 Z" id="Shape" fill-rule="nonzero"></path>
            <path d="M16.9570313,46.0231933 L5.1542969,46.0231933 C4.8779297,46.0231933 4.6542969,45.7993164 4.6542969,45.5231933 L4.6542969,33.7203369 C4.6542969,33.4442138 4.8779297,33.2203369 5.1542969,33.2203369 L16.9570313,33.2203369 C17.2333985,33.2203369 17.4570313,33.4442138 17.4570313,33.7203369 L17.4570313,45.5231933 C17.4570313,45.7993164 17.2333985,46.0231933 16.9570313,46.0231933 Z M5.6542969,45.0231933 L16.4570313,45.0231933 L16.4570313,34.2203369 L5.6542969,34.2203369 L5.6542969,45.0231933 Z" id="Shape" fill-rule="nonzero"></path>
            <path d="M16.9570313,61.665039 L5.1542969,61.665039 C4.8779297,61.665039 4.6542969,61.4411621 4.6542969,61.165039 L4.6542969,49.3623046 C4.6542969,49.0861816 4.8779297,48.8623046 5.1542969,48.8623046 L16.9570313,48.8623046 C17.2333985,48.8623046 17.4570313,49.0861816 17.4570313,49.3623046 L17.4570313,61.165039 C17.4570313,61.4411621 17.2333985,61.665039 16.9570313,61.665039 Z M5.6542969,60.665039 L16.4570313,60.665039 L16.4570313,49.8623046 L5.6542969,49.8623046 L5.6542969,60.665039 Z" id="Shape" fill-rule="nonzero"></path>
            <path d="M38.4013672,30.3812256 L26.5986328,30.3812256 C26.3222656,30.3812256 26.0986328,30.1573487 26.0986328,29.8812256 L26.0986328,18.0783692 C26.0986328,17.8022461 26.3222656,17.5783692 26.5986328,17.5783692 L38.4013672,17.5783692 C38.6777344,17.5783692 38.9013672,17.8022461 38.9013672,18.0783692 L38.9013672,29.8812256 C38.9013672,30.1573487 38.6777344,30.3812256 38.4013672,30.3812256 Z M27.0986328,29.3812256 L37.9013672,29.3812256 L37.9013672,18.5783692 L27.0986328,18.5783692 L27.0986328,29.3812256 Z" id="Shape" fill-rule="nonzero"></path>
            <path d="M38.4013672,46.0231933 L26.5986328,46.0231933 C26.3222656,46.0231933 26.0986328,45.7993164 26.0986328,45.5231933 L26.0986328,33.7203369 C26.0986328,33.4442138 26.3222656,33.2203369 26.5986328,33.2203369 L38.4013672,33.2203369 C38.6777344,33.2203369 38.9013672,33.4442138 38.9013672,33.7203369 L38.9013672,45.5231933 C38.9013672,45.7993164 38.6777344,46.0231933 38.4013672,46.0231933 Z M27.0986328,45.0231933 L37.9013672,45.0231933 L37.9013672,34.2203369 L27.0986328,34.2203369 L27.0986328,45.0231933 Z" id="Shape" fill-rule="nonzero"></path>
            <path d="M38.4013672,61.665039 L26.5986328,61.665039 C26.3222656,61.665039 26.0986328,61.4411621 26.0986328,61.165039 L26.0986328,49.3623046 C26.0986328,49.0861816 26.3222656,48.8623046 26.5986328,48.8623046 L38.4013672,48.8623046 C38.6777344,48.8623046 38.9013672,49.0861816 38.9013672,49.3623046 L38.9013672,61.165039 C38.9013672,61.4411621 38.6777344,61.665039 38.4013672,61.665039 Z M27.0986328,60.665039 L37.9013672,60.665039 L37.9013672,49.8623046 L27.0986328,49.8623046 L27.0986328,60.665039 Z" id="Shape" fill-rule="nonzero"></path>
            <path d="M59.8457032,30.3812256 L48.0429688,30.3812256 C47.7666016,30.3812256 47.5429688,30.1573487 47.5429688,29.8812256 L47.5429688,18.0783692 C47.5429688,17.8022461 47.7666016,17.5783692 48.0429688,17.5783692 L59.8457032,17.5783692 C60.1220704,17.5783692 60.3457032,17.8022461 60.3457032,18.0783692 L60.3457032,29.8812256 C60.3457032,30.1573487 60.1220703,30.3812256 59.8457032,30.3812256 Z M48.5429688,29.3812256 L59.3457032,29.3812256 L59.3457032,18.5783692 L48.5429688,18.5783692 L48.5429688,29.3812256 Z" id="Shape" fill-rule="nonzero"></path>
            <path d="M59.8457032,46.0231933 L48.0429688,46.0231933 C47.7666016,46.0231933 47.5429688,45.7993164 47.5429688,45.5231933 L47.5429688,33.7203369 C47.5429688,33.4442138 47.7666016,33.2203369 48.0429688,33.2203369 L59.8457032,33.2203369 C60.1220704,33.2203369 60.3457032,33.4442138 60.3457032,33.7203369 L60.3457032,45.5231933 C60.3457032,45.7993164 60.1220703,46.0231933 59.8457032,46.0231933 Z M48.5429688,45.0231933 L59.3457032,45.0231933 L59.3457032,34.2203369 L48.5429688,34.2203369 L48.5429688,45.0231933 Z" id="Shape" fill-rule="nonzero"></path>
            <path d="M59.8457032,61.665039 L48.0429688,61.665039 C47.7666016,61.665039 47.5429688,61.4411621 47.5429688,61.165039 L47.5429688,49.3623046 C47.5429688,49.0861816 47.7666016,48.8623046 48.0429688,48.8623046 L59.8457032,48.8623046 C60.1220704,48.8623046 60.3457032,49.0861816 60.3457032,49.3623046 L60.3457032,61.165039 C60.3457032,61.4411621 60.1220703,61.665039 59.8457032,61.665039 Z M48.5429688,60.665039 L59.3457032,60.665039 L59.3457032,49.8623046 L48.5429688,49.8623046 L48.5429688,60.665039 Z" id="Shape" fill-rule="nonzero"></path>
            <path d="M53.7900391,28.3828125 C51.3618164,28.3828125 49.3867188,26.4075928 49.3867188,23.9797364 C49.3867188,21.55188 51.3618164,19.5766602 53.7900391,19.5766602 C56.2177735,19.5766602 58.1928711,21.55188 58.1928711,23.9797364 C58.1928711,26.4075928 56.2177735,28.3828125 53.7900391,28.3828125 Z M53.7900391,20.5766602 C51.9135742,20.5766602 50.3867188,22.1032715 50.3867188,23.9797363 C50.3867188,25.8562011 51.9135742,27.3828125 53.7900391,27.3828125 C55.6665039,27.3828125 57.1928711,25.8562011 57.1928711,23.9797363 C57.1928711,22.1032715 55.6665039,20.5766602 53.7900391,20.5766602 Z" id="Shape" fill-rule="nonzero"></path>
            <path d="M54.5039063,25.7160644 L53.0761719,25.7160644 C52.8974609,25.7160644 52.7324219,25.6207275 52.6430664,25.4660644 L51.9291992,24.2297363 C51.8398438,24.0750732 51.8398438,23.8843994 51.9291992,23.7297363 L52.6430664,22.4934081 C52.7324219,22.338745 52.897461,22.2434081 53.0761719,22.2434081 L54.5039063,22.2434081 C54.6826172,22.2434081 54.8476563,22.338745 54.9370117,22.4934081 L55.6508789,23.7297363 C55.7402344,23.8843994 55.7402344,24.0750732 55.6508789,24.2297363 L54.9370117,25.4660644 C54.8476563,25.6207275 54.6826172,25.7160644 54.5039063,25.7160644 Z M53.3647461,24.7160644 L54.2153321,24.7160644 L54.640625,23.9797363 L54.2153321,23.2434081 L53.3647461,23.2434081 L52.9394532,23.9797363 L53.3647461,24.7160644 Z" id="Shape" fill-rule="nonzero"></path>
            <path d="M53.0751953,23.2451172 C52.9106445,23.2451172 52.7495117,23.1640625 52.6542969,23.0153809 L51.3144531,20.9302979 C51.1650391,20.6979981 51.2324219,20.3886719 51.4643555,20.2393799 C51.6972656,20.0906983 52.0068359,20.1572266 52.1552734,20.3897706 L53.4951172,22.4748536 C53.6445312,22.7071534 53.5771484,23.0164796 53.3452148,23.1657715 C53.2612305,23.2194824 53.1679688,23.2451172 53.0751953,23.2451172 Z" id="Path"></path>
            <path d="M52.3598633,24.4801026 L49.8847657,24.4801026 C49.6083985,24.4801026 49.3847657,24.2562256 49.3847657,23.9801026 C49.3847657,23.7039795 49.6083985,23.4801026 49.8847657,23.4801026 L52.3598633,23.4801026 C52.6362305,23.4801026 52.8598633,23.7039795 52.8598633,23.9801026 C52.8598633,24.2562256 52.6362305,24.4801026 52.3598633,24.4801026 Z" id="Path"></path>
            <path d="M51.2998047,27.4901123 C51.171875,27.4901123 51.0439453,27.4412841 50.946289,27.3436279 C50.7509765,27.1484374 50.7509765,26.8317871 50.946289,26.6365966 L52.7211914,24.8615722 C52.9165039,24.6662597 53.2329101,24.6662597 53.4282226,24.8615722 C53.6235351,25.0567627 53.6235351,25.373413 53.4282226,25.5686035 L51.6533203,27.3436279 C51.555664,27.4412842 51.4277344,27.4901123 51.2998047,27.4901123 Z" id="Path"></path>
            <path d="M54.5043946,23.2451172 C54.4116211,23.2451172 54.3183594,23.2194825 54.234375,23.1657715 C54.0024414,23.0164795 53.9350586,22.7071534 54.0844727,22.4748536 L55.4243164,20.3897706 C55.5732422,20.1572266 55.881836,20.0905762 56.1152344,20.2393799 C56.347168,20.3886719 56.4145508,20.6979981 56.2651367,20.9302979 L54.925293,23.0153809 C54.8300782,23.1640625 54.6689453,23.2451172 54.5043946,23.2451172 Z" id="Path"></path>
            <path d="M57.6948242,24.4801026 L55.2197265,24.4801026 C54.9433593,24.4801026 54.7197265,24.2562256 54.7197265,23.9801026 C54.7197265,23.7039795 54.9433593,23.4801026 55.2197265,23.4801026 L57.6948242,23.4801026 C57.9711914,23.4801026 58.1948242,23.7039795 58.1948242,23.9801026 C58.1948242,24.2562256 57.9711914,24.4801026 57.6948242,24.4801026 Z" id="Path"></path>
            <path d="M56.2797851,27.4901123 C56.1518554,27.4901123 56.0239257,27.4412841 55.9262695,27.3436279 L54.1513671,25.5686035 C53.9560546,25.373413 53.9560546,25.0567627 54.1513671,24.8615722 C54.3466796,24.6662597 54.6630859,24.6662597 54.8583984,24.8615722 L56.6333007,26.6365966 C56.8286132,26.8317871 56.8286132,27.1484374 56.6333007,27.3436279 C56.5356445,27.4412842 56.4077148,27.4901123 56.2797851,27.4901123 Z" id="Path"></path>
            <path d="M32.5,44.0247803 C30.0717774,44.0247803 28.0966797,42.0495605 28.0966797,39.6217041 C28.0966797,37.1938477 30.0717774,35.218628 32.5,35.218628 C34.9277344,35.218628 36.9028321,37.1938477 36.9028321,39.6217041 C36.9028321,42.0495605 34.9277344,44.0247803 32.5,44.0247803 Z M32.5,36.218628 C30.6235352,36.218628 29.0966797,37.7452393 29.0966797,39.6217041 C29.0966797,41.4981689 30.6235352,43.0247803 32.5,43.0247803 C34.3764649,43.0247803 35.9028321,41.4981689 35.9028321,39.6217041 C35.9028321,37.7452393 34.3764649,36.218628 32.5,36.218628 Z" id="Shape" fill-rule="nonzero"></path>
            <path d="M33.2138672,41.3580322 L31.7861328,41.3580322 C31.6074218,41.3580322 31.4423828,41.2626953 31.3530273,41.1080322 L30.6391601,39.8717041 C30.5498047,39.717041 30.5498047,39.5263672 30.6391601,39.3717041 L31.3530273,38.1353759 C31.4423828,37.9807128 31.6074219,37.8853759 31.7861328,37.8853759 L33.2138672,37.8853759 C33.3925781,37.8853759 33.5576172,37.9807128 33.6469726,38.1353759 L34.3608398,39.3717041 C34.4501953,39.5263672 34.4501953,39.717041 34.3608398,39.8717041 L33.6469726,41.1080322 C33.5576172,41.2626953 33.3925781,41.3580322 33.2138672,41.3580322 Z M32.074707,40.3580322 L32.925293,40.3580322 L33.3505859,39.6217041 L32.925293,38.8853759 L32.074707,38.8853759 L31.6494141,39.6217041 L32.074707,40.3580322 Z" id="Shape" fill-rule="nonzero"></path>
            <path d="M31.7851563,38.8869629 C31.6206055,38.8869629 31.4594727,38.8059082 31.3642578,38.6572265 L30.0244141,36.5722656 C29.875,36.3399658 29.9423828,36.0306396 30.1743164,35.8813476 C30.4077149,35.732666 30.7167969,35.7994384 30.8652344,36.0317383 L32.2050781,38.1166992 C32.3544922,38.348999 32.2871094,38.6583252 32.0551758,38.8076172 C31.9711914,38.8613281 31.8779297,38.8869629 31.7851563,38.8869629 Z" id="Path"></path>
            <path d="M31.0698242,40.1220703 L28.5947265,40.1220703 C28.3183593,40.1220703 28.0947265,39.8981933 28.0947265,39.6220703 C28.0947265,39.3459472 28.3183593,39.1220703 28.5947265,39.1220703 L31.0698242,39.1220703 C31.3461914,39.1220703 31.5698242,39.3459472 31.5698242,39.6220703 C31.5698242,39.8981933 31.3461914,40.1220703 31.0698242,40.1220703 Z" id="Path"></path>
            <path d="M30.0097657,43.1320801 C29.8818359,43.1320801 29.7539063,43.083252 29.65625,42.9855957 C29.4609375,42.7904053 29.4609375,42.4737549 29.65625,42.2785645 L31.4311524,40.5035401 C31.6264649,40.3082276 31.9428711,40.3082276 32.1381836,40.5035401 C32.3334961,40.6987305 32.3334961,41.0153809 32.1381836,41.2105713 L30.3632813,42.9855957 C30.265625,43.083252 30.1376953,43.1320801 30.0097657,43.1320801 Z" id="Path"></path>
            <path d="M33.2143555,38.8869629 C33.121582,38.8869629 33.0283203,38.8613282 32.9443359,38.8076172 C32.7124023,38.6583252 32.6450195,38.3489991 32.7944336,38.1166993 L34.1342773,36.0317383 C34.2832031,35.7991944 34.5922851,35.7324219 34.8251953,35.8813477 C35.0571289,36.0306397 35.1245117,36.3399658 34.9750976,36.5722656 L33.6352539,38.6572266 C33.5400391,38.8059082 33.3789063,38.8869629 33.2143555,38.8869629 Z" id="Path"></path>
            <path d="M36.4047852,40.1220703 L33.9296875,40.1220703 C33.6533203,40.1220703 33.4296875,39.8981933 33.4296875,39.6220703 C33.4296875,39.3459472 33.6533203,39.1220703 33.9296875,39.1220703 L36.4047852,39.1220703 C36.6811524,39.1220703 36.9047852,39.3459472 36.9047852,39.6220703 C36.9047852,39.8981933 36.6811523,40.1220703 36.4047852,40.1220703 Z" id="Path"></path>
            <path d="M34.9897461,43.1320801 C34.8618164,43.1320801 34.7338867,43.083252 34.6362304,42.9855957 L32.8613281,41.2105713 C32.6660156,41.0153809 32.6660156,40.6987305 32.8613281,40.5035401 C33.0566406,40.3082276 33.3730468,40.3082276 33.5683593,40.5035401 L35.3432617,42.2785645 C35.5385742,42.4737549 35.5385742,42.7904053 35.3432617,42.9855957 C35.2456054,43.083252 35.1176758,43.1320801 34.9897461,43.1320801 Z" id="Path"></path>
            <path d="M53.944336,59.6667481 C51.5161133,59.6667481 49.5410157,57.6915283 49.5410157,55.2636719 C49.5410157,52.8358155 51.5161133,50.8605958 53.944336,50.8605958 C56.3720704,50.8605958 58.347168,52.8358155 58.347168,55.2636719 C58.347168,57.6915283 56.3720703,59.6667481 53.944336,59.6667481 Z M53.944336,51.8605957 C52.0678711,51.8605957 50.5410157,53.3872071 50.5410157,55.2636719 C50.5410157,57.1401367 52.0678711,58.666748 53.944336,58.666748 C55.8208008,58.666748 57.347168,57.1401367 57.347168,55.2636719 C57.347168,53.3872071 55.8208008,51.8605957 53.944336,51.8605957 Z" id="Shape" fill-rule="nonzero"></path>
            <path d="M54.6582031,57 L53.2304687,57 C53.0517578,57 52.8867187,56.9046631 52.7973633,56.75 L52.0834961,55.5136718 C51.9941406,55.3590087 51.9941406,55.1683349 52.0834961,55.0136718 L52.7973633,53.7773437 C52.8867187,53.6226806 53.0517578,53.5273437 53.2304687,53.5273437 L54.6582031,53.5273437 C54.8369141,53.5273437 55.0019531,53.6226806 55.0913086,53.7773437 L55.8051758,55.0136718 C55.8945312,55.1683349 55.8945312,55.3590087 55.8051758,55.5136718 L55.0913086,56.75 C55.0019531,56.9046631 54.836914,57 54.6582031,57 Z M53.5190429,56 L54.3696289,56 L54.7949218,55.2636718 L54.3696289,54.5273437 L53.5190429,54.5273437 L53.09375,55.2636718 L53.5190429,56 Z" id="Shape" fill-rule="nonzero"></path>
            <path d="M53.2294922,54.5289306 C53.0649414,54.5289306 52.9038086,54.4478759 52.8085938,54.2991943 L51.46875,52.2142333 C51.319336,51.9819335 51.3867188,51.6726073 51.6186524,51.5233154 C51.8520508,51.3745117 52.1606446,51.4411621 52.3095703,51.673706 L53.6494141,53.758667 C53.7988281,53.9909668 53.7314453,54.300293 53.4995117,54.4495849 C53.4155274,54.5032959 53.3222657,54.5289306 53.2294922,54.5289306 Z" id="Path"></path>
            <path d="M52.5141602,55.763916 L50.0390625,55.763916 C49.7626953,55.763916 49.5390625,55.540039 49.5390625,55.263916 C49.5390625,54.9877929 49.7626953,54.763916 50.0390625,54.763916 L52.5141602,54.763916 C52.7905274,54.763916 53.0141602,54.9877929 53.0141602,55.263916 C53.0141602,55.540039 52.7905274,55.763916 52.5141602,55.763916 Z" id="Path"></path>
            <path d="M51.4541015,58.7739258 C51.3261718,58.7739258 51.1982421,58.7250977 51.1005859,58.6274414 C50.9052734,58.432251 50.9052734,58.1156006 51.1005859,57.9204102 L52.8754882,56.1453858 C53.0708007,55.9500733 53.387207,55.9500733 53.5825195,56.1453858 C53.777832,56.3405762 53.777832,56.6572266 53.5825195,56.852417 L51.8076171,58.6274414 C51.7099609,58.7250977 51.5820312,58.7739258 51.4541015,58.7739258 Z" id="Path"></path>
            <path d="M54.6586914,54.5289307 C54.565918,54.5289307 54.4726563,54.5032959 54.3886719,54.449585 C54.1567383,54.300293 54.0893555,53.9909668 54.2387695,53.758667 L55.5786133,51.6737061 C55.7275391,51.4411621 56.0366211,51.3743897 56.2695312,51.5233154 C56.5014648,51.6726074 56.5688476,51.9819336 56.4194336,52.2142334 L55.0795898,54.2991943 C54.984375,54.447876 54.8232422,54.5289307 54.6586914,54.5289307 Z" id="Path"></path>
            <path d="M57.8491211,55.763916 L55.3740235,55.763916 C55.0976563,55.763916 54.8740235,55.540039 54.8740235,55.263916 C54.8740235,54.9877929 55.0976563,54.763916 55.3740235,54.763916 L57.8491211,54.763916 C58.1254883,54.763916 58.3491211,54.9877929 58.3491211,55.263916 C58.3491211,55.540039 58.1254883,55.763916 57.8491211,55.763916 Z" id="Path"></path>
            <path d="M56.434082,58.7739258 C56.3061523,58.7739258 56.1782226,58.7250977 56.0805664,58.6274414 L54.305664,56.852417 C54.1103515,56.6572266 54.1103515,56.3405762 54.305664,56.1453858 C54.5009765,55.9500733 54.8173828,55.9500733 55.0126953,56.1453858 L56.7875976,57.9204102 C56.9829101,58.1156006 56.9829101,58.432251 56.7875976,58.6274414 C56.6899414,58.7250977 56.5620117,58.7739258 56.434082,58.7739258 Z" id="Path"></path>
            <path d="M9.6357422,26.7089844 C9.5078125,26.7089844 9.3798828,26.6601562 9.28222655,26.5626221 L7.6635742,24.9443359 C7.4682617,24.7490234 7.4682617,24.4324951 7.6635742,24.2371826 C7.8588867,24.0418701 8.17529295,24.0419922 8.37060545,24.2370606 L9.63574215,25.5019532 L13.7402343,21.3970948 C13.9355468,21.2017823 14.2519531,21.2017823 14.4472656,21.3970948 C14.6425781,21.5922852 14.6425781,21.9089356 14.4472656,22.104126 L9.9892578,26.5625 C9.89160155,26.6601562 9.7636719,26.7089844 9.6357422,26.7089844 Z" id="Path"></path>
        </g>
    </g>
</svg>