<?xml version="1.0" encoding="UTF-8"?>
<svg width="638px" height="70px" viewBox="0 0 638 70" version="1.1" xmlns="http://www.w3.org/2000/svg" xmlns:xlink="http://www.w3.org/1999/xlink">
    <!-- Generator: Sketch 52.3 (67297) - http://www.bohemiancoding.com/sketch -->
    <title>Group 34</title>
    <desc>Created with Sketch.</desc>
    <defs>
        <circle id="path-1" cx="35.6128405" cy="35.0680934" r="31.3910506"></circle>
        <circle id="path-3" cx="35.6128405" cy="35.0680934" r="31.3910506"></circle>
    </defs>
    <g id="Page-1" stroke="none" stroke-width="1" fill="none" fill-rule="evenodd">
        <g id="Group-34">
            <g id="Group-31">
                <g id="Group-8" transform="translate(0.000000, 0.000000)">
                    <rect id="Rectangle" fill="#FFF60F" x="0" y="0" width="450.36965" height="70" rx="35"></rect>
                    <mask id="mask-2" fill="white">
                        <use xlink:href="#path-1"></use>
                    </mask>
                    <use id="Mask" fill="#FFFFFF" xlink:href="#path-1"></use>
                    <path d="M48.7790599,57.1984436 L23.536026,57.1984436 C22.7973238,57.1984436 22.1984436,56.6004463 22.1984436,55.8628333 L22.1984436,14.2733535 C22.1984436,13.5357404 22.7973238,12.9377432 23.536026,12.9377432 L48.7791491,12.9377432 C49.5178513,12.9377432 50.1167315,13.5357404 50.1167315,14.2733535 L50.1167315,55.8627442 C50.1166423,56.6004463 49.5178513,57.1984436 48.7790599,57.1984436 Z" id="Path" fill="#FFF5F5" mask="url(#mask-2)"></path>
                    <path d="M50.1167315,14.2733562 L50.1167315,55.8628306 C50.1167315,56.6004451 49.5113039,57.1984436 48.7645257,57.1984436 L44.8054475,57.1984436 C46.2062425,57.1984436 47.3421855,56.0765287 47.3421855,54.6928336 L47.3421855,15.4433531 C47.3421855,14.0597471 46.2063327,12.9377432 44.8054475,12.9377432 L48.7645257,12.9377432 C49.5113039,12.9377432 50.1167315,13.5357416 50.1167315,14.2733562 Z" id="Path" fill="#EFE2DD" mask="url(#mask-2)"></path>
                    <path d="M48.7790599,57.1984436 L23.536026,57.1984436 C22.7973238,57.1984436 22.1984436,56.5963271 22.1984436,55.8536331 L22.1984436,51.8871595 L50.1167315,51.8871595 L50.1167315,55.8536331 C50.1166423,56.5963271 49.5178513,57.1984436 48.7790599,57.1984436 Z" id="Path" fill="#7CA1B1" mask="url(#mask-2)"></path>
                    <path d="M50.1167315,18.385214 L22.1984436,18.385214 L22.1984436,14.2654879 C22.1984436,13.5322187 22.7973238,12.9377432 23.536026,12.9377432 L48.7791491,12.9377432 C49.5178513,12.9377432 50.1167315,13.5322187 50.1167315,14.2654879 L50.1167315,18.385214 Z" id="Path" fill="#7CA1B1" mask="url(#mask-2)"></path>
                    <path d="M50.1167315,51.8871595 L50.1167315,55.8536331 C50.1167315,56.5963271 49.5119198,57.1984436 48.7659014,57.1984436 L44.8054475,57.1984436 C46.2048175,57.1984436 47.3387043,56.0688028 47.3387043,54.6755792 L47.3387043,51.8871595 L50.1167315,51.8871595 Z" id="Path" fill="#678D98" mask="url(#mask-2)"></path>
                    <path d="M50.1167315,14.2654879 L50.1167315,18.385214 L47.3387043,18.385214 L47.3387043,15.4285922 C47.3387043,14.0531372 46.2049075,12.9377432 44.8054475,12.9377432 L48.7659014,12.9377432 C49.5119198,12.9377432 50.1167315,13.5322187 50.1167315,14.2654879 Z" id="Path" fill="#678D98" mask="url(#mask-2)"></path>
                    <path d="M46.219637,32.5486381 L25.9594404,32.5486381 C25.4617921,32.5486381 25.0583658,32.1466566 25.0583658,31.6507907 L25.0583658,22.551544 C25.0583658,22.055678 25.4617921,21.6536965 25.9594404,21.6536965 L46.219548,21.6536965 C46.7171962,21.6536965 47.1206226,22.055678 47.1206226,22.551544 L47.1206226,31.6507907 C47.1207116,32.1466566 46.7172852,32.5486381 46.219637,32.5486381 Z" id="Path" fill="#C9F0FF" mask="url(#mask-2)"></path>
                    <path d="M47.1206226,22.5518926 L47.1206226,31.6504421 C47.1206226,32.1460781 46.725515,32.5486381 46.2375488,32.5486381 L43.8521401,32.5486381 C44.3401063,32.5486381 44.7352139,32.1460781 44.7352139,31.6504421 L44.7352139,22.5518926 C44.7352139,22.0562566 44.3401063,21.6536965 43.8521401,21.6536965 L46.2375488,21.6536965 C46.725515,21.6536965 47.1206226,22.0562566 47.1206226,22.5518926 Z" id="Path" fill="#9AE7FD" mask="url(#mask-2)"></path>
                    <path d="M27.2373541,32.5486381 L33.3303243,26.4689279 C33.5878944,26.2118869 34.0091456,26.2245385 34.2508296,26.4964584 L39.6303502,32.5486381 L27.2373541,32.5486381 Z" id="Path" fill="#A3E72D" mask="url(#mask-2)"></path>
                    <path d="M35,32.5485486 L39.7980799,27.6954564 C40.0533383,27.437237 40.4708087,27.4499466 40.7103236,27.7231131 L44.9416342,32.5486381 L35,32.5486381 L35,32.5485486 Z" id="Path" fill="#A3E72D" mask="url(#mask-2)"></path>
                    <path d="M29.5320275,35.5215353 C28.9536117,35.2735836 28.3189011,35.4434797 27.9409345,35.935959 C27.7442623,36.1922519 27.6458813,36.4131608 27.6458813,36.4131608 C27.6458813,36.4131608 27.5475902,36.1922519 27.3508281,35.935959 C26.9728614,35.4434797 26.3381508,35.2735836 25.7597351,35.5215353 C24.8895035,35.8946922 24.9069495,37.0982768 25.3883332,37.7639887 C25.8341953,38.3806194 26.4407585,38.9690659 27.1280769,39.3586416 C27.4469609,39.5393374 27.8448016,39.5393374 28.1636857,39.3586416 C28.8510041,38.9690659 29.4575672,38.3806194 29.9034294,37.7639887 C30.384903,37.0982768 30.402349,35.8946044 29.5320275,35.5215353 Z" id="Path" fill="#FF5757" mask="url(#mask-2)"></path>
                    <path d="M34.1754991,54.7470817 L38.139676,54.7470817 C38.511747,54.7470817 38.8132296,54.4422957 38.8132296,54.0661479 C38.8132296,53.69 38.511747,53.385214 38.139676,53.385214 L34.1754991,53.385214 C33.8034281,53.385214 33.5019455,53.69 33.5019455,54.0661479 C33.5019455,54.4422957 33.8034281,54.7470817 34.1754991,54.7470817 Z" id="Path" fill="#000000" mask="url(#mask-2)"></path>
                    <path d="M34.3394568,16.4785992 C34.7043409,16.4785992 35,16.1738132 35,15.7976654 C35,15.4215175 34.7043409,15.1167315 34.3394568,15.1167315 L32.5282475,15.1167315 C32.1633634,15.1167315 31.8677043,15.4215175 31.8677043,15.7976654 C31.8677043,16.1738132 32.1633634,16.4785992 32.5282475,16.4785992 L34.3394568,16.4785992 Z" id="Path" fill="#000000" mask="url(#mask-2)"></path>
                    <path d="M39.7725406,16.4785992 C40.1453721,16.4785992 40.4474708,16.1738132 40.4474708,15.7976654 C40.4474708,15.4215175 40.1453721,15.1167315 39.7725406,15.1167315 L36.355864,15.1167315 C35.9830326,15.1167315 35.6809339,15.4215175 35.6809339,15.7976654 C35.6809339,16.1738132 35.9830326,16.4785992 36.355864,16.4785992 L39.7725406,16.4785992 Z" id="Path" fill="#000000" mask="url(#mask-2)"></path>
                    <path d="M48.6627731,12.2568093 L30.182209,12.2568093 C29.8141807,12.2568093 29.5159738,12.5549983 29.5159738,12.9230045 C29.5159738,13.2910106 29.8141807,13.5891996 30.182209,13.5891996 L48.6627731,13.5891996 C49.0301796,13.5891996 49.3290083,13.8880103 49.3290083,14.2553947 L49.3290083,17.72334 L22.8499801,17.72334 L22.8499801,14.2553947 C22.8499801,13.8880103 23.1488087,13.5891996 23.5162152,13.5891996 L27.2116885,13.5891996 C27.5797168,13.5891996 27.8779236,13.2910106 27.8779236,12.9230045 C27.8779236,12.5549983 27.5797168,12.2568093 27.2116885,12.2568093 L23.5162152,12.2568093 C22.4141734,12.2568093 21.5175097,13.1534191 21.5175097,14.2553947 L21.5175097,51.8147647 L21.5175097,55.7446053 C21.5175097,56.8465809 22.4141734,57.7431907 23.5162152,57.7431907 L48.6627731,57.7431907 C49.7648149,57.7431907 50.6614786,56.8465809 50.6614786,55.7446053 L50.6614786,51.8147647 L50.6614786,14.2553947 C50.6614786,13.1534191 49.7648149,12.2568093 48.6627731,12.2568093 Z M49.3290083,55.7446053 C49.3290083,56.1119897 49.0301796,56.4108004 48.6627731,56.4108004 L23.5162152,56.4108004 C23.1488087,56.4108004 22.8499801,56.1119897 22.8499801,55.7446053 L22.8499801,52.4809599 L49.3290083,52.4809599 L49.3290083,55.7446053 Z M49.3290083,51.1485696 L22.8499801,51.1485696 L22.8499801,19.0557302 L49.3290083,19.0557302 L49.3290083,51.1485696 Z" id="Shape" fill="#000000" fill-rule="nonzero" mask="url(#mask-2)"></path>
                    <path d="M25.9481697,33.229572 L46.2308186,33.229572 C47.0969622,33.229572 47.8015564,32.5265115 47.8015564,31.6622533 L47.8015564,27.3206791 C47.8015564,26.9521128 47.5022621,26.65347 47.1328918,26.65347 C46.7635214,26.65347 46.4642272,26.9521128 46.4642272,27.3206791 L46.4642272,31.6622533 C46.4642272,31.7906243 46.3594697,31.8951538 46.2308186,31.8951538 L45.3490729,31.8951538 L41.2347348,27.2685478 C40.9979384,27.002109 40.6574543,26.8432243 40.300744,26.8325489 C39.940735,26.8236528 39.5946342,26.9601193 39.3423247,27.2118795 L37.4353823,29.1137814 L34.6856551,26.0217564 C34.4488586,25.7553176 34.1083746,25.5964328 33.7516643,25.5857575 C33.3929034,25.5765055 33.0456436,25.7133279 32.793245,25.9650881 L26.8473008,31.8952427 L25.9480806,31.8952427 C25.8194295,31.8952427 25.714672,31.7907133 25.714672,31.6623423 L25.714672,22.5400813 C25.714672,22.4117103 25.8194295,22.3071809 25.9480806,22.3071809 L46.2307295,22.3071809 C46.3593805,22.3071809 46.464138,22.4117103 46.464138,22.5400813 L46.464138,24.2366607 C46.464138,24.605227 46.7634323,24.9038698 47.1328026,24.9038698 C47.502173,24.9038698 47.8014673,24.605227 47.8014673,24.2366607 L47.8014673,22.5400813 C47.8014673,21.6758231 47.0968731,20.9727626 46.2307295,20.9727626 L25.9481697,20.9727626 C25.0820261,20.9727626 24.3774319,21.6758231 24.3774319,22.5400813 L24.3774319,31.6622533 C24.3774319,32.5265115 25.0820261,33.229572 25.9481697,33.229572 Z M33.7110986,26.9362777 L37.306553,30.979298 C37.5515517,31.2550778 37.9742369,31.2802538 38.2504399,31.0355215 C38.5199564,30.7969276 38.5498234,30.3901969 38.3235473,30.114595 L40.2601784,28.1830691 L43.5612419,31.8951538 L28.7390867,31.8951538 L33.7110986,26.9362777 Z" id="Shape" fill="#000000" fill-rule="nonzero" mask="url(#mask-2)"></path>
                    <path d="M26.8736979,39.9486967 C27.1329468,40.0996009 27.4234326,40.1750973 27.7140067,40.1750973 C28.0045808,40.1750973 28.2951548,40.0996009 28.5542273,39.9486967 C29.2636763,39.5357238 29.9439179,38.8968813 30.4698278,38.149972 C30.8775845,37.5706061 31.0202685,36.7604143 30.8333763,36.0859036 C30.6816037,35.5384002 30.3255555,35.1169306 29.8307943,34.8989382 C29.0931085,34.573941 28.2814777,34.7213049 27.7140067,35.2565944 C27.1464475,34.7213049 26.3350814,34.573941 25.5972191,34.8989382 C25.1024578,35.1169306 24.7463215,35.5384887 24.594637,36.0859036 C24.4077449,36.7605029 24.5504288,37.5706946 24.9582738,38.1500605 C25.4840073,38.8968813 26.1642489,39.5356353 26.8736979,39.9486967 Z M25.8698805,36.4414356 C25.9300601,36.2243283 26.0468015,36.1508676 26.1293941,36.1144913 C26.2178987,36.0755483 26.307374,36.0565193 26.3943786,36.0565193 C26.5856827,36.0565193 26.7649863,36.1485665 26.8948754,36.3223939 C27.0335886,36.5081698 27.1070925,36.6701374 27.1070925,36.6701374 C27.2115685,36.91123 27.4488457,37.0658515 27.7109183,37.0673561 C27.9722849,37.065232 28.2121211,36.9133542 28.3194208,36.6736776 C28.320215,36.671996 28.3937188,36.5093204 28.5332262,36.3224824 C28.7222361,36.0696184 29.0154574,35.9896967 29.2987075,36.1144913 C29.3813883,36.1508676 29.4981298,36.2243283 29.5582211,36.4414356 C29.6390489,36.7332427 29.5677511,37.1297534 29.388624,37.3842107 C28.9703668,37.9783572 28.4381035,38.4813416 27.8898689,38.8004973 C27.7830103,38.8627176 27.6450913,38.8627176 27.5382328,38.8004973 C26.9899981,38.4813416 26.4578231,37.9783572 26.0396541,37.3842107 C25.8603506,37.129842 25.7890527,36.7332427 25.8698805,36.4414356 Z" id="Shape" fill="#000000" fill-rule="nonzero" mask="url(#mask-2)"></path>
                    <path d="M32.6848249,42.3540856 C32.6848249,41.9779377 32.3850854,41.6731518 32.0151657,41.6731518 L25.8642118,41.6731518 C25.494292,41.6731518 25.1945525,41.9779377 25.1945525,42.3540856 C25.1945525,42.7302335 25.494292,43.0350195 25.8642118,43.0350195 L32.0151657,43.0350195 C32.3849961,43.0350195 32.6848249,42.7301427 32.6848249,42.3540856 Z" id="Path" fill="#000000" mask="url(#mask-2)"></path>
                    <path d="M38.0152439,43.0350195 C38.3808216,43.0350195 38.6770428,42.7302335 38.6770428,42.3540856 C38.6770428,41.9779377 38.3808216,41.6731518 38.0152439,41.6731518 L35.6617989,41.6731518 C35.2962212,41.6731518 35,41.9779377 35,42.3540856 C35,42.7302335 35.2962212,43.0350195 35.6617989,43.0350195 L38.0152439,43.0350195 Z" id="Path" fill="#000000" mask="url(#mask-2)"></path>
                    <path d="M47.132843,41.6731518 L41.5247446,41.6731518 C41.1553473,41.6731518 40.8560311,41.9779377 40.8560311,42.3540856 C40.8560311,42.7302335 41.1553473,43.0350195 41.5247446,43.0350195 L47.132843,43.0350195 C47.5022403,43.0350195 47.8015564,42.7302335 47.8015564,42.3540856 C47.8015564,41.9779377 47.5022403,41.6731518 47.132843,41.6731518 Z" id="Path" fill="#000000" mask="url(#mask-2)"></path>
                    <path d="M25.7344228,44.6692607 C25.3609689,44.6692607 25.0583658,44.9740467 25.0583658,45.3501946 C25.0583658,45.7263424 25.3609689,46.0311284 25.7344228,46.0311284 L29.6935928,46.0311284 C30.0670467,46.0311284 30.3696498,45.7263424 30.3696498,45.3501946 C30.3696498,44.9740467 30.0670467,44.6692607 29.6935928,44.6692607 L25.7344228,44.6692607 Z" id="Path" fill="#000000" mask="url(#mask-2)"></path>
                    <path d="M40.1750973,45.3501946 C40.1750973,44.9740467 39.8755581,44.6692607 39.5058854,44.6692607 L32.4007294,44.6692607 C32.0310567,44.6692607 31.7315175,44.9740467 31.7315175,45.3501946 C31.7315175,45.7263424 32.0310567,46.0311284 32.4007294,46.0311284 L39.5058854,46.0311284 C39.8755581,46.0311284 40.1750973,45.7262516 40.1750973,45.3501946 Z" id="Path" fill="#000000" mask="url(#mask-2)"></path>
                    <path d="M47.1416432,44.6692607 L42.877812,44.6692607 C42.513276,44.6692607 42.2178988,44.9740467 42.2178988,45.3501946 C42.2178988,45.7263424 42.513276,46.0311284 42.877812,46.0311284 L47.1416432,46.0311284 C47.5061793,46.0311284 47.8015564,45.7263424 47.8015564,45.3501946 C47.8015564,44.9740467 47.5061793,44.6692607 47.1416432,44.6692607 Z" id="Path" fill="#000000" mask="url(#mask-2)"></path>
                    <path d="M30.7941224,47.2568093 L25.8595741,47.2568093 C25.4922162,47.2568093 25.1945525,47.5615953 25.1945525,47.9377432 C25.1945525,48.3138911 25.4922162,48.618677 25.8595741,48.618677 L30.7941224,48.618677 C31.1614803,48.618677 31.459144,48.3138911 31.459144,47.9377432 C31.459144,47.5615953 31.1614803,47.2568093 30.7941224,47.2568093 Z" id="Path" fill="#000000" mask="url(#mask-2)"></path>
                    <path d="M42.2353427,47.2568093 L33.893062,47.2568093 C33.5265501,47.2568093 33.229572,47.5615953 33.229572,47.9377432 C33.229572,48.3138911 33.5265501,48.618677 33.893062,48.618677 L42.2353427,48.618677 C42.6018546,48.618677 42.8988327,48.3138911 42.8988327,47.9377432 C42.8988327,47.5615953 42.6017661,47.2568093 42.2353427,47.2568093 Z" id="Path" fill="#000000" mask="url(#mask-2)"></path>
                    <path d="M47.1325531,47.2568093 L45.2020772,47.2568093 C44.8325198,47.2568093 44.5330739,47.5615953 44.5330739,47.9377432 C44.5330739,48.3138911 44.8325198,48.618677 45.2020772,48.618677 L47.1325531,48.618677 C47.5021105,48.618677 47.8015564,48.3138911 47.8015564,47.9377432 C47.8015564,47.5615953 47.5021105,47.2568093 47.1325531,47.2568093 Z" id="Path" fill="#000000" mask="url(#mask-2)"></path>
                </g>
                <rect id="Rectangle" fill="#FFF60F" x="6.53699317e-13" y="0" width="450.36965" height="70" rx="35"></rect>
                <mask id="mask-4" fill="white">
                    <use xlink:href="#path-3"></use>
                </mask>
                <use id="Mask" fill="#FFFFFF" xlink:href="#path-3"></use>
                <g id="Group-20" transform="translate(449.000000, 24.000000)">
                    <g id="profile" transform="translate(0.221790, 0.677043)">
                        <g id="Group-6" transform="translate(94.404669, 10.881323) scale(-1, 1) translate(-94.404669, -10.881323) translate(0.404669, 0.381323)"></g>
                    </g>
                    <g id="Group-7" transform="translate(94.626459, 11.558366) scale(-1, 1) translate(-94.626459, -11.558366) translate(0.626459, 1.058366)">
                        <path d="M187.120623,9.98079869 L19.5026484,9.98079869" id="Line-2" stroke="#FFF60F" stroke-width="5" stroke-linecap="square"></path>
                        <ellipse id="Oval" fill="#FFF60F" cx="9.73735409" cy="10.0097276" rx="9.73735409" ry="10.0097276"></ellipse>
                    </g>
                </g>
            </g>
            <g id="template" transform="translate(14.000000, 15.000000)">
                <path d="M38.6551724,9 L2.34482759,9 C1.60209982,9 1,9.59695367 1,10.3333333 L1,29 L40,29 L40,10.3333333 C40,9.59695367 39.3979002,9 38.6551724,9 Z" id="Path" fill="#57A4FF"></path>
                <path d="M40,29 L40,31.6666667 C39.9977845,32.4021346 39.3969806,32.9978035 38.6551724,33 L2.34482759,33 C1.60301943,32.9978035 1.00221547,32.4021346 1,31.6666667 L1,29 L40,29 Z" id="Path" fill="#E0E0E2"></path>
                <polygon id="Path" fill="#E0E0E2" points="27.9642857 37 30 40 11 40 13.0357143 37 15.75 37 25.25 37"></polygon>
                <polygon id="Path" fill="#57A4FF" points="24.3571429 33 25 37 16 37 16.6428571 33"></polygon>
                <path d="M39,10.3333333 L39,29 L35.4285714,29 L35.4285714,10.3333333 C35.426218,9.59786542 34.7880013,9.00219653 34,9 L37.5714286,9 C38.3594299,9.00219653 38.9976466,9.59786542 39,10.3333333 Z" id="Path" fill="#2488FF"></path>
                <path d="M39,29 L39,31.6666667 C38.9976466,32.4021346 38.3594299,32.9978035 37.5714286,33 L34,33 C34.7880013,32.9978035 35.426218,32.4021346 35.4285714,31.6666667 L35.4285714,29 L39,29 Z" id="Path" fill="#C6C5CA"></path>
                <polygon id="Path" fill="#C6C5CA" points="29 40 25.875 40 24 37 27.125 37"></polygon>
                <polygon id="Path" fill="#2488FF" points="25 37 21.6666667 37 21 33 24.3333333 33"></polygon>
                <polygon id="Path" fill="#898890" points="34 23 37 23 37 26 34 26"></polygon>
                <polygon id="Path" fill="#00E7F0" points="34 14 37 14 37 21 34 21"></polygon>
                <polygon id="Path" fill="#00E7F0" points="34 7.66886792 33.2471698 8.42169811 31.6688679 10 27 5.33113208 29.3311321 3"></polygon>
                <polygon id="Path" fill="#FF3051" points="30 14 33 14 33 21 30 21"></polygon>
                <polygon id="Path" fill="#FF3051" transform="translate(28.246000, 9.085167) rotate(-45.000000) translate(-28.246000, -9.085167) " points="26.5775853 5.75300327 29.9144147 5.75300327 29.9144147 12.4173301 26.5775853 12.4173301"></polygon>
                <polygon id="Path" fill="#00E7F0" points="29 23 32 23 32 26 29 26"></polygon>
                <polygon id="Path" fill="#FF7956" points="30 14 30 21 27 21 27 15.449 27.366 15.022 28.242 14"></polygon>
                <polygon id="Path" fill="#FF7956" points="29 12.6688679 27.6411379 14.0358491 26.6827133 15 26.2822757 14.5971698 25.7242888 14.0358491 23 11.295283 23 10.7339623 23 9.36698113 24.3588621 8"></polygon>
                <polygon id="Path" fill="#FFDE55" points="27 14.6786885 26.5714286 15.0786885 24.5128806 17 23.058548 15.642623 21 13.7213115 23.058548 13.7213115 23.058548 11 25.9742389 13.7213115 26.5714286 14.2786885"></polygon>
                <polygon id="Path" fill="#FFDE55" points="26 16 26 21 23 21 23 16.5422446 24.242 17.8474149"></polygon>
                <polygon id="Path" fill="#FF3051" points="23 23 26 23 26 26 23 26"></polygon>
                <polygon id="Path" fill="#FFDE55" points="23 11.51 23 14 21.1525851 14 18.5422446 14 19.8474149 12.758 18 11 21.6948298 11 22.4640605 11 23 11"></polygon>
                <polygon id="Path" fill="#FF7956" points="24 8.758 24 10 23.405 10 22.551 10 18.449 10 18.022 9.634 17 8.758 17 7 24 7"></polygon>
                <polygon id="Path" fill="#FF3051" points="17 4 24 4 24 7 17 7"></polygon>
                <polygon id="Path" fill="#00E7F0" points="17 1 24 1 24 4 17 4"></polygon>
                <polygon id="Path" fill="#FFDE55" points="20 12.4871194 18.642623 13.941452 16.7213115 16 16.7213115 13.941452 14 13.941452 16.7213115 11.0257611 17.2786885 10.4285714 17.6786885 10 18.0786885 10.4285714"></polygon>
                <polygon id="Path" fill="#FF7956" points="18 10.3172867 17.5971698 10.7177243 17.0358491 11.2757112 14.295283 14 13.7339623 14 12.3669811 14 11 12.6411379 15.6688679 8 17.0358491 9.35886214"></polygon>
                <polygon id="Path" fill="#FF7956" points="14 23 17 23 17 26 14 26"></polygon>
                <polygon id="Path" fill="#FFDE55" points="17 16.051 17 21 14 21 14 14 14.51 14 17 14"></polygon>
                <polygon id="Path" fill="#FF3051" transform="translate(11.747167, 9.083333) rotate(-45.000000) translate(-11.747167, -9.083333) " points="8.41500327 7.41491865 15.0793301 7.41491865 15.0793301 10.751748 8.41500327 10.751748"></polygon>
                <polygon id="Path" fill="#FF7956" points="13 14 13 21 10 21 10 14 11.758 14"></polygon>
                <polygon id="Path" fill="#00E7F0" points="13 5.33113208 8.33113208 10 6.75283019 8.42169811 6 7.66886792 10.6688679 3"></polygon>
                <polygon id="Path" fill="#FFDE55" points="9 23 12 23 12 26 9 26"></polygon>
                <polygon id="Path" fill="#FF3051" points="7 14 10 14 10 21 7 21"></polygon>
                <polygon id="Path" fill="#00E7F0" points="3 14 6 14 6 21 3 21"></polygon>
                <polygon id="Path" fill="#E0E0E2" points="3 23 6 23 6 26 3 26"></polygon>
                <path d="M38,7.99999136 L34.7866667,7.99999136 C34.8241557,7.79417317 34.7595469,7.58295218 34.6133333,7.43332531 L29.9,2.71999706 C29.6379947,2.4600121 29.2153386,2.4600121 28.9533333,2.71999706 L24,7.67999171 L24,0.666665947 C24,0.298476511 23.7015232,0 23.3333333,0 L16.6666667,0 C16.2984768,0 16,0.298476511 16,0.666665947 L16,7.67999171 L11.0466667,2.71999706 C10.7846614,2.4600121 10.3620053,2.4600121 10.1,2.71999706 L5.38666667,7.43332531 C5.24045314,7.58295218 5.1758443,7.79417317 5.21333333,7.99999136 L2,7.99999136 C0.896798134,8.00328616 0.00329480111,8.89678853 0,9.9999892 L0,31.3332995 C0.00329480111,32.4365002 0.896798134,33.3300025 2,33.3332973 L15.2133333,33.3332973 L14.7666667,35.9999611 L12.6666667,35.9999611 C12.4571719,36.0014049 12.2601852,36.0998981 12.1333333,36.2666275 L10.1333333,38.9332913 C9.98203162,39.1362999 9.95878631,39.4074949 10.0733333,39.6332905 C10.1834912,39.8600332 10.4145978,40.0028517 10.6666667,39.9999568 L29.3333333,39.9999568 C29.5854022,40.0028517 29.8165088,39.8600332 29.9266667,39.6332905 C30.0412137,39.4074949 30.0179684,39.1362999 29.8666667,38.9332913 L27.8666667,36.2666275 C27.7398148,36.0998981 27.5428281,36.0014049 27.3333333,35.9999611 L25.2333333,35.9999611 L24.7866667,33.3332973 L38,33.3332973 C39.1032019,33.3300025 39.9967052,32.4365002 40,31.3332995 L40,9.9999892 C39.9967052,8.89678853 39.1032019,8.00328616 38,7.99999136 Z M29.4266667,4.13332887 L33.2,7.90665813 L31.7866667,9.31998994 L28.0133333,5.54666068 L29.4266667,4.13332887 Z M27.0733333,6.49332632 L30.84,10.2599889 L29.4266667,11.6733207 L25.66,7.90665813 L27.0733333,6.49332632 Z M24,9.55998968 L24.7133333,8.84665711 L28.4866667,12.6199864 L27.0733333,14.0333182 L24,10.9599882 L24,9.55998968 Z M29.3333333,14.6666508 L29.3333333,19.9999784 L27.3333333,19.9999784 L27.3333333,15.6533164 L28.32,14.6666508 L29.3333333,14.6666508 Z M23.3333333,14.6666508 C23.7015232,14.6666508 24,14.3681743 24,13.9999849 L24,12.8399861 L26.1333333,14.9733172 L24.7133333,16.3933156 L22.9866667,14.6666508 L23.3333333,14.6666508 Z M26,16.9866483 L26,19.9999784 L24,19.9999784 L24,17.559981 L24.24,17.8066474 C24.5028907,18.064474 24.9237759,18.064474 25.1866667,17.8066474 L26,16.9866483 Z M17.3333333,1.33333189 L22.6666667,1.33333189 L22.6666667,3.33332973 L17.3333333,3.33332973 L17.3333333,1.33333189 Z M17.3333333,4.66666163 L22.6666667,4.66666163 L22.6666667,6.66665947 L17.3333333,6.66665947 L17.3333333,4.66666163 Z M17.3333333,7.99999136 L22.6666667,7.99999136 L22.6666667,9.9999892 L18.32,9.9999892 L17.3333333,9.0133236 L17.3333333,7.99999136 Z M20.4733333,12.1466535 L19.6533333,11.3333211 L22.6666667,11.3333211 L22.6666667,13.3333189 L20.2266667,13.3333189 L20.4733333,13.0933192 C20.7333186,12.8313142 20.7333186,12.4086586 20.4733333,12.1466535 Z M16.6666667,13.3333189 L15.5066667,13.3333189 L17.64,11.1999879 L19.06,12.6199864 L17.3333333,14.3466512 L17.3333333,13.9999849 C17.3333333,13.6317954 17.0348565,13.3333189 16.6666667,13.3333189 Z M16,14.6666508 L16,19.9999784 L14,19.9999784 L14,14.6666508 L16,14.6666508 Z M16.7,10.2599889 L13.6266667,13.3333189 L12.2266667,13.3333189 L11.5133333,12.6199864 L15.2866667,8.84665711 L16.7,10.2599889 Z M12.6666667,14.6666508 L12.6666667,19.9999784 L10.6666667,19.9999784 L10.6666667,14.6666508 L12.6666667,14.6666508 Z M14.34,7.90665813 L10.5733333,11.6733207 L9.16,10.2599889 L12.9266667,6.49332632 L14.34,7.90665813 Z M10.5733333,4.13332887 L11.9866667,5.54666068 L8.21333333,9.31998994 L6.8,7.90665813 L10.5733333,4.13332887 Z M27,37.333293 L28,38.6666249 L12,38.6666249 L13,37.333293 L27,37.333293 Z M16.12,35.9999611 L16.5666667,33.3332973 L23.4333333,33.3332973 L23.88,35.9999611 L16.12,35.9999611 Z M38.6666667,31.3332995 C38.6666667,31.7014889 38.3681898,31.9999654 38,31.9999654 L2,31.9999654 C1.63181017,31.9999654 1.33333333,31.7014889 1.33333333,31.3332995 L1.33333333,29.3333017 L38.6666667,29.3333017 L38.6666667,31.3332995 Z M38.6666667,27.9999698 L1.33333333,27.9999698 L1.33333333,9.9999892 C1.33333333,9.63179977 1.63181017,9.33332325 2,9.33332325 L6.34666667,9.33332325 L10.3466667,13.3333189 L3.33333333,13.3333189 C2.9651435,13.3333189 2.66666667,13.6317954 2.66666667,13.9999849 L2.66666667,20.6666443 C2.66666667,21.0348338 2.9651435,21.3333103 3.33333333,21.3333103 L16.6666667,21.3333103 C17.0348565,21.3333103 17.3333333,21.0348338 17.3333333,20.6666443 L17.3333333,16.2266491 L18.8933333,14.6666508 L21.1066667,14.6666508 L22.6666667,16.2266491 L22.6666667,20.6666443 C22.6666667,21.0348338 22.9651435,21.3333103 23.3333333,21.3333103 L36.6666667,21.3333103 C37.0348565,21.3333103 37.3333333,21.0348338 37.3333333,20.6666443 L37.3333333,13.9999849 C37.3333333,13.6317954 37.0348565,13.3333189 36.6666667,13.3333189 L29.6533333,13.3333189 L33.6533333,9.33332325 L38,9.33332325 C38.3681898,9.33332325 38.6666667,9.63179977 38.6666667,9.9999892 L38.6666667,27.9999698 Z M9.33333333,14.6666508 L9.33333333,19.9999784 L7.33333333,19.9999784 L7.33333333,14.6666508 L9.33333333,14.6666508 Z M6,14.6666508 L6,19.9999784 L4,19.9999784 L4,14.6666508 L6,14.6666508 Z M30.6666667,19.9999784 L30.6666667,14.6666508 L32.6666667,14.6666508 L32.6666667,19.9999784 L30.6666667,19.9999784 Z M34,19.9999784 L34,14.6666508 L36,14.6666508 L36,19.9999784 L34,19.9999784 Z" id="Shape" fill="#000000" fill-rule="nonzero"></path>
                <path d="M3.66666667,27 L6.33333333,27 C6.70152317,27 7,26.7015232 7,26.3333333 L7,23.6666667 C7,23.2984768 6.70152317,23 6.33333333,23 L3.66666667,23 C3.29847683,23 3,23.2984768 3,23.6666667 L3,26.3333333 C3,26.7015232 3.29847683,27 3.66666667,27 Z M4.33333333,24.3333333 L5.66666667,24.3333333 L5.66666667,25.6666667 L4.33333333,25.6666667 L4.33333333,24.3333333 Z" id="Shape" fill="#000000" fill-rule="nonzero"></path>
                <path d="M8.66666667,27 L11.3333333,27 C11.7015232,27 12,26.7015232 12,26.3333333 L12,23.6666667 C12,23.2984768 11.7015232,23 11.3333333,23 L8.66666667,23 C8.29847683,23 8,23.2984768 8,23.6666667 L8,26.3333333 C8,26.7015232 8.29847683,27 8.66666667,27 Z M9.33333333,24.3333333 L10.6666667,24.3333333 L10.6666667,25.6666667 L9.33333333,25.6666667 L9.33333333,24.3333333 Z" id="Shape" fill="#000000" fill-rule="nonzero"></path>
                <path d="M13.6666667,27 L16.3333333,27 C16.7015232,27 17,26.7015232 17,26.3333333 L17,23.6666667 C17,23.2984768 16.7015232,23 16.3333333,23 L13.6666667,23 C13.2984768,23 13,23.2984768 13,23.6666667 L13,26.3333333 C13,26.7015232 13.2984768,27 13.6666667,27 Z M14.3333333,24.3333333 L15.6666667,24.3333333 L15.6666667,25.6666667 L14.3333333,25.6666667 L14.3333333,24.3333333 Z" id="Shape" fill="#000000" fill-rule="nonzero"></path>
                <path d="M23.6666667,27 L26.3333333,27 C26.7015232,27 27,26.7015232 27,26.3333333 L27,23.6666667 C27,23.2984768 26.7015232,23 26.3333333,23 L23.6666667,23 C23.2984768,23 23,23.2984768 23,23.6666667 L23,26.3333333 C23,26.7015232 23.2984768,27 23.6666667,27 Z M24.3333333,24.3333333 L25.6666667,24.3333333 L25.6666667,25.6666667 L24.3333333,25.6666667 L24.3333333,24.3333333 Z" id="Shape" fill="#000000" fill-rule="nonzero"></path>
                <path d="M28.6666667,27 L31.3333333,27 C31.7015232,27 32,26.7015232 32,26.3333333 L32,23.6666667 C32,23.2984768 31.7015232,23 31.3333333,23 L28.6666667,23 C28.2984768,23 28,23.2984768 28,23.6666667 L28,26.3333333 C28,26.7015232 28.2984768,27 28.6666667,27 Z M29.3333333,24.3333333 L30.6666667,24.3333333 L30.6666667,25.6666667 L29.3333333,25.6666667 L29.3333333,24.3333333 Z" id="Shape" fill="#000000" fill-rule="nonzero"></path>
                <path d="M33.6666667,27 L36.3333333,27 C36.7015232,27 37,26.7015232 37,26.3333333 L37,23.6666667 C37,23.2984768 36.7015232,23 36.3333333,23 L33.6666667,23 C33.2984768,23 33,23.2984768 33,23.6666667 L33,26.3333333 C33,26.7015232 33.2984768,27 33.6666667,27 Z M34.3333333,24.3333333 L35.6666667,24.3333333 L35.6666667,25.6666667 L34.3333333,25.6666667 L34.3333333,24.3333333 Z" id="Shape" fill="#000000" fill-rule="nonzero"></path>
                <polygon id="Path" fill="#000000" points="19 24 22 24 22 25 19 25"></polygon>
            </g>
        </g>
    </g>
</svg>