<?xml version="1.0" encoding="UTF-8"?>
<svg width="280px" height="513px" viewBox="0 0 280 513" version="1.1" xmlns="http://www.w3.org/2000/svg" xmlns:xlink="http://www.w3.org/1999/xlink">
    <!-- Generator: Sketch 52.3 (67297) - http://www.bohemiancoding.com/sketch -->
    <title>Group 51</title>
    <desc>Created with Sketch.</desc>
    <g id="Page-1" stroke="none" stroke-width="1" fill="none" fill-rule="evenodd">
        <g id="Group-51">
            <g id="Group-50">
                <g id="Group-48">
                    <g id="Group-16">
                        <g id="Group-15">
                            <g id="Group-4">
                                <g id="Group-2">
                                    <ellipse id="Oval" fill="#111D5F" cx="72.5" cy="75.41011" rx="72.5" ry="75.41011"></ellipse>
                                    <ellipse id="Oval" fill="#FFF60F" cx="72.8302961" cy="70.2835455" rx="66.5546697" ry="66.6453385"></ellipse>
                                </g>
                            </g>
                        </g>
                        <text id="Company,-Competitor" font-family="Roboto-Bold, Roboto" font-size="11" font-weight="bold" fill="#111D5F">
                            <tspan x="48.8010254" y="88">Company, </tspan>
                            <tspan x="35.171875" y="101">Competitor and </tspan>
                            <tspan x="26.8547363" y="114">Customer Analysis</tspan>
                        </text>
                    </g>
                    <g id="Group-16" transform="translate(115.000000, 75.000000)">
                        <g id="Group-15">
                            <g id="Group-4">
                                <g id="Group-2">
                                    <ellipse id="Oval" fill="#111D5F" cx="72.5" cy="75.41011" rx="72.5" ry="75.41011"></ellipse>
                                    <ellipse id="Oval" fill="#FFF60F" cx="72.8302961" cy="70.2835455" rx="66.5546697" ry="66.6453385"></ellipse>
                                </g>
                            </g>
                        </g>
                        <text id="Content-Calendar" font-family="Roboto-Bold, Roboto" font-size="11" font-weight="bold" fill="#111D5F">
                            <tspan x="29.9587402" y="97">Content Calendar</tspan>
                        </text>
                    </g>
                    <g id="Group-16" transform="translate(19.000000, 174.000000)">
                        <g id="Group-15">
                            <g id="Group-4">
                                <g id="Group-2">
                                    <ellipse id="Oval" fill="#111D5F" cx="72.5" cy="75.41011" rx="72.5" ry="75.41011"></ellipse>
                                    <ellipse id="Oval" fill="#FFF60F" cx="72.8302961" cy="70.2835455" rx="66.5546697" ry="66.6453385"></ellipse>
                                </g>
                            </g>
                        </g>
                        <text id="Keyword-Research" font-family="Roboto-Bold, Roboto" font-size="11" font-weight="bold" fill="#111D5F">
                            <tspan x="51.5183105" y="96">Keyword </tspan>
                            <tspan x="49.8156738" y="109">Research</tspan>
                        </text>
                    </g>
                    <g id="Group-16" transform="translate(135.000000, 249.000000)">
                        <g id="Group-15">
                            <g id="Group-4">
                                <g id="Group-2">
                                    <ellipse id="Oval" fill="#111D5F" cx="72.5" cy="75.41011" rx="72.5" ry="75.41011"></ellipse>
                                    <ellipse id="Oval" fill="#FFF60F" cx="72.8302961" cy="70.2835455" rx="66.5546697" ry="66.6453385"></ellipse>
                                </g>
                            </g>
                        </g>
                        <text id="Content-Curation" font-family="Roboto-Bold, Roboto" font-size="11" font-weight="bold" fill="#111D5F">
                            <tspan x="30.9335938" y="97">Content Curation</tspan>
                        </text>
                    </g>
                    <g id="Group-16" transform="translate(58.000000, 362.000000)">
                        <g id="Group-15">
                            <g id="Group-4">
                                <g id="Group-2">
                                    <ellipse id="Oval" fill="#111D5F" cx="72.5" cy="75.41011" rx="72.5" ry="75.41011"></ellipse>
                                    <ellipse id="Oval" fill="#FFF60F" cx="72.8302961" cy="70.2835455" rx="66.5546697" ry="66.6453385"></ellipse>
                                </g>
                            </g>
                        </g>
                        <text id="Evaluation-&amp;-Reporti" font-family="Roboto-Bold, Roboto" font-size="11" font-weight="bold" fill="#111D5F">
                            <tspan x="42.2075195" y="97">Evaluation &amp; </tspan>
                            <tspan x="48.7683105" y="110">Reporting</tspan>
                        </text>
                    </g>
                </g>
            </g>
            <g id="noun_analysis_2298296" transform="translate(51.000000, 38.000000)" fill="#111D5F">
                <g id="Group">
                    <path d="M18.1158798,14.5069528 C17.9736481,14.5069528 17.8583691,14.3916738 17.8583691,14.2494421 L17.8583691,11.3309871 C17.8583691,11.1887554 17.9736481,11.0734764 18.1158798,11.0734764 C18.2581116,11.0734764 18.3733906,11.1887554 18.3733906,11.3309871 L18.3733906,14.2494421 C18.3733906,14.3916738 18.2581116,14.5069528 18.1158798,14.5069528 Z" id="Path"></path>
                    <path d="M21.5491845,17.1679828 C21.4359657,17.1679828 21.3321888,17.0927039 21.3008584,16.9781974 C21.2634335,16.8409442 21.3443777,16.6993991 21.4815451,16.6619742 L24.3141631,15.8894421 C24.4509013,15.852103 24.5928755,15.9328755 24.6303863,16.0701288 C24.6678112,16.207382 24.586867,16.348927 24.4496996,16.3863519 L21.6170815,17.1588841 C21.5944206,17.1649785 21.5716738,17.1679828 21.5491845,17.1679828 Z" id="Path"></path>
                    <path d="M17.0856652,21.7173391 C17.0469528,21.7173391 17.0076395,21.7084979 16.9706438,21.6901288 C16.8434335,21.6265236 16.7918455,21.4718455 16.8555365,21.3446352 L16.9413734,21.1729614 C17.0051502,21.0458369 17.16,20.9944206 17.286867,21.0577682 C17.4139914,21.1213734 17.4655794,21.2760515 17.4020601,21.4032618 L17.3162232,21.5749356 C17.2709871,21.6650644 17.18,21.7173391 17.0856652,21.7173391 Z" id="Path"></path>
                    <path d="M23.952618,20.9448069 C23.9150215,20.9448069 23.8767382,20.9364807 23.8406009,20.91897 L21.1796567,19.6314163 C21.0516738,19.5694421 20.9981116,19.4154506 21.06,19.2874678 C21.1219742,19.1593991 21.2761373,19.1060086 21.4039485,19.1678112 L24.0648927,20.4553648 C24.1928755,20.5173391 24.2464378,20.6713305 24.1845494,20.7993133 C24.1400858,20.8912446 24.0482403,20.9448069 23.952618,20.9448069 Z" id="Path"></path>
                    <path d="M18.1158798,24.5498712 L17.4291845,24.5498712 C17.3562232,24.5498712 17.2867811,24.51897 17.2379399,24.4648069 C17.1890987,24.4107296 17.1654936,24.3383691 17.1729614,24.2659227 C17.4294421,21.7869528 16.1981116,19.3573391 14.0361373,18.0762232 C14.0321888,18.0739056 14.0283262,18.0714163 14.0245494,18.068927 C13.331588,17.6069528 12.5283262,17.34 11.5690129,17.2527897 C11.4990558,17.2464378 11.4347639,17.2117597 11.3909013,17.156824 C11.3471245,17.1018884 11.3277253,17.0315021 11.3370815,16.9618884 C11.7907296,13.6050644 14.7049785,11.0736481 18.1158798,11.0736481 C21.8550215,11.0736481 24.8969957,14.0771674 24.8969957,17.768927 C24.8969957,21.5078112 21.8549356,24.5498712 18.1158798,24.5498712 Z M17.7087554,24.0348498 L18.1158798,24.0348498 C21.5709871,24.0348498 24.3819742,21.2238627 24.3819742,17.7687554 C24.3819742,14.3609442 21.5709871,11.5884979 18.1158798,11.5884979 C15.0507296,11.5884979 12.419485,13.7977682 11.8884979,16.7695279 C12.8145064,16.8881545 13.6072103,17.1729614 14.3045494,17.6364807 C16.552618,18.9717597 17.8667811,21.4588841 17.7087554,24.0348498 Z" id="Shape" fill-rule="nonzero"></path>
                    <path d="M18.1158798,21.6314163 C17.6550215,21.6314163 17.2903004,21.5401717 16.9375107,21.4520172 C16.8539914,21.4311588 16.7864378,21.3698712 16.7574249,21.2888412 C16.3367382,20.1108155 15.5080687,19.0551931 14.36103,18.2358798 C14.2933047,18.1875536 14.2532189,18.1094421 14.2532189,18.0263519 L14.2532189,17.7688412 C14.2532189,15.7215451 16.0220601,13.9920172 18.1158798,13.9920172 C20.1984549,13.9920172 21.8927039,15.6862661 21.8927039,17.7688412 C21.8927039,19.8986266 20.1984549,21.6314163 18.1158798,21.6314163 Z M17.1942489,20.9851502 C17.4846352,21.0562232 17.7704721,21.1163948 18.1158798,21.1163948 C19.9144206,21.1163948 21.3776824,19.6146781 21.3776824,17.7687554 C21.3776824,15.9702146 19.9144206,14.5069528 18.1158798,14.5069528 C16.3012876,14.5069528 14.7682403,16.0006867 14.7682403,17.7687554 L14.7682403,17.8950215 C15.9040343,18.7339914 16.7391416,19.7978541 17.1942489,20.9851502 Z" id="Shape" fill-rule="nonzero"></path>
                    <path d="M29.9127039,32.9161373 L8.07965665,32.9161373 C7.95751073,32.9161373 7.852103,32.8303004 7.82746781,32.7106438 C7.79227468,32.5401717 7.68549356,32.3919313 7.5344206,32.304206 L7.44017167,32.2501288 C7.38085837,32.2160515 7.33742489,32.1597425 7.31965665,32.0937339 C7.30180258,32.0276395 7.31107296,31.9572532 7.34523605,31.8980258 L8.69785408,29.5548498 C8.75862661,29.4495279 8.88437768,29.4008584 9.00025751,29.4386266 C9.62008584,29.6395708 10.2654936,29.7414592 10.9185408,29.7414592 C13.1506438,29.7414592 15.2299571,28.5425751 16.3448927,26.612618 C17.1806009,25.1654077 17.4026609,23.4788841 16.9700429,21.8639485 C16.5373391,20.248927 15.5018884,18.8991416 14.0543348,18.0635193 C13.1030901,17.5140773 12.0230901,17.2236052 10.931073,17.2236052 C9.2567382,17.2236052 7.62703863,17.9060086 6.45982833,19.0959657 C6.38652361,19.1706438 6.27536481,19.1934764 6.17862661,19.1540773 C6.08180258,19.1145064 6.01854077,19.0202575 6.01854077,18.9157082 L6.01854077,6.29596567 C6.01854077,6.22763948 6.04566524,6.16214592 6.09399142,6.11381974 L10.4118455,1.79613734 C10.4601717,1.74781116 10.5256652,1.72077253 10.5939056,1.72077253 L29.9127039,1.72077253 C30.0549356,1.72077253 30.1702146,1.8360515 30.1702146,1.97828326 L30.1702146,32.6586266 C30.1702146,32.8008584 30.0550215,32.9161373 29.9127039,32.9161373 Z M8.26849785,32.4011159 L29.655279,32.4011159 L29.655279,2.23579399 L10.7006009,2.23579399 L6.53364807,6.40257511 L6.53364807,18.3246352 C7.75021459,17.291588 9.32180258,16.7085837 10.9311588,16.7085837 C12.1134764,16.7085837 13.2825751,17.0229185 14.3119313,17.6175107 C15.8786266,18.5218884 16.9993133,19.9826609 17.4676395,21.7307296 C17.935794,23.4785408 17.6954506,25.3037768 16.7909871,26.8702146 C15.584206,28.95897 13.3340773,30.2564807 10.9186266,30.2564807 C10.2814592,30.2564807 9.65098712,30.166867 9.04145923,29.9899571 L7.91519313,31.9409442 C8.07141631,32.0615451 8.19313305,32.2203433 8.26849785,32.4011159 Z M6.27613734,29.0656652 C6.25390558,29.0656652 6.23141631,29.0628326 6.20909871,29.0567382 C6.09665236,29.0264378 6.01862661,28.9245494 6.01862661,28.8081545 L6.01862661,28.0490129 C6.01862661,27.9439485 6.08240343,27.8495279 6.17974249,27.8102146 C6.27716738,27.7711588 6.38866953,27.7947639 6.46145923,27.8702146 C6.53974249,27.9513305 6.62223176,28.0279828 6.7095279,28.1090987 L6.73467811,28.1323605 C6.82274678,28.2143348 6.84240343,28.3463519 6.78197425,28.4503863 L6.49879828,28.9375107 C6.45184549,29.0182833 6.36618026,29.0656652 6.27613734,29.0656652 Z" id="Shape" fill-rule="nonzero"></path>
                    <path d="M32.4506438,31.1593133 L29.8755365,31.1593133 C29.7333047,31.1593133 29.6180258,31.0440343 29.6180258,30.9018026 L29.6180258,2.23227468 L11.4206009,2.23227468 C11.3164807,2.23227468 11.2225751,2.1695279 11.1827468,2.07330472 C11.1429185,1.97708155 11.1648927,1.86635193 11.2385408,1.79270386 L12.955279,0.0759656652 C13.0036052,0.027639485 13.0690987,0.000515021459 13.1373391,0.000515021459 L32.4506438,0.000515021459 C32.5928755,0.000515021459 32.7081545,0.115793991 32.7081545,0.258025751 L32.7081545,30.9018026 C32.7081545,31.0440343 32.5928755,31.1593133 32.4506438,31.1593133 Z M30.1330472,30.6442918 L32.193133,30.6442918 L32.193133,0.515536481 L13.2440343,0.515536481 L12.0423176,1.71725322 L29.8755365,1.71725322 C30.0177682,1.71725322 30.1330472,1.83253219 30.1330472,1.97476395 L30.1330472,30.6442918 Z" id="Shape" fill-rule="nonzero"></path>
                    <path d="M10.9691845,30.243691 C9.77158798,30.243691 8.57776824,29.9254077 7.51665236,29.323176 C4.31613734,27.4561373 3.23484979,23.3320172 5.10377682,20.1282403 C6.24077253,18.0246352 8.4639485,16.7132189 10.9018026,16.7132189 C12.0925322,16.7132189 13.2666094,17.0309871 14.2971674,17.632103 C15.8573391,18.5422318 16.9777682,19.9993991 17.4521888,21.7351073 C17.9298712,23.4826609 17.6963948,25.32 16.7947639,26.9085837 C15.5760515,28.9979399 13.3988841,30.243691 10.9691845,30.243691 Z M10.9018026,17.2282403 C8.65339056,17.2282403 6.60377682,18.4360515 5.5527897,20.3804292 C4.71107296,21.8236052 4.48051502,23.495794 4.89939914,25.0961373 C5.31845494,26.6973391 6.33922747,28.04 7.77356223,28.8766524 C8.75459227,29.4334764 9.86051502,29.7285837 10.9691845,29.7285837 C13.2136481,29.7285837 15.2245494,28.5784549 16.348412,26.6517597 C18.0756223,23.608412 17.0613734,19.8407725 14.0376824,18.0769099 C13.0857511,17.5217167 12.0013734,17.2282403 10.9018026,17.2282403 Z" id="Shape" fill-rule="nonzero"></path>
                    <path d="M7.5576824,32.2751931 C7.51304721,32.2751931 7.46781116,32.2636052 7.42669528,32.2392275 L5.10909871,30.8658369 C4.98918455,30.7947639 4.94755365,30.6411159 5.01527897,30.5192275 L6.30283262,28.2016309 C6.33896996,28.1365665 6.40145923,28.0903863 6.47424893,28.0748498 C6.54678112,28.0590558 6.62291845,28.0760515 6.68240343,28.1206009 C6.73854077,28.1627468 6.79690987,28.2071245 6.85690987,28.252618 C7.15502146,28.4791416 7.49287554,28.735794 7.75896996,28.8688412 C7.76480687,28.8717597 7.77064378,28.8749356 7.77630901,28.8783691 C8.18781116,29.1252361 8.59545064,29.2882403 9.02703863,29.4609442 C9.09682403,29.4888412 9.15098712,29.5459227 9.17519313,29.6170815 C9.19939914,29.6883262 9.19133047,29.7665236 9.15296137,29.8312446 L7.77957082,32.1488412 C7.73141631,32.2300429 7.64566524,32.2751931 7.5576824,32.2751931 Z M5.58712446,30.5503863 L7.46772532,31.6648069 L8.55690987,29.8267811 C8.2160515,29.6872103 7.86806867,29.5332189 7.51957082,29.3249785 C7.23321888,29.1800858 6.90566524,28.9361373 6.60892704,28.711073 L5.58712446,30.5503863 Z" id="Shape" fill-rule="nonzero"></path>
                    <path d="M3.70643777,39.9975966 C3.70635193,39.9975966 3.70635193,39.9975966 3.70643777,39.9975966 C3.52145923,39.9975966 3.33622318,39.9625751 3.1704721,39.8962232 C3.15648069,39.8907296 3.14309013,39.8838627 3.13030043,39.8759657 L0.658540773,38.3418026 C0.390300429,38.2257511 0.180772532,37.9776824 0.0953648069,37.6733047 C0.013304721,37.3806867 0.0589699571,37.0763948 0.217339056,36.8554506 L3.72128755,30.7876395 C3.86351931,30.4555365 4.20995708,30.2420601 4.60987124,30.2420601 C4.83004292,30.2420601 5.04197425,30.3079828 5.20866953,30.4278112 L7.77064378,31.8795708 C8.0423176,32.0424034 8.23527897,32.2851502 8.31957082,32.5660944 C8.40798283,32.8608584 8.36832618,33.1704721 8.207897,33.4378541 L4.69888412,39.428927 C4.54798283,39.7801717 4.16995708,39.9975966 3.70643777,39.9975966 Z M3.38145923,39.4256652 C3.48188841,39.4630043 3.59381974,39.4825751 3.70643777,39.4825751 C3.70643777,39.4825751 3.70643777,39.4825751 3.70643777,39.4825751 C3.90781116,39.4825751 4.15081545,39.4130472 4.22875536,39.2181974 C4.23356223,39.2062661 4.23922747,39.1947639 4.24566524,39.183691 L7.76497854,33.1751073 C7.87527897,32.9912446 7.85914163,32.8230901 7.82635193,32.7140773 C7.77905579,32.5562232 7.66712446,32.4178541 7.51133047,32.3243777 L4.94171674,30.868412 C4.93218884,30.8630043 4.92291845,30.8569099 4.91416309,30.8503863 C4.83390558,30.7901288 4.72583691,30.7569957 4.60995708,30.7569957 C4.45433476,30.7569957 4.26283262,30.8201717 4.19184549,30.9975107 C4.18729614,31.008927 4.18188841,31.02 4.17570815,31.0306438 L0.65639485,37.1250644 C0.651244635,37.1339914 0.645579399,37.1425751 0.639399142,37.1508155 C0.568412017,37.2454936 0.550386266,37.3887554 0.591244635,37.5343348 C0.635965665,37.6939056 0.74111588,37.8206009 0.872360515,37.873133 C0.886351931,37.8786266 0.899742489,37.8854936 0.912532189,37.8933906 L3.38145923,39.4256652 Z" id="Shape" fill-rule="nonzero"></path>
                    <path d="M3.02446352,38.2360515 C2.82180258,38.2360515 2.62206009,38.180515 2.44686695,38.0753648 C2.4393133,38.0708155 2.43193133,38.0659227 2.4248927,38.0606009 C1.9904721,37.7347639 1.76206009,37.0709871 2.10772532,36.5951931 C2.32669528,36.2381116 2.69381974,36.0169099 3.06875536,36.0169099 C3.2560515,36.0169099 3.43296137,36.0736481 3.58120172,36.1812017 C4.13536481,36.5211159 4.32042918,37.1987124 4.00188841,37.7296137 C3.99733906,37.7371674 3.99244635,37.7445494 3.98712446,37.751588 C3.76300429,38.0503863 3.39416309,38.2360515 3.02446352,38.2360515 Z M2.72343348,37.640515 C2.8167382,37.6939914 2.91802575,37.72103 3.02446352,37.72103 C3.23090129,37.72103 3.43759657,37.6187124 3.56703863,37.453133 C3.66849785,37.2760515 3.65236052,37.112618 3.62034335,37.0058369 C3.57304721,36.8479828 3.46111588,36.7096137 3.30532189,36.6161373 C3.29776824,36.611588 3.29038627,36.6066953 3.28334764,36.6013734 C3.22188841,36.555279 3.14969957,36.5318455 3.0688412,36.5318455 C2.87287554,36.5318455 2.66643777,36.6650644 2.54274678,36.8711588 C2.53819742,36.8787124 2.53330472,36.8860944 2.52798283,36.893133 C2.36532189,37.1099571 2.49639485,37.4626609 2.72343348,37.640515 Z" id="Shape" fill-rule="nonzero"></path>
                    <path d="M8.50188841,27.8975966 C8.45957082,27.8975966 8.41665236,27.8871245 8.37708155,27.8650644 C7.20077253,27.211588 6.35656652,26.1187983 6.00017167,24.7881545 C5.6472103,23.4702146 5.81562232,22.0914163 6.4744206,20.9054936 C6.54351931,20.7812876 6.70025751,20.736309 6.82463519,20.8054936 C6.94892704,20.8745923 6.99373391,21.0313305 6.92472103,21.1556223 C6.33107296,22.2240343 6.17948498,23.466867 6.4976824,24.6549356 C6.8176824,25.8496137 7.57399142,26.8297854 8.6272103,27.4149356 C8.75150215,27.4840343 8.79630901,27.6407725 8.72729614,27.7650644 C8.68025751,27.8496996 8.59244635,27.8975966 8.50188841,27.8975966 Z" id="Path"></path>
                    <path d="M15.7982833,23.7773391 C15.6560515,23.7773391 15.5407725,23.6620601 15.5407725,23.5198283 C15.5407725,21.8038627 14.6616309,20.3167382 13.1890987,19.5417167 C13.0632618,19.4755365 13.0149356,19.3197425 13.0812017,19.1939056 C13.1474678,19.0680687 13.3030901,19.0197425 13.4290129,19.0860086 C15.0738197,19.9516738 16.0558798,21.6092704 16.0558798,23.5199142 C16.055794,23.6620601 15.940515,23.7773391 15.7982833,23.7773391 Z" id="Path"></path>
                    <path d="M26.0987124,34.0777682 L9.53218884,34.0777682 C9.38995708,34.0777682 9.27467811,33.9624893 9.27467811,33.8202575 C9.27467811,33.6780258 9.38995708,33.5627468 9.53218884,33.5627468 L26.0987124,33.5627468 C26.2409442,33.5627468 26.3562232,33.6780258 26.3562232,33.8202575 C26.3562232,33.9624893 26.2409442,34.0777682 26.0987124,34.0777682 Z" id="Path"></path>
                    <path d="M30.7339056,35.1078112 L19.2317597,35.1078112 C19.0895279,35.1078112 18.9742489,34.9925322 18.9742489,34.8503004 C18.9742489,34.7080687 19.0895279,34.5927897 19.2317597,34.5927897 L30.7339056,34.5927897 C30.8761373,34.5927897 30.9914163,34.7080687 30.9914163,34.8503004 C30.9914163,34.9925322 30.8761373,35.1078112 30.7339056,35.1078112 Z" id="Path"></path>
                    <path d="M33.3090129,35.1078112 L31.9356223,35.1078112 C31.7933906,35.1078112 31.6781116,34.9925322 31.6781116,34.8503004 C31.6781116,34.7080687 31.7933906,34.5927897 31.9356223,34.5927897 L33.3090129,34.5927897 C33.4512446,34.5927897 33.5665236,34.7080687 33.5665236,34.8503004 C33.5665236,34.9925322 33.4512446,35.1078112 33.3090129,35.1078112 Z" id="Path"></path>
                    <path d="M14.3390558,35.1078112 L8.84549356,35.1078112 C8.7032618,35.1078112 8.58798283,34.9925322 8.58798283,34.8503004 C8.58798283,34.7080687 8.7032618,34.5927897 8.84549356,34.5927897 L14.3390558,34.5927897 C14.4812876,34.5927897 14.5965665,34.7080687 14.5965665,34.8503004 C14.5965665,34.9925322 14.4812876,35.1078112 14.3390558,35.1078112 Z" id="Path"></path>
                    <path d="M29.8755365,5.57991416 L12.3648069,5.57991416 C12.2225751,5.57991416 12.1072961,5.46463519 12.1072961,5.32240343 C12.1072961,5.18017167 12.2225751,5.0648927 12.3648069,5.0648927 L29.8755365,5.0648927 C30.0177682,5.0648927 30.1330472,5.18017167 30.1330472,5.32240343 C30.1330472,5.46463519 30.0177682,5.57991416 29.8755365,5.57991416 Z" id="Path"></path>
                </g>
            </g>
            <g id="noun_Calendar_2300052" transform="translate(166.000000, 113.000000)" fill="#111D5F">
                <path d="M39.6923077,40 L0.307692308,40 C0.137620185,40 0,39.8622296 0,39.6923077 L0,9.07286658 C0,8.90294471 0.137620185,8.76517428 0.307692308,8.76517428 L39.6923077,8.76517428 C39.8623798,8.76517428 40,8.90294471 40,9.07286658 L40,39.6923077 C40,39.8622296 39.8623798,40 39.6923077,40 Z M0.615384615,39.3846154 L39.3846154,39.3846154 L39.3846154,9.38055889 L0.615384615,9.38055889 L0.615384615,39.3846154 Z" id="Shape" fill-rule="nonzero"></path>
                <path d="M39.6923077,9.38055889 L0.307692308,9.38055889 C0.137620185,9.38055889 0,9.24278846 0,9.07286658 L0,3.10036058 C0,2.93043871 0.137620185,2.79266828 0.307692308,2.79266828 L39.6923077,2.79266828 C39.8623798,2.79266828 40,2.93043871 40,3.10036058 L40,9.07286658 C40,9.24278846 39.8623798,9.38055889 39.6923077,9.38055889 Z M0.615384615,8.76517428 L39.3846154,8.76517428 L39.3846154,3.40805289 L0.615384615,3.40805289 L0.615384615,8.76517428 Z" id="Shape" fill-rule="nonzero"></path>
                <path d="M6.61538462,6.14107572 C5.73527643,6.14107572 5.01923077,5.42503006 5.01923077,4.54492188 L5.01923077,1.59615385 C5.01923077,0.716045662 5.73527643,0 6.61538462,0 C7.4954928,0 8.21153846,0.716045662 8.21153846,1.59615385 L8.21153846,3.10036058 C8.21153846,3.27028246 8.07391828,3.40805289 7.90384615,3.40805289 C7.73377403,3.40805289 7.59615385,3.27028246 7.59615385,3.10036058 L7.59615385,1.59615385 C7.59615385,1.05536357 7.15625,0.615384615 6.61538462,0.615384615 C6.07451923,0.615384615 5.63461538,1.05536357 5.63461538,1.59615385 L5.63461538,4.54492188 C5.63461538,5.08571215 6.07451923,5.52569111 6.61538462,5.52569111 C7.15625,5.52569111 7.59615385,5.08571215 7.59615385,4.54492188 C7.59615385,4.375 7.73377403,4.23722957 7.90384615,4.23722957 C8.07391828,4.23722957 8.21153846,4.375 8.21153846,4.54492188 C8.21153846,5.42503006 7.4954928,6.14107572 6.61538462,6.14107572 Z" id="Path"></path>
                <path d="M15.5384615,6.14107572 C14.6583534,6.14107572 13.9423077,5.42503006 13.9423077,4.54492188 L13.9423077,1.59615385 C13.9423077,0.716045662 14.6583534,0 15.5384615,0 C16.4185697,0 17.1346154,0.716045662 17.1346154,1.59615385 L17.1346154,3.10036058 C17.1346154,3.27028246 16.9969952,3.40805289 16.8269231,3.40805289 C16.656851,3.40805289 16.5192308,3.27028246 16.5192308,3.10036058 L16.5192308,1.59615385 C16.5192308,1.05536357 16.0793269,0.615384615 15.5384615,0.615384615 C14.9975962,0.615384615 14.5576923,1.05536357 14.5576923,1.59615385 L14.5576923,4.54492188 C14.5576923,5.08571215 14.9975962,5.52569111 15.5384615,5.52569111 C16.0793269,5.52569111 16.5192308,5.08571215 16.5192308,4.54492188 C16.5192308,4.375 16.656851,4.23722957 16.8269231,4.23722957 C16.9969952,4.23722957 17.1346154,4.375 17.1346154,4.54492188 C17.1346154,5.42503006 16.4185697,6.14107572 15.5384615,6.14107572 Z" id="Path"></path>
                <path d="M24.4615385,6.14107572 C23.5814303,6.14107572 22.8653846,5.42503006 22.8653846,4.54492188 L22.8653846,1.59615385 C22.8653846,0.716045662 23.5814303,0 24.4615385,0 C25.3416466,0 26.0576923,0.716045662 26.0576923,1.59615385 L26.0576923,3.10036058 C26.0576923,3.27028246 25.9200721,3.40805289 25.75,3.40805289 C25.5799279,3.40805289 25.4423077,3.27028246 25.4423077,3.10036058 L25.4423077,1.59615385 C25.4423077,1.05536357 25.0024038,0.615384615 24.4615385,0.615384615 C23.9206731,0.615384615 23.4807692,1.05536357 23.4807692,1.59615385 L23.4807692,4.54492188 C23.4807692,5.08571215 23.9206731,5.52569111 24.4615385,5.52569111 C25.0024038,5.52569111 25.4423077,5.08571215 25.4423077,4.54492188 C25.4423077,4.375 25.5799279,4.23722957 25.75,4.23722957 C25.9200721,4.23722957 26.0576923,4.375 26.0576923,4.54492188 C26.0576923,5.42503006 25.3416466,6.14107572 24.4615385,6.14107572 Z" id="Path"></path>
                <path d="M33.3846154,6.14107572 C32.5045072,6.14107572 31.7884615,5.42503006 31.7884615,4.54492188 L31.7884615,1.59615385 C31.7884615,0.716045662 32.5045072,0 33.3846154,0 C34.2647236,0 34.9807692,0.716045662 34.9807692,1.59615385 L34.9807692,3.10036058 C34.9807692,3.27028246 34.843149,3.40805289 34.6730769,3.40805289 C34.5030048,3.40805289 34.3653846,3.27028246 34.3653846,3.10036058 L34.3653846,1.59615385 C34.3653846,1.05536357 33.9254808,0.615384615 33.3846154,0.615384615 C32.84375,0.615384615 32.4038462,1.05536357 32.4038462,1.59615385 L32.4038462,4.54492188 C32.4038462,5.08571215 32.84375,5.52569111 33.3846154,5.52569111 C33.9254808,5.52569111 34.3653846,5.08571215 34.3653846,4.54492188 C34.3653846,4.375 34.5030048,4.23722957 34.6730769,4.23722957 C34.843149,4.23722957 34.9807692,4.375 34.9807692,4.54492188 C34.9807692,5.42503006 34.2647236,6.14107572 33.3846154,6.14107572 Z" id="Path"></path>
                <path d="M10.4350962,18.6961388 L3.17187502,18.6961388 C3.00180289,18.6961388 2.86418271,18.5583684 2.86418271,18.3884465 L2.86418271,11.1251502 C2.86418271,10.9552284 3.00180289,10.8174579 3.17187502,10.8174579 L10.4350962,10.8174579 C10.6051683,10.8174579 10.7427885,10.9552284 10.7427885,11.1251502 L10.7427885,18.3884465 C10.7427885,18.5583684 10.6051683,18.6961388 10.4350962,18.6961388 Z M3.47956732,18.0807542 L10.1274039,18.0807542 L10.1274039,11.4328426 L3.47956732,11.4328426 L3.47956732,18.0807542 Z" id="Shape" fill-rule="nonzero"></path>
                <path d="M10.4350962,28.3219651 L3.17187502,28.3219651 C3.00180289,28.3219651 2.86418271,28.1841947 2.86418271,28.0142728 L2.86418271,20.7509766 C2.86418271,20.5810547 3.00180289,20.4432842 3.17187502,20.4432842 L10.4350962,20.4432842 C10.6051683,20.4432842 10.7427885,20.5810547 10.7427885,20.7509766 L10.7427885,28.0142728 C10.7427885,28.1841947 10.6051683,28.3219651 10.4350962,28.3219651 Z M3.47956732,27.7065805 L10.1274039,27.7065805 L10.1274039,21.0586689 L3.47956732,21.0586689 L3.47956732,27.7065805 Z" id="Shape" fill-rule="nonzero"></path>
                <path d="M10.4350962,37.9477163 L3.17187502,37.9477163 C3.00180289,37.9477163 2.86418271,37.8099459 2.86418271,37.640024 L2.86418271,30.3768029 C2.86418271,30.206881 3.00180289,30.0691106 3.17187502,30.0691106 L10.4350962,30.0691106 C10.6051683,30.0691106 10.7427885,30.206881 10.7427885,30.3768029 L10.7427885,37.640024 C10.7427885,37.8099459 10.6051683,37.9477163 10.4350962,37.9477163 Z M3.47956732,37.3323317 L10.1274039,37.3323317 L10.1274039,30.6844952 L3.47956732,30.6844952 L3.47956732,37.3323317 Z" id="Shape" fill-rule="nonzero"></path>
                <path d="M23.6316106,18.6961388 L16.3683894,18.6961388 C16.1983173,18.6961388 16.0606971,18.5583684 16.0606971,18.3884465 L16.0606971,11.1251502 C16.0606971,10.9552284 16.1983173,10.8174579 16.3683894,10.8174579 L23.6316106,10.8174579 C23.8016827,10.8174579 23.9393029,10.9552284 23.9393029,11.1251502 L23.9393029,18.3884465 C23.9393029,18.5583684 23.8016827,18.6961388 23.6316106,18.6961388 Z M16.6760817,18.0807542 L23.3239183,18.0807542 L23.3239183,11.4328426 L16.6760817,11.4328426 L16.6760817,18.0807542 Z" id="Shape" fill-rule="nonzero"></path>
                <path d="M23.6316106,28.3219651 L16.3683894,28.3219651 C16.1983173,28.3219651 16.0606971,28.1841947 16.0606971,28.0142728 L16.0606971,20.7509766 C16.0606971,20.5810547 16.1983173,20.4432842 16.3683894,20.4432842 L23.6316106,20.4432842 C23.8016827,20.4432842 23.9393029,20.5810547 23.9393029,20.7509766 L23.9393029,28.0142728 C23.9393029,28.1841947 23.8016827,28.3219651 23.6316106,28.3219651 Z M16.6760817,27.7065805 L23.3239183,27.7065805 L23.3239183,21.0586689 L16.6760817,21.0586689 L16.6760817,27.7065805 Z" id="Shape" fill-rule="nonzero"></path>
                <path d="M23.6316106,37.9477163 L16.3683894,37.9477163 C16.1983173,37.9477163 16.0606971,37.8099459 16.0606971,37.640024 L16.0606971,30.3768029 C16.0606971,30.206881 16.1983173,30.0691106 16.3683894,30.0691106 L23.6316106,30.0691106 C23.8016827,30.0691106 23.9393029,30.206881 23.9393029,30.3768029 L23.9393029,37.640024 C23.9393029,37.8099459 23.8016827,37.9477163 23.6316106,37.9477163 Z M16.6760817,37.3323317 L23.3239183,37.3323317 L23.3239183,30.6844952 L16.6760817,30.6844952 L16.6760817,37.3323317 Z" id="Shape" fill-rule="nonzero"></path>
                <path d="M36.828125,18.6961388 L29.5649038,18.6961388 C29.3948317,18.6961388 29.2572115,18.5583684 29.2572115,18.3884465 L29.2572115,11.1251502 C29.2572115,10.9552284 29.3948317,10.8174579 29.5649038,10.8174579 L36.828125,10.8174579 C36.9981971,10.8174579 37.1358173,10.9552284 37.1358173,11.1251502 L37.1358173,18.3884465 C37.1358173,18.5583684 36.9981971,18.6961388 36.828125,18.6961388 Z M29.8725962,18.0807542 L36.5204327,18.0807542 L36.5204327,11.4328426 L29.8725962,11.4328426 L29.8725962,18.0807542 Z" id="Shape" fill-rule="nonzero"></path>
                <path d="M36.828125,28.3219651 L29.5649038,28.3219651 C29.3948317,28.3219651 29.2572115,28.1841947 29.2572115,28.0142728 L29.2572115,20.7509766 C29.2572115,20.5810547 29.3948317,20.4432842 29.5649038,20.4432842 L36.828125,20.4432842 C36.9981971,20.4432842 37.1358173,20.5810547 37.1358173,20.7509766 L37.1358173,28.0142728 C37.1358173,28.1841947 36.9981971,28.3219651 36.828125,28.3219651 Z M29.8725962,27.7065805 L36.5204327,27.7065805 L36.5204327,21.0586689 L29.8725962,21.0586689 L29.8725962,27.7065805 Z" id="Shape" fill-rule="nonzero"></path>
                <path d="M36.828125,37.9477163 L29.5649038,37.9477163 C29.3948317,37.9477163 29.2572115,37.8099459 29.2572115,37.640024 L29.2572115,30.3768029 C29.2572115,30.206881 29.3948317,30.0691106 29.5649038,30.0691106 L36.828125,30.0691106 C36.9981971,30.0691106 37.1358173,30.206881 37.1358173,30.3768029 L37.1358173,37.640024 C37.1358173,37.8099459 36.9981971,37.9477163 36.828125,37.9477163 Z M29.8725962,37.3323317 L36.5204327,37.3323317 L36.5204327,30.6844952 L29.8725962,30.6844952 L29.8725962,37.3323317 Z" id="Shape" fill-rule="nonzero"></path>
                <path d="M33.1015625,17.4663462 C31.6072716,17.4663462 30.3918269,16.2508263 30.3918269,14.7567608 C30.3918269,13.2626954 31.6072716,12.0471755 33.1015625,12.0471755 C34.5955529,12.0471755 35.8109976,13.2626954 35.8109976,14.7567608 C35.8109976,16.2508263 34.5955529,17.4663462 33.1015625,17.4663462 Z M33.1015625,12.6625601 C31.9468149,12.6625601 31.0072115,13.6020132 31.0072115,14.7567608 C31.0072115,15.9115084 31.9468149,16.8509615 33.1015625,16.8509615 C34.2563101,16.8509615 35.195613,15.9115084 35.195613,14.7567608 C35.195613,13.6020132 34.2563101,12.6625601 33.1015625,12.6625601 Z" id="Shape" fill-rule="nonzero"></path>
                <path d="M33.5408654,15.8252704 L32.6622596,15.8252704 C32.5522836,15.8252704 32.4507211,15.7666016 32.3957332,15.6714243 L31.9564303,14.910607 C31.9014423,14.8154297 31.9014423,14.6980919 31.9564303,14.6029146 L32.3957332,13.8420973 C32.4507211,13.74692 32.5522837,13.6882512 32.6622596,13.6882512 L33.5408654,13.6882512 C33.6508414,13.6882512 33.7524038,13.74692 33.8073918,13.8420973 L34.2466947,14.6029146 C34.3016827,14.6980919 34.3016827,14.8154297 34.2466947,14.910607 L33.8073918,15.6714243 C33.7524038,15.7666016 33.6508414,15.8252704 33.5408654,15.8252704 Z M32.8398438,15.2098858 L33.3632813,15.2098858 L33.625,14.7567608 L33.3632813,14.3036358 L32.8398438,14.3036358 L32.578125,14.7567608 L32.8398438,15.2098858 Z" id="Shape" fill-rule="nonzero"></path>
                <path d="M32.6616586,14.3046875 C32.5603966,14.3046875 32.461238,14.2548077 32.4026442,14.1633113 L31.578125,12.8801833 C31.4861779,12.7372296 31.5276442,12.546875 31.6703726,12.455003 C31.8137019,12.3635066 32.0042067,12.4044471 32.0955529,12.5475511 L32.9200721,13.8306791 C33.0120192,13.9736328 32.9705529,14.1639874 32.8278245,14.2558594 C32.7761418,14.2889122 32.71875,14.3046875 32.6616586,14.3046875 Z" id="Path"></path>
                <path d="M32.2214543,15.0646785 L30.6983173,15.0646785 C30.5282452,15.0646785 30.390625,14.9269081 30.390625,14.7569862 C30.390625,14.5870643 30.5282452,14.4492939 30.6983173,14.4492939 L32.2214543,14.4492939 C32.3915265,14.4492939 32.5291466,14.5870643 32.5291466,14.7569862 C32.5291466,14.9269081 32.3915264,15.0646785 32.2214543,15.0646785 Z" id="Path"></path>
                <path d="M31.5691106,16.9169922 C31.4903846,16.9169922 31.4116586,16.8869441 31.3515625,16.8268479 C31.2313702,16.7067307 31.2313702,16.511869 31.3515625,16.3917518 L32.4438101,15.2994291 C32.5640024,15.1792368 32.7587139,15.1792368 32.8789062,15.2994291 C32.9990986,15.4195463 32.9990986,15.614408 32.8789062,15.7345252 L31.7866586,16.8268479 C31.7265625,16.8869441 31.6478366,16.9169922 31.5691106,16.9169922 Z" id="Path"></path>
                <path d="M33.5411659,14.3046875 C33.4840745,14.3046875 33.4266827,14.2889123 33.375,14.2558594 C33.2322716,14.1639874 33.1908053,13.9736328 33.2827524,13.8306791 L34.1072716,12.5475511 C34.1989183,12.4044471 34.3888221,12.3634315 34.5324519,12.455003 C34.6751803,12.546875 34.7166466,12.7372296 34.6246995,12.8801833 L33.8001803,14.1633113 C33.7415866,14.2548077 33.6424279,14.3046875 33.5411659,14.3046875 Z" id="Path"></path>
                <path d="M35.5045072,15.0646785 L33.9813702,15.0646785 C33.8112981,15.0646785 33.6736779,14.9269081 33.6736779,14.7569862 C33.6736779,14.5870643 33.8112981,14.4492939 33.9813702,14.4492939 L35.5045072,14.4492939 C35.6745793,14.4492939 35.8121995,14.5870643 35.8121995,14.7569862 C35.8121995,14.9269081 35.6745793,15.0646785 35.5045072,15.0646785 Z" id="Path"></path>
                <path d="M34.6337139,16.9169922 C34.554988,16.9169922 34.476262,16.8869441 34.4161658,16.8268479 L33.3239182,15.7345252 C33.2037259,15.614408 33.2037259,15.4195463 33.3239182,15.2994291 C33.4441106,15.1792368 33.6388221,15.1792368 33.7590144,15.2994291 L34.851262,16.3917518 C34.9714543,16.511869 34.9714543,16.7067307 34.851262,16.8268479 C34.7911659,16.8869441 34.7124399,16.9169922 34.6337139,16.9169922 Z" id="Path"></path>
                <path d="M20,27.0921725 C18.5057091,27.0921725 17.2902644,25.8766526 17.2902644,24.3825871 C17.2902644,22.8885217 18.5057091,21.6730018 20,21.6730018 C21.4939904,21.6730018 22.7094351,22.8885217 22.7094351,24.3825871 C22.7094351,25.8766526 21.4939904,27.0921725 20,27.0921725 Z M20,22.2883864 C18.8452524,22.2883864 17.905649,23.2278396 17.905649,24.3825871 C17.905649,25.5373347 18.8452524,26.4767878 20,26.4767878 C21.1547476,26.4767878 22.0940505,25.5373347 22.0940505,24.3825871 C22.0940505,23.2278396 21.1547476,22.2883864 20,22.2883864 Z" id="Shape" fill-rule="nonzero"></path>
                <path d="M20.4393029,25.4510968 L19.5606971,25.4510968 C19.4507211,25.4510968 19.3491586,25.3924279 19.2941707,25.2972506 L18.8548678,24.5364333 C18.7998798,24.441256 18.7998798,24.3239183 18.8548678,24.228741 L19.2941707,23.4679237 C19.3491586,23.3727464 19.4507212,23.3140775 19.5606971,23.3140775 L20.4393029,23.3140775 C20.5492789,23.3140775 20.6508414,23.3727464 20.7058293,23.4679237 L21.1451322,24.228741 C21.2001202,24.3239183 21.2001202,24.441256 21.1451322,24.5364333 L20.7058293,25.2972506 C20.6508414,25.3924279 20.5492789,25.4510968 20.4393029,25.4510968 Z M19.7382813,24.8357122 L20.2617188,24.8357122 L20.5234375,24.3825871 L20.2617188,23.9294621 L19.7382813,23.9294621 L19.4765625,24.3825871 L19.7382813,24.8357122 Z" id="Shape" fill-rule="nonzero"></path>
                <path d="M19.5600962,23.9304387 C19.4588341,23.9304387 19.3596755,23.8805589 19.3010817,23.7890625 L18.4765625,22.5060096 C18.3846154,22.3630559 18.4260817,22.1727013 18.5688101,22.0808293 C18.7124399,21.9893329 18.9026442,22.0304237 18.9939904,22.1733774 L19.8185096,23.4564303 C19.9104567,23.599384 19.8689904,23.7897386 19.726262,23.8816106 C19.6745793,23.9146635 19.6171875,23.9304387 19.5600962,23.9304387 Z" id="Path"></path>
                <path d="M19.1198918,24.6905048 L17.5967548,24.6905048 C17.4266827,24.6905048 17.2890625,24.5527344 17.2890625,24.3828125 C17.2890625,24.2128906 17.4266827,24.0751202 17.5967548,24.0751202 L19.1198918,24.0751202 C19.2899639,24.0751202 19.4275841,24.2128906 19.4275841,24.3828125 C19.4275841,24.5527344 19.2899639,24.6905048 19.1198918,24.6905048 Z" id="Path"></path>
                <path d="M18.4675481,26.5428185 C18.3888221,26.5428185 18.3100962,26.5127704 18.25,26.4526743 C18.1298077,26.3325571 18.1298077,26.1376953 18.25,26.0175781 L19.3422476,24.9252554 C19.4624399,24.8050631 19.6571514,24.8050631 19.7773438,24.9252554 C19.8975361,25.0453726 19.8975361,25.2402344 19.7773438,25.3603516 L18.6850962,26.4526743 C18.625,26.5127704 18.546274,26.5428185 18.4675481,26.5428185 Z" id="Path"></path>
                <path d="M20.4396034,23.9304387 C20.382512,23.9304387 20.3251202,23.9146635 20.2734375,23.8816106 C20.1307091,23.7897386 20.0892428,23.599384 20.1811899,23.4564303 L21.0057091,22.1733774 C21.0973558,22.0302734 21.2875601,21.9891827 21.4308894,22.0808293 C21.5736178,22.1727013 21.6150841,22.3630559 21.523137,22.5060096 L20.6986178,23.7890625 C20.640024,23.8805589 20.5408654,23.9304387 20.4396034,23.9304387 Z" id="Path"></path>
                <path d="M22.4029447,24.6905048 L20.8798077,24.6905048 C20.7097356,24.6905048 20.5721154,24.5527344 20.5721154,24.3828125 C20.5721154,24.2128906 20.7097356,24.0751202 20.8798077,24.0751202 L22.4029447,24.0751202 C22.5730168,24.0751202 22.710637,24.2128906 22.710637,24.3828125 C22.710637,24.5527344 22.5730168,24.6905048 22.4029447,24.6905048 Z" id="Path"></path>
                <path d="M21.5321514,26.5428185 C21.4534255,26.5428185 21.3746995,26.5127704 21.3146034,26.4526743 L20.2223558,25.3603516 C20.1021634,25.2402344 20.1021634,25.0453726 20.2223558,24.9252554 C20.3425481,24.8050631 20.5372596,24.8050631 20.6574519,24.9252554 L21.7496995,26.0175781 C21.8698918,26.1376953 21.8698918,26.3325571 21.7496995,26.4526743 C21.6896034,26.5127704 21.6108774,26.5428185 21.5321514,26.5428185 Z" id="Path"></path>
                <path d="M33.1965144,36.7179988 C31.7022236,36.7179988 30.4867789,35.502479 30.4867789,34.0084135 C30.4867789,32.514348 31.7022236,31.2988282 33.1965144,31.2988282 C34.6905048,31.2988282 35.9059495,32.514348 35.9059495,34.0084135 C35.9059495,35.502479 34.6905048,36.7179988 33.1965144,36.7179988 Z M33.1965144,31.9142127 C32.0417668,31.9142127 31.1021635,32.8536659 31.1021635,34.0084134 C31.1021635,35.163161 32.0417668,36.1026142 33.1965144,36.1026142 C34.351262,36.1026142 35.2905649,35.163161 35.2905649,34.0084134 C35.2905649,32.8536659 34.351262,31.9142127 33.1965144,31.9142127 Z" id="Shape" fill-rule="nonzero"></path>
                <path d="M33.6358173,35.0769231 L32.7572115,35.0769231 C32.6472356,35.0769231 32.5456731,35.0182542 32.4906851,34.9230769 L32.0513822,34.1622596 C31.9963942,34.0670823 31.9963942,33.9497446 32.0513822,33.8545673 L32.4906851,33.09375 C32.5456731,32.9985727 32.6472356,32.9399038 32.7572115,32.9399038 L33.6358173,32.9399038 C33.7457933,32.9399038 33.8473558,32.9985727 33.9023438,33.09375 L34.3416466,33.8545673 C34.3966346,33.9497446 34.3966346,34.0670823 34.3416466,34.1622596 L33.9023438,34.9230769 C33.8473558,35.0182542 33.7457933,35.0769231 33.6358173,35.0769231 Z M32.9347957,34.4615385 L33.4582332,34.4615385 L33.7199519,34.0084134 L33.4582332,33.5552884 L32.9347957,33.5552884 L32.6730769,34.0084134 L32.9347957,34.4615385 Z" id="Shape" fill-rule="nonzero"></path>
                <path d="M32.7566106,33.556265 C32.6553486,33.556265 32.5561899,33.5063852 32.4975962,33.4148888 L31.6730769,32.1318359 C31.5811298,31.9888822 31.6225962,31.7985276 31.7653245,31.7066556 C31.9089543,31.6150841 32.0988582,31.6560998 32.1905048,31.7992037 L33.015024,33.0822566 C33.1069711,33.2252103 33.0655048,33.4155649 32.9227764,33.5074369 C32.8710938,33.5404898 32.8137019,33.556265 32.7566106,33.556265 Z" id="Path"></path>
                <path d="M32.3164062,34.316256 L30.7932692,34.316256 C30.6231971,34.316256 30.4855769,34.1784856 30.4855769,34.0085637 C30.4855769,33.8386418 30.6231971,33.7008714 30.7932692,33.7008714 L32.3164062,33.7008714 C32.4864784,33.7008714 32.6240986,33.8386418 32.6240986,34.0085637 C32.6240986,34.1784856 32.4864784,34.316256 32.3164062,34.316256 Z" id="Path"></path>
                <path d="M31.6640625,36.1685697 C31.5853365,36.1685697 31.5066106,36.1385216 31.4465144,36.0784255 C31.3263221,35.9583083 31.3263221,35.7634465 31.4465144,35.6433293 L32.538762,34.5510066 C32.6589543,34.4308143 32.8536658,34.4308143 32.9738582,34.5510066 C33.0940505,34.6711238 33.0940505,34.8659856 32.9738582,34.9861028 L31.8816106,36.0784255 C31.8215144,36.1385216 31.7427885,36.1685697 31.6640625,36.1685697 Z" id="Path"></path>
                <path d="M33.6361178,33.556265 C33.5790264,33.556265 33.5216346,33.5404898 33.4699519,33.5074369 C33.3272235,33.4155649 33.2857572,33.2252103 33.3777043,33.0822566 L34.2022235,31.7992037 C34.2938702,31.6560998 34.4840745,31.615009 34.6274038,31.7066556 C34.7701322,31.7985276 34.8115985,31.9888822 34.7196514,32.1318359 L33.8951322,33.4148888 C33.8365385,33.5063852 33.7373798,33.556265 33.6361178,33.556265 Z" id="Path"></path>
                <path d="M35.5994591,34.316256 L34.0763221,34.316256 C33.90625,34.316256 33.7686298,34.1784856 33.7686298,34.0085637 C33.7686298,33.8386418 33.90625,33.7008714 34.0763221,33.7008714 L35.5994591,33.7008714 C35.7695313,33.7008714 35.9071514,33.8386418 35.9071514,34.0085637 C35.9071514,34.1784856 35.7695313,34.316256 35.5994591,34.316256 Z" id="Path"></path>
                <path d="M34.7286659,36.1685697 C34.6499399,36.1685697 34.5712139,36.1385216 34.5111178,36.0784255 L33.4188702,34.9861028 C33.2986779,34.8659856 33.2986779,34.6711238 33.4188702,34.5510066 C33.5390625,34.4308143 33.733774,34.4308143 33.8539663,34.5510066 L34.9462139,35.6433293 C35.0664062,35.7634465 35.0664062,35.9583083 34.9462139,36.0784255 C34.8861178,36.1385216 34.8073918,36.1685697 34.7286659,36.1685697 Z" id="Path"></path>
                <path d="M5.92968751,16.4362981 C5.85096154,16.4362981 5.77223557,16.40625 5.71213942,16.346229 L4.71604566,15.3503606 C4.59585335,15.2301683 4.59585335,15.0353816 4.71604566,14.9151893 C4.83623797,14.794997 5.03094951,14.7950721 5.15114182,14.9151142 L5.92968748,15.6935097 L8.45552883,13.167443 C8.57572114,13.0472506 8.77043268,13.0472506 8.89062498,13.167443 C9.01081729,13.2875602 9.01081729,13.4824219 8.89062498,13.6025391 L6.14723557,16.3461538 C6.08713942,16.40625 6.00841348,16.4362981 5.92968751,16.4362981 Z" id="Path"></path>
            </g>
            <g id="noun_Target-Marketing_995683" transform="translate(68.000000, 210.000000)" fill="#111D5F">
                <g id="Group">
                    <rect id="Rectangle" x="11.880597" y="7.70149254" width="1" height="3.94029851"></rect>
                    <rect id="Rectangle" x="11.880597" y="25.0149254" width="1" height="3.46268657"></rect>
                    <rect id="Rectangle" x="1.97014925" y="17.9701493" width="3.94029851" height="1"></rect>
                    <rect id="Rectangle" x="19.2835821" y="17.9701493" width="3.46268657" height="1"></rect>
                    <path d="M11.2835821,10.5671642 L11.1641791,9.67164179 C7.2238806,10.2089552 4.11940299,13.2537313 3.58208955,17.1940299 L4.47761194,17.3134328 C5.01492537,13.7910448 7.76119403,10.9850746 11.2835821,10.5671642 Z" id="Path"></path>
                    <path d="M20.1791045,19.4029851 C19.7014925,22.9253731 16.9552239,25.7313433 13.3731343,26.2089552 L13.4925373,27.1044776 C17.4328358,26.5671642 20.5373134,23.4626866 21.0746269,19.5223881 L20.1791045,19.4029851 Z" id="Path"></path>
                    <path d="M4.53731343,19.4029851 L3.64179104,19.5223881 C4.11940299,23.4626866 7.28358209,26.5671642 11.2238806,27.1044776 L11.3432836,26.2089552 C7.76119403,25.7313433 4.95522388,22.9253731 4.53731343,19.4029851 Z" id="Path"></path>
                    <path d="M32.8358209,33.9701493 L27.1044776,28.238806 C26.4477612,27.5820896 25.6119403,27.2238806 24.7164179,27.2238806 C24.4776119,27.2238806 24.238806,27.2238806 24,27.2835821 L22.1492537,25.4328358 C25.4925373,20.8358209 25.1940299,14.3880597 21.2537313,10.0895522 L22.6865672,8.65671642 L25.4328358,9.19402985 L30.5074627,4.17910448 L27.2238806,3.52238806 L26.5671642,0.23880597 L21.4925373,5.25373134 L22.0298507,8 L20.5970149,9.43283582 C18.3283582,7.34328358 15.4029851,6.14925373 12.2985075,6.14925373 C9.07462687,6.14925373 6.02985075,7.40298507 3.70149254,9.73134328 C-1.01492537,14.4477612 -1.01492537,22.1492537 3.70149254,26.9253731 C5.97014925,29.1940299 9.01492537,30.5074627 12.2985075,30.5074627 C14.9253731,30.5074627 17.3731343,29.6716418 19.4626866,28.1791045 L21.3134328,30.0298507 C21.0746269,31.1044776 21.3731343,32.2985075 22.2089552,33.1343284 L27.9402985,38.8656716 C28.5970149,39.5223881 29.4328358,39.880597 30.3283582,39.880597 C31.2238806,39.880597 32.119403,39.5223881 32.7761194,38.8656716 C34.1492537,37.4328358 34.1492537,35.2835821 32.8358209,33.9701493 Z M31.4626866,33.8507463 L27.880597,37.4328358 L26.8059701,36.358209 L30.3880597,32.7761194 L31.4626866,33.8507463 Z M25.9701493,2.02985075 L26.3880597,4.23880597 L28.6567164,4.71641791 L25.1343284,8.23880597 L22.9253731,7.82089552 L22.5074627,5.6119403 L25.9701493,2.02985075 Z M4.41791045,26.2686567 C-8.8817842e-16,21.8507463 -8.8817842e-16,14.7462687 4.41791045,10.3283582 C6.56716418,8.17910448 9.37313433,7.04477612 12.358209,7.04477612 C15.2238806,7.04477612 17.9104478,8.11940299 20,10.0895522 L18.2089552,11.880597 C16.8955224,10.7462687 15.2835821,9.91044776 13.4925373,9.67164179 L13.3731343,10.5671642 C14.9850746,10.8059701 16.4179104,11.4626866 17.6119403,12.4776119 L14.0298507,16.0597015 C13.5522388,15.7014925 13.0149254,15.5223881 12.358209,15.5223881 C10.8059701,15.5223881 9.49253731,16.7761194 9.49253731,18.3880597 C9.49253731,19.9402985 10.7462687,21.2537313 12.358209,21.2537313 C13.9104478,21.2537313 15.2238806,20 15.2238806,18.3880597 C15.2238806,17.7910448 15.0447761,17.1940299 14.6865672,16.7164179 L18.2686567,13.1343284 C19.2835821,14.2686567 20,15.7014925 20.1791045,17.3134328 L21.0746269,17.1940299 C20.8358209,15.4029851 20.0597015,13.7910448 18.8656716,12.4776119 L20.6567164,10.6865672 C24.7164179,15.1044776 24.5970149,21.9701493 20.2985075,26.2089552 C18.1492537,28.358209 15.3432836,29.4925373 12.358209,29.4925373 C9.31343284,29.5522388 6.50746269,28.358209 4.41791045,26.2686567 Z M14.2686567,18.3880597 C14.2686567,19.4626866 13.3731343,20.358209 12.2985075,20.358209 C11.2238806,20.358209 10.3283582,19.4626866 10.3283582,18.3880597 C10.3283582,17.3134328 11.2238806,16.4179104 12.2985075,16.4179104 C12.6567164,16.4179104 13.0149254,16.5373134 13.3134328,16.7164179 L12,18.0298507 L12.6567164,18.6865672 L13.9701493,17.3731343 C14.1492537,17.6716418 14.2686567,17.9701493 14.2686567,18.3880597 Z M20.1791045,27.5223881 C20.4179104,27.2835821 20.6567164,27.1044776 20.8955224,26.8656716 C21.1343284,26.6268657 21.3731343,26.3880597 21.5522388,26.1492537 L23.0447761,27.641791 C22.7462687,27.8208955 22.4477612,28 22.2089552,28.238806 C21.9701493,28.4776119 21.7910448,28.7761194 21.6119403,29.0149254 L20.1791045,27.5223881 Z M22.8656716,28.8358209 C23.3432836,28.358209 24,28.119403 24.6567164,28.119403 C25.3134328,28.119403 25.9701493,28.358209 26.4477612,28.8358209 L29.7313433,32.119403 L26.1492537,35.7014925 L22.8656716,32.4179104 C21.9104478,31.4029851 21.9104478,29.8507463 22.8656716,28.8358209 Z M32.1791045,38.1492537 C31.7014925,38.6268657 31.0447761,38.8656716 30.3880597,38.8656716 C29.7313433,38.8656716 29.0746269,38.6268657 28.5970149,38.1492537 L28.4776119,38.0298507 L32.0597015,34.4477612 L32.1791045,34.5671642 C33.1940299,35.5820896 33.1940299,37.1343284 32.1791045,38.1492537 Z" id="Shape" fill-rule="nonzero"></path>
                </g>
            </g>
            <g id="noun_content-creation_2528294" transform="translate(106.000000, 289.000000)" fill="#111D5F">
                <g id="Group">
                    <path d="M17.8214286,23.8892857 C14.525,24.6035714 13.0214286,25.025 9.76428571,25.95 C6.50714286,26.875 3.275,27.9107143 0,28.8321429 C3.13571429,27.525 6.24285714,26.1535714 9.43571429,24.9535714 C12.6285714,23.7535714 14.2607143,23.1464286 17.5428571,22.1964286" id="Path"></path>
                    <path d="M20.3964286,26.5928571 C20.199184,26.5928571 20.0392857,26.4329588 20.0392857,26.2357143 L20.6821429,13.4285714 C20.6472001,12.7498304 21.0952815,12.1404397 21.7535714,11.9714286 C22.3530997,11.869629 22.9361972,12.2243593 23.1214286,12.8035714 C23.1954053,12.9850343 23.1093461,13.1922141 22.9285714,13.2678571 C22.7461234,13.3414245 22.5385368,13.2535994 22.4642857,13.0714286 C22.3428571,12.775 22.1285714,12.6285714 21.8928571,12.6714286 C21.5681368,12.7733167 21.3603991,13.090154 21.3964286,13.4285714 L20.7535714,26.25 C20.7458996,26.4416443 20.5882263,26.5930106 20.3964286,26.5928571 Z" id="Path"></path>
                    <path d="M46.3392857,20.5428571 C46.2706324,20.5433728 46.2022028,20.5349692 46.1357143,20.5178571 C45.9052462,20.4643788 45.7055887,20.3212668 45.5809193,20.1201872 C45.4562499,19.9191075 45.4168468,19.6766379 45.4714286,19.4464286 L46.15,16.8857143 C46.2026081,16.6547419 46.345547,16.4544685 46.5468786,16.3296429 C46.7482102,16.2048173 46.9911546,16.1658431 47.2214286,16.2214286 C47.7074176,16.3666535 47.999872,16.861337 47.8928571,17.3571429 L47.3035714,19.875 C47.1630148,20.2847177 46.7722622,20.55535 46.3392857,20.5428571 Z" id="Path"></path>
                    <path d="M20.1428571,26.9035714 C19.9167617,26.9032422 19.7060142,26.7891432 19.5821429,26.6 L17.3571429,23.175 C17.143901,22.852326 17.2262249,22.4185425 17.5428571,22.1964286 C17.8517246,21.9972018 18.2635201,22.0849877 18.4642857,22.3928571 L20.7142857,25.875 C20.8483015,26.0793564 20.8592904,26.3407941 20.7428961,26.5556759 C20.6265018,26.7705576 20.4015225,26.9041792 20.1571429,26.9035714 L20.1428571,26.9035714 Z" id="Path"></path>
                    <path d="M66.1821429,30.3857143 C58.3653412,30.3857143 52.0285714,24.0489445 52.0285714,16.2321429 C52.0285714,8.4153412 58.3653412,2.07857143 66.1821429,2.07857143 C73.9989445,2.07857143 80.3357143,8.4153412 80.3357143,16.2321429 C80.3258758,24.0448657 73.9948657,30.3758758 66.1821429,30.3857143 Z M66.1821429,2.79285714 C58.7598303,2.79285714 52.7428571,8.80983031 52.7428571,16.2321429 C52.7428571,23.6544554 58.7598303,29.6714286 66.1821429,29.6714286 C73.6044554,29.6714286 79.6214286,23.6544554 79.6214286,16.2321429 C79.6135548,8.81309418 73.6011915,2.80073091 66.1821429,2.79285714 Z" id="Shape" fill-rule="nonzero"></path>
                    <path d="M62.3392857,23.3392857 C62.1934637,23.3421643 62.0526173,23.286244 61.9484827,23.1841248 C61.844348,23.0820057 61.7856859,22.942279 61.7857143,22.7964286 L61.7857143,9.5 C61.7835518,9.30701303 61.8860501,9.12798263 62.0535714,9.03214286 C62.219377,8.93196664 62.4270516,8.93196664 62.5928571,9.03214286 L74.125,15.6892857 C74.2926603,15.7854023 74.3960717,15.9638856 74.3960717,16.1571429 C74.3960717,16.3504001 74.2926603,16.5288834 74.125,16.625 L62.6071429,23.2642857 C62.5264413,23.3134152 62.4337656,23.3393645 62.3392857,23.3392857 Z M62.3392857,9.20714286 C62.2913728,9.20802822 62.2445484,9.22158267 62.2035714,9.24642857 C62.118271,9.29390451 62.066089,9.38453652 62.0678571,9.48214286 L62.0678571,22.7964286 C62.0676244,22.8935168 62.1192664,22.9833358 62.2032894,23.0319807 C62.2873123,23.0806255 62.3909191,23.0806874 62.475,23.0321429 L74.0071429,16.375 C74.0917608,16.3266872 74.1439897,16.2367245 74.1439897,16.1392857 C74.1439897,16.0418469 74.0917608,15.9518843 74.0071429,15.9035714 L62.475,9.24642857 C62.4340231,9.22158267 62.3871986,9.20802822 62.3392857,9.20714286 Z" id="Shape" fill-rule="nonzero"></path>
                    <path d="M108.175,34.3071429 C108.046006,34.3077157 107.917127,34.2993625 107.789286,34.2821429 L89.0464286,32.0214286 C88.849184,31.9977592 88.7084735,31.8186731 88.7321429,31.6214286 C88.7558122,31.424184 88.9348983,31.2834735 89.1321429,31.3071429 L107.875,33.5714286 C108.515079,33.6499945 109.160091,33.4703729 109.66743,33.0722759 C110.174769,32.6741789 110.502646,32.0903979 110.578571,31.45 L110.757143,29.975 L106.196429,29.4214286 C106.068834,29.4061172 105.9591,29.3238978 105.908562,29.2057418 C105.858025,29.0875857 105.874362,28.9514436 105.951419,28.8485989 C106.028477,28.7457542 106.154548,28.6918315 106.282143,28.7071429 L111.196429,29.3 C111.291112,29.3114723 111.377274,29.36034 111.435714,29.4357143 C111.494033,29.5093717 111.520979,29.6030419 111.510714,29.6964286 L111.289286,31.5285714 C111.09675,33.1040226 109.76216,34.2901547 108.175,34.2964286 L108.175,34.3071429 Z" id="Path"></path>
                    <path d="M108.525,34.3678571 L108.478571,34.3678571 L87.8178571,31.8678571 C85.596232,31.5941781 84.0103216,29.5811079 84.2642857,27.3571429 L87.05,4.31071429 C87.3216451,2.08024777 89.3474938,0.490563698 91.5785714,0.757142857 L111.55,3.16785714 C111.660714,3.16785714 111.771429,3.20357143 111.878571,3.225 C111.985714,3.24642857 112.117857,3.225 112.235714,3.25357143 C112.355096,3.26691723 112.459772,3.33938484 112.514286,3.44642857 C113.737989,4.02323936 114.45674,5.31699064 114.3,6.66071429 L114.078571,8.48928571 C114.067998,8.58341512 114.020465,8.66948892 113.946429,8.72857143 C113.871857,8.78780904 113.776714,8.81480898 113.682143,8.80357143 L109.121429,8.25357143 L106.489286,30.0392857 C106.346282,30.8773943 106.451814,31.7390339 106.792857,32.5178571 C107.145755,33.1878812 107.822707,33.6251917 108.578571,33.6714286 C108.672933,33.6830123 108.758782,33.7317406 108.817102,33.8068203 C108.875423,33.8819 108.901402,33.977134 108.889286,34.0714286 C108.859036,34.2474119 108.703458,34.3740093 108.525,34.3678571 Z M89.1392857,31.3107143 L106.55,33.4285714 C106.393791,33.2520536 106.260586,33.056447 106.153571,32.8464286 C105.744065,31.9408024 105.61232,30.9340763 105.775,29.9535714 L108.571429,6.89285714 C108.753571,5.38571429 109.314286,4.29285714 110.164286,3.70714286 L91.5071429,1.45357143 C89.6669556,1.23105907 87.9946532,2.54204183 87.7714286,4.38214286 L84.975,27.4285714 C84.7566617,29.2668793 86.0660821,30.9355918 87.9035714,31.1607143 L89.1321429,31.3107143 L89.1392857,31.3107143 Z M109.2,7.53571429 L113.407143,8.04285714 L113.585714,6.56785714 C113.730262,5.36547633 112.969482,4.23952288 111.8,3.925 C109.939286,3.925 109.421429,5.81071429 109.282143,6.97857143 L109.2,7.53571429 Z" id="Shape" fill-rule="nonzero"></path>
                    <polygon id="Rectangle" transform="translate(98.052968, 6.548383) rotate(-83.110000) translate(-98.052968, -6.548383) " points="97.9190398 -0.648045313 98.186897 -0.648045313 98.186897 13.7448118 97.9190398 13.7448118"></polygon>
                    <polygon id="Rectangle" transform="translate(97.887136, 7.930835) rotate(-83.110000) translate(-97.887136, -7.930835) " points="97.7532074 0.734406404 98.0210645 0.734406404 98.0210645 15.1272635 97.7532074 15.1272635"></polygon>
                    <polygon id="Rectangle" transform="translate(97.717732, 9.316858) rotate(-83.110000) translate(-97.717732, -9.316858) " points="97.5838035 2.12042955 97.8516606 2.12042955 97.8516606 16.5132867 97.5838035 16.5132867"></polygon>
                    <polygon id="Rectangle" transform="translate(97.552328, 10.695764) rotate(-83.110000) translate(-97.552328, -10.695764) " points="97.4183995 3.49933563 97.6862566 3.49933563 97.6862566 17.8921928 97.4183995 17.8921928"></polygon>
                    <polygon id="Rectangle" transform="translate(97.382924, 12.078216) rotate(-83.110000) translate(-97.382924, -12.078216) " points="97.2489956 4.88178735 97.5168527 4.88178735 97.5168527 19.2746445 97.2489956 19.2746445"></polygon>
                    <polygon id="Rectangle" transform="translate(97.220637, 13.464668) rotate(-83.110000) translate(-97.220637, -13.464668) " points="97.0867088 6.26823893 97.3545659 6.26823893 97.3545659 20.6610961 97.0867088 20.6610961"></polygon>
                    <polygon id="Rectangle" transform="translate(97.051233, 14.847119) rotate(-83.110000) translate(-97.051233, -14.847119) " points="96.9173049 7.65069065 97.185162 7.65069065 97.185162 22.0435478 96.9173049 22.0435478"></polygon>
                    <polygon id="Rectangle" transform="translate(96.885829, 16.226025) rotate(-83.110000) translate(-96.885829, -16.226025) " points="96.7519009 9.02959673 97.019758 9.02959673 97.019758 23.4224539 96.7519009 23.4224539"></polygon>
                    <polygon id="Rectangle" transform="translate(96.711636, 17.660852) rotate(-83.110000) translate(-96.711636, -17.660852) " points="96.5777076 10.4644236 96.8455647 10.4644236 96.8455647 24.8572808 96.5777076 24.8572808"></polygon>
                    <polygon id="Rectangle" transform="translate(96.542232, 19.046875) rotate(-83.110000) translate(-96.542232, -19.046875) " points="96.4083037 11.8504468 96.6761608 11.8504468 96.6761608 26.2433039 96.4083037 26.2433039"></polygon>
                    <polygon id="Rectangle" transform="translate(96.373257, 20.425781) rotate(-83.110000) translate(-96.373257, -20.425781) " points="96.2393283 13.2293528 96.5071854 13.2293528 96.5071854 27.62221 96.2393283 27.62221"></polygon>
                    <polygon id="Rectangle" transform="translate(96.207424, 21.808233) rotate(-83.110000) translate(-96.207424, -21.808233) " points="96.0734958 14.6118046 96.3413529 14.6118046 96.3413529 29.0046617 96.0734958 29.0046617"></polygon>
                    <polygon id="Rectangle" transform="translate(96.045138, 23.191113) rotate(-83.110000) translate(-96.045138, -23.191113) " points="95.911209 15.9946847 96.1790661 15.9946847 96.1790661 30.3875419 95.911209 30.3875419"></polygon>
                    <polygon id="Rectangle" transform="translate(95.871373, 24.622395) rotate(-83.110000) translate(-95.871373, -24.622395) " points="95.7374441 17.425966 96.0053013 17.425966 96.0053013 31.8188231 95.7374441 31.8188231"></polygon>
                    <polygon id="Rectangle" transform="translate(95.701969, 26.008418) rotate(-83.110000) translate(-95.701969, -26.008418) " points="95.5680403 18.8119891 95.8358974 18.8119891 95.8358974 33.2048462 95.5680403 33.2048462"></polygon>
                    <polygon id="Rectangle" transform="translate(95.536136, 27.390869) rotate(-83.110000) translate(-95.536136, -27.390869) " points="95.4022078 20.1944408 95.6700649 20.1944408 95.6700649 34.587298 95.4022078 34.587298"></polygon>
                    <polygon id="Rectangle" transform="translate(95.366732, 28.773321) rotate(-83.110000) translate(-95.366732, -28.773321) " points="95.2328039 21.5768925 95.5006611 21.5768925 95.5006611 35.9697497 95.2328039 35.9697497"></polygon>
                    <path d="M146.189286,35.1178571 C146.127498,35.1232323 146.06536,35.1232323 146.003571,35.1178571 L117.075,29.0821429 C116.840564,29.0324208 116.635484,28.8916027 116.504877,28.6906692 C116.37427,28.4897357 116.328837,28.2451473 116.378571,28.0107143 L120.571429,7.85 C120.621151,7.61556424 120.761969,7.4104838 120.962902,7.27987701 C121.163836,7.14927023 121.408424,7.10383651 121.642857,7.15357143 L150.571429,13.1928571 C150.806835,13.2408202 151.013137,13.3812664 151.144066,13.5826961 C151.274996,13.7841258 151.319594,14.0296802 151.267857,14.2642857 L147.064286,34.4178571 C146.979416,34.8336306 146.613633,35.1322295 146.189286,35.1321429 L146.189286,35.1178571 Z M117.067857,28.1464286 C117.048014,28.2458704 117.111604,28.3428456 117.210714,28.3642857 L146.139286,34.4 C146.186052,34.4097895 146.234792,34.4008111 146.275,34.375 C146.315192,34.3471026 146.343278,34.3049726 146.353571,34.2571429 L150.567857,14.1071429 C150.578386,14.0592571 150.569166,14.0091486 150.54228,13.9681478 C150.515394,13.927147 150.473114,13.8987168 150.425,13.8892857 L121.496429,7.85357143 C121.448543,7.84304216 121.398434,7.85226289 121.357434,7.87914866 C121.316433,7.90603443 121.288003,7.94831449 121.278571,7.99642857 L117.067857,28.1464286 Z" id="Shape" fill-rule="nonzero"></path>
                    <path d="M143.742857,19.1428571 C143.638235,19.1433282 143.533929,19.131339 143.432143,19.1071429 C142.608458,18.9338196 142.080959,18.1259181 142.253575,17.3020847 C142.426191,16.4782513 143.233639,15.9500587 144.057621,16.1219677 C144.881602,16.2938767 145.410487,17.1008715 145.239286,17.925 C145.0908,18.6334815 144.46673,19.1413764 143.742857,19.1428571 Z M143.742857,16.3535714 C143.079795,16.3524836 142.529211,16.8651963 142.483124,17.5266553 C142.437036,18.1881142 142.911198,18.7722269 143.568004,18.8631018 C144.22481,18.9539767 144.839757,18.5205521 144.975,17.8714286 C145.043627,17.5446048 144.979395,17.2039058 144.796478,16.924505 C144.613561,16.6451043 144.326992,16.4499647 144,16.3821429 C143.915121,16.3674206 143.828956,16.361437 143.742857,16.3642857 L143.742857,16.3535714 Z" id="Shape" fill-rule="nonzero"></path>
                    <path d="M143.042857,30.1714286 C143.003747,30.1766795 142.96411,30.1766795 142.925,30.1714286 L132.403571,27.9642857 L132.382143,27.9642857 L122.025,25.8214286 C121.833627,25.7836853 121.676242,25.6480089 121.610714,25.4642857 C121.548667,25.2730176 121.596681,25.0631264 121.735714,24.9178571 L129.935714,16.1785714 C130.085022,16.0197769 130.300931,15.9414242 130.51733,15.9675048 C130.733728,15.9935854 130.924839,16.1209925 131.032143,16.3107143 L135.825,24.8107143 L138.682143,22.4178571 C138.838366,22.2877327 139.044278,22.2336447 139.244283,22.2701972 C139.444288,22.3067498 139.617758,22.4301735 139.717857,22.6071429 L143.517857,29.3464286 C143.613956,29.5172314 143.612581,29.7261152 143.514243,29.8956386 C143.415905,30.065162 143.235262,30.1700545 143.039286,30.1714286 L143.042857,30.1714286 Z M132.717857,27.7535714 L142.982143,29.8964286 C143.091098,29.921949 143.204547,29.8779873 143.267857,29.7857143 C143.335155,29.6965962 143.343557,29.5761711 143.289286,29.4785714 L139.489286,22.7392857 C139.427074,22.6319029 139.321699,22.556449 139.2,22.5321429 C139.072979,22.5054391 138.940785,22.5398095 138.842857,22.625 L132.717857,27.7535714 Z M130.435714,16.2321429 C130.321263,16.2320002 130.211677,16.2784134 130.132143,16.3607143 L121.935714,25.0607143 C121.864016,25.1357759 121.839325,25.2441445 121.871429,25.3428571 C121.900152,25.4414409 121.981407,25.5158098 122.082143,25.5357143 L132.385714,27.6785714 L135.6,24.9785714 L130.8,16.4428571 C130.734906,16.3270422 130.617813,16.2498668 130.485714,16.2357143 L130.435714,16.2321429 Z" id="Shape" fill-rule="nonzero"></path>
                    <path d="M47.4428571,19.2892857 L46.85,16.2178571 C51.2107143,15.6535714 51.2107143,15.6535714 52.4035714,15.5678571 L52.3142857,18.7607143 L47.4428571,19.2892857" id="Path"></path>
                    <path d="M79.9321429,14.1892857 L79.9321429,17.7357143 C82.375,17.7357143 83.35,17.7571429 85.7857143,17.8214286 L86.225,14.3464286 C83.6392857,14.2607143 82.5,14.2107143 79.9321429,14.1892857 Z" id="Path"></path>
                    <path d="M119.014286,17.6607143 L118.439286,20.4 C111.842857,19.4535714 113.960714,19.775 107.45,19.0428571 L107.807143,16.0035714 C112.885714,16.6428571 114.082143,16.8321429 119.014286,17.6607143 Z" id="Path"></path>
                    <path d="M148.464286,25.9464286 L148.707143,24.7821429 C155.4,26.9857143 153.660714,26.3678571 159.957143,28.9107143 C153.4,27.1214286 155.325,27.6107143 148.464286,25.9464286 Z" id="Path"></path>
                </g>
            </g>
            <g id="noun_statical-report_2760829" transform="translate(112.000000, 400.000000)" fill="#111D5F">
                <g id="Group">
                    <path d="M27.2242455,28.3279771 C27.2237948,28.3287283 27.2233817,28.3295546 27.222931,28.3303058 C27.2239074,28.3285781 27.2242831,28.3278269 27.2242455,28.3279771 Z" id="Path"></path>
                    <path d="M27.155811,28.4463665 C27.1599426,28.439155 27.1640742,28.4321688 27.1680932,28.4251826 C27.1668913,28.4272109 27.1653889,28.4298401 27.1642245,28.4317932 C27.1615577,28.4364506 27.1587031,28.4414086 27.155811,28.4463665 Z" id="Path"></path>
                    <path d="M36.358936,9.97836892 L35.0661551,9.23497951 L34.7633831,9.05979865 C34.1872864,8.72701618 33.3687017,8.93570006 33.0220971,9.51923434 L27.0671692,19.8251226 L27.0671692,7.32842843 C27.0671692,6.49008708 26.3853783,5.80829625 25.547037,5.80829625 L19.0023405,5.80829625 L16.9749216,4.87320006 L16.9749216,3.46364474 C16.9749216,1.65054375 15.4676725,0.192986708 13.6344769,0.295075015 C11.9499817,0.389125477 10.6302702,1.82963028 10.6302702,3.57452215 L10.6302702,4.87350049 L8.6134808,5.80829618 L2.07017458,5.80829618 C1.23183323,5.80829618 0.5500424,6.49008708 0.5500424,7.32842837 L0.5500424,38.1899067 C0.5500424,39.0282504 1.23183329,39.7100413 2.07017458,39.7100413 L25.5470375,39.7100413 C26.3853789,39.7100413 27.0671697,39.0282504 27.0671697,38.1899067 L27.0671697,28.599762 C27.0726911,28.5901466 27.0876775,28.5643052 27.1139321,28.5188575 C27.0918467,28.5570937 27.0736301,28.5886442 27.0671697,28.599762 C27.0951895,28.5513094 27.1181763,28.5115709 27.1378578,28.4774663 C27.1402241,28.4734098 27.1428909,28.4687523 27.1453698,28.4644705 C27.1433791,28.467926 27.141426,28.4713064 27.1394353,28.4747619 C27.1453698,28.4644705 27.1505906,28.4553809 27.1558115,28.4463665 C27.1535954,28.4501976 27.1514545,28.4540287 27.1492009,28.4578599 C27.154234,28.449221 27.1586661,28.4414086 27.164225,28.4317932 C27.1684317,28.4245816 27.172676,28.4172199 27.1763569,28.4108346 C27.1736526,28.4154921 27.1708732,28.4203749 27.1680937,28.4251826 C27.1839817,28.3976886 27.2025739,28.3655372 27.2229314,28.3303058 C27.2224807,28.3311321 27.2221051,28.331733 27.221429,28.332935 C27.2232319,28.3297799 27.224171,28.3281273 27.224171,28.3281273 C27.7494865,27.419173 29.8167566,23.8422499 36.8231794,11.7193545 C37.1570505,11.142206 36.9763865,10.3410492 36.358936,9.97836892 Z M25.547037,6.4236808 C26.0458351,6.4236808 26.4517846,6.82963034 26.4517846,7.32842837 L26.4517846,20.888825 L24.6425898,24.0204356 L24.6425898,8.54056782 C24.6425898,8.37049569 24.5049697,8.23287551 24.3348975,8.23287551 L20.2240201,8.23287551 L20.2240201,7.35306782 C20.2240201,7.06670966 20.1169363,6.69666757 19.9088158,6.4236808 L25.547037,6.4236808 Z M22.0118807,28.6057716 L21.2612798,33.6087764 C21.24265,33.7331754 21.3015442,33.8563726 21.4100177,33.919774 C21.7768672,34.1362703 22.0814796,33.5087914 24.0272052,32.1362703 L24.0272058,36.6700744 L3.59030677,36.6700744 L3.59030677,8.84826012 L7.39319138,8.84826012 L7.39319138,9.51923428 C7.39319138,9.6893064 7.53081157,9.82692658 7.70088369,9.82692658 L19.9163284,9.82692658 C20.0864006,9.82692658 20.2240207,9.6893064 20.2240207,9.51923428 L20.2240207,8.84826012 L24.0272058,8.84826012 L24.0272058,25.0856394 L24.0203699,25.0975084 C22.1754925,28.3022109 22.0234492,28.5292992 22.0118807,28.6057716 Z M22.5539481,29.1415288 L25.0329144,30.5781274 C24.7067801,30.8308317 21.8274231,33.0620517 21.9839361,32.9408077 L22.5539481,29.1415288 Z M8.00857545,7.35306782 C8.00857545,6.99399329 8.20989754,6.67608462 8.53261391,6.52404135 L11.0671692,5.34916154 C11.1759432,5.29898123 11.2456548,5.18990671 11.2456548,5.07001489 L11.2456548,3.57452215 C11.2456548,2.15595243 12.3099577,0.985279385 13.6669288,0.909558215 C15.1112272,0.831733723 16.359537,1.96679982 16.359537,3.46364474 L16.359537,5.07001495 C16.359537,5.18990677 16.4292486,5.29898129 16.538323,5.34946209 L18.7972247,6.39145428 C18.7997413,6.39273132 18.8013939,6.39483471 18.803948,6.39603662 L19.0833951,6.52344049 C19.4073134,6.67608474 19.6086355,6.99399335 19.6086355,7.35306788 C19.6086355,7.45493083 19.6086355,9.2992824 19.6086355,9.21154142 L8.00857545,9.21154142 C8.00857545,9.10434486 8.00857545,7.28831422 8.00857545,7.35306782 Z M26.4517846,38.1899062 C26.4517846,38.6887043 26.045835,39.0946562 25.547037,39.0946562 L2.07017458,39.0946562 C1.57137649,39.0946562 1.16542702,38.6887043 1.16542702,38.1899062 L1.16542702,7.32842843 C1.16542702,6.82963034 1.57137655,6.42368086 2.07017458,6.42368086 L7.70809526,6.42368086 C7.5011016,6.69539058 7.39319138,7.06580825 7.39319138,7.35306788 L7.39319138,8.23287557 L3.28261446,8.23287557 C3.11254234,8.23287557 2.97492215,8.37049575 2.97492215,8.54056788 L2.97492215,36.9777668 C2.97492215,37.1478389 3.11254234,37.2854591 3.28261446,37.2854591 L24.3348981,37.2854591 C24.5049702,37.2854591 24.6425904,37.1478389 24.6425904,36.9777668 L24.6425904,31.6594074 L25.760792,30.7929711 C25.7991784,30.7670546 25.8332079,30.7352788 25.8568332,30.6944134 L26.4517851,29.6647409 L26.4517851,38.1899062 L26.4517846,38.1899062 Z M25.4779264,30.1201946 L22.7429505,28.5390649 L32.6510409,11.3913798 L33.7150433,12.0068395 L30.4175298,17.7785492 C30.3330947,17.9260853 30.3844769,18.1141863 30.532013,18.1983209 C30.6768071,18.281554 30.866373,18.233402 30.9517846,18.0838377 L34.2476455,12.3149825 L35.3856037,12.9732607 C34.0969168,15.2035793 27.9365727,25.8650865 25.4779264,30.1201946 Z M36.2898254,11.4083569 L35.7730361,12.3027378 L33.0332148,10.7373833 L33.5578543,9.82963083 C33.967372,9.12049563 34.7585754,9.79192049 34.8201364,9.80348898 L36.0485394,10.514126 C36.369265,10.6995978 36.4509958,11.1312385 36.2898254,11.4083569 Z" id="Shape" fill-rule="nonzero"></path>
                    <path d="M27.1139315,28.5188575 C27.122082,28.504735 27.1306833,28.4898612 27.1394348,28.474762 C27.1389465,28.4755883 27.1383456,28.47664 27.1378573,28.4774663 C27.128918,28.492941 27.1210679,28.5066129 27.1139315,28.5188575 Z" id="Path"></path>
                    <path d="M5.67023471,16.9570348 L6.75346788,17.0877439 C6.78321545,17.1673713 6.81446548,17.242191 6.84691742,17.312804 L6.1765448,18.1875035 C6.08279477,18.3100997 6.09421305,18.4831766 6.20328757,18.5922511 L7.41572745,19.8043894 C7.52510246,19.9140649 7.69847988,19.9242812 7.82047502,19.8311321 L8.69817877,19.1583557 C8.76698886,19.1890047 8.83730135,19.2175504 8.90941674,19.2442932 L9.0509432,20.3461561 C9.07077495,20.4994013 9.20148406,20.6144855 9.35623169,20.6144855 L11.0854985,20.6144855 C11.2402461,20.6144855 11.3709553,20.4994014 11.390787,20.3461561 L11.5323135,19.2442932 C11.6044289,19.2175504 11.6747414,19.1890047 11.7435514,19.1583557 L12.6212558,19.8311321 C12.7438519,19.9242812 12.9166284,19.9137643 13.0254024,19.8049903 L14.2441524,18.592852 C14.3541284,18.483477 14.3655466,18.3094986 14.2705948,18.186602 L13.5954145,17.312203 C13.6278664,17.2412895 13.6588159,17.1667703 13.6885635,17.0877438 L14.7717967,16.9570347 C14.9262438,16.9381044 15.0425298,16.8070948 15.0425298,16.6514458 L15.0425298,14.922179 C15.0425298,14.7671309 14.9271452,14.6361212 14.7732991,14.6168905 L13.6867606,14.4804722 C13.6579145,14.4056525 13.6275659,14.3335371 13.595114,14.263525 L14.2696933,13.4011452 C14.3652462,13.2788495 14.3547294,13.1045707 14.2453543,12.9945948 L13.0266043,11.7698351 C12.9172293,11.6598592 12.7438519,11.6490418 12.6212558,11.7424914 L11.7447534,12.4146669 C11.6714361,12.3813135 11.6008231,12.3518664 11.5317125,12.326626 L11.390787,11.2337775 C11.3709553,11.0802318 11.2402462,10.9654481 11.0854985,10.9654481 L9.35623169,10.9654481 C9.20148412,10.9654481 9.07077495,11.0802318 9.0509432,11.2337775 L8.91001772,12.326626 C8.84090714,12.3518664 8.77029415,12.3813135 8.69697686,12.4146669 L7.82047502,11.7424914 C7.69787883,11.6490418 7.5236,11.6601596 7.41452548,11.7704361 L6.2020856,12.9951958 C6.09361206,13.1048713 6.0830952,13.2782486 6.17774665,13.4002438 L6.84721778,14.2629241 C6.81476585,14.3329361 6.7841168,14.405352 6.75527065,14.4804722 L5.66873218,14.6168905 C5.51488603,14.6361212 5.39950142,14.7671308 5.39950142,14.922179 L5.39950142,16.6514458 C5.39950148,16.8070949 5.51578757,16.9381045 5.67023471,16.9570348 Z M6.01488609,15.1938136 L7.01939329,15.0676117 C7.13688129,15.0528881 7.23543895,14.9720588 7.27269858,14.859679 C7.3330952,14.6784891 7.40070338,14.5192343 7.47972985,14.3725997 C7.53742215,14.2653281 7.52630437,14.1343185 7.45178511,14.0381646 L6.82948942,13.2361814 L7.66122018,12.3960372 L8.47371957,13.0189338 C8.56807052,13.0916502 8.69667631,13.1024674 8.80214505,13.0480804 C8.97942868,12.9564338 9.12846714,12.8954362 9.27209698,12.8557727 C9.39138788,12.8227199 9.47942874,12.7214578 9.49535422,12.5985612 L9.62666431,11.5808328 L10.8150657,11.5808328 L10.9463758,12.5985612 C10.9623013,12.7214578 11.0503422,12.8227198 11.169633,12.8557727 C11.3132628,12.8954362 11.4623013,12.9564338 11.639585,13.0480804 C11.7453542,13.1024674 11.873359,13.0913497 11.9680105,13.0189338 L12.7811114,12.3954362 L13.6173494,13.2358809 L12.990847,14.0372631 C12.9157268,14.133417 12.904609,14.2647271 12.9620009,14.3722992 C13.0416282,14.5204362 13.1092364,14.6799915 13.1693326,14.859679 C13.2065922,14.9720588 13.3051499,15.0528881 13.4226379,15.0676117 L14.4271451,15.1938136 L14.4271451,16.3786093 L13.4241403,16.499703 C13.3051499,16.5141261 13.2050898,16.5964578 13.1684312,16.7106405 C13.1065322,16.9023472 13.0395249,17.061602 12.9644047,17.1974193 C12.904609,17.3049914 12.9148254,17.4375034 12.9899456,17.5348592 L13.6176499,18.3479602 L12.7820129,19.1790888 L11.9680105,18.5549914 C11.873359,18.4822751 11.7453542,18.4720588 11.639585,18.5258448 C11.4872412,18.6045708 11.335198,18.6664698 11.1606186,18.7205564 C11.0455345,18.7563136 10.9617004,18.8557727 10.9463759,18.9750636 L10.8147653,19.9991009 L9.6269648,19.9991009 L9.49535422,18.9750636 C9.48002972,18.8557727 9.39619557,18.7563135 9.28111145,18.7205564 C9.10653212,18.6664698 8.95448886,18.6045708 8.80214511,18.5258448 C8.69667637,18.4720588 8.56807058,18.4822751 8.47371963,18.5549914 L7.66001828,19.1784879 L6.82918892,18.3476598 L7.45298702,17.5339578 C7.52750628,17.4366021 7.53712166,17.30409 7.47762646,17.1971189 C7.40250628,17.0625035 7.3361,16.9035492 7.2736,16.7106406 C7.23694135,16.5964578 7.13688123,16.5141262 7.01789089,16.4997031 L6.01488609,16.3786094 L6.01488609,15.1938136 Z" id="Shape" fill-rule="nonzero"></path>
                    <path d="M10.2240201,17.9930925 C11.4388639,17.9930925 12.4271451,17.0018065 12.4271451,15.7836574 C12.4271451,14.5691142 11.4388639,13.5808329 10.2240201,13.5808329 C9.00587108,13.5808329 8.01488548,14.5691142 8.01488548,15.7836574 C8.01488554,17.0018064 9.00587114,17.9930925 10.2240201,17.9930925 Z M10.2240201,14.1962175 C11.0996211,14.1962175 11.8117605,14.9083569 11.8117605,15.7836574 C11.8117605,16.6625636 11.099621,17.3777078 10.2240201,17.3777078 C9.34511385,17.3777078 8.63027009,16.6625636 8.63027009,15.7836574 C8.63027015,14.9083569 9.34511391,14.1962175 10.2240201,14.1962175 Z" id="Shape" fill-rule="nonzero"></path>
                    <path d="M13.8096572,22.3344374 L8.96801052,22.3344374 C8.7979384,22.3344374 8.66031822,22.4720576 8.66031822,22.6421297 C8.66031822,22.8122018 8.7979384,22.949822 8.96801052,22.949822 L13.8096572,22.949822 C13.9797293,22.949822 14.1173495,22.8122018 14.1173495,22.6421297 C14.1173495,22.4720576 13.9797293,22.3344374 13.8096572,22.3344374 Z" id="Path"></path>
                    <path d="M8.96801052,24.3584759 L12.4412678,24.3584759 C12.6113399,24.3584759 12.7489601,24.2208557 12.7489601,24.0507836 C12.7489601,23.8807114 12.6113399,23.7430913 12.4412678,23.7430913 L8.96801052,23.7430913 C8.7979384,23.7430913 8.66031822,23.8807114 8.66031822,24.0507836 C8.66031822,24.2208557 8.7979384,24.3584759 8.96801052,24.3584759 Z" id="Path"></path>
                    <path d="M14.1173495,26.7274663 C14.1173495,26.5573942 13.9797293,26.419774 13.8096572,26.419774 L8.96801052,26.419774 C8.7979384,26.419774 8.66031822,26.5573942 8.66031822,26.7274663 C8.66031822,26.8975384 8.7979384,27.0351586 8.96801052,27.0351586 L13.8096572,27.0351586 C13.9797293,27.0351586 14.1173495,26.8975384 14.1173495,26.7274663 Z" id="Path"></path>
                    <path d="M8.96801052,27.8287283 C8.7979384,27.8287283 8.66031822,27.9663485 8.66031822,28.1364206 C8.66031822,28.3064927 8.7979384,28.4441129 8.96801052,28.4441129 L12.4412678,28.4441129 C12.6113399,28.4441129 12.7489601,28.3064927 12.7489601,28.1364206 C12.7489601,27.9663485 12.6113399,27.8287283 12.4412678,27.8287283 L8.96801052,27.8287283 Z" id="Path"></path>
                    <path d="M17.1443927,7.56009908 L10.4749216,7.56009908 C10.3048495,7.56009908 10.1672293,7.69771926 10.1672293,7.86779138 C10.1672293,8.03786351 10.3048495,8.17548369 10.4749216,8.17548369 L17.1443927,8.17548369 C17.3144649,8.17548369 17.452085,8.03786351 17.452085,7.86779138 C17.452085,7.69771926 17.3144649,7.56009908 17.1443927,7.56009908 Z" id="Path"></path>
                    <path d="M11.3973975,6.77464234 L16.2219168,6.77464234 C16.3919889,6.77464234 16.5296091,6.63702215 16.5296091,6.46695003 C16.5296091,6.29687791 16.3919889,6.15925772 16.2219168,6.15925772 L11.3973975,6.15925772 C11.2273254,6.15925772 11.0897052,6.29687791 11.0897052,6.46695003 C11.0897052,6.63702215 11.2273254,6.77464234 11.3973975,6.77464234 Z" id="Path"></path>
                    <path d="M8.20088314,33.1036682 C7.40761452,33.2415889 6.63177317,33.3269254 5.89469385,33.357274 C5.72972991,33.3638846 5.59962172,33.4997018 5.59962172,33.6646658 L5.59962172,34.552887 C5.59962172,34.7229591 5.73724191,34.8605793 5.90731403,34.8605793 L8.25346726,34.8605793 C8.42353938,34.8605793 8.56115957,34.7229591 8.56115957,34.552887 L8.56115957,33.4068533 C8.56115957,33.3161081 8.52089514,33.2298701 8.45148406,33.1712764 C8.38237354,33.1132836 8.29072689,33.0886442 8.20088314,33.1036682 Z M7.94577557,34.2451946 L6.21500634,34.2451946 L6.21500634,33.9573341 C6.77570345,33.9239807 7.35533083,33.8608798 7.94577557,33.7692331 L7.94577557,34.2451946 Z" id="Shape" fill-rule="nonzero"></path>
                    <path d="M11.8790682,32.1748822 C10.665201,32.5920997 9.72927858,32.7868113 9.56146006,32.8305312 C9.4229384,32.8635841 9.32528215,32.9873822 9.32528215,33.12981 L9.32528215,34.552887 C9.32528215,34.7229591 9.46290234,34.8605793 9.63297446,34.8605793 L11.9791283,34.8605793 C12.1492004,34.8605793 12.2868206,34.7229591 12.2868206,34.552887 L12.2868206,32.4657475 C12.2868206,32.3662884 12.2387437,32.2731393 12.1579143,32.2151465 C12.077085,32.1577548 11.9743206,32.1421297 11.8790682,32.1748822 Z M11.671436,34.2451946 L9.94066677,34.2451946 L9.94066677,33.372899 C10.0030916,33.356673 10.7398329,33.1922349 11.671436,32.8924302 L11.671436,34.2451946 Z" id="Shape" fill-rule="nonzero"></path>
                    <path d="M15.5563519,30.5399663 C14.9702266,30.8635841 14.5295715,31.1101286 13.2390442,31.653548 C13.125162,31.7016249 13.0509432,31.8134038 13.0509432,31.9372018 L13.0509432,34.552887 C13.0509432,34.7229591 13.1885634,34.8605793 13.3586355,34.8605793 L15.7050898,34.8605793 C15.875162,34.8605793 16.0127822,34.7229591 16.0127822,34.552887 L16.0127822,30.809197 C16.0127822,30.700423 15.9550898,30.5994615 15.8613398,30.544173 C15.7681908,30.4888846 15.6519047,30.4867812 15.5563519,30.5399663 Z M15.3973975,34.2451946 L13.6663278,34.2451946 L13.6663278,32.1409278 C14.0661926,31.969804 14.8404188,31.626655 15.3973975,31.3278268 L15.3973975,34.2451946 Z" id="Shape" fill-rule="nonzero"></path>
                    <path d="M19.5575538,27.9182716 C19.4478783,27.8686922 19.3183711,27.8876225 19.2276259,27.9675504 C18.7775057,28.3632836 18.351424,28.7025263 17.9100177,29.0159278 C17.5713759,29.2881634 17.2180105,29.5243413 16.9169288,29.7196538 C16.8294889,29.7761442 16.7766043,29.8734999 16.7766043,29.9777668 L16.7766043,34.552887 C16.7766043,34.7229591 16.9142245,34.8605793 17.0842966,34.8605793 L19.430751,34.8605793 C19.6008231,34.8605793 19.7384433,34.7229591 19.7384433,34.552887 L19.7384433,28.1986201 C19.7384432,28.0778269 19.6678303,27.9681514 19.5575538,27.9182716 Z M19.1230586,34.2451946 L17.3919889,34.2451946 L17.3919889,30.1445336 C17.6729385,29.9597379 17.985739,29.7445937 18.280811,29.5069134 C18.5599577,29.3088966 18.8388038,29.0961562 19.1230586,28.8635841 L19.1230586,34.2451946 Z" id="Shape" fill-rule="nonzero"></path>
                    <path d="M21.569573,22.8374423 C21.5467365,22.6694735 21.3916884,22.552286 21.2243206,22.5739206 L17.3165682,23.0901466 C17.1933711,23.1063726 17.092109,23.1953148 17.0596571,23.3152067 C17.0275057,23.435399 17.0704744,23.5631033 17.1690321,23.6388245 L18.1116403,24.365387 C15.1647127,28.3336863 10.3131127,31.1682716 5.64829895,32.0802308 C5.49114751,32.1108798 5.38387588,32.257214 5.40160425,32.4161682 C5.41903212,32.5724183 5.55124369,32.6899062 5.70749366,32.6899062 C5.71019797,32.6899062 5.71320277,32.6899062 5.71620763,32.6899062 C10.5025652,32.5536382 16.3304279,30.439756 20.5797894,26.2515048 L21.6113398,27.0321538 C21.6678302,27.0748221 21.7369408,27.099161 21.803347,27.0943534 C21.9541884,27.0979591 22.1170489,26.9588366 22.1170489,26.786661 C22.1170489,26.7421899 22.1074335,26.6998221 22.0906066,26.661661 L21.569573,22.8374423 Z M20.7375418,25.599161 C20.6143447,25.5063124 20.4415682,25.5183316 20.3330946,25.6283076 C17.5034673,28.4881334 13.8575463,30.5414687 9.53441674,31.5495817 C13.5160498,29.9552307 16.7006953,27.4042241 18.7868206,24.4831754 C18.883275,24.34856 18.8556307,24.161661 18.7243206,24.0606994 L18.1308711,23.6033677 L21.0010634,23.224161 L21.3922894,26.0946538 L20.7375418,25.599161 Z" id="Shape" fill-rule="nonzero"></path>
                    <path d="M8.46380382,22.1793894 C8.46380382,22.0093172 8.32618363,21.871697 8.15611151,21.871697 L5.82197748,21.871697 C5.65190535,21.871697 5.51428517,22.0093172 5.51428517,22.1793894 L5.51428517,24.513524 C5.51428517,24.6835961 5.65190535,24.8212163 5.82197748,24.8212163 L8.15611151,24.8212163 C8.32618363,24.8212163 8.46380382,24.6835961 8.46380382,24.513524 L8.46380382,22.1793894 Z M7.84841975,24.2058317 L6.12966972,24.2058317 L6.12966972,22.4870817 L7.84841975,22.4870817 L7.84841975,24.2058317 Z" id="Shape" fill-rule="nonzero"></path>
                    <path d="M8.15611151,25.9573341 L5.82197748,25.9573341 C5.65190535,25.9573341 5.51428517,26.0949543 5.51428517,26.2650264 L5.51428517,28.599161 C5.51428517,28.7692332 5.65190535,28.9068534 5.82197748,28.9068534 L8.15611151,28.9068534 C8.32618363,28.9068534 8.46380382,28.7692332 8.46380382,28.599161 L8.46380382,26.2650264 C8.46380382,26.0949543 8.32618363,25.9573341 8.15611151,25.9573341 Z M7.84841975,28.2914687 L6.12966972,28.2914687 L6.12966972,26.5727186 L7.84841975,26.5727186 L7.84841975,28.2914687 Z" id="Shape" fill-rule="nonzero"></path>
                </g>
            </g>
        </g>
    </g>
</svg>