<?xml version="1.0" encoding="UTF-8"?>
<svg width="488px" height="96px" viewBox="0 0 488 96" version="1.1" xmlns="http://www.w3.org/2000/svg" xmlns:xlink="http://www.w3.org/1999/xlink">
    <!-- Generator: Sketch 52.3 (67297) - http://www.bohemiancoding.com/sketch -->
    <title>Group 17</title>
    <desc>Created with Sketch.</desc>
    <defs>
        <circle id="path-1" cx="43.2254309" cy="42.8229572" r="42.5"></circle>
    </defs>
    <g id="Page-1" stroke="none" stroke-width="1" fill="none" fill-rule="evenodd">
        <g id="Artboard" transform="translate(-1617.000000, -736.000000)">
            <g id="Group-17" transform="translate(1617.000000, 736.000000)">
                <path d="M467.862013,48.2422864 L298.02831,48.2422864" id="Line-2" stroke="#FFF60F" stroke-width="5" stroke-linecap="square" transform="translate(383.000000, 48.188172) scale(-1, 1) translate(-383.000000, -48.188172) "></path>
                <g id="Group-2">
                    <rect id="Rectangle" fill="#FFF60F" x="0" y="1.42108547e-14" width="378" height="96" rx="48"></rect>
                    <g id="profile" transform="translate(3.274569, 4.677043)">
                        <mask id="mask-2" fill="white">
                            <use xlink:href="#path-1"></use>
                        </mask>
                        <use id="Mask" fill="#FFFFFF" xlink:href="#path-1"></use>
                    </g>
                </g>
                <circle id="Oval" fill="#FFF60F" transform="translate(478.500000, 48.500000) scale(-1, 1) translate(-478.500000, -48.500000) " cx="478.5" cy="48.5" r="9.5"></circle>
                <g id="Group" transform="translate(18.000000, 25.000000)">
                    <path d="M50.6453655,0.975755981 C35.5453815,-0.214311005 20.4452851,-0.214311005 5.3453012,0.975755981 C3.09079518,1.15341148 1.2895743,2.91613636 1.04578313,5.16426555 C-0.279550201,17.3852775 -0.279550201,29.606177 1.04578313,41.827189 C1.2895743,44.0753182 3.09079518,45.8380431 5.34518876,46.0156986 C20.4451727,47.2057656 35.5452691,47.2057656 50.645253,46.0156986 C52.899759,45.8380431 54.7008675,44.0753182 54.9446586,41.827189 C56.269992,29.606177 56.269992,17.3852775 54.9446586,5.16426555 C54.7009799,2.91613636 52.899759,1.15341148 50.6453655,0.975755981 Z" id="Path" fill="#E4F6FF"></path>
                    <path d="M55.5659438,12.2668876 L55.5434538,12.2646388 C37.1783775,10.6455 18.8131888,10.6455 0.44811245,12.2646388 L0.42562249,12.268012 C0.581927711,9.90002153 0.788835341,7.5331555 1.04634538,5.16527751 C1.29036145,2.91647368 3.09180723,1.15341148 5.3453012,0.975755981 C20.4459598,-0.213861244 35.5456064,-0.213861244 50.6463775,0.975755981 C52.8998715,1.15341148 54.7013173,2.91647368 54.9453333,5.16527751 C55.2027309,7.5320311 55.4096386,9.90002153 55.5659438,12.2668876 Z" id="Path" fill="#617881"></path>
                    <ellipse id="Oval" fill="#DA4A54" cx="7.1675502" cy="6.05411722" rx="2.63773494" ry="2.63750957"></ellipse>
                    <ellipse id="Oval" fill="#86F1A7" cx="22.9938474" cy="6.05411722" rx="2.63773494" ry="2.63750957"></ellipse>
                    <ellipse id="Oval" fill="#F4DD45" cx="15.0806426" cy="6.05411722" rx="2.63773494" ry="2.63750957"></ellipse>
                    <g transform="translate(26.425703, 3.260766)" id="Path">
                        <path d="M19.8692048,6.11933254 L21.3768193,3.32856699 C21.7577992,2.62322967 21.4944418,1.74102392 20.7890442,1.35996411 L18.6242731,0.190811005 C17.9178635,-0.190698565 17.0365944,0.0731985646 16.655502,0.778535885 L15.1478876,3.56930144" fill="#E4F6FF"></path>
                        <path d="M20.3991807,1.14936364 C19.6927711,0.767854067 18.811502,1.0317512 18.4304096,1.73708852 L16.9227952,4.52785407 L15.1478876,3.569189 L16.655502,0.778423445 C17.0364819,0.0730861244 17.9178635,-0.190923445 18.6242731,0.190698565 L20.3991807,1.14936364 Z" fill="#B9E4EF"></path>
                        <path d="M14.5588755,20.4777201 C9.40496386,30.0184952 3.32187952,36.7251029 0.972128514,35.4559904 C-1.37762249,34.186878 0.896337349,25.4229522 6.050249,15.882177 C8.66346988,11.0445502 11.5162088,6.93508612 13.9987631,4.22572727 C14.6735743,3.48935646 15.7636627,3.30888995 16.6424578,3.7835 L18.8704257,4.98683493 C19.7493333,5.46155742 20.1959839,6.47194498 19.9500562,7.44005502 C19.0451727,11.0014856 17.1720964,15.6400933 14.5588755,20.4777201 Z" fill="#6BBEF6"></path>
                        <path d="M0.972128514,35.4559904 C-1.37762249,34.186878 0.896337349,25.4229522 6.050249,15.882177 C8.66346988,11.0445502 11.5158715,6.935311 13.9985382,4.22516507 C14.6733494,3.48935646 15.7637751,3.30900239 16.6423454,3.7835 L17.4497349,4.21954306 C17.2083052,4.08911244 16.6758554,4.57091866 16.1573494,5.39116986 C14.2455904,8.40962679 11.7484177,12.710689 9.13508434,17.5483158 C3.98128514,27.0890909 0.326104418,35.1070885 0.972128514,35.4559904 Z" fill="#528ECB"></path>
                    </g>
                </g>
                <g id="Group" transform="translate(17.000000, 24.000000)" fill="#000000">
                    <path d="M56.988625,5.91221296 C56.698625,3.23592824 54.5501328,1.14049769 51.8799805,0.929752315 C38.7473984,-0.106506944 25.4325469,-0.248516204 12.3056289,0.507694444 C11.8372109,0.534689815 11.4792422,0.936784722 11.5062031,1.40580093 C11.5331641,1.87481713 11.9349727,2.23312963 12.4031641,2.20624769 C25.4536172,1.45457407 38.6905313,1.59567593 51.7464219,2.62581019 C53.6031016,2.77235648 55.0972813,4.23169444 55.2992617,6.09573611 C55.5205,8.13819676 55.7039023,10.1856481 55.851168,12.236162 C54.3805508,12.1108264 52.9035898,11.9949051 51.4254961,11.8895324 C51.0494023,10.7229468 50.2312852,9.76653935 49.0191758,9.10061574 L49.6964844,7.84521759 C50.3026523,6.72150694 49.8827188,5.31355093 48.7605547,4.7066088 L46.5797773,3.52720602 C45.4576133,2.92037731 44.0513398,3.34062037 43.4451719,4.46433102 L42.0948594,6.96741435 C41.6455859,7.13052083 41.229957,7.39968056 40.8897734,7.77137731 C39.9721953,8.77417593 39.027543,9.93531713 38.0779063,11.2224745 C26.1461055,10.8790208 14.0637539,11.2204329 2.13931641,12.236162 C2.28658203,10.1856481 2.46987109,8.13819676 2.69122266,6.09573611 C2.89320313,4.23169444 4.38738281,2.77235648 6.24428906,2.62581019 C7.19925,2.55015509 8.1363125,2.48096528 9.02964844,2.42005556 C9.49772656,2.38818287 9.85139063,1.98223148 9.81955859,1.51355556 C9.78772656,1.04487963 9.38319922,0.690877315 8.91421484,0.722636574 C8.014875,0.784 7.07146875,0.853643519 6.11061719,0.929752315 C3.44035156,1.14049769 1.29185938,3.23604167 1.00185938,5.91232639 C-0.333953125,18.2433125 -0.333953125,30.7480671 1.00185938,43.0791667 C1.29185938,45.7554514 3.44035156,47.8508819 6.11050391,48.0616273 C13.7092969,48.6607431 21.3660898,48.9607546 29.015293,48.9606412 C34.797168,48.9606412 40.575418,48.7892546 46.3165117,48.4461412 C46.7849297,48.418125 47.1419922,48.0152361 47.1140117,47.5463333 C47.0860313,47.0773171 46.6847891,46.719912 46.2152383,46.7478148 C32.9568008,47.5400949 19.5085039,47.4114699 6.24394922,46.3655694 C4.38726953,46.2190231 2.89308984,44.7596852 2.69110938,42.8956435 C1.65152734,33.2987894 1.42949609,23.5957685 2.02422266,13.9534306 C13.5898984,12.9585718 25.3074844,12.6024144 36.8911719,12.893125 C35.6189102,14.7495671 34.3538984,16.8081343 33.1482461,18.9923773 L16.641582,18.9923773 C16.1723711,18.9923773 15.7919727,19.3732616 15.7919727,19.8430718 C15.7919727,20.3128819 16.1723711,20.6937662 16.641582,20.6937662 L32.2349727,20.6937662 C31.6866914,21.7439769 31.170582,22.7891968 30.6886836,23.820919 L16.641582,23.820919 C16.1723711,23.820919 15.7919727,24.2018032 15.7919727,24.6716134 C15.7919727,25.1414236 16.1723711,25.5223079 16.641582,25.5223079 L29.9204102,25.5223079 C29.4549375,26.5900995 29.0314922,27.6357731 28.6536992,28.6493472 L7.23640625,28.6493472 C6.76719531,28.6493472 6.38679688,29.0302315 6.38679688,29.5000417 C6.38679688,29.9698519 6.76719531,30.3507361 7.23640625,30.3507361 L28.0527422,30.3507361 C27.759457,31.2323958 27.503668,32.0839977 27.2940977,32.8930648 C27.2425547,33.0920139 27.1948633,33.2861991 27.1490977,33.4778889 L7.23640625,33.4778889 C6.76719531,33.4778889 6.38679688,33.8587731 6.38679688,34.3285833 C6.38679688,34.7983935 6.76719531,35.1792778 7.23640625,35.1792778 L26.8037031,35.1792778 C26.4308945,37.4739977 26.5973047,39.0887292 27.300668,40.0060046 L27.1044648,40.3259792 C26.8589844,40.7263727 26.9840469,41.2501736 27.3839297,41.496081 C27.5225859,41.5812639 27.676082,41.6218704 27.8276523,41.6218704 C28.1132344,41.6218704 28.3921328,41.477706 28.5525391,41.2161458 L28.7805742,40.8442222 C28.8664414,40.8536366 28.953668,40.8588542 29.0428203,40.8588542 C30.523293,40.8588542 32.4555313,39.5521875 34.8070234,36.9563218 C35.3034219,36.4083611 35.8076367,35.8141227 36.3161563,35.1792778 L50.7541914,35.1792778 C51.2234023,35.1792778 51.6038008,34.7983935 51.6038008,34.3285833 C51.6038008,33.8587731 51.2234023,33.4778889 50.7541914,33.4778889 L37.6175313,33.4778889 C38.3327891,32.5016319 39.0505391,31.4544838 39.7612656,30.3507361 L40.7981289,30.3507361 C40.6563008,30.8122662 40.5988672,31.2154954 40.6369297,31.5643935 C40.6843945,32.0001759 41.0525586,32.3229861 41.4804219,32.3229861 C41.5111211,32.3229861 41.5422734,32.3212847 41.5736523,32.3178819 C42.0401445,32.2669537 42.3769297,31.8470509 42.3260664,31.379963 C42.313832,31.2669907 42.3345625,30.9839931 42.6031523,30.3508495 L50.7539648,30.3508495 C51.2231758,30.3508495 51.6035742,29.9699653 51.6035742,29.5001551 C51.6035742,29.0303449 51.2231758,28.6494606 50.7539648,28.6494606 L43.484707,28.6494606 C44.0327617,27.7095 44.7210586,26.6485139 45.4680352,25.5224213 L50.7539648,25.5224213 C51.2231758,25.5224213 51.6035742,25.141537 51.6035742,24.6717269 C51.6035742,24.2019167 51.2231758,23.8210324 50.7539648,23.8210324 L46.6024336,23.8210324 C47.3017188,22.77275 47.998625,21.7198171 48.6414961,20.6938796 L50.7539648,20.6938796 C51.2231758,20.6938796 51.6035742,20.3129954 51.6035742,19.8431852 C51.6035742,19.373375 51.2231758,18.9924907 50.7539648,18.9924907 L49.6668047,18.9924907 C50.6474805,17.2835023 51.3762188,15.7107384 51.5805781,14.4413889 C51.6261172,14.1580509 51.6513789,13.8815185 51.6589688,13.6115648 C53.0979805,13.7156898 54.5354063,13.8304769 55.9661484,13.9536574 C56.560875,23.5959954 56.338957,33.2990162 55.2992617,42.8958704 C55.0972813,44.759912 53.6031016,46.21925 51.7464219,46.3657963 C50.9486953,46.4286343 50.2451055,46.4811505 49.5953242,46.526294 C49.1272461,46.5587338 48.7740352,46.9650255 48.8065469,47.4337014 C48.8375859,47.8824144 49.2107344,48.2256412 49.6532109,48.2256412 C49.6729219,48.2256412 49.6928594,48.2249606 49.7127969,48.2235995 C50.3680156,48.1781157 51.0768164,48.1252593 51.8798672,48.0619676 C54.5500195,47.8512222 56.6985117,45.7557917 56.9885117,43.0795069 C58.3244375,30.7479537 58.3244375,18.2433125 56.988625,5.91221296 Z M49.5053789,11.7575046 C49.122375,11.7325509 48.7407305,11.7098657 48.3584063,11.6863866 C48.4285273,11.3594931 48.4440469,11.031125 48.4084766,10.7114907 C48.8818789,11.0022014 49.2480039,11.3510995 49.5053789,11.7575046 Z M45.7721953,5.02420139 L47.9529727,6.20360417 C48.2507891,6.36466898 48.3622578,6.73840741 48.2013984,7.03660417 L47.3093086,8.69035417 C47.1611367,8.56921528 47.0012969,8.45919213 46.82775,8.36538889 L44.5833086,7.15150463 C44.4099883,7.05770139 44.2305508,6.98420139 44.048168,6.92658102 L44.9402578,5.27294444 C45.1011172,4.97474769 45.4744922,4.86313657 45.7721953,5.02420139 Z M42.1426641,8.92083565 C42.4036641,8.63556944 42.764918,8.48516667 43.1324023,8.48516667 C43.3512617,8.48516667 43.5722734,8.53859028 43.7757266,8.64861343 L46.020168,9.86249769 C46.5651641,10.1572917 46.8398711,10.7809074 46.6880742,11.3792292 C45.7520313,15.0685208 43.8501523,19.6700972 41.333043,24.3363264 C40.3162305,26.221125 39.2515,28.0182454 38.1739688,29.6761921 L31.5297969,26.0827454 C32.3240117,24.2708796 33.2395508,22.3944745 34.2565898,20.5091088 C36.7736992,15.8428796 39.5744648,11.7274468 42.1426641,8.92083565 Z M33.5483555,35.8131019 C30.7310508,38.9232407 29.2084375,39.3242014 28.7972266,39.1016597 C28.3857891,38.8791181 27.8859922,37.3843912 28.9389414,33.3201134 C29.3849297,31.598875 30.0402617,29.6811829 30.8643828,27.6565301 L37.2246719,31.0963981 C35.9848086,32.8972616 34.7418867,34.4955463 33.5483555,35.8131019 Z M41.5408008,28.6492338 L40.8240703,28.6492338 C41.4348828,27.641331 42.0366328,26.5959977 42.6232031,25.5221944 L43.435543,25.5221944 C42.6541289,26.7223542 42.0127305,27.7583866 41.5408008,28.6492338 Z M44.8323008,23.4109977 C44.7398633,23.5494907 44.6488984,23.6858287 44.5588398,23.8208056 L43.525375,23.8208056 C44.068332,22.7692338 44.5811563,21.7235602 45.0561445,20.6936528 L46.6257695,20.6936528 C46.0380664,21.6052569 45.4247617,22.5238935 44.8323008,23.4109977 Z M49.9031094,14.1705278 C49.706,15.3950741 48.8221797,17.1234583 47.6920859,18.9922639 L45.8141094,18.9922639 C46.6649648,17.0123009 47.368668,15.1127569 47.897918,13.3624815 C48.5855352,13.4039954 49.273832,13.4472106 49.9638281,13.4934884 C49.9609961,13.7103588 49.940832,13.935963 49.9031094,14.1705278 Z" id="Shape" fill-rule="nonzero"></path>
                    <path d="M4.50666797,6.90106019 C4.50666797,8.83724074 6.07980469,10.4123866 8.01351563,10.4123866 C9.94711328,10.4123866 11.5203633,8.83724074 11.5203633,6.90106019 C11.5203633,4.96487963 9.94722656,3.38984722 8.01351563,3.38984722 C6.07991797,3.38984722 4.50666797,4.96499306 4.50666797,6.90106019 Z M9.82114453,6.90106019 C9.82114453,7.89909491 9.01027734,8.71099769 8.01351563,8.71099769 C7.01675391,8.71099769 6.20588672,7.89909491 6.20588672,6.90106019 C6.20588672,5.90302546 7.01675391,5.09112269 8.01351563,5.09112269 C9.01027734,5.09123611 9.82114453,5.90313889 9.82114453,6.90106019 Z" id="Shape" fill-rule="nonzero"></path>
                    <path d="M27.4635664,6.90106019 C27.4635664,4.96487963 25.8904297,3.3897338 23.9567188,3.3897338 C22.0230078,3.3897338 20.4498711,4.96487963 20.4498711,6.90106019 C20.4498711,8.83724074 22.0230078,10.4123866 23.9567188,10.4123866 C25.8904297,10.4123866 27.4635664,8.83724074 27.4635664,6.90106019 Z M22.1492031,6.90106019 C22.1492031,5.90302546 22.9600703,5.09112269 23.956832,5.09112269 C24.9535938,5.09112269 25.7644609,5.90302546 25.7644609,6.90106019 C25.7644609,7.89909491 24.9535938,8.71099769 23.956832,8.71099769 C22.9600703,8.71099769 22.1492031,7.89909491 22.1492031,6.90106019 Z" id="Shape" fill-rule="nonzero"></path>
                    <path d="M19.4919648,6.90106019 C19.4919648,4.96487963 17.9188281,3.3897338 15.9851172,3.3897338 C14.0514062,3.3897338 12.4782695,4.96487963 12.4782695,6.90106019 C12.4782695,8.83724074 14.0514062,10.4123866 15.9851172,10.4123866 C17.9188281,10.4123866 19.4919648,8.83724074 19.4919648,6.90106019 Z M14.1776016,6.90106019 C14.1776016,5.90302546 14.9884688,5.09112269 15.9852305,5.09112269 C16.9819922,5.09112269 17.7928594,5.90302546 17.7928594,6.90106019 C17.7928594,7.89909491 16.9819922,8.71099769 15.9852305,8.71099769 C14.9884688,8.71099769 14.1776016,7.89909491 14.1776016,6.90106019 Z" id="Shape" fill-rule="nonzero"></path>
                    <path d="M7.23674609,38.3068843 C6.76753516,38.3068843 6.38713672,38.6877685 6.38713672,39.1575787 C6.38713672,39.6273889 6.76753516,40.0082731 7.23674609,40.0082731 L22.4428281,40.0082731 C22.9120391,40.0082731 23.2924375,39.6273889 23.2924375,39.1575787 C23.2924375,38.6877685 22.9120391,38.3068843 22.4428281,38.3068843 L7.23674609,38.3068843 Z" id="Path"></path>
                    <path d="M9.67093359,15.4441875 L7.23640625,15.4441875 C6.76719531,15.4441875 6.38679687,15.8250718 6.38679687,16.2948819 L6.38679687,20.1591898 L6.38679687,20.1654282 L6.38679687,24.6869259 C6.38679687,24.9132106 6.47685547,25.1301944 6.63692187,25.2897847 C6.79619531,25.448581 7.01176953,25.5376204 7.23640625,25.5376204 L7.24014453,25.5376204 C7.24014453,25.5376204 9.47903516,25.5276389 10.0960781,25.5276389 C11.8085508,25.5276389 13.2016836,24.1327269 13.2016836,22.4180671 C13.2016836,21.3755694 12.6861406,20.4520556 11.8975898,19.8875347 C12.2437773,19.4236227 12.449043,18.8483264 12.449043,18.2259583 C12.4491562,16.6919861 11.2028359,15.4441875 9.67093359,15.4441875 Z M9.67093359,17.1455764 C10.2658867,17.1455764 10.7498242,17.6301319 10.7498242,18.2258449 C10.7498242,18.8215579 10.2658867,19.3061134 9.67093359,19.3061134 C9.49194922,19.3061134 9.15482422,19.3071343 8.78733984,19.3083819 L8.08601562,19.3083819 L8.08601562,17.145463 L9.67093359,17.145463 L9.67093359,17.1455764 Z M10.0961914,23.8261366 C9.72904687,23.8261366 8.78949219,23.8296528 8.08601562,23.8324884 L8.08601562,21.0123796 C8.31144531,21.0114722 8.55692578,21.0105648 8.79039844,21.0096574 L10.0961914,21.0096574 C10.8717148,21.0096574 11.5025781,21.6413264 11.5025781,22.4178403 C11.5025781,23.1944676 10.8716016,23.8261366 10.0961914,23.8261366 Z" id="Shape" fill-rule="nonzero"></path>
                </g>
            </g>
        </g>
    </g>
</svg>