<?xml version="1.0" encoding="UTF-8"?>
<svg width="124px" height="93px" viewBox="0 0 124 93" version="1.1" xmlns="http://www.w3.org/2000/svg" xmlns:xlink="http://www.w3.org/1999/xlink">
    <!-- Generator: Sketch 52.3 (67297) - http://www.bohemiancoding.com/sketch -->
    <title>Artboard</title>
    <desc>Created with Sketch.</desc>
    <g id="Artboard" stroke="none" stroke-width="1" fill="none" fill-rule="evenodd">
        <g id="noun_statical-report_2760829" transform="translate(31.000000, 14.000000)" fill="#FFFFFF">
            <g id="Group">
                <path d="M44.239399,46.0329628 C44.2386666,46.0341835 44.2379952,46.0355263 44.2372628,46.036747 C44.2388496,46.0339394 44.23946,46.0327187 44.239399,46.0329628 Z" id="Path"></path>
                <path d="M44.1281929,46.2253456 C44.1349068,46.2136268 44.1416206,46.2022743 44.1481514,46.1909218 C44.1461983,46.1942177 44.1437569,46.1984902 44.1418648,46.201664 C44.1375313,46.2092323 44.1328926,46.217289 44.1281929,46.2253456 Z" id="Path"></path>
                <path d="M59.083271,16.2148495 L56.982502,15.0068417 L56.4904976,14.7221728 C55.5543404,14.1814013 54.2241402,14.5205126 53.6609078,15.4687558 L43.98415,32.2158242 L43.98415,11.9086962 C43.98415,10.5463915 42.8762398,9.4384814 41.5139352,9.4384814 L30.8788033,9.4384814 L27.5842476,7.9189501 L27.5842476,5.6284227 C27.5842476,2.6821336 25.1349678,0.3136034 22.1560249,0.4794969 C19.4187202,0.6323289 17.274189,2.9731492 17.274189,5.8085985 L17.274189,7.9194383 L13.9969063,9.4384813 L3.3640337,9.4384813 C2.001729,9.4384813 0.8938189,10.5463915 0.8938189,11.9086961 L0.8938189,62.0585984 C0.8938189,63.4209069 2.0017291,64.5288171 3.3640337,64.5288171 L41.513936,64.5288171 C42.8762407,64.5288171 43.9841508,63.4209069 43.9841508,62.0585984 L43.9841508,46.4746132 C43.993123,46.4589882 44.017476,46.416996 44.0601396,46.3431435 C44.0242509,46.4052773 43.9946489,46.4565468 43.9841508,46.4746132 C44.029683,46.3958778 44.0670365,46.3313027 44.099019,46.2758827 C44.1028642,46.2692909 44.1071977,46.2617225 44.111226,46.2547645 C44.1079911,46.2603797 44.1048173,46.2658729 44.1015824,46.2714881 C44.111226,46.2547645 44.1197098,46.239994 44.1281937,46.2253455 C44.1245926,46.2315711 44.1211136,46.2377967 44.1174515,46.2440223 C44.1256302,46.2299842 44.1328324,46.2172889 44.1418656,46.2016639 C44.1487015,46.1899451 44.1555985,46.1779823 44.16158,46.1676063 C44.1571855,46.1751747 44.1526689,46.1831092 44.1481523,46.1909217 C44.1739702,46.146244 44.2041826,46.0939979 44.2372636,46.0367469 C44.2365312,46.0380897 44.2359208,46.0390662 44.2348222,46.0410194 C44.2377519,46.0358924 44.2392778,46.0332069 44.2392778,46.0332069 C45.0929155,44.5561561 48.4522295,38.7436561 59.8376665,19.043951 C60.3802071,18.1060848 60.086628,16.8042049 59.083271,16.2148495 Z M41.5139351,10.4384813 C42.324482,10.4384813 42.9841499,11.0981493 42.9841499,11.9086961 L42.9841499,33.9443406 L40.0442085,39.0332078 L40.0442085,13.8784227 C40.0442085,13.6020555 39.8205757,13.3784227 39.5442085,13.3784227 L32.8640327,13.3784227 L32.8640327,11.9487352 C32.8640327,11.4834032 32.6900215,10.8820848 32.3518257,10.4384813 L41.5139351,10.4384813 Z M35.7693062,46.4843788 L34.5495796,54.6142616 C34.5193062,54.81641 34.6150093,55.0166054 34.7912788,55.1196327 C35.3874092,55.4714393 35.8824043,54.451786 39.0442085,52.2214393 L39.0442095,59.5888709 L5.8342485,59.5888709 L5.8342485,14.3784227 L12.013936,14.3784227 L12.013936,15.4687557 C12.013936,15.7451229 12.2375688,15.9687557 12.513936,15.9687557 L32.3640337,15.9687557 C32.6404009,15.9687557 32.8640337,15.7451229 32.8640337,15.4687557 L32.8640337,14.3784227 L39.0442095,14.3784227 L39.0442095,40.764164 L39.0331011,40.7834511 C36.0351753,45.9910927 35.788105,46.3601112 35.7693062,46.4843788 Z M36.6501656,47.3549843 L40.6784859,49.689457 C40.1485176,50.1001015 35.4695626,53.725834 35.7238961,53.5288125 L36.6501656,47.3549843 Z M13.0139351,11.9487352 C13.0139351,11.3652391 13.3410835,10.8486375 13.8654976,10.6015672 L17.9841499,8.6923875 C18.1609077,8.6108445 18.274189,8.4335984 18.274189,8.2387742 L18.274189,5.8085985 C18.274189,3.5034227 20.0036812,1.601079 22.2087593,1.4780321 C24.5557442,1.3515673 26.5842476,3.1960497 26.5842476,5.6284227 L26.5842476,8.2387743 C26.5842476,8.4335985 26.6975289,8.6108446 26.8747749,8.6928759 L30.5454902,10.3861132 C30.5495796,10.3881884 30.5522651,10.3916064 30.5564155,10.3935595 L31.0105171,10.6005908 C31.5368843,10.8486377 31.8640327,11.3652392 31.8640327,11.9487353 C31.8640327,12.1142626 31.8640327,15.1113339 31.8640327,14.9687548 L13.0139351,14.9687548 C13.0139351,14.7945604 13.0139351,11.8435106 13.0139351,11.9487352 Z M42.9841499,62.0585976 C42.9841499,62.8691445 42.3244819,63.5288163 41.5139351,63.5288163 L3.3640337,63.5288163 C2.5534868,63.5288163 1.8938189,62.8691445 1.8938189,62.0585976 L1.8938189,11.9086962 C1.8938189,11.0981493 2.5534869,10.4384814 3.3640337,10.4384814 L12.5256548,10.4384814 C12.1892901,10.8800097 12.013936,11.4819384 12.013936,11.9487353 L12.013936,13.3784228 L5.3342485,13.3784228 C5.0578813,13.3784228 4.8342485,13.6020556 4.8342485,13.8784228 L4.8342485,60.088871 C4.8342485,60.3652382 5.0578813,60.588871 5.3342485,60.588871 L39.5442094,60.588871 C39.8205766,60.588871 40.0442094,60.3652382 40.0442094,60.088871 L40.0442094,51.446537 L41.861287,50.038578 C41.9236649,49.9964637 41.9789628,49.944828 42.0173539,49.8784217 L42.9841508,48.2052039 L42.9841508,62.0585976 L42.9841499,62.0585976 Z M41.4016304,48.9453163 L36.9572945,46.3759804 L53.0579415,18.5109921 L54.7869454,19.5111142 L49.4284859,28.8901425 C49.2912789,29.1298886 49.374775,29.4355527 49.6145211,29.5722714 C49.8498116,29.7075253 50.1578561,29.6292782 50.29665,29.3862362 L55.6524239,20.0118466 L57.501606,21.0815487 C55.4074898,24.7058163 45.3969307,42.0307655 41.4016304,48.9453163 Z M58.9709663,18.5385799 L58.1311836,19.991949 L53.6789741,17.4482478 L54.5315132,15.9731501 C55.1969795,14.8208054 56.4826851,15.9118708 56.5827217,15.9306696 L58.5788765,17.0854548 C59.1000557,17.3868465 59.2328682,18.0882626 58.9709663,18.5385799 Z" id="Shape" fill-rule="nonzero"></path>
                <path d="M44.0601387,46.3431435 C44.0733833,46.3201943 44.0873604,46.2960244 44.1015816,46.2714882 C44.1007881,46.272831 44.0998116,46.27454 44.0990181,46.2758827 C44.0844917,46.3010292 44.0717354,46.323246 44.0601387,46.3431435 Z" id="Path"></path>
                <path d="M9.2141314,27.5551815 L10.9743853,27.7675838 C11.0227251,27.8969783 11.0735064,28.0185604 11.1262408,28.1333065 L10.0368853,29.5546932 C9.8845415,29.753912 9.9030962,30.035162 10.0803423,30.212408 L12.0505571,32.1821327 C12.2282915,32.3603554 12.5100298,32.3769569 12.7082719,32.2255897 L14.1345405,31.132328 C14.2463569,31.1821327 14.3606147,31.2285194 14.4778022,31.2719764 L14.7077827,33.0625037 C14.7400093,33.3115271 14.9524116,33.4985389 15.2038765,33.4985389 L18.0139351,33.4985389 C18.2653999,33.4985389 18.4778023,33.3115272 18.5100289,33.0625037 L18.7400094,31.2719764 C18.8571969,31.2285194 18.9714547,31.1821326 19.0832711,31.132328 L20.5095406,32.2255897 C20.7087594,32.3769569 20.9895211,32.359867 21.1662789,32.1831092 L23.1467477,30.2133845 C23.3254586,30.0356501 23.3440133,29.7529353 23.1897165,29.5532282 L22.0925485,28.1323298 C22.1452829,28.0170954 22.1955758,27.8960017 22.2439157,27.7675837 L24.0041696,27.5551814 C24.2551462,27.5244197 24.444111,27.3115291 24.444111,27.0585994 L24.444111,24.2485408 C24.444111,23.9965877 24.256611,23.783697 24.006611,23.752447 L22.240986,23.5307673 C22.194111,23.4091853 22.1447946,23.2919978 22.0920602,23.1782282 L23.1882516,21.776861 C23.343525,21.5781305 23.3264352,21.2949274 23.1487008,21.1162165 L21.168232,19.1259821 C20.9904976,18.9472712 20.7087593,18.929693 20.5095406,19.0815485 L19.0852242,20.1738337 C18.9660836,20.1196345 18.8513375,20.0717829 18.7390328,20.0307673 L18.5100289,18.2548884 C18.4778023,18.0053767 18.2654,17.8188532 18.0139351,17.8188532 L15.2038765,17.8188532 C14.9524117,17.8188532 14.7400093,18.0053766 14.7077827,18.2548884 L14.4787788,20.0307673 C14.3664741,20.0717829 14.251728,20.1196345 14.1325874,20.1738337 L12.7082719,19.0815485 C12.5090531,18.929693 12.22585,18.9477594 12.0486039,19.1269587 L10.0783891,21.1171931 C9.9021196,21.2954158 9.8850297,21.577154 10.0388383,21.7753962 L11.1267289,23.1772517 C11.0739945,23.2910212 11.0241898,23.408697 10.9773148,23.5307673 L9.2116898,23.752447 C8.9616898,23.783697 8.7741898,23.9965876 8.7741898,24.2485408 L8.7741898,27.0585994 C8.7741899,27.3115292 8.9631548,27.5244198 9.2141314,27.5551815 Z M9.7741899,24.6899471 L11.4065141,24.484869 C11.5974321,24.4609432 11.7575883,24.3295956 11.8181352,24.1469784 C11.9162797,23.8525448 12.026143,23.5937557 12.154561,23.3554745 C12.248311,23.1811581 12.2302446,22.9682675 12.1091508,22.8120175 L11.0979203,21.5087948 L12.4494828,20.1435604 L13.7697943,21.1557674 C13.9231146,21.2739315 14.132099,21.2915096 14.3034857,21.2031307 C14.5915716,21.0542049 14.8337591,20.9550838 15.0671576,20.8906307 C15.2610053,20.8369198 15.4040717,20.672369 15.4299506,20.4726619 L15.6433295,18.8188533 L17.5744818,18.8188533 L17.7878607,20.4726619 C17.8137396,20.6723689 17.956806,20.8369197 18.1506537,20.8906307 C18.3840521,20.9550838 18.6262396,21.0542049 18.9143256,21.2031307 C19.0862006,21.2915096 19.2942084,21.2734432 19.448017,21.1557674 L20.7693061,20.1425838 L22.1281928,21.5083065 L21.1101264,22.8105526 C20.9880561,22.9668026 20.9699897,23.1801815 21.0632514,23.3549862 C21.1926459,23.5957089 21.3025092,23.8549862 21.4001655,24.1469784 C21.4607124,24.3295956 21.6208686,24.4609432 21.8117866,24.484869 L23.4441108,24.6899471 L23.4441108,26.6152401 L21.814228,26.8120174 C21.6208686,26.8354549 21.458271,26.969244 21.3987007,27.1547908 C21.2981148,27.4663142 21.189228,27.7251033 21.0671577,27.9458064 C20.9699897,28.1206111 20.9865913,28.3359431 21.1086616,28.4941462 L22.1286811,29.8154353 L20.7707709,31.1660193 L19.448017,30.1518611 C19.2942084,30.033697 19.0862006,30.0170955 18.9143256,30.1044978 C18.666767,30.2324275 18.4196967,30.3330134 18.1360053,30.4209041 C17.9489936,30.4790096 17.8127631,30.6406307 17.7878608,30.8344783 L17.5739936,32.4985389 L15.6438178,32.4985389 L15.4299506,30.8344783 C15.4050483,30.6406306 15.2688178,30.4790095 15.0818061,30.4209041 C14.7981147,30.3330135 14.5510444,30.2324275 14.3034858,30.1044978 C14.1320991,30.0170955 13.9231147,30.033697 13.7697944,30.1518611 L12.4475297,31.1650428 L11.097432,29.8149471 L12.1111039,28.4926815 C12.2321977,28.3344784 12.2478227,28.1191463 12.151143,27.9453182 C12.0290727,27.7265682 11.9211625,27.4682674 11.8196,27.1547909 C11.7600297,26.969244 11.597432,26.835455 11.4040727,26.8120175 L9.7741899,26.6152402 L9.7741899,24.6899471 Z" id="Shape" fill-rule="nonzero"></path>
                <path d="M16.6140327,29.2387753 C18.5881538,29.2387753 20.1941108,27.6279355 20.1941108,25.6484433 C20.1941108,23.6748105 18.5881538,22.0688535 16.6140327,22.0688535 C14.6345405,22.0688535 13.0241889,23.6748105 13.0241889,25.6484433 C13.024189,27.6279354 14.6345406,29.2387753 16.6140327,29.2387753 Z M16.6140327,23.0688534 C18.0368843,23.0688534 19.1941108,24.22608 19.1941108,25.6484432 C19.1941108,27.0766659 18.0368842,28.2387752 16.6140327,28.2387752 C15.18581,28.2387752 14.0241889,27.0766658 14.0241889,25.6484432 C14.024189,24.2260799 15.1858101,23.0688534 16.6140327,23.0688534 Z" id="Shape" fill-rule="nonzero"></path>
                <path d="M22.4406929,36.2934608 L14.5730171,36.2934608 C14.2966499,36.2934608 14.0730171,36.5170936 14.0730171,36.7934608 C14.0730171,37.069828 14.2966499,37.2934608 14.5730171,37.2934608 L22.4406929,37.2934608 C22.7170601,37.2934608 22.9406929,37.069828 22.9406929,36.7934608 C22.9406929,36.5170936 22.7170601,36.2934608 22.4406929,36.2934608 Z" id="Path"></path>
                <path d="M14.5730171,39.5825233 L20.2170601,39.5825233 C20.4934273,39.5825233 20.7170601,39.3588905 20.7170601,39.0825233 C20.7170601,38.8061561 20.4934273,38.5825233 20.2170601,38.5825233 L14.5730171,38.5825233 C14.2966499,38.5825233 14.0730171,38.8061561 14.0730171,39.0825233 C14.0730171,39.3588905 14.2966499,39.5825233 14.5730171,39.5825233 Z" id="Path"></path>
                <path d="M22.9406929,43.4321327 C22.9406929,43.1557655 22.7170601,42.9321327 22.4406929,42.9321327 L14.5730171,42.9321327 C14.2966499,42.9321327 14.0730171,43.1557655 14.0730171,43.4321327 C14.0730171,43.7084999 14.2966499,43.9321327 14.5730171,43.9321327 L22.4406929,43.9321327 C22.7170601,43.9321327 22.9406929,43.7084999 22.9406929,43.4321327 Z" id="Path"></path>
                <path d="M14.5730171,45.2216835 C14.2966499,45.2216835 14.0730171,45.4453163 14.0730171,45.7216835 C14.0730171,45.9980507 14.2966499,46.2216835 14.5730171,46.2216835 L20.2170601,46.2216835 C20.4934273,46.2216835 20.7170601,45.9980507 20.7170601,45.7216835 C20.7170601,45.4453163 20.4934273,45.2216835 20.2170601,45.2216835 L14.5730171,45.2216835 Z" id="Path"></path>
                <path d="M27.8596382,12.285161 L17.0217476,12.285161 C16.7453804,12.285161 16.5217476,12.5087938 16.5217476,12.785161 C16.5217476,13.0615282 16.7453804,13.285161 17.0217476,13.285161 L27.8596382,13.285161 C28.1360054,13.285161 28.3596382,13.0615282 28.3596382,12.785161 C28.3596382,12.5087938 28.1360054,12.285161 27.8596382,12.285161 Z" id="Path"></path>
                <path d="M18.520771,11.0087938 L26.3606148,11.0087938 C26.636982,11.0087938 26.8606148,10.785161 26.8606148,10.5087938 C26.8606148,10.2324266 26.636982,10.0087938 26.3606148,10.0087938 L18.520771,10.0087938 C18.2444038,10.0087938 18.020771,10.2324266 18.020771,10.5087938 C18.020771,10.785161 18.2444038,11.0087938 18.520771,11.0087938 Z" id="Path"></path>
                <path d="M13.3264351,53.7934608 C12.0373736,54.0175819 10.7766314,54.1562538 9.5788775,54.2055702 C9.3108111,54.2163124 9.0993853,54.4370155 9.0993853,54.7050819 L9.0993853,56.1484413 C9.0993853,56.4248085 9.3230181,56.6484413 9.5993853,56.6484413 L13.4118843,56.6484413 C13.6882515,56.6484413 13.9118843,56.4248085 13.9118843,56.1484413 L13.9118843,54.2861366 C13.9118843,54.1386757 13.8464546,53.9985389 13.7336616,53.9033241 C13.621357,53.8090858 13.4724312,53.7690468 13.3264351,53.7934608 Z M12.9118853,55.6484413 L10.0993853,55.6484413 L10.0993853,55.1806679 C11.0105181,55.1264687 11.9524126,55.0239296 12.9118853,54.8750038 L12.9118853,55.6484413 Z" id="Shape" fill-rule="nonzero"></path>
                <path d="M19.3034859,52.2841835 C17.3309517,52.962162 15.8100777,53.2785683 15.5373726,53.3496132 C15.3122749,53.4033241 15.1535835,53.604496 15.1535835,53.8359413 L15.1535835,56.1484413 C15.1535835,56.4248085 15.3772163,56.6484413 15.6535835,56.6484413 L19.4660835,56.6484413 C19.7424507,56.6484413 19.9660835,56.4248085 19.9660835,56.1484413 L19.9660835,52.7568397 C19.9660835,52.5952186 19.8879585,52.4438514 19.7566108,52.3496131 C19.6252632,52.2563515 19.458271,52.2309608 19.3034859,52.2841835 Z M18.9660835,55.6484413 L16.1535835,55.6484413 L16.1535835,54.2309608 C16.2550239,54.2045936 17.4522285,53.9373817 18.9660835,53.4501991 L18.9660835,55.6484413 Z" id="Shape" fill-rule="nonzero"></path>
                <path d="M25.2790718,49.6274452 C24.3266182,50.1533241 23.6105537,50.5539589 21.5134468,51.4370155 C21.3283882,51.5151405 21.2077827,51.6967811 21.2077827,51.897953 L21.2077827,56.1484413 C21.2077827,56.4248085 21.4314155,56.6484413 21.7077827,56.6484413 L25.520771,56.6484413 C25.7971382,56.6484413 26.020771,56.4248085 26.020771,56.1484413 L26.020771,50.0649452 C26.020771,49.8881874 25.927021,49.7241249 25.7746772,49.6342811 C25.6233101,49.5444374 25.4343452,49.5410194 25.2790718,49.6274452 Z M25.020771,55.6484413 L22.2077827,55.6484413 L22.2077827,52.2290077 C22.857563,51.9509315 24.1156806,51.3933143 25.020771,50.9077186 L25.020771,55.6484413 Z" id="Shape" fill-rule="nonzero"></path>
                <path d="M31.7810249,45.3671913 C31.6028022,45.2866249 31.392353,45.3173866 31.2448921,45.4472694 C30.5134468,46.0903358 29.821064,46.6416053 29.1037788,47.1508827 C28.5534858,47.5932655 27.9792671,47.9770546 27.4900093,48.2944374 C27.3479195,48.3862343 27.261982,48.5444374 27.261982,48.713871 L27.261982,56.1484413 C27.261982,56.4248085 27.4856148,56.6484413 27.761982,56.6484413 L31.5749703,56.6484413 C31.8513375,56.6484413 32.0749703,56.4248085 32.0749703,56.1484413 L32.0749703,45.8227577 C32.0749702,45.6264687 31.9602242,45.448246 31.7810249,45.3671913 Z M31.0749702,55.6484413 L28.261982,55.6484413 L28.261982,48.9848671 C28.718525,48.6845741 29.2268258,48.3349648 29.7063179,47.9487343 C30.1599312,47.626957 30.6130562,47.2812538 31.0749702,46.9033241 L31.0749702,55.6484413 Z" id="Shape" fill-rule="nonzero"></path>
                <path d="M35.0505562,37.1108437 C35.0134468,36.8378945 34.7614937,36.6474648 34.489521,36.682621 L28.1394233,37.5214882 C27.939228,37.5478554 27.7746772,37.6923866 27.7219428,37.8872109 C27.6696967,38.0825234 27.7395209,38.2900429 27.8996772,38.4130898 L29.4314155,39.5937539 C24.6426582,46.0422402 16.7588081,50.6484414 9.1784858,52.130375 C8.9231147,52.1801797 8.7487983,52.4179727 8.7776069,52.6762734 C8.8059272,52.9301797 9.020771,53.1210976 9.2746772,53.1210976 C9.2790717,53.1210976 9.2839545,53.1210976 9.2888374,53.1210976 C17.0666685,52.8996621 26.5369453,49.4646035 33.4421577,42.6586953 L35.1184272,43.92725 C35.2102241,43.9965859 35.3225288,44.0361367 35.4304389,44.0283242 C35.6755561,44.0341836 35.9402045,43.8081094 35.9402045,43.5283242 C35.9402045,43.4560586 35.9245795,43.3872109 35.8972357,43.3251992 L35.0505562,37.1108437 Z M33.6985054,41.5986366 C33.4983101,41.4477577 33.2175484,41.4672889 33.0412788,41.6459999 C28.4431343,46.2932167 22.5185127,49.6298866 15.4934272,51.2680702 C21.963581,48.6772499 27.1386298,44.5318641 30.5285835,39.78516 C30.6853218,39.56641 30.6403999,39.2626991 30.427021,39.0986366 L29.4626655,38.3554725 L34.126728,37.7392616 L34.7624702,42.4038124 L33.6985054,41.5986366 Z" id="Shape" fill-rule="nonzero"></path>
                <path d="M13.7536812,36.0415077 C13.7536812,35.7651405 13.5300484,35.5415077 13.2536812,35.5415077 L9.4607134,35.5415077 C9.1843462,35.5415077 8.9607134,35.7651405 8.9607134,36.0415077 L8.9607134,39.8344765 C8.9607134,40.1108437 9.1843462,40.3344765 9.4607134,40.3344765 L13.2536812,40.3344765 C13.5300484,40.3344765 13.7536812,40.1108437 13.7536812,39.8344765 L13.7536812,36.0415077 Z M12.7536821,39.3344765 L9.9607133,39.3344765 L9.9607133,36.5415077 L12.7536821,36.5415077 L12.7536821,39.3344765 Z" id="Shape" fill-rule="nonzero"></path>
                <path d="M13.2536812,42.1806679 L9.4607134,42.1806679 C9.1843462,42.1806679 8.9607134,42.4043007 8.9607134,42.6806679 L8.9607134,46.4736367 C8.9607134,46.7500039 9.1843462,46.9736367 9.4607134,46.9736367 L13.2536812,46.9736367 C13.5300484,46.9736367 13.7536812,46.7500039 13.7536812,46.4736367 L13.7536812,42.6806679 C13.7536812,42.4043007 13.5300484,42.1806679 13.2536812,42.1806679 Z M12.7536821,45.9736366 L9.9607133,45.9736366 L9.9607133,43.1806678 L12.7536821,43.1806678 L12.7536821,45.9736366 Z" id="Shape" fill-rule="nonzero"></path>
            </g>
        </g>
    </g>
</svg>