<?xml version="1.0" encoding="UTF-8"?>
<svg width="124px" height="93px" viewBox="0 0 124 93" version="1.1" xmlns="http://www.w3.org/2000/svg" xmlns:xlink="http://www.w3.org/1999/xlink">
    <!-- Generator: Sketch 52.3 (67297) - http://www.bohemiancoding.com/sketch -->
    <title>Artboard</title>
    <desc>Created with Sketch.</desc>
    <g id="Artboard" stroke="none" stroke-width="1" fill="none" fill-rule="evenodd">
        <g id="noun_analysis_2298296" transform="translate(35.000000, 14.000000)" fill="#FFFFFF">
            <g id="Group">
                <path d="M29.4383047,23.5737983 C29.2071781,23.5737983 29.0198498,23.38647 29.0198498,23.1553433 L29.0198498,18.4128541 C29.0198498,18.1817275 29.2071781,17.9943991 29.4383047,17.9943991 C29.6694313,17.9943991 29.8567597,18.1817275 29.8567597,18.4128541 L29.8567597,23.1553433 C29.8567597,23.38647 29.6694313,23.5737983 29.4383047,23.5737983 Z" id="Path"></path>
                <path d="M35.0174249,27.8979721 C34.8334442,27.8979721 34.6648069,27.7756438 34.6138948,27.5895708 C34.5530794,27.3665343 34.6846137,27.1365236 34.9075107,27.0757082 L39.510515,25.8203433 C39.7327146,25.7596674 39.9634227,25.8909227 40.0243777,26.1139592 C40.0851931,26.3369957 39.9536588,26.5670064 39.7307618,26.6278219 L35.1277575,27.8831867 C35.0909335,27.8930901 35.05397,27.8979721 35.0174249,27.8979721 Z" id="Path"></path>
                <path d="M27.764206,35.290676 C27.7012983,35.290676 27.6374142,35.276309 27.5772961,35.2464592 C27.3705794,35.1431009 27.2867489,34.8917489 27.3902468,34.6850322 L27.5297318,34.4060622 C27.6333691,34.199485 27.885,34.1159335 28.0911588,34.2188734 C28.2977361,34.3222318 28.3815665,34.5735837 28.2783476,34.7803004 L28.1388627,35.0592704 C28.0653541,35.2057296 27.9175,35.290676 27.764206,35.290676 Z" id="Path"></path>
                <path d="M38.9230043,34.0353112 C38.8619099,34.0353112 38.7996996,34.0217811 38.7409764,33.9933262 L34.4169421,31.9010515 C34.20897,31.8003433 34.1219313,31.5501073 34.2225,31.3421352 C34.3232082,31.1340236 34.5737232,31.0472639 34.7814163,31.1476931 L39.1054506,33.2399678 C39.3134227,33.340676 39.4004614,33.590912 39.2998927,33.7988841 C39.2276395,33.9482725 39.0783906,34.0353112 38.9230043,34.0353112 Z" id="Path"></path>
                <path d="M29.4383047,39.8935408 L28.3224249,39.8935408 C28.2038627,39.8935408 28.0910193,39.8433262 28.0116524,39.7553112 C27.9322854,39.6674356 27.893927,39.5498498 27.9060622,39.4321245 C28.3228433,35.4037983 26.3219313,31.455676 22.8087232,29.3738627 C22.8023069,29.3700966 22.79603,29.3660515 22.7898927,29.3620064 C21.6638305,28.6112983 20.35853,28.1775 18.7996459,28.0357833 C18.6859657,28.0254614 18.5814914,27.9691094 18.5102146,27.8798391 C18.4390773,27.7905687 18.4075536,27.676191 18.4227575,27.5630687 C19.1599356,22.1082296 23.8955901,17.9946781 29.4383047,17.9946781 C35.5144099,17.9946781 40.457618,22.875397 40.457618,28.8745064 C40.457618,34.9501931 35.5142704,39.8935408 29.4383047,39.8935408 Z M28.7767275,39.0566309 L29.4383047,39.0566309 C35.0528541,39.0566309 39.6207082,34.4887768 39.6207082,28.8742275 C39.6207082,23.3365343 35.0528541,18.831309 29.4383047,18.831309 C24.4574356,18.831309 20.1816631,22.4213734 19.318809,27.2504828 C20.823573,27.4432511 22.1117167,27.9060622 23.2448927,28.6592811 C26.8980043,30.8291094 29.0335193,34.8706867 28.7767275,39.0566309 Z" id="Shape" fill-rule="nonzero"></path>
                <path d="M29.4383047,35.1510515 C28.6894099,35.1510515 28.0967382,35.002779 27.5234549,34.8595279 C27.3877361,34.825633 27.2779614,34.7260408 27.2308155,34.594367 C26.5471996,32.6800751 25.2006116,30.9646888 23.3366738,29.6333047 C23.2266202,29.5547747 23.1614807,29.4278433 23.1614807,29.2928219 L23.1614807,28.874367 C23.1614807,25.5475107 26.0358476,22.7370279 29.4383047,22.7370279 C32.8224893,22.7370279 35.5756438,25.4901824 35.5756438,28.874367 C35.5756438,32.3352682 32.8224893,35.1510515 29.4383047,35.1510515 Z M27.9406545,34.1008691 C28.4125322,34.2163627 28.8770172,34.3141416 29.4383047,34.3141416 C32.3609335,34.3141416 34.7387339,31.8738519 34.7387339,28.8742275 C34.7387339,25.9515987 32.3609335,23.5737983 29.4383047,23.5737983 C26.4895923,23.5737983 23.9983906,26.0011159 23.9983906,28.8742275 L23.9983906,29.0794099 C25.8440558,30.4427361 27.2011052,32.1715129 27.9406545,34.1008691 Z" id="Shape" fill-rule="nonzero"></path>
                <path d="M48.6081438,53.4887232 L13.1294421,53.4887232 C12.9309549,53.4887232 12.7596674,53.3492382 12.7196352,53.1547961 C12.6624464,52.877779 12.488927,52.6368884 12.2434335,52.4943348 L12.090279,52.4064592 C11.9938948,52.3510837 11.9233155,52.2595815 11.8944421,52.1523176 C11.8654292,52.0449142 11.8804936,51.9305365 11.9360086,51.8342918 L14.1340129,48.0266309 C14.2327682,47.8554828 14.4371137,47.7763948 14.6254185,47.8377682 C15.6326395,48.1643026 16.681427,48.3298712 17.7426288,48.3298712 C21.3697961,48.3298712 24.7486803,46.3816845 26.5604506,43.2455043 C27.9184764,40.8937876 28.279324,38.1531867 27.5763197,35.5289163 C26.873176,32.9045064 25.1905687,30.7111052 22.838294,29.3532189 C21.2925215,28.4603755 19.5375215,27.9883584 17.7629936,27.9883584 C15.0421996,27.9883584 12.3939378,29.0972639 10.497221,31.0309442 C10.3781009,31.1522961 10.1974678,31.1893991 10.0402682,31.1253755 C9.88292918,31.061073 9.78012876,30.9079185 9.78012876,30.7380258 L9.78012876,10.2309442 C9.78012876,10.1199142 9.82420601,10.0134871 9.90273605,9.93495708 L16.9192489,2.91872318 C16.997779,2.84019313 17.104206,2.79625536 17.2150966,2.79625536 L48.6081438,2.79625536 C48.8392704,2.79625536 49.0265987,2.98358369 49.0265987,3.2147103 L49.0265987,53.0702682 C49.0265987,53.3013948 48.8394099,53.4887232 48.6081438,53.4887232 Z M13.436309,52.6518133 L48.1898283,52.6518133 L48.1898283,3.63316524 L17.3884764,3.63316524 L10.6171781,10.4041845 L10.6171781,29.7775322 C12.5940987,28.0988305 15.1479292,27.1514485 17.763133,27.1514485 C19.6843991,27.1514485 21.5841845,27.6622425 23.2568884,28.6284549 C25.8027682,30.0980687 27.6238841,32.471824 28.3849142,35.3124356 C29.1456652,38.1526288 28.7551073,41.1186373 27.2853541,43.6640987 C25.3243348,47.0583262 21.6678755,49.1667811 17.7427682,49.1667811 C16.7073712,49.1667811 15.6828541,49.0211588 14.6923712,48.7336803 L12.8621888,51.9040343 C13.1160515,52.1000107 13.3138412,52.3580579 13.436309,52.6518133 Z M10.1987232,47.231706 C10.1625966,47.231706 10.1260515,47.227103 10.0897854,47.2171996 C9.90706009,47.1679614 9.78026824,47.0023927 9.78026824,46.8132511 L9.78026824,45.5796459 C9.78026824,45.4089163 9.88390558,45.2554828 10.0420815,45.1915987 C10.200397,45.128133 10.381588,45.1664914 10.4998712,45.2890987 C10.6270815,45.420912 10.7611266,45.5454721 10.9029828,45.6772854 L10.9438519,45.7150858 C11.0869635,45.848294 11.1189056,46.0628219 11.0207082,46.2318777 L10.5605472,47.0234549 C10.4842489,47.1547103 10.3450429,47.231706 10.1987232,47.231706 Z" id="Shape" fill-rule="nonzero"></path>
                <path d="M52.7322961,50.6338841 L48.5477468,50.6338841 C48.3166202,50.6338841 48.1292918,50.4465558 48.1292918,50.2154292 L48.1292918,3.62744635 L18.5584764,3.62744635 C18.3892811,3.62744635 18.2366845,3.52548283 18.1719635,3.36912017 C18.1072425,3.21275751 18.1429506,3.03282189 18.2626288,2.91314378 L21.0523283,0.123444206 C21.1308584,0.0449141631 21.2372854,0.000836909871 21.348176,0.000836909871 L52.7322961,0.000836909871 C52.9634227,0.000836909871 53.1507511,0.188165236 53.1507511,0.419291845 L53.1507511,50.2154292 C53.1507511,50.4465558 52.9634227,50.6338841 52.7322961,50.6338841 Z M48.9662017,49.7969742 L52.3138412,49.7969742 L52.3138412,0.837746781 L21.5215558,0.837746781 L19.5687661,2.79053648 L48.5477468,2.79053648 C48.7788734,2.79053648 48.9662017,2.97786481 48.9662017,3.20899142 L48.9662017,49.7969742 Z" id="Shape" fill-rule="nonzero"></path>
                <path d="M17.8249249,49.1459979 C15.8788305,49.1459979 13.9388734,48.6287876 12.2145601,47.6501609 C7.01372318,44.6162232 5.2566309,37.9145279 8.29363734,32.7083906 C10.1412554,29.2900322 13.7539163,27.1589807 17.7154292,27.1589807 C19.6503648,27.1589807 21.5582403,27.6753541 23.232897,28.6521674 C25.768176,30.1311266 27.5888734,32.4990236 28.3598069,35.3195494 C29.1360408,38.159324 28.7566416,41.145 27.2914914,43.7264485 C25.3110837,47.1216524 21.7731867,49.1459979 17.8249249,49.1459979 Z M17.7154292,27.9958906 C14.0617597,27.9958906 10.7311373,29.9585837 9.02328326,33.1181974 C7.65549356,35.4633584 7.28083691,38.1806652 7.96152361,40.7812232 C8.64248927,43.383176 10.3012446,45.565 12.6320386,46.9245601 C14.2262124,47.8293991 16.0233369,48.3089485 17.8249249,48.3089485 C21.4721781,48.3089485 24.7398927,46.4399893 26.5661695,43.3091094 C29.3728863,38.3636695 27.7247318,32.2412554 22.8112339,29.3749785 C21.2643455,28.4727897 19.5022318,27.9958906 17.7154292,27.9958906 Z" id="Shape" fill-rule="nonzero"></path>
                <path d="M12.2812339,52.4471888 C12.2087017,52.4471888 12.1351931,52.4283584 12.0683798,52.3887446 L8.30228541,50.156985 C8.10742489,50.0414914 8.03977468,49.7918133 8.14982833,49.5937446 L10.242103,45.8276502 C10.3008262,45.7219206 10.4023712,45.6468777 10.5206545,45.6216309 C10.6385193,45.5959657 10.7622425,45.6235837 10.8589056,45.6959764 C10.9501288,45.7644635 11.0449785,45.8365773 11.1424785,45.9105043 C11.6269099,46.2786052 12.1759227,46.6956652 12.6083262,46.911867 C12.6178112,46.9166094 12.6272961,46.9217704 12.6365021,46.9273498 C13.3051931,47.3285086 13.9676073,47.5933906 14.6689378,47.8740343 C14.7823391,47.919367 14.8703541,48.0121245 14.9096888,48.1277575 C14.9490236,48.24353 14.935912,48.3706009 14.8735622,48.4757725 L12.6418026,52.241867 C12.5635515,52.3738197 12.424206,52.4471888 12.2812339,52.4471888 Z M9.07907725,49.6443777 L12.1350536,51.4553112 L13.9049785,48.4685193 C13.3510837,48.2417167 12.7856116,47.9914807 12.2193026,47.6530901 C11.7539807,47.4176395 11.221706,47.0212232 10.7395064,46.6554936 L9.07907725,49.6443777 Z" id="Shape" fill-rule="nonzero"></path>
                <path d="M6.02296137,64.9960944 C6.02282189,64.9960944 6.02282189,64.9960944 6.02296137,64.9960944 C5.72237124,64.9960944 5.42136266,64.9391845 5.15201717,64.8313627 C5.12928112,64.8224356 5.10752146,64.8112768 5.0867382,64.7984442 L1.07012876,62.3054292 C0.634238197,62.1168455 0.293755365,61.7137339 0.154967811,61.2191202 C0.0216201717,60.7436159 0.0958261803,60.2491416 0.353175966,59.8901073 L6.04709227,50.0299142 C6.27821888,49.4902468 6.84118026,49.1433476 7.49104077,49.1433476 C7.84881974,49.1433476 8.19320815,49.2504721 8.46408798,49.4451931 L12.6272961,51.8043026 C13.0687661,52.0689056 13.3823283,52.4633691 13.5193026,52.9199034 C13.6629721,53.3988948 13.59853,53.9020172 13.3378326,54.3365129 L7.6356867,64.0720064 C7.3904721,64.642779 6.77618026,64.9960944 6.02296137,64.9960944 Z M5.49487124,64.066706 C5.65806867,64.127382 5.83995708,64.1591845 6.02296137,64.1591845 C6.02296137,64.1591845 6.02296137,64.1591845 6.02296137,64.1591845 C6.35019313,64.1591845 6.74507511,64.0462017 6.87172747,63.7295708 C6.87953863,63.7101824 6.88874464,63.6914914 6.89920601,63.6734979 L12.6180901,53.9095494 C12.7973283,53.6107725 12.7711052,53.3375215 12.7178219,53.1603755 C12.6409657,52.9038627 12.4590773,52.6790129 12.205912,52.5271137 L8.0302897,50.1611695 C8.01480687,50.152382 7.99974249,50.1424785 7.98551502,50.1318777 C7.85509657,50.0339592 7.67948498,49.980118 7.49118026,49.980118 C7.23829399,49.980118 6.927103,50.082779 6.81174893,50.3709549 C6.80435622,50.3895064 6.79556867,50.4075 6.78552575,50.4247961 L1.06664163,60.3282296 C1.05827253,60.3427361 1.04906652,60.3566845 1.03902361,60.3700751 C0.923669528,60.523927 0.894377682,60.7567275 0.960772532,60.993294 C1.03344421,61.2525966 1.2043133,61.4584764 1.41758584,61.5438412 C1.44032189,61.5527682 1.46208155,61.563927 1.48286481,61.5767597 L5.49487124,64.066706 Z" id="Shape" fill-rule="nonzero"></path>
                <path d="M4.91475322,62.1335837 C4.58542918,62.1335837 4.26084764,62.0433369 3.9761588,61.8724678 C3.96388412,61.8650751 3.95188841,61.8571245 3.94045064,61.8484764 C3.23451717,61.3189914 2.86334764,60.2403541 3.42505365,59.4671888 C3.78087983,58.8869313 4.37745708,58.5274785 4.98672747,58.5274785 C5.29108369,58.5274785 5.57856223,58.6196781 5.81945279,58.7944528 C6.71996781,59.3468133 7.02069742,60.4479077 6.50306867,61.3106223 C6.49567597,61.322897 6.48772532,61.3348927 6.47907725,61.3463305 C6.11488197,61.8318777 5.51551502,62.1335837 4.91475322,62.1335837 Z M4.4255794,61.1658369 C4.57719957,61.2527361 4.74179185,61.2966738 4.91475322,61.2966738 C5.25021459,61.2966738 5.58609442,61.1304077 5.79643777,60.8613412 C5.96130901,60.5735837 5.93508584,60.3080043 5.88305794,60.134485 C5.80620172,59.8779721 5.6243133,59.6531223 5.37114807,59.5012232 C5.35887339,59.4938305 5.34687768,59.4858798 5.33543991,59.4772318 C5.23556867,59.4023283 5.1182618,59.3642489 4.98686695,59.3642489 C4.66842275,59.3642489 4.33296137,59.5807296 4.13196352,59.915633 C4.12457082,59.9279077 4.11662017,59.9399034 4.1079721,59.9513412 C3.84364807,60.3036803 4.05664163,60.876824 4.4255794,61.1658369 Z" id="Shape" fill-rule="nonzero"></path>
                <path d="M13.8155687,45.3335944 C13.7468026,45.3335944 13.6770601,45.3165773 13.6127575,45.2807296 C11.7012554,44.2188305 10.3294206,42.4430472 9.75027897,40.2807511 C9.17671674,38.1390987 9.45038627,35.8985515 10.5209335,33.971427 C10.6332189,33.7695923 10.8879185,33.6965021 11.0900322,33.808927 C11.2920064,33.9212124 11.3648176,34.175912 11.2526717,34.3778863 C10.2879936,36.1140558 10.0416631,38.1336588 10.5587339,40.0642704 C11.0787339,42.0056223 12.3077361,43.5984013 14.0192167,44.5492704 C14.221191,44.6615558 14.2940021,44.9162554 14.1818562,45.1182296 C14.1054185,45.2557618 13.9627253,45.3335944 13.8155687,45.3335944 Z" id="Path"></path>
                <path d="M25.6722103,38.638176 C25.4410837,38.638176 25.2537554,38.4508476 25.2537554,38.219721 C25.2537554,35.4312768 23.8251502,33.0146996 21.4322854,31.7552897 C21.2278004,31.6477468 21.1492704,31.3945815 21.2569528,31.1900966 C21.3646352,30.9856116 21.6175215,30.9070815 21.8221459,31.0147639 C24.4949571,32.42147 26.0908047,35.1150644 26.0908047,38.2198605 C26.0906652,38.4508476 25.9033369,38.638176 25.6722103,38.638176 Z" id="Path"></path>
                <path d="M42.4104077,55.3763734 L15.4898069,55.3763734 C15.2586803,55.3763734 15.0713519,55.1890451 15.0713519,54.9579185 C15.0713519,54.7267918 15.2586803,54.5394635 15.4898069,54.5394635 L42.4104077,54.5394635 C42.6415343,54.5394635 42.8288627,54.7267918 42.8288627,54.9579185 C42.8288627,55.1890451 42.6415343,55.3763734 42.4104077,55.3763734 Z" id="Path"></path>
                <path d="M49.9425966,57.0501931 L31.2516094,57.0501931 C31.0204828,57.0501931 30.8331545,56.8628648 30.8331545,56.6317382 C30.8331545,56.4006116 31.0204828,56.2132833 31.2516094,56.2132833 L49.9425966,56.2132833 C50.1737232,56.2132833 50.3610515,56.4006116 50.3610515,56.6317382 C50.3610515,56.8628648 50.1737232,57.0501931 49.9425966,57.0501931 Z" id="Path"></path>
                <path d="M54.1271459,57.0501931 L51.8953863,57.0501931 C51.6642597,57.0501931 51.4769313,56.8628648 51.4769313,56.6317382 C51.4769313,56.4006116 51.6642597,56.2132833 51.8953863,56.2132833 L54.1271459,56.2132833 C54.3582725,56.2132833 54.5456009,56.4006116 54.5456009,56.6317382 C54.5456009,56.8628648 54.3582725,57.0501931 54.1271459,57.0501931 Z" id="Path"></path>
                <path d="M23.3009657,57.0501931 L14.373927,57.0501931 C14.1428004,57.0501931 13.9554721,56.8628648 13.9554721,56.6317382 C13.9554721,56.4006116 14.1428004,56.2132833 14.373927,56.2132833 L23.3009657,56.2132833 C23.5320923,56.2132833 23.7194206,56.4006116 23.7194206,56.6317382 C23.7194206,56.8628648 23.5320923,57.0501931 23.3009657,57.0501931 Z" id="Path"></path>
                <path d="M48.5477468,9.06736052 L20.0928112,9.06736052 C19.8616845,9.06736052 19.6743562,8.88003219 19.6743562,8.64890558 C19.6743562,8.41777897 19.8616845,8.23045064 20.0928112,8.23045064 L48.5477468,8.23045064 C48.7788734,8.23045064 48.9662017,8.41777897 48.9662017,8.64890558 C48.9662017,8.88003219 48.7788734,9.06736052 48.5477468,9.06736052 Z" id="Path"></path>
            </g>
        </g>
    </g>
</svg>