<?xml version="1.0" encoding="UTF-8"?>
<svg width="99px" height="99px" viewBox="0 0 99 99" version="1.1" xmlns="http://www.w3.org/2000/svg" xmlns:xlink="http://www.w3.org/1999/xlink">
    <!-- Generator: Sketch 52.3 (67297) - http://www.bohemiancoding.com/sketch -->
    <title>Group 7</title>
    <desc>Created with Sketch.</desc>
    <defs>
        <filter x="-14.1%" y="-11.8%" width="128.2%" height="128.2%" filterUnits="objectBoundingBox" id="filter-1">
            <feOffset dx="0" dy="0" in="SourceAlpha" result="shadowOffsetOuter1"></feOffset>
            <feGaussianBlur stdDeviation="2" in="shadowOffsetOuter1" result="shadowBlurOuter1"></feGaussianBlur>
            <feColorMatrix values="0 0 0 0 0   0 0 0 0 0   0 0 0 0 0  0 0 0 0.5 0" type="matrix" in="shadowBlurOuter1" result="shadowMatrixOuter1"></feColorMatrix>
            <feMerge>
                <feMergeNode in="shadowMatrixOuter1"></feMergeNode>
                <feMergeNode in="SourceGraphic"></feMergeNode>
            </feMerge>
        </filter>
        <circle id="path-2" cx="42.5" cy="42.5" r="42.5"></circle>
        <filter x="-8.2%" y="-5.9%" width="116.5%" height="116.5%" filterUnits="objectBoundingBox" id="filter-4">
            <feOffset dx="0" dy="2" in="SourceAlpha" result="shadowOffsetOuter1"></feOffset>
            <feGaussianBlur stdDeviation="2" in="shadowOffsetOuter1" result="shadowBlurOuter1"></feGaussianBlur>
            <feColorMatrix values="0 0 0 0 0   0 0 0 0 0   0 0 0 0 0  0 0 0 0.5 0" type="matrix" in="shadowBlurOuter1"></feColorMatrix>
        </filter>
        <filter x="-12.9%" y="-17.8%" width="125.8%" height="135.6%" filterUnits="objectBoundingBox" id="filter-5">
            <feOffset dx="0" dy="0" in="SourceAlpha" result="shadowOffsetOuter1"></feOffset>
            <feGaussianBlur stdDeviation="2" in="shadowOffsetOuter1" result="shadowBlurOuter1"></feGaussianBlur>
            <feColorMatrix values="0 0 0 0 0   0 0 0 0 0   0 0 0 0 0  0 0 0 0.5 0" type="matrix" in="shadowBlurOuter1" result="shadowMatrixOuter1"></feColorMatrix>
            <feMerge>
                <feMergeNode in="shadowMatrixOuter1"></feMergeNode>
                <feMergeNode in="SourceGraphic"></feMergeNode>
            </feMerge>
        </filter>
    </defs>
    <g id="Page-1" stroke="none" stroke-width="1" fill="none" fill-rule="evenodd">
        <g id="Artboard" transform="translate(-81.000000, -91.000000)">
            <g id="Group-7" transform="translate(88.000000, 96.000000)">
                <g id="Group-6">
                    <g id="Group-3" filter="url(#filter-1)">
                        <mask id="mask-3" fill="white">
                            <use xlink:href="#path-2"></use>
                        </mask>
                        <g id="Mask">
                            <use fill="black" fill-opacity="1" filter="url(#filter-4)" xlink:href="#path-2"></use>
                            <use fill="#FFFFFF" fill-rule="evenodd" xlink:href="#path-2"></use>
                        </g>
                    </g>
                </g>
                <g id="Group-21" filter="url(#filter-5)" transform="translate(11.000000, 22.000000)">
                    <g id="Group" transform="translate(1.000000, 1.000000)">
                        <path d="M54.2628916,0.892712919 C38.0843373,-0.19607177 21.9056627,-0.19607177 5.72710843,0.892712919 C3.31156627,1.0552488 1.38168675,2.66795455 1.12048193,4.72475359 C-0.299518072,15.9056794 -0.299518072,27.0865024 1.12048193,38.2674282 C1.38168675,40.3242273 3.31156627,41.936933 5.72698795,42.0994689 C21.9055422,43.1882536 38.0842169,43.1882536 54.2627711,42.0994689 C56.6783133,41.936933 58.6080723,40.3242273 58.8692771,38.2674282 C60.2892771,27.0865024 60.2892771,15.9056794 58.8692771,4.72475359 C58.6081928,2.66795455 56.6783133,1.0552488 54.2628916,0.892712919 Z" id="Path" fill="#E4F6FF"></path>
                        <path d="M59.5349398,11.2228971 L59.5108434,11.2208397 C39.8339759,9.7395 20.156988,9.7395 0.480120482,11.2208397 L0.456024096,11.2239258 C0.623493976,9.05746651 0.845180723,6.89203589 1.12108434,4.72567943 C1.38253012,2.66826316 3.3126506,1.0552488 5.72710843,0.892712919 C21.9063855,-0.195660287 38.0845783,-0.195660287 54.2639759,0.892712919 C56.6784337,1.0552488 58.6085542,2.66826316 58.87,4.72567943 C59.1457831,6.89100718 59.3674699,9.05746651 59.5349398,11.2228971 Z" id="Path" fill="#617881"></path>
                        <ellipse id="Oval" fill="#DA4A54" cx="7.67951807" cy="5.53887321" rx="2.82614458" ry="2.41304067"></ellipse>
                        <ellipse id="Oval" fill="#86F1A7" cx="24.6362651" cy="5.53887321" rx="2.82614458" ry="2.41304067"></ellipse>
                        <ellipse id="Oval" fill="#F4DD45" cx="16.1578313" cy="5.53887321" rx="2.82614458" ry="2.41304067"></ellipse>
                        <g transform="translate(28.313253, 2.983254)" id="Path">
                            <path d="M21.2884337,5.59853828 L22.9037349,3.04528469 C23.3119277,2.39997608 23.029759,1.59285167 22.2739759,1.24422249 L19.9545783,0.17457177 C19.1977108,-0.1744689 18.253494,0.0669688995 17.8451807,0.712277512 L16.2298795,3.2655311" fill="#E4F6FF"></path>
                            <path d="M21.8562651,1.05154545 C21.0993976,0.702504785 20.1551807,0.943942584 19.7468675,1.5892512 L18.1315663,4.14250478 L16.2298795,3.26542823 L17.8451807,0.712174641 C18.2533735,0.0668660287 19.1977108,-0.174674641 19.9545783,0.1744689 L21.8562651,1.05154545 Z" fill="#B9E4EF"></path>
                            <path d="M15.5987952,18.7349354 C10.076747,27.4637297 3.55915663,33.5995622 1.04156627,32.4384593 C-1.4760241,31.2773565 0.960361446,23.2592967 6.48240964,14.5305024 C9.28228916,10.1045885 12.3387952,6.34486603 14.9986747,3.86609091 C15.7216867,3.19238995 16.8896386,3.0272823 17.8312048,3.4615 L20.2183133,4.56242344 C21.16,4.99674402 21.6385542,5.92114115 21.3750602,6.80685885 C20.4055422,10.065189 18.3986747,14.3090215 15.5987952,18.7349354 Z" fill="#6BBEF6"></path>
                            <path d="M1.04156627,32.4384593 C-1.4760241,31.2773565 0.960361446,23.2592967 6.48240964,14.5305024 C9.28228916,10.1045885 12.3384337,6.34507177 14.9984337,3.86557656 C15.7214458,3.19238995 16.889759,3.02738517 17.8310843,3.4615 L18.6961446,3.86043301 C18.4374699,3.74110287 17.866988,4.18190431 17.3114458,4.93234689 C15.2631325,7.69391388 12.5875904,11.6289282 9.78759036,16.0548421 C4.26566265,24.7836364 0.34939759,32.1192512 1.04156627,32.4384593 Z" fill="#528ECB"></path>
                        </g>
                    </g>
                    <g id="Group" fill="#000000">
                        <path d="M60.918875,5.42958333 C60.608875,2.97177083 58.3122109,1.04739583 55.4579102,0.853854167 C41.4196328,-0.0978125 27.1865156,-0.228229167 13.154293,0.46625 C12.6535703,0.491041667 12.2709141,0.8603125 12.2997344,1.29104167 C12.3285547,1.72177083 12.7580742,2.05083333 13.2585547,2.02614583 C27.2090391,1.33583333 41.3588438,1.46541667 55.3151406,2.41145833 C57.2998672,2.54604167 58.8970938,3.88625 59.1130039,5.598125 C59.3495,7.47385417 59.5455508,9.35416667 59.7029727,11.2372917 C58.1309336,11.1221875 56.5521133,11.0157292 54.972082,10.9189583 C54.5700508,9.84760417 53.6955117,8.96927083 52.3998086,8.35770833 L53.1238281,7.20479167 C53.7718008,6.1728125 53.3229063,4.87979167 52.1233516,4.32239583 L49.7921758,3.23927083 C48.5926211,2.68197917 47.0893633,3.06791667 46.4413906,4.09989583 L44.9979531,6.39864583 C44.5176953,6.5484375 44.0734023,6.795625 43.7097578,7.13697917 C42.7288984,8.05791667 41.7190977,9.12427083 40.7039688,10.3063542 C27.9492852,9.9909375 15.033668,10.3044792 2.28685547,11.2372917 C2.44427734,9.35416667 2.64020703,7.47385417 2.87682422,5.598125 C3.09273438,3.88625 4.68996094,2.54604167 6.67492969,2.41145833 C7.69575,2.34197917 8.6974375,2.2784375 9.65238281,2.2225 C10.1527422,2.19322917 10.5307969,1.82041667 10.4967695,1.39 C10.4627422,0.959583333 10.0303164,0.634479167 9.52898828,0.663645833 C8.567625,0.72 7.55915625,0.783958333 6.53203906,0.853854167 C3.67761719,1.04739583 1.38095313,2.971875 1.07095313,5.4296875 C-0.356984375,16.7540625 -0.356984375,28.2380208 1.07095313,39.5625 C1.38095313,42.0203125 3.67761719,43.9446875 6.53191797,44.1382292 C14.6547656,44.6884375 22.8396133,44.9639583 31.0163477,44.9638542 C37.1969727,44.9638542 43.3737227,44.8064583 49.5107539,44.4913542 C50.0114766,44.465625 50.3931641,44.095625 50.3632539,43.665 C50.3333438,43.2342708 49.9044297,42.9060417 49.4024961,42.9316667 C35.2296836,43.6592708 20.853918,43.5411458 6.67456641,42.580625 C4.68983984,42.4460417 3.09261328,41.1058333 2.87670313,39.3939583 C1.76542578,30.5805208 1.52808203,21.6695833 2.16382422,12.814375 C14.5271328,11.9007292 27.0528281,11.5736458 39.4353906,11.840625 C38.0753867,13.5455208 36.7231328,15.4360417 35.434332,17.4419792 L17.7892773,17.4419792 C17.287707,17.4419792 16.8810742,17.7917708 16.8810742,18.2232292 C16.8810742,18.6546875 17.287707,19.0044792 17.7892773,19.0044792 L34.4580742,19.0044792 C33.8719805,19.9689583 33.3202773,20.9288542 32.8051445,21.8763542 L17.7892773,21.8763542 C17.287707,21.8763542 16.8810742,22.2261458 16.8810742,22.6576042 C16.8810742,23.0890625 17.287707,23.4388542 17.7892773,23.4388542 L31.9838867,23.4388542 C31.4863125,24.4194792 31.0336641,25.3797917 30.6298164,26.310625 L7.73546875,26.310625 C7.23389844,26.310625 6.82726563,26.6604167 6.82726563,27.091875 C6.82726563,27.5233333 7.23389844,27.873125 7.73546875,27.873125 L29.9874141,27.873125 C29.6739023,28.6828125 29.4004727,29.4648958 29.1764492,30.2079167 C29.1213516,30.390625 29.0703711,30.5689583 29.0214492,30.745 L7.73546875,30.745 C7.23389844,30.745 6.82726563,31.0947917 6.82726563,31.52625 C6.82726563,31.9577083 7.23389844,32.3075 7.73546875,32.3075 L28.6522344,32.3075 C28.2537148,34.4148958 28.4316016,35.8978125 29.1834727,36.7402083 L28.9737383,37.0340625 C28.7113281,37.4017708 28.8450156,37.8828125 29.2724766,38.1086458 C29.4206953,38.186875 29.5847773,38.2241667 29.7468008,38.2241667 C30.0520781,38.2241667 30.3502109,38.0917708 30.5216797,37.8515625 L30.7654414,37.51 C30.8572305,37.5186458 30.9504727,37.5234375 31.0457734,37.5234375 C32.6283477,37.5234375 34.6938438,36.3234375 37.2075078,33.9394792 C37.7381406,33.43625 38.2771289,32.8905208 38.8207188,32.3075 L54.2544805,32.3075 C54.7560508,32.3075 55.1626836,31.9577083 55.1626836,31.52625 C55.1626836,31.0947917 54.7560508,30.745 54.2544805,30.745 L40.2118438,30.745 C40.9764297,29.8484375 41.7436797,28.8867708 42.5034219,27.873125 L43.611793,27.873125 C43.4601836,28.2969792 43.3987891,28.6672917 43.4394766,28.9877083 C43.4902148,29.3879167 43.8837695,29.684375 44.3411406,29.684375 C44.373957,29.684375 44.4072578,29.6828125 44.4408008,29.6796875 C44.9394648,29.6329167 45.2994766,29.2472917 45.2451055,28.8183333 C45.2320273,28.7145833 45.2541875,28.4546875 45.5413008,27.8732292 L54.2542383,27.8732292 C54.7558086,27.8732292 55.1624414,27.5234375 55.1624414,27.0919792 C55.1624414,26.6605208 54.7558086,26.3107292 54.2542383,26.3107292 L46.4836523,26.3107292 C47.0695039,25.4475 47.8052695,24.473125 48.6037617,23.4389583 L54.2542383,23.4389583 C54.7558086,23.4389583 55.1624414,23.0891667 55.1624414,22.6577083 C55.1624414,22.22625 54.7558086,21.8764583 54.2542383,21.8764583 L49.8163945,21.8764583 C50.5639063,20.91375 51.308875,19.9467708 51.996082,19.0045833 L54.2542383,19.0045833 C54.7558086,19.0045833 55.1624414,18.6547917 55.1624414,18.2233333 C55.1624414,17.791875 54.7558086,17.4420833 54.2542383,17.4420833 L53.0921016,17.4420833 C54.1404102,15.8726042 54.9194063,14.4282292 55.1378594,13.2625 C55.1865391,13.0022917 55.213543,12.7483333 55.2216563,12.5004167 C56.7599102,12.5960417 58.2964688,12.7014583 59.8258828,12.8145833 C60.461625,21.6697917 60.2244023,30.5807292 59.1130039,39.3941667 C58.8970938,41.1060417 57.2998672,42.44625 55.3151406,42.5808333 C54.4623984,42.6385417 53.7102852,42.6867708 53.0156914,42.7282292 C52.515332,42.7580208 52.1377617,43.1311458 52.1725156,43.5615625 C52.2056953,43.9736458 52.6045781,44.2888542 53.0775703,44.2888542 C53.0986406,44.2888542 53.1199531,44.2882292 53.1412656,44.2869792 C53.8416719,44.2452083 54.5993555,44.1966667 55.4577891,44.1385417 C58.3120898,43.945 60.6087539,42.020625 60.9187539,39.5628125 C62.3468125,28.2379167 62.3468125,16.7540625 60.918875,5.42958333 Z M52.919543,10.7977083 C52.510125,10.7747917 52.1021602,10.7539583 51.6934688,10.7323958 C51.7684258,10.4321875 51.7850156,10.130625 51.7469922,9.83708333 C52.253043,10.1040625 52.644418,10.4244792 52.919543,10.7977083 Z M48.9288984,4.6140625 L51.2600742,5.6971875 C51.5784297,5.84510417 51.6975859,6.18833333 51.5256328,6.4621875 L50.5720195,7.9809375 C50.4136289,7.8696875 50.2427656,7.76864583 50.05725,7.6825 L47.6580195,6.56770833 C47.4727461,6.4815625 47.2809336,6.4140625 47.0859727,6.36114583 L48.0395859,4.8425 C48.2115391,4.56864583 48.6106641,4.46614583 48.9288984,4.6140625 Z M45.0490547,8.19260417 C45.3280547,7.930625 45.7142227,7.7925 46.1070508,7.7925 C46.3410039,7.7925 46.5772578,7.8415625 46.7947422,7.94260417 L49.1939727,9.05739583 C49.7765547,9.328125 50.070207,9.90083333 49.9079414,10.4503125 C48.9073438,13.8384375 46.8743008,18.064375 44.1835977,22.3496875 C43.0966602,24.080625 41.9585,25.7310417 40.8066563,27.2536458 L33.7042656,23.9535417 C34.5532539,22.2895833 35.5319336,20.5663542 36.6191133,18.8348958 C39.3098164,14.5495833 42.3037383,10.7701042 45.0490547,8.19260417 Z M35.8620352,32.8895833 C32.8504336,35.7458333 31.2228125,36.1140625 30.7832422,35.9096875 C30.3434297,35.7053125 29.8091641,34.3326042 30.9347305,30.6001042 C31.4114766,29.019375 32.1120039,27.2582292 32.9929609,25.3988542 L39.7918906,28.5579167 C38.4665195,30.2117708 37.1378789,31.6795833 35.8620352,32.8895833 Z M44.4056836,26.3105208 L43.6395234,26.3105208 C44.2924609,25.3848958 44.9357109,24.4248958 45.5627344,23.43875 L46.4310977,23.43875 C45.595793,24.5409375 44.9101602,25.4923958 44.4056836,26.3105208 Z M47.9241836,21.4998958 C47.8253711,21.6270833 47.7281328,21.7522917 47.6318633,21.87625 L46.527125,21.87625 C47.1075273,20.9105208 47.6557188,19.9502083 48.1634648,19.004375 L49.8413398,19.004375 C49.2131055,19.8415625 48.5575039,20.6852083 47.9241836,21.4998958 Z M53.3447031,13.01375 C53.134,14.1383333 52.1892266,15.725625 50.9811953,17.441875 L48.9737031,17.441875 C49.8832383,15.6235417 50.6354727,13.8790625 51.2012227,12.2716667 C51.9362617,12.3097917 52.6720273,12.3494792 53.4096094,12.3919792 C53.406582,12.5911458 53.3850273,12.7983333 53.3447031,13.01375 Z" id="Shape" fill-rule="nonzero"></path>
                        <path d="M4.81747266,6.33770833 C4.81747266,8.11583333 6.49910156,9.56239583 8.56617187,9.56239583 C10.6331211,9.56239583 12.3148711,8.11583333 12.3148711,6.33770833 C12.3148711,4.55958333 10.6332422,3.113125 8.56617187,3.113125 C6.49922266,3.113125 4.81747266,4.5596875 4.81747266,6.33770833 Z M10.4984648,6.33770833 C10.4984648,7.25427083 9.63167578,7.99989583 8.56617188,7.99989583 C7.50066797,7.99989583 6.63387891,7.25427083 6.63387891,6.33770833 C6.63387891,5.42114583 7.50066797,4.67552083 8.56617188,4.67552083 C9.63167578,4.675625 10.4984648,5.42125 10.4984648,6.33770833 Z" id="Shape" fill-rule="nonzero"></path>
                        <path d="M29.3576055,6.33770833 C29.3576055,4.55958333 27.6759766,3.11302083 25.6089063,3.11302083 C23.5418359,3.11302083 21.860207,4.55958333 21.860207,6.33770833 C21.860207,8.11583333 23.5418359,9.56239583 25.6089063,9.56239583 C27.6759766,9.56239583 29.3576055,8.11583333 29.3576055,6.33770833 Z M23.6767344,6.33770833 C23.6767344,5.42114583 24.5435234,4.67552083 25.6090273,4.67552083 C26.6745313,4.67552083 27.5413203,5.42114583 27.5413203,6.33770833 C27.5413203,7.25427083 26.6745313,7.99989583 25.6090273,7.99989583 C24.5435234,7.99989583 23.6767344,7.25427083 23.6767344,6.33770833 Z" id="Shape" fill-rule="nonzero"></path>
                        <path d="M20.8362383,6.33770833 C20.8362383,4.55958333 19.1546094,3.11302083 17.0875391,3.11302083 C15.0204687,3.11302083 13.3388398,4.55958333 13.3388398,6.33770833 C13.3388398,8.11583333 15.0204687,9.56239583 17.0875391,9.56239583 C19.1546094,9.56239583 20.8362383,8.11583333 20.8362383,6.33770833 Z M15.1553672,6.33770833 C15.1553672,5.42114583 16.0221562,4.67552083 17.0876602,4.67552083 C18.1531641,4.67552083 19.0199531,5.42114583 19.0199531,6.33770833 C19.0199531,7.25427083 18.1531641,7.99989583 17.0876602,7.99989583 C16.0221562,7.99989583 15.1553672,7.25427083 15.1553672,6.33770833 Z" id="Shape" fill-rule="nonzero"></path>
                        <path d="M7.73583203,35.1797917 C7.23426172,35.1797917 6.82762891,35.5295833 6.82762891,35.9610417 C6.82762891,36.3925 7.23426172,36.7422917 7.73583203,36.7422917 L23.9906094,36.7422917 C24.4921797,36.7422917 24.8988125,36.3925 24.8988125,35.9610417 C24.8988125,35.5295833 24.4921797,35.1797917 23.9906094,35.1797917 L7.73583203,35.1797917 Z" id="Path"></path>
                        <path d="M10.3378945,14.1834375 L7.73546875,14.1834375 C7.23389844,14.1834375 6.82726562,14.5332292 6.82726562,14.9646875 L6.82726562,18.5135417 L6.82726562,18.5192708 L6.82726562,22.6716667 C6.82726562,22.8794792 6.92353516,23.07875 7.09464062,23.2253125 C7.26489844,23.3711458 7.49533984,23.4529167 7.73546875,23.4529167 L7.73946484,23.4529167 C7.73946484,23.4529167 10.1327617,23.44375 10.7923594,23.44375 C12.6229336,23.44375 14.1121445,22.1627083 14.1121445,20.5880208 C14.1121445,19.630625 13.5610469,18.7825 12.7181133,18.2640625 C13.0881758,17.8380208 13.3075977,17.3096875 13.3075977,16.738125 C13.3077187,15.329375 11.9754453,14.1834375 10.3378945,14.1834375 Z M10.3378945,15.7459375 C10.9738789,15.7459375 11.4911914,16.1909375 11.4911914,16.7380208 C11.4911914,17.2851042 10.9738789,17.7301042 10.3378945,17.7301042 C10.1465664,17.7301042 9.78619141,17.7310417 9.39336328,17.7321875 L8.64367187,17.7321875 L8.64367187,15.7458333 L10.3378945,15.7458333 L10.3378945,15.7459375 Z M10.7924805,21.8811458 C10.4000156,21.8811458 9.39566406,21.884375 8.64367187,21.8869792 L8.64367187,19.2970833 C8.88464844,19.29625 9.14705859,19.2954167 9.39663281,19.2945833 L10.7924805,19.2945833 C11.6214883,19.2945833 12.2958594,19.8746875 12.2958594,20.5878125 C12.2958594,21.3010417 11.6213672,21.8811458 10.7924805,21.8811458 Z" id="Shape" fill-rule="nonzero"></path>
                    </g>
                </g>
            </g>
        </g>
    </g>
</svg>