<?xml version="1.0" encoding="UTF-8"?>
<svg width="175px" height="236px" viewBox="0 0 175 236" version="1.1" xmlns="http://www.w3.org/2000/svg" xmlns:xlink="http://www.w3.org/1999/xlink">
    <!-- Generator: Sketch 52.3 (67297) - http://www.bohemiancoding.com/sketch -->
    <title>noun_employment success_2737223</title>
    <desc>Created with Sketch.</desc>
    <g id="Page-1" stroke="none" stroke-width="1" fill="none" fill-rule="evenodd">
        <g id="noun_employment-success_2737223" fill="#111D5E">
            <g id="Group">
                <path d="M66.821,130.029 L48.362,141.998 L45.551,137.663 L50.389,134.526 C51.406,134.972 52.501,135.213 53.608,135.213 C55.226,135.213 56.86,134.723 58.273,133.706 C60.43,132.154 61.576,129.728 61.593,127.261 L61.831,127.107 C43.386,119.787 32.756,107.361 26.748,96.773 C17.834,81.061 17.139,66.061 17.113,65.43 C16.884,59.813 21.268,55.054 26.887,54.824 C27.034,54.817 27.194,54.813 27.353,54.813 C32.798,54.813 37.252,59.096 37.495,64.565 C37.527,65.202 37.897,71.098 40.668,78.568 C40.881,77.513 41.09,76.482 41.295,75.47 C41.484,77.384 41.626,79.3 41.727,81.217 C43.675,85.738 46.518,90.645 50.653,95.222 C49.168,82.005 45.483,64.202 41.95,56.187 C40.341,51.512 37.219,47.825 32.828,46.731 C24.291,44.602 11.916,49.239 6.881,63.881 C0.076,84.055 -1.386,97.186 1.2,119.401 C3.309,130.254 9.011,134.538 15.31,136.145 C19.82,151.106 26.345,183.431 13.279,218.71 C10.882,225.185 14.185,232.376 20.659,234.773 C22.091,235.303 23.557,235.554 24.999,235.554 C30.079,235.554 34.855,232.435 36.723,227.393 C45.119,204.724 46.852,183.287 45.785,165.438 L57.792,183.955 L101.282,155.754 L86.439,132.863 C78.754,132.112 71.94,130.616 65.889,128.589 L66.821,130.029 Z M46.821,131.476 L41.053,135.216 C39.6,129.565 38.099,125.057 36.948,121.937 C36.646,119.672 36.475,117.357 36.4,115.013 C39.327,120.304 42.765,125.805 46.821,131.476 Z M42.458,141.165 L44.586,144.447 L43.29,145.287 C43.023,143.868 42.745,142.493 42.458,141.165 Z" id="Shape" fill-rule="nonzero"></path>
                <circle id="Oval" cx="48.85" cy="22.5" r="22.5"></circle>
                <path d="M95.396,123.491 C95.826,119.094 92.609,115.18 88.212,114.751 C38.15,109.859 35.394,66.595 35.297,64.662 C35.103,60.261 31.387,56.816 26.978,57.022 C22.564,57.203 19.131,60.927 19.312,65.342 C19.336,65.952 20.023,80.46 28.662,95.687 C36.697,109.848 53.281,127.414 86.656,130.674 C86.921,130.7 87.183,130.713 87.444,130.713 C91.511,130.713 94.992,127.624 95.396,123.491 Z" id="Path"></path>
                <circle id="Oval" cx="126.083" cy="22.5" r="22.5"></circle>
                <path d="M142.105,46.731 C137.714,47.825 134.593,51.512 132.983,56.187 C130.174,62.559 127.27,75.115 125.45,86.64 C119.613,98.361 109.59,110.084 92.439,113.834 C95.845,115.761 97.99,119.567 97.585,123.706 C97.359,126.024 96.381,128.089 94.907,129.675 C101.061,128.442 106.789,126.402 112.055,123.593 L121.933,134.839 C122.456,133.995 123.112,133.215 123.898,132.529 L113.562,120.761 L136.478,100.634 L140.629,105.36 C145.4,86.576 139.849,69.217 139.763,68.958 C137.974,63.629 140.855,57.834 146.187,56.044 C147.24,55.69 148.333,55.512 149.436,55.512 C153.821,55.512 157.706,58.307 159.103,62.467 C159.649,64.091 169.368,94.058 156.138,123.018 L165.844,134.068 L142.928,154.195 L137.359,147.854 C137.327,147.882 137.297,147.91 137.265,147.937 C135.455,149.498 133.153,150.368 130.767,150.406 C127.645,170.534 127.298,197.922 138.213,227.394 C140.08,232.436 144.857,235.556 149.937,235.555 C151.378,235.555 152.845,235.304 154.277,234.774 C160.751,232.377 164.054,225.185 161.657,218.711 C150.914,189.707 153.415,162.702 157.151,145.697 L170.079,134.341 L167.776,131.719 C170.477,129.077 172.615,125.17 173.736,119.402 C176.322,97.187 174.859,84.056 168.054,63.882 C163.017,49.239 150.642,44.602 142.105,46.731 Z" id="Path"></path>
                <rect id="Rectangle" transform="translate(130.515032, 116.954025) rotate(-41.278095) translate(-130.515032, -116.954025) " x="121.015239" y="115.619555" width="18.9995852" height="2.66894174"></rect>
                <path d="M125.729,125.9 L127.491,127.906 L131.706,124.204 C133.613,121.667 135.209,119.054 136.537,116.408 L125.729,125.9 Z" id="Path"></path>
                <path d="M135.826,146.27 C173.462,113.799 157.707,65.218 157.017,63.166 C155.61,58.978 151.077,56.722 146.886,58.129 C142.698,59.535 140.443,64.071 141.849,68.26 C141.984,68.66 154.963,108.627 125.374,134.156 C122.028,137.043 121.656,142.094 124.542,145.439 C126.125,147.273 128.357,148.213 130.604,148.213 C132.455,148.212 134.316,147.574 135.826,146.27 Z" id="Path"></path>
            </g>
        </g>
    </g>
</svg>