<?xml version="1.0" encoding="UTF-8"?>
<svg width="282px" height="242px" viewBox="0 0 282 242" version="1.1" xmlns="http://www.w3.org/2000/svg" xmlns:xlink="http://www.w3.org/1999/xlink">
    <!-- Generator: Sketch 52.3 (67297) - http://www.bohemiancoding.com/sketch -->
    <title>Artboard</title>
    <desc>Created with Sketch.</desc>
    <g id="Artboard" stroke="none" stroke-width="1" fill="none" fill-rule="evenodd">
        <g id="noun_Fair-Businessman_1258365" transform="translate(11.000000, 3.000000)" fill="#111D5E">
            <g id="Group">
                <circle id="Oval" cx="129.589782" cy="22.3109244" r="22.3109244"></circle>
                <path d="M76.7267731,126.765714 L73.1897479,126.765714 L42.8716807,65.5494958 L102.77205,65.5494958 L102.77205,222.928773 C102.77205,229.701378 108.262521,235.187882 115.03116,235.187882 C121.801782,235.187882 127.292252,229.701378 127.292252,222.928773 L127.292252,133.415361 L131.888303,133.415361 L131.888303,222.928773 C131.888303,229.701378 137.378773,235.187882 144.147412,235.187882 C150.918034,235.187882 156.408504,229.701378 156.408504,222.928773 L156.408504,65.5494958 L216.29995,65.5494958 L185.988824,126.765714 L182.453782,126.765714 C185.953126,143.890588 201.799832,156.817042 220.813697,156.817042 C239.836487,156.817042 255.679227,143.890588 259.179563,126.765714 L255.641546,126.765714 L225.287782,65.4741345 C229.176824,64.9634622 232.182353,61.6445882 232.182353,57.6167227 C232.182353,53.2358487 228.629462,49.6849412 224.248588,49.6849412 L34.9309748,49.6849412 C30.5501008,49.6849412 26.9982017,53.2348571 26.9982017,57.6167227 C26.9982017,61.642605 29.9997647,64.9604874 33.8858319,65.4731429 L3.53603361,126.765714 L0,126.765714 C3.49934454,143.890588 19.3460504,156.817042 38.3609076,156.817042 C57.3827059,156.817042 73.226437,143.890588 76.7267731,126.765714 Z M129.587798,68.2218487 C127.676,68.2198655 125.777092,67.5723529 124.226235,66.2803025 L123.936689,65.8241681 L125.820723,58.3871933 L129.589782,58.3871933 L133.356857,58.3871933 L135.240891,65.8241681 L134.954319,66.2763361 C133.402471,67.5713613 131.500588,68.2198655 129.587798,68.2218487 Z M129.589782,122.345176 L120.169613,110.446017 L125.59563,70.4638487 C126.881731,70.9457647 128.235261,71.1976303 129.587798,71.1966387 L129.589782,71.1966387 C129.589782,71.1966387 129.593748,71.1966387 129.595731,71.1966387 C130.947277,71.1966387 132.298824,70.9447731 133.582941,70.4628571 L139.010941,110.446017 L129.589782,122.345176 Z M185.689361,129.351798 L191.693479,129.351798 C195.467496,140.997109 203.311025,150.004773 214.440706,153.696487 C200.848891,151.421765 189.598235,142.009529 185.689361,129.351798 Z M188.20405,126.765714 L218.515176,65.5494958 L223.111227,65.5494958 L253.428303,126.765714 L188.20405,126.765714 Z M36.061395,65.5494958 L40.6574454,65.5494958 L70.9755126,126.765714 L5.74927731,126.765714 L36.061395,65.5494958 Z M3.23557983,129.351798 L9.23969748,129.351798 C13.0137143,140.997109 20.8572437,150.004773 31.9869244,153.696487 C18.3951092,151.421765 7.14445378,142.009529 3.23557983,129.351798 Z" id="Shape" fill-rule="nonzero"></path>
                <rect id="Rectangle" x="13.0702353" y="116.947916" width="16.5269412" height="7.43697479"></rect>
                <rect id="Rectangle" x="52.7341008" y="114.800118" width="8.42857143" height="9.58576471"></rect>
                <rect id="Rectangle" x="32.5719664" y="109.180739" width="17.3529412" height="15.2041513"></rect>
                <rect id="Rectangle" x="195.524017" y="116.947916" width="16.5269412" height="7.43697479"></rect>
                <rect id="Rectangle" x="235.187882" y="114.800118" width="8.42857143" height="9.58576471"></rect>
                <rect id="Rectangle" x="215.025748" y="109.180739" width="17.3529412" height="15.2041513"></rect>
            </g>
        </g>
    </g>
</svg>