<?xml version="1.0" encoding="UTF-8"?>
<svg width="282px" height="242px" viewBox="0 0 282 242" version="1.1" xmlns="http://www.w3.org/2000/svg" xmlns:xlink="http://www.w3.org/1999/xlink">
    <!-- Generator: Sketch 52.3 (67297) - http://www.bohemiancoding.com/sketch -->
    <title>Artboard</title>
    <desc>Created with Sketch.</desc>
    <g id="Artboard" stroke="none" stroke-width="1" fill="none" fill-rule="evenodd">
        <g id="noun_Friends-Drinking_882137" transform="translate(0.000000, 3.000000)" fill="#111D5E">
            <g id="Group">
                <g>
                    <path d="M77.1054108,101.950041 C77.8320166,101.028564 78.7672033,99.8191867 79.9804979,98.0300913 C82.8164149,93.8447635 80.0108548,83.934722 79.4184066,81.985029 C79.4046971,81.5502407 79.0492282,81.2016266 78.6115021,81.2016266 L68.0120664,81.2016266 C67.5743402,81.2016266 67.2178921,81.5492614 67.2051618,81.985029 C66.6127137,83.934722 63.8061743,93.8437842 66.6430705,98.0300913 C66.7047635,98.1211618 66.7615602,98.2014606 66.8212946,98.2895934 C68.2725477,98.6235187 69.7639502,98.8928133 71.3121494,99.0827884 C73.5996846,99.359917 75.6042158,100.41751 77.1054108,101.950041 Z" id="Path"></path>
                    <path d="M67.3716349,121.385278 C66.8222739,121.568398 66.3385228,122.114822 66.4609295,122.356697 L80.1616598,122.356697 C80.2830871,122.114822 79.7963983,121.567419 79.2519336,121.385278 C78.7055104,121.202158 76.7832365,121.101295 75.0656266,118.290838 C74.9187386,118.049942 74.796332,117.764979 74.6856763,117.46239 C73.6829212,117.992166 72.5812614,118.348614 71.418888,118.503336 C69.7375104,121.099336 67.90239,121.207054 67.3716349,121.385278 Z" id="Path"></path>
                    <ellipse id="Oval" transform="translate(45.399967, 26.929383) rotate(-76.890715) translate(-45.399967, -26.929383) " cx="45.3999669" cy="26.9293829" rx="22.0254531" ry="22.0274115"></ellipse>
                    <path d="M16.0009959,138.173593 C18.4951535,146.386589 21.6062407,159.907137 21.5856763,176.128465 C21.5827386,189.071253 19.6477344,203.715004 13.9827552,219.016813 C11.633527,225.358456 14.8699585,232.399286 21.2086639,234.748515 C22.6099751,235.267519 24.0455602,235.513311 25.4576432,235.513311 C30.4332282,235.513311 35.1101411,232.458041 36.9393859,227.519668 C43.7510705,209.126357 46.0679834,191.506656 46.0660249,176.127485 C46.0366473,151.597195 40.2766805,132.729925 37.1646141,124.285826 C36.3048299,117.857029 36.4713029,111.018905 37.1489461,104.256183 C33.1888465,100.684846 29.6400332,96.5191037 26.5739917,91.788332 C20.2039502,81.9155021 17.7969461,72.9004979 17.05761,69.4829046 L17.0350871,69.384 C15.9833693,64.0186722 19.4460083,58.8609461 24.7427884,57.8209793 C25.3685311,57.6985726 26.0089627,57.6349212 26.6415602,57.6349212 C31.2900747,57.6349212 35.3236183,60.9477344 36.2323651,65.5120332 L36.2558672,65.6138755 C36.2754523,65.7029876 36.3048299,65.836166 36.3469378,66.0055768 C36.4575934,66.4511369 36.6358174,67.1346556 36.9041328,68.0081494 C37.4094274,69.6591701 38.3025062,72.2404813 39.6891286,75.1645311 C40.1885477,76.2221245 40.7780581,77.3698091 41.454722,78.5664564 C41.768083,77.025112 42.0716515,75.523917 42.3507386,74.1010622 C45.1602158,64.354556 41.4840996,52.6896929 33.1261743,50.6068216 C24.7662905,48.5219917 12.6480332,53.0627884 7.71749378,67.4010124 C1.05367635,87.1564647 -0.378970954,100.015037 2.15337759,121.768166 C4.22253942,132.414606 9.82092946,136.606788 16.0009959,138.173593 Z" id="Path"></path>
                    <path d="M35.0318008,68.5819917 C34.7507552,67.6634523 34.5627386,66.942722 34.448166,66.4775768 C34.39039,66.246473 34.3531784,66.08 34.3335934,65.9830539 C34.3218423,65.9350705 34.3159668,65.9056929 34.3140083,65.8959004 L34.313029,65.8959004 C33.4689129,61.6635685 29.3580083,58.9099087 25.1217593,59.7442324 C20.8766971,60.5775768 18.1112863,64.6943568 18.9446307,68.9403983 C19.0817261,69.5279502 21.0451286,79.6044647 28.2171784,90.7248631 C31.8110373,96.272332 36.7601826,102.092033 43.5209461,106.875685 C50.2670207,111.663253 58.8442988,115.335452 69.1803154,116.582041 C69.5005311,116.620232 69.8187884,116.639817 70.1331286,116.639817 C74.0374108,116.640797 77.419751,113.724581 77.9035021,109.751751 C78.4244647,105.454788 75.3682158,101.549527 71.0732116,101.027585 C63.2901079,100.068896 57.3744398,97.4689793 52.5682656,94.086639 C45.3874025,89.0258589 40.7202822,81.9380249 37.9196183,76.007668 C36.5202656,73.0532614 35.5938921,70.4220083 35.0318008,68.5819917 Z" id="Path"></path>
                </g>
                <g transform="translate(196.829876, 0.000000)">
                    <path d="M5.21843983,101.252813 C1.92031535,102.515071 -0.217394191,105.900349 0.253626556,109.559817 C0.687435685,112.927469 3.20215768,115.512697 6.33870539,116.205029 C6.31618257,116.245178 6.29855602,116.294141 6.27407469,116.333311 C4.55548548,119.143768 2.63223237,119.24561 2.08776763,119.427751 C1.53840664,119.610871 1.0546556,120.157295 1.17706224,120.39917 L14.8777925,120.39917 C14.9992199,120.157295 14.5125311,119.609892 13.9680664,119.427751 C13.4206639,119.244631 11.4993693,119.143768 9.78175934,116.333311 C9.76217427,116.301975 9.74846473,116.261826 9.72985892,116.228531 C20.5173112,114.736149 29.3129627,110.780946 36.0825394,105.629095 C40.6909046,102.126307 44.356249,98.1476017 47.281278,94.090556 C48.2713029,100.146257 49.0282656,106.472232 49.1780913,112.697344 C52.5663071,104.839817 54.287834,97.0919668 54.3083983,89.5409461 C54.3181909,78.8807967 50.7409793,72.4304564 50.7037676,72.366805 C48.0078838,67.7584398 49.5433527,61.7712863 54.137029,59.0254606 C55.6578091,58.1167137 57.3920664,57.6359004 59.1576598,57.6359004 C62.5870041,57.6359004 65.8087469,59.4622075 67.5674855,62.4019253 C68.6309544,64.2164813 73.879751,73.9737593 73.8944398,89.5448631 C73.9189212,100.600631 71.0781079,117.996083 57.4165477,138.055104 C55.5931784,140.742174 52.5614108,142.344232 49.3093112,142.344232 C47.3449295,142.344232 45.4461577,141.759618 43.8166805,140.652083 C43.8117842,140.649145 43.806888,140.644249 43.8019917,140.641311 C41.617278,150.05683 39.7429876,162.170191 39.7263402,176.125527 C39.7243817,191.505676 42.0393361,209.129295 48.855917,227.520647 C50.6832033,232.459021 55.3610954,235.513311 60.3366805,235.513311 C61.7477842,235.513311 63.1833693,235.267519 64.5856598,234.748515 C70.9253444,232.398307 74.1607967,225.357477 71.813527,219.017793 C66.14561,203.715004 64.2096266,189.072232 64.207668,176.125527 C64.203751,162.292598 66.4403651,150.428946 68.6554357,142.136631 C69.0383237,140.703983 69.4192531,139.385909 69.7874523,138.175552 C75.9704564,136.609726 81.5717842,132.418523 83.6409461,121.770124 C86.1732946,100.016017 84.7406473,87.157444 78.0768299,67.402971 C73.1462905,53.0637676 61.0280332,48.5239502 52.6681494,50.6087801 C46.2736266,52.2020249 42.622971,59.4054108 42.5181909,67.0670871 C41.6760332,70.6462573 40.0318672,75.9704564 36.9736598,81.2163154 C34.4138921,85.6405809 30.9257925,89.989444 26.1597676,93.4873361 C22.3749544,96.2498091 17.7607137,98.5236349 11.9008631,99.89361 C12.6157178,98.9848631 13.5283817,97.7960498 14.6966307,96.0725643 C17.5325477,91.8872365 14.7269876,81.9781743 14.1345394,80.0275021 C14.1208299,79.5927137 13.765361,79.2440996 13.3276349,79.2440996 L2.73015768,79.2440996 C2.29243154,79.2440996 1.9359834,79.5917344 1.92325311,80.0275021 C1.33080498,81.977195 -1.47671369,91.8862573 1.36116183,96.0725643 C3.21390871,98.806639 4.4213278,100.19522 5.21843983,101.252813 Z" id="Path"></path>
                    <ellipse id="Oval" transform="translate(40.383492, 26.927995) rotate(-13.109285) translate(-40.383492, -26.927995) " cx="40.3834918" cy="26.9279945" rx="22.0283908" ry="22.0254531"></ellipse>
                    <path d="M49.308332,140.386705 C51.8171784,140.386705 54.2809793,139.185162 55.7978423,136.953444 C68.2010622,118.740315 71.9623734,102.217378 71.9349544,89.5468216 C71.9202656,73.794556 66.3610456,64.2164813 65.8861079,63.4095768 C63.6641826,59.696249 58.8540913,58.4858921 55.1397842,60.7078174 C51.448,62.9150539 50.2298091,67.6830373 52.4008133,71.3875519 L52.399834,71.3885311 C52.399834,71.3885311 52.399834,71.3895104 52.4008133,71.3904896 C52.5173444,71.5902573 56.2747386,78.3735436 56.2649461,89.5468216 C56.2385062,99.205195 53.5857095,112.278224 42.8335104,128.149959 C40.4030041,131.728149 41.3332946,136.600913 44.913444,139.033378 C46.2608963,139.948979 47.7934274,140.386705 49.308332,140.386705 Z" id="Shape" fill-rule="nonzero"></path>
                </g>
                <g transform="translate(89.112033, 4.896266)">
                    <circle id="Oval" cx="52.0198838" cy="22.3455768" r="22.033195"></circle>
                    <path d="M1.32884647,86.3691452 C1.32982573,86.3701245 1.32982573,86.3711037 1.32982573,86.372083 L1.32982573,86.3711037 C1.32982573,86.3740415 1.33080498,86.376 1.33080498,86.3789378 C1.33276349,86.387751 1.33570124,86.3965643 1.33765975,86.4063568 C2.58229046,92.5687967 6.33185062,98.5393029 12.3023568,103.325892 C18.2983237,108.162423 26.4496266,112.079436 37.3986556,115.175834 C38.1095934,115.376581 38.8244481,115.471568 39.5275519,115.471568 C42.948083,115.471568 46.0914855,113.215369 47.0638838,109.762523 C48.2389876,105.598739 45.8153361,101.27044 41.6515519,100.097295 C32.0979585,97.4131618 25.8630539,94.1610622 22.1604979,91.1459419 C18.4501079,88.0955685 17.1917676,85.5544066 16.678639,83.2286805 C16.6766805,83.2218257 16.6766805,83.2139917 16.674722,83.2071369 C16.535668,82.5383071 16.4700581,81.8645809 16.4700581,81.1663734 C16.4524315,80.4113693 16.5405643,79.6083817 16.7119336,78.7799336 C17.2867552,76.0096266 18.8506224,72.9426058 20.9648299,70.2898091 L20.9648299,87.2964979 C21.5954689,88.0221245 22.3867054,88.7996515 23.4021909,89.6349544 C25.5477344,91.3799834 29.2806473,93.7390041 35.5096763,96.0529793 C32.7501411,91.8284813 35.5233859,82.0212614 36.1128963,80.0823402 C36.1266058,79.6475519 36.4820747,79.2989378 36.9198008,79.2989378 L47.517278,79.2989378 C47.9550041,79.2989378 48.3114523,79.6465726 48.3241826,80.0823402 C48.9166307,82.0320332 51.7221909,91.9410954 48.8862739,96.1274025 C47.602473,98.0193195 46.6320332,99.2639502 45.8887801,100.204033 C46.7515021,100.944349 47.4937759,101.829593 48.0656598,102.850954 C49.3455436,105.133593 49.6569461,107.776598 48.945029,110.295237 C48.1900249,112.97839 46.333361,115.140581 43.9557344,116.355834 C43.96161,116.365627 43.965527,116.379336 43.9723817,116.389129 C45.6899917,119.199585 47.6122656,119.301427 48.1586888,119.483568 C48.7031535,119.666689 49.1898423,120.213112 49.0684149,120.454988 L35.3676846,120.454988 C35.245278,120.213112 35.729029,119.66571 36.27839,119.483568 C36.746473,119.326888 38.2290622,119.224066 39.7263402,117.42322 C39.659751,117.424199 39.5931618,117.432033 39.5255934,117.432033 C38.6256598,117.432033 37.7306224,117.306689 36.8620249,117.061876 C30.8024066,115.348183 25.5330456,113.370091 20.9628714,111.094307 L20.9628714,122.545693 L20.9628714,218.512498 C20.9628714,225.200797 26.3849959,230.619004 33.0693776,230.619004 C39.7557178,230.619004 45.1778423,225.200797 45.1778423,218.512498 L45.1778423,130.11434 L50.6401162,130.11434 L65.596249,220.456315 C66.6881162,227.054523 72.9230207,231.515021 79.5182905,230.423154 C86.1145394,229.331286 90.5789544,223.09932 89.4870871,216.501112 L73.9326307,122.547651 L73.9326307,122.546672 L73.9326307,74.661195 C74.3027884,75.4357842 74.6749046,76.2456266 75.048,77.1338091 C79.226473,87.1554855 83.1092116,104.662573 83.0974606,133.912863 C83.0974606,138.240183 86.6051452,141.747867 90.9314855,141.747867 C95.2597842,141.747867 98.7674689,138.240183 98.7674689,133.912863 C98.7380913,95.4194025 92.5149378,74.5436846 85.184249,62.5409793 C81.5198838,56.5685145 77.5020083,52.8963154 74.0746224,50.7997344 C72.2483154,49.6735934 70.6256929,49.0125975 69.3526639,48.6179585 C68.4351037,48.2233195 67.426473,48.0029876 66.3639834,48.0029876 L28.5305394,48.0029876 C27.9047967,48.0029876 27.3005975,48.0872033 26.7189212,48.2301743 C23.7292614,48.6786722 21.3859087,49.873361 18.9681328,51.2903402 C14.6427718,53.9725145 10.4182739,57.9071535 6.94780083,62.9130954 C3.82692116,67.4695602 1.30926141,73.0209461 0.872514523,79.3371286 C0.830406639,79.9403485 0.801029046,80.5484647 0.799070539,81.1663734 C0.801029046,82.8673361 0.966522822,84.6133444 1.32884647,86.3691452 Z" id="Path"></path>
                </g>
            </g>
        </g>
    </g>
</svg>