<?xml version="1.0" encoding="UTF-8"?>
<svg width="49px" height="57px" viewBox="0 0 49 57" version="1.1" xmlns="http://www.w3.org/2000/svg" xmlns:xlink="http://www.w3.org/1999/xlink">
    <!-- Generator: Sketch 52.3 (67297) - http://www.bohemiancoding.com/sketch -->
    <title>noun_content_2782978 3</title>
    <desc>Created with Sketch.</desc>
    <g id="Page-1" stroke="none" stroke-width="1" fill="none" fill-rule="evenodd">
        <g id="noun_content_2782978-3" transform="translate(-1.000000, -1.000000)" fill="#FFFFFF">
            <g id="noun_content_2782978-2">
                <g id="noun_content_2782978">
                    <g id="Group">
                        <g id="Group-9" transform="translate(25.500000, 29.500000) rotate(-22.000000) translate(-25.500000, -29.500000) translate(8.000000, 5.000000)">
                            <path d="M2.7262573,48.0561523 C9.1127319,47.3484497 30.2968139,48.4047851 30.9733276,48.4047851 C32.9528198,48.4047851 33.8756714,48.1079101 34.1149292,46.3471679 C35.2333374,38.1004028 34.0018921,39.9331664 34.7443237,25.5239257 C35.4597168,11.6352548 34.3882446,9.8931893 34.8703003,3.658203 C34.9790649,2.2449342 33.8961716,0.9804686 32.4279175,0.9804686 C29.3529663,0.9804686 32.2736206,0.3329466 3.1276245,0.7167967 C2.4059448,0.7260748 1.854187,0.9423834 1.4411011,1.3774421 C-0.5156245,3.4376836 1.3547364,9.3514411 0.5226441,25.4731452 C-0.2155147,39.803894 0.9393921,38.0048828 0.0211706,45.2949219 C-0.1782832,46.8795166 1.145752,48.230835 2.7262573,48.0561523 Z M1.0133667,45.4199219 C1.9506226,37.9854126 0.7728882,40.0458985 1.5211706,25.5249024 C2.3079834,10.2942515 0.6715698,3.6400757 2.1661987,2.065918 C2.3053589,1.9194336 2.557312,1.7246094 3.1403198,1.7167969 C36.1193237,1.2827759 21.9382934,1.697937 30.0094604,1.8457032 C30.800476,1.9121095 31.6183471,1.9804688 32.428894,1.9804688 C33.2966308,1.9804688 33.9382934,2.7316285 33.8732299,3.5810545 C33.6544799,6.4125975 33.7745971,9.2973636 33.8903197,12.0869139 C34.4059447,24.4885243 33.1257323,26.6520985 33.5519408,37.6323241 C33.6549681,40.255371 33.7174681,41.8383788 33.1237181,46.2124022 C33.0060423,47.080078 32.962097,47.404785 30.9733275,47.404785 C28.1343382,47.404785 23.4324339,46.8452147 12.5831908,46.8452147 C10.8338622,46.8452147 4.3532714,46.8704833 2.6163939,47.0620116 C2.1359251,47.1171874 1.6803587,46.9335936 1.3678587,46.5791014 C1.0856323,46.2592773 0.9596558,45.847168 1.0133667,45.4199219 Z" id="Shape" fill-rule="nonzero"></path>
                            <path d="M5.4078979,18.527832 C5.4450073,18.774414 5.6574096,18.9536133 5.9020385,18.9536133 C5.9186401,18.9536133 5.9347533,18.9526367 5.9518432,18.9511719 C15.0234985,18.0564575 13.5648803,19.0004883 14.3795776,18.9536133 C14.7682495,18.9249878 14.9912109,18.5733643 14.8453979,18.246582 C14.6251831,16.6582031 14.7052612,15.0078125 14.7833862,13.4106455 C14.8654175,11.7319346 14.9498901,9.996583 14.697937,8.2807627 C14.583435,7.5010996 13.9055176,7.9697275 5.7423706,7.8535166 C5.6061401,7.8442393 5.4557495,7.9135752 5.3595581,8.0239268 C5.2628784,8.1342784 5.2194214,8.281251 5.2409058,8.4262706 C5.4786988,10.0449229 5.3961707,11.7304698 5.3170777,13.3608409 C5.2345581,15.0517578 5.1491089,16.7998047 5.4078979,18.527832 Z M6.3029175,8.8598642 C8.741211,8.8822641 11.2913819,8.8233652 13.7633667,8.8481454 C13.9318237,10.3369149 13.8571167,11.8725595 13.7843628,13.3618173 C13.7150269,14.7905282 13.6432495,16.2602538 13.7785034,17.724121 C12.5377807,17.4536132 7.6148681,17.79364 6.3356323,17.9101562 C6.0053101,14.9739389 6.6228027,11.9066172 6.3029175,8.8598642 Z" id="Shape" fill-rule="nonzero"></path>
                            <path d="M17.0905151,10.2417002 C17.1012573,10.2417002 17.1119995,10.2412119 17.1227417,10.2407236 C21.6056519,9.9565439 26.1530151,9.7949228 30.638855,9.7617197 C30.9147339,9.7597666 31.1369019,9.5341806 31.1349488,9.2578134 C31.1329957,8.9829111 30.9093629,8.7617196 30.6349488,8.7617196 C30.6339722,8.7617196 30.6325074,8.7617196 30.6310425,8.7617196 C26.1271362,8.795411 21.56073,8.9570321 17.0592652,9.2426766 C16.7838746,9.2602547 16.5744019,9.4975594 16.59198,9.7734383 C16.6085815,10.0380869 16.8287964,10.2417002 17.0905151,10.2417002 Z" id="Path"></path>
                            <path d="M17.0905151,15.1542969 C17.1012573,15.1542969 17.1119995,15.1538086 17.1227417,15.1533203 C21.6056519,14.8691416 26.1530151,14.7075205 30.638855,14.6743173 C30.9147339,14.6723642 31.1369019,14.4467782 31.1349488,14.170411 C31.1329957,13.8955087 30.9093629,13.6743172 30.6349488,13.6743172 C30.6339722,13.6743172 30.6325074,13.6743172 30.6310425,13.6743172 C26.1271362,13.7080086 21.56073,13.8696297 17.0592652,14.1552742 C16.7838746,14.1728523 16.5744019,14.410157 16.59198,14.6860359 C16.6085815,14.9506845 16.8287964,15.1542969 17.0905151,15.1542969 Z" id="Path"></path>
                            <path d="M17.0905151,20.0673828 C17.1012573,20.0673828 17.1119995,20.0668945 17.1227417,20.0664062 C21.5973511,19.7822265 26.1447144,19.6210937 30.638855,19.5874023 C30.9147339,19.5854492 31.1369019,19.3598632 31.1349488,19.083496 C31.1329957,18.8085937 30.9093629,18.5874022 30.6349488,18.5874022 C30.6339722,18.5874022 30.6325074,18.5874022 30.6310425,18.5874022 C26.1183472,18.6210936 21.5524292,18.7827147 17.0592652,19.0683592 C16.7838746,19.0859373 16.5744019,19.3237303 16.59198,19.5991209 C16.6090698,19.8637695 16.8287964,20.0673828 17.0905151,20.0673828 Z" id="Path"></path>
                            <path d="M30.6349487,23.1850586 C30.6334839,23.1850586 30.6315307,23.1850586 30.6300659,23.1850586 C22.6027221,23.2626953 14.4679565,23.6362305 6.4518432,24.2963867 C6.1764526,24.3193359 5.9718627,24.5605469 5.9943237,24.8359375 C6.0162964,25.097168 6.2345581,25.2949219 6.4923706,25.2949219 C6.5060425,25.2949219 6.5197144,25.2944336 6.5338745,25.2934571 C14.526062,24.635254 22.6364136,24.2622071 30.6398315,24.1850587 C30.9157104,24.1826173 31.1373901,23.9565431 31.1349487,23.6801759 C31.1325073,23.4057617 30.9088745,23.1850586 30.6349487,23.1850586 Z" id="Path"></path>
                            <path d="M30.6349487,28.0976563 C30.6334839,28.0976563 30.6315307,28.0976563 30.6300659,28.0976563 C22.6095581,28.1748047 14.4747925,28.5488282 6.4518432,29.2089844 C6.1764526,29.2319336 5.9718627,29.4731446 5.9943237,29.7485352 C6.0158081,30.0097657 6.2345581,30.2075196 6.4923706,30.2075196 C6.5060425,30.2075196 6.5197144,30.2070313 6.5338745,30.2060548 C14.5328979,29.5473634 22.6432495,29.1748048 30.6398315,29.0976564 C30.9157104,29.095215 31.1373901,28.8691408 31.1349487,28.5927736 C31.1325073,28.3183594 30.9088745,28.0976563 30.6349487,28.0976563 Z" id="Path"></path>
                            <path d="M30.6349487,33.0102539 C30.6334839,33.0102539 30.6315307,33.0102539 30.6300659,33.0102539 C22.600769,33.0883789 14.4660034,33.4624023 6.4518432,34.1220703 C6.1764526,34.1450195 5.9718627,34.3862305 5.9943237,34.6616211 C6.0162964,34.9228516 6.2345581,35.1206055 6.4923706,35.1206055 C6.5060425,35.1206055 6.5197144,35.1201172 6.5338745,35.1191407 C14.5241089,34.4609376 22.6344604,34.0878907 30.6398315,34.010254 C30.9157104,34.0073243 31.1373901,33.7817384 31.1349487,33.5053712 C31.1325073,33.230957 30.9088745,33.0102539 30.6349487,33.0102539 Z" id="Path"></path>
                            <path d="M30.6349487,37.9233398 C30.6334839,37.9233398 30.6315307,37.9233398 30.6300659,37.9233398 C22.6027221,38.0009765 14.4679565,38.3745117 6.4518432,39.0346679 C6.1764526,39.0576171 5.9718627,39.2988281 5.9943237,39.5742187 C6.0162964,39.8354492 6.2345581,40.0332031 6.4923706,40.0332031 C6.5060425,40.0332031 6.5197144,40.0327148 6.5338745,40.0317383 C14.526062,39.3735352 22.6364136,39.0004883 30.6398315,38.9233399 C30.9157104,38.9208985 31.1373901,38.6948243 31.1349487,38.4184571 C31.1325073,38.144043 30.9088745,37.9233398 30.6349487,37.9233398 Z" id="Path"></path>
                        </g>
                    </g>
                </g>
            </g>
        </g>
    </g>
</svg>