<?xml version="1.0" encoding="UTF-8"?>
<svg width="638px" height="70px" viewBox="0 0 638 70" version="1.1" xmlns="http://www.w3.org/2000/svg" xmlns:xlink="http://www.w3.org/1999/xlink">
    <!-- Generator: Sketch 52.3 (67297) - http://www.bohemiancoding.com/sketch -->
    <title>Group 9</title>
    <desc>Created with Sketch.</desc>
    <defs>
        <circle id="path-1" cx="31.3910506" cy="31.3910506" r="31.3910506"></circle>
    </defs>
    <g id="Page-1" stroke="none" stroke-width="1" fill="none" fill-rule="evenodd">
        <g id="Artboard" transform="translate(-1541.000000, -4212.000000)">
            <g id="Group-9" transform="translate(1541.000000, 4212.000000)">
                <g id="Group-5">
                    <g id="Group-3">
                        <g id="Group-2" transform="translate(187.120623, 0.000000)">
                            <rect id="Rectangle" fill="#FFF60F" x="0" y="0" width="450.36965" height="70" rx="35"></rect>
                            <g id="profile" transform="translate(4.221790, 3.677043)">
                                <mask id="mask-2" fill="white">
                                    <use xlink:href="#path-1"></use>
                                </mask>
                                <use id="Mask" fill="#FFFFFF" xlink:href="#path-1"></use>
                            </g>
                        </g>
                        <path d="M187.120623,36.9457792 L19.5026484,36.9457792" id="Line-2" stroke="#FFF60F" stroke-width="5" stroke-linecap="square"></path>
                        <ellipse id="Oval" fill="#FFF60F" cx="9.73735409" cy="36.9747082" rx="9.73735409" ry="10.0097276"></ellipse>
                    </g>
                </g>
                <g id="money-bag" transform="translate(199.513619, 14.980545)">
                    <path d="M38.4018856,36.3451345 C38.4305102,36.8815196 38.2373903,37.4060678 37.867867,37.795624 C37.4983437,38.1851803 36.9849654,38.4054318 36.4482646,38.4046673 L10.3999844,38.4046673 C9.86328359,38.4054318 9.34990531,38.1851803 8.98038203,37.795624 C8.61085876,37.4060678 8.41773879,36.8815196 8.44636341,36.3451345 C8.54436978,35.2824973 9.44459169,34.4753158 10.5106896,34.4941621 L11.0511914,34.4941621 L11.0511914,22.7626465 C11.0516587,21.9636058 11.13238,21.1666357 11.292138,20.3837558 C11.5091609,19.3431232 11.8662395,18.3367675 12.3536054,17.3922193 C13.0061739,16.1174589 13.8893969,14.9749397 14.9584335,14.0226673 C17.1052927,12.0947466 19.8885322,11.0292684 22.7729175,11.0311308 L24.0753315,11.0311308 C30.5490621,11.0311308 35.7970576,16.2835093 35.7970576,22.7626465 L35.7970576,34.4941621 L36.3375594,34.4941621 C37.4036573,34.4753158 38.3038792,35.2824973 38.4018856,36.3451345 Z" id="Path" fill="#00B39D"></path>
                    <path d="M29.9610895,1.97470817 L26.0389105,8.44357977 L20.8093385,8.44357977 L16.8871595,1.97470817 C18.5214008,1.97470817 18.5214008,0.680933852 20.155642,0.680933852 C21.7898833,0.680933852 21.7898833,1.97470817 23.4306615,1.97470817 C25.0714397,1.97470817 25.0649027,0.680933852 26.692607,0.680933852 C28.3203113,0.680933852 28.3268482,1.97470817 29.9610895,1.97470817 Z" id="Path" fill="#00B39D"></path>
                    <circle id="Oval" fill="#FFD422" cx="23.4241245" cy="25.4669261" r="5.85603113"></circle>
                    <path d="M26.0797665,8.44357977 C26.7934137,8.44571113 27.3714095,9.02370696 27.3735409,9.73735409 C27.3682576,10.449686 26.7920985,11.0258451 26.0797665,11.0311284 L20.9046693,11.0311284 C20.1910221,11.028997 19.6130263,10.4510012 19.6108949,9.73735409 C19.6161782,9.02502214 20.1923373,8.44886304 20.9046693,8.44357977 L26.0797665,8.44357977 Z" id="Path" fill="#009986"></path>
                    <path d="M15.6153129,14.2996129 C16.1496145,14.2986496 16.6273241,14.6387085 16.8103163,15.1502795 C16.9933086,15.6618504 16.8424138,16.2354312 16.4328491,16.5851073 C16.0232843,16.9347833 15.4427172,16.9857063 14.9805447,16.7124924 L14.9805447,14.4742718 C15.1734125,14.3602561 15.3923444,14.3000162 15.6153129,14.2996129 Z" id="Path" fill="#FF5023"></path>
                    <path d="M14.598866,9.51021213 C14.3592211,9.26190005 14.0299913,9.12268631 13.6867615,9.12453173 C12.9731193,9.12668553 12.3951275,9.71076472 12.3929961,10.4319229 L12.3929961,20.8910524 C12.3929961,21.6131046 12.9722346,22.1984436 13.6867615,22.1984436 C14.4012883,22.1984436 14.9805268,21.6131046 14.9805268,20.8910524 L14.9805268,10.4319229 C14.982353,10.0850782 14.8445902,9.75238099 14.598866,9.51021213 Z" id="Path" fill="#FF9811"></path>
                    <polygon id="Path" fill="#E6E7E8" points="5.85603113 12.9717899 5.85603113 18.2149805 6.50972763 18.4771401 11.3274708 20.4105666 12.3929961 20.8365759 12.3929961 17.402286 12.3929961 10.3501946"></polygon>
                    <path d="M6.53696498,18.5105058 L6.53696498,23.4785992 C6.53479622,24.1997584 5.94666011,24.7838384 5.22049287,24.7859922 L3.90402075,24.7859922 C3.17785351,24.7838384 2.5897174,24.1997584 2.58754864,23.4785992 L2.58754864,18.2490272 L5.87872892,18.2490272 L6.53696498,18.5105058 Z" id="Path" fill="#C6C5CA"></path>
                    <polygon id="Path" fill="#FF5023" points="3.26848249 13.07393 5.85603113 13.07393 5.85603113 18.2490272 3.26848249 18.2490272"></polygon>
                    <path d="M3.26848249,13.07393 L3.26848249,18.2490272 L1.97470817,18.2490272 C1.26106105,18.2468959 0.683065217,17.6689 0.680933852,16.9552529 L0.680933852,14.3677043 C0.683065217,13.6540572 1.26106105,13.0760613 1.97470817,13.07393 L3.26848249,13.07393 Z" id="Path" fill="#FF9811"></path>
                    <path d="M36.4760871,33.8741326 L36.4760871,22.7997577 C36.4678763,17.3210235 32.8637562,12.4977584 27.6123979,10.9377994 C27.9497109,10.496079 28.0801854,9.93034002 27.9704034,9.38548379 C27.8606213,8.84062756 27.5212466,8.36957947 27.0392023,8.0929879 L30.5207145,2.28936404 C30.6415916,2.08814744 30.6448765,1.83745108 30.5293134,1.63313558 C30.4137502,1.42882008 30.1972128,1.30248645 29.9625001,1.30244181 C29.5035754,1.30650306 29.0628947,1.12296295 28.7425053,0.794323433 C27.5931101,-0.264774478 25.823514,-0.264774478 24.6741188,0.794323433 C24.3508117,1.11989641 23.9109736,1.30298992 23.4521699,1.30298992 C22.9933662,1.30298992 22.5535281,1.11989641 22.230221,0.794323433 C21.0791652,-0.264365443 19.3089822,-0.264365443 18.1579264,0.794323433 C17.8367354,1.1233633 17.3950934,1.30691178 16.9353262,1.30244181 C16.7006135,1.30248645 16.4840761,1.42882008 16.3685129,1.63313558 C16.2529497,1.83745108 16.2562347,2.08814744 16.3771117,2.28936404 L19.858624,8.0929879 C19.3764452,8.36981192 19.0370561,8.84115352 18.9273964,9.38627139 C18.8177367,9.93138927 18.94846,10.4973238 19.2860797,10.9391022 C17.9782277,11.3280457 16.7437331,11.9307264 15.6326088,12.722728 L15.6326088,10.4225152 C15.6284743,9.43902385 14.8930503,8.61236805 13.9168259,8.49388377 C12.9406015,8.37539948 12.0288203,9.00213411 11.7895924,9.95608861 L5.73651605,12.3768167 L1.95407609,12.3768167 C0.874869668,12.3768167 2.8926137e-16,13.2517872 0,14.3311181 L0,16.9368534 C2.8926137e-16,18.0161843 0.874869668,18.8911548 1.95407609,18.8911548 L1.95407609,23.4511915 C1.95407609,24.5305224 2.82894576,25.405493 3.90815219,25.405493 L5.21086959,25.405493 C6.29007601,25.405493 7.16494568,24.5305224 7.16494568,23.4511915 L7.16494568,19.4624623 L10.5936979,20.8343819 C10.4847247,21.483957 10.4272263,22.1411261 10.4217392,22.7997577 L10.4217392,33.8741326 C9.04760347,33.9014883 7.91945696,34.96912 7.81630438,36.3398096 C7.77690991,37.0555556 8.03639396,37.7555355 8.53279895,38.2726137 C9.02542198,38.7896411 9.707647,39.0832669 10.4217392,39.0856031 L36.4760871,39.0856031 C37.1913113,39.0841543 37.8748794,38.7904568 38.3682841,38.2726137 C38.8634691,37.7547066 39.1217286,37.054613 39.0815219,36.3391581 C38.978346,34.9685844 37.8501156,33.9011553 36.4760871,33.8741326 Z M18.9714734,1.81121162 C19.2950037,1.48556034 19.7350572,1.30243517 20.1940737,1.30243517 C20.6530902,1.30243517 21.0931437,1.48556034 21.416674,1.81121162 C22.5671765,2.87003634 24.3371633,2.87003634 25.4876659,1.81121162 C25.8104149,1.48583409 26.2497145,1.30281949 26.7079864,1.30281949 C27.1662582,1.30281949 27.6055578,1.48583409 27.9283069,1.81121162 C28.2229012,2.0692217 28.5577989,2.27718153 28.9196748,2.42681657 L25.6856789,7.81677996 L21.2121474,7.81677996 L17.9775001,2.42681657 C18.3402356,2.27731803 18.6760126,2.06935877 18.9714734,1.81121162 Z M20.8434783,10.4225152 C20.4837429,10.4225152 20.1921196,10.1308584 20.1921196,9.77108141 C20.1921196,9.41130445 20.4837429,9.1196476 20.8434783,9.1196476 L26.0543479,9.1196476 C26.4140834,9.1196476 26.7057066,9.41130445 26.7057066,9.77108141 C26.7057066,10.1308584 26.4140834,10.4225152 26.0543479,10.4225152 L20.8434783,10.4225152 Z M15.6326088,14.9825519 C15.9923442,14.9825519 16.2839675,15.2742088 16.2839675,15.6339858 C16.2839675,15.9937627 15.9923442,16.2854196 15.6326088,16.2854196 L15.6326088,14.9825519 Z M13.027174,10.4225152 C13.027174,10.0627383 13.3187972,9.77108141 13.6785327,9.77108141 C14.0382681,9.77108141 14.3298914,10.0627383 14.3298914,10.4225152 L14.3298914,20.8454563 C14.3298914,21.2052332 14.0382681,21.4968901 13.6785327,21.4968901 C13.3187972,21.4968901 13.027174,21.2052332 13.027174,20.8454563 L13.027174,10.4225152 Z M6.51358698,13.4692712 L11.7244566,11.384683 L11.7244566,19.8832885 L6.51358698,17.7987003 L6.51358698,13.4692712 Z M3.90815219,13.6796843 L5.21086959,13.6796843 L5.21086959,17.5882872 L3.90815219,17.5882872 L3.90815219,13.6796843 Z M1.3027174,16.9368534 L1.3027174,14.3311181 C1.3027174,13.9713412 1.59434062,13.6796843 1.95407609,13.6796843 L2.60543479,13.6796843 L2.60543479,17.5882872 L1.95407609,17.5882872 C1.59434062,17.5882872 1.3027174,17.2966303 1.3027174,16.9368534 Z M5.86222828,23.4511915 C5.86222828,23.8109685 5.57060506,24.1026254 5.21086959,24.1026254 L3.90815219,24.1026254 C3.54841671,24.1026254 3.25679349,23.8109685 3.25679349,23.4511915 L3.25679349,18.8911548 L5.73651605,18.8911548 L5.86222828,18.9413152 L5.86222828,23.4511915 Z M37.423814,37.3755893 C37.177916,37.6367127 36.8347422,37.7841411 36.4760871,37.7827355 L10.4217392,37.7827355 C10.0646497,37.7831822 9.72303144,37.6370103 9.47676262,37.3783983 C9.23049381,37.1197862 9.10116701,36.7714087 9.11902177,36.4147245 C9.1961162,35.6970399 9.81097285,35.158624 10.5324701,35.1770002 L11.0730979,35.1770002 C11.4328333,35.1770002 11.7244566,34.8853434 11.7244566,34.5255664 L11.7244566,22.7997577 C11.7278873,22.3380941 11.7598649,21.8770846 11.8202063,21.4193695 C12.1028034,22.3428319 13.0189477,22.9200831 13.9738243,22.7763375 C14.9287009,22.6325918 15.6343442,21.8111992 15.6326088,20.8454563 L15.6326088,17.5882872 C16.568455,17.5821978 17.3685937,16.9133593 17.5406602,15.9933411 C17.7127267,15.0733229 17.2084054,14.1604614 16.3380302,13.8164854 C17.4330898,13.0283952 18.6628292,12.4469004 19.9667495,12.1006087 C19.6910949,12.5814711 19.5443557,13.1254112 19.5407609,13.6796843 L19.5407609,14.9825519 L20.8434783,14.9825519 L20.8434783,13.6796843 C20.8434783,12.6003534 21.718348,11.7253829 22.7975544,11.7253829 L24.1002718,11.7253829 C25.1794783,11.7253829 26.0543479,12.6003534 26.0543479,13.6796843 L26.0543479,14.9825519 L27.3570653,14.9825519 L27.3570653,13.6796843 C27.3533685,13.1277033 27.2077957,12.5859484 26.9343335,12.1064716 C31.7844914,13.3944949 35.1642014,17.7809553 35.1733697,22.7997577 L35.1733697,34.5255664 C35.1733697,34.8853434 35.4649929,35.1770002 35.8247284,35.1770002 L36.3653561,35.1770002 C37.0850572,35.1583744 37.6992022,35.6939027 37.7788045,36.409513 C37.7993162,36.766804 37.6707791,37.1166069 37.423814,37.3755893 Z" id="Shape" fill="#000000" fill-rule="nonzero"></path>
                    <path d="M22.7772374,23.4581712 L24.0710117,23.4581712 C24.4282776,23.4581712 24.7178988,23.7477925 24.7178988,24.1050584 L26.0116732,24.1050584 C26.0116732,23.0332606 25.1428094,22.1643969 24.0710117,22.1643969 L24.0710117,21.5175097 L22.7772374,21.5175097 L22.7772374,22.1643969 C21.7054396,22.1643969 20.8365759,23.0332606 20.8365759,24.1050584 C20.8365759,25.1768561 21.7054396,26.0457198 22.7772374,26.0457198 L24.0710117,26.0457198 C24.4282776,26.0457198 24.7178988,26.3353411 24.7178988,26.692607 C24.7178988,27.0498729 24.4282776,27.3394942 24.0710117,27.3394942 L22.7772374,27.3394942 C22.4199714,27.3394942 22.1303502,27.0498729 22.1303502,26.692607 L20.8365759,26.692607 C20.8365759,27.7644047 21.7054396,28.6332685 22.7772374,28.6332685 L22.7772374,29.2801556 L24.0710117,29.2801556 L24.0710117,28.6332685 C25.1428094,28.6332685 26.0116732,27.7644047 26.0116732,26.692607 C26.0116732,25.6208093 25.1428094,24.7519455 24.0710117,24.7519455 L22.7772374,24.7519455 C22.4199714,24.7519455 22.1303502,24.4623243 22.1303502,24.1050584 C22.1303502,23.7477925 22.4199714,23.4581712 22.7772374,23.4581712 Z" id="Path" fill="#000000"></path>
                    <path d="M23.4241245,18.9299611 C19.8138584,18.9299611 16.8871595,21.85666 16.8871595,25.4669261 C16.8871595,29.0771921 19.8138584,32.0038911 23.4241245,32.0038911 C27.0343906,32.0038911 29.9610895,29.0771921 29.9610895,25.4669261 C29.9571265,21.8583028 27.0327478,18.933924 23.4241245,18.9299611 Z M23.4241245,30.6964981 C20.5359117,30.6964981 18.1945525,28.3551389 18.1945525,25.4669261 C18.1945525,22.5787132 20.5359117,20.2373541 23.4241245,20.2373541 C26.3123374,20.2373541 28.6536965,22.5787132 28.6536965,25.4669261 C28.6504542,28.3537949 26.3109933,30.6932558 23.4241245,30.6964981 Z" id="Shape" fill="#000000" fill-rule="nonzero"></path>
                    <polygon id="Path" fill="#000000" points="3.90402075 8.44357977 5.22049287 8.44357977 5.22049287 7.12710765 6.53696498 7.12710765 6.53696498 5.81063554 5.22049287 5.81063554 5.22049287 4.49416342 3.90402075 4.49416342 3.90402075 5.81063554 2.58754864 5.81063554 2.58754864 7.12710765 3.90402075 7.12710765"></polygon>
                    <polygon id="Path" fill="#000000" points="35.0907912 9.12451362 35.0907912 10.4409857 33.7743191 10.4409857 33.7743191 11.7574578 35.0907912 11.7574578 35.0907912 13.07393 36.4072633 13.07393 36.4072633 11.7574578 37.7237354 11.7574578 37.7237354 10.4409857 36.4072633 10.4409857 36.4072633 9.12451362"></polygon>
                    <polygon id="Path" fill="#000000" points="32.5032425 6.53696498 33.8197147 6.53696498 33.8197147 5.22049287 35.1361868 5.22049287 35.1361868 3.90402075 33.8197147 3.90402075 33.8197147 2.58754864 32.5032425 2.58754864 32.5032425 3.90402075 31.1867704 3.90402075 31.1867704 5.22049287 32.5032425 5.22049287"></polygon>
                    <polygon id="Path" fill="#000000" points="10.4409857 3.94941634 11.7574578 3.94941634 11.7574578 2.63294423 13.07393 2.63294423 13.07393 1.31647211 11.7574578 1.31647211 11.7574578 0 10.4409857 0 10.4409857 1.31647211 9.12451362 1.31647211 9.12451362 2.63294423 10.4409857 2.63294423"></polygon>
                </g>
            </g>
        </g>
    </g>
</svg>