<?xml version="1.0" encoding="UTF-8"?>
<svg width="638px" height="70px" viewBox="0 0 638 70" version="1.1" xmlns="http://www.w3.org/2000/svg" xmlns:xlink="http://www.w3.org/1999/xlink">
    <!-- Generator: Sketch 52.3 (67297) - http://www.bohemiancoding.com/sketch -->
    <title>Group 5</title>
    <desc>Created with Sketch.</desc>
    <defs>
        <circle id="path-1" cx="31.3910506" cy="31.3910506" r="31.3910506"></circle>
    </defs>
    <g id="Page-1" stroke="none" stroke-width="1" fill="none" fill-rule="evenodd">
        <g id="Artboard" transform="translate(-1537.000000, -2442.000000)">
            <g id="Group-5" transform="translate(1537.000000, 2442.000000)">
                <g id="Group-3">
                    <g id="Group-2" transform="translate(187.120623, 0.000000)">
                        <rect id="Rectangle" fill="#FFF60F" x="0" y="0" width="450.36965" height="70" rx="35"></rect>
                        <g id="profile" transform="translate(4.221790, 3.677043)">
                            <mask id="mask-2" fill="white">
                                <use xlink:href="#path-1"></use>
                            </mask>
                            <use id="Mask" fill="#FFFFFF" xlink:href="#path-1"></use>
                        </g>
                    </g>
                    <path d="M187.120623,36.9457792 L19.5026484,36.9457792" id="Line-2" stroke="#FFF60F" stroke-width="5" stroke-linecap="square"></path>
                    <ellipse id="Oval" fill="#FFF60F" cx="9.73735409" cy="36.9747082" rx="9.73735409" ry="10.0097276"></ellipse>
                </g>
                <g id="Group-4" transform="translate(193.793774, 18.929961)">
                    <g id="followers" transform="translate(19.669240, 18.924773) rotate(-21.000000) translate(-19.669240, -18.924773) translate(4.075855, 4.761349)">
                        <path d="M29.2603979,0.399291695 L5.08548624,0.399291695 C4.21031392,0.399291695 3.49426383,1.11647139 3.49426383,1.99302436 L3.49426383,19.2696177 C3.49426383,20.1461707 4.21031392,20.8633504 5.08548624,20.8633504 L12.1526354,20.8633504 L13.9904973,27.9575857 L17.1729421,27.9575857 L22.192188,20.8633504 L29.2603979,20.8633504 C30.1345095,20.8633504 30.8516204,20.1461707 30.8516204,19.2696177 L30.8516204,1.99302436 C30.8516204,1.11647139 30.1345095,0.399291695 29.2603979,0.399291695 Z" id="Path" fill="#DB785A"></path>
                        <path d="M17.1729421,28.2232078 L13.9904973,28.2232078 C13.8695644,28.2232078 13.7640133,28.1413962 13.7337801,28.0239912 L11.9478981,21.1284412 L5.08548624,21.1284412 C4.06179983,21.1284412 3.2290601,20.2943878 3.2290601,19.2690864 L3.2290601,1.99302436 C3.2290601,0.967723012 4.06179983,0.133669584 5.08548624,0.133669584 L29.2603979,0.133669584 C30.2840844,0.133669584 31.1168241,0.967723012 31.1168241,1.99302436 L31.1168241,19.2696177 C31.1168241,20.294919 30.2840844,21.1289725 29.2603979,21.1289725 L22.3295635,21.1289725 L17.3898787,28.1116465 C17.33949,28.1812395 17.2588681,28.2232078 17.1729421,28.2232078 Z M14.195765,27.6919636 L17.0355666,27.6919636 L21.9752513,20.7092895 C22.0251096,20.6391653 22.1057316,20.597197 22.1916576,20.597197 L29.2598675,20.597197 C29.9912994,20.597197 30.5858862,20.001141 30.5858862,19.2690864 L30.5858862,1.99302436 C30.5858862,1.26096982 29.9912994,0.664913806 29.2598675,0.664913806 L5.08548624,0.664913806 C4.35405434,0.664913806 3.75946757,1.26096982 3.75946757,1.99302436 L3.75946757,19.2696177 C3.75946757,20.0016722 4.35405434,20.5977282 5.08548624,20.5977282 L12.1526354,20.5977282 C12.2735683,20.5977282 12.3791194,20.6795399 12.4093526,20.7969448 L14.195765,27.6919636 Z" id="Shape" fill="#63312D" fill-rule="nonzero"></path>
                        <path d="M26.0779531,0.399291695 L1.90304142,0.399291695 C1.02786909,0.399291695 0.311819007,1.11647139 0.311819007,1.99302436 L0.311819007,19.2696177 C0.311819007,20.1461707 1.02786909,20.8633504 1.90304142,20.8633504 L8.97019056,20.8633504 L13.9904973,27.9575857 L19.0097432,20.8633504 L26.0779531,20.8633504 C26.9520646,20.8633504 27.6691755,20.1461707 27.6691755,19.2696177 L27.6691755,1.99302436 C27.6691755,1.11647139 26.9520646,0.399291695 26.0779531,0.399291695 Z" id="Path" fill="#F9A287"></path>
                        <path d="M1.37263395,20.3315749 L1.37263395,3.0555128 C1.37263395,2.17895984 2.08868403,1.46178014 2.96385636,1.46178014 L27.1387681,1.46178014 C27.2973599,1.46178014 27.448526,1.4925923 27.5933273,1.53668557 C27.3954853,0.882192692 26.7934728,0.399291695 26.0779531,0.399291695 L1.90304142,0.399291695 C1.02786909,0.399291695 0.311819007,1.11647139 0.311819007,1.99302436 L0.311819007,19.2696177 C0.311819007,19.9867974 0.794489806,20.5897596 1.4474214,20.7884449 C1.40339758,20.6423528 1.37263395,20.4909482 1.37263395,20.3315749 Z" id="Path" fill="#FFC8BB"></path>
                        <path d="M13.9904973,28.2232078 C13.9045713,28.2232078 13.8239493,28.1812395 13.774091,28.1111153 L8.83334543,21.1284412 L1.90304142,21.1284412 C0.879355001,21.1284412 0.0466152721,20.2943878 0.0466152721,19.2690864 L0.0466152721,1.99302436 C0.0466152721,0.967723012 0.879355001,0.133669584 1.90304142,0.133669584 L26.0779531,0.133669584 C27.1016395,0.133669584 27.9343793,0.967723012 27.9343793,1.99302436 L27.9343793,19.2696177 C27.9343793,20.294919 27.1016395,21.1289725 26.0779531,21.1289725 L19.1471187,21.1289725 L14.2074339,28.1116465 C14.1570452,28.1812395 14.0764233,28.2232078 13.9904973,28.2232078 Z M1.90304142,0.664913806 C1.17160952,0.664913806 0.577022743,1.26096982 0.577022743,1.99302436 L0.577022743,19.2696177 C0.577022743,20.0016722 1.17160952,20.5977282 1.90304142,20.5977282 L8.97019056,20.5977282 C9.05611657,20.5977282 9.1367385,20.6396965 9.18659681,20.7098208 L13.9904973,27.4980594 L18.7933369,20.7092895 C18.8431952,20.6391653 18.9238172,20.597197 19.0097432,20.597197 L26.0779531,20.597197 C26.809385,20.597197 27.4039718,20.001141 27.4039718,19.2690864 L27.4039718,1.99302436 C27.4039718,1.26096982 26.809385,0.664913806 26.0779531,0.664913806 L1.90304142,0.664913806 Z" id="Shape" fill="#63312D" fill-rule="nonzero"></path>
                        <path d="M17.0806512,8.44551667 C17.0806512,10.1555918 15.6968181,11.5410768 13.9894365,11.5410768 C12.2841764,11.5410768 10.9003433,10.1555918 10.9003433,8.44551667 C10.9003433,6.73544152 12.2841764,5.35101908 13.9894365,5.35101908 C15.6968181,5.35101908 17.0806512,6.73544152 17.0806512,8.44551667 Z" id="Path" fill="#F8F3F3"></path>
                        <path d="M13.9894365,11.8066989 C12.1399056,11.8066989 10.6351396,10.2990278 10.6351396,8.44551667 C10.6351396,6.59306807 12.1399056,5.08539697 13.9894365,5.08539697 C15.8400281,5.08539697 17.3458549,6.59253683 17.3458549,8.44551667 C17.3458549,10.2990278 15.8400281,11.8066989 13.9894365,11.8066989 Z M13.9894365,5.61664119 C12.4321601,5.61664119 11.1655471,6.88578364 11.1655471,8.44551667 C11.1655471,10.005781 12.4326905,11.2754546 13.9894365,11.2754546 C15.5477736,11.2754546 16.8154475,10.005781 16.8154475,8.44551667 C16.8154475,6.88578364 15.5477736,5.61664119 13.9894365,5.61664119 Z" id="Shape" fill="#63312D" fill-rule="nonzero"></path>
                        <path d="M18.6416404,15.911623 C18.4841094,13.471087 16.4643177,11.5410768 13.9894365,11.5410768 C11.5145552,11.5410768 9.49529395,13.471087 9.33882375,15.911623 L18.6416404,15.911623 Z" id="Path" fill="#F8F3F3"></path>
                        <path d="M18.6421708,16.1772451 L9.33882375,16.1772451 C9.26562752,16.1772451 9.19508333,16.1469642 9.14575543,16.0933085 C9.09536672,16.0396528 9.06937676,15.9679349 9.07415042,15.8946231 C9.24016796,13.3048076 11.3994568,11.2754546 13.9894365,11.2754546 C16.5799465,11.2754546 18.7392354,13.3042763 18.9068441,15.8946231 C18.9116178,15.9679349 18.8856278,16.0396528 18.8357695,16.0933085 C18.7853808,16.1469642 18.715367,16.1772451 18.6421708,16.1772451 Z M9.63054786,15.6460009 L18.3493859,15.6460009 C18.0688003,13.471087 16.2054789,11.8066989 13.988906,11.8066989 C11.773394,11.8066989 9.91113341,13.471087 9.63054786,15.6460009 Z" id="Shape" fill="#63312D" fill-rule="nonzero"></path>
                    </g>
                    <g id="love" transform="translate(39.431854, 18.924295) rotate(18.000000) translate(-39.431854, -18.924295) translate(25.336523, 4.556590)">
                        <path d="M22.5025452,0.461740461 L5.51710997,0.461740461 C2.6905582,0.461740461 0.399197923,2.75677153 0.399197923,5.58772633 L0.399197923,16.7456977 C0.399197923,19.5767646 2.69061414,21.8716836 5.51710997,21.8716836 L7.95475703,21.8716836 C8.07072358,21.8716836 8.16470516,21.9658695 8.16470516,22.0819629 L8.16470516,27.5859249 C8.16470516,28.2367095 8.95946481,28.5522125 9.40453469,28.0780895 L15.1702483,21.9377986 C15.2099667,21.8954962 15.2652928,21.8715715 15.3232481,21.8715715 L22.5024893,21.8715715 C25.329097,21.8715715 27.6204013,19.5765405 27.6204013,16.7455857 L27.6204013,5.58778236 C27.6205692,2.7567155 25.3291529,0.461740461 22.5025452,0.461740461 Z" id="Path" fill="#EC5569"></path>
                        <path d="M10.3179461,19.9586068 C10.3179461,19.836294 10.2269294,19.7371775 10.114655,19.7371775 L7.75476648,19.7371775 C5.01839227,19.7371775 2.80009148,17.32045 2.80009148,14.3392237 L2.80009148,2.58941092 C2.80009148,2.08497586 2.86380875,1.59678939 2.98262831,1.13359216 C1.4394285,2.01639555 0.399141981,3.68036451 0.399141981,5.58778236 L0.399141981,16.7457538 C0.399141981,19.5767646 2.6905582,21.8717396 5.51705403,21.8717396 L7.95470109,21.8717396 C8.07066764,21.8717396 8.16464922,21.9659255 8.16464922,22.082019 L8.16464922,27.5859809 C8.16464922,28.2367655 8.95940887,28.5522685 9.40447875,28.0781455 L10.3177223,27.1055266 L10.3177223,19.9586068 L10.3179461,19.9586068 Z" id="Path" fill="#E63950"></path>
                        <path d="M19.760465,7.1141985 C18.4610579,5.81274146 16.3543042,5.81274146 15.0548971,7.1141985 L14.3208898,7.84936372 C14.1459051,8.02462451 13.8621143,8.02462451 13.6870736,7.84936372 L12.964814,7.12596473 C11.6654069,5.82450769 9.55865328,5.82450769 8.25924615,7.12596473 C6.95983901,8.42742176 6.95983901,10.5374989 8.25924615,11.8389559 L13.6875211,17.2757944 C13.8625059,17.4510552 14.1462967,17.4510552 14.3213374,17.2757944 L19.760465,11.8271897 C21.0598721,10.5257327 21.0598721,8.41565553 19.760465,7.1141985 Z" id="Path" fill="#EC5569"></path>
                        <path d="M19.760465,7.1141985 C18.4610579,5.81274146 16.3543042,5.81274146 15.0548971,7.1141985 L14.3208898,7.84936372 C14.1459051,8.02462451 13.8621143,8.02462451 13.6870736,7.84936372 L12.964814,7.12596473 C11.6654069,5.82450769 9.55865328,5.82450769 8.25924615,7.12596473 C6.95983901,8.42742176 6.95983901,10.5374989 8.25924615,11.8389559 L13.6875211,17.2757944 C13.8625059,17.4510552 14.1462967,17.4510552 14.3213374,17.2757944 L19.760465,11.8271897 C21.0598721,10.5257327 21.0598721,8.41565553 19.760465,7.1141985 Z" id="Path" fill="#FFF5F5"></path>
                        <path d="M9.99980727,11.8389559 C8.70040013,10.5374989 8.70040013,8.42742176 9.99980727,7.12596473 C10.4260249,6.69907472 10.9393433,6.41309931 11.4823107,6.26630159 C10.3699716,5.96547832 9.13243566,6.2513977 8.25930209,7.12596473 C6.95989495,8.42742176 6.95989495,10.5374989 8.25930209,11.8389559 L13.6875771,17.2757944 C13.8625618,17.4510552 14.1463526,17.4510552 14.3213933,17.2757944 L14.8746539,16.721549 L9.99980727,11.8389559 Z" id="Path" fill="#DCE6EB"></path>
                        <path d="M22.5340402,0 L5.54854904,0 C4.35257757,0 3.21377823,0.375790956 2.25527806,1.0866393 C2.0683778,1.22525669 2.02910693,1.48938053 2.16745004,1.67657564 C2.3058491,1.86377074 2.56955692,1.90304754 2.75645718,1.76454221 C3.56883838,1.1619992 4.53433122,0.843470562 5.54854904,0.843470562 L22.5339843,0.843470562 C25.123848,0.843470562 27.2308253,2.95382786 27.2308253,5.54772115 L27.2308253,16.7056926 C27.2308253,19.2996419 25.123792,21.4099431 22.5339843,21.4099431 L15.354799,21.4099431 C15.1813247,21.4099431 15.0137242,21.4825576 14.8951284,21.6090165 L9.12935888,27.7493074 C9.00488924,27.8817615 8.86056039,27.8441656 8.80433927,27.8219219 C8.74806221,27.7996221 8.61721525,27.7280161 8.61721525,27.5460318 L8.61721525,22.0420698 C8.61721525,21.6935653 8.3341517,21.4100552 7.98619611,21.4100552 L5.54854904,21.4100552 C2.95868539,21.4100552 0.85165207,19.2996979 0.85165207,16.7058046 L0.85165207,5.54772115 C0.85165207,4.59342391 1.13521909,3.67470551 1.67175318,2.89096257 C1.8032155,2.69883686 1.75437865,2.43639391 1.56261149,2.30466817 C1.37090027,2.17294243 1.10870286,2.22196838 0.977240542,2.41398204 C0.344207514,3.33880768 0.00956598161,4.42242138 0.00956598161,5.54772115 L0.00956598161,16.7056926 C0.00956598161,19.7646881 2.49437166,22.2534137 5.54860498,22.2534137 L7.77512916,22.2534137 L7.77512916,27.5460318 C7.77512916,28.0165689 8.05729764,28.4326452 8.49403226,28.606001 C8.63170407,28.6606299 8.77469032,28.687188 8.91599833,28.687188 C9.22306075,28.687188 9.52240325,28.5618496 9.74281242,28.3271974 L15.4460395,22.2534697 L22.5340402,22.2534697 C25.5882176,22.2534697 28.0730233,19.7647441 28.0730233,16.7057486 L28.0730233,5.54772115 C28.0730233,2.48872562 25.5882736,0 22.5340402,0 Z" id="Path" fill="#000000"></path>
                        <path d="M18.2369566,12.7483734 C18.0724888,12.9131006 18.0724888,13.180138 18.2370125,13.3447532 C18.4014802,13.5094243 18.668097,13.5094804 18.8324529,13.3446971 L20.0896243,12.0853744 C21.5510377,10.6215994 21.5510377,8.23972239 20.0895683,6.77594741 C18.6281549,5.31217244 16.2500294,5.3122845 14.7885041,6.77594741 L14.0546087,7.51105661 C14.0526508,7.51301764 14.0465531,7.51906885 14.0353649,7.51906885 C14.0241766,7.51906885 14.0181908,7.5131297 14.0162329,7.51105661 L13.2939733,6.78771364 C11.8325039,5.32393867 9.45443443,5.3239947 7.99296502,6.78771364 C6.53149561,8.25148862 6.53149561,10.6333657 7.99296502,12.0971406 L13.42124,17.5339791 C13.5853721,17.6984261 13.8037115,17.7889701 14.0358683,17.7889701 C14.2680252,17.7889701 14.4863645,17.6983701 14.6504966,17.533923 L17.6335725,14.5456369 C17.7980402,14.3809097 17.7980402,14.1138724 17.6335165,13.9492572 C17.4690488,13.784586 17.2023761,13.78453 17.0380761,13.9493132 L14.0550003,16.9375993 C14.0530423,16.9395604 14.0470007,16.9455555 14.0358683,16.9455555 C14.0246241,16.9455555 14.0186384,16.9396164 14.0166804,16.9375433 L8.58840542,11.5007049 C7.45525616,10.365768 7.45525616,8.51908629 8.58840542,7.38409339 C9.72155468,6.24910048 11.5653277,6.24921254 12.698477,7.38409339 L13.4206806,8.10743635 C13.5848127,8.27193944 13.803152,8.36248338 14.0353089,8.36248338 C14.2675217,8.36248338 14.4857492,8.27193944 14.6499932,8.10749238 L15.3839445,7.37238319 C16.5173175,6.23750234 18.3609227,6.23755837 19.494072,7.37238319 C20.6272212,8.50732006 20.6272212,10.3539457 19.494072,11.4889947 L18.2369566,12.7483734 Z" id="Path" fill="#000000"></path>
                    </g>
                </g>
            </g>
        </g>
    </g>
</svg>