<?xml version="1.0" encoding="UTF-8"?>
<svg width="280px" height="400px" viewBox="0 0 280 400" version="1.1" xmlns="http://www.w3.org/2000/svg" xmlns:xlink="http://www.w3.org/1999/xlink">
    <!-- Generator: Sketch 52.3 (67297) - http://www.bohemiancoding.com/sketch -->
    <title>Group 18</title>
    <desc>Created with Sketch.</desc>
    <g id="Page-1" stroke="none" stroke-width="1" fill="none" fill-rule="evenodd">
        <g id="Group-18">
            <g id="Group-17">
                <g id="Group-16">
                    <g id="Group-15">
                        <g id="Group-4">
                            <g id="Group-2">
                                <ellipse id="Oval" fill="#111D5F" cx="72.5" cy="75.41011" rx="72.5" ry="75.41011"></ellipse>
                                <ellipse id="Oval" fill="#FFF60F" cx="72.8302961" cy="70.2835455" rx="66.5546697" ry="66.6453385"></ellipse>
                            </g>
                        </g>
                    </g>
                    <g id="noun_tools_2383697" transform="translate(53.000000, 38.000000)" fill="#111D5F">
                        <g id="Group">
                            <path d="M38.4426197,33.4424242 L23.8123167,18.5333333 L26.6729228,15.7272727 L33.7638319,15.4484848 C33.9859288,15.4365834 34.1836634,15.3039849 34.2789834,15.1030303 L38.7820137,5.02424242 C38.8773448,4.80259065 38.8321168,4.54550496 38.6668622,4.36969697 L35.5820137,1.21212121 C35.4100303,1.04520954 35.1558412,0.995321978 34.9335288,1.08484848 L24.7759531,5.42424242 C24.5721127,5.51515154 24.4347351,5.71074004 24.4183773,5.93333333 L24.0062561,13.0181818 L22.4244379,14.5454545 C22.2754885,14.782761 22.3086176,15.0912334 22.5045611,15.2914993 C22.7005047,15.4917651 23.008181,15.5316158 23.2486804,15.3878788 L25.0244379,13.6787879 C25.1513632,13.5464205 25.2115272,13.3637003 25.1880743,13.1818182 L25.5820137,6.36363636 L35.0244379,2.34545455 L37.54565,4.90909091 L33.34565,14.2848485 L26.5638319,14.5454545 C26.3710255,14.5085008 26.1722628,14.5672262 26.0304985,14.7030303 L23.0001955,17.6909091 L17.7517107,12.3818182 L17.7880743,5.83030303 C17.7874529,5.67426088 17.7266687,5.52447121 17.6183773,5.41212121 L12.8365591,0.563636364 C12.7266783,0.454559955 12.5792186,0.391672719 12.4244379,0.387878788 L5.63049853,0.303030303 C5.43389323,0.297448267 5.24831442,0.393674314 5.13958944,0.557575758 C5.03148286,0.720830308 5.00890861,0.926255991 5.07898338,1.10909091 L6.3941349,4.37575758 C6.48632395,4.5937389 6.69696852,4.73811326 6.93352884,4.74545455 L10.8183773,4.78181818 L13.3698925,7.38181818 L13.3335288,11.0181818 L10.7395894,13.569697 L7.10322581,13.5333333 L4.54565005,10.9090909 L4.58201369,7.02424242 C4.57915447,6.78832234 4.43964081,6.57550489 4.22443793,6.47878788 L0.982013685,5.1030303 C0.801504951,5.03523952 0.599510037,5.05738746 0.437979375,5.16268152 C0.276448713,5.26797559 0.174660276,5.44384938 0.163831867,5.63636364 L0.0971652004,12.4848485 C0.0977866103,12.6408906 0.158570824,12.7906803 0.26686217,12.9030303 L5.04261975,17.7515152 C5.15250055,17.8605916 5.29996027,17.9234788 5.45474096,17.9272727 L12.0304985,17.9878788 L15.4062561,21.4242424 L10.3274682,26.4121212 L9.06080156,25.1212121 C8.82749853,24.901853 8.46380157,24.901853 8.23049853,25.1212121 L7.26686217,26.0606061 C6.83177006,26.4898483 6.80782583,27.1842309 7.21231672,27.6424242 L1.27292278,33.4727273 C0.704047899,34.0296867 0.380428734,34.7902864 0.373605016,35.5863868 C0.366781297,36.3824872 0.677315021,37.1485224 1.23655914,37.7151515 L1.53958944,38.0242424 C2.09280112,38.5919133 2.84999553,38.9148666 3.64261975,38.9212121 C4.42494093,38.9228927 5.17632509,38.6158053 5.73352884,38.0666667 L11.6911046,32.2484848 C12.1357722,32.6717653 12.8343158,32.6717653 13.2789834,32.2484848 L14.2486804,31.2969697 C14.4680395,31.0636667 14.4680395,30.6999697 14.2486804,30.4666667 L12.9820137,29.1757576 L16.8062561,25.4242424 C16.9552056,25.186936 16.9220765,24.8784635 16.7261329,24.6781977 C16.5301894,24.4779319 16.222513,24.4380811 15.9820137,24.5818182 L12.1698925,28.3030303 L11.1577713,27.2727273 L16.2365591,22.2848485 L32.7092864,39.0727273 C33.1028622,39.4658041 33.6379136,39.6841925 34.1941349,39.6787879 C34.3303467,39.6798458 34.466339,39.6676674 34.6001955,39.6424242 L36.6668622,39.2363636 C37.6049701,39.046329 38.343439,38.3221071 38.5517107,37.3878788 L38.9941349,35.3272727 C39.137369,34.6462819 38.930354,33.9387909 38.4426197,33.4424242 Z M12.4971652,31.3818182 L12.1274682,31.0060606 C12.0175874,30.8969842 11.8701277,30.834097 11.715347,30.830303 C11.5608877,30.8384645 11.4136342,30.8982195 11.2971652,31 L4.93958944,37.2363636 C4.60289525,37.581919 4.13702079,37.7709059 3.65474096,37.7575758 C3.17305169,37.7523407 2.71312703,37.5561643 2.37595308,37.2121212 L2.07292278,36.9030303 C1.36797079,36.1938713 1.36797079,35.0485529 2.07292278,34.3393939 L8.44868035,28.0969697 C8.66803949,27.8636667 8.66803949,27.4999697 8.44868035,27.2666667 L8.07898338,26.9272727 L8.63049853,26.3878788 L9.87292278,27.6727273 L11.6911046,29.5393939 L12.9638319,30.830303 L12.4971652,31.3818182 Z M37.8486804,35.0969697 L37.4062561,37.1515152 C37.3065081,37.6329297 36.9258467,38.0064087 36.4426197,38.0969697 L34.3759531,38.5030303 C34.0758791,38.5622408 33.7661438,38.4665873 33.5517107,38.2484848 L12.7092864,17.0363636 C12.5994056,16.9272872 12.4519459,16.8644 12.2971652,16.8606061 L5.72140762,16.8 L1.28504399,12.2787879 L1.33958944,6.58181818 L3.40625611,7.46060606 L3.36989247,11.1939394 C3.37051388,11.3499815 3.4312981,11.4997712 3.53958944,11.6121212 L6.42443793,14.5454545 C6.53431873,14.654531 6.68177846,14.7174182 6.83655914,14.7212121 L10.9638319,14.7575758 C11.1177731,14.7554085 11.2651197,14.6947364 11.3759531,14.5878788 L14.3214076,11.6969697 C14.430484,11.5870889 14.4933713,11.4396292 14.4971652,11.2848485 L14.5335288,7.15757576 C14.5329074,7.00153361 14.4721232,6.85174394 14.3638319,6.73939394 L11.4729228,3.79393939 C11.3664529,3.69700637 11.2289501,3.64114588 11.085044,3.63636364 L7.35171065,3.6 L6.50928641,1.51515152 L12.2062561,1.56969697 L16.6304985,6.06060606 L16.5941349,12.6121212 C16.5963021,12.7660624 16.6569742,12.913409 16.7638319,13.0242424 L22.5517107,18.9212121 L37.6062561,34.2666667 C37.8208029,34.4854124 37.909795,34.7980257 37.8426197,35.0969697 L37.8486804,35.0969697 Z" id="Shape" fill-rule="nonzero"></path>
                            <path d="M24.5759531,24.2424242 C24.4472156,24.027022 24.1990457,23.9132353 23.9518199,23.9562572 C23.704594,23.9992792 23.5094508,24.1902107 23.4610458,24.4364391 C23.4126407,24.6826675 23.5209863,24.9332607 23.7335288,25.0666667 L26.7032258,28.0969697 C26.8319633,28.312372 27.0801332,28.4261587 27.327359,28.3831367 C27.5745848,28.3401148 27.7697281,28.1491833 27.8181331,27.9029549 C27.8665382,27.6567264 27.7581926,27.4061333 27.54565,27.2727273 L24.5759531,24.2424242 Z" id="Path"></path>
                            <path d="M29.0365591,28.7575758 C28.9078216,28.5421735 28.6596517,28.4283868 28.4124259,28.4714087 C28.1652001,28.5144307 27.9700569,28.7053622 27.9216518,28.9515906 C27.8732467,29.197819 27.9815924,29.4484122 28.1941349,29.5818182 L29.9274682,31.3515152 C30.1647746,31.5004646 30.4732471,31.4673355 30.6735129,31.271392 C30.8737788,31.0754484 30.9136295,30.7677721 30.7698925,30.5272727 L29.0365591,28.7575758 Z" id="Path"></path>
                            <path d="M35.6668622,33.769697 C35.5569814,33.6606206 35.4095216,33.5977333 35.254741,33.5939394 L34.2244379,33.5939394 C34.0683958,33.5945608 33.9186061,33.655345 33.8062561,33.7636364 L33.0729228,34.4848485 C32.9638464,34.5947293 32.9009591,34.742189 32.8971652,34.8969697 L32.8971652,35.9272727 C32.8977866,36.0833149 32.9585708,36.2331045 33.0668622,36.3454545 L33.7880743,37.0787879 C33.8979551,37.1878643 34.0454148,37.2507515 34.2001955,37.2545455 L35.2304985,37.2545455 C35.3844397,37.2523782 35.5317863,37.1917061 35.6426197,37.0848485 L36.3698925,36.3636364 C36.4789689,36.2537556 36.5418561,36.1062958 36.54565,35.9515152 L36.54565,34.9212121 C36.5450286,34.76517 36.4842444,34.6153803 36.3759531,34.5030303 L35.6668622,33.769697 Z M35.3698925,35.6969697 L34.9820137,36.0787879 L34.4426197,36.0787879 L34.0608016,35.6909091 L34.0608016,35.1515152 L34.4486804,34.769697 L34.9880743,34.769697 L35.3698925,35.1575758 L35.3698925,35.6969697 Z" id="Shape" fill-rule="nonzero"></path>
                        </g>
                    </g>
                    <text id="Internal-&amp;-External" font-family="Roboto-Bold, Roboto" font-size="11" font-weight="bold" fill="#111D5F">
                        <tspan x="49.0126953" y="97">Internal &amp; </tspan>
                        <tspan x="38.2194824" y="110">External Audit</tspan>
                    </text>
                </g>
                <g id="Group-16" transform="translate(115.000000, 75.000000)">
                    <g id="Group-15">
                        <g id="Group-4">
                            <g id="Group-2">
                                <ellipse id="Oval" fill="#111D5F" cx="72.5" cy="75.41011" rx="72.5" ry="75.41011"></ellipse>
                                <ellipse id="Oval" fill="#FFF60F" cx="72.8302961" cy="70.2835455" rx="66.5546697" ry="66.6453385"></ellipse>
                            </g>
                        </g>
                    </g>
                    <text id="Create-Content-Calen" font-family="Roboto-Bold, Roboto" font-size="11" font-weight="bold" fill="#111D5F">
                        <tspan x="35.7138672" y="97">Create Content </tspan>
                        <tspan x="50.887207" y="110">Calendar</tspan>
                    </text>
                </g>
                <g id="Group-16" transform="translate(19.000000, 174.000000)">
                    <g id="Group-15">
                        <g id="Group-4">
                            <g id="Group-2">
                                <ellipse id="Oval" fill="#111D5F" cx="72.5" cy="75.41011" rx="72.5" ry="75.41011"></ellipse>
                                <ellipse id="Oval" fill="#FFF60F" cx="72.8302961" cy="70.2835455" rx="66.5546697" ry="66.6453385"></ellipse>
                            </g>
                        </g>
                    </g>
                    <text id="Content-Creation" font-family="Roboto-Bold, Roboto" font-size="11" font-weight="bold" fill="#111D5F">
                        <tspan x="31.0383301" y="104">Content Creation</tspan>
                    </text>
                </g>
                <g id="Group-16" transform="translate(135.000000, 249.000000)">
                    <g id="Group-15">
                        <g id="Group-4">
                            <g id="Group-2">
                                <ellipse id="Oval" fill="#111D5F" cx="72.5" cy="75.41011" rx="72.5" ry="75.41011"></ellipse>
                                <ellipse id="Oval" fill="#FFF60F" cx="72.8302961" cy="70.2835455" rx="66.5546697" ry="66.6453385"></ellipse>
                            </g>
                        </g>
                    </g>
                    <text id="Constant-Evaluation" font-family="Roboto-Bold, Roboto" font-size="11" font-weight="bold" fill="#111D5F">
                        <tspan x="50.6374512" y="97">Constant </tspan>
                        <tspan x="42.2075195" y="110">Evaluation &amp; </tspan>
                        <tspan x="39.9973145" y="123">Improvement</tspan>
                    </text>
                </g>
            </g>
            <g id="noun_Content-marketing_1211569" transform="translate(62.000000, 212.000000)" fill="#111D5F" fill-rule="nonzero">
                <path d="M8.63672183,26.6456693 C10.5279748,26.6456693 12.0409771,25.1338583 12.0409771,23.2440945 C12.0409771,21.3543307 10.5279748,19.8425197 8.63672183,19.8425197 C6.74546887,19.8425197 5.23246651,21.3543307 5.23246651,23.2440945 C5.23246651,25.1338583 6.74546887,26.6456693 8.63672183,26.6456693 C8.63672183,26.6456693 8.63672183,26.6456693 8.63672183,26.6456693 Z M8.63672183,20.9133858 C9.89755713,20.9133858 10.9692671,21.984252 10.9692671,23.2440945 C10.9692671,24.503937 9.89755713,25.5748031 8.63672183,25.5748031 C7.37588652,25.5748031 6.30417652,24.503937 6.30417652,23.2440945 C6.30417652,21.984252 7.31284476,20.976378 8.63672183,20.9133858 Z M36.1859732,6.92913386 L16.7691095,6.92913386 L16.7691095,5.85826772 L36.1229314,5.85826772 L36.1229314,6.92913386 L36.1859732,6.92913386 Z M41.5445232,21.6692913 L41.5445232,16.5669291 L51.6942474,12.7874016 L49.2356186,6.11023622 L41.607565,8.94488189 L41.607565,0 L11.4736013,0 L11.4736013,15.1181102 L0,15.1181102 L0,40 L53.3333333,40 L53.3333333,21.6692913 L41.5445232,21.6692913 Z M49.2356186,23.1811024 L45.1379039,27.5275591 L39.3380615,27.5275591 L43.4357762,23.1811024 L49.2356186,23.1811024 Z M41.9858156,23.1811024 L37.8881009,27.5275591 L32.0882585,27.5275591 L36.1859732,23.1811024 L41.9858156,23.1811024 Z M28.5579196,21.3543307 L40.0945626,17.0708661 L40.0945626,21.6692913 L28.5579196,21.6692913 L28.5579196,21.3543307 Z M35.0512214,17.3858268 L30.0078802,14.8661417 L35.429472,12.8503937 L40.4728132,15.3700787 L35.0512214,17.3858268 Z M33.7273444,17.8897638 L28.5579196,19.7795276 L28.5579196,15.3700787 L28.6840032,15.3070866 L33.7273444,17.8897638 Z M28.5579196,23.1811024 L34.7990544,23.1811024 L30.7013396,27.5275591 L28.5579196,27.5275591 L28.5579196,23.1811024 Z M48.2899921,8.06299213 L49.7399527,11.9685039 L48.6052009,12.4094488 L43.5618597,9.88976378 L48.2899921,8.06299213 Z M42.2379827,10.3307087 L47.2813239,12.8503937 L41.7966903,14.8661417 L36.7533491,12.3464567 L42.2379827,10.3307087 Z M12.9235619,1.51181102 L40.0315209,1.51181102 L40.0315209,9.51181102 L35.6185973,11.1496063 L16.7691095,11.1496063 L16.7691095,12.2204724 L32.7817179,12.2204724 L24.8384555,15.1811024 L12.9235619,15.1811024 L12.9235619,1.51181102 Z M27.0449173,16.6299213 L27.0449173,29.8582677 L20.1103231,22.9291339 L10.6540583,32.3779528 L7.12371946,28.9133858 L1.4499606,34.5826772 L1.4499606,16.6299213 L27.0449173,16.6299213 Z M1.4499606,38.5511811 L1.4499606,36.0944882 L7.12371946,30.4251969 L10.6540583,33.9527559 L20.1103231,24.503937 L27.0449173,31.4330709 L27.0449173,38.5511811 L1.4499606,38.5511811 Z M51.8833727,38.5511811 L28.5579196,38.5511811 L28.5579196,28.5984252 L51.8833727,28.5984252 L51.8833727,38.5511811 Z M51.8833727,27.5275591 L46.5878645,27.5275591 L50.6225374,23.1811024 L51.8833727,23.1811024 L51.8833727,27.5275591 Z" id="Shape"></path>
            </g>
            <g id="noun_Calendar_1417275" transform="translate(168.000000, 113.000000)" fill="#111D5F">
                <g id="Group">
                    <path d="M24.3767064,34.8198855 L20.5773892,34.8198855 C20.1642247,34.8198855 19.8229149,34.4787341 19.8229149,34.0657614 L19.8229149,30.3220738 C19.8229149,29.9091011 20.1642247,29.5679497 20.5773892,29.5679497 L24.3767064,29.5679497 C24.7943619,29.5679497 25.1311808,29.9091011 25.1311808,30.3220738 L25.1311808,34.0657614 C25.1311808,34.4787341 24.7943619,34.8198855 24.3767064,34.8198855 Z" id="Path"></path>
                    <path d="M17.2720731,34.8198855 L13.4727559,34.8198855 C13.0551005,34.8198855 12.7182816,34.4787341 12.7182816,34.0657614 L12.7182816,30.3220738 C12.7182816,29.9091011 13.0551005,29.5679497 13.4727559,29.5679497 L17.2720731,29.5679497 C17.6852376,29.5679497 18.0265475,29.9091011 18.0265475,30.3220738 L18.0265475,34.0657614 C18.0265475,34.4787341 17.6852376,34.8198855 17.2720731,34.8198855 Z" id="Path"></path>
                    <path d="M10.1629489,34.8198855 L6.36363172,34.8198855 C5.95046721,34.8198855 5.60915739,34.4787341 5.60915739,34.0657614 L5.60915739,30.3220738 C5.60915739,29.9091011 5.95046721,29.5679497 6.36363172,29.5679497 L10.1629489,29.5679497 C10.5761134,29.5679497 10.9174232,29.9091011 10.9174232,30.3220738 L10.9174232,34.0657614 C10.9174232,34.4787341 10.5806043,34.8198855 10.1629489,34.8198855 Z" id="Path"></path>
                    <path d="M31.4858306,27.5389967 L27.6865135,27.5389967 C27.268858,27.5389967 26.9320391,27.2023342 26.9320391,26.7848726 L26.9320391,23.0456739 C26.9320391,22.6282123 27.2733489,22.2915498 27.6865135,22.2915498 L31.4858306,22.2915498 C31.8989952,22.2915498 32.240305,22.6282123 32.240305,23.0456739 L32.240305,26.7848726 C32.240305,27.1978454 31.8989952,27.5389967 31.4858306,27.5389967 Z" id="Path"></path>
                    <path d="M24.3767064,27.5389967 L20.5773892,27.5389967 C20.1642247,27.5389967 19.8229149,27.1978454 19.8229149,26.7848726 L19.8229149,23.0456739 C19.8229149,22.6282123 20.1642247,22.2915498 20.5773892,22.2915498 L24.3767064,22.2915498 C24.7943619,22.2915498 25.1311808,22.6282123 25.1311808,23.0456739 L25.1311808,26.7848726 C25.1311808,27.1978454 24.7943619,27.5389967 24.3767064,27.5389967 Z" id="Path"></path>
                    <path d="M17.2720731,27.5389967 L13.4727559,27.5389967 C13.0551005,27.5389967 12.7182816,27.2023342 12.7182816,26.7848726 L12.7182816,23.0456739 C12.7182816,22.6282123 13.0551005,22.2915498 13.4727559,22.2915498 L17.2720731,22.2915498 C17.6852376,22.2915498 18.0265475,22.6282123 18.0265475,23.0456739 L18.0265475,26.7848726 C18.0265475,27.2023342 17.6852376,27.5389967 17.2720731,27.5389967 Z" id="Path"></path>
                    <path d="M10.1629489,27.5389967 L6.36363172,27.5389967 C5.95046721,27.5389967 5.60915739,27.2023342 5.60915739,26.7848726 L5.60915739,23.0456739 C5.60915739,22.6282123 5.95046721,22.2915498 6.36363172,22.2915498 L10.1629489,22.2915498 C10.5761134,22.2915498 10.9174232,22.6282123 10.9174232,23.0456739 L10.9174232,26.7848726 C10.9174232,27.2023342 10.5806043,27.5389967 10.1629489,27.5389967 Z" id="Path"></path>
                    <path d="M31.4858306,20.2625968 L27.6865135,20.2625968 C27.268858,20.2625968 26.9320391,19.9214454 26.9320391,19.5084727 L26.9320391,15.7647851 C26.9320391,15.3518124 27.268858,15.010661 27.6865135,15.010661 L31.4858306,15.010661 C31.8989952,15.010661 32.240305,15.3518124 32.240305,15.7647851 L32.240305,19.5084727 C32.240305,19.9214454 31.8989952,20.2625968 31.4858306,20.2625968 Z" id="Path"></path>
                    <path d="M24.3767064,20.2625968 L20.5773892,20.2625968 C20.1642247,20.2625968 19.8229149,19.9214454 19.8229149,19.5084727 L19.8229149,15.7647851 C19.8229149,15.3518124 20.1642247,15.010661 20.5773892,15.010661 L24.3767064,15.010661 C24.7943619,15.010661 25.1311808,15.3518124 25.1311808,15.7647851 L25.1311808,19.5084727 C25.1311808,19.9214454 24.7943619,20.2625968 24.3767064,20.2625968 Z" id="Path"></path>
                    <path d="M2.53736904,39.3805409 L35.3120933,39.3805409 C36.3674592,39.3805409 37.2297156,38.5186848 37.2297156,37.4638088 L37.2297156,10.4500056 L0.619746773,10.4500056 L0.619746773,37.4638088 C0.619746773,38.5186848 1.48200315,39.3805409 2.53736904,39.3805409 Z M7.12708789,5.22949164 C8.03425346,6.09583661 8.05670805,7.54573 7.16301524,8.43451913 C6.28728611,9.30984177 4.86815581,9.30984177 3.99242668,8.43451913 C3.09873387,7.54573 3.12567938,6.09583661 4.02835403,5.22949164 L4.02835403,3.86937493 L2.53736904,3.86937493 C1.48200315,3.86937493 0.619746773,4.7357199 0.619746773,5.79059589 L0.619746773,9.83054652 L37.2297156,9.83054652 L37.2297156,5.79059589 C37.2297156,4.7357199 36.3674592,3.86937493 35.3120933,3.86937493 L33.8211083,3.86937493 L33.8211083,5.22949164 C34.723783,6.09583661 34.7507285,7.54573 33.8570357,8.43451913 C32.9813066,9.30984177 31.5621763,9.30984177 30.6864471,8.43451913 C29.7927543,7.54573 29.8152089,6.09583661 30.7223745,5.22949164 L30.7223745,3.86937493 L27.1476032,3.86937493 L27.1476032,5.22949164 C28.0547688,6.09583661 28.0772234,7.54573 27.1835306,8.43451913 C26.3078014,9.30984177 24.8886711,9.30984177 24.012942,8.43451913 C23.1192492,7.54573 23.1417038,6.09583661 24.0488694,5.22949164 L24.0488694,3.86937493 L20.4740981,3.86937493 L20.4740981,5.22949164 C21.3812637,6.09583661 21.4037183,7.54573 20.5100255,8.43451913 C19.6342963,9.30984177 18.215166,9.30984177 17.3394369,8.43451913 C16.4457441,7.54573 16.4681987,6.09583661 17.3753642,5.22949164 L17.3753642,3.86937493 L13.800593,3.86937493 L13.800593,5.22949164 C14.7077586,6.09583661 14.7302132,7.54573 13.8365204,8.43451913 C12.9607912,9.30984177 11.5416609,9.30984177 10.6659318,8.43451913 C9.77223898,7.54573 9.79469357,6.09583661 10.7018591,5.22949164 L10.7018591,3.86937493 L7.12708789,3.86937493 L7.12708789,5.22949164 Z M33.8211083,6.36067781 C33.8211083,7.87790371 32.1909049,8.60958366 31.1759573,7.59510717 C30.8121928,7.23151161 30.7223745,6.84996072 30.7223745,6.36067781 C30.3945374,7.40208731 31.1669754,8.47491864 32.2717414,8.47491864 C33.3720165,8.47491864 34.1489454,7.40208731 33.8211083,6.36067781 Z M27.1476032,6.36067781 C27.1476032,7.87790371 25.5173998,8.60958366 24.5024521,7.59510717 C24.1386877,7.23151161 24.0488694,6.84996072 24.0488694,6.36067781 C23.7210323,7.40208731 24.4934703,8.47491864 25.5982363,8.47491864 C26.6985114,8.47491864 27.4754403,7.40208731 27.1476032,6.36067781 Z M20.4740981,6.36067781 C20.4740981,7.87790371 18.8483856,8.60958366 17.828947,7.59510717 C17.4696735,7.23151161 17.3753642,6.85444956 17.3753642,6.36067781 C17.0475272,7.40208731 17.8244561,8.47491864 18.9247312,8.47491864 C20.0250063,8.47491864 20.8019352,7.40208731 20.4740981,6.36067781 Z M13.800593,6.36067781 C13.800593,7.87790371 12.1748805,8.60958366 11.1554419,7.59510717 C10.7961684,7.23151161 10.7018591,6.85444956 10.7018591,6.36067781 C10.3740221,7.40208731 11.150951,8.47491864 12.2512261,8.47491864 C13.3559921,8.47491864 14.1284301,7.40208731 13.800593,6.36067781 Z M4.02835403,3.25440467 L4.02835403,1.5306924 C4.02835403,-0.529682415 7.12708789,-0.489282909 7.12708789,1.5306924 L7.12708789,3.25440467 L10.7018591,3.25440467 L10.7018591,1.5306924 C10.7018591,-0.529682415 13.800593,-0.489282909 13.800593,1.5306924 L13.800593,3.25440467 L17.3753642,3.25440467 L17.3753642,1.5306924 C17.3753642,-0.529682415 20.4740981,-0.489282909 20.4740981,1.5306924 L20.4740981,3.25440467 L24.0488694,3.25440467 L24.0488694,1.5306924 C24.0488694,-0.529682415 27.1476032,-0.489282909 27.1476032,1.5306924 L27.1476032,3.25440467 L30.7223745,3.25440467 L30.7223745,1.5306924 C30.7223745,-0.529682415 33.8211083,-0.489282909 33.8211083,1.5306924 L33.8211083,3.25440467 L35.3120933,3.25440467 C36.708769,3.25440467 37.8494624,4.39456851 37.8494624,5.79059589 L37.8494624,37.4638088 C37.8494624,38.8598362 36.708769,40 35.3120933,40 L2.53736904,40 C1.14069334,40 0,38.8598362 0,37.4638088 L0,5.79059589 C0,4.39456851 1.14069334,3.25440467 2.53736904,3.25440467 L4.02835403,3.25440467 Z M31.3376303,1.5306924 L31.3376303,6.49983167 C31.3376303,7.73874986 33.2013616,7.71181686 33.2013616,6.49983167 L33.2013616,1.5306924 C33.2013616,0.305240714 31.3376303,0.305240714 31.3376303,1.5306924 Z M24.6686161,1.5306924 L24.6686161,6.49983167 C24.6686161,7.73874986 26.5278565,7.71181686 26.5278565,6.49983167 L26.5278565,1.5306924 C26.5278565,0.305240714 24.6686161,0.305240714 24.6686161,1.5306924 Z M17.995111,1.5306924 L17.995111,6.49983167 C17.995111,7.73874986 19.8543513,7.71181686 19.8543513,6.49983167 L19.8543513,1.5306924 C19.8543513,0.305240714 17.995111,0.305240714 17.995111,1.5306924 Z M11.3216059,1.5306924 L11.3216059,6.49983167 C11.3216059,7.73874986 13.1808462,7.71181686 13.1808462,6.49983167 L13.1808462,1.5306924 C13.1808462,0.305240714 11.3216059,0.305240714 11.3216059,1.5306924 Z M4.6481008,6.49983167 C4.6481008,7.31679946 5.64508474,7.74772753 6.237886,7.15520144 C6.40404999,6.98911458 6.51183204,6.75569521 6.51183204,6.49983167 L6.51183204,1.5306924 C6.51183204,0.291774212 4.6481008,0.318707216 4.6481008,1.5306924 L4.6481008,6.49983167 Z M7.20343351,6.84996072 C7.20343351,6.67938503 7.176488,6.51329817 7.12708789,6.36067781 C7.12708789,7.87790371 5.50137534,8.60958366 4.48642773,7.59510717 C4.12266332,7.23151161 4.02835403,6.85444956 4.02835403,6.36067781 C3.70051697,7.40208731 4.47744589,8.47491864 5.57772096,8.47491864 C6.47590469,8.47491864 7.20343351,7.74772753 7.20343351,6.84996072 Z" id="Shape" fill-rule="nonzero"></path>
                    <path d="M3.81278993,12.981708 L3.81278993,35.3136573 C3.81278993,36.1575581 4.5043914,36.8488385 5.34868411,36.8488385 L32.5007783,36.8488385 C33.345071,36.8488385 34.0366724,36.1575581 34.0366724,35.3136573 L34.0366724,12.981708 L3.81278993,12.981708 Z M34.6564192,35.3136573 C34.6564192,36.4987095 33.6863808,37.4638088 32.5007783,37.4638088 L5.34868411,37.4638088 C4.16308159,37.4638088 3.19304316,36.4987095 3.19304316,35.3136573 L3.19304316,12.3622489 L34.6564192,12.3622489 L34.6564192,35.3136573 Z" id="Shape" fill-rule="nonzero"></path>
                </g>
            </g>
            <g id="noun_Audit_3332999" transform="translate(186.000000, 287.000000)" fill="#111D5F">
                <g id="Group">
                    <path d="M28.6687674,17.3103417 C28.5008925,17.3103417 28.3647817,17.1740527 28.3647817,17.0059579 L28.3647817,6.28549549 C28.3647817,5.73335401 27.9160761,5.28413525 27.3646566,5.28413525 L20.0112586,5.28413525 C19.8433836,5.28413525 19.7072728,5.14784623 19.7072728,4.97975147 C19.7072728,4.81165671 19.8433836,4.67536768 20.0112586,4.67536768 L27.3646566,4.67536768 C28.2513807,4.67536768 28.9727532,5.39768468 28.9727532,6.28549549 L28.9727532,17.0059579 C28.9727532,17.1740527 28.8366424,17.3103417 28.6687674,17.3103417 Z" id="Path"></path>
                    <path d="M27.3646566,39.5698925 L1.90584827,39.5698925 C1.01912415,39.5698925 0.297751661,38.8475755 0.297751661,37.9596903 L0.297751661,6.28549549 C0.297751661,5.39768468 1.01912415,4.67536768 1.90584827,4.67536768 L8.2226073,4.67536768 C8.39048225,4.67536768 8.52659307,4.81165671 8.52659307,4.97975147 C8.52659307,5.14784623 8.39048225,5.28413525 8.2226073,5.28413525 L1.90584827,5.28413525 C1.35442879,5.28413525 0.905723203,5.73335401 0.905723203,6.28549549 L0.905723203,37.9596903 C0.905723203,38.5119061 1.35442876,38.9611249 1.90584827,38.9611249 L27.3646566,38.9611249 C27.9160761,38.9611249 28.3647817,38.5119061 28.3647817,37.9596903 L28.3647817,31.3698111 C28.3647817,31.2017163 28.5008925,31.0654273 28.6687674,31.0654273 C28.8366424,31.0654273 28.9727532,31.2017163 28.9727532,31.3698111 L28.9727532,37.9596903 C28.9727532,38.8475755 28.2513807,39.5698925 27.3646566,39.5698925 Z" id="Path"></path>
                    <path d="M26.540867,37.439206 L2.72963786,37.439206 C2.5617629,37.439206 2.42565209,37.3029169 2.42565209,37.1348222 L2.42565209,7.11043798 C2.42565209,6.94234322 2.5617629,6.8060542 2.72963786,6.8060542 L7.80314256,6.8060542 C7.97101752,6.8060542 8.10712833,6.94234322 8.10712833,7.11043798 C8.10712833,7.27853274 7.97101752,7.41482177 7.80314256,7.41482177 L3.03362363,7.41482177 L3.03362363,36.8304384 L26.2368813,36.8304384 L26.2368813,31.2267596 C26.2368813,31.0586648 26.3729921,30.9223758 26.540867,30.9223758 C26.708742,30.9223758 26.8448528,31.0586648 26.8448528,31.2267596 L26.8448528,37.1348222 C26.8448528,37.3029169 26.708742,37.439206 26.540867,37.439206 Z" id="Path"></path>
                    <path d="M26.540867,17.4472996 C26.3729921,17.4472996 26.2368813,17.3110105 26.2368813,17.1429158 L26.2368813,7.41482177 L20.4307234,7.41482177 C20.2628484,7.41482177 20.1267376,7.27853274 20.1267376,7.11043798 C20.1267376,6.94234322 20.2628484,6.8060542 20.4307234,6.8060542 L26.5408671,6.8060542 C26.708742,6.8060542 26.8448528,6.94234322 26.8448528,7.11043798 L26.8448528,17.1429157 C26.8448528,17.3110105 26.708742,17.4472996 26.540867,17.4472996 Z" id="Path"></path>
                    <path d="M20.6689544,8.63131657 L7.56491153,8.63131657 C7.47407204,8.63131657 7.38798232,8.59059334 7.33024281,8.52036807 C7.27250333,8.45006851 7.24905131,8.3576238 7.26656609,8.26837455 L8.25852747,3.20450139 C8.28658086,3.06167285 8.41155938,2.9586758 8.55687288,2.9586758 L12.0038756,2.9586758 L12.0038756,2.11582401 C12.0038756,0.949118601 12.9517531,0 14.1169329,0 C15.2821128,0 16.2299903,0.949118601 16.2299903,2.11582404 L16.2299903,2.95867583 L19.676993,2.95867583 C19.8223065,2.95867583 19.9472851,3.06167289 19.9753384,3.20450142 L20.9672998,8.26837458 C20.9848146,8.35762383 20.9613626,8.45006851 20.9036231,8.5203681 C20.8458836,8.59059334 20.7597939,8.63131657 20.6689544,8.63131657 Z M7.93435516,8.022549 L20.2995107,8.022549 L19.4268875,3.56744341 L15.9260045,3.56744341 C15.7581296,3.56744341 15.6220188,3.43115438 15.6220188,3.26305962 L15.6220188,2.11582404 C15.6220188,1.28486223 14.9468082,0.608767577 14.1169329,0.608767577 C13.2870577,0.608767577 12.6118471,1.28486223 12.6118471,2.11582404 L12.6118471,3.26305962 C12.6118471,3.43115438 12.4757363,3.56744341 12.3078614,3.56744341 L8.80697839,3.56744341 L7.93435516,8.022549 Z" id="Shape" fill-rule="nonzero"></path>
                    <g transform="translate(3.951815, 19.176179)">
                        <path d="M2.03913892,8.59958514 C1.07730894,8.59958514 0.294783088,7.81603467 0.294783088,6.85287104 C0.294783088,5.88970741 1.07730897,5.10615694 2.03913892,5.10615694 C3.00111734,5.10615694 3.78364319,5.88970741 3.78364319,6.85287104 C3.78364319,7.81603467 3.00111734,8.59958514 2.03913892,8.59958514 Z M2.03913892,5.71492452 C1.41246514,5.71492452 0.90275463,6.22537674 0.90275463,6.85287104 C0.90275463,7.48036534 1.41246514,7.99081756 2.03913892,7.99081756 C2.6658127,7.99081756 3.17567165,7.48036534 3.17567165,6.85287104 C3.17567165,6.22537674 2.6658127,5.71492452 2.03913892,5.71492452 Z" id="Shape" fill-rule="nonzero"></path>
                        <path d="M7.22960689,3.63937785 C6.26762848,3.63937785 5.48510262,2.85575308 5.48510262,1.89258945 C5.48510262,0.929425822 6.26762851,0.145875352 7.22960689,0.145875352 C8.19143687,0.145875352 8.97396273,0.929425822 8.97396273,1.89258945 C8.97396273,2.85575308 8.19143687,3.63937785 7.22960689,3.63937785 Z M7.22960689,0.754642898 C6.60293311,0.754642898 6.09307416,1.26509512 6.09307416,1.89258942 C6.09307416,2.52008372 6.60293311,3.03061025 7.22960689,3.03061025 C7.85628067,3.03061025 8.36599118,2.52008372 8.36599118,1.89258942 C8.36599118,1.26509512 7.8562807,0.754642898 7.22960689,0.754642898 Z" id="Shape" fill-rule="nonzero"></path>
                        <path d="M13.5488892,6.52403848 C12.5869108,6.52403848 11.804385,5.74048801 11.804385,4.77732438 C11.804385,3.81416075 12.5869109,3.03061028 13.5488892,3.03061028 C14.5108676,3.03061028 15.2933935,3.81416075 15.2933935,4.77732438 C15.2933935,5.74048801 14.5108677,6.52403848 13.5488892,6.52403848 Z M13.5488892,3.63937785 C12.9222155,3.63937785 12.4123565,4.14983007 12.4123565,4.77732438 C12.4123565,5.40481868 12.9222155,5.9152709 13.5488892,5.9152709 C14.175563,5.9152709 14.685422,5.40481868 14.685422,4.77732438 C14.685422,4.14983007 14.175563,3.63937785 13.5488892,3.63937785 Z" id="Shape" fill-rule="nonzero"></path>
                        <path d="M12.2389896,4.4837159 C12.1968353,4.4837159 12.1539389,4.47487273 12.1129721,4.4562203 L8.41408271,2.76761854 C8.26134767,2.69783917 8.1939602,2.51733423 8.26372256,2.36439921 C8.33318805,2.21153849 8.51323432,2.14383985 8.66641464,2.21369356 L12.365304,3.90229532 C12.518039,3.97207469 12.5854265,4.15257963 12.5156642,4.30551465 C12.4647525,4.4175778 12.3543202,4.4837159 12.2389896,4.4837159 Z" id="Path"></path>
                        <path d="M3.0791918,6.16102215 C2.99903929,6.16102215 2.91903522,6.12943935 2.85921772,6.06671964 C2.74329345,5.94507016 2.74789482,5.7524523 2.86931099,5.63637624 L5.97789204,2.66722236 C6.09945665,2.55129493 6.29167424,2.55567937 6.40774692,2.67740318 C6.52367119,2.79905265 6.51906982,2.99167052 6.39765365,3.10774658 L3.2890726,6.07690046 C3.23014569,6.13308066 3.15459452,6.16102215 3.0791918,6.16102215 Z" id="Path"></path>
                    </g>
                    <g transform="translate(5.775730, 9.435897)" id="Path">
                        <path d="M0.333078152,11.0537537 C0.227395614,11.0537537 0.124830085,10.9985396 0.06872334,10.9000756 C-0.0143977693,10.7541259 0.0363654834,10.5681962 0.182124289,10.4848919 L17.2356073,0.744610713 C17.3812177,0.661306471 17.5669043,0.712210489 17.6503223,0.858234442 C17.7334434,1.00418409 17.6826801,1.19011383 17.5369213,1.2734181 L0.483438299,11.0136993 C0.435940522,11.0408234 0.384138277,11.0537537 0.333078152,11.0537537 Z"></path>
                        <path d="M16.8737336,3.82835441 C16.8535471,3.82835441 16.8332121,3.82634797 16.8125802,3.82211216 C16.6481192,3.78852293 16.5419913,3.62771079 16.5755366,3.46303441 L17.0276561,1.24636839 L14.8138144,0.793731286 C14.6493534,0.760142048 14.5432255,0.599329914 14.5767708,0.434653536 C14.6103161,0.269902827 14.7695821,0.163264463 14.9355274,0.197299563 L17.4471208,0.710798575 C17.6115819,0.744387813 17.7177097,0.905199947 17.6841644,1.06987632 L17.1713369,3.58475819 C17.1419476,3.72892434 17.0151879,3.82835441 16.8737336,3.82835441 Z"></path>
                    </g>
                    <g transform="translate(20.367047, 16.436725)">
                        <path d="M7.71556855,15.259764 C5.42780845,15.259764 3.16765643,14.2187952 1.69611594,12.2468401 C-0.779705658,8.92849204 -0.0979641568,4.21195526 3.21589636,1.73281767 C6.5299053,-0.746691481 11.240052,-0.0636857634 13.7163189,3.25451368 C16.1921405,6.57286176 15.510399,11.2893985 12.1965385,13.7685361 C10.8520545,14.7743551 9.27720638,15.259764 7.71556855,15.259764 Z M7.69760843,0.850060093 C6.26228499,0.850060093 4.81553241,1.2960834 3.57984806,2.22045596 C0.534498424,4.49872701 -0.09202695,8.83307487 2.18326499,11.8824119 C4.45885377,14.9318232 8.78753397,15.5588716 11.8325868,13.2808978 C14.8779364,11.0026268 15.5044618,6.66827892 13.2291698,3.61894192 C11.8771159,1.80683288 9.79983036,0.850060093 7.69760843,0.850060093 Z" id="Shape" fill-rule="nonzero"></path>
                        <path d="M7.7134905,13.6860493 C5.90530951,13.6860493 4.11879939,12.8632619 2.95569758,11.3045583 C0.998789176,8.68177473 1.53759207,4.95366782 4.15694605,2.99404855 C6.77644843,1.03442928 10.499532,1.57408627 12.4565888,4.19686985 C13.4031304,5.46553198 13.79944,7.02951174 13.5721928,8.60084849 C13.3450941,10.1721852 12.5223435,11.5595243 11.2553404,12.5073053 C10.1925776,13.3022998 8.94783898,13.6860493 7.7134905,13.6860493 Z M7.69953804,2.42392344 C6.59150398,2.42392344 5.47471248,2.76813871 4.52089775,3.48168684 C2.17005468,5.24043956 1.68646791,8.58628323 3.44284666,10.94013 C5.19907697,13.2939025 8.54069397,13.7784197 10.8913886,12.019667 C12.0283667,11.169161 12.7666602,9.92405595 12.9706038,8.51360567 C13.174399,7.10322972 12.8189078,5.6996162 11.9694398,4.56129812 C10.9258245,3.16251487 9.32218083,2.42392344 7.69953804,2.42392344 Z" id="Shape" fill-rule="nonzero"></path>
                        <path d="M13.1536187,15.3553298 C13.060998,15.3553298 12.9695648,15.3131203 12.9097473,15.2330858 L11.7709881,13.7068568 C11.6705006,13.5722026 11.6981087,13.3815169 11.8325867,13.2808978 C11.9673617,13.1801301 12.1575012,13.207923 12.2581371,13.3425771 L13.3968963,14.8688062 C13.4973838,15.0034604 13.4697757,15.1941461 13.3352977,15.2947652 C13.2806752,15.335637 13.2168501,15.3553298 13.1536187,15.3553298 Z" id="Path"></path>
                        <path d="M18.4019746,23.1203862 C17.8808349,23.1203862 17.2075539,22.8238795 16.4130051,22.2388919 C15.3579608,21.4621039 14.1961948,20.2560871 13.1417442,18.8429616 C12.5020085,17.985396 11.9298087,17.0843575 11.4870404,16.2371956 C11.4177233,16.1048452 11.454831,15.941655 11.5743176,15.8522572 L14.3683743,13.7619966 C14.4880093,13.6724501 14.6546968,13.6832254 14.7618637,13.7872628 C15.4476128,14.4525822 16.1483535,15.2575346 16.7882376,16.115026 C17.8425398,17.5282258 18.6682589,18.9857158 19.1129568,20.2190796 C19.604262,21.581301 19.5751696,22.5172663 19.0290936,22.9257619 C18.8552815,23.0558086 18.6452522,23.1203862 18.4019746,23.1203862 Z M12.1475564,16.1833191 C12.5567794,16.9348409 13.0654509,17.7235189 13.6288933,18.4786077 C14.6483143,19.8449164 15.7651058,21.006197 16.7732461,21.7484297 C17.8187909,22.5182324 18.4361136,22.6091908 18.6651419,22.4381236 C18.8943187,22.2667591 18.9820412,21.6481079 18.5412024,20.4258168 C18.1162458,19.2472956 17.320658,17.8458372 16.3010886,16.4794542 C15.7376462,15.7243654 15.126706,15.0122292 14.523039,14.4062112 L12.1475564,16.1833191 Z" id="Shape" fill-rule="nonzero"></path>
                    </g>
                    <g transform="translate(5.775730, 29.525227)" id="Path">
                        <path d="M13.7081552,0.740597869 L0.553052226,0.740597869 C0.38517727,0.740597869 0.249066455,0.604308841 0.249066455,0.436214081 C0.249066455,0.268119321 0.38517727,0.131830293 0.553052226,0.131830293 L13.7081552,0.131830293 C13.8760302,0.131830293 14.012141,0.268119321 14.012141,0.436214081 C14.012141,0.604308841 13.8760302,0.740597869 13.7081552,0.740597869 Z"></path>
                        <path d="M17.1659934,4.89629859 L0.553052226,4.89629859 C0.38517727,4.89629859 0.249066455,4.76000957 0.249066455,4.59191481 C0.249066455,4.42382005 0.38517727,4.28753102 0.553052226,4.28753102 L17.1659933,4.28753102 C17.3338683,4.28753102 17.4699791,4.42382005 17.4699791,4.59191481 C17.4699791,4.76000957 17.3338683,4.89629859 17.1659934,4.89629859 Z"></path>
                    </g>
                </g>
            </g>
        </g>
    </g>
</svg>