<?xml version="1.0" encoding="UTF-8"?>
<svg width="94px" height="93px" viewBox="0 0 94 93" version="1.1" xmlns="http://www.w3.org/2000/svg" xmlns:xlink="http://www.w3.org/1999/xlink">
    <!-- Generator: Sketch 52.3 (67297) - http://www.bohemiancoding.com/sketch -->
    <title>Artboard</title>
    <desc>Created with Sketch.</desc>
    <g id="Artboard" stroke="none" stroke-width="1" fill="none" fill-rule="evenodd">
        <g id="noun_tools_2383697" transform="translate(2.000000, 0.000000)" fill="#FFFFFF">
            <g id="Group">
                <path d="M89.3790909,77.7536364 L55.3636364,43.09 L62.0145455,36.5659091 L78.5009091,35.9177273 C79.0172843,35.8900565 79.4770173,35.581765 79.6986364,35.1145455 L90.1681818,11.6813636 C90.3898267,11.1660233 90.2846715,10.568299 89.9004545,10.1595455 L82.7281818,2.81818182 C82.3283204,2.43011219 81.7373309,2.3141236 81.2204545,2.52227273 L57.6040909,12.6113636 C57.1301621,12.8227273 56.8107591,13.2774706 56.7727273,13.795 L55.8145455,30.2672727 L52.1368182,33.8181818 C51.7905107,34.3699192 51.8675359,35.0871177 52.3231046,35.5527358 C52.7786733,36.0183538 53.4940208,36.1110068 54.0531818,35.7768182 L58.1818182,31.8031818 C58.4769194,31.4954276 58.6168006,31.0706032 58.5622727,30.6477273 L59.4781818,14.7954545 L81.4318182,5.45318182 L87.2936364,11.4136364 L77.5286364,33.2122727 L61.7609091,33.8181818 C61.3126343,33.7322644 60.850511,33.8688009 60.5209091,34.1845455 L53.4754545,41.1313636 L41.2727273,28.7877273 L41.3572727,13.5554545 C41.3558279,13.1926566 41.2145047,12.8443956 40.9627273,12.5831818 L29.845,1.31045455 C29.5895271,1.05685189 29.2466833,0.910639071 28.8868182,0.901818182 L13.0909091,0.704545455 C12.6338018,0.691567222 12.202331,0.91529278 11.9495455,1.29636364 C11.6981977,1.67593047 11.6457125,2.15354518 11.8086364,2.57863636 L14.8663636,10.1736364 C15.0807032,10.6804429 15.5704518,11.0161133 16.1204545,11.0331818 L25.1527273,11.1177273 L31.085,17.1627273 L31.0004545,25.6172727 L24.9695455,31.5495455 L16.515,31.465 L10.5686364,25.3636364 L10.6531818,16.3313636 C10.6465341,15.7828494 10.3221649,15.2880489 9.82181818,15.0631818 L2.28318182,11.8645455 C1.86349901,11.7069319 1.39386084,11.7584259 1.01830205,12.0032345 C0.642743257,12.2480432 0.406085141,12.6569498 0.380909091,13.1045455 L0.225909091,29.0272727 C0.227353869,29.3900707 0.368677167,29.7383317 0.620454545,29.9995455 L11.7240909,41.2722727 C11.9795638,41.5258754 12.3224076,41.6720882 12.6822727,41.6809091 L27.9709091,41.8218182 L35.8195455,49.8113636 L24.0113636,61.4081818 L21.0663636,58.4068182 C20.5239341,57.8968082 19.6783386,57.8968082 19.1359091,58.4068182 L16.8954545,60.5909091 C15.8838654,61.5888973 15.8281951,63.2033367 16.7686364,64.2686364 L2.95954545,77.8240909 C1.63691136,79.1190217 0.884496806,80.8874158 0.868631661,82.7383493 C0.852766517,84.5892829 1.57475742,86.3703147 2.875,87.6877273 L3.57954545,88.4063636 C4.86576261,89.7261985 6.62623961,90.4770648 8.46909091,90.4918182 C10.2879877,90.4957256 12.0349558,89.7817473 13.3304545,88.505 L27.1818182,74.9777273 C28.2156703,75.9618544 29.8397842,75.9618544 30.8736364,74.9777273 L33.1281818,72.7654545 C33.6381918,72.223025 33.6381918,71.3774296 33.1281818,70.835 L30.1831818,67.8336364 L39.0745455,59.1113636 C39.420853,58.5596262 39.3438278,57.8424277 38.888259,57.3768097 C38.4326903,56.9111916 37.7173428,56.8185387 37.1581818,57.1527273 L28.295,65.8045455 L25.9418182,63.4090909 L37.75,51.8122727 L76.0490909,90.8440909 C76.9641546,91.7579946 78.2081492,92.2657474 79.5013636,92.2531818 C79.818056,92.2556415 80.1342383,92.2273266 80.4454545,92.1686364 L85.2504545,91.2245455 C87.4315554,90.7827149 89.1484956,89.098899 89.6327273,86.9268182 L90.6613636,82.1359091 C90.994383,80.5526054 90.513073,78.9076888 89.3790909,77.7536364 Z M29.0559091,72.9627273 L28.1963636,72.0890909 C27.9408908,71.8354883 27.5980469,71.6892754 27.2381818,71.6804545 C26.8790638,71.69943 26.5366996,71.8383604 26.2659091,72.075 L11.4845455,86.5745455 C10.7017315,87.3779618 9.61857333,87.8173561 8.49727273,87.7863636 C7.37734519,87.7741922 6.30802035,87.3180821 5.52409091,86.5181818 L4.81954545,85.7995455 C3.18053208,84.1507508 3.18053208,81.4878856 4.81954545,79.8390909 L19.6431818,65.3254545 C20.1531918,64.783025 20.1531918,63.9374296 19.6431818,63.395 L18.7836364,62.6059091 L20.0659091,61.3518182 L22.9545455,64.3390909 L27.1818182,68.6790909 L30.1409091,71.6804545 L29.0559091,72.9627273 Z M87.9981818,81.6004545 L86.9695455,86.3772727 C86.7376313,87.4965615 85.8525937,88.3649003 84.7290909,88.5754545 L79.9240909,89.5195455 C79.226419,89.6572099 78.5062844,89.4348154 78.0077273,88.9277273 L29.5490909,39.6095455 C29.293618,39.3559428 28.9507742,39.20973 28.5909091,39.2009091 L13.3022727,39.06 L2.98772727,28.5481818 L3.11454545,15.3027273 L7.91954545,17.3459091 L7.835,26.0259091 C7.83644478,26.3887071 7.97776808,26.7369681 8.22954545,26.9981818 L14.9368182,33.8181818 C15.192291,34.0717845 15.5351349,34.2179973 15.895,34.2268182 L25.4909091,34.3113636 C25.8488224,34.3063248 26.1914033,34.1652621 26.4490909,33.9168182 L33.2972727,27.1954545 C33.5508754,26.9399817 33.6970882,26.5971378 33.7059091,26.2372727 L33.7904545,16.6413636 C33.7890098,16.2785656 33.6476865,15.9303047 33.3959091,15.6690909 L26.6745455,8.82090909 C26.4270029,8.59553981 26.1073091,8.46566418 25.7727273,8.45454545 L17.0927273,8.37 L15.1340909,3.52272727 L28.3795455,3.64954545 L38.6659091,14.0909091 L38.5813636,29.3231818 C38.5864024,29.6810951 38.7274651,30.023676 38.9759091,30.2813636 L52.4327273,43.9918182 L87.4345455,79.67 C87.9333668,80.1785838 88.1402734,80.9054098 87.9840909,81.6004545 L87.9981818,81.6004545 Z" id="Shape" fill-rule="nonzero"></path>
                <path d="M57.1390909,56.3636364 C56.8397762,55.862826 56.2627812,55.598272 55.6879812,55.6982981 C55.1131812,55.7983241 54.6594732,56.2422398 54.5469314,56.8147209 C54.4343896,57.387202 54.6862931,57.9698311 55.1804545,58.28 L62.085,65.3254545 C62.3843147,65.8262649 62.9613097,66.0908189 63.5361097,65.9907929 C64.1109097,65.8907668 64.5646177,65.4468511 64.6771595,64.87437 C64.7897013,64.3018889 64.5377978,63.7192598 64.0436364,63.4090909 L57.1390909,56.3636364 Z" id="Path"></path>
                <path d="M67.51,66.8613636 C67.2106853,66.3605533 66.6336903,66.0959993 66.0588903,66.1960253 C65.4840903,66.2960513 65.0303823,66.739967 64.9178405,67.3124481 C64.8052987,67.8849292 65.0572022,68.4675583 65.5513636,68.7777273 L69.5813636,72.8922727 C70.133101,73.2385802 70.8502996,73.161555 71.3159176,72.7059863 C71.7815356,72.2504176 71.8741886,71.5350701 71.54,70.9759091 L67.51,66.8613636 Z" id="Path"></path>
                <path d="M82.9254545,78.5145455 C82.6699817,78.2609428 82.3271378,78.11473 81.9672727,78.1059091 L79.5718182,78.1059091 C79.2090202,78.1073539 78.8607592,78.2486772 78.5995455,78.5004545 L76.8945455,80.1772727 C76.6409428,80.4327456 76.49473,80.7755895 76.4859091,81.1354545 L76.4859091,83.5309091 C76.4873539,83.8937071 76.6286772,84.2419681 76.8804545,84.5031818 L78.5572727,86.2081818 C78.8127456,86.4617845 79.1555895,86.6079973 79.5154545,86.6168182 L81.9109091,86.6168182 C82.2688224,86.6117794 82.6114033,86.4707167 82.8690909,86.2222727 L84.56,84.5454545 C84.8136027,84.2899817 84.9598155,83.9471378 84.9686364,83.5872727 L84.9686364,81.1918182 C84.9671916,80.8290202 84.8258683,80.4807592 84.5740909,80.2195455 L82.9254545,78.5145455 Z M82.235,82.9954545 L81.3331818,83.8831818 L80.0790909,83.8831818 L79.1913636,82.9813636 L79.1913636,81.7272727 L80.0931818,80.8395455 L81.3472727,80.8395455 L82.235,81.7413636 L82.235,82.9954545 Z" id="Shape" fill-rule="nonzero"></path>
            </g>
        </g>
    </g>
</svg>