<?xml version="1.0" encoding="UTF-8"?>
<svg width="99px" height="99px" viewBox="0 0 99 99" version="1.1" xmlns="http://www.w3.org/2000/svg" xmlns:xlink="http://www.w3.org/1999/xlink">
    <!-- Generator: Sketch 52.3 (67297) - http://www.bohemiancoding.com/sketch -->
    <title>Group 5</title>
    <desc>Created with Sketch.</desc>
    <defs>
        <filter x="-18.8%" y="-18.8%" width="137.6%" height="137.6%" filterUnits="objectBoundingBox" id="filter-1">
            <feOffset dx="0" dy="2" in="SourceAlpha" result="shadowOffsetOuter1"></feOffset>
            <feGaussianBlur stdDeviation="2" in="shadowOffsetOuter1" result="shadowBlurOuter1"></feGaussianBlur>
            <feColorMatrix values="0 0 0 0 0   0 0 0 0 0   0 0 0 0 0  0 0 0 0.5 0" type="matrix" in="shadowBlurOuter1" result="shadowMatrixOuter1"></feColorMatrix>
            <feMerge>
                <feMergeNode in="shadowMatrixOuter1"></feMergeNode>
                <feMergeNode in="SourceGraphic"></feMergeNode>
            </feMerge>
        </filter>
        <circle id="path-2" cx="42.5" cy="42.5" r="42.5"></circle>
        <filter x="-7.1%" y="-7.1%" width="114.1%" height="114.1%" filterUnits="objectBoundingBox" id="filter-4">
            <feOffset dx="0" dy="0" in="SourceAlpha" result="shadowOffsetOuter1"></feOffset>
            <feGaussianBlur stdDeviation="2" in="shadowOffsetOuter1" result="shadowBlurOuter1"></feGaussianBlur>
            <feColorMatrix values="0 0 0 0 0   0 0 0 0 0   0 0 0 0 0  0 0 0 0.5 0" type="matrix" in="shadowBlurOuter1"></feColorMatrix>
        </filter>
        <filter x="-18.6%" y="-12.1%" width="137.2%" height="124.2%" filterUnits="objectBoundingBox" id="filter-5">
            <feOffset dx="0" dy="0" in="SourceAlpha" result="shadowOffsetOuter1"></feOffset>
            <feGaussianBlur stdDeviation="2" in="shadowOffsetOuter1" result="shadowBlurOuter1"></feGaussianBlur>
            <feColorMatrix values="0 0 0 0 0   0 0 0 0 0   0 0 0 0 0  0 0 0 0.5 0" type="matrix" in="shadowBlurOuter1" result="shadowMatrixOuter1"></feColorMatrix>
            <feMerge>
                <feMergeNode in="shadowMatrixOuter1"></feMergeNode>
                <feMergeNode in="SourceGraphic"></feMergeNode>
            </feMerge>
        </filter>
    </defs>
    <g id="Page-1" stroke="none" stroke-width="1" fill="none" fill-rule="evenodd">
        <g id="Artboard" transform="translate(-195.000000, -99.000000)">
            <g id="Group-5" transform="translate(202.000000, 104.000000)">
                <g id="Group">
                    <g id="Group-2" filter="url(#filter-1)">
                        <mask id="mask-3" fill="white">
                            <use xlink:href="#path-2"></use>
                        </mask>
                        <g id="Mask">
                            <use fill="black" fill-opacity="1" filter="url(#filter-4)" xlink:href="#path-2"></use>
                            <use fill="#FFFFFF" fill-rule="evenodd" xlink:href="#path-2"></use>
                        </g>
                    </g>
                </g>
                <g id="Group-13" filter="url(#filter-5)" transform="translate(21.000000, 10.000000)">
                    <path d="M40.0355337,65 L2.96433534,65 C1.87949841,65 1,64.1217983 1,63.0385609 L1,1.96143911 C1,0.878201672 1.87949841,0 2.96433534,0 L40.0356647,0 C41.1205016,0 42,0.878201672 42,1.96143911 L42,63.0384301 C41.999869,64.1217983 41.1205016,65 40.0355337,65 Z" id="Path" fill="#FFF5F5"></path>
                    <path d="M42,1.96144306 L42,63.0385569 C42,64.1217966 41.0880885,65 39.963271,65 L34,65 C36.1099155,65 37.8209036,63.3523878 37.8209036,61.3203328 L37.8209036,3.67966718 C37.8209036,1.64774293 36.1100513,0 34,0 L39.963271,0 C41.0880885,0 42,0.878203439 42,1.96144306 Z" id="Path" fill="#EFE2DD"></path>
                    <path d="M40.0355337,65 L2.96433534,65 C1.87949841,65 1,64.0930759 1,62.97441 L1,57 L42,57 L42,62.97441 C41.999869,64.0930759 41.1205016,65 40.0355337,65 Z" id="Path" fill="#7CA1B1"></path>
                    <path d="M42,8 L1,8 L1,1.94988788 C1,0.873029801 1.87949841,0 2.96433534,0 L40.0356647,0 C41.1205016,0 42,0.873029801 42,1.94988788 L42,8 Z" id="Path" fill="#7CA1B1"></path>
                    <path d="M42,57 L42,62.97441 C42,64.0930759 41.0890162,65 39.965343,65 L34,65 C36.107769,65 37.8156601,63.2985044 37.8156601,61.1999932 L37.8156601,57 L42,57 Z" id="Path" fill="#678D98"></path>
                    <path d="M42,1.94988788 L42,8 L37.8156601,8 L37.8156601,3.65798967 C37.8156601,1.63803581 36.1079046,0 34,0 L39.965343,0 C41.0890162,0 42,0.873029801 42,1.94988788 Z" id="Path" fill="#678D98"></path>
                    <path d="M36.6523354,29 L6.34779783,29 C5.60343192,29 5,28.4465576 5,27.7638564 L5,15.2361436 C5,14.5534424 5.60343192,14 6.34779783,14 L36.6522021,14 C37.3965681,14 38,14.5534424 38,15.2361436 L38,27.7638564 C38.0001332,28.4465576 37.3967013,29 36.6523354,29 Z" id="Path" fill="#C9F0FF"></path>
                    <path d="M38,15.2366235 L38,27.7633765 C38,28.4457611 37.3955794,29 36.6491073,29 L33,29 C33.7464721,29 34.3508927,28.4457611 34.3508927,27.7633765 L34.3508927,15.2366235 C34.3508927,14.5542389 33.7464721,14 33,14 L36.6491073,14 C37.3955794,14 38,14.5542389 38,15.2366235 Z" id="Path" fill="#9AE7FD"></path>
                    <path d="M8,29 L16.8496327,20.2656088 C17.2237361,19.8963319 17.8355754,19.9145077 18.1866052,20.3051605 L26,29 L8,29 Z" id="Path" fill="#A3E72D"></path>
                    <path d="M20,28.9998757 L26.7567481,22.2580124 C27.1162079,21.8992968 27.7040978,21.9169528 28.0413872,22.2964329 L34,29 L20,29 L20,28.9998757 Z" id="Path" fill="#A3E72D"></path>
                    <path d="M11.0512161,33.1659119 C10.2688327,32.801777 9.41030309,33.0512816 8.89905347,33.7745226 C8.6330285,34.1509071 8.4999552,34.4753275 8.4999552,34.4753275 C8.4999552,34.4753275 8.36700354,34.1509071 8.10085693,33.7745226 C7.58960731,33.0512816 6.73107773,32.801777 5.94869429,33.1659119 C4.7715916,33.7139194 4.79518961,35.4814693 5.44632433,36.4591148 C6.04941156,37.3646811 6.86986807,38.2288567 7.7995566,38.8009766 C8.23088926,39.0663411 8.76902115,39.0663411 9.2003538,38.8009766 C10.1300423,38.2288567 10.9504988,37.3646811 11.5535861,36.4591148 C12.2048424,35.4814693 12.2284404,33.7137905 11.0512161,33.1659119 Z" id="Path" fill="#FF5757"></path>
                    <path d="M19.0145246,61 L24.9854754,61 C25.5458988,61 26,60.5524 26,60 C26,59.4476 25.5458988,59 24.9854754,59 L19.0145246,59 C18.4541012,59 18,59.4476 18,60 C18,60.5524 18.4541012,61 19.0145246,61 Z" id="Path" fill="#000000"></path>
                    <path d="M18.1564741,5 C18.6224378,5 19,4.5524 19,4 C19,3.4476 18.6224378,3 18.1564741,3 L15.8435259,3 C15.3775622,3 15,3.4476 15,4 C15,4.5524 15.3775622,5 15.8435259,5 L18.1564741,5 Z" id="Path" fill="#000000"></path>
                    <path d="M27.0088168,5 C27.5563464,5 28,4.5524 28,4 C28,3.4476 27.5563464,3 27.0088168,3 L21.9911832,3 C21.4436536,3 21,3.4476 21,4 C21,4.5524 21.4436536,5 21.9911832,5 L27.0088168,5 Z" id="Path" fill="#000000"></path>
                    <path d="M40.0510421,0 L12.7841911,0 C12.2411897,0 11.8012052,0.432667297 11.8012052,0.966638286 C11.8012052,1.50060928 12.2411897,1.93327657 12.7841911,1.93327657 L40.0510421,1.93327657 C40.5931261,1.93327657 41.0340281,2.36684606 41.0340281,2.89991486 L41.0340281,7.93184712 L1.96597192,7.93184712 L1.96597192,2.89991486 C1.96597192,2.36684606 2.40687389,1.93327657 2.94895788,1.93327657 L8.40138441,1.93327657 C8.94438585,1.93327657 9.38437037,1.50060928 9.38437037,0.966638286 C9.38437037,0.432667297 8.94438585,0 8.40138441,0 L2.94895788,0 C1.32296804,0 0,1.30096625 0,2.89991486 L0,57.3979503 L0,63.1000851 C0,64.6990338 1.32296804,66 2.94895788,66 L40.0510421,66 C41.677032,66 43,64.6990338 43,63.1000851 L43,57.3979503 L43,2.89991486 C43,1.30096625 41.677032,7.32627e-15 40.0510421,0 Z M41.0340281,63.1000851 C41.0340281,63.6331539 40.5931261,64.0667234 40.0510421,64.0667234 L2.94895788,64.0667234 C2.40687389,64.0667234 1.96597192,63.6331539 1.96597192,63.1000851 L1.96597192,58.3645886 L41.0340281,58.3645886 L41.0340281,63.1000851 Z M41.0340281,56.4313121 L1.96597192,56.4313121 L1.96597192,9.86512369 L41.0340281,9.86512369 L41.0340281,56.4313121 Z" id="Shape" fill="#000000" fill-rule="nonzero"></path>
                    <path d="M6.34697451,30 L36.6530255,30 C37.9472052,30 39,28.9675055 39,27.6982806 L39,21.3223688 C39,20.7811028 38.5527986,20.3425245 38.0008906,20.3425245 C37.4489826,20.3425245 37.0017813,20.7811028 37.0017813,21.3223688 L37.0017813,27.6982806 C37.0017813,27.8868026 36.8452541,28.0403115 36.6530255,28.0403115 L35.3355333,28.0403115 L29.1879467,21.2458103 C28.8341288,20.8545258 28.3253823,20.6211922 27.7923908,20.6055147 C27.2544703,20.5924501 26.7373313,20.7928609 26.360334,21.1625888 L23.5110073,23.9556675 L19.4024032,19.414808 C19.0485853,19.0235235 18.5398388,18.7901899 18.0068472,18.7745124 C17.4707918,18.7609253 16.951921,18.9618587 16.5747905,19.3315865 L7.69044357,28.0404422 L6.34684129,28.0404422 C6.15461265,28.0404422 5.99808552,27.8869332 5.99808552,27.6984112 L5.99808552,14.3017194 C5.99808552,14.1131974 6.15461265,13.9596885 6.34684129,13.9596885 L36.6528923,13.9596885 C36.8451209,13.9596885 37.0016481,14.1131974 37.0016481,14.3017194 L37.0016481,16.7932674 C37.0016481,17.3345333 37.4488494,17.7731116 38.0007574,17.7731116 C38.5526654,17.7731116 38.9998668,17.3345333 38.9998668,16.7932674 L38.9998668,14.3017194 C38.9998668,13.0324945 37.9470719,12 36.6528923,12 L6.34697451,12 C5.05279484,12 4,13.0324945 4,14.3017194 L4,27.6982806 C4,28.9675055 5.05279484,30 6.34697451,30 Z M17.9462346,20.7578478 L23.3185123,26.695312 C23.6845859,27.1003143 24.3161563,27.1372871 24.728855,26.7778802 C25.1315627,26.4274879 25.1761896,25.8301748 24.838091,25.4254339 L27.7317781,22.5888501 L32.6641813,28.0403115 L10.5171238,28.0403115 L17.9462346,20.7578478 Z" id="Shape" fill="#000000" fill-rule="nonzero"></path>
                    <path d="M7.31845785,39.6675146 C7.6829823,39.8891282 8.09142834,40 8.49999846,40 C8.90856857,40 9.31713869,39.8891282 9.68141499,39.6675146 C10.6789564,39.0610343 11.6354298,38.1228485 12.3749008,37.0259588 C12.9482389,36.1751187 13.1488638,34.9852942 12.8860787,33.994727 C12.6726743,33.1906792 12.1720425,32.5717209 11.4763691,32.2515835 C10.4391246,31.774302 9.29790748,31.9907164 8.49999846,32.7768272 C7.70196536,31.9907164 6.56112047,31.774302 5.52362781,32.2515835 C4.82795437,32.5717209 4.32719853,33.1908092 4.11391823,33.994727 C3.85113308,34.9854242 4.051758,36.1752486 4.62522022,37.0260888 C5.36444304,38.1228485 6.32091648,39.0609043 7.31845785,39.6675146 Z M5.90701125,34.5168512 C5.99162857,34.1980136 6.15577623,34.0901313 6.27190792,34.0367101 C6.39635244,33.9795195 6.52216176,33.9515741 6.64449706,33.9515741 C6.91348583,33.9515741 7.16560076,34.0867519 7.3482352,34.3420299 C7.54327688,34.6148551 7.64662911,34.852716 7.64662911,34.852716 C7.79353072,35.2067778 8.12716117,35.4338505 8.49565593,35.4360601 C8.86315811,35.4329406 9.20038665,35.2098973 9.35125858,34.8579151 C9.35237523,34.8554456 9.45572746,34.6165448 9.65188578,34.3421599 C9.91764867,33.970811 10.329941,33.8534402 10.7282131,34.0367101 C10.8444688,34.0901313 11.0086165,34.1980136 11.0931097,34.5168512 C11.20676,34.9453908 11.1065095,35.5276951 10.8546428,35.9013836 C10.26654,36.7739302 9.51813583,37.5125988 8.74727457,37.9813018 C8.597023,38.0726768 8.40309798,38.0726768 8.25284642,37.9813018 C7.48198515,37.5125988 6.73370505,36.7739302 6.14572638,35.9013836 C5.89361144,35.527825 5.79336102,34.9453908 5.90701125,34.5168512 Z" id="Shape" fill="#000000" fill-rule="nonzero"></path>
                    <path d="M16,43 C16,42.4476 15.5598112,42 15.0165576,42 L5.98344241,42 C5.44018882,42 5,42.4476 5,43 C5,43.5524 5.44018882,44 5.98344241,44 L15.0165576,44 C15.5596801,44 16,43.5522667 16,43 Z" id="Path" fill="#000000"></path>
                    <path d="M24.1000936,44 C24.5972019,44 25,43.5524 25,43 C25,42.4476 24.5972019,42 24.1000936,42 L20.8999064,42 C20.4027981,42 20,42.4476 20,43 C20,43.5524 20.4027981,44 20.8999064,44 L24.1000936,44 Z" id="Path" fill="#000000"></path>
                    <path d="M37.0372025,42 L28.9627975,42 C28.4309482,42 28,42.4476 28,43 C28,43.5524 28.4309482,44 28.9627975,44 L37.0372025,44 C37.5690518,44 38,43.5524 38,43 C38,42.4476 37.5690518,42 37.0372025,42 Z" id="Path" fill="#000000"></path>
                    <path d="M6.01829537,46 C5.45578901,46 5,46.4476 5,47 C5,47.5524 5.45578901,48 6.01829537,48 L11.9817046,48 C12.544211,48 13,47.5524 13,47 C13,46.4476 12.544211,46 11.9817046,46 L6.01829537,46 Z" id="Path" fill="#000000"></path>
                    <path d="M26,47 C26,46.4476 25.5742954,46 25.0489174,46 L14.9510826,46 C14.4257046,46 14,46.4476 14,47 C14,47.5524 14.4257046,48 14.9510826,48 L25.0489174,48 C25.5742954,48 26,47.5522667 26,47 Z" id="Path" fill="#000000"></path>
                    <path d="M37.0545076,46 L30.9454924,46 C30.4232024,46 30,46.4476 30,47 C30,47.5524 30.4232024,48 30.9454924,48 L37.0545076,48 C37.5767976,48 38,47.5524 38,47 C38,46.4476 37.5767976,46 37.0545076,46 Z" id="Path" fill="#000000"></path>
                    <path d="M13.0445995,51 L5.95540049,51 C5.42763726,51 5,51.4476 5,52 C5,52.5524 5.42763726,53 5.95540049,53 L13.0445995,53 C13.5723627,53 14,52.5524 14,52 C14,51.4476 13.5723627,51 13.0445995,51 Z" id="Path" fill="#000000"></path>
                    <path d="M30.0393413,51 L17.9606587,51 C17.4299909,51 17,51.4476 17,52 C17,52.5524 17.4299909,53 17.9606587,53 L30.0393413,53 C30.5700091,53 31,52.5524 31,52 C31,51.4476 30.5698811,51 30.0393413,51 Z" id="Path" fill="#000000"></path>
                    <path d="M37.9765842,51 L35.0234158,51 C34.4580809,51 34,51.4476 34,52 C34,52.5524 34.4580809,53 35.0234158,53 L37.9765842,53 C38.5419191,53 39,52.5524 39,52 C39,51.4476 38.5419191,51 37.9765842,51 Z" id="Path" fill="#000000"></path>
                </g>
            </g>
        </g>
    </g>
</svg>