<?xml version="1.0" encoding="UTF-8"?>
<svg width="646px" height="70px" viewBox="0 0 646 70" version="1.1" xmlns="http://www.w3.org/2000/svg" xmlns:xlink="http://www.w3.org/1999/xlink">
    <!-- Generator: Sketch 52.3 (67297) - http://www.bohemiancoding.com/sketch -->
    <title>Group 3</title>
    <desc>Created with Sketch.</desc>
    <defs>
        <ellipse id="path-1" cx="31.7834896" cy="31.3910506" rx="31.7834896" ry="31.3910506"></ellipse>
    </defs>
    <g id="Page-1" stroke="none" stroke-width="1" fill="none" fill-rule="evenodd">
        <g id="Artboard" transform="translate(-1537.000000, -736.000000)">
            <g id="Group-3" transform="translate(1537.000000, 736.000000)">
                <g id="Group-2" transform="translate(190.000000, 0.000000)">
                    <rect id="Rectangle" fill="#FFF60F" x="0" y="0" width="456" height="70" rx="35"></rect>
                    <g id="profile" transform="translate(4.274569, 3.677043)">
                        <mask id="mask-2" fill="white">
                            <use xlink:href="#path-1"></use>
                        </mask>
                        <use id="Mask" fill="#FFFFFF" xlink:href="#path-1"></use>
                        <g mask="url(#mask-2)" id="Group">
                            <g transform="translate(12.547929, 7.217899)">
                                <g transform="translate(0.689447, 0.680934)">
                                    <path d="M0.0608387403,5.08776901 L0.0608387403,44.8633714 C0.0608387403,45.8593326 0.880400363,46.6667572 1.89133267,46.6667572 L34.0977813,46.6667572 C35.1087136,46.6667572 35.9283705,45.8593326 35.9283705,44.8633714 L35.9283705,5.08776901 L0.0608387403,5.08776901 Z" id="Path" fill="#DFEBFA"></path>
                                    <path d="M3.20274552,44.8634652 L3.20274552,5.08776901 L0.0608387403,5.08776901 L0.0608387403,44.8633714 C0.0608387403,45.8593326 0.880400363,46.6667572 1.89133267,46.6667572 L5.03323945,46.6667572 C4.02230714,46.666851 3.20274552,45.8594264 3.20274552,44.8634652 Z" id="Path" fill="#B1DBFC"></path>
                                    <path d="M34.0977813,0.04840045 L5.11035898,0.04840045 L5.11035898,5.27546146 L35.9283705,5.27546146 L35.9283705,1.85178621 C35.9283705,0.855731213 35.1087136,0.04840045 34.0977813,0.04840045 Z" id="Path" fill="#5CB3F8"></path>
                                    <path d="M5.30077757,0.04840045 L1.89133267,0.04840045 C0.880400363,0.04840045 0.0608387403,0.855825012 0.0608387403,1.85178621 L0.0608387403,5.27546146 L5.30077757,5.27546146 L5.30077757,0.04840045 Z" id="Path" fill="#FF656F"></path>
                                    <path d="M5.03323945,0.04840045 L1.89133267,0.04840045 C0.880400363,0.04840045 0.0608387403,0.855825012 0.0608387403,1.85178621 L0.0608387403,5.27546146 L3.20274552,5.27546146 L3.20274552,1.85178621 C3.20274552,0.855731213 4.02230714,0.04840045 5.03323945,0.04840045 Z" id="Path" fill="#FF4756"></path>
                                    <path d="M17.994557,8.15313085 C14.3225249,8.15313085 11.3458062,11.0858604 11.3458062,14.7034189 C11.3458062,16.786608 12.3340787,18.641302 13.8726609,19.8410891 L13.8726609,18.178121 C13.8726609,16.954884 14.8009516,15.9540452 15.9354655,15.9540452 L20.0537437,15.9540452 C21.1882576,15.9540452 22.1165483,16.954884 22.1165483,18.178121 L22.1165483,19.8410891 C23.6551305,18.6413958 24.643403,16.7867018 24.643403,14.7034189 C24.643403,11.0858604 21.6665891,8.15313085 17.994557,8.15313085 Z" id="Path" fill="#5CB3F8"></path>
                                    <path d="M14.3210967,14.7035127 C14.3210967,11.589938 16.5268105,8.98569363 19.4822023,8.31981225 C19.0036803,8.21203682 18.5062118,8.15313085 17.994557,8.15313085 C14.3225249,8.15313085 11.3458062,11.0858604 11.3458062,14.7034189 C11.3458062,16.786608 12.3340787,18.641302 13.8726609,19.8410891 L13.8726609,18.178121 C13.8726609,17.514397 14.1463877,16.9165201 14.5776858,16.5081178 C14.4109743,15.9349102 14.3210967,15.3296232 14.3210967,14.7035127 Z" id="Path" fill="#0290F4"></path>
                                    <ellipse id="Oval" fill="#FFCEBE" cx="17.994557" cy="13.3933238" rx="2.43097896" ry="2.39497808"></ellipse>
                                    <path d="M17.6582778,13.3933238 C17.6582778,12.4401351 18.2236306,11.617046 19.0419545,11.2316246 C18.7248123,11.0822023 18.3696816,10.9984395 17.9946522,10.9984395 C16.6521059,10.9984395 15.5636732,12.0706595 15.5636732,13.3934176 C15.5636732,14.7161756 16.6520107,15.7883018 17.994557,15.7883018 C18.3695864,15.7883018 18.7247171,15.7045391 19.0418593,15.5551167 C18.2236306,15.1696015 17.6582778,14.3466063 17.6582778,13.3933238 Z" id="Path" fill="#FFB1A0"></path>
                                    <path d="M20.1182004,15.7883018 L15.8710089,15.7883018 C14.7009818,15.7883018 13.7437475,16.731454 13.7437475,17.8840601 L13.7437475,19.7395045 C14.8962561,20.6847202 16.3778079,21.2538007 17.9946522,21.2538007 C19.6114965,21.2538007 21.0930483,20.684814 22.2455569,19.7395045 L22.2455569,17.8840601 C22.2454617,16.731454 21.2882274,15.7883018 20.1182004,15.7883018 Z" id="Path" fill="#FF656F"></path>
                                    <path d="M15.8383521,17.6964614 C15.8383521,16.8509544 16.35372,16.1187569 17.0899735,15.7883018 L15.8711041,15.7883018 C14.701077,15.7883018 13.7437475,16.731454 13.7437475,17.8840601 L13.7437475,19.7395045 C14.3580379,20.2433006 15.0664903,20.6388524 15.8383521,20.8997083 L15.8383521,17.6964614 Z" id="Path" fill="#FF4756"></path>
                                    <g transform="translate(3.998790, 24.763021)" fill="#43CB8E" id="Path">
                                        <path d="M8.05765795,0.0277645993 L0.992366495,0.0277645993 C0.453481878,0.0277645993 0.0166616269,0.458115888 0.0166616269,0.989020049 L0.0166616269,6.43285129 C0.0166616269,6.96375545 0.453481878,7.39410674 0.992366495,7.39410674 L8.05765795,7.39410674 C8.59654257,7.39410674 9.03336282,6.96375545 9.03336282,6.43285129 L9.03336282,0.989020049 C9.03336282,0.458115888 8.59654257,0.0277645993 8.05765795,0.0277645993 Z"></path>
                                        <path d="M8.05765795,10.5575827 L0.992366495,10.5575827 C0.453481878,10.5575827 0.0166616269,10.987934 0.0166616269,11.5188381 L0.0166616269,16.9626694 C0.0166616269,17.4935735 0.453481878,17.9239248 0.992366495,17.9239248 L8.05765795,17.9239248 C8.59654257,17.9239248 9.03336282,17.4935735 9.03336282,16.9626694 L9.03336282,11.5188381 C9.03336282,10.9880278 8.59654257,10.5575827 8.05765795,10.5575827 Z"></path>
                                    </g>
                                </g>
                                <g>
                                    <path d="M32.9666046,2.61107975 L9.42738767,2.61107975 C9.03390711,2.61107975 8.71507674,2.92576251 8.71507674,3.31391498 C8.71507674,3.70206745 9.03390711,4.01675021 9.42738767,4.01675021 L32.9666996,4.01675021 C33.3601801,4.01675021 33.6790105,3.70206745 33.6790105,3.31391498 C33.6790105,2.92576251 33.3600852,2.61107975 32.9666046,2.61107975 Z" id="Path" fill="#000000"></path>
                                    <path d="M14.3771888,26.382373 C14.3771888,25.4653136 13.6210945,24.7191837 12.6916712,24.7191837 L5.64368698,24.7191837 C4.71426368,24.7191837 3.9580744,25.4652199 3.9580744,26.382373 L3.9580744,31.8210995 C3.9580744,32.7381589 4.71426368,33.4842888 5.64368698,33.4842888 L12.6916712,33.4842888 C13.6210945,33.4842888 14.3771888,32.7382526 14.3771888,31.8210995 L14.3771888,26.382373 Z M12.952567,31.8210995 C12.952567,31.9630722 12.835558,32.0786183 12.6916712,32.0786183 L5.64368698,32.0786183 C5.4997052,32.0786183 5.38269626,31.9631659 5.38269626,31.8210995 L5.38269626,26.382373 C5.38269626,26.2404003 5.4997052,26.1248542 5.64368698,26.1248542 L12.6916712,26.1248542 C12.835558,26.1248542 12.952567,26.2403066 12.952567,26.382373 L12.952567,31.8210995 Z" id="Shape" fill="#000000" fill-rule="nonzero"></path>
                                    <path d="M12.6916712,35.2392215 L5.64368698,35.2392215 C4.71426368,35.2392215 3.9580744,35.9853514 3.9580744,36.9024108 L3.9580744,42.3411372 C3.9580744,43.2581967 4.71426368,44.0043265 5.64368698,44.0043265 L12.6916712,44.0043265 C13.6210945,44.0043265 14.3771888,43.2581967 14.3771888,42.3411372 L14.3771888,36.9024108 C14.3771888,35.9852577 13.6210945,35.2392215 12.6916712,35.2392215 Z M12.952567,42.3410435 C12.952567,42.4830162 12.835558,42.5985624 12.6916712,42.5985624 L5.64368698,42.5985624 C5.4997052,42.5985624 5.38269626,42.4830162 5.38269626,42.3410435 L5.38269626,36.9023171 C5.38269626,36.7603444 5.4997052,36.6447982 5.64368698,36.6447982 L12.6916712,36.6447982 C12.835558,36.6447982 12.952567,36.7603444 12.952567,36.9023171 L12.952567,42.3410435 Z" id="Shape" fill="#000000" fill-rule="nonzero"></path>
                                    <path d="M31.8842719,25.6250915 L17.013879,25.6250915 C16.6203984,25.6250915 16.301568,25.9397742 16.301568,26.3279267 C16.301568,26.7160792 16.6203984,27.0307619 17.013879,27.0307619 L31.8842719,27.0307619 C32.2777524,27.0307619 32.5965828,26.7160792 32.5965828,26.3279267 C32.5965828,25.9397742 32.2776575,25.6250915 31.8842719,25.6250915 Z" id="Path" fill="#000000"></path>
                                    <path d="M31.8842719,28.3989479 L17.013879,28.3989479 C16.6203984,28.3989479 16.301568,28.7136306 16.301568,29.1017831 C16.301568,29.4899356 16.6203984,29.8046183 17.013879,29.8046183 L31.8842719,29.8046183 C32.2777524,29.8046183 32.5965828,29.4899356 32.5965828,29.1017831 C32.5965828,28.7136306 32.2776575,28.3989479 31.8842719,28.3989479 Z" id="Path" fill="#000000"></path>
                                    <path d="M31.8842719,31.1728042 L17.013879,31.1728042 C16.6203984,31.1728042 16.301568,31.487487 16.301568,31.8756395 C16.301568,32.263792 16.6203984,32.5784747 17.013879,32.5784747 L31.8842719,32.5784747 C32.2777524,32.5784747 32.5965828,32.263792 32.5965828,31.8756395 C32.5965828,31.487487 32.2776575,31.1728042 31.8842719,31.1728042 Z" id="Path" fill="#000000"></path>
                                    <path d="M31.8842719,36.1450355 L17.013879,36.1450355 C16.6203984,36.1450355 16.301568,36.4597183 16.301568,36.8478708 C16.301568,37.2360232 16.6203984,37.550706 17.013879,37.550706 L31.8842719,37.550706 C32.2777524,37.550706 32.5965828,37.2360232 32.5965828,36.8478708 C32.5965828,36.4597183 32.2776575,36.1450355 31.8842719,36.1450355 Z" id="Path" fill="#000000"></path>
                                    <path d="M31.8842719,38.9188919 L17.013879,38.9188919 C16.6203984,38.9188919 16.301568,39.2335747 16.301568,39.6217272 C16.301568,40.0098796 16.6203984,40.3245624 17.013879,40.3245624 L31.8842719,40.3245624 C32.2777524,40.3245624 32.5965828,40.0098796 32.5965828,39.6217272 C32.5965828,39.2335747 32.2776575,38.9188919 31.8842719,38.9188919 Z" id="Path" fill="#000000"></path>
                                    <path d="M31.8842719,41.6927483 L17.013879,41.6927483 C16.6203984,41.6927483 16.301568,42.0074311 16.301568,42.3955835 C16.301568,42.783736 16.6203984,43.0984188 17.013879,43.0984188 L31.8842719,43.0984188 C32.2777524,43.0984188 32.5965828,42.783736 32.5965828,42.3955835 C32.5965828,42.0074311 32.2776575,41.6927483 31.8842719,41.6927483 Z" id="Path" fill="#000000"></path>
                                    <path d="M10.0983846,27.7546822 L8.87900323,28.9579362 L8.23678369,28.3242599 C7.95850756,28.0497793 7.50756725,28.0497793 7.22938609,28.3242599 C6.95120493,28.5987405 6.95120493,29.0437758 7.22938609,29.3181626 L8.37525694,30.4487902 C8.65334312,30.7230834 9.10437841,30.7232708 9.38265454,30.4487902 L11.1057822,28.748585 C11.3839633,28.4741044 11.3839633,28.0290691 11.1057822,27.7546822 C10.827601,27.4802954 10.3766607,27.4802954 10.0983846,27.7546822 Z" id="Path" fill="#000000"></path>
                                    <path d="M10.0983846,38.2746263 L8.87900323,39.4778802 L8.23668872,38.844204 C7.95860253,38.5696297 7.50756725,38.5697234 7.22938609,38.844204 C6.95120493,39.1186846 6.95120493,39.5637198 7.22948106,39.8381067 L8.37535191,40.9687343 C8.65324815,41.2431212 9.10428343,41.2433086 9.38265454,40.9687343 L11.1057822,39.268529 C11.3839633,38.9940484 11.3839633,38.5490132 11.1057822,38.2746263 C10.827601,38.0001457 10.3766607,38.0001457 10.0983846,38.2746263 Z" id="Path" fill="#000000"></path>
                                    <path d="M18.6151539,22.591186 C22.6746614,22.591186 25.9598394,19.3264695 25.9598394,15.3442051 C25.9598394,12.0376933 23.6962103,9.15203927 20.4551955,8.32672329 C20.0739667,8.22982574 19.6856148,8.45585755 19.5875058,8.83164012 C19.4892069,9.2075164 19.7182861,9.59079588 20.09923,9.68778715 C22.7110368,10.3528567 24.5352176,12.6787728 24.5352176,15.3441114 C24.5352176,16.5225318 24.1785872,17.6197045 23.5678043,18.5384507 L23.5678043,18.5216763 C23.5678043,17.1414954 22.5490098,15.9924066 21.2147089,15.7661874 C21.5539589,15.2717662 21.7522663,14.6758557 21.7522663,14.0351511 C21.7522663,12.3282923 20.3449298,10.9395836 18.615059,10.9395836 C16.8850932,10.9395836 15.4777567,12.3281985 15.4777567,14.0351511 C15.4777567,14.6758557 15.6760641,15.2717662 16.015314,15.7661874 C14.6810132,15.9925003 13.6622186,17.1415891 13.6622186,18.5216763 L13.6622186,18.5384507 C13.0515307,17.6197045 12.6948054,16.5225318 12.6948054,15.3441114 C12.6948054,12.6787728 14.5189862,10.352763 17.1308879,9.68778715 C17.5118318,9.59079588 17.740911,9.2075164 17.6426121,8.83164012 C17.5444082,8.45585755 17.1556763,8.22973203 16.7749224,8.32672329 C13.5338127,9.15203927 11.2701835,12.0376933 11.2701835,15.3442051 C11.2703735,19.3159739 14.5414952,22.591186 18.6151539,22.591186 Z M18.6151539,12.3454414 C19.5594883,12.3454414 20.3277394,13.1034727 20.3277394,14.0353385 C20.3277394,14.9672043 19.5594883,15.7252355 18.6151539,15.7252355 C17.6708196,15.7252355 16.9024735,14.9672043 16.9024735,14.0353385 C16.9024735,13.1034727 17.6708196,12.3454414 18.6151539,12.3454414 Z M15.0870304,18.52177 C15.0870304,17.7547425 15.7194675,17.1308123 16.4968362,17.1308123 L20.7335666,17.1308123 C21.5109353,17.1308123 22.1432775,17.7548362 22.1432775,18.52177 L22.1432775,20.0317413 C21.0861131,20.8084211 19.8325408,21.1855156 18.6152489,21.1855156 C17.3952977,21.1855156 16.1410606,20.8060783 15.0871254,20.0317413 L15.0871254,18.52177 L15.0870304,18.52177 Z" id="Shape" fill="#000000" fill-rule="nonzero"></path>
                                    <path d="M0.0132964707,2.50452993 L0.0132964707,45.4758761 C0.0132964707,46.8569005 1.15194924,47.980406 2.55159273,47.980406 L34.6788101,47.980406 C36.0784536,47.980406 37.2172014,46.8569005 37.2172014,45.4758761 L37.2172014,25.6301519 C37.2172014,25.2419994 36.898371,24.9273167 36.5048904,24.9273167 C36.1114099,24.9273167 35.7925795,25.2419994 35.7925795,25.6301519 L35.7925795,45.4758761 C35.7925795,46.0818138 35.2929171,46.5747356 34.6788101,46.5747356 L2.55149775,46.5747356 C1.93739075,46.5747356 1.43782336,46.0818138 1.43782336,45.4758761 L1.43782336,6.62782996 L35.7923896,6.62782996 L35.7923896,22.3502541 C35.7923896,22.7384066 36.1112199,23.0530894 36.5047005,23.0530894 C36.898181,23.0530894 37.2170114,22.7384066 37.2170114,22.3502541 L37.2170114,2.50452993 C37.2170114,1.12350555 36.0783586,-5.68434189e-14 34.6787152,-5.68434189e-14 L2.55149775,-5.68434189e-14 C1.15194924,-5.68434189e-14 0.0132964707,1.12350555 0.0132964707,2.50452993 Z M6.66485593,1.40567047 L34.6787152,1.40567047 C35.2928222,1.40567047 35.7924845,1.89859224 35.7924845,2.50452993 L35.7924845,5.2221595 L6.66485593,5.2221595 L6.66485593,1.40567047 Z M5.24023407,5.2221595 L1.43791833,5.2221595 L1.43791833,2.50452993 C1.43791833,1.89859224 1.93739075,1.40567047 2.55149775,1.40567047 L5.24023407,1.40567047 L5.24023407,5.2221595 Z" id="Shape" fill="#000000" fill-rule="nonzero"></path>
                                </g>
                            </g>
                        </g>
                    </g>
                </g>
                <path d="M189.862013,37.0541143 L20.0283096,37.0541143" id="Line-2" stroke="#FFF60F" stroke-width="5" stroke-linecap="square"></path>
                <circle id="Oval" fill="#FFF60F" cx="9.5" cy="37.5" r="9.5"></circle>
            </g>
        </g>
    </g>
</svg>