<?xml version="1.0" encoding="UTF-8"?>
<svg width="94px" height="93px" viewBox="0 0 94 93" version="1.1" xmlns="http://www.w3.org/2000/svg" xmlns:xlink="http://www.w3.org/1999/xlink">
    <!-- Generator: Sketch 52.3 (67297) - http://www.bohemiancoding.com/sketch -->
    <title>Artboard</title>
    <desc>Created with Sketch.</desc>
    <g id="Artboard" stroke="none" stroke-width="1" fill="none" fill-rule="evenodd">
        <g id="noun_Audit_3332999" fill="#FFFFFF">
            <g id="Group">
                <path d="M66.6548843,40.2465445 C66.264575,40.2465445 65.9481174,39.9296725 65.9481174,39.5388522 L65.9481174,14.613777 C65.9481174,13.3300481 64.9048769,12.2856145 63.6228266,12.2856145 L46.5261762,12.2856145 C46.135867,12.2856145 45.8194093,11.9687425 45.8194093,11.5779222 C45.8194093,11.1871018 46.135867,10.8702299 46.5261762,10.8702299 L63.6228266,10.8702299 C65.6844601,10.8702299 67.3616512,12.5496169 67.3616512,14.613777 L67.3616512,39.5388521 C67.3616512,39.9296725 67.0451935,40.2465445 66.6548843,40.2465445 Z" id="Path"></path>
                <path d="M63.6228266,92 L4.43109724,92 C2.36946365,92 0.692272612,90.320613 0.692272612,88.25628 L0.692272612,14.613777 C0.692272612,12.5496169 2.36946365,10.8702299 4.43109724,10.8702299 L19.117562,10.8702299 C19.5078712,10.8702299 19.8243289,11.1871018 19.8243289,11.5779222 C19.8243289,11.9687425 19.5078712,12.2856145 19.117562,12.2856145 L4.43109724,12.2856145 C3.14904693,12.2856145 2.10580645,13.3300481 2.10580645,14.613777 L2.10580645,88.25628 C2.10580645,89.5401818 3.14904686,90.5846154 4.43109724,90.5846154 L63.6228266,90.5846154 C64.9048769,90.5846154 65.9481174,89.5401818 65.9481174,88.25628 L65.9481174,72.9348107 C65.9481174,72.5439904 66.264575,72.2271184 66.6548843,72.2271184 C67.0451935,72.2271184 67.3616512,72.5439904 67.3616512,72.9348107 L67.3616512,88.25628 C67.3616512,90.320613 65.6844601,92 63.6228266,92 Z" id="Path"></path>
                <path d="M61.7075159,87.0461538 L6.34640802,87.0461538 C5.95609875,87.0461538 5.6396411,86.7292819 5.6396411,86.3384615 L5.6396411,16.5317683 C5.6396411,16.140948 5.95609875,15.824076 6.34640802,15.824076 L18.1423065,15.824076 C18.5326157,15.824076 18.8490734,16.140948 18.8490734,16.5317683 C18.8490734,16.9225886 18.5326157,17.2394606 18.1423065,17.2394606 L7.05317494,17.2394606 L7.05317494,85.6307692 L61.0007489,85.6307692 L61.0007489,72.6022161 C61.0007489,72.2113957 61.3172066,71.8945237 61.7075159,71.8945237 C62.0978251,71.8945237 62.4142828,72.2113957 62.4142828,72.6022161 L62.4142828,86.3384615 C62.4142828,86.7292819 62.0978251,87.0461538 61.7075159,87.0461538 Z" id="Path"></path>
                <path d="M61.7075159,40.5649715 C61.3172066,40.5649715 61.0007489,40.2480995 61.0007489,39.8572792 L61.0007489,17.2394606 L47.5014318,17.2394606 C47.1111226,17.2394606 46.7946649,16.9225886 46.7946649,16.5317683 C46.7946649,16.140948 47.1111226,15.824076 47.5014318,15.824076 L61.7075159,15.824076 C62.0978252,15.824076 62.4142828,16.140948 62.4142828,16.5317683 L62.4142828,39.8572791 C62.4142828,40.2480995 62.0978251,40.5649715 61.7075159,40.5649715 Z" id="Path"></path>
                <path d="M48.055319,20.067811 L17.5884193,20.067811 C17.3772175,20.067811 17.1770589,19.9731295 17.0428145,19.8098558 C16.9085702,19.6464093 16.8540443,19.4314753 16.8947662,19.2239708 L19.2010764,7.45046572 C19.2663005,7.11838939 19.5568756,6.87892124 19.8947294,6.87892124 L27.9090108,6.87892124 L27.9090108,4.91929081 C27.9090108,2.20670075 30.112826,0 32.8218691,0 C35.5309122,0 37.7347274,2.20670075 37.7347274,4.91929088 L37.7347274,6.87892131 L45.7490088,6.87892131 C46.0868627,6.87892131 46.3774378,7.11838946 46.4426618,7.45046579 L48.7489721,19.2239709 C48.789694,19.4314754 48.7351681,19.6464093 48.6009237,19.8098558 C48.4666794,19.9731295 48.2665208,20.067811 48.055319,20.067811 Z M18.4473758,18.6524264 L47.1963625,18.6524264 L45.1675135,8.29430593 L37.0279605,8.29430593 C36.6376513,8.29430593 36.3211936,7.97743394 36.3211936,7.58661362 L36.3211936,4.91929088 C36.3211936,2.98730468 34.751329,1.41538462 32.8218691,1.41538462 C30.8924092,1.41538462 29.3225446,2.98730468 29.3225446,4.91929088 L29.3225446,7.58661362 C29.3225446,7.97743394 29.006087,8.29430593 28.6157777,8.29430593 L20.4762248,8.29430593 L18.4473758,18.6524264 Z" id="Shape" fill-rule="nonzero"></path>
                <g transform="translate(9.187970, 44.584615)">
                    <path d="M4.74099799,19.9940355 C2.50474329,19.9940355 0.68537068,18.1722806 0.68537068,15.9329252 C0.68537068,13.6935697 2.50474337,11.8718149 4.74099799,11.8718149 C6.97759781,11.8718149 8.79697042,13.6935697 8.79697042,15.9329252 C8.79697042,18.1722806 6.97759781,19.9940355 4.74099799,19.9940355 Z M4.74099799,13.2871995 C3.28398146,13.2871995 2.09890451,14.4740009 2.09890451,15.9329252 C2.09890451,17.3918494 3.28398146,18.5786508 4.74099799,18.5786508 C6.19801453,18.5786508 7.38343659,17.3918494 7.38343659,15.9329252 C7.38343659,14.4740009 6.19801453,13.2871995 4.74099799,13.2871995 Z" id="Shape" fill-rule="nonzero"></path>
                    <path d="M16.808836,8.46155351 C14.5722362,8.46155351 12.7528636,6.63962592 12.7528636,4.40027048 C12.7528636,2.16091504 14.5722363,0.339160194 16.808836,0.339160194 C19.0450907,0.339160194 20.8644633,2.16091504 20.8644633,4.40027048 C20.8644633,6.63962592 19.0450907,8.46155351 16.808836,8.46155351 Z M16.808836,1.75454474 C15.3518195,1.75454474 14.1663974,2.94134615 14.1663974,4.40027041 C14.1663974,5.85919466 15.3518195,7.04616882 16.808836,7.04616882 C18.2658526,7.04616882 19.4509295,5.85919466 19.4509295,4.40027041 C19.4509295,2.94134615 18.2658526,1.75454474 16.808836,1.75454474 Z" id="Shape" fill-rule="nonzero"></path>
                    <path d="M31.5011675,15.1683895 C29.2645677,15.1683895 27.4451951,13.3466346 27.4451951,11.1072792 C27.4451951,8.86792374 29.2645677,7.04616889 31.5011675,7.04616889 C33.7377672,7.04616889 35.5571399,8.86792374 35.5571399,11.1072792 C35.5571399,13.3466346 33.7377673,15.1683895 31.5011675,15.1683895 Z M31.5011675,8.46155351 C30.0441509,8.46155351 28.8587289,9.64835492 28.8587289,11.1072792 C28.8587289,12.5662034 30.0441509,13.7530048 31.5011675,13.7530048 C32.958184,13.7530048 34.1436061,12.5662034 34.1436061,11.1072792 C34.1436061,9.64835492 32.958184,8.46155351 31.5011675,8.46155351 Z" id="Shape" fill-rule="nonzero"></path>
                    <path d="M28.4556509,10.4246395 C28.3576422,10.4246395 28.257908,10.4040791 28.1626601,10.3607122 L19.5627423,6.43471311 C19.2076333,6.27247607 19.0509575,5.85280207 19.2131549,5.49722816 C19.3746622,5.14182699 19.7932698,4.98442766 20.149414,5.14683753 L28.7493318,9.07283661 C29.1044408,9.23507366 29.2611167,9.65474765 29.0989192,10.0103216 C28.9805495,10.2708684 28.7237944,10.4246395 28.4556509,10.4246395 Z" id="Path"></path>
                    <path d="M7.15912092,14.3243765 C6.97276635,14.3243765 6.78675689,14.2509465 6.6476812,14.1051232 C6.37815726,13.8222881 6.38885545,13.3744516 6.67114805,13.1045748 L13.898599,6.20129199 C14.1812367,5.93176072 14.6281426,5.94195453 14.8980116,6.22496238 C15.1675355,6.50779742 15.1568373,6.95563396 14.8745447,7.22551079 L7.6470938,14.1287936 C7.51008872,14.2594125 7.33443227,14.3243765 7.15912092,14.3243765 Z" id="Path"></path>
                </g>
                <g transform="translate(13.428571, 21.938462)" id="Path">
                    <path d="M0.774406702,25.6999774 C0.528694802,25.6999774 0.290229947,25.5716045 0.159781765,25.3426758 C-0.0334748135,25.0033428 0.0845497489,24.5710562 0.423438973,24.3773738 L40.072787,1.73121991 C40.4113311,1.53753754 40.8430525,1.65588939 41.0369992,1.99539508 C41.2302558,2.33472802 41.1122313,2.76701465 40.773342,2.96069708 L1.12399405,25.6068509 C1.01356171,25.6699144 0.893121493,25.6999774 0.774406702,25.6999774 Z"></path>
                    <path d="M39.2314306,8.90092399 C39.1844969,8.90092399 39.137218,8.89625903 39.089249,8.88641078 C38.7068771,8.8083158 38.4601298,8.43442759 38.5381226,8.05155501 L39.5893004,2.89780652 L34.4421185,1.84542524 C34.0597466,1.76733026 33.8129993,1.39344205 33.8909921,1.01056947 C33.968985,0.627524074 34.3392783,0.379589877 34.7251013,0.458721483 L40.5645559,1.65260669 C40.9469278,1.73070166 41.1936751,2.10458988 41.1156823,2.48746246 L39.9233582,8.33456279 C39.8550282,8.66974908 39.5603119,8.90092399 39.2314306,8.90092399 Z"></path>
                </g>
                <g transform="translate(47.353383, 38.215385)">
                    <path d="M17.9386969,35.4789513 C12.6196546,35.4789513 7.36480119,33.0586989 3.94346955,28.4739033 C-1.81281566,20.758744 -0.227766665,9.79279598 7.47695903,4.02880109 C15.1820298,-1.73605769 26.1331209,-0.1480694 31.8904415,7.56674431 C37.6467267,15.2819036 36.0616777,26.2478516 28.356952,32.0118465 C25.2310268,34.3503756 21.5695048,35.4789513 17.9386969,35.4789513 Z M17.8969396,1.97638972 C14.5598126,1.97638972 11.1961128,3.0133939 8.32314674,5.16256011 C1.24270884,10.4595403 -0.213962659,20.5368991 5.0760911,27.6266076 C10.366835,34.7164889 20.4310165,36.1743765 27.5107642,30.8780875 C34.5912021,25.5811073 36.0478736,15.5037485 30.7578199,8.41403997 C27.6142946,4.20088645 22.7846056,1.97638972 17.8969396,1.97638972 Z" id="Shape" fill-rule="nonzero"></path>
                    <path d="M17.9338654,31.8200646 C13.7298446,31.8200646 9.57620858,29.9070839 6.87199686,26.283098 C2.32218483,20.1851262 3.57490156,11.5172777 9.66489956,6.96116287 C15.7552426,2.40504808 24.4114118,3.65975059 28.961569,9.7577224 C31.1622783,12.7073619 32.0836981,16.3436148 31.5553484,19.9969727 C31.0273438,23.6503306 29.1144488,26.875894 26.1686664,29.0794848 C23.6977429,30.9278471 20.8037256,31.8200646 17.9338654,31.8200646 Z M17.9014259,5.63562199 C15.3252467,5.63562199 12.7287065,6.43592249 10.5110873,8.0949219 C5.04537713,12.184022 3.9210379,19.9631085 8.00461848,25.4358023 C12.087854,30.9083234 19.8571135,32.0348257 25.3224786,27.9457257 C27.9659525,25.9682993 29.682485,23.0734301 30.1566539,19.7941332 C30.6304776,16.5150091 29.8039607,13.2516077 27.8289474,10.6050181 C25.402542,7.35284707 21.6740704,5.63562199 17.9014259,5.63562199 Z" id="Shape" fill-rule="nonzero"></path>
                    <path d="M30.5821634,35.7011418 C30.3668204,35.7011418 30.1542381,35.6030048 30.0151624,35.4169246 L27.3675472,31.868442 C27.1339138,31.5553711 27.1981026,31.1120267 27.5107642,30.8780874 C27.8241159,30.6438025 28.2661903,30.7084209 28.5001688,31.0214918 L31.147784,34.5699744 C31.3814173,34.8830453 31.3172286,35.3263897 31.004567,35.560329 C30.8775699,35.6553561 30.7291764,35.7011418 30.5821634,35.7011418 Z" id="Path"></path>
                    <path d="M42.7845908,53.7548978 C41.5729411,53.7548978 40.0075628,53.0655198 38.160237,51.7054237 C35.7072588,49.8993915 33.006153,47.0954026 30.5545553,43.8098858 C29.0671698,41.8160457 27.7368053,39.7211313 26.7073689,37.7514799 C26.5462068,37.443765 26.632482,37.0643479 26.9102883,36.8564979 L33.4064702,31.9966421 C33.6846216,31.7884465 34.07217,31.8134991 34.321333,32.0553861 C35.9156998,33.6022536 37.5449218,35.4737681 39.0326523,37.4674354 C41.4839049,40.753125 43.403702,44.1417893 44.4376247,47.00936 C45.5799091,50.1765249 45.5122693,52.3526442 44.2426426,53.3023963 C43.8385295,53.6047551 43.3502115,53.7548978 42.7845908,53.7548978 Z M28.2430686,37.626217 C29.1945122,39.3735051 30.3771734,41.2071815 31.6871769,42.962763 C34.0573308,46.1394306 36.6538711,48.8394081 38.9977972,50.5650992 C41.4286889,52.3548903 42.8639641,52.5663687 43.396455,52.1686373 C43.929291,51.7702148 44.1332457,50.3318509 43.1082957,47.490024 C42.1202714,44.7499624 40.2705299,41.4915715 37.9000309,38.314731 C36.5900274,36.5591496 35.1695916,34.903433 33.7660656,33.4944411 L28.2430686,37.626217 Z" id="Shape" fill-rule="nonzero"></path>
                </g>
                <g transform="translate(13.428571, 68.646154)" id="Path">
                    <path d="M31.8714609,1.72189005 L1.28584643,1.72189005 C0.895537152,1.72189005 0.579079508,1.40501806 0.579079508,1.01419774 C0.579079508,0.623377422 0.895537152,0.306505431 1.28584643,0.306505431 L31.8714608,0.306505431 C32.2617701,0.306505431 32.5782278,0.623377422 32.5782278,1.01419774 C32.5782278,1.40501806 32.2617702,1.72189005 31.8714609,1.72189005 Z"></path>
                    <path d="M39.9109346,11.3838942 L1.28584643,11.3838942 C0.895537152,11.3838942 0.579079508,11.0670222 0.579079508,10.6762019 C0.579079508,10.2853816 0.895537152,9.96850962 1.28584643,9.96850962 L39.9109345,9.96850962 C40.3012438,9.96850962 40.6177014,10.2853816 40.6177014,10.6762019 C40.6177014,11.0670222 40.3012439,11.3838942 39.9109346,11.3838942 Z"></path>
                </g>
            </g>
        </g>
    </g>
</svg>