<?xml version="1.0" encoding="UTF-8"?>
<svg width="99px" height="99px" viewBox="0 0 99 99" version="1.1" xmlns="http://www.w3.org/2000/svg" xmlns:xlink="http://www.w3.org/1999/xlink">
    <!-- Generator: Sketch 52.3 (67297) - http://www.bohemiancoding.com/sketch -->
    <title>Group 13</title>
    <desc>Created with Sketch.</desc>
    <defs>
        <filter x="-18.8%" y="-18.8%" width="137.6%" height="137.6%" filterUnits="objectBoundingBox" id="filter-1">
            <feOffset dx="0" dy="2" in="SourceAlpha" result="shadowOffsetOuter1"></feOffset>
            <feGaussianBlur stdDeviation="2" in="shadowOffsetOuter1" result="shadowBlurOuter1"></feGaussianBlur>
            <feColorMatrix values="0 0 0 0 0   0 0 0 0 0   0 0 0 0 0  0 0 0 0.5 0" type="matrix" in="shadowBlurOuter1" result="shadowMatrixOuter1"></feColorMatrix>
            <feMerge>
                <feMergeNode in="shadowMatrixOuter1"></feMergeNode>
                <feMergeNode in="SourceGraphic"></feMergeNode>
            </feMerge>
        </filter>
        <circle id="path-2" cx="42.5" cy="42.5" r="42.5"></circle>
        <filter x="-7.1%" y="-7.1%" width="114.1%" height="114.1%" filterUnits="objectBoundingBox" id="filter-4">
            <feOffset dx="0" dy="0" in="SourceAlpha" result="shadowOffsetOuter1"></feOffset>
            <feGaussianBlur stdDeviation="2" in="shadowOffsetOuter1" result="shadowBlurOuter1"></feGaussianBlur>
            <feColorMatrix values="0 0 0 0 0   0 0 0 0 0   0 0 0 0 0  0 0 0 0.5 0" type="matrix" in="shadowBlurOuter1"></feColorMatrix>
        </filter>
        <filter x="-14.8%" y="-14.8%" width="129.6%" height="131.5%" filterUnits="objectBoundingBox" id="filter-5">
            <feOffset dx="0" dy="0" in="SourceAlpha" result="shadowOffsetOuter1"></feOffset>
            <feGaussianBlur stdDeviation="2" in="shadowOffsetOuter1" result="shadowBlurOuter1"></feGaussianBlur>
            <feColorMatrix values="0 0 0 0 0   0 0 0 0 0   0 0 0 0 0  0 0 0 0.5 0" type="matrix" in="shadowBlurOuter1" result="shadowMatrixOuter1"></feColorMatrix>
            <feMerge>
                <feMergeNode in="shadowMatrixOuter1"></feMergeNode>
                <feMergeNode in="SourceGraphic"></feMergeNode>
            </feMerge>
        </filter>
    </defs>
    <g id="Page-1" stroke="none" stroke-width="1" fill="none" fill-rule="evenodd">
        <g id="Artboard" transform="translate(-195.000000, -99.000000)">
            <g id="Group-13" transform="translate(202.000000, 104.000000)">
                <g id="Group-12">
                    <g id="Group-11">
                        <g id="Group-10">
                            <g id="Group-5">
                                <g id="Group">
                                    <g id="Group-2" filter="url(#filter-1)">
                                        <mask id="mask-3" fill="white">
                                            <use xlink:href="#path-2"></use>
                                        </mask>
                                        <g id="Mask">
                                            <use fill="black" fill-opacity="1" filter="url(#filter-4)" xlink:href="#path-2"></use>
                                            <use fill="#FFFFFF" fill-rule="evenodd" xlink:href="#path-2"></use>
                                        </g>
                                    </g>
                                </g>
                            </g>
                        </g>
                    </g>
                </g>
                <g id="link" filter="url(#filter-5)" transform="translate(16.000000, 15.000000)">
                    <g id="Group" transform="translate(0.738281, 0.738281)">
                        <g id="Path">
                            <path d="M23.3613281,27.3691406 L2.16210938,27.3691406 C0.997101563,27.3691406 0.052734375,26.4247734 0.052734375,25.2597656 L0.052734375,2.16210938 C0.052734375,0.997101563 0.997101563,0.052734375 2.16210938,0.052734375 L23.3613281,0.052734375 C24.5263359,0.052734375 25.4707031,0.997101563 25.4707031,2.16210938 L25.4707031,25.2597656 C25.4707031,26.4247734 24.5263359,27.3691406 23.3613281,27.3691406 Z" fill="#F7F6F7"></path>
                            <path d="M23.3613281,0.052734375 L20.1972656,0.052734375 C21.3622734,0.052734375 22.3066406,0.997101563 22.3066406,2.16210938 L22.3066406,25.2597656 C22.3066406,26.4247734 21.3622734,27.3691406 20.1972656,27.3691406 L23.3613281,27.3691406 C24.5263359,27.3691406 25.4707031,26.4247734 25.4707031,25.2597656 L25.4707031,2.16210938 C25.4707031,0.997101563 24.5263359,0.052734375 23.3613281,0.052734375 Z" fill="#EDEBED"></path>
                            <path d="M21.8847656,7.78327734 L3.63867188,7.78327734 C3.40569141,7.78327734 3.21679688,7.59438281 3.21679688,7.36140234 L3.21679688,3.63867188 C3.21679688,3.40569141 3.40569141,3.21679688 3.63867188,3.21679688 L21.8847656,3.21679688 C22.1177461,3.21679688 22.3066406,3.40569141 22.3066406,3.63867188 L22.3066406,7.36140234 C22.3066406,7.59438281 22.1177461,7.78327734 21.8847656,7.78327734 Z" fill="#D3CED4"></path>
                        </g>
                        <g transform="translate(27.000000, 25.101562)" id="Path">
                            <path d="M23.3613281,27.3691406 L2.16210938,27.3691406 C0.997101563,27.3691406 0.052734375,26.4247734 0.052734375,25.2597656 L0.052734375,2.16210938 C0.052734375,0.997101563 0.997101563,0.052734375 2.16210938,0.052734375 L23.3613281,0.052734375 C24.5263359,0.052734375 25.4707031,0.997101563 25.4707031,2.16210938 L25.4707031,25.2597656 C25.4707031,26.4247734 24.5263359,27.3691406 23.3613281,27.3691406 Z" fill="#F7F6F7"></path>
                            <path d="M23.3613281,0.052734375 L20.1972656,0.052734375 C21.3622734,0.052734375 22.3066406,0.997101563 22.3066406,2.16210938 L22.3066406,25.2597656 C22.3066406,26.4247734 21.3622734,27.3691406 20.1972656,27.3691406 L23.3613281,27.3691406 C24.5263359,27.3691406 25.4707031,26.4247734 25.4707031,25.2597656 L25.4707031,2.16210938 C25.4707031,0.997101563 24.5263359,0.052734375 23.3613281,0.052734375 Z" fill="#EDEBED"></path>
                            <path d="M21.8847656,7.78327734 L3.63867188,7.78327734 C3.40569141,7.78327734 3.21679688,7.59438281 3.21679688,7.36140234 L3.21679688,3.63867188 C3.21679688,3.40569141 3.40569141,3.21679688 3.63867188,3.21679688 L21.8847656,3.21679688 C22.1177461,3.21679688 22.3066406,3.40569141 22.3066406,3.63867188 L22.3066406,7.36140234 C22.3066406,7.59438281 22.1177461,7.78327734 21.8847656,7.78327734 Z" fill="#D3CED4"></path>
                        </g>
                        <g transform="translate(15.714844, 15.714844)">
                            <circle id="Oval" fill="#A4CCFF" cx="10.546875" cy="10.546875" r="10.546875"></circle>
                            <path d="M10.546875,0 C10.0091953,0 9.48090234,0.0405 8.96484375,0.118125 C14.0391563,0.881507813 17.9296875,5.25972656 17.9296875,10.546875 C17.9296875,15.8340234 14.0391563,20.2123477 8.96484375,20.975625 C9.48090234,21.05325 10.0091953,21.09375 10.546875,21.09375 C16.3717031,21.09375 21.09375,16.3718086 21.09375,10.546875 C21.09375,4.72194141 16.3717031,0 10.546875,0 Z" id="Path" fill="#8BB3EA"></path>
                        </g>
                    </g>
                    <path d="M50.0449219,42.6249844 L30.9550781,42.6249844 C30.5181211,42.6249844 30.1640625,42.979043 30.1640625,43.416 C30.1640625,43.852957 30.5181211,44.2070156 30.9550781,44.2070156 L50.0449219,44.2070156 C50.4818789,44.2070156 50.8359375,43.852957 50.8359375,43.416 C50.8359375,42.979043 50.4818789,42.6249844 50.0449219,42.6249844 Z M50.0449219,47.3710781 L30.9550781,47.3710781 C30.5181211,47.3710781 30.1640625,47.7251367 30.1640625,48.1620938 C30.1640625,48.5990508 30.5181211,48.9531094 30.9550781,48.9531094 L50.0449219,48.9531094 C50.4818789,48.9531094 50.8359375,48.5990508 50.8359375,48.1620938 C50.8359375,47.7251367 50.4818789,47.3710781 50.0449219,47.3710781 Z M31.4824219,29.3730469 L28.8457031,29.3730469 C27.5372578,29.3730469 26.4726562,28.3084453 26.4726562,27 C26.4726562,26.563043 26.1184922,26.2089844 25.6816406,26.2089844 C25.2447891,26.2089844 24.890625,26.563043 24.890625,27 C24.890625,29.1808828 26.6648203,30.9550781 28.8457031,30.9550781 L31.4824219,30.9550781 C33.6633047,30.9550781 35.4375,29.1808828 35.4375,27 C35.4375,24.8191172 33.6633047,23.0449219 31.4824219,23.0449219 L30.4277344,23.0449219 C29.9907773,23.0449219 29.6367188,23.3989805 29.6367188,23.8359375 C29.6367188,24.2728945 29.9907773,24.6269531 30.4277344,24.6269531 L31.4824219,24.6269531 C32.7908672,24.6269531 33.8554688,25.6915547 33.8554688,27 C33.8554688,28.3084453 32.7908672,29.3730469 31.4824219,29.3730469 Z M50.0449219,37.8788906 L34.1191406,37.8788906 C33.6821836,37.8788906 33.328125,38.2329492 33.328125,38.6699063 C33.328125,39.1068633 33.6821836,39.4609219 34.1191406,39.4609219 L50.0449219,39.4609219 C50.4818789,39.4609219 50.8359375,39.1068633 50.8359375,38.6699063 C50.8359375,38.2329492 50.4818789,37.8788906 50.0449219,37.8788906 Z M25.1542969,23.0449219 L22.5175781,23.0449219 C20.3366953,23.0449219 18.5625,24.8191172 18.5625,27 C18.5625,29.1808828 20.3366953,30.9550781 22.5175781,30.9550781 L23.5722656,30.9550781 C24.0091172,30.9550781 24.3632812,30.6010195 24.3632812,30.1640625 C24.3632812,29.7271055 24.0091172,29.3730469 23.5722656,29.3730469 L22.5175781,29.3730469 C21.2090273,29.3730469 20.1445312,28.3084453 20.1445312,27 C20.1445312,25.6915547 21.2090273,24.6269531 22.5175781,24.6269531 L25.1542969,24.6269531 C26.4628477,24.6269531 27.5273438,25.6915547 27.5273438,27 C27.5273438,27.436957 27.8814023,27.7910156 28.3183594,27.7910156 C28.7553164,27.7910156 29.109375,27.436957 29.109375,27 C29.109375,24.8191172 27.3351797,23.0449219 25.1542969,23.0449219 Z M23.8359375,4.37695313 C23.8359375,3.70817578 23.2918242,3.1640625 22.6230469,3.1640625 L4.37695312,3.1640625 C3.70817578,3.1640625 3.1640625,3.70817578 3.1640625,4.37695313 L3.1640625,8.09968359 C3.1640625,8.76846094 3.70817578,9.31257422 4.37695312,9.31257422 L22.6230469,9.31257422 C23.2918242,9.31257422 23.8359375,8.76846094 23.8359375,8.09968359 L23.8359375,4.37695313 Z M22.2539062,7.73054297 L4.74609375,7.73054297 L4.74609375,4.74609375 L22.2539062,4.74609375 L22.2539062,7.73054297 Z M23.8359375,13.5683438 C23.8359375,13.1313867 23.4817734,12.7773281 23.0449219,12.7773281 L3.95507812,12.7773281 C3.51822656,12.7773281 3.1640625,13.1313867 3.1640625,13.5683438 C3.1640625,14.0053008 3.51822656,14.3593594 3.95507812,14.3593594 L23.0449219,14.3593594 C23.4817734,14.3593594 23.8359375,14.0053008 23.8359375,13.5683438 Z M17.5078125,18.3144375 C17.5078125,17.8774805 17.1536484,17.5234219 16.7167969,17.5234219 L3.95507812,17.5234219 C3.51822656,17.5234219 3.1640625,17.8774805 3.1640625,18.3144375 C3.1640625,18.7513945 3.51822656,19.1054531 3.95507812,19.1054531 L16.7167969,19.1054531 C17.1536484,19.1054531 17.5078125,18.7513945 17.5078125,18.3144375 Z M51.0996094,25.1015625 L38.1781055,25.1015625 C37.2721289,19.7506055 32.6049258,15.6621094 27,15.6621094 C20.7482344,15.6621094 15.6621094,20.7483398 15.6621094,27 C15.6621094,27.1057852 15.6654844,27.211043 15.668332,27.3164062 L2.90039062,27.3164062 C2.17339453,27.3164062 1.58203125,26.725043 1.58203125,25.9980469 L1.58203125,2.90039062 C1.58203125,2.17339453 2.17339453,1.58203125 2.90039062,1.58203125 L24.0996094,1.58203125 C24.8266055,1.58203125 25.4179688,2.17339453 25.4179688,2.90039062 L25.4179688,12.79125 C25.4179688,13.228207 25.7721328,13.5822656 26.2089844,13.5822656 C26.6458359,13.5822656 27,13.228207 27,12.79125 L27,2.90039062 C27,1.30116797 25.6989375,0 24.0996094,0 L2.90039062,0 C1.3010625,0 0,1.30116797 0,2.90039062 L0,25.9980469 C0,27.5972695 1.3010625,28.8984375 2.90039062,28.8984375 L15.8206289,28.8984375 C16.1145703,30.6516445 16.8157266,32.3045508 17.8931953,33.754957 C18.1537031,34.1056406 18.6493008,34.1787305 18.9998789,33.9182227 C19.3505625,33.6577148 19.4237578,33.1622227 19.1631445,32.8115391 C17.90775,31.1215078 17.2441406,29.1119063 17.2441406,27 C17.2441406,21.6205664 21.6205664,17.2441406 27,17.2441406 C32.3794336,17.2441406 36.7558594,21.6205664 36.7558594,27 C36.7558594,32.3794336 32.3794336,36.7558594 27,36.7558594 C25.0449258,36.7558594 23.1589336,36.1798945 21.5458945,35.0901914 C21.1839258,34.8457148 20.6922305,34.9408477 20.4476484,35.3029219 C20.2030664,35.6649961 20.2983047,36.1566914 20.6603789,36.401168 C22.5358242,37.6681641 24.7280977,38.3378906 27,38.3378906 L27,51.0996094 C27,52.698832 28.301168,54 29.9003906,54 L51.0996094,54 C52.698832,54 54,52.698832 54,51.0996094 L54,28.0019531 C54,26.4027305 52.698832,25.1015625 51.0996094,25.1015625 Z M37.9756055,29.8476562 L49.2539062,29.8476562 L49.2539062,32.8324219 L36.7191562,32.8324219 C37.2724453,31.9137891 37.6995937,30.9108867 37.9756055,29.8476562 Z M52.4179688,51.0996094 C52.4179688,51.8266055 51.8266055,52.4179688 51.0996094,52.4179688 L29.9003906,52.4179688 C29.1733945,52.4179688 28.5820312,51.8266055 28.5820312,51.0996094 L28.5820312,38.2269375 C31.3590234,37.8375469 33.8169727,36.4391367 35.5708125,34.4144531 L49.6230469,34.4144531 C50.2918242,34.4144531 50.8359375,33.8703398 50.8359375,33.2015625 L50.8359375,29.4785156 C50.8359375,28.8097383 50.2918242,28.265625 49.6230469,28.265625 L38.2668047,28.265625 C38.3132109,27.8499727 38.3378906,27.4278867 38.3378906,27 C38.3378906,26.8941094 38.3362031,26.7887461 38.33325,26.6835937 L51.0996094,26.6835937 C51.8266055,26.6835937 52.4179688,27.274957 52.4179688,28.0019531 L52.4179688,51.0996094 Z M3.95507812,22.2695156 C3.51822656,22.2695156 3.1640625,22.6235742 3.1640625,23.0605313 C3.1640625,23.4974883 3.51822656,23.8515469 3.95507812,23.8515469 L13.5527344,23.8515469 C13.9895859,23.8515469 14.34375,23.4974883 14.34375,23.0605313 C14.34375,22.6235742 13.9895859,22.2695156 13.5527344,22.2695156 L3.95507812,22.2695156 Z" id="Shape" fill="#000000" fill-rule="nonzero"></path>
                </g>
            </g>
        </g>
    </g>
</svg>