<?xml version="1.0" encoding="UTF-8"?>
<svg width="99px" height="99px" viewBox="0 0 99 99" version="1.1" xmlns="http://www.w3.org/2000/svg" xmlns:xlink="http://www.w3.org/1999/xlink">
    <!-- Generator: Sketch 52.3 (67297) - http://www.bohemiancoding.com/sketch -->
    <title>Group 11</title>
    <desc>Created with Sketch.</desc>
    <defs>
        <filter x="-18.8%" y="-18.8%" width="137.6%" height="137.6%" filterUnits="objectBoundingBox" id="filter-1">
            <feOffset dx="0" dy="2" in="SourceAlpha" result="shadowOffsetOuter1"></feOffset>
            <feGaussianBlur stdDeviation="2" in="shadowOffsetOuter1" result="shadowBlurOuter1"></feGaussianBlur>
            <feColorMatrix values="0 0 0 0 0   0 0 0 0 0   0 0 0 0 0  0 0 0 0.5 0" type="matrix" in="shadowBlurOuter1" result="shadowMatrixOuter1"></feColorMatrix>
            <feMerge>
                <feMergeNode in="shadowMatrixOuter1"></feMergeNode>
                <feMergeNode in="SourceGraphic"></feMergeNode>
            </feMerge>
        </filter>
        <circle id="path-2" cx="42.5" cy="42.5" r="42.5"></circle>
        <filter x="-7.1%" y="-7.1%" width="114.1%" height="114.1%" filterUnits="objectBoundingBox" id="filter-4">
            <feOffset dx="0" dy="0" in="SourceAlpha" result="shadowOffsetOuter1"></feOffset>
            <feGaussianBlur stdDeviation="2" in="shadowOffsetOuter1" result="shadowBlurOuter1"></feGaussianBlur>
            <feColorMatrix values="0 0 0 0 0   0 0 0 0 0   0 0 0 0 0  0 0 0 0.5 0" type="matrix" in="shadowBlurOuter1"></feColorMatrix>
        </filter>
        <filter x="-15.1%" y="-14.8%" width="131.8%" height="131.5%" filterUnits="objectBoundingBox" id="filter-5">
            <feOffset dx="0" dy="0" in="SourceAlpha" result="shadowOffsetOuter1"></feOffset>
            <feGaussianBlur stdDeviation="2" in="shadowOffsetOuter1" result="shadowBlurOuter1"></feGaussianBlur>
            <feColorMatrix values="0 0 0 0 0   0 0 0 0 0   0 0 0 0 0  0 0 0 0.5 0" type="matrix" in="shadowBlurOuter1" result="shadowMatrixOuter1"></feColorMatrix>
            <feMerge>
                <feMergeNode in="shadowMatrixOuter1"></feMergeNode>
                <feMergeNode in="SourceGraphic"></feMergeNode>
            </feMerge>
        </filter>
    </defs>
    <g id="Page-1" stroke="none" stroke-width="1" fill="none" fill-rule="evenodd">
        <g id="Artboard" transform="translate(-195.000000, -99.000000)">
            <g id="Group-11" transform="translate(202.000000, 104.000000)">
                <g id="Group-10">
                    <g id="Group-5">
                        <g id="Group">
                            <g id="Group-2" filter="url(#filter-1)">
                                <mask id="mask-3" fill="white">
                                    <use xlink:href="#path-2"></use>
                                </mask>
                                <g id="Mask">
                                    <use fill="black" fill-opacity="1" filter="url(#filter-4)" xlink:href="#path-2"></use>
                                    <use fill="#FFFFFF" fill-rule="evenodd" xlink:href="#path-2"></use>
                                </g>
                            </g>
                        </g>
                    </g>
                </g>
                <g id="keyword" filter="url(#filter-5)" transform="translate(16.000000, 12.000000)">
                    <rect id="Rectangle" fill="#57A4FF" x="2.6557377" y="12.3934426" width="47.8032787" height="33.6393443" rx="16.8196721"></rect>
                    <polygon id="Path" fill="#FFDAAA" points="6.19672131 15.9344262 46.9180328 15.9344262 46.9180328 42.4918033 6.19672131 42.4918033"></polygon>
                    <path d="M21.2459016,42.4918033 L46.9180328,42.4918033 L46.9180328,15.9344262 C46.9180328,30.6135738 35.4355082,42.4918033 21.2459016,42.4918033 Z" id="Path" fill="#FFC477"></path>
                    <path d="M0.885245902,46.0327869 L52.2295082,46.0327869 L52.2295082,49.5737705 C52.2295082,51.5294017 50.6441558,53.1147541 48.6885246,53.1147541 L4.42622951,53.1147541 C2.47059826,53.1147541 0.885245902,51.5294017 0.885245902,49.5737705 L0.885245902,46.0327869 Z" id="Path" fill="#006DF0"></path>
                    <path d="M46.9180328,12.3934426 L45.147541,12.3934426 C47.1031722,12.3934426 48.6885246,13.978795 48.6885246,15.9344262 L48.6885246,42.4918033 C48.6885246,44.4474345 47.1031722,46.0327869 45.147541,46.0327869 L46.9180328,46.0327869 C48.873664,46.0327869 50.4590164,44.4474345 50.4590164,42.4918033 L50.4590164,15.9344262 C50.4590164,13.978795 48.873664,12.3934426 46.9180328,12.3934426 Z" id="Path" fill="#2488FF"></path>
                    <path d="M50.4590164,46.0327869 L50.4590164,49.5737705 C50.4590164,51.5294017 48.873664,53.1147541 46.9180328,53.1147541 L48.6885246,53.1147541 C50.6441558,53.1147541 52.2295082,51.5294017 52.2295082,49.5737705 L52.2295082,46.0327869 L50.4590164,46.0327869 Z" id="Path" fill="#005ECE"></path>
                    <path d="M23.9016393,49.5737705 L29.2131148,49.5737705 C30.1909304,49.5737705 30.9836066,48.7810943 30.9836066,47.8032787 L30.9836066,46.0327869 L22.1311475,46.0327869 L22.1311475,47.8032787 C22.1311475,48.7810943 22.9238237,49.5737705 23.9016393,49.5737705 Z" id="Path" fill="#FFCD00"></path>
                    <path d="M33.6393443,28.2039344 C26.8642606,32.1127598 18.2032636,29.7898064 14.2935596,23.0152297 C10.3838556,16.2406529 12.7056858,7.57935475 19.4797554,3.66877224 C26.253825,-0.241810275 34.9154243,2.07889661 38.8268852,8.85245902 C42.7313956,15.6296081 40.4102033,24.2885266 33.6393443,28.2039344 Z" id="Path" fill="#FF9811"></path>
                    <path d="M31.8688525,25.1321311 C28.1481882,27.2815595 23.4990632,26.9778706 20.0896312,24.3626921 C16.6801993,21.7475136 15.181995,17.3359408 16.2937169,13.1853434 C17.4054389,9.03474593 20.9081181,5.96264109 25.1682544,5.40172764 C29.4283907,4.84081419 33.6068914,6.90157175 35.755082,10.6229508 C38.6822462,15.7035291 36.943576,22.1948285 31.8688525,25.1321311 Z" id="Path" fill="#FFCD00"></path>
                    <path d="M38.2709508,32.6823934 L35.204459,34.4528852 L33.6712131,35.3381311 L39.7918033,45.9389508 C40.7696472,47.6324905 42.9352041,48.2127203 44.6287869,47.2349508 C46.3223266,46.2571068 46.9025563,44.09155 45.9247869,42.3979672 L39.8041967,31.7971475 L38.2709508,32.6823934 Z" id="Path" fill="#004FAC"></path>
                    <polygon id="Path" fill="#5EAC24" points="30.0983607 11.5081967 32.7540984 11.5081967 32.7540984 20.3606557 30.0983607 20.3606557"></polygon>
                    <polygon id="Path" fill="#006DF0" points="24.7868852 14.1639344 27.442623 14.1639344 27.442623 20.3606557 24.7868852 20.3606557"></polygon>
                    <polygon id="Path" fill="#ED1C24" points="19.4754098 16.8196721 22.1311475 16.8196721 22.1311475 20.3606557 19.4754098 20.3606557"></polygon>
                    <path d="M35.0282951,27.2761967 C34.1414122,27.9512927 33.172257,28.5108325 32.1441639,28.9413443 L32.0556393,28.9935738 L35.2071148,34.4528852 L38.2736066,32.6823934 L35.1221311,27.223082 L35.0282951,27.2761967 Z" id="Path" fill="#FF5023"></path>
                    <path d="M16.5903934,21.6885246 C18.9175248,25.7196789 23.4438272,27.9520618 28.0586803,27.3447105 C32.6735334,26.7373592 36.4681141,23.409882 37.6730047,18.9138855 C38.8778953,14.4178891 37.2558114,9.63878972 33.5631328,6.80508727 C29.8704542,3.97138481 24.8343961,3.64113269 20.8032787,5.96832787 C15.3023085,9.14859123 13.4169838,16.1835978 16.5903934,21.6885246 Z M21.6885246,7.50157377 C25.0993605,5.53216892 29.3606889,5.81134616 32.4854257,8.20892341 C35.6101626,10.6065007 36.9829317,14.6503063 35.9636024,18.4546887 C34.944273,22.259071 31.7335887,25.0748064 27.8287117,25.5889 C23.9238346,26.1029936 20.0937794,24.2142013 18.1245246,20.8032787 C16.8163546,18.5706635 16.4569743,15.9070816 17.1266729,13.4076051 C17.7963716,10.9081286 19.4393411,8.78104735 21.6885246,7.50157377 Z" id="Shape" fill="#000000" fill-rule="nonzero"></path>
                    <path d="M52.2295082,45.147541 L50.436,45.147541 C51.0218616,44.3858853 51.3410074,43.4527105 51.3442623,42.4918033 L51.3442623,15.9344262 C51.3413356,13.4911005 49.3613585,11.5111234 46.9180328,11.5081967 L40.9293443,11.5081967 C38.9993407,5.19124458 33.1692263,0.87634914 26.5640164,0.87634914 C19.9588065,0.87634914 14.1286921,5.19124458 12.1986885,11.5081967 L6.19672131,11.5081967 C3.75339557,11.5111234 1.77341853,13.4911005 1.7704918,15.9344262 L1.7704918,42.4918033 C1.77374669,43.4527105 2.09289246,44.3858853 2.6787541,45.147541 L0.885245902,45.147541 C0.39633809,45.147541 0,45.5438791 0,46.0327869 L0,49.5737705 C0.00292672594,52.0170962 1.98290377,53.9970733 4.42622951,54 L48.6885246,54 C51.1318503,53.9970733 53.1118274,52.0170962 53.1147541,49.5737705 L53.1147541,46.0327869 C53.1147541,45.5438791 52.718416,45.147541 52.2295082,45.147541 Z M46.9180328,13.2786885 C48.3847562,13.2786885 49.5737705,14.4677028 49.5737705,15.9344262 L49.5737705,42.4918033 C49.5693773,43.8590266 48.5257083,44.9985505 47.1641311,45.1227541 C47.2941149,44.5308508 47.3007445,43.9185132 47.1836066,43.3239344 C47.5499705,43.2119989 47.8010173,42.8748789 47.8032787,42.4918033 L47.8032787,15.9344262 C47.8032787,15.4455184 47.4069406,15.0491803 46.9180328,15.0491803 L41.5631803,15.0491803 C41.5283815,14.4553813 41.4583236,13.8641751 41.353377,13.2786885 L46.9180328,13.2786885 Z M11.5515738,16.8196721 C11.9121262,23.2945033 16.3955851,28.8031814 22.6622951,30.4710492 C23.9403493,30.8144389 25.2578973,30.9888421 26.5812787,30.9898033 C28.3146234,30.9878184 30.0342779,30.6828344 31.6625902,30.088623 L33.9934426,34.1288852 L33.2277049,34.5715082 C32.80432,34.8159692 32.6592626,35.3573584 32.9037049,35.7807541 L36.2685246,41.6065574 L7.08196721,41.6065574 L7.08196721,16.8196721 L11.5515738,16.8196721 Z M34.826459,28.4863279 L37.0617049,32.3575082 L35.528459,33.2427541 L33.3011803,29.3848525 C33.5667541,29.2529508 33.8252459,29.1192787 34.0819672,28.9679016 C34.3386885,28.8165246 34.5794754,28.6483279 34.826459,28.4863279 Z M34.880459,35.6621311 L37.1820984,34.3342623 L38.7153443,33.4490164 L39.4801967,33.0063934 L45.154623,42.832623 L45.154623,42.8370492 C45.8879846,44.1082095 45.4520127,45.7331956 44.1808524,46.4665573 C42.9096921,47.1999191 41.284706,46.7639472 40.5513443,45.4927869 L34.880459,35.6621311 Z M40.5708197,31.3536393 C40.3263587,30.9302544 39.7849695,30.785197 39.3615738,31.0296393 L38.5949508,31.4722623 L36.2570164,27.4240328 C39.4023825,24.76371 41.3216879,20.9318167 41.5684918,16.8196721 L46.0327869,16.8196721 L46.0327869,40.8151475 L40.5708197,31.3536393 Z M19.9180328,4.43508197 C21.9283068,3.26741555 24.2113424,2.6514601 26.5361311,2.64954098 C27.7038065,2.65065224 28.8662989,2.8048179 29.9939016,3.10809836 C35.1815219,4.498164 39.0210141,8.87625241 39.7220834,14.2009297 C40.4231526,19.5256069 37.8477405,24.7483085 33.1967213,27.4337705 C29.0860322,29.843645 23.9992448,29.8662046 19.8673425,27.4928854 C15.7354402,25.1195662 13.1919656,20.714268 13.2024409,15.9492758 C13.2129163,11.1842836 15.7757355,6.79021116 19.9180328,4.43508197 Z M3.54098361,15.9344262 C3.54098361,14.4677028 4.72999788,13.2786885 6.19672131,13.2786885 L11.7587213,13.2786885 C11.6530598,13.8641748 11.5818228,14.4553535 11.545377,15.0491803 L6.19672131,15.0491803 C5.7078135,15.0491803 5.31147541,15.4455184 5.31147541,15.9344262 L5.31147541,42.4918033 C5.31147541,42.9807111 5.7078135,43.3770492 6.19672131,43.3770492 L37.2900984,43.3770492 L38.3125574,45.147541 L6.19672131,45.147541 C4.72999788,45.147541 3.54098361,43.9585267 3.54098361,42.4918033 L3.54098361,15.9344262 Z M30.0983607,46.9180328 L30.0983607,47.8032787 C30.0983607,48.2921865 29.7020226,48.6885246 29.2131148,48.6885246 L23.9016393,48.6885246 C23.4127315,48.6885246 23.0163934,48.2921865 23.0163934,47.8032787 L23.0163934,46.9180328 L30.0983607,46.9180328 Z M51.3442623,49.5737705 C51.3442623,51.0404939 50.155248,52.2295082 48.6885246,52.2295082 L4.42622951,52.2295082 C2.95950607,52.2295082 1.7704918,51.0404939 1.7704918,49.5737705 L1.7704918,46.9180328 L21.2459016,46.9180328 L21.2459016,47.8032787 C21.2459016,49.2700021 22.4349159,50.4590164 23.9016393,50.4590164 L29.2131148,50.4590164 C30.6798382,50.4590164 31.8688525,49.2700021 31.8688525,47.8032787 L31.8688525,46.9180328 L39.3934426,46.9180328 C40.2276632,47.9809873 41.5039764,48.6017604 42.8551967,48.6017604 C44.206417,48.6017604 45.4827303,47.9809873 46.3169508,46.9180328 L51.3442623,46.9180328 L51.3442623,49.5737705 Z" id="Shape" fill="#000000" fill-rule="nonzero"></path>
                    <path d="M30.0983607,21.2459016 L32.7540984,21.2459016 C33.2430062,21.2459016 33.6393443,20.8495635 33.6393443,20.3606557 L33.6393443,11.5081967 C33.6393443,11.0192889 33.2430062,10.6229508 32.7540984,10.6229508 L30.0983607,10.6229508 C29.6094528,10.6229508 29.2131148,11.0192889 29.2131148,11.5081967 L29.2131148,20.3606557 C29.2131148,20.8495635 29.6094528,21.2459016 30.0983607,21.2459016 Z M30.9836066,12.3934426 L31.8688525,12.3934426 L31.8688525,19.4754098 L30.9836066,19.4754098 L30.9836066,12.3934426 Z" id="Shape" fill="#000000" fill-rule="nonzero"></path>
                    <path d="M24.7868852,21.2459016 L27.442623,21.2459016 C27.9315308,21.2459016 28.3278689,20.8495635 28.3278689,20.3606557 L28.3278689,14.1639344 C28.3278689,13.6750266 27.9315308,13.2786885 27.442623,13.2786885 L24.7868852,13.2786885 C24.2979774,13.2786885 23.9016393,13.6750266 23.9016393,14.1639344 L23.9016393,20.3606557 C23.9016393,20.8495635 24.2979774,21.2459016 24.7868852,21.2459016 Z M25.6721311,15.0491803 L26.557377,15.0491803 L26.557377,19.4754098 L25.6721311,19.4754098 L25.6721311,15.0491803 Z" id="Shape" fill="#000000" fill-rule="nonzero"></path>
                    <path d="M19.4754098,21.2459016 L22.1311475,21.2459016 C22.6200554,21.2459016 23.0163934,20.8495635 23.0163934,20.3606557 L23.0163934,16.8196721 C23.0163934,16.3307643 22.6200554,15.9344262 22.1311475,15.9344262 L19.4754098,15.9344262 C18.986502,15.9344262 18.5901639,16.3307643 18.5901639,16.8196721 L18.5901639,20.3606557 C18.5901639,20.8495635 18.986502,21.2459016 19.4754098,21.2459016 Z M20.3606557,17.704918 L21.2459016,17.704918 L21.2459016,19.4754098 L20.3606557,19.4754098 L20.3606557,17.704918 Z" id="Shape" fill="#000000" fill-rule="nonzero"></path>
                    <path d="M11.5081967,36.295082 L13.2786885,36.295082 C13.7675963,36.295082 14.1639344,35.8987439 14.1639344,35.4098361 C14.1639344,34.9209283 13.7675963,34.5245902 13.2786885,34.5245902 L11.5081967,34.5245902 C11.0192889,34.5245902 10.6229508,34.9209283 10.6229508,35.4098361 C10.6229508,35.8987439 11.0192889,36.295082 11.5081967,36.295082 Z" id="Path" fill="#000000"></path>
                    <path d="M16.8196721,36.295082 L30.0983607,36.295082 C30.5872685,36.295082 30.9836066,35.8987439 30.9836066,35.4098361 C30.9836066,34.9209283 30.5872685,34.5245902 30.0983607,34.5245902 L16.8196721,34.5245902 C16.3307643,34.5245902 15.9344262,34.9209283 15.9344262,35.4098361 C15.9344262,35.8987439 16.3307643,36.295082 16.8196721,36.295082 Z" id="Path" fill="#000000"></path>
                    <path d="M11.5081967,32.7540984 L13.2786885,32.7540984 C13.7675963,32.7540984 14.1639344,32.3577603 14.1639344,31.8688525 C14.1639344,31.3799446 13.7675963,30.9836066 13.2786885,30.9836066 L11.5081967,30.9836066 C11.0192889,30.9836066 10.6229508,31.3799446 10.6229508,31.8688525 C10.6229508,32.3577603 11.0192889,32.7540984 11.5081967,32.7540984 Z" id="Path" fill="#000000"></path>
                    <path d="M16.8196721,32.7540984 L20.3606557,32.7540984 C20.8495635,32.7540984 21.2459016,32.3577603 21.2459016,31.8688525 C21.2459016,31.3799446 20.8495635,30.9836066 20.3606557,30.9836066 L16.8196721,30.9836066 C16.3307643,30.9836066 15.9344262,31.3799446 15.9344262,31.8688525 C15.9344262,32.3577603 16.3307643,32.7540984 16.8196721,32.7540984 Z" id="Path" fill="#000000"></path>
                    <path d="M11.5081967,39.8360656 L13.2786885,39.8360656 C13.7675963,39.8360656 14.1639344,39.4397275 14.1639344,38.9508197 C14.1639344,38.4619119 13.7675963,38.0655738 13.2786885,38.0655738 L11.5081967,38.0655738 C11.0192889,38.0655738 10.6229508,38.4619119 10.6229508,38.9508197 C10.6229508,39.4397275 11.0192889,39.8360656 11.5081967,39.8360656 Z" id="Path" fill="#000000"></path>
                    <path d="M16.8196721,39.8360656 L30.0983607,39.8360656 C30.5872685,39.8360656 30.9836066,39.4397275 30.9836066,38.9508197 C30.9836066,38.4619119 30.5872685,38.0655738 30.0983607,38.0655738 L16.8196721,38.0655738 C16.3307643,38.0655738 15.9344262,38.4619119 15.9344262,38.9508197 C15.9344262,39.4397275 16.3307643,39.8360656 16.8196721,39.8360656 Z" id="Path" fill="#000000"></path>
                </g>
            </g>
        </g>
    </g>
</svg>