<?xml version="1.0" encoding="UTF-8"?>
<svg width="488px" height="96px" viewBox="0 0 488 96" version="1.1" xmlns="http://www.w3.org/2000/svg" xmlns:xlink="http://www.w3.org/1999/xlink">
    <!-- Generator: Sketch 52.3 (67297) - http://www.bohemiancoding.com/sketch -->
    <title>Group 17</title>
    <desc>Created with Sketch.</desc>
    <defs>
        <circle id="path-1" cx="43.2254309" cy="42.8229572" r="42.5"></circle>
    </defs>
    <g id="Page-1" stroke="none" stroke-width="1" fill="none" fill-rule="evenodd">
        <g id="Artboard" transform="translate(-1616.000000, -445.000000)">
            <g id="Group-17" transform="translate(1616.000000, 445.000000)">
                <g id="Group-22">
                    <g id="Group-15">
                        <g id="Group-12">
                            <g id="Group-10">
                                <g id="Group-3">
                                    <path d="M189.862013,48.2422864 L20.0283096,48.2422864" id="Line-2" stroke="#FFF60F" stroke-width="5" stroke-linecap="square"></path>
                                    <g id="Group-2" transform="translate(110.000000, 0.000000)">
                                        <rect id="Rectangle" fill="#FFF60F" x="0" y="1.42108547e-14" width="378" height="96" rx="48"></rect>
                                        <g id="profile" transform="translate(3.274569, 4.677043)">
                                            <mask id="mask-2" fill="white">
                                                <use xlink:href="#path-1"></use>
                                            </mask>
                                            <use id="Mask" fill="#FFFFFF" xlink:href="#path-1"></use>
                                        </g>
                                    </g>
                                    <circle id="Oval" fill="#FFF60F" cx="9.5" cy="48.5" r="9.5"></circle>
                                </g>
                            </g>
                        </g>
                    </g>
                </g>
                <g id="link" transform="translate(128.000000, 20.000000)">
                    <g id="Group" transform="translate(0.779297, 0.779297)">
                        <g id="Path">
                            <path d="M24.6591797,28.8896484 L2.28222656,28.8896484 C1.05249609,28.8896484 0.0556640625,27.8928164 0.0556640625,26.6630859 L0.0556640625,2.28222656 C0.0556640625,1.05249609 1.05249609,0.0556640625 2.28222656,0.0556640625 L24.6591797,0.0556640625 C25.8889102,0.0556640625 26.8857422,1.05249609 26.8857422,2.28222656 L26.8857422,26.6630859 C26.8857422,27.8928164 25.8889102,28.8896484 24.6591797,28.8896484 Z" fill="#F7F6F7"></path>
                            <path d="M24.6591797,0.0556640625 L21.3193359,0.0556640625 C22.5490664,0.0556640625 23.5458984,1.05249609 23.5458984,2.28222656 L23.5458984,26.6630859 C23.5458984,27.8928164 22.5490664,28.8896484 21.3193359,28.8896484 L24.6591797,28.8896484 C25.8889102,28.8896484 26.8857422,27.8928164 26.8857422,26.6630859 L26.8857422,2.28222656 C26.8857422,1.05249609 25.8889102,0.0556640625 24.6591797,0.0556640625 Z" fill="#EDEBED"></path>
                            <path d="M23.1005859,8.21568164 L3.84082031,8.21568164 C3.59489648,8.21568164 3.39550781,8.01629297 3.39550781,7.77036914 L3.39550781,3.84082031 C3.39550781,3.59489648 3.59489648,3.39550781 3.84082031,3.39550781 L23.1005859,3.39550781 C23.3465098,3.39550781 23.5458984,3.59489648 23.5458984,3.84082031 L23.5458984,7.77036914 C23.5458984,8.01629297 23.3465098,8.21568164 23.1005859,8.21568164 Z" fill="#D3CED4"></path>
                        </g>
                        <g transform="translate(28.500000, 26.496094)" id="Path">
                            <path d="M24.6591797,28.8896484 L2.28222656,28.8896484 C1.05249609,28.8896484 0.0556640625,27.8928164 0.0556640625,26.6630859 L0.0556640625,2.28222656 C0.0556640625,1.05249609 1.05249609,0.0556640625 2.28222656,0.0556640625 L24.6591797,0.0556640625 C25.8889102,0.0556640625 26.8857422,1.05249609 26.8857422,2.28222656 L26.8857422,26.6630859 C26.8857422,27.8928164 25.8889102,28.8896484 24.6591797,28.8896484 Z" fill="#F7F6F7"></path>
                            <path d="M24.6591797,0.0556640625 L21.3193359,0.0556640625 C22.5490664,0.0556640625 23.5458984,1.05249609 23.5458984,2.28222656 L23.5458984,26.6630859 C23.5458984,27.8928164 22.5490664,28.8896484 21.3193359,28.8896484 L24.6591797,28.8896484 C25.8889102,28.8896484 26.8857422,27.8928164 26.8857422,26.6630859 L26.8857422,2.28222656 C26.8857422,1.05249609 25.8889102,0.0556640625 24.6591797,0.0556640625 Z" fill="#EDEBED"></path>
                            <path d="M23.1005859,8.21568164 L3.84082031,8.21568164 C3.59489648,8.21568164 3.39550781,8.01629297 3.39550781,7.77036914 L3.39550781,3.84082031 C3.39550781,3.59489648 3.59489648,3.39550781 3.84082031,3.39550781 L23.1005859,3.39550781 C23.3465098,3.39550781 23.5458984,3.59489648 23.5458984,3.84082031 L23.5458984,7.77036914 C23.5458984,8.01629297 23.3465098,8.21568164 23.1005859,8.21568164 Z" fill="#D3CED4"></path>
                        </g>
                        <g transform="translate(16.587891, 16.587891)">
                            <circle id="Oval" fill="#A4CCFF" cx="11.1328125" cy="11.1328125" r="11.1328125"></circle>
                            <path d="M11.1328125,0 C10.5652617,0 10.0076191,0.04275 9.46289062,0.1246875 C14.8191094,0.930480469 18.9257812,5.55193359 18.9257812,11.1328125 C18.9257812,16.7136914 14.8191094,21.3352559 9.46289062,22.1409375 C10.0076191,22.222875 10.5652617,22.265625 11.1328125,22.265625 C17.2812422,22.265625 22.265625,17.2813535 22.265625,11.1328125 C22.265625,4.98427148 17.2812422,0 11.1328125,0 Z" id="Path" fill="#8BB3EA"></path>
                        </g>
                    </g>
                    <path d="M52.8251953,44.9930391 L32.6748047,44.9930391 C32.2135723,44.9930391 31.8398438,45.3667676 31.8398438,45.828 C31.8398438,46.2892324 32.2135723,46.6629609 32.6748047,46.6629609 L52.8251953,46.6629609 C53.2864277,46.6629609 53.6601562,46.2892324 53.6601562,45.828 C53.6601562,45.3667676 53.2864277,44.9930391 52.8251953,44.9930391 Z M52.8251953,50.0028047 L32.6748047,50.0028047 C32.2135723,50.0028047 31.8398438,50.3765332 31.8398438,50.8377656 C31.8398438,51.298998 32.2135723,51.6727266 32.6748047,51.6727266 L52.8251953,51.6727266 C53.2864277,51.6727266 53.6601562,51.298998 53.6601562,50.8377656 C53.6601562,50.3765332 53.2864277,50.0028047 52.8251953,50.0028047 Z M33.2314453,31.0048828 L30.4482422,31.0048828 C29.0671055,31.0048828 27.9433594,29.8811367 27.9433594,28.5 C27.9433594,28.0387676 27.5695195,27.6650391 27.1083984,27.6650391 C26.6472773,27.6650391 26.2734375,28.0387676 26.2734375,28.5 C26.2734375,30.802043 28.1461992,32.6748047 30.4482422,32.6748047 L33.2314453,32.6748047 C35.5334883,32.6748047 37.40625,30.802043 37.40625,28.5 C37.40625,26.197957 35.5334883,24.3251953 33.2314453,24.3251953 L32.1181641,24.3251953 C31.6569316,24.3251953 31.2832031,24.6989238 31.2832031,25.1601562 C31.2832031,25.6213887 31.6569316,25.9951172 32.1181641,25.9951172 L33.2314453,25.9951172 C34.612582,25.9951172 35.7363281,27.1188633 35.7363281,28.5 C35.7363281,29.8811367 34.612582,31.0048828 33.2314453,31.0048828 Z M52.8251953,39.9832734 L36.0146484,39.9832734 C35.553416,39.9832734 35.1796875,40.357002 35.1796875,40.8182344 C35.1796875,41.2794668 35.553416,41.6531953 36.0146484,41.6531953 L52.8251953,41.6531953 C53.2864277,41.6531953 53.6601562,41.2794668 53.6601562,40.8182344 C53.6601562,40.357002 53.2864277,39.9832734 52.8251953,39.9832734 Z M26.5517578,24.3251953 L23.7685547,24.3251953 C21.4665117,24.3251953 19.59375,26.197957 19.59375,28.5 C19.59375,30.802043 21.4665117,32.6748047 23.7685547,32.6748047 L24.8818359,32.6748047 C25.342957,32.6748047 25.7167969,32.3010762 25.7167969,31.8398438 C25.7167969,31.3786113 25.342957,31.0048828 24.8818359,31.0048828 L23.7685547,31.0048828 C22.3873066,31.0048828 21.2636719,29.8811367 21.2636719,28.5 C21.2636719,27.1188633 22.3873066,25.9951172 23.7685547,25.9951172 L26.5517578,25.9951172 C27.9330059,25.9951172 29.0566406,27.1188633 29.0566406,28.5 C29.0566406,28.9612324 29.4303691,29.3349609 29.8916016,29.3349609 C30.352834,29.3349609 30.7265625,28.9612324 30.7265625,28.5 C30.7265625,26.197957 28.8538008,24.3251953 26.5517578,24.3251953 Z M25.1601562,4.62011719 C25.1601562,3.91418555 24.5858145,3.33984375 23.8798828,3.33984375 L4.62011719,3.33984375 C3.91418555,3.33984375 3.33984375,3.91418555 3.33984375,4.62011719 L3.33984375,8.54966602 C3.33984375,9.25559766 3.91418555,9.82993945 4.62011719,9.82993945 L23.8798828,9.82993945 C24.5858145,9.82993945 25.1601562,9.25559766 25.1601562,8.54966602 L25.1601562,4.62011719 Z M23.4902344,8.16001758 L5.00976562,8.16001758 L5.00976562,5.00976563 L23.4902344,5.00976563 L23.4902344,8.16001758 Z M25.1601562,14.3221406 C25.1601562,13.8609082 24.7863164,13.4871797 24.3251953,13.4871797 L4.17480469,13.4871797 C3.71368359,13.4871797 3.33984375,13.8609082 3.33984375,14.3221406 C3.33984375,14.783373 3.71368359,15.1571016 4.17480469,15.1571016 L24.3251953,15.1571016 C24.7863164,15.1571016 25.1601562,14.783373 25.1601562,14.3221406 Z M18.4804688,19.3319062 C18.4804688,18.8706738 18.1066289,18.4969453 17.6455078,18.4969453 L4.17480469,18.4969453 C3.71368359,18.4969453 3.33984375,18.8706738 3.33984375,19.3319062 C3.33984375,19.7931387 3.71368359,20.1668672 4.17480469,20.1668672 L17.6455078,20.1668672 C18.1066289,20.1668672 18.4804688,19.7931387 18.4804688,19.3319062 Z M53.9384766,26.4960938 L40.2991113,26.4960938 C39.3428027,20.8478613 34.4163105,16.5322266 28.5,16.5322266 C21.9009141,16.5322266 16.5322266,21.9010254 16.5322266,28.5 C16.5322266,28.6116621 16.5357891,28.7227676 16.5387949,28.8339844 L3.06152344,28.8339844 C2.29413867,28.8339844 1.66992188,28.2097676 1.66992188,27.4423828 L1.66992188,3.06152344 C1.66992188,2.29413867 2.29413867,1.66992188 3.06152344,1.66992188 L25.4384766,1.66992188 C26.2058613,1.66992188 26.8300781,2.29413867 26.8300781,3.06152344 L26.8300781,13.501875 C26.8300781,13.9631074 27.203918,14.3368359 27.6650391,14.3368359 C28.1261602,14.3368359 28.5,13.9631074 28.5,13.501875 L28.5,3.06152344 C28.5,1.37345508 27.1266562,0 25.4384766,0 L3.06152344,0 C1.37334375,0 0,1.37345508 0,3.06152344 L0,27.4423828 C0,29.1304512 1.37334375,30.5039062 3.06152344,30.5039062 L16.6995527,30.5039062 C17.0098242,32.3545137 17.7499336,34.099248 18.8872617,35.6302324 C19.1622422,36.0003984 19.685373,36.0775488 20.0554277,35.8025684 C20.4255937,35.5275879 20.5028555,35.0045684 20.2277637,34.6344023 C18.902625,32.8504805 18.2021484,30.7292344 18.2021484,28.5 C18.2021484,22.821709 22.821709,18.2021484 28.5,18.2021484 C34.178291,18.2021484 38.7978516,22.821709 38.7978516,28.5 C38.7978516,34.178291 34.178291,38.7978516 28.5,38.7978516 C26.4363105,38.7978516 24.445541,38.1898887 22.7428887,37.0396465 C22.3608105,36.7815879 21.8417988,36.8820059 21.5836289,37.2641953 C21.325459,37.6463848 21.4259883,38.1653965 21.8081777,38.4234551 C23.7878145,39.7608398 26.1018809,40.4677734 28.5,40.4677734 L28.5,53.9384766 C28.5,55.6265449 29.8734551,57 31.5615234,57 L53.9384766,57 C55.6265449,57 57,55.6265449 57,53.9384766 L57,29.5576172 C57,27.8695488 55.6265449,26.4960938 53.9384766,26.4960938 Z M40.0853613,31.5058594 L51.9902344,31.5058594 L51.9902344,34.6564453 L38.7591094,34.6564453 C39.3431367,33.6867773 39.7940156,32.6281582 40.0853613,31.5058594 Z M55.3300781,53.9384766 C55.3300781,54.7058613 54.7058613,55.3300781 53.9384766,55.3300781 L31.5615234,55.3300781 C30.7941387,55.3300781 30.1699219,54.7058613 30.1699219,53.9384766 L30.1699219,40.3506563 C33.1011914,39.9396328 35.6956934,38.4635332 37.5469688,36.3263672 L52.3798828,36.3263672 C53.0858145,36.3263672 53.6601562,35.7520254 53.6601562,35.0460937 L53.6601562,31.1162109 C53.6601562,30.4102793 53.0858145,29.8359375 52.3798828,29.8359375 L40.3927383,29.8359375 C40.4417227,29.3971934 40.4677734,28.9516582 40.4677734,28.5 C40.4677734,28.3882266 40.4659922,28.2770098 40.462875,28.1660156 L53.9384766,28.1660156 C54.7058613,28.1660156 55.3300781,28.7902324 55.3300781,29.5576172 L55.3300781,53.9384766 Z M4.17480469,23.5067109 C3.71368359,23.5067109 3.33984375,23.8804395 3.33984375,24.3416719 C3.33984375,24.8029043 3.71368359,25.1766328 4.17480469,25.1766328 L14.3056641,25.1766328 C14.7667852,25.1766328 15.140625,24.8029043 15.140625,24.3416719 C15.140625,23.8804395 14.7667852,23.5067109 14.3056641,23.5067109 L4.17480469,23.5067109 Z" id="Shape" fill="#000000" fill-rule="nonzero"></path>
                </g>
            </g>
        </g>
    </g>
</svg>