<?xml version="1.0" encoding="UTF-8"?>
<svg width="638px" height="70px" viewBox="0 0 638 70" version="1.1" xmlns="http://www.w3.org/2000/svg" xmlns:xlink="http://www.w3.org/1999/xlink">
    <!-- Generator: Sketch 52.3 (67297) - http://www.bohemiancoding.com/sketch -->
    <title>Group 41</title>
    <desc>Created with Sketch.</desc>
    <defs>
        <circle id="path-1" cx="31.3910506" cy="31.3910506" r="31.3910506"></circle>
    </defs>
    <g id="Page-1" stroke="none" stroke-width="1" fill="none" fill-rule="evenodd">
        <g id="Group-41">
            <g id="Group-40">
                <g id="Group-30">
                    <g id="Group-4">
                        <g id="Group-5">
                            <g id="Group-3">
                                <g id="Group-2" transform="translate(187.120623, 0.000000)">
                                    <rect id="Rectangle" fill="#FFF60F" x="0" y="0" width="450.36965" height="70" rx="35"></rect>
                                    <g id="profile" transform="translate(4.221790, 3.677043)">
                                        <mask id="mask-2" fill="white">
                                            <use xlink:href="#path-1"></use>
                                        </mask>
                                        <use id="Mask" fill="#FFFFFF" xlink:href="#path-1"></use>
                                    </g>
                                </g>
                                <path d="M187.120623,36.9457792 L19.5026484,36.9457792" id="Line-2" stroke="#FFF60F" stroke-width="5" stroke-linecap="square"></path>
                                <ellipse id="Oval" fill="#FFF60F" cx="9.73735409" cy="36.9747082" rx="9.73735409" ry="10.0097276"></ellipse>
                            </g>
                        </g>
                    </g>
                </g>
            </g>
            <g id="link" transform="translate(203.000000, 14.000000)">
                <g id="Group" transform="translate(0.546875, 0.546875)">
                    <g id="Path">
                        <path d="M17.3046875,20.2734375 L1.6015625,20.2734375 C0.73859375,20.2734375 0.0390625,19.5739063 0.0390625,18.7109375 L0.0390625,1.6015625 C0.0390625,0.73859375 0.73859375,0.0390625 1.6015625,0.0390625 L17.3046875,0.0390625 C18.1676563,0.0390625 18.8671875,0.73859375 18.8671875,1.6015625 L18.8671875,18.7109375 C18.8671875,19.5739063 18.1676563,20.2734375 17.3046875,20.2734375 Z" fill="#F7F6F7"></path>
                        <path d="M17.3046875,0.0390625 L14.9609375,0.0390625 C15.8239063,0.0390625 16.5234375,0.73859375 16.5234375,1.6015625 L16.5234375,18.7109375 C16.5234375,19.5739063 15.8239063,20.2734375 14.9609375,20.2734375 L17.3046875,20.2734375 C18.1676563,20.2734375 18.8671875,19.5739063 18.8671875,18.7109375 L18.8671875,1.6015625 C18.8671875,0.73859375 18.1676563,0.0390625 17.3046875,0.0390625 Z" fill="#EDEBED"></path>
                        <path d="M16.2109375,5.76539063 L2.6953125,5.76539063 C2.52273437,5.76539063 2.3828125,5.62546875 2.3828125,5.45289063 L2.3828125,2.6953125 C2.3828125,2.52273437 2.52273437,2.3828125 2.6953125,2.3828125 L16.2109375,2.3828125 C16.3835156,2.3828125 16.5234375,2.52273437 16.5234375,2.6953125 L16.5234375,5.45289063 C16.5234375,5.62546875 16.3835156,5.76539063 16.2109375,5.76539063 Z" fill="#D3CED4"></path>
                    </g>
                    <g transform="translate(20.000000, 18.593750)" id="Path">
                        <path d="M17.3046875,20.2734375 L1.6015625,20.2734375 C0.73859375,20.2734375 0.0390625,19.5739063 0.0390625,18.7109375 L0.0390625,1.6015625 C0.0390625,0.73859375 0.73859375,0.0390625 1.6015625,0.0390625 L17.3046875,0.0390625 C18.1676563,0.0390625 18.8671875,0.73859375 18.8671875,1.6015625 L18.8671875,18.7109375 C18.8671875,19.5739063 18.1676563,20.2734375 17.3046875,20.2734375 Z" fill="#F7F6F7"></path>
                        <path d="M17.3046875,0.0390625 L14.9609375,0.0390625 C15.8239063,0.0390625 16.5234375,0.73859375 16.5234375,1.6015625 L16.5234375,18.7109375 C16.5234375,19.5739063 15.8239063,20.2734375 14.9609375,20.2734375 L17.3046875,20.2734375 C18.1676563,20.2734375 18.8671875,19.5739063 18.8671875,18.7109375 L18.8671875,1.6015625 C18.8671875,0.73859375 18.1676563,0.0390625 17.3046875,0.0390625 Z" fill="#EDEBED"></path>
                        <path d="M16.2109375,5.76539063 L2.6953125,5.76539063 C2.52273437,5.76539063 2.3828125,5.62546875 2.3828125,5.45289063 L2.3828125,2.6953125 C2.3828125,2.52273437 2.52273437,2.3828125 2.6953125,2.3828125 L16.2109375,2.3828125 C16.3835156,2.3828125 16.5234375,2.52273437 16.5234375,2.6953125 L16.5234375,5.45289063 C16.5234375,5.62546875 16.3835156,5.76539063 16.2109375,5.76539063 Z" fill="#D3CED4"></path>
                    </g>
                    <g transform="translate(11.640625, 11.640625)">
                        <circle id="Oval" fill="#A4CCFF" cx="7.8125" cy="7.8125" r="7.8125"></circle>
                        <path d="M7.8125,0 C7.41421875,0 7.02289063,0.03 6.640625,0.0875 C10.399375,0.65296875 13.28125,3.89609375 13.28125,7.8125 C13.28125,11.7289062 10.399375,14.9721094 6.640625,15.5375 C7.02289063,15.595 7.41421875,15.625 7.8125,15.625 C12.1271875,15.625 15.625,12.1272656 15.625,7.8125 C15.625,3.49773438 12.1271875,0 7.8125,0 Z" id="Path" fill="#8BB3EA"></path>
                    </g>
                </g>
                <path d="M37.0703125,31.5740625 L22.9296875,31.5740625 C22.6060156,31.5740625 22.34375,31.8363281 22.34375,32.16 C22.34375,32.4836719 22.6060156,32.7459375 22.9296875,32.7459375 L37.0703125,32.7459375 C37.3939844,32.7459375 37.65625,32.4836719 37.65625,32.16 C37.65625,31.8363281 37.3939844,31.5740625 37.0703125,31.5740625 Z M37.0703125,35.0896875 L22.9296875,35.0896875 C22.6060156,35.0896875 22.34375,35.3519531 22.34375,35.675625 C22.34375,35.9992969 22.6060156,36.2615625 22.9296875,36.2615625 L37.0703125,36.2615625 C37.3939844,36.2615625 37.65625,35.9992969 37.65625,35.675625 C37.65625,35.3519531 37.3939844,35.0896875 37.0703125,35.0896875 Z M23.3203125,21.7578125 L21.3671875,21.7578125 C20.3979688,21.7578125 19.609375,20.9692187 19.609375,20 C19.609375,19.6763281 19.3470313,19.4140625 19.0234375,19.4140625 C18.6998437,19.4140625 18.4375,19.6763281 18.4375,20 C18.4375,21.6154687 19.7517188,22.9296875 21.3671875,22.9296875 L23.3203125,22.9296875 C24.9357812,22.9296875 26.25,21.6154687 26.25,20 C26.25,18.3845313 24.9357812,17.0703125 23.3203125,17.0703125 L22.5390625,17.0703125 C22.2153906,17.0703125 21.953125,17.3325781 21.953125,17.65625 C21.953125,17.9799219 22.2153906,18.2421875 22.5390625,18.2421875 L23.3203125,18.2421875 C24.2895312,18.2421875 25.078125,19.0307813 25.078125,20 C25.078125,20.9692187 24.2895312,21.7578125 23.3203125,21.7578125 Z M37.0703125,28.0584375 L25.2734375,28.0584375 C24.9497656,28.0584375 24.6875,28.3207031 24.6875,28.644375 C24.6875,28.9680469 24.9497656,29.2303125 25.2734375,29.2303125 L37.0703125,29.2303125 C37.3939844,29.2303125 37.65625,28.9680469 37.65625,28.644375 C37.65625,28.3207031 37.3939844,28.0584375 37.0703125,28.0584375 Z M18.6328125,17.0703125 L16.6796875,17.0703125 C15.0642188,17.0703125 13.75,18.3845313 13.75,20 C13.75,21.6154687 15.0642188,22.9296875 16.6796875,22.9296875 L17.4609375,22.9296875 C17.7845313,22.9296875 18.046875,22.6674219 18.046875,22.34375 C18.046875,22.0200781 17.7845313,21.7578125 17.4609375,21.7578125 L16.6796875,21.7578125 C15.7103906,21.7578125 14.921875,20.9692187 14.921875,20 C14.921875,19.0307813 15.7103906,18.2421875 16.6796875,18.2421875 L18.6328125,18.2421875 C19.6021094,18.2421875 20.390625,19.0307813 20.390625,20 C20.390625,20.3236719 20.6528906,20.5859375 20.9765625,20.5859375 C21.3002344,20.5859375 21.5625,20.3236719 21.5625,20 C21.5625,18.3845313 20.2482812,17.0703125 18.6328125,17.0703125 Z M17.65625,3.2421875 C17.65625,2.74679688 17.2532031,2.34375 16.7578125,2.34375 L3.2421875,2.34375 C2.74679687,2.34375 2.34375,2.74679688 2.34375,3.2421875 L2.34375,5.99976563 C2.34375,6.49515625 2.74679687,6.89820313 3.2421875,6.89820313 L16.7578125,6.89820313 C17.2532031,6.89820313 17.65625,6.49515625 17.65625,5.99976563 L17.65625,3.2421875 Z M16.484375,5.72632813 L3.515625,5.72632813 L3.515625,3.515625 L16.484375,3.515625 L16.484375,5.72632813 Z M17.65625,10.050625 C17.65625,9.72695313 17.3939063,9.4646875 17.0703125,9.4646875 L2.9296875,9.4646875 C2.60609375,9.4646875 2.34375,9.72695313 2.34375,10.050625 C2.34375,10.3742969 2.60609375,10.6365625 2.9296875,10.6365625 L17.0703125,10.6365625 C17.3939063,10.6365625 17.65625,10.3742969 17.65625,10.050625 Z M12.96875,13.56625 C12.96875,13.2425781 12.7064062,12.9803125 12.3828125,12.9803125 L2.9296875,12.9803125 C2.60609375,12.9803125 2.34375,13.2425781 2.34375,13.56625 C2.34375,13.8899219 2.60609375,14.1521875 2.9296875,14.1521875 L12.3828125,14.1521875 C12.7064062,14.1521875 12.96875,13.8899219 12.96875,13.56625 Z M37.8515625,18.59375 L28.2800781,18.59375 C27.6089844,14.6300781 24.1517969,11.6015625 20,11.6015625 C15.3690625,11.6015625 11.6015625,15.3691406 11.6015625,20 C11.6015625,20.0783594 11.6040625,20.1563281 11.6061719,20.234375 L2.1484375,20.234375 C1.60992187,20.234375 1.171875,19.7963281 1.171875,19.2578125 L1.171875,2.1484375 C1.171875,1.60992187 1.60992187,1.171875 2.1484375,1.171875 L17.8515625,1.171875 C18.3900781,1.171875 18.828125,1.60992187 18.828125,2.1484375 L18.828125,9.475 C18.828125,9.79867188 19.0904687,10.0609375 19.4140625,10.0609375 C19.7376563,10.0609375 20,9.79867188 20,9.475 L20,2.1484375 C20,0.963828125 19.03625,0 17.8515625,0 L2.1484375,0 C0.96375,0 0,0.963828125 0,2.1484375 L0,19.2578125 C0,20.4424219 0.96375,21.40625 2.1484375,21.40625 L11.7189844,21.40625 C11.9367187,22.7049219 12.4560937,23.9292969 13.2542187,25.0036719 C13.4471875,25.2634375 13.8142969,25.3175781 14.0739844,25.1246094 C14.33375,24.9316406 14.3879687,24.5646094 14.1949219,24.3048438 C13.265,23.0529688 12.7734375,21.564375 12.7734375,20 C12.7734375,16.0152344 16.0152344,12.7734375 20,12.7734375 C23.9847656,12.7734375 27.2265625,16.0152344 27.2265625,20 C27.2265625,23.9847656 23.9847656,27.2265625 20,27.2265625 C18.5517969,27.2265625 17.1547656,26.7999219 15.9599219,25.9927344 C15.6917969,25.8116406 15.3275781,25.8821094 15.1464063,26.1503125 C14.9652344,26.4185156 15.0357812,26.7827344 15.3039844,26.9638281 C16.6932031,27.9023438 18.3171094,28.3984375 20,28.3984375 L20,37.8515625 C20,39.0361719 20.9638281,40 22.1484375,40 L37.8515625,40 C39.0361719,40 40,39.0361719 40,37.8515625 L40,20.7421875 C40,19.5575781 39.0361719,18.59375 37.8515625,18.59375 Z M28.1300781,22.109375 L36.484375,22.109375 L36.484375,24.3203125 L27.199375,24.3203125 C27.6092188,23.6398438 27.925625,22.8969531 28.1300781,22.109375 Z M38.828125,37.8515625 C38.828125,38.3900781 38.3900781,38.828125 37.8515625,38.828125 L22.1484375,38.828125 C21.6099219,38.828125 21.171875,38.3900781 21.171875,37.8515625 L21.171875,28.31625 C23.2289062,28.0278125 25.0496094,26.9919531 26.34875,25.4921875 L36.7578125,25.4921875 C37.2532031,25.4921875 37.65625,25.0891406 37.65625,24.59375 L37.65625,21.8359375 C37.65625,21.3405469 37.2532031,20.9375 36.7578125,20.9375 L28.3457813,20.9375 C28.3801563,20.6296094 28.3984375,20.3169531 28.3984375,20 C28.3984375,19.9215625 28.3971875,19.8435156 28.395,19.765625 L37.8515625,19.765625 C38.3900781,19.765625 38.828125,20.2036719 38.828125,20.7421875 L38.828125,37.8515625 Z M2.9296875,16.4959375 C2.60609375,16.4959375 2.34375,16.7582031 2.34375,17.081875 C2.34375,17.4055469 2.60609375,17.6678125 2.9296875,17.6678125 L10.0390625,17.6678125 C10.3626562,17.6678125 10.625,17.4055469 10.625,17.081875 C10.625,16.7582031 10.3626562,16.4959375 10.0390625,16.4959375 L2.9296875,16.4959375 Z" id="Shape" fill="#000000" fill-rule="nonzero"></path>
            </g>
        </g>
    </g>
</svg>