<?xml version="1.0" encoding="UTF-8"?>
<svg width="638px" height="70px" viewBox="0 0 638 70" version="1.1" xmlns="http://www.w3.org/2000/svg" xmlns:xlink="http://www.w3.org/1999/xlink">
    <!-- Generator: Sketch 52.3 (67297) - http://www.bohemiancoding.com/sketch -->
    <title>Group 43</title>
    <desc>Created with Sketch.</desc>
    <defs>
        <circle id="path-1" cx="31.3910506" cy="31.3910506" r="31.3910506"></circle>
    </defs>
    <g id="Page-1" stroke="none" stroke-width="1" fill="none" fill-rule="evenodd">
        <g id="Group-43">
            <g id="Group-41">
                <g id="Group-40">
                    <g id="Group-30">
                        <g id="Group-4">
                            <g id="Group-5">
                                <g id="Group-3">
                                    <g id="Group-2" transform="translate(187.120623, 0.000000)">
                                        <rect id="Rectangle" fill="#FFF60F" x="0" y="0" width="450.36965" height="70" rx="35"></rect>
                                        <g id="profile" transform="translate(4.221790, 3.677043)">
                                            <mask id="mask-2" fill="white">
                                                <use xlink:href="#path-1"></use>
                                            </mask>
                                            <use id="Mask" fill="#FFFFFF" xlink:href="#path-1"></use>
                                        </g>
                                    </g>
                                    <path d="M187.120623,36.9457792 L19.5026484,36.9457792" id="Line-2" stroke="#FFF60F" stroke-width="5" stroke-linecap="square"></path>
                                    <ellipse id="Oval" fill="#FFF60F" cx="9.73735409" cy="36.9747082" rx="9.73735409" ry="10.0097276"></ellipse>
                                </g>
                            </g>
                        </g>
                    </g>
                </g>
            </g>
            <g id="preformance" transform="translate(205.000000, 15.000000)">
                <polygon id="Path" fill="#FFEB99" points="0.666666667 0.666666667 30 0.666666667 30 39.3333333 0.666666667 39.3333333"></polygon>
                <path d="M6,39.3333333 L30,39.3333333 L30,15.3333333 C30,28.5881673 19.254834,39.3333333 6,39.3333333 Z" id="Path" fill="#FFDE55"></path>
                <path d="M29.3333333,23.9066667 C24.2311098,26.85035 17.7086306,25.1009653 14.7642856,19.9991236 C11.8199407,14.8972818 13.5684794,8.3745758 18.6699393,5.42956922 C23.7713991,2.48456263 30.2943318,4.23225547 33.24,9.33333333 C36.1804337,14.4371123 34.4323753,20.9580262 29.3333333,23.9066667 Z" id="Path" fill="#57A4FF"></path>
                <path d="M28,21.5933333 C25.1980183,23.2120386 21.6968253,22.9833346 19.1292284,21.0138792 C16.5616316,19.0444238 15.4333542,15.7221283 16.2705769,12.5963697 C17.1077996,9.47061113 19.7456198,7.1570507 22.9538706,6.7346344 C26.1621214,6.31221809 29.3088935,7.86414663 30.9266667,10.6666667 C33.1310743,14.4927812 31.8217054,19.3812906 28,21.5933333 Z" id="Path" fill="#FFDAAA"></path>
                <path d="M37.6093333,38.2386667 C38.8847151,37.5022657 39.3216782,35.8714142 38.5853333,34.596 L33.976,26.6126667 L32.8213333,27.2793333 L30.512,28.6126667 L29.3573333,29.2793333 L30,30.392 L33.9666667,37.2626667 C34.7030677,38.5380484 36.3339192,38.9750116 37.6093333,38.2386667 Z" id="Path" fill="#005ECE"></path>
                <polygon id="Path" fill="#FFCD00" points="11.3333333 30 14 30 14 36.6666667 11.3333333 36.6666667"></polygon>
                <polygon id="Path" fill="#ED1C24" points="6 32.6666667 8.66666667 32.6666667 8.66666667 36.6666667 6 36.6666667"></polygon>
                <polygon id="Path" fill="#FFCD00" points="29.3333333 16 27.22 16 28.7133333 17.4933333 26.8266667 19.38 25.3333333 17.8866667 25.3333333 20 22.6666667 20 22.6666667 17.8866667 21.1733333 19.38 19.2866667 17.4933333 20.78 16 18.6666667 16 18.6666667 13.3333333 20.78 13.3333333 19.2866667 11.84 21.1733333 9.95333333 22.6666667 11.4466667 22.6666667 9.33333333 25.3333333 9.33333333 25.3333333 11.4466667 26.8266667 9.95333333 28.7133333 11.84 27.22 13.3333333 29.3333333 13.3333333"></polygon>
                <circle id="Oval" fill="#F1F2F2" cx="24" cy="14.6666667" r="1.33333333"></circle>
                <path d="M4.66666667,7.33333333 C4.66666667,8.80609267 5.860574,10 7.33333333,10 C8.80609267,10 10,8.80609267 10,7.33333333 C10,5.860574 8.80609267,4.66666667 7.33333333,4.66666667 C5.860574,4.66666667 4.66666667,5.860574 4.66666667,7.33333333 Z M7.33333333,6.66666667 C7.70152317,6.66666667 8,6.9651435 8,7.33333333 C8,7.70152317 7.70152317,8 7.33333333,8 C6.9651435,8 6.66666667,7.70152317 6.66666667,7.33333333 C6.66666667,6.9651435 6.9651435,6.66666667 7.33333333,6.66666667 Z" id="Shape" fill="#ED1C24" fill-rule="nonzero"></path>
                <circle id="Oval" fill="#57A4FF" cx="7.33333333" cy="7.33333333" r="1"></circle>
                <path d="M30.3793333,23.208 C29.7114339,23.7164056 28.9815763,24.1377874 28.2073333,24.462 L28.1406667,24.5013333 L30.514,28.6126667 L32.8233333,27.2793333 L30.45,23.168 L30.3793333,23.208 Z" id="Path" fill="#FF5023"></path>
                <polygon id="Path" fill="#5EAC24" points="22 27.3333333 24.6666667 27.3333333 24.6666667 36.6666667 22 36.6666667"></polygon>
                <polygon id="Path" fill="#006DF0" points="16.6666667 28.6666667 19.3333333 28.6666667 19.3333333 36.6666667 16.6666667 36.6666667"></polygon>
                <path d="M19.6666667,7.16133333 C16.0800751,9.22764255 14.4530261,13.5400887 15.7808544,17.4605664 C17.1086827,21.3810441 21.0214241,23.8172163 25.1254895,23.2787735 C29.2295548,22.7403308 32.3814553,19.3772959 32.6530403,15.2469794 C32.9246253,11.1166629 30.2402248,7.36986766 26.242,6.29866667 C24.0224627,5.70416134 21.6577328,6.01440777 19.6666667,7.16133333 Z M30.3506667,11 C32.1155137,14.0402503 31.4851477,17.9040151 28.8455137,20.2256824 C26.2058798,22.5473498 22.2932565,22.6793322 19.5031699,20.5408226 C16.7130832,18.4023131 15.8237778,14.5898106 17.3797359,11.4375414 C18.9356941,8.28527218 22.5029091,6.67250541 25.8973333,7.58666667 C27.775174,8.08990583 29.3767314,9.31744684 30.3506667,11 Z" id="Shape" fill="#000000" fill-rule="nonzero"></path>
                <path d="M39.1633333,34.2666667 L34.5533333,26.2786667 C34.3692331,25.9598212 33.9615202,25.8505804 33.6426667,26.0346667 L33.0653333,26.368 L31.3066667,23.3226667 C33.9697708,21.0806181 35.4528559,17.7376961 35.3278814,14.2587182 C35.2029069,10.7797403 33.4837801,7.55185071 30.6666667,5.50666667 L30.6666667,0.666666667 C30.6666667,0.298476833 30.3681898,0 30,0 L0.666666667,0 C0.298476833,0 0,0.298476833 0,0.666666667 L0,39.3333333 C0,39.7015232 0.298476833,40 0.666666667,40 L30,40 C30.3681898,40 30.6666667,39.7015232 30.6666667,39.3333333 L30.6666667,32.8806667 L33.3893333,37.6 C33.984776,38.6314258 35.0852468,39.2668376 36.276209,39.266882 C37.4671712,39.2669264 38.5676894,38.6315967 39.163209,37.6002153 C39.7587286,36.568834 39.758776,35.2980924 39.1633333,34.2666667 Z M31.9106667,27.0346667 L31.3333333,27.368 L30.756,27.7013333 L29.0786667,24.796 C29.2786667,24.6966667 29.4733333,24.596 29.6666667,24.482 C29.86,24.368 30.042,24.2426667 30.228,24.1206667 L31.9106667,27.0346667 Z M32.66,9.66666667 C34.9133023,13.5813567 34.2585012,18.5211389 31.0631029,21.7135672 C27.8677047,24.9059956 22.9273157,25.5562031 19.0147227,23.2992617 C15.1021296,21.0423202 13.1915098,16.4401746 14.3551959,12.0757727 C15.5188821,7.71137084 19.4671337,4.67138374 23.984,4.662 C24.8633604,4.66283687 25.7388177,4.77893694 26.588,5.00733333 C29.1531074,5.68704614 31.3396083,7.3648519 32.66,9.66666667 Z M29.3333333,38.6666667 L1.33333333,38.6666667 L1.33333333,1.33333333 L29.3333333,1.33333333 L29.3333333,4.67533333 C28.5722048,4.26662156 27.7670204,3.94588975 26.9333333,3.71933333 C20.8872881,2.09929807 14.6727019,5.68728808 13.0526667,11.7333333 C11.4326314,17.7793786 15.0206214,23.9939647 21.0666667,25.614 C22.029152,25.8726021 23.0213795,26.0039429 24.018,26.0046667 C25.3233584,26.0031719 26.6184068,25.7734925 27.8446667,25.326 L29.6,28.368 L29.0226667,28.7013333 C28.7038212,28.8854336 28.5945804,29.2931465 28.7786667,29.612 L29.3333333,30.5706667 L29.3333333,38.6666667 Z M38.208,36.4473333 C37.9997045,37.2303518 37.3395581,37.8103298 36.5362384,37.9160759 C35.7329186,38.021822 34.9451691,37.6324397 34.5413333,36.93 L30.2666667,29.5233333 L33.7333333,27.5233333 L38.008,34.9333333 C38.2740777,35.3910747 38.3460891,35.9362014 38.208,36.4473333 Z" id="Shape" fill="#000000" fill-rule="nonzero"></path>
                <path d="M26,36 L25.3333333,36 L25.3333333,27.3333333 C25.3333333,26.9651435 25.0348565,26.6666667 24.6666667,26.6666667 L22,26.6666667 C21.6318102,26.6666667 21.3333333,26.9651435 21.3333333,27.3333333 L21.3333333,36 L20,36 L20,28.6666667 C20,28.2984768 19.7015232,28 19.3333333,28 L16.6666667,28 C16.2984768,28 16,28.2984768 16,28.6666667 L16,36 L14.6666667,36 L14.6666667,30 C14.6666667,29.6318102 14.3681898,29.3333333 14,29.3333333 L11.3333333,29.3333333 C10.9651435,29.3333333 10.6666667,29.6318102 10.6666667,30 L10.6666667,36 L9.33333333,36 L9.33333333,32.6666667 C9.33333333,32.2984768 9.0348565,32 8.66666667,32 L6,32 C5.63181017,32 5.33333333,32.2984768 5.33333333,32.6666667 L5.33333333,36 L4.66666667,36 C4.29847683,36 4,36.2984768 4,36.6666667 C4,37.0348565 4.29847683,37.3333333 4.66666667,37.3333333 L26,37.3333333 C26.3681898,37.3333333 26.6666667,37.0348565 26.6666667,36.6666667 C26.6666667,36.2984768 26.3681898,36 26,36 Z M6.66666667,36 L6.66666667,33.3333333 L8,33.3333333 L8,36 L6.66666667,36 Z M12,36 L12,30.6666667 L13.3333333,30.6666667 L13.3333333,36 L12,36 Z M17.3333333,36 L17.3333333,29.3333333 L18.6666667,29.3333333 L18.6666667,36 L17.3333333,36 Z M22.6666667,36 L22.6666667,28 L24,28 L24,36 L22.6666667,36 Z" id="Shape" fill="#000000" fill-rule="nonzero"></path>
                <path d="M25.3333333,8.66666667 L22.6666667,8.66666667 C22.2984768,8.66666667 22,8.9651435 22,9.33333333 L22,9.83733333 L21.6446667,9.482 C21.3843334,9.22174537 20.9623332,9.22174537 20.702,9.482 L18.8153333,11.3686667 C18.5550787,11.6289999 18.5550787,12.0510001 18.8153333,12.3113333 L19.1706667,12.6666667 L18.6666667,12.6666667 C18.2984768,12.6666667 18,12.9651435 18,13.3333333 L18,16 C18,16.3681898 18.2984768,16.6666667 18.6666667,16.6666667 L19.1706667,16.6666667 L18.8153333,17.022 C18.5550787,17.2823332 18.5550787,17.7043334 18.8153333,17.9646667 L20.702,19.8513333 C20.9623332,20.111588 21.3843334,20.111588 21.6446667,19.8513333 L22,19.496 L22,20 C22,20.3681898 22.2984768,20.6666667 22.6666667,20.6666667 L25.3333333,20.6666667 C25.7015232,20.6666667 26,20.3681898 26,20 L26,19.496 L26.3553333,19.8513333 C26.6156666,20.111588 27.0376668,20.111588 27.298,19.8513333 L29.1846667,17.9646667 C29.4449213,17.7043334 29.4449213,17.2823332 29.1846667,17.022 L28.8293333,16.6666667 L29.3333333,16.6666667 C29.7015232,16.6666667 30,16.3681898 30,16 L30,13.3333333 C30,12.9651435 29.7015232,12.6666667 29.3333333,12.6666667 L28.8293333,12.6666667 L29.1846667,12.3113333 C29.4449213,12.0510001 29.4449213,11.6289999 29.1846667,11.3686667 L27.298,9.482 C27.0376668,9.22174537 26.6156666,9.22174537 26.3553333,9.482 L26,9.83733333 L26,9.33333333 C26,8.9651435 25.7015232,8.66666667 25.3333333,8.66666667 Z M26.8266667,10.896 L27.7706667,11.84 L26.7486667,12.862 C26.5580614,13.0526628 26.5010521,13.3393577 26.6042147,13.5884364 C26.7073773,13.837515 26.9504027,13.9999424 27.22,14 L28.6666667,14 L28.6666667,15.3333333 L27.22,15.3333333 C26.9504027,15.3333909 26.7073773,15.4958183 26.6042147,15.744897 C26.5010521,15.9939756 26.5580614,16.2806705 26.7486667,16.4713333 L27.7706667,17.4933333 L26.8266667,18.4373333 L25.8046667,17.4153333 C25.6140038,17.2247281 25.3273089,17.1677187 25.0782303,17.2708813 C24.8291517,17.374044 24.6667242,17.6170694 24.6666667,17.8866667 L24.6666667,19.3333333 L23.3333333,19.3333333 L23.3333333,17.8866667 C23.3332758,17.6170694 23.1708483,17.374044 22.9217697,17.2708813 C22.6726911,17.1677187 22.3859962,17.2247281 22.1953333,17.4153333 L21.1733333,18.4373333 L20.2293333,17.4933333 L21.2513333,16.4713333 C21.4419386,16.2806705 21.4989479,15.9939756 21.3957853,15.744897 C21.2926227,15.4958183 21.0495973,15.3333909 20.78,15.3333333 L19.3333333,15.3333333 L19.3333333,14 L20.78,14 C21.0495973,13.9999424 21.2926227,13.837515 21.3957853,13.5884364 C21.4989479,13.3393577 21.4419386,13.0526628 21.2513333,12.862 L20.2293333,11.84 L21.1733333,10.896 L22.1953333,11.918 C22.3859962,12.1086053 22.6726911,12.1656146 22.9217697,12.062452 C23.1708483,11.9592894 23.3332758,11.7162639 23.3333333,11.4466667 L23.3333333,10 L24.6666667,10 L24.6666667,11.4466667 C24.6667242,11.7162639 24.8291517,11.9592894 25.0782303,12.062452 C25.3273089,12.1656146 25.6140038,12.1086053 25.8046667,11.918 L26.8266667,10.896 Z" id="Shape" fill="#000000" fill-rule="nonzero"></path>
                <path d="M24,12.6666667 C22.8954305,12.6666667 22,13.5620972 22,14.6666667 C22,15.7712362 22.8954305,16.6666667 24,16.6666667 C25.1045695,16.6666667 26,15.7712362 26,14.6666667 C26,13.5620972 25.1045695,12.6666667 24,12.6666667 Z M24,15.3333333 C23.6318102,15.3333333 23.3333333,15.0348565 23.3333333,14.6666667 C23.3333333,14.2984768 23.6318102,14 24,14 C24.3681898,14 24.6666667,14.2984768 24.6666667,14.6666667 C24.6666667,15.0348565 24.3681898,15.3333333 24,15.3333333 Z" id="Shape" fill="#000000" fill-rule="nonzero"></path>
                <path d="M3.33333333,8 L4.06666667,8 C4.3363253,9.30813227 5.3585344,10.3303414 6.66666667,10.6 L6.66666667,11.3333333 C6.66666667,11.7015232 6.9651435,12 7.33333333,12 C7.70152317,12 8,11.7015232 8,11.3333333 L8,10.6 C9.30813227,10.3303414 10.3303414,9.30813227 10.6,8 L11.3333333,8 C11.7015232,8 12,7.70152317 12,7.33333333 C12,6.9651435 11.7015232,6.66666667 11.3333333,6.66666667 L10.6,6.66666667 C10.3303414,5.3585344 9.30813227,4.3363253 8,4.06666667 L8,3.33333333 C8,2.9651435 7.70152317,2.66666667 7.33333333,2.66666667 C6.9651435,2.66666667 6.66666667,2.9651435 6.66666667,3.33333333 L6.66666667,4.06666667 C5.3585344,4.3363253 4.3363253,5.3585344 4.06666667,6.66666667 L3.33333333,6.66666667 C2.9651435,6.66666667 2.66666667,6.9651435 2.66666667,7.33333333 C2.66666667,7.70152317 2.9651435,8 3.33333333,8 Z M7.33333333,5.33333333 C8.43790283,5.33333333 9.33333333,6.22876383 9.33333333,7.33333333 C9.33333333,8.43790283 8.43790283,9.33333333 7.33333333,9.33333333 C6.22876383,9.33333333 5.33333333,8.43790283 5.33333333,7.33333333 C5.33333333,6.22876383 6.22876383,5.33333333 7.33333333,5.33333333 Z" id="Shape" fill="#000000" fill-rule="nonzero"></path>
                <circle id="Oval" fill="#000000" cx="7.33333333" cy="7.33333333" r="1.33333333"></circle>
                <path d="M3.33333333,16 L10,16 C10.3681898,16 10.6666667,15.7015232 10.6666667,15.3333333 C10.6666667,14.9651435 10.3681898,14.6666667 10,14.6666667 L3.33333333,14.6666667 C2.9651435,14.6666667 2.66666667,14.9651435 2.66666667,15.3333333 C2.66666667,15.7015232 2.9651435,16 3.33333333,16 Z" id="Path" fill="#000000"></path>
                <path d="M3.33333333,18.6666667 L11.3333333,18.6666667 C11.7015232,18.6666667 12,18.3681898 12,18 C12,17.6318102 11.7015232,17.3333333 11.3333333,17.3333333 L3.33333333,17.3333333 C2.9651435,17.3333333 2.66666667,17.6318102 2.66666667,18 C2.66666667,18.3681898 2.9651435,18.6666667 3.33333333,18.6666667 Z" id="Path" fill="#000000"></path>
                <path d="M3.33333333,21.3333333 L11.3333333,21.3333333 C11.7015232,21.3333333 12,21.0348565 12,20.6666667 C12,20.2984768 11.7015232,20 11.3333333,20 L3.33333333,20 C2.9651435,20 2.66666667,20.2984768 2.66666667,20.6666667 C2.66666667,21.0348565 2.9651435,21.3333333 3.33333333,21.3333333 Z" id="Path" fill="#000000"></path>
                <path d="M3.33333333,24 L12.6666667,24 C13.0348565,24 13.3333333,23.7015232 13.3333333,23.3333333 C13.3333333,22.9651435 13.0348565,22.6666667 12.6666667,22.6666667 L3.33333333,22.6666667 C2.9651435,22.6666667 2.66666667,22.9651435 2.66666667,23.3333333 C2.66666667,23.7015232 2.9651435,24 3.33333333,24 Z" id="Path" fill="#000000"></path>
                <path d="M16,26 C16,25.6318102 15.7015232,25.3333333 15.3333333,25.3333333 L3.33333333,25.3333333 C2.9651435,25.3333333 2.66666667,25.6318102 2.66666667,26 C2.66666667,26.3681898 2.9651435,26.6666667 3.33333333,26.6666667 L15.3333333,26.6666667 C15.7015232,26.6666667 16,26.3681898 16,26 Z" id="Path" fill="#000000"></path>
            </g>
        </g>
    </g>
</svg>