<?xml version="1.0" encoding="UTF-8"?>
<svg width="1285px" height="7114px" viewBox="0 0 1285 7114" version="1.1" xmlns="http://www.w3.org/2000/svg" xmlns:xlink="http://www.w3.org/1999/xlink">
    <!-- Generator: Sketch 52.3 (67297) - http://www.bohemiancoding.com/sketch -->
    <title>Artboard</title>
    <desc>Created with Sketch.</desc>
    <defs>
        <path d="M71.0883445,0.333414044 L0.142130918,0.333414044 L0.142130918,84.851816 L71.0883445,84.851816 C79.5021162,84.851816 86.3274472,78.0641646 86.3274472,69.6917676 L86.3274472,15.4975787 C86.3274472,7.12106538 79.5021162,0.333414044 71.0883445,0.333414044" id="path-1"></path>
        <linearGradient x1="18.8144948%" y1="84.9023523%" x2="78.8768898%" y2="6.31422588%" id="linearGradient-3">
            <stop stop-color="#EDBE3F" offset="0%"></stop>
            <stop stop-color="#FAEB3C" offset="100%"></stop>
        </linearGradient>
        <polygon id="path-4" points="0.20313828 0.994875 25.7016672 0.994875 25.7016672 27.258 0.20313828 27.258"></polygon>
        <path d="M48.9265934,22.8608403 C37.7249451,20.3907563 27.2267033,16.5677311 17.5782418,11.6121008 C11.4427473,8.46168067 5.65285714,4.85512605 0.245164835,0.850420168 C0.232967033,0.834957983 0.220769231,0.823361345 0.208571429,0.80789916 C7.57604396,6.26605042 15.6428571,10.9820168 24.3236264,14.8127731 C32.0651648,18.229916 40.2824176,20.9551261 48.9265934,22.8608403" id="path-6"></path>
        <linearGradient x1="629.394091%" y1="-3192.84487%" x2="-773.90252%" y2="222.545136%" id="linearGradient-8">
            <stop stop-color="#CB6558" offset="0%"></stop>
            <stop stop-color="#E88656" offset="100%"></stop>
        </linearGradient>
        <path d="M49.0363736,159.660391 C17.931978,135.032961 -0.588351648,96.2919766 0.676153846,55.1704922 C-0.584285714,96.2713125 17.9197802,134.9875 48.9997802,159.61493 C49.011978,159.631461 49.0241758,159.643859 49.0363736,159.660391 M0.676153846,55.1704922 C0.684285714,54.9638516 0.688351648,54.7654766 0.696483516,54.5588359 C0.688351648,54.7613437 0.684285714,54.9638516 0.676153846,55.1704922 M7.0921978,18.6405625 C7.55571429,17.2271406 8.04362637,15.8219844 8.5478022,14.4333594 C10.3734066,9.45332031 12.4836264,4.63446094 14.8540659,0.00984375 C11.8208791,5.92803125 9.21868132,12.1479141 7.0921978,18.6405625" id="path-9"></path>
        <linearGradient x1="733.178398%" y1="-370.170349%" x2="-678.724199%" y2="132.74107%" id="linearGradient-11">
            <stop stop-color="#B86156" offset="0%"></stop>
            <stop stop-color="#CC7D54" offset="100%"></stop>
        </linearGradient>
        <path d="M0.979809524,35.993664 C1.24952381,30.134736 1.95809524,24.2424 3.13295238,18.329184 C3.13295238,18.325008 3.13295238,18.320832 3.13295238,18.316656 C3.14666667,18.262368 3.15580952,18.203904 3.16952381,18.149616 L3.16952381,18.14544 C3.22895238,17.85312 3.28380952,17.569152 3.34780952,17.276832 C3.34780952,17.26848 3.34780952,17.26848 3.34780952,17.260128 C3.36152381,17.20584 3.37066667,17.159904 3.37980952,17.105616 C3.38438095,17.093088 3.38438095,17.084736 3.38895238,17.072208 C3.39809524,17.022096 3.4072381,16.980336 3.41638095,16.930224 C3.42095238,16.917696 3.42552381,16.896816 3.43009524,16.884288 C3.4392381,16.834176 3.44838095,16.78824 3.45752381,16.742304 C3.46209524,16.733952 3.46209524,16.717248 3.46666667,16.708896 C3.47580952,16.654608 3.48495238,16.612848 3.49866667,16.55856 C3.49866667,16.550208 3.49866667,16.541856 3.5032381,16.533504 C3.5352381,16.374816 3.57180952,16.216128 3.60838095,16.05744 C3.60838095,16.049088 3.61295238,16.028208 3.61295238,16.019856 C3.62209524,15.97392 3.6312381,15.940512 3.64038095,15.894576 C3.64952381,15.86952 3.64952381,15.852816 3.65866667,15.82776 C3.6632381,15.790176 3.67238095,15.748416 3.68152381,15.710832 C3.68609524,15.689952 3.6952381,15.66072 3.69980952,15.63984 C3.70438095,15.602256 3.71352381,15.564672 3.72266667,15.527088 C3.73180952,15.497856 3.73638095,15.476976 3.74095238,15.443568 C3.75009524,15.41016 3.7592381,15.376752 3.76380952,15.339168 C3.77295238,15.314112 3.77752381,15.28488 3.78209524,15.259824 C3.7912381,15.226416 3.80038095,15.184656 3.80952381,15.147072 C3.81409524,15.126192 3.81866667,15.109488 3.8232381,15.084432 C3.8552381,14.9508 3.8872381,14.812992 3.91466667,14.675184 C3.92380952,14.645952 3.92838095,14.625072 3.93752381,14.59584 C3.94209524,14.562432 3.9512381,14.524848 3.96038095,14.49144 C3.96495238,14.462208 3.97409524,14.432976 3.97866667,14.403744 C3.98780952,14.36616 3.99695238,14.336928 4.00609524,14.299344 C4.01066667,14.270112 4.0152381,14.245056 4.02438095,14.215824 C4.03352381,14.182416 4.03809524,14.149008 4.0472381,14.1156 C4.05638095,14.086368 4.06095238,14.048784 4.07009524,14.019552 C4.0792381,13.986144 4.08380952,13.956912 4.09295238,13.92768 C4.10209524,13.890096 4.1112381,13.852512 4.12038095,13.814928 C4.12495238,13.789872 4.12952381,13.764816 4.13866667,13.73976 C4.14780952,13.698 4.15695238,13.652064 4.16609524,13.610304 C4.1752381,13.581072 4.18438095,13.55184 4.18895238,13.522608 C4.20266667,13.46832 4.21638095,13.414032 4.23009524,13.359744 C4.23466667,13.334688 4.2392381,13.317984 4.24380952,13.297104 C4.25295238,13.255344 4.26666667,13.213584 4.27580952,13.171824 C4.28038095,13.142592 4.28952381,13.117536 4.29409524,13.09248 C4.3032381,13.05072 4.31238095,13.013136 4.32152381,12.975552 C4.33066667,12.950496 4.3352381,12.921264 4.34438095,12.896208 C4.34895238,12.8628 4.36266667,12.82104 4.37180952,12.783456 C4.37638095,12.7584 4.38095238,12.729168 4.39009524,12.704112 C4.3992381,12.666528 4.40838095,12.624768 4.41752381,12.587184 C4.42666667,12.562128 4.4312381,12.537072 4.43580952,12.512016 C4.44952381,12.470256 4.45866667,12.432672 4.46780952,12.390912 C4.47238095,12.365856 4.48152381,12.3408 4.48609524,12.31992 C4.49980952,12.25728 4.51809524,12.19464 4.53180952,12.132 C4.55009524,12.077712 4.56380952,12.023424 4.57752381,11.96496 C4.58209524,11.948256 4.58666667,11.931552 4.5912381,11.910672 C4.60038095,11.873088 4.60952381,11.843856 4.61866667,11.802096 C4.6232381,11.781216 4.62780952,11.75616 4.63695238,11.73528 C4.64152381,11.701872 4.65066667,11.676816 4.65980952,11.643408 C4.66438095,11.614176 4.67352381,11.58912 4.67809524,11.564064 C4.6872381,11.539008 4.69638095,11.5056 4.70095238,11.480544 C4.71009524,11.455488 4.71466667,11.426256 4.7192381,11.4012 C4.72838095,11.367792 4.73752381,11.346912 4.74666667,11.313504 C4.7512381,11.288448 4.75580952,11.263392 4.76495238,11.238336 C4.77409524,11.209104 4.77866667,11.179872 4.78780952,11.15064 C4.79238095,11.125584 4.80152381,11.096352 4.80609524,11.075472 C4.8152381,11.050416 4.81980952,11.021184 4.82895238,11.000304 C4.84266667,10.94184 4.85638095,10.887552 4.87009524,10.833264 C4.8792381,10.808208 4.88380952,10.778976 4.89295238,10.75392 C4.89752381,10.728864 4.90666667,10.699632 4.91580952,10.6704 C4.92038095,10.645344 4.92495238,10.624464 4.93409524,10.599408 C4.9432381,10.566 4.95238095,10.532592 4.96152381,10.499184 C4.96609524,10.478304 4.97066667,10.4616 4.9752381,10.44072 C4.98438095,10.403136 4.99352381,10.369728 5.00266667,10.33632 C5.0072381,10.319616 5.01180952,10.298736 5.01638095,10.282032 C5.03009524,10.248624 5.0392381,10.21104 5.04838095,10.177632 C5.05295238,10.160928 5.05752381,10.140048 5.06209524,10.123344 C5.0712381,10.08576 5.08038095,10.048176 5.09409524,10.014768 C5.09409524,10.006416 5.09866667,9.993888 5.09866667,9.985536 C5.14895238,9.797616 5.20380952,9.609696 5.25409524,9.425952 C5.25866667,9.413424 5.25866667,9.409248 5.2632381,9.39672 C5.27238095,9.35496 5.28609524,9.3132 5.2952381,9.27144 C5.29980952,9.258912 5.29980952,9.254736 5.30438095,9.242208 C5.31809524,9.196272 5.33180952,9.154512 5.34095238,9.108576 C5.34552381,9.100224 5.34552381,9.1044 5.34552381,9.096048 C5.3592381,9.045936 5.37295238,9 5.38666667,8.954064 C5.38666667,8.949888 5.38666667,8.949888 5.38666667,8.945712 C6.1592381,6.214608 7.02780952,3.525264 7.97866667,0.881856 C6.65752381,4.548384 5.50552381,8.298432 4.53638095,12.132 C2.50666667,20.112336 1.34095238,28.096848 0.979809524,35.993664" id="path-12"></path>
        <linearGradient x1="5532.25602%" y1="-1674.85915%" x2="-5123.19392%" y2="529.553117%" id="linearGradient-14">
            <stop stop-color="#A6352B" offset="0%"></stop>
            <stop stop-color="#C05A2D" offset="100%"></stop>
        </linearGradient>
    </defs>
    <g id="Artboard" stroke="none" stroke-width="1" fill="none" fill-rule="evenodd">
        <g id="Group-4" transform="translate(15.000000, 214.000000)">
            <g id="Group-3" transform="translate(570.000000, 1290.000000)" fill="#272A29">
                <g id="Fill-31">
                    <path d="M30.571393,5.07079141 C28.6252928,12.9854114 26.8249359,20.0755918 25.093164,27.3071047 C-9.09647166,170.830258 -8.37632889,320.030267 27.4250549,460.467661 C35.7752818,493.20969 44.8285053,524.56195 53.4359261,556.809315 C71.0451316,622.835148 86.8025414,691.734741 98.6163122,767.324073 C110.755862,845.033393 107.978168,915.81742 88.2171076,981.631254 C76.146143,1021.84035 64.4266766,1062.94455 52.9644041,1104.49631 C38.7415842,1156.08267 27.7336875,1212.545 20.5836985,1274.49575 C4.20045032,1416.58202 12.8507368,1542.03817 52.9815503,1647.04822 C60.3201481,1666.22233 67.4101252,1686.1031 74.4229442,1706.19587 C93.7553485,1761.50399 110.918751,1821.42897 126.101762,1885.97081 C148.777686,1982.31246 151.786854,2079.43145 130.259729,2180.43707 C122.921131,2214.85154 116.439846,2250.7971 110.335779,2287.02533 C96.2072632,2370.97684 87.0254428,2459.52165 80.5784503,2550.02156 C78.4094488,2580.36094 76.9434439,2612.58475 83.5790452,2641.41658 C87.5912692,2658.84758 93.1037907,2669.82441 101.059654,2662.89912 C109.058382,2655.92671 112.341891,2638.51926 110.095731,2617.93183 C106.186384,2582.19826 110.215755,2549.33845 112.873425,2515.6071 C121.369395,2407.65262 136.878184,2307.21232 156.587806,2211.50667 C181.835669,2088.90072 179.006536,1969.52187 152.121206,1851.74479 C134.897791,1776.29679 115.02528,1706.80831 92.3150629,1643.32646 C82.5588429,1616.04929 72.6140141,1589.19611 63.3464624,1560.67051 C43.3196347,1499.09665 38.1157458,1427.06418 43.6625599,1346.88154 C49.5094334,1262.5296 64.2466409,1190.75624 83.2618394,1124.4713 C92.6665612,1091.70572 102.277038,1059.41124 111.758918,1026.81054 C138.129861,936.216411 141.06187,837.80188 124.610037,733.074498 C112.77912,657.72072 97.2789042,588.18513 79.7125643,522.04152 C68.8932764,481.314205 57.439577,441.788216 47.2204081,400.000907 C20.8666117,292.305542 24.227278,183.243963 47.8548196,76.7263688 C55.6392201,41.5581318 65.926974,9.68765307 83.8448122,14.1631822 C86.8711265,14.8934001 27.6736756,-10.5228944 30.571393,5.07079141 Z" id="Fill-26"></path>
                </g>
                <g id="Fill-31" transform="translate(93.500000, 3356.000000) scale(1, -1) translate(-93.500000, -3356.000000) translate(12.000000, 2572.000000)">
                    <path d="M40.8800128,6.01348309 C26.6379817,57.6410129 15.6152162,114.148405 8.45556945,176.148589 C-7.94980818,318.348251 0.712162531,443.904518 40.8971823,548.998366 C48.2456926,568.187777 55.3452464,588.084414 62.3675378,608.193219 C81.7260551,663.545474 98.9126412,723.518276 114.11616,788.111624 C136.822713,884.530161 139.835946,981.726647 118.279743,1082.81288 C110.931233,1117.25481 104.441193,1153.22906 98.328881,1189.4862 C84.1812817,1273.5047 74.9870591,1362.12017 68.5313584,1452.6923 C66.3594272,1483.05589 64.891442,1515.30542 71.5360063,1544.16026 C75.5536498,1561.60518 81.0736173,1572.59076 89.0402266,1565.65994 C97.0497595,1558.68197 100.337703,1541.26063 98.0885092,1520.65677 C94.1738822,1484.89468 98.2086951,1452.00865 100.869955,1418.25038 C109.377401,1310.20975 124.907138,1209.6893 144.643382,1113.90727 C169.925349,991.203482 167.092395,871.729363 140.170749,753.85829 C122.92407,678.350081 103.024716,608.806148 80.2838241,545.27364 C70.514426,517.9747 60.5561643,491.100095 51.2760946,462.551721 C31.222216,400.928725 26.011298,328.838777 31.5656043,248.59215 C37.4203754,164.172888 52.3577679,-35.5714313 40.8800128,6.01348309 Z" id="Fill-26"></path>
                </g>
            </g>
            <g id="Group-2">
                <ellipse id="Oval" fill="#FFF60F" cx="628.5" cy="653" rx="628.5" ry="653"></ellipse>
                <circle id="Oval" fill="#FFFFFF" cx="631" cy="610" r="577"></circle>
            </g>
        </g>
        <g id="Group-35" transform="translate(189.000000, 459.000000)">
            <path d="M327.185725,230 C318.799578,230 312,236.826328 312,245.250572 L312,299.753567 C312,308.173672 318.799578,315 327.185725,315 L750,315 L750,230 L327.185725,230" id="Fill-55" fill="#EAEAE3"></path>
            <path d="M336.026428,240 C329.384475,240 324,245.301433 324,251.84095 L324,294.15905 C324,300.698567 329.384475,306 336.026428,306 L741,306 L741,240 L336.026428,240" id="Fill-56" fill="#FFFFFE"></path>
            <g id="Group-59" transform="translate(749.000000, 230.000000)">
                <mask id="mask-2" fill="white">
                    <use xlink:href="#path-1"></use>
                </mask>
                <g id="Clip-58"></g>
                <path d="M71.0883445,0.333414044 L0.142130918,0.333414044 L0.142130918,84.851816 L71.0883445,84.851816 C79.5021162,84.851816 86.3274472,78.0641646 86.3274472,69.6917676 L86.3274472,15.4975787 C86.3274472,7.12106538 79.5021162,0.333414044 71.0883445,0.333414044" id="Fill-57" fill="url(#linearGradient-3)" mask="url(#mask-2)"></path>
            </g>
            <text id="search..." font-family="LucidaGrande, Lucida Grande" font-size="8.8181" font-weight="normal" fill="#787B78">
                <tspan x="348" y="248">sea</tspan>
                <tspan x="362.277744" y="248" letter-spacing="-0.2292706">r</tspan>
                <tspan x="365.656661" y="248">ch...</tspan>
            </text>
            <path d="M776.06145,263.955911 C776.06145,257.564388 781.052886,252.358661 787.190294,252.358661 C793.323668,252.358661 798.319139,257.564388 798.319139,263.955911 C798.319139,270.351639 793.323668,275.553161 787.190294,275.553161 C781.052886,275.553161 776.06145,270.351639 776.06145,263.955911 Z M814.774334,286.519669 L802.628641,273.858567 C804.339529,270.969766 805.380589,267.597397 805.380589,263.955911 C805.380589,253.506612 797.217553,245 787.190294,245 C777.163036,245 769,253.506612 769,263.955911 C769,274.409415 777.163036,282.911822 787.190294,282.911822 C790.168208,282.911822 792.944367,282.087652 795.425962,280.758888 L807.866219,293.722747 C809.50044,295.425751 812.15151,295.425751 813.785731,293.722747 L814.774334,292.688329 C816.408555,290.985325 816.408555,288.222673 814.774334,286.519669 Z" id="Fill-60" fill="#E3692B"></path>
            <path d="M574.492649,315 L548.437171,315 C549.120804,312.05255 549.718447,309.100959 550.225798,306.153509 L575,306.153509 C574.918308,309.09268 574.750624,312.04427 574.492649,315 M561.469209,238.846491 L546.773232,238.846491 C545.934813,235.870063 545.010402,232.918473 544,230 L557.152427,230 C558.683079,232.901914 560.127739,235.857644 561.469209,238.846491" id="Fill-65" fill="#C1C2BD"></path>
            <path d="M767,477.997946 C767,535.436882 720.437801,582 663,582 C605.562199,582 559,535.436882 559,477.997946 C559,420.559011 605.562199,374 663,374 C720.437801,374 767,420.559011 767,477.997946" id="Fill-67" fill="#FFFFFE"></path>
            <path d="M748,477.5 C748,524.721086 709.721086,563 662.5,563 C615.278914,563 577,524.721086 577,477.5 C577,430.283029 615.278914,392 662.5,392 C709.721086,392 748,430.283029 748,477.5" id="Fill-68" fill="#E98437"></path>
            <path d="M729,478.997957 C729,514.898633 699.897718,544 664,544 C628.102282,544 599,514.898633 599,478.997957 C599,443.101367 628.102282,414 664,414 C699.897718,414 729,443.101367 729,478.997957" id="Fill-69" fill="#FFFFFE"></path>
            <path d="M708,479 C708,503.302063 688.302063,523 664,523 C639.697937,523 620,503.302063 620,479 C620,454.702044 639.697937,435 664,435 C688.302063,435 708,454.702044 708,479" id="Fill-70" fill="#E98437"></path>
            <path d="M687,477.5 C687,489.926795 676.926795,500 664.5,500 C652.073205,500 642,489.926795 642,477.5 C642,465.073205 652.073205,455 664.5,455 C676.926795,455 687,465.073205 687,477.5" id="Fill-71" fill="#FFFFFE"></path>
            <polyline id="Fill-72" fill="#54251A" points="676.659909 473 670 464.98263 760.340091 390 767 398.01737 676.659909 473"></polyline>
            <polyline id="Fill-73" fill="#54251A" points="683 479.88833 662.477682 457 655 483 683 479.88833"></polyline>
            <polyline id="Fill-74" fill="#54251A" points="755 402.684758 755 383.833207 770.711482 363 773.000572 385.155635 797 389.78612 775.001525 405 755 402.684758"></polyline>
            <path d="M655.002028,149.816338 C640.228202,149.816338 628.252603,137.84074 628.252603,123.07097 C628.252603,108.297144 640.228202,96.3215452 655.002028,96.3215452 C669.771798,96.3215452 681.747397,108.297144 681.747397,123.07097 C681.747397,137.84074 669.771798,149.816338 655.002028,149.816338 Z M711.923635,115.475204 L697.786507,113.017631 C697.555349,112.040279 697.303914,111.071038 697.011926,110.118019 L707.989896,100.891982 C708.922638,100.105234 709.157851,98.7628965 708.545486,97.7084923 L703.464068,88.9731587 C702.847648,87.9187545 701.566141,87.4564388 700.422518,87.8782005 L686.926144,92.8744544 C686.321889,92.2377565 685.701413,91.6172801 685.060659,91.0170808 L690.028525,77.5085404 C690.450287,76.3649173 689.987971,75.0834107 688.933567,74.4710451 L680.186067,69.4058494 C679.127608,68.7975393 677.789325,69.0327525 677.006633,69.9695501 L667.764374,81.004296 C666.855965,80.7285287 665.931333,80.4892601 664.994536,80.2702684 L662.524796,66.0804207 C662.317971,64.880022 661.275733,64 660.055057,64 L649.944943,64 C648.728323,64 647.686084,64.880022 647.475204,66.0804207 L645.005464,80.2702684 C644.178163,80.4649277 643.358972,80.6758085 642.551947,80.9150772 L633.386741,69.8073341 C632.612159,68.8664811 631.273877,68.6191016 630.211362,69.2233564 L621.427364,74.2236657 C620.368904,74.823865 619.894422,76.1013163 620.308073,77.2489947 L625.174554,90.7940337 C624.529745,91.3901777 623.909269,92.0065986 623.300959,92.6392412 L609.837028,87.5456576 C608.69746,87.1157851 607.411898,87.5659346 606.791422,88.6162835 L601.645118,97.3151184 C601.024642,98.3654672 601.247689,99.7078049 602.176376,100.498608 L613.085404,109.809809 C612.756917,110.860157 612.468983,111.930783 612.217548,113.017631 L598.080421,115.475204 C596.875967,115.686084 596,116.728323 596,117.948998 L596,128.055057 C596,129.275733 596.875967,130.317971 598.080421,130.524796 L612.185105,132.982369 C612.412207,133.971887 612.663642,134.949239 612.959687,135.910369 L602.010104,145.112073 C601.077362,145.898821 600.846204,147.241159 601.45857,148.295563 L606.539987,157.030897 C607.152352,158.085301 608.433859,158.547617 609.577482,158.121799 L622.980582,153.162044 C623.601059,153.823075 624.241812,154.463828 624.902842,155.084304 L619.971475,168.495515 C619.549713,169.639138 620.012029,170.920645 621.070488,171.53301 L629.817988,176.594151 C630.872392,177.206516 632.21473,176.971303 632.997422,176.034505 L642.146407,165.109255 C643.091315,165.397189 644.056501,165.648624 645.029797,165.871671 L647.475204,179.923635 C647.686084,181.124033 648.728323,182 649.944943,182 L660.055057,182 C661.275733,182 662.317971,181.124033 662.524796,179.923635 L664.970203,165.871671 C665.838059,165.672956 666.693748,165.449909 667.541327,165.198474 L676.613259,176.196721 C677.387841,177.137574 678.730178,177.384954 679.788638,176.780699 L688.572636,171.78039 C689.635151,171.176135 690.105578,169.898684 689.691927,168.751005 L684.861945,155.311407 C685.52703,154.694986 686.171839,154.054232 686.796371,153.397257 L700.162972,158.458398 C701.30254,158.88827 702.588102,158.438121 703.208578,157.387772 L708.354882,148.688937 C708.975358,147.638588 708.752311,146.29625 707.823624,145.505447 L696.951095,136.222635 C697.283637,135.16012 697.56346,134.077328 697.81895,132.982369 L711.923635,130.524796 C713.124033,130.317971 714,129.275733 714,128.055057 L714,117.948998 C714,116.728323 713.124033,115.686084 711.923635,115.475204 Z" id="Fill-75" fill="#E98437"></path>
            <path d="M776,105.996669 C764.73126,105.996669 755.598834,97.0671849 755.598834,86.0488617 C755.598834,75.0346104 764.73126,66.101055 776,66.101055 C787.264575,66.101055 796.401166,75.0346104 796.401166,86.0488617 C796.401166,97.0671849 787.264575,105.996669 776,105.996669 Z M819.413381,80.3849713 L808.631871,78.5526559 C808.456968,77.8238016 808.265408,77.0990191 808.040533,76.3905238 L816.415047,69.5091616 C817.127152,68.9228207 817.306219,67.9211549 816.835647,67.1352952 L812.962798,60.6203961 C812.492227,59.8345364 811.517768,59.4925042 810.643254,59.8060337 L800.348973,63.5317416 C799.88673,63.0553396 799.416158,62.5952249 798.928928,62.1473256 L802.71849,52.069591 C803.039145,51.2185823 802.685175,50.2617065 801.881455,49.8056635 L795.205997,46.0310938 C794.402277,45.5750509 793.377846,45.7501388 792.782343,46.4464187 L785.736258,54.6796224 C785.040811,54.47196 784.337035,54.2928003 783.624931,54.1339996 L781.738479,43.5472885 C781.580233,42.6514899 780.784842,42 779.856191,42 L772.143809,42 C771.215158,42 770.419767,42.6514899 770.261521,43.5472885 L768.375069,54.1339996 C767.746252,54.276513 767.121599,54.4353137 766.505275,54.6144734 L759.51749,46.3283361 C758.926152,45.6279845 757.901721,45.4447529 757.093837,45.8926522 L750.393393,49.622432 C749.585508,50.0703313 749.223209,51.0231353 749.5397,51.8782158 L753.250139,61.9803813 C752.758745,62.4242088 752.284009,62.8843235 751.821766,63.3566537 L741.552471,59.5576532 C740.686285,59.23598 739.703498,59.5698686 739.228762,60.3557283 L735.305941,66.8421247 C734.831205,67.6239126 735.001943,68.6255784 735.709883,69.2159911 L744.030261,76.1625023 C743.7804,76.9442902 743.559689,77.7423654 743.368129,78.5526559 L732.586619,80.3849713 C731.670461,80.543772 731,81.3214881 731,82.2295021 L731,89.7664261 C731,90.6785119 731.670461,91.456228 732.586619,91.6109569 L743.343143,93.4392004 C743.518046,94.1761984 743.709606,94.9091246 743.934481,95.6257635 L735.584953,102.486767 C734.872848,103.073108 734.693781,104.074773 735.160189,104.860633 L739.037202,111.375532 C739.503609,112.161392 740.482232,112.507496 741.356746,112.189895 L751.576069,108.492689 C752.050805,108.985378 752.542199,109.46178 753.041921,109.925967 L749.28151,119.926337 C748.960855,120.777346 749.314825,121.734222 750.118545,122.190265 L756.789839,125.964834 C757.597723,126.420877 758.622154,126.245789 759.217657,125.54951 L766.192948,117.397742 C766.917546,117.613548 767.654636,117.800851 768.395891,117.971867 L770.261521,128.44864 C770.419767,129.344438 771.215158,130 772.143809,130 L779.856191,130 C780.784842,130 781.580233,129.344438 781.738479,128.44864 L783.604109,117.971867 C784.266241,117.82121 784.920044,117.654266 785.565519,117.466963 L792.48251,125.667592 C793.073848,126.372016 794.098279,126.555247 794.906163,126.103276 L801.606607,122.377568 C802.414492,121.925597 802.776791,120.972793 802.4603,120.117712 L798.774847,110.092911 C799.282898,109.632797 799.774292,109.156395 800.249028,108.667777 L810.443365,112.438275 C811.313715,112.759948 812.296502,112.42606 812.767074,111.644272 L816.694059,105.153803 C817.168795,104.372016 816.998057,103.37035 816.290117,102.779937 L807.994725,95.8578567 C808.248751,95.0679252 808.465297,94.2576346 808.656857,93.4392004 L819.413381,91.6109569 C820.329539,91.456228 821,90.6785119 821,89.7664261 L821,82.2295021 C821,81.3214881 820.329539,80.543772 819.413381,80.3849713 Z" id="Fill-76" fill="#FDF9CA"></path>
            <path d="M703.5,42.9076239 C696.113907,42.9076239 690.127581,36.9208889 690.127581,29.5342906 C690.127581,22.1476923 696.113907,16.1609573 703.5,16.1609573 C710.886093,16.1609573 716.872419,22.1476923 716.872419,29.5342906 C716.872419,36.9208889 710.886093,42.9076239 703.5,42.9076239 Z M731.959251,25.7381197 L724.891836,24.5076923 C724.778887,24.0195556 724.649802,23.535453 724.504581,23.0594188 L729.994735,18.4443077 C730.458635,18.0529915 730.575619,17.3792821 730.269041,16.8548376 L727.731711,12.485812 C727.425133,11.9573333 726.783741,11.7273846 726.210926,11.9371624 L719.462191,14.4343248 L718.530357,13.5064615 L721.015247,6.75323077 C721.22501,6.18037607 720.995077,5.53894017 720.466635,5.23234188 L716.08984,2.70290598 C715.565431,2.39630769 714.891768,2.51329915 714.500479,2.98126496 L709.881649,8.50003419 C709.425817,8.36287179 708.965951,8.24184615 708.498017,8.13292308 L707.26364,1.03678632 C707.158758,0.435692308 706.638384,0 706.025229,0 L700.974771,0 C700.361616,0 699.841242,0.435692308 699.73636,1.03678632 L698.501983,8.13292308 C698.090524,8.22974359 697.679065,8.33866667 697.275673,8.45565812 L692.693149,2.9005812 C692.305894,2.43261538 691.636264,2.30755556 691.107822,2.61011966 L686.714891,5.10728205 C686.182415,5.40984615 685.948448,6.05128205 686.154177,6.62413675 L688.586627,13.3935043 L687.650759,14.3173333 L680.918159,11.7717607 C680.349378,11.5539145 679.707986,11.7798291 679.397375,12.3042735 L676.823739,16.6571624 C676.513127,17.1816068 676.626077,17.8512821 677.089977,18.2466325 L682.543826,22.9061197 C682.378436,23.4305641 682.233215,23.9671111 682.108164,24.5076923 L675.040749,25.7381197 C674.439696,25.8430085 674,26.3634188 674,26.9725812 L674,32.0274188 C674,32.6365812 674.439696,33.1569915 675.040749,33.2618803 L682.092028,34.4882735 C682.204977,34.9844786 682.334063,35.4726154 682.479283,35.9526838 L677.005265,40.5556923 C676.537331,40.9470085 676.420347,41.6207179 676.726925,42.1451624 L679.268289,46.514188 C679.574867,47.0426667 680.216259,47.2726154 680.789074,47.0628376 L687.489402,44.581812 L688.449474,45.5419487 L685.984753,52.2467692 C685.77499,52.8196239 686.004923,53.4610598 686.533365,53.7676581 L690.906126,56.297094 C691.434569,56.6036923 692.108232,56.4867009 692.499521,56.018735 L697.073978,50.5524103 C697.545946,50.697641 698.025981,50.8227009 698.514085,50.9356581 L699.73636,57.9632137 C699.841242,58.5643077 700.361616,59 700.974771,59 L706.025229,59 C706.638384,59 707.158758,58.5643077 707.26364,57.9632137 L708.485915,50.9356581 C708.917544,50.8348034 709.345139,50.7258803 709.7687,50.6008205 L714.306851,56.0994188 C714.694106,56.5673846 715.363736,56.6924444 715.892178,56.3898803 L720.285109,53.8927179 C720.817585,53.5901538 721.051552,52.9487179 720.845823,52.3758632 L718.429509,45.654906 L719.397648,44.6988034 L726.081841,47.2282393 C726.650622,47.4460855 727.292014,47.2201709 727.602625,46.6957265 L730.176261,42.3428376 C730.486873,41.8183932 730.373923,41.1487179 729.910023,40.7533675 L724.47231,36.1100171 C724.641734,35.5815385 724.782921,35.0369231 724.907972,34.4882735 L731.959251,33.2618803 C732.560304,33.1569915 733,32.6365812 733,32.0274188 L733,26.9725812 C733,26.3634188 732.560304,25.8430085 731.959251,25.7381197 Z" id="Fill-77" fill="#F7C036"></path>
            <path d="M584.093649,153.661519 C578.41422,145.472673 575.233062,133.776106 575.241545,121.006001 C575.237303,97.837561 585.620605,71.3361607 609,55.4203409 L606.578078,52 C581.841389,68.8853325 571.004242,96.6849644 571,121.006001 C571.008483,134.441866 574.287197,146.883252 580.58165,156 L584.093649,153.661519" id="Fill-78" fill="#FDF9CA"></path>
            <polyline id="Fill-79" fill="#FDF9CA" points="609.511604 68 624 45.5344268 596 45 609.511604 68"></polyline>
            <path d="M837.613948,125 C842.510913,116.744048 844.995939,106.042496 845,94.5038596 C844.991879,69.4733891 833.224546,40.2574957 807.127703,24 L805,27.4919558 C829.663486,42.8056797 840.94762,70.7002925 840.939499,94.5038596 C840.943559,105.443406 838.547863,115.467904 834.130038,122.886772 L837.613948,125" id="Fill-80" fill="#FDF9CA"></path>
            <polyline id="Fill-81" fill="#FDF9CA" points="816 17 788 18.9322597 803.840889 40 816 17"></polyline>
            <path d="M515.840446,315 L333.987813,315 C325.845096,305.992062 318.49105,296.234841 312,285.898067 L312,245.250572 C312,236.826328 318.813125,230 327.215979,230 L510.381687,230 C511.624567,232.901914 512.760087,235.853504 513.78825,238.846491 L335.024234,238.846491 C328.372146,238.846491 322.979454,244.25291 322.979454,250.921931 L322.979454,294.078069 C322.979454,300.74709 328.372146,306.153509 335.024234,306.153509 L518,306.153509 C517.797671,307.134613 517.582954,308.111576 517.35585,309.09268 C516.893383,311.083865 516.389625,313.054352 515.840446,315" id="Fill-85" fill="#F0EED8"></path>
            <path d="M518.346819,306 L336.941407,306 C330.34641,306 325,300.698567 325,294.15905 L325,251.84095 C325,245.301433 330.34641,240 336.941407,240 L514.171215,240 C521.302491,260.580602 523.111919,283.243619 518.346819,306 Z M350.573525,284.254382 L484.647242,284.254382 L484.647242,257.767513 L350.573525,257.767513 L350.573525,284.254382 Z" id="Fill-86" fill="#FFFCEA"></path>
            <polygon id="Fill-87" fill="#FFFCEA" points="348 281 483 281 483 255 348 255"></polygon>
            <path d="M353.415905,279 C352.003878,279 350.198594,278.679325 348,278.037967 L348,274.959459 C350.369174,276.104038 352.316606,276.676319 353.842355,276.676319 C355.017465,276.676319 355.962751,276.355645 356.678242,275.714286 C357.393733,275.072927 357.751473,274.229306 357.751473,273.183398 C357.751473,272.324964 357.516928,271.594812 357.047831,270.992921 C356.578735,270.391031 355.713999,269.720081 354.453599,268.980051 L353.003671,268.106821 C351.212575,267.041179 349.949824,266.03722 349.21538,265.094916 C348.480936,264.152612 348.11372,263.054918 348.11372,261.801802 C348.11372,260.114535 348.701266,258.725767 349.876377,257.635457 C351.051487,256.545147 352.548783,256 354.368309,256 C355.988824,256 357.699342,256.281207 359.499915,256.843629 L359.499915,259.685328 C357.282367,258.777559 355.628709,258.323681 354.538888,258.323681 C353.505928,258.323681 352.653038,258.609821 351.980193,259.182111 C351.307347,259.7544 350.97093,260.474685 350.97093,261.342986 C350.97093,262.073148 351.21732,262.719431 351.710108,263.281853 C352.202897,263.844276 353.103169,264.515226 354.410954,265.294723 L355.917741,266.182754 C357.737267,267.258264 359.007125,268.274555 359.727354,269.23166 C360.447583,270.188765 360.807692,271.33826 360.807692,272.68018 C360.807692,274.584523 360.132488,276.113894 358.782058,277.26834 C357.431629,278.422786 355.642929,279 353.415905,279 Z M365.076923,279 L365.076923,257.4375 L377.251592,257.4375 L377.251592,259.724873 L368.168435,259.724873 L368.168435,266.64527 L375.779443,266.64527 L375.779443,268.903505 L368.168435,268.903505 L368.168435,276.712627 L377.884615,276.712627 L377.884615,279 L365.076923,279 Z M392.115385,270.375 L388.564737,261.75 L385,270.375 L392.115385,270.375 Z M395.936859,279 L393.60065,273.026605 L384.502493,273.026605 L382.137263,279 L379.307692,279 L387.825424,257.4375 L390.843633,257.4375 L399.230769,279 L395.936859,279 Z M402.076923,279 L402.076923,257.4375 L408.552383,257.4375 C410.604883,257.4375 412.177961,257.893999 413.271663,258.80701 C414.365366,259.720021 414.91221,261.045811 414.91221,262.784417 C414.91221,265.659432 413.471627,267.699107 410.590418,268.903505 L417.730769,279 L414.001598,279 L407.9164,269.879645 L405.083387,269.879645 L405.083387,279 L402.076923,279 Z M404.923077,267.5 L405.965849,267.5 C410.014278,267.5 412.038462,266.120191 412.038462,263.360532 C412.038462,261.328501 410.341418,260.3125 406.947281,260.3125 L404.923077,260.3125 L404.923077,267.5 Z M430.845865,279 C427.570042,279 425.039625,278.000975 423.254539,276.002896 C421.469453,274.004816 420.576923,271.175479 420.576923,267.514801 C420.576923,263.863989 421.486069,261.032185 423.304388,259.019305 C425.122707,257.006425 427.683983,256 430.988292,256 C432.877824,256 435.090159,256.320675 437.625361,256.962033 L437.625361,259.877735 C434.738838,258.841694 432.512262,258.323681 430.945564,258.323681 C428.657235,258.323681 426.886418,259.127834 425.63306,260.736165 C424.379701,262.344495 423.753031,264.613885 423.753031,267.544402 C423.753031,270.336779 424.422429,272.539567 425.761243,274.152831 C427.100058,275.766096 428.927845,276.572716 431.244659,276.572716 C433.238638,276.572716 435.375013,275.9363 437.653846,274.663449 L437.653846,277.327542 C435.574411,278.44252 433.305106,279 430.845865,279 Z M441.923077,279 L441.923077,257.4375 L445.113605,257.4375 L445.113605,266.528716 L455.809472,266.528716 L455.809472,257.4375 L459,257.4375 L459,279 L455.809472,279 L455.809472,268.81609 L445.113605,268.81609 L445.113605,279 L441.923077,279 Z" id="search" fill="#A0A292"></path>
            <g id="Group-89" transform="translate(441.000000, 255.000000)">
                <mask id="mask-5" fill="white">
                    <use xlink:href="#path-4"></use>
                </mask>
                <g id="Clip-88"></g>
                <text id="h" mask="url(#mask-5)" font-family="LucidaGrande, Lucida Grande" font-size="8.8181" font-weight="normal" fill="#A0A292">
                    <tspan x="0.20313828" y="-5.90137746">h</tspan>
                </text>
            </g>
            <g id="Group-95" transform="translate(314.000000, 379.000000)">
                <mask id="mask-7" fill="white">
                    <use xlink:href="#path-6"></use>
                </mask>
                <g id="Clip-94"></g>
                <path d="M48.9265934,22.8608403 C37.7249451,20.3907563 27.2267033,16.5677311 17.5782418,11.6121008 C11.4427473,8.46168067 5.65285714,4.85512605 0.245164835,0.850420168 C0.232967033,0.834957983 0.220769231,0.823361345 0.208571429,0.80789916 C7.57604396,6.26605042 15.6428571,10.9820168 24.3236264,14.8127731 C32.0651648,18.229916 40.2824176,20.9551261 48.9265934,22.8608403" id="Fill-93" fill="url(#linearGradient-8)" mask="url(#mask-7)"></path>
            </g>
            <g id="Group-98" transform="translate(268.000000, 218.000000)">
                <mask id="mask-10" fill="white">
                    <use xlink:href="#path-9"></use>
                </mask>
                <g id="Clip-97"></g>
                <path d="M49.0363736,159.660391 C17.931978,135.032961 -0.588351648,96.2919766 0.676153846,55.1704922 C-0.584285714,96.2713125 17.9197802,134.9875 48.9997802,159.61493 C49.011978,159.631461 49.0241758,159.643859 49.0363736,159.660391 M0.676153846,55.1704922 C0.684285714,54.9638516 0.688351648,54.7654766 0.696483516,54.5588359 C0.688351648,54.7613437 0.684285714,54.9638516 0.676153846,55.1704922 M7.0921978,18.6405625 C7.55571429,17.2271406 8.04362637,15.8219844 8.5478022,14.4333594 C10.3734066,9.45332031 12.4836264,4.63446094 14.8540659,0.00984375 C11.8208791,5.92803125 9.21868132,12.1479141 7.0921978,18.6405625" id="Fill-96" fill="url(#linearGradient-11)" mask="url(#mask-10)"></path>
            </g>
            <polyline id="Fill-99" fill="#E98437" points="217.024907 409 277 371.072542 260.975093 345 201 382.927458 217.024907 409"></polyline>
            <polyline id="Fill-100" fill="#EEA13A" points="234.271427 397 260 381.014155 243.728573 355 218 370.985845 234.271427 397"></polyline>
            <path d="M180.511323,367.387851 C187.813,362.785859 197.421973,365.035263 201.975312,372.419086 L229.638375,417.25858 C234.191713,424.638276 231.962007,434.35405 224.66033,438.951915 L77.2097531,531 L34,458.841598 L180.511323,367.387851" id="Fill-101" fill="#F7C036"></path>
            <path d="M7.34680429,473.637765 L32.7375699,458 L76,528.608223 L51.5496331,543.664417 C44.2390552,548.167544 34.6183674,545.962426 30.0594779,538.741268 L2.36269104,494.861022 C-2.19210975,487.643903 0.0362263637,478.136853 7.34680429,473.637765" id="Fill-102" fill="#EEA13A"></path>
            <path d="M229.610053,416.991213 L217.046693,397 L55,496.628002 L75.3576039,530 L224.572311,438.544815 C231.961551,433.976567 234.217997,424.323374 229.610053,416.991213" id="Fill-103" fill="#EEA13A"></path>
            <path d="M17,518.185845 L29.5303147,538.489753 C34.1413051,545.961124 43.8719422,548.242649 51.2660685,543.58349 L76,528.005599 L55.6289339,494 L17,518.185845" id="Fill-104" fill="#E98437"></path>
            <path d="M364.200296,402.282591 C295.62018,386.429551 252.919822,318.15601 268.822936,249.791833 C284.730184,181.427656 353.219377,138.857628 421.799492,154.714789 C490.379607,170.571949 533.079966,238.84549 517.176851,307.209667 C501.269604,375.573843 432.780411,418.139751 364.200296,402.282591 M238.144969,242.697515 C218.311537,327.952925 271.563,413.09298 357.083569,432.868083 C442.608271,452.639065 528.017254,399.555275 547.854819,314.303984 C567.688251,229.048574 514.44092,143.908519 428.916218,124.133417 C343.391516,104.358314 257.982534,157.442105 238.144969,242.697515 Z" id="Fill-105" fill="#F7C036"></path>
            <path d="M424.868404,197.309404 C430.670381,198.501078 437.616176,201.572404 444.549539,206.400527 C454.980664,213.616094 465.333049,224.68515 472.846609,237.961466 C480.393323,251.245971 485.142655,266.635358 485.134367,282.761863 C485.130223,293.769493 482.96277,305.162062 477.844597,316.816718 C475.10938,323.041271 477.997935,330.277313 484.29308,332.980079 C490.592369,335.682845 497.915293,332.82856 500.650511,326.608103 C507.136292,311.869837 510.008271,296.996432 509.999982,282.761863 C509.999982,268.830332 507.277197,255.521256 502.69778,243.342427 C495.814149,225.061899 484.823547,209.279383 472.108929,197.149695 C465.743331,191.088947 458.930153,185.933215 451.868318,181.870876 C444.798195,177.816727 437.479415,174.831398 430.003154,173.26707 C423.285293,171.866546 416.687617,176.113165 415.270277,182.751323 C413.852937,189.38948 418.150544,195.90888 424.868404,197.309404" id="Fill-106" fill="#FDF9CA"></path>
            <g id="Group-109" transform="translate(265.000000, 236.000000)">
                <mask id="mask-13" fill="white">
                    <use xlink:href="#path-12"></use>
                </mask>
                <g id="Clip-108"></g>
                <path d="M0.979809524,35.993664 C1.24952381,30.134736 1.95809524,24.2424 3.13295238,18.329184 C3.13295238,18.325008 3.13295238,18.320832 3.13295238,18.316656 C3.14666667,18.262368 3.15580952,18.203904 3.16952381,18.149616 L3.16952381,18.14544 C3.22895238,17.85312 3.28380952,17.569152 3.34780952,17.276832 C3.34780952,17.26848 3.34780952,17.26848 3.34780952,17.260128 C3.36152381,17.20584 3.37066667,17.159904 3.37980952,17.105616 C3.38438095,17.093088 3.38438095,17.084736 3.38895238,17.072208 C3.39809524,17.022096 3.4072381,16.980336 3.41638095,16.930224 C3.42095238,16.917696 3.42552381,16.896816 3.43009524,16.884288 C3.4392381,16.834176 3.44838095,16.78824 3.45752381,16.742304 C3.46209524,16.733952 3.46209524,16.717248 3.46666667,16.708896 C3.47580952,16.654608 3.48495238,16.612848 3.49866667,16.55856 C3.49866667,16.550208 3.49866667,16.541856 3.5032381,16.533504 C3.5352381,16.374816 3.57180952,16.216128 3.60838095,16.05744 C3.60838095,16.049088 3.61295238,16.028208 3.61295238,16.019856 C3.62209524,15.97392 3.6312381,15.940512 3.64038095,15.894576 C3.64952381,15.86952 3.64952381,15.852816 3.65866667,15.82776 C3.6632381,15.790176 3.67238095,15.748416 3.68152381,15.710832 C3.68609524,15.689952 3.6952381,15.66072 3.69980952,15.63984 C3.70438095,15.602256 3.71352381,15.564672 3.72266667,15.527088 C3.73180952,15.497856 3.73638095,15.476976 3.74095238,15.443568 C3.75009524,15.41016 3.7592381,15.376752 3.76380952,15.339168 C3.77295238,15.314112 3.77752381,15.28488 3.78209524,15.259824 C3.7912381,15.226416 3.80038095,15.184656 3.80952381,15.147072 C3.81409524,15.126192 3.81866667,15.109488 3.8232381,15.084432 C3.8552381,14.9508 3.8872381,14.812992 3.91466667,14.675184 C3.92380952,14.645952 3.92838095,14.625072 3.93752381,14.59584 C3.94209524,14.562432 3.9512381,14.524848 3.96038095,14.49144 C3.96495238,14.462208 3.97409524,14.432976 3.97866667,14.403744 C3.98780952,14.36616 3.99695238,14.336928 4.00609524,14.299344 C4.01066667,14.270112 4.0152381,14.245056 4.02438095,14.215824 C4.03352381,14.182416 4.03809524,14.149008 4.0472381,14.1156 C4.05638095,14.086368 4.06095238,14.048784 4.07009524,14.019552 C4.0792381,13.986144 4.08380952,13.956912 4.09295238,13.92768 C4.10209524,13.890096 4.1112381,13.852512 4.12038095,13.814928 C4.12495238,13.789872 4.12952381,13.764816 4.13866667,13.73976 C4.14780952,13.698 4.15695238,13.652064 4.16609524,13.610304 C4.1752381,13.581072 4.18438095,13.55184 4.18895238,13.522608 C4.20266667,13.46832 4.21638095,13.414032 4.23009524,13.359744 C4.23466667,13.334688 4.2392381,13.317984 4.24380952,13.297104 C4.25295238,13.255344 4.26666667,13.213584 4.27580952,13.171824 C4.28038095,13.142592 4.28952381,13.117536 4.29409524,13.09248 C4.3032381,13.05072 4.31238095,13.013136 4.32152381,12.975552 C4.33066667,12.950496 4.3352381,12.921264 4.34438095,12.896208 C4.34895238,12.8628 4.36266667,12.82104 4.37180952,12.783456 C4.37638095,12.7584 4.38095238,12.729168 4.39009524,12.704112 C4.3992381,12.666528 4.40838095,12.624768 4.41752381,12.587184 C4.42666667,12.562128 4.4312381,12.537072 4.43580952,12.512016 C4.44952381,12.470256 4.45866667,12.432672 4.46780952,12.390912 C4.47238095,12.365856 4.48152381,12.3408 4.48609524,12.31992 C4.49980952,12.25728 4.51809524,12.19464 4.53180952,12.132 C4.55009524,12.077712 4.56380952,12.023424 4.57752381,11.96496 C4.58209524,11.948256 4.58666667,11.931552 4.5912381,11.910672 C4.60038095,11.873088 4.60952381,11.843856 4.61866667,11.802096 C4.6232381,11.781216 4.62780952,11.75616 4.63695238,11.73528 C4.64152381,11.701872 4.65066667,11.676816 4.65980952,11.643408 C4.66438095,11.614176 4.67352381,11.58912 4.67809524,11.564064 C4.6872381,11.539008 4.69638095,11.5056 4.70095238,11.480544 C4.71009524,11.455488 4.71466667,11.426256 4.7192381,11.4012 C4.72838095,11.367792 4.73752381,11.346912 4.74666667,11.313504 C4.7512381,11.288448 4.75580952,11.263392 4.76495238,11.238336 C4.77409524,11.209104 4.77866667,11.179872 4.78780952,11.15064 C4.79238095,11.125584 4.80152381,11.096352 4.80609524,11.075472 C4.8152381,11.050416 4.81980952,11.021184 4.82895238,11.000304 C4.84266667,10.94184 4.85638095,10.887552 4.87009524,10.833264 C4.8792381,10.808208 4.88380952,10.778976 4.89295238,10.75392 C4.89752381,10.728864 4.90666667,10.699632 4.91580952,10.6704 C4.92038095,10.645344 4.92495238,10.624464 4.93409524,10.599408 C4.9432381,10.566 4.95238095,10.532592 4.96152381,10.499184 C4.96609524,10.478304 4.97066667,10.4616 4.9752381,10.44072 C4.98438095,10.403136 4.99352381,10.369728 5.00266667,10.33632 C5.0072381,10.319616 5.01180952,10.298736 5.01638095,10.282032 C5.03009524,10.248624 5.0392381,10.21104 5.04838095,10.177632 C5.05295238,10.160928 5.05752381,10.140048 5.06209524,10.123344 C5.0712381,10.08576 5.08038095,10.048176 5.09409524,10.014768 C5.09409524,10.006416 5.09866667,9.993888 5.09866667,9.985536 C5.14895238,9.797616 5.20380952,9.609696 5.25409524,9.425952 C5.25866667,9.413424 5.25866667,9.409248 5.2632381,9.39672 C5.27238095,9.35496 5.28609524,9.3132 5.2952381,9.27144 C5.29980952,9.258912 5.29980952,9.254736 5.30438095,9.242208 C5.31809524,9.196272 5.33180952,9.154512 5.34095238,9.108576 C5.34552381,9.100224 5.34552381,9.1044 5.34552381,9.096048 C5.3592381,9.045936 5.37295238,9 5.38666667,8.954064 C5.38666667,8.949888 5.38666667,8.949888 5.38666667,8.945712 C6.1592381,6.214608 7.02780952,3.525264 7.97866667,0.881856 C6.65752381,4.548384 5.50552381,8.298432 4.53638095,12.132 C2.50666667,20.112336 1.34095238,28.096848 0.979809524,35.993664" id="Fill-107" fill="url(#linearGradient-14)" mask="url(#mask-13)"></path>
            </g>
            <path d="M333,312 L326.532394,312 C318.507042,312 312,305.432148 312,297.330868 L312,284 C318.199437,293.945377 325.223099,303.333144 333,312" id="Fill-113" fill="#F1E8BD"></path>
            <path d="M282,219 C282.643609,217.646617 283.308271,216.313283 284,215 C283.308271,216.313283 282.643609,217.646617 282,219" id="Fill-117" fill="#F7C036"></path>
            <path d="M365.10729,401.65382 C356.394662,399.644342 348.112338,396.770748 340.309495,393.167546 C287.214099,368.64621 256.781373,309.755873 270.534703,250.784016 C273.489456,238.099441 278.280172,226.315667 284.55851,215.640571 C281.329182,200.995431 279.628457,186.007906 279.591574,171 C260.727873,190.638264 246.728655,215.387858 240.110172,243.765109 C220.443238,328.114267 273.247666,412.349297 358.050307,431.914193 C423.907285,447.101443 489.674104,418.813864 525,365.919353 C508.443548,370.533407 492.42395,373.027932 477.035466,373.651563 C447.475641,399.416085 406.318103,411.163175 365.10729,401.65382" id="Fill-118" fill="#E98437"></path>
            <path d="M363.448763,402.094907 C295.464959,386.33001 253.135885,318.436072 268.904817,250.452003 C284.673749,182.467934 352.567421,140.138694 420.551225,155.903591 C488.535029,171.672585 530.864104,239.566522 515.095172,307.550591 C499.330336,375.534661 431.436664,417.8639 363.448763,402.094907 Z M422.947906,145.571192 C349.257134,128.482994 275.664687,174.364252 258.572459,248.055313 C241.480231,321.746373 287.365406,395.339108 361.056179,412.427305 C434.742855,429.5196 508.335302,383.638342 525.42753,309.947282 C542.519758,236.256221 496.634582,162.663487 422.947906,145.571192 Z" id="Fill-119" fill="#EEA13A"></path>
        </g>
    </g>
</svg>