<?xml version="1.0" encoding="UTF-8"?>
<svg width="488px" height="96px" viewBox="0 0 488 96" version="1.1" xmlns="http://www.w3.org/2000/svg" xmlns:xlink="http://www.w3.org/1999/xlink">
    <!-- Generator: Sketch 52.3 (67297) - http://www.bohemiancoding.com/sketch -->
    <title>Group 27</title>
    <desc>Created with Sketch.</desc>
    <defs>
        <circle id="path-1" cx="43.2254309" cy="42.8229572" r="42.5"></circle>
    </defs>
    <g id="Page-1" stroke="none" stroke-width="1" fill="none" fill-rule="evenodd">
        <g id="Artboard" transform="translate(-1617.000000, -736.000000)">
            <g id="Group-27" transform="translate(1617.000000, 736.000000)">
                <path d="M467.862013,48.2422864 L298.02831,48.2422864" id="Line-2" stroke="#FFF60F" stroke-width="5" stroke-linecap="square" transform="translate(383.000000, 48.188172) scale(-1, 1) translate(-383.000000, -48.188172) "></path>
                <g id="Group-2">
                    <rect id="Rectangle" fill="#FFF60F" x="0" y="1.42108547e-14" width="378" height="96" rx="48"></rect>
                    <g id="profile" transform="translate(3.274569, 4.677043)">
                        <mask id="mask-2" fill="white">
                            <use xlink:href="#path-1"></use>
                        </mask>
                        <use id="Mask" fill="#FFFFFF" xlink:href="#path-1"></use>
                    </g>
                </g>
                <g id="keyword" transform="translate(17.000000, 18.000000)">
                    <rect id="Rectangle" fill="#57A4FF" x="2.82644628" y="12.2479339" width="51.3471074" height="36.2727273" rx="18.1363636"></rect>
                    <polygon id="Path" fill="#FFDAAA" points="6.59504132 16.4876033 50.4049587 16.4876033 50.4049587 44.7520661 6.59504132 44.7520661"></polygon>
                    <path d="M23.0826446,44.7520661 L50.4049587,44.7520661 L50.4049587,16.4876033 C50.4049587,32.110314 38.1843471,44.7520661 23.0826446,44.7520661 Z" id="Path" fill="#FFC477"></path>
                    <path d="M0.94214876,48.5206612 L56.0578512,48.5206612 L56.0578512,52.2892562 C56.0578512,54.3705938 54.3560484,56.0578512 52.2567683,56.0578512 L4.74323169,56.0578512 C2.64395156,56.0578512 0.94214876,54.3705938 0.94214876,52.2892562 L0.94214876,48.5206612 Z" id="Path" fill="#006DF0"></path>
                    <path d="M50.4049587,12.2479339 L48.5206612,12.2479339 C50.6019987,12.2479339 52.2892562,13.9573921 52.2892562,16.0661157 L52.2892562,44.7024793 C52.2892562,46.8112029 50.6019987,48.5206612 48.5206612,48.5206612 L50.4049587,48.5206612 C52.4862962,48.5206612 54.1735537,46.8112029 54.1735537,44.7024793 L54.1735537,16.0661157 C54.1735537,13.9573921 52.4862962,12.2479339 50.4049587,12.2479339 Z" id="Path" fill="#2488FF"></path>
                    <path d="M54.1735537,48.5206612 L54.1735537,52.2892562 C54.1735537,54.3705938 52.4862962,56.0578512 50.4049587,56.0578512 L52.2892562,56.0578512 C54.3705938,56.0578512 56.0578512,54.3705938 56.0578512,52.2892562 L56.0578512,48.5206612 L54.1735537,48.5206612 Z" id="Path" fill="#005ECE"></path>
                    <path d="M25.9090909,52.2892562 L31.5619835,52.2892562 C32.6026523,52.2892562 33.446281,51.4456275 33.446281,50.4049587 L33.446281,48.5206612 L24.0247934,48.5206612 L24.0247934,50.4049587 C24.0247934,51.4456275 24.8684221,52.2892562 25.9090909,52.2892562 Z" id="Path" fill="#FFCD00"></path>
                    <path d="M36.1538159,29.5109751 C28.8304527,33.7353522 19.4685571,31.2248714 15.2424569,23.9033965 C11.0163568,16.5819217 13.5260831,7.22141404 20.8483501,2.99513795 C28.1706172,-1.23113814 37.5331638,1.27691481 41.7611631,8.59729348 C45.9816493,15.9215483 43.4726126,25.2794843 36.1538159,29.5109751 Z" id="Path" fill="#FF9811"></path>
                    <path d="M33.9212338,25.806123 C29.9612301,28.0936757 25.0130405,27.7704715 21.3842898,24.9872391 C17.7555391,22.2040067 16.1609597,17.508942 17.3441954,13.0916232 C18.5274312,8.67430442 22.2554276,5.40478318 26.7896059,4.8078249 C31.3237843,4.21086661 35.7710757,6.40405043 38.0574531,10.3645689 C41.1729132,15.77163 39.3223995,22.6800665 33.9212338,25.806123 Z" id="Path" fill="#FFCD00"></path>
                    <path d="M41.2094826,34.3897114 L37.9183124,36.2765721 L36.2727273,37.2200025 L42.8417663,48.5175813 C43.8912558,50.3224322 46.2154806,50.9407986 48.0331503,49.8987634 C49.8507738,48.8566488 50.4735163,46.5487565 49.4241068,44.7438598 L42.8550678,33.446281 L41.2094826,34.3897114 Z" id="Path" fill="#004FAC"></path>
                    <polygon id="Path" fill="#5EAC24" points="32.5041322 11.3057851 35.3305785 11.3057851 35.3305785 20.7272727 32.5041322 20.7272727"></polygon>
                    <polygon id="Path" fill="#006DF0" points="26.3801653 14.1322314 29.2066116 14.1322314 29.2066116 20.7272727 26.3801653 20.7272727"></polygon>
                    <polygon id="Path" fill="#ED1C24" points="20.7272727 16.9586777 23.553719 16.9586777 23.553719 20.7272727 20.7272727 20.7272727"></polygon>
                    <path d="M37.5413553,28.3198358 C36.6006894,29.0236346 35.5727621,29.6069642 34.4823227,30.0557798 L34.3884298,30.1102299 L37.731019,35.8016529 L40.9834711,33.9558858 L37.6408818,28.2644628 L37.5413553,28.3198358 Z" id="Path" fill="#FF5023"></path>
                    <path d="M18.1275151,22.1397247 C20.604245,26.4299248 25.4215189,28.8057628 30.3330359,28.1593826 C35.2445529,27.5130023 39.2830666,23.9716981 40.5654131,19.1867847 C41.8477595,14.4018713 40.1214007,9.31566237 36.1913398,6.29986349 C32.2612789,3.28406461 26.9014799,2.93259017 22.6112239,5.40933313 C16.7566261,8.79396326 14.7501041,16.281046 18.1275151,22.1397247 Z M23.5533774,7.04110688 C27.1834775,4.94514619 31.7187435,5.24226363 35.0443528,7.79391149 C38.369962,10.3455593 39.8309791,14.6492238 38.7461225,18.6980794 C37.661266,22.7469349 34.2441843,25.7436122 30.0882838,26.290742 C25.9323834,26.8378717 21.8561147,24.8277038 19.7602672,21.1975921 C18.368002,18.8215069 17.9855191,15.9867607 18.6982691,13.3266654 C19.4110191,10.6665701 21.1596061,8.40280066 23.5533774,7.04110688 Z" id="Shape" fill="#000000" fill-rule="nonzero"></path>
                    <path d="M56.05,47.501591 L54.1253,47.501591 C54.7540163,46.6843585 55.096507,45.6830914 55.1,44.6520683 L55.1,16.1568413 C55.0968592,13.5352299 52.9720505,11.410777 50.35,11.4076368 L43.92325,11.4076368 C41.8520703,4.62974656 35.5954938,4.21814095e-16 28.507125,0 C21.4187562,-4.21814095e-16 15.1621797,4.62974656 13.091,11.4076368 L6.65,11.4076368 C4.02794951,11.410777 1.90314081,13.5352299 1.9,16.1568413 L1.9,44.6520683 C1.90349298,45.6830914 2.24598367,46.6843585 2.8747,47.501591 L0.95,47.501591 C0.425329488,47.501591 0,47.9268492 0,48.4514319 L0,52.2507955 C0.00314081052,54.8724069 2.12794951,56.9968597 4.75,57 L52.25,57 C54.8720505,56.9968597 56.9968592,54.8724069 57,52.2507955 L57,48.4514319 C57,47.9268492 56.5746705,47.501591 56.05,47.501591 Z M50.35,13.3073186 C51.9240115,13.3073186 53.2,14.5830933 53.2,16.1568413 L53.2,44.6520683 C53.1952854,46.1190558 52.075274,47.3417289 50.6141,47.4749954 C50.7535918,46.8399019 50.7607064,46.182883 50.635,45.5449187 C51.0281627,45.4248155 51.2975732,45.0630964 51.3,44.6520683 L51.3,16.1568413 C51.3,15.6322586 50.8746705,15.2070004 50.35,15.2070004 L44.60345,15.2070004 C44.5661057,14.5698727 44.4909232,13.9355272 44.3783,13.3073186 L50.35,13.3073186 Z M12.39655,17.1066822 C12.7834762,24.0539715 17.5948918,29.9646093 24.32,31.7541787 C25.6915415,32.122625 27.1054657,32.3097542 28.52565,32.3107855 C30.3857857,32.3086557 32.2312297,31.9814175 33.97865,31.3438474 L36.48,35.6789213 L35.65825,36.1538417 C35.2038952,36.4161407 35.0482271,36.9970342 35.31055,37.4513244 L38.9215,43.7022274 L7.6,43.7022274 L7.6,17.1066822 L12.39655,17.1066822 Z M37.37395,29.6246354 L39.7727,33.7782897 L38.1273,34.7281306 L35.7371,30.5887239 C36.0221,30.4471976 36.2995,30.3037716 36.575,30.1413488 C36.8505,29.9789261 37.1089,29.7984563 37.37395,29.6246354 Z M37.4319,37.3240457 L39.9019,35.8992844 L41.5473,34.9494435 L42.3681,34.474523 L48.4576,45.017757 L48.4576,45.0225062 C49.2446057,46.3864211 48.7767433,48.1299799 47.4126,48.9168539 C46.0484567,49.7037279 44.3046058,49.2359438 43.5176,47.8720289 L37.4319,37.3240457 Z M43.5385,32.7011701 C43.2761571,32.2468914 42.6951663,32.0912494 42.2408,32.3535283 L41.4181,32.8284488 L38.90915,28.4848263 C42.2845938,25.630384 44.3442928,21.5188834 44.60915,17.1066822 L49.4,17.1066822 L49.4,42.8530696 L43.5385,32.7011701 Z M21.375,3.81840796 C23.5323218,2.56553876 25.9823573,1.90463801 28.4772,1.90257886 C29.7302886,1.9037712 30.9778152,2.06918609 32.1879,2.39459645 C37.754985,3.88609299 41.875329,8.58364361 42.6276802,14.2968542 C43.3800314,20.0100648 40.6162327,25.6138586 35.625,28.4952746 C31.2136216,31.0809938 25.7547451,31.1051995 21.3206018,28.5587029 C16.8864585,26.0122064 14.1569334,21.2854606 14.168175,16.1727744 C14.1794166,11.0600882 16.9297013,6.34538722 21.375,3.81840796 Z M3.8,16.1568413 C3.8,14.5830933 5.07598846,13.3073186 6.65,13.3073186 L12.61885,13.3073186 C12.5054596,13.9355269 12.4290117,14.5698429 12.3899,15.2070004 L6.65,15.2070004 C6.12532949,15.2070004 5.7,15.6322586 5.7,16.1568413 L5.7,44.6520683 C5.7,45.1766509 6.12532949,45.6019092 6.65,45.6019092 L40.0178,45.6019092 L41.11505,47.501591 L6.65,47.501591 C5.07598846,47.501591 3.8,46.2258162 3.8,44.6520683 L3.8,16.1568413 Z M32.3,49.4012728 L32.3,50.3511137 C32.3,50.8756963 31.8746705,51.3009546 31.35,51.3009546 L25.65,51.3009546 C25.1253295,51.3009546 24.7,50.8756963 24.7,50.3511137 L24.7,49.4012728 L32.3,49.4012728 Z M55.1,52.2507955 C55.1,53.8245434 53.8240115,55.1003182 52.25,55.1003182 L4.75,55.1003182 C3.17598846,55.1003182 1.9,53.8245434 1.9,52.2507955 L1.9,49.4012728 L22.8,49.4012728 L22.8,50.3511137 C22.8,51.9248616 24.0759885,53.2006364 25.65,53.2006364 L31.35,53.2006364 C32.9240115,53.2006364 34.2,51.9248616 34.2,50.3511137 L34.2,49.4012728 L42.275,49.4012728 C43.1702423,50.5417894 44.5399154,51.2078594 45.989975,51.2078594 C47.4400346,51.2078594 48.8097077,50.5417894 49.70495,49.4012728 L55.1,49.4012728 L55.1,52.2507955 Z" id="Shape" fill="#000000" fill-rule="nonzero"></path>
                    <path d="M32.5041322,21.6694215 L35.3305785,21.6694215 C35.8509129,21.6694215 36.2727273,21.2476071 36.2727273,20.7272727 L36.2727273,11.3057851 C36.2727273,10.7854507 35.8509129,10.3636364 35.3305785,10.3636364 L32.5041322,10.3636364 C31.9837978,10.3636364 31.5619835,10.7854507 31.5619835,11.3057851 L31.5619835,20.7272727 C31.5619835,21.2476071 31.9837978,21.6694215 32.5041322,21.6694215 Z M33.446281,12.2479339 L34.3884298,12.2479339 L34.3884298,19.785124 L33.446281,19.785124 L33.446281,12.2479339 Z" id="Shape" fill="#000000" fill-rule="nonzero"></path>
                    <path d="M26.3801653,21.6694215 L29.2066116,21.6694215 C29.726946,21.6694215 30.1487603,21.2476071 30.1487603,20.7272727 L30.1487603,14.1322314 C30.1487603,13.611897 29.726946,13.1900826 29.2066116,13.1900826 L26.3801653,13.1900826 C25.8598309,13.1900826 25.4380165,13.611897 25.4380165,14.1322314 L25.4380165,20.7272727 C25.4380165,21.2476071 25.8598309,21.6694215 26.3801653,21.6694215 Z M27.322314,15.0743802 L28.2644628,15.0743802 L28.2644628,19.785124 L27.322314,19.785124 L27.322314,15.0743802 Z" id="Shape" fill="#000000" fill-rule="nonzero"></path>
                    <path d="M20.7272727,21.6694215 L23.553719,21.6694215 C24.0740534,21.6694215 24.4958678,21.2476071 24.4958678,20.7272727 L24.4958678,16.9586777 C24.4958678,16.4383433 24.0740534,16.0165289 23.553719,16.0165289 L20.7272727,16.0165289 C20.2069383,16.0165289 19.785124,16.4383433 19.785124,16.9586777 L19.785124,20.7272727 C19.785124,21.2476071 20.2069383,21.6694215 20.7272727,21.6694215 Z M21.6694215,17.9008264 L22.6115702,17.9008264 L22.6115702,19.785124 L21.6694215,19.785124 L21.6694215,17.9008264 Z" id="Shape" fill="#000000" fill-rule="nonzero"></path>
                    <path d="M12.2479339,38.1570248 L14.1322314,38.1570248 C14.6525658,38.1570248 15.0743802,37.7352104 15.0743802,37.214876 C15.0743802,36.6945416 14.6525658,36.2727273 14.1322314,36.2727273 L12.2479339,36.2727273 C11.7275995,36.2727273 11.3057851,36.6945416 11.3057851,37.214876 C11.3057851,37.7352104 11.7275995,38.1570248 12.2479339,38.1570248 Z" id="Path" fill="#000000"></path>
                    <path d="M17.9008264,38.1570248 L32.0330579,38.1570248 C32.5533922,38.1570248 32.9752066,37.7352104 32.9752066,37.214876 C32.9752066,36.6945416 32.5533922,36.2727273 32.0330579,36.2727273 L17.9008264,36.2727273 C17.3804921,36.2727273 16.9586777,36.6945416 16.9586777,37.214876 C16.9586777,37.7352104 17.3804921,38.1570248 17.9008264,38.1570248 Z" id="Path" fill="#000000"></path>
                    <path d="M12.2479339,34.3884298 L14.1322314,34.3884298 C14.6525658,34.3884298 15.0743802,33.9666154 15.0743802,33.446281 C15.0743802,32.9259466 14.6525658,32.5041322 14.1322314,32.5041322 L12.2479339,32.5041322 C11.7275995,32.5041322 11.3057851,32.9259466 11.3057851,33.446281 C11.3057851,33.9666154 11.7275995,34.3884298 12.2479339,34.3884298 Z" id="Path" fill="#000000"></path>
                    <path d="M17.9008264,34.3884298 L21.6694215,34.3884298 C22.1897559,34.3884298 22.6115702,33.9666154 22.6115702,33.446281 C22.6115702,32.9259466 22.1897559,32.5041322 21.6694215,32.5041322 L17.9008264,32.5041322 C17.3804921,32.5041322 16.9586777,32.9259466 16.9586777,33.446281 C16.9586777,33.9666154 17.3804921,34.3884298 17.9008264,34.3884298 Z" id="Path" fill="#000000"></path>
                    <path d="M12.2479339,41.9256198 L14.1322314,41.9256198 C14.6525658,41.9256198 15.0743802,41.5038055 15.0743802,40.9834711 C15.0743802,40.4631367 14.6525658,40.0413223 14.1322314,40.0413223 L12.2479339,40.0413223 C11.7275995,40.0413223 11.3057851,40.4631367 11.3057851,40.9834711 C11.3057851,41.5038055 11.7275995,41.9256198 12.2479339,41.9256198 Z" id="Path" fill="#000000"></path>
                    <path d="M17.9008264,41.9256198 L32.0330579,41.9256198 C32.5533922,41.9256198 32.9752066,41.5038055 32.9752066,40.9834711 C32.9752066,40.4631367 32.5533922,40.0413223 32.0330579,40.0413223 L17.9008264,40.0413223 C17.3804921,40.0413223 16.9586777,40.4631367 16.9586777,40.9834711 C16.9586777,41.5038055 17.3804921,41.9256198 17.9008264,41.9256198 Z" id="Path" fill="#000000"></path>
                </g>
                <circle id="Oval" fill="#FFF60F" transform="translate(478.500000, 48.500000) scale(-1, 1) translate(-478.500000, -48.500000) " cx="478.5" cy="48.5" r="9.5"></circle>
            </g>
        </g>
    </g>
</svg>