<?xml version="1.0" encoding="UTF-8"?>
<svg width="99px" height="99px" viewBox="0 0 99 99" version="1.1" xmlns="http://www.w3.org/2000/svg" xmlns:xlink="http://www.w3.org/1999/xlink">
    <!-- Generator: Sketch 52.3 (67297) - http://www.bohemiancoding.com/sketch -->
    <title>Group 12</title>
    <desc>Created with Sketch.</desc>
    <defs>
        <filter x="-18.8%" y="-18.8%" width="137.6%" height="137.6%" filterUnits="objectBoundingBox" id="filter-1">
            <feOffset dx="0" dy="2" in="SourceAlpha" result="shadowOffsetOuter1"></feOffset>
            <feGaussianBlur stdDeviation="2" in="shadowOffsetOuter1" result="shadowBlurOuter1"></feGaussianBlur>
            <feColorMatrix values="0 0 0 0 0   0 0 0 0 0   0 0 0 0 0  0 0 0 0.5 0" type="matrix" in="shadowBlurOuter1" result="shadowMatrixOuter1"></feColorMatrix>
            <feMerge>
                <feMergeNode in="shadowMatrixOuter1"></feMergeNode>
                <feMergeNode in="SourceGraphic"></feMergeNode>
            </feMerge>
        </filter>
        <circle id="path-2" cx="42.5" cy="42.5" r="42.5"></circle>
        <filter x="-7.1%" y="-7.1%" width="114.1%" height="114.1%" filterUnits="objectBoundingBox" id="filter-4">
            <feOffset dx="0" dy="0" in="SourceAlpha" result="shadowOffsetOuter1"></feOffset>
            <feGaussianBlur stdDeviation="2" in="shadowOffsetOuter1" result="shadowBlurOuter1"></feGaussianBlur>
            <feColorMatrix values="0 0 0 0 0   0 0 0 0 0   0 0 0 0 0  0 0 0 0.5 0" type="matrix" in="shadowBlurOuter1"></feColorMatrix>
        </filter>
        <filter x="-14.8%" y="-14.8%" width="129.6%" height="129.6%" filterUnits="objectBoundingBox" id="filter-5">
            <feOffset dx="0" dy="0" in="SourceAlpha" result="shadowOffsetOuter1"></feOffset>
            <feGaussianBlur stdDeviation="2" in="shadowOffsetOuter1" result="shadowBlurOuter1"></feGaussianBlur>
            <feColorMatrix values="0 0 0 0 0   0 0 0 0 0   0 0 0 0 0  0 0 0 0.5 0" type="matrix" in="shadowBlurOuter1" result="shadowMatrixOuter1"></feColorMatrix>
            <feMerge>
                <feMergeNode in="shadowMatrixOuter1"></feMergeNode>
                <feMergeNode in="SourceGraphic"></feMergeNode>
            </feMerge>
        </filter>
    </defs>
    <g id="Page-1" stroke="none" stroke-width="1" fill="none" fill-rule="evenodd">
        <g id="Artboard" transform="translate(-195.000000, -99.000000)">
            <g id="Group-12" transform="translate(202.000000, 104.000000)">
                <g id="Group-11">
                    <g id="Group-10">
                        <g id="Group-5">
                            <g id="Group">
                                <g id="Group-2" filter="url(#filter-1)">
                                    <mask id="mask-3" fill="white">
                                        <use xlink:href="#path-2"></use>
                                    </mask>
                                    <g id="Mask">
                                        <use fill="black" fill-opacity="1" filter="url(#filter-4)" xlink:href="#path-2"></use>
                                        <use fill="#FFFFFF" fill-rule="evenodd" xlink:href="#path-2"></use>
                                    </g>
                                </g>
                            </g>
                        </g>
                    </g>
                </g>
                <g id="webompt" filter="url(#filter-5)" transform="translate(17.000000, 14.000000)">
                    <path d="M47.7,13.5 L6.3,13.5 C4.3117749,13.5 2.7,15.1117749 2.7,17.1 L2.7,42.3 C2.7,44.2882251 4.3117749,45.9 6.3,45.9 L47.7,45.9 C49.6882251,45.9 51.3,44.2882251 51.3,42.3 L51.3,17.1 C51.3,15.1117749 49.6882251,13.5 47.7,13.5 Z" id="Path" fill="#57A4FF"></path>
                    <path d="M47.7,13.5 L45.9,13.5 C47.8882251,13.5 49.5,15.1117749 49.5,17.1 L49.5,42.3 C49.5,44.2882251 47.8882251,45.9 45.9,45.9 L47.7,45.9 C49.6882251,45.9 51.3,44.2882251 51.3,42.3 L51.3,17.1 C51.3,15.1117749 49.6882251,13.5 47.7,13.5 Z" id="Path" fill="#2488FF"></path>
                    <path d="M6.3,45.9 L0.9,45.9 L0.9,49.5 C0.9,51.4882251 2.5117749,53.1 4.5,53.1 L49.5,53.1 C51.4882251,53.1 53.1,51.4882251 53.1,49.5 L53.1,45.9 L6.3,45.9 Z" id="Path" fill="#005ECE"></path>
                    <path d="M51.3,45.9 L51.3,49.5 C51.3,51.4882251 49.6882251,53.1 47.7,53.1 L49.5,53.1 C51.4882251,53.1 53.1,51.4882251 53.1,49.5 L53.1,45.9 L51.3,45.9 Z" id="Path" fill="#004FAC"></path>
                    <path d="M22.5,47.7 C22.5,48.6941125 23.3058875,49.5 24.3,49.5 L29.7,49.5 C30.6941125,49.5 31.5,48.6941125 31.5,47.7 L31.5,45.9 L22.5,45.9 L22.5,47.7 Z" id="Path" fill="#FFCD00"></path>
                    <polygon id="Path" fill="#FFDAAA" points="6.3 17.1 47.7 17.1 47.7 42.3 6.3 42.3"></polygon>
                    <path d="M36.9,0.9 L17.1,0.9 C15.1117749,0.9 13.5,2.5117749 13.5,4.5 L13.5,14.4 C13.5,16.3882251 15.1117749,18 17.1,18 L19.8,18 L19.8,24.3 L25.2,18 L36.9,18 C38.8882251,18 40.5,16.3882251 40.5,14.4 L40.5,4.5 C40.5,2.5117749 38.8882251,0.9 36.9,0.9 Z" id="Path" fill="#FFCD00"></path>
                    <path d="M21.6,42.3 L47.7,42.3 L47.7,17.1 C47.7,32.0238 36.0261,42.3 21.6,42.3 Z" id="Path" fill="#FFC477"></path>
                    <path d="M53.1,45 L51.2766,45 C51.872226,44.22565 52.1966909,43.2769223 52.2,42.3 L52.2,17.1 C52.1970245,14.6159522 50.1840478,12.6029755 47.7,12.6 L41.4,12.6 L41.4,4.5 C41.3970245,2.01595216 39.3840478,0.0029755047 36.9,0 L17.1,0 C14.6159522,0.0029755047 12.6029755,2.01595216 12.6,4.5 L12.6,12.6 L6.3,12.6 C3.81595216,12.6029755 1.8029755,14.6159522 1.8,17.1 L1.8,42.3 C1.80330913,43.2769223 2.127774,44.22565 2.7234,45 L0.9,45 C0.402943725,45 0,45.4029437 0,45.9 L0,49.5 C0.0029755047,51.9840478 2.01595216,53.9970245 4.5,54 L49.5,54 C51.9840478,53.9970245 53.9970245,51.9840478 54,49.5 L54,45.9 C54,45.4029437 53.5970563,45 53.1,45 Z M14.4,4.5 C14.4,3.00883118 15.6088312,1.8 17.1,1.8 L36.9,1.8 C38.3911688,1.8 39.6,3.00883118 39.6,4.5 L39.6,14.4 C39.6,15.8911688 38.3911688,17.1 36.9,17.1 L25.2,17.1 C24.9373784,17.1000204 24.6878666,17.2147498 24.5169,17.4141 L20.7,21.87 L20.7,18 C20.7,17.5029437 20.2970563,17.1 19.8,17.1 L17.1,17.1 C15.6088312,17.1 14.4,15.8911688 14.4,14.4 L14.4,4.5 Z M3.6,42.3 L3.6,17.1 C3.6,15.6088312 4.80883118,14.4 6.3,14.4 L12.6,14.4 C12.6029755,16.8840478 14.6159522,18.8970245 17.1,18.9 L18.9,18.9 L18.9,24.3 C18.9000341,24.6765487 19.1344807,25.0132718 19.4876203,25.1439676 C19.8407598,25.2746633 20.2379327,25.1717005 20.4831,24.8859 L25.614,18.9 L36.9,18.9 C39.3840478,18.8970245 41.3970245,16.8840478 41.4,14.4 L47.7,14.4 C49.1911688,14.4 50.4,15.6088312 50.4,17.1 L50.4,42.3 C50.4,43.7911688 49.1911688,45 47.7,45 L6.3,45 C4.80883118,45 3.6,43.7911688 3.6,42.3 Z M23.4,46.8 L30.6,46.8 L30.6,47.7 C30.6,48.1970563 30.1970563,48.6 29.7,48.6 L24.3,48.6 C23.8029437,48.6 23.4,48.1970563 23.4,47.7 L23.4,46.8 Z M52.2,49.5 C52.2,50.9911688 50.9911688,52.2 49.5,52.2 L4.5,52.2 C3.00883118,52.2 1.8,50.9911688 1.8,49.5 L1.8,46.8 L21.6,46.8 L21.6,47.7 C21.6,49.1911688 22.8088312,50.4 24.3,50.4 L29.7,50.4 C31.1911688,50.4 32.4,49.1911688 32.4,47.7 L32.4,46.8 L52.2,46.8 L52.2,49.5 Z" id="Shape" fill="#000000" fill-rule="nonzero"></path>
                    <path d="M48.6,42.3 L48.6,17.1 C48.6,16.6029437 48.1970563,16.2 47.7,16.2 L43.2,16.2 C42.7029437,16.2 42.3,16.6029437 42.3,17.1 C42.3,17.5970563 42.7029437,18 43.2,18 L46.8,18 L46.8,41.4 L7.2,41.4 L7.2,18 L10.8,18 C11.2970563,18 11.7,17.5970563 11.7,17.1 C11.7,16.6029437 11.2970563,16.2 10.8,16.2 L6.3,16.2 C5.80294373,16.2 5.4,16.6029437 5.4,17.1 L5.4,42.3 C5.4,42.7970563 5.80294373,43.2 6.3,43.2 L47.7,43.2 C48.1970563,43.2 48.6,42.7970563 48.6,42.3 Z" id="Path" fill="#000000"></path>
                    <path d="M10.8,24.3 C10.8,24.7970563 11.2029437,25.2 11.7,25.2 L13.5,25.2 C13.9970563,25.2 14.4,24.7970563 14.4,24.3 C14.4,23.8029437 13.9970563,23.4 13.5,23.4 L11.7,23.4 C11.2029437,23.4 10.8,23.8029437 10.8,24.3 Z" id="Path" fill="#000000"></path>
                    <path d="M13.5,27 L11.7,27 C11.2029437,27 10.8,27.4029437 10.8,27.9 C10.8,28.3970563 11.2029437,28.8 11.7,28.8 L13.5,28.8 C13.9970563,28.8 14.4,28.3970563 14.4,27.9 C14.4,27.4029437 13.9970563,27 13.5,27 Z" id="Path" fill="#000000"></path>
                    <path d="M13.5,30.6 L11.7,30.6 C11.2029437,30.6 10.8,31.0029437 10.8,31.5 C10.8,31.9970563 11.2029437,32.4 11.7,32.4 L13.5,32.4 C13.9970563,32.4 14.4,31.9970563 14.4,31.5 C14.4,31.0029437 13.9970563,30.6 13.5,30.6 Z" id="Path" fill="#000000"></path>
                    <path d="M13.5,34.2 L11.7,34.2 C11.2029437,34.2 10.8,34.6029437 10.8,35.1 C10.8,35.5970563 11.2029437,36 11.7,36 L13.5,36 C13.9970563,36 14.4,35.5970563 14.4,35.1 C14.4,34.6029437 13.9970563,34.2 13.5,34.2 Z" id="Path" fill="#000000"></path>
                    <path d="M13.5,37.8 L11.7,37.8 C11.2029437,37.8 10.8,38.2029437 10.8,38.7 C10.8,39.1970563 11.2029437,39.6 11.7,39.6 L13.5,39.6 C13.9970563,39.6 14.4,39.1970563 14.4,38.7 C14.4,38.2029437 13.9970563,37.8 13.5,37.8 Z" id="Path" fill="#000000"></path>
                    <path d="M25.2,25.2 L42.3,25.2 C42.7970563,25.2 43.2,24.7970563 43.2,24.3 C43.2,23.8029437 42.7970563,23.4 42.3,23.4 L25.2,23.4 C24.7029437,23.4 24.3,23.8029437 24.3,24.3 C24.3,24.7970563 24.7029437,25.2 25.2,25.2 Z" id="Path" fill="#000000"></path>
                    <path d="M24.3,28.8 L38.7,28.8 C39.1970563,28.8 39.6,28.3970563 39.6,27.9 C39.6,27.4029437 39.1970563,27 38.7,27 L24.3,27 C23.8029437,27 23.4,27.4029437 23.4,27.9 C23.4,28.3970563 23.8029437,28.8 24.3,28.8 Z" id="Path" fill="#000000"></path>
                    <path d="M17.1,32.4 L27.9,32.4 C28.3970563,32.4 28.8,31.9970563 28.8,31.5 C28.8,31.0029437 28.3970563,30.6 27.9,30.6 L17.1,30.6 C16.6029437,30.6 16.2,31.0029437 16.2,31.5 C16.2,31.9970563 16.6029437,32.4 17.1,32.4 Z" id="Path" fill="#000000"></path>
                    <path d="M17.1,36 L27.9,36 C28.3970563,36 28.8,35.5970563 28.8,35.1 C28.8,34.6029437 28.3970563,34.2 27.9,34.2 L17.1,34.2 C16.6029437,34.2 16.2,34.6029437 16.2,35.1 C16.2,35.5970563 16.6029437,36 17.1,36 Z" id="Path" fill="#000000"></path>
                    <path d="M17.1,39.6 L27.9,39.6 C28.3970563,39.6 28.8,39.1970563 28.8,38.7 C28.8,38.2029437 28.3970563,37.8 27.9,37.8 L17.1,37.8 C16.6029437,37.8 16.2,38.2029437 16.2,38.7 C16.2,39.1970563 16.6029437,39.6 17.1,39.6 Z" id="Path" fill="#000000"></path>
                    <path d="M16.6005,9.7488 L22.0005,13.3488 C22.2680205,13.5272542 22.6104238,13.5494322 22.8987298,13.4069797 C23.1870359,13.2645273 23.3774443,12.9790863 23.3982299,12.6581797 C23.4190154,12.3372731 23.2670205,12.0296542 22.9995,11.8512 L18.8892,9.1116 L22.9023,7.11 C23.3471654,6.88781585 23.5276842,6.34706537 23.3055,5.9022 C23.0833158,5.45733463 22.5425654,5.27681585 22.0977,5.499 L16.6977,8.199 C16.4104694,8.34231778 16.2213145,8.62777025 16.2012795,8.94814501 C16.1812445,9.26851977 16.3333625,9.57531416 16.6005,9.7533 L16.6005,9.7488 Z" id="Path" fill="#000000"></path>
                    <path d="M31.0977,7.11 L35.1108,9.1161 L31.0005,11.8557 C30.7329795,12.0341542 30.5809846,12.3417731 30.6017702,12.6626797 C30.6225558,12.9835863 30.8129641,13.2690272 31.1012702,13.4114797 C31.3895763,13.5539321 31.7319795,13.5317542 31.9995,13.3533 L37.3995,9.7533 C37.6666375,9.57531416 37.8187555,9.26851977 37.7987205,8.94814501 C37.7786855,8.62777025 37.5895306,8.34231778 37.3023,8.199 L31.9023,5.499 C31.4574346,5.27681586 30.9166842,5.45733465 30.6945,5.90220001 C30.4723159,6.34706537 30.6528346,6.88781584 31.0977,7.11 Z" id="Path" fill="#000000"></path>
                    <path d="M24.8922,15.246 C25.1166895,15.3273355 25.364299,15.3161316 25.5805257,15.2148545 C25.7967523,15.1135774 25.9638724,14.9305286 26.0451,14.706 L29.6451,4.806 C29.768951,4.50084916 29.7162432,4.15241997 29.5076772,3.89755469 C29.2991111,3.64268941 28.9679961,3.5220916 28.6443743,3.5831249 C28.3207526,3.64415819 28.0563085,3.87707522 27.9549,4.1904 L24.3549,14.0904 C24.2725922,14.3148757 24.2829863,14.5628765 24.3837887,14.7796778 C24.4845912,14.9964791 24.6675166,15.1642609 24.8922,15.246 Z" id="Path" fill="#000000"></path>
                    <path d="M17.1,28.8 L20.7,28.8 C21.1970563,28.8 21.6,28.3970563 21.6,27.9 C21.6,27.4029437 21.1970563,27 20.7,27 L17.1,27 C16.6029437,27 16.2,27.4029437 16.2,27.9 C16.2,28.3970563 16.6029437,28.8 17.1,28.8 Z" id="Path" fill="#000000"></path>
                    <path d="M39.6,31.5 C39.6,31.0029437 39.1970563,30.6 38.7,30.6 L31.5,30.6 C31.0029437,30.6 30.6,31.0029437 30.6,31.5 C30.6,31.9970563 31.0029437,32.4 31.5,32.4 L38.7,32.4 C39.1970563,32.4 39.6,31.9970563 39.6,31.5 Z" id="Path" fill="#000000"></path>
                    <path d="M33.3,34.2 L31.5,34.2 C31.0029437,34.2 30.6,34.6029437 30.6,35.1 C30.6,35.5970563 31.0029437,36 31.5,36 L33.3,36 C33.7970563,36 34.2,35.5970563 34.2,35.1 C34.2,34.6029437 33.7970563,34.2 33.3,34.2 Z" id="Path" fill="#000000"></path>
                    <path d="M33.3,37.8 L31.5,37.8 C31.0029437,37.8 30.6,38.2029437 30.6,38.7 C30.6,39.1970563 31.0029437,39.6 31.5,39.6 L33.3,39.6 C33.7970563,39.6 34.2,39.1970563 34.2,38.7 C34.2,38.2029437 33.7970563,37.8 33.3,37.8 Z" id="Path" fill="#000000"></path>
                </g>
            </g>
        </g>
    </g>
</svg>