<?xml version="1.0" encoding="UTF-8"?>
<svg width="99px" height="99px" viewBox="0 0 99 99" version="1.1" xmlns="http://www.w3.org/2000/svg" xmlns:xlink="http://www.w3.org/1999/xlink">
    <!-- Generator: Sketch 52.3 (67297) - http://www.bohemiancoding.com/sketch -->
    <title>Group 10</title>
    <desc>Created with Sketch.</desc>
    <defs>
        <filter x="-18.8%" y="-18.8%" width="137.6%" height="137.6%" filterUnits="objectBoundingBox" id="filter-1">
            <feOffset dx="0" dy="2" in="SourceAlpha" result="shadowOffsetOuter1"></feOffset>
            <feGaussianBlur stdDeviation="2" in="shadowOffsetOuter1" result="shadowBlurOuter1"></feGaussianBlur>
            <feColorMatrix values="0 0 0 0 0   0 0 0 0 0   0 0 0 0 0  0 0 0 0.5 0" type="matrix" in="shadowBlurOuter1" result="shadowMatrixOuter1"></feColorMatrix>
            <feMerge>
                <feMergeNode in="shadowMatrixOuter1"></feMergeNode>
                <feMergeNode in="SourceGraphic"></feMergeNode>
            </feMerge>
        </filter>
        <circle id="path-2" cx="42.5" cy="42.5" r="42.5"></circle>
        <filter x="-7.1%" y="-7.1%" width="114.1%" height="114.1%" filterUnits="objectBoundingBox" id="filter-4">
            <feOffset dx="0" dy="0" in="SourceAlpha" result="shadowOffsetOuter1"></feOffset>
            <feGaussianBlur stdDeviation="2" in="shadowOffsetOuter1" result="shadowBlurOuter1"></feGaussianBlur>
            <feColorMatrix values="0 0 0 0 0   0 0 0 0 0   0 0 0 0 0  0 0 0 0.5 0" type="matrix" in="shadowBlurOuter1"></feColorMatrix>
        </filter>
        <filter x="-14.8%" y="-14.8%" width="129.6%" height="129.6%" filterUnits="objectBoundingBox" id="filter-5">
            <feOffset dx="0" dy="0" in="SourceAlpha" result="shadowOffsetOuter1"></feOffset>
            <feGaussianBlur stdDeviation="2" in="shadowOffsetOuter1" result="shadowBlurOuter1"></feGaussianBlur>
            <feColorMatrix values="0 0 0 0 0   0 0 0 0 0   0 0 0 0 0  0 0 0 0.5 0" type="matrix" in="shadowBlurOuter1" result="shadowMatrixOuter1"></feColorMatrix>
            <feMerge>
                <feMergeNode in="shadowMatrixOuter1"></feMergeNode>
                <feMergeNode in="SourceGraphic"></feMergeNode>
            </feMerge>
        </filter>
    </defs>
    <g id="Page-1" stroke="none" stroke-width="1" fill="none" fill-rule="evenodd">
        <g id="Artboard" transform="translate(-195.000000, -99.000000)">
            <g id="Group-10" transform="translate(202.000000, 104.000000)">
                <g id="Group-5">
                    <g id="Group">
                        <g id="Group-2" filter="url(#filter-1)">
                            <mask id="mask-3" fill="white">
                                <use xlink:href="#path-2"></use>
                            </mask>
                            <g id="Mask">
                                <use fill="black" fill-opacity="1" filter="url(#filter-4)" xlink:href="#path-2"></use>
                                <use fill="#FFFFFF" fill-rule="evenodd" xlink:href="#path-2"></use>
                            </g>
                        </g>
                    </g>
                </g>
                <g id="marketing" filter="url(#filter-5)" transform="translate(16.000000, 19.000000)">
                    <g id="Group" transform="translate(0.870968, 0.870968)">
                        <path d="M0,6.09677419 L0,39.1935484 L34.8387097,39.1935484 C34.8387097,36.7896774 36.7896774,34.8387097 39.1935484,34.8387097 C41.5974194,34.8387097 43.5483871,36.7896774 43.5483871,39.1935484 L47.0322581,39.1935484 L47.0322581,6.09677419 L0,6.09677419 Z" id="Path" fill="#E6E9ED"></path>
                        <polygon id="Path" fill="#FCD770" points="3.48387097 28.7419355 6.96774194 28.7419355 6.96774194 35.7096774 3.48387097 35.7096774"></polygon>
                        <polygon id="Path" fill="#FCD770" points="10.4516129 30.483871 13.9354839 30.483871 13.9354839 35.7096774 10.4516129 35.7096774"></polygon>
                        <polygon id="Path" fill="#FCD770" points="17.4193548 23.516129 20.9032258 23.516129 20.9032258 35.7096774 17.4193548 35.7096774"></polygon>
                        <path d="M27.8709677,27 L27.8709677,32.6787097 C27.3309677,33.6193548 26.8954839,34.6383871 26.5993548,35.7096774 L24.3870968,35.7096774 L24.3870968,27 L27.8709677,27 Z" id="Path" fill="#FCD770"></path>
                        <path d="M39.1935484,31.3548387 C34.8648387,31.3548387 31.3548387,34.8648387 31.3548387,39.1935484 C31.3548387,40.6219355 31.7380645,41.9632258 32.4087097,43.1129032 C33.7587097,45.4558065 36.2932258,47.0322581 39.1935484,47.0322581 C42.093871,47.0322581 44.6283871,45.4558065 45.9783871,43.1129032 C46.6490323,41.9632258 47.0322581,40.6219355 47.0322581,39.1935484 C47.0322581,34.8648387 43.5222581,31.3548387 39.1935484,31.3548387 Z M39.1935484,43.5483871 C36.7896774,43.5483871 34.8387097,41.5974194 34.8387097,39.1935484 C34.8387097,36.7896774 36.7896774,34.8387097 39.1935484,34.8387097 C41.5974194,34.8387097 43.5483871,36.7896774 43.5483871,39.1935484 C43.5483871,41.5974194 41.5974194,43.5483871 39.1935484,43.5483871 Z" id="Shape" fill="#CCD1D9" fill-rule="nonzero"></path>
                        <path d="M45.9783871,43.1129032 L50.5074194,45.7258065 C48.2429032,49.6277419 44.0274194,52.2580645 39.1935484,52.2580645 C34.3596774,52.2580645 30.1441935,49.6277419 27.8796774,45.7258065 L32.4087097,43.1129032 C33.7587097,45.4558065 36.2932258,47.0322581 39.1935484,47.0322581 C42.093871,47.0322581 44.6283871,45.4558065 45.9783871,43.1129032 Z" id="Path" fill="#FCD770"></path>
                        <path d="M52.2580645,39.1935484 C52.2580645,41.5712903 51.6222581,43.8096774 50.5074194,45.7258065 L45.9783871,43.1129032 C46.6490323,41.9632258 47.0322581,40.6219355 47.0322581,39.1935484 C47.0322581,34.8648387 43.5222581,31.3548387 39.1935484,31.3548387 L39.1935484,26.1290323 C42.1374194,26.1290323 44.8548387,27.1045161 47.0322581,28.7419355 C50.2025806,31.1283871 52.2580645,34.9258065 52.2580645,39.1935484 Z" id="Path" fill="#FF826E"></path>
                        <path d="M39.1935484,26.1290323 L39.1935484,31.3548387 C34.8648387,31.3548387 31.3548387,34.8648387 31.3548387,39.1935484 C31.3548387,40.6219355 31.7380645,41.9632258 32.4087097,43.1129032 L27.8796774,45.7258065 C26.7648387,43.8096774 26.1290323,41.5712903 26.1290323,39.1935484 C26.1290323,37.9916129 26.2945161,36.8158065 26.5993548,35.7096774 C26.8954839,34.6383871 27.3309677,33.6193548 27.8709677,32.6787097 C30.1267742,28.7593548 34.3596774,26.1290323 39.1935484,26.1290323 Z" id="Path" fill="#B4DD7F"></path>
                        <path d="M23.8732258,17.9332258 C24.1954839,18.2467742 24.3870968,18.6822581 24.3870968,19.1612903 C24.3870968,20.1193548 23.6032258,20.9032258 22.6451613,20.9032258 C21.6870968,20.9032258 20.9032258,20.1193548 20.9032258,19.1612903 C20.9032258,18.2032258 21.6870968,17.4193548 22.6451613,17.4193548 C23.1241935,17.4193548 23.5596774,17.6109677 23.8732258,17.9332258 Z" id="Path" fill="#FF826E"></path>
                        <path d="M31.7119355,12.5506452 C31.3983871,12.8729032 30.9629032,13.0645161 30.483871,13.0645161 C30.0048387,13.0645161 29.5693548,12.8729032 29.2558065,12.5506452 C28.9335484,12.2370968 28.7419355,11.8016129 28.7419355,11.3225806 C28.7419355,10.3645161 29.5258065,9.58064516 30.483871,9.58064516 C31.4419355,9.58064516 32.2258065,10.3645161 32.2258065,11.3225806 C32.2258065,11.8016129 32.0341935,12.2370968 31.7119355,12.5506452 Z" id="Path" fill="#FF826E"></path>
                        <path d="M36.9377419,15.3203226 C37.26,15.633871 37.4516129,16.0693548 37.4516129,16.5483871 C37.4516129,17.5064516 36.6677419,18.2903226 35.7096774,18.2903226 C34.7516129,18.2903226 33.9677419,17.5064516 33.9677419,16.5483871 C33.9677419,16.0693548 34.1593548,15.633871 34.4816129,15.3203226 C34.7951613,14.9980645 35.2306452,14.8064516 35.7096774,14.8064516 C36.1887097,14.8064516 36.6241935,14.9980645 36.9377419,15.3203226 Z" id="Path" fill="#FF826E"></path>
                        <path d="M47.0322581,0 C49.9151613,0 52.2580645,2.34290323 52.2580645,5.22580645 C52.2580645,8.10870968 49.9151613,10.4516129 47.0322581,10.4516129 C45.5864516,10.4516129 44.28,9.86806452 43.3393548,8.91870968 C42.5903226,8.16967742 42.0677419,7.19419355 41.8848387,6.09677419 C41.8325806,5.81806452 41.8064516,5.52193548 41.8064516,5.22580645 C41.8064516,2.34290323 44.1493548,0 47.0322581,0 Z" id="Path" fill="#FF826E"></path>
                    </g>
                    <g id="Group" fill="#000000">
                        <path d="M48.7741935,29.2035484 L48.7741935,12.123871 C51.7241613,11.6988387 54,9.16170968 54,6.09677419 C54,2.73570968 51.2651613,1.77635684e-15 47.9032258,1.77635684e-15 C44.5412903,1.77635684e-15 41.8064516,2.73570968 41.8064516,6.09677419 L0,6.09677419 L0,40.9354839 L26.1734516,40.9354839 C26.6263548,48.2132903 32.6752258,54 40.0645161,54 C47.7481935,54 54,47.7481935 54,40.0645161 C54,35.6757097 51.9558387,31.7598387 48.7741935,29.2035484 Z M47.9032258,1.74193548 C50.3044839,1.74193548 52.2580645,3.69551613 52.2580645,6.09677419 C52.2580645,8.49803226 50.3044839,10.4516129 47.9032258,10.4516129 C45.5019677,10.4516129 43.5483871,8.49803226 43.5483871,6.09677419 C43.5483871,3.69551613 45.5019677,1.74193548 47.9032258,1.74193548 Z M1.74193548,7.83870968 L42.0633871,7.83870968 C42.2715484,8.53374194 42.6025161,9.17390323 43.0275484,9.74177419 L37.7007097,15.0686129 C37.3592903,14.904871 36.9830323,14.8064516 36.5806452,14.8064516 C36.1782581,14.8064516 35.802,14.904871 35.4614516,15.0686129 L33.7064516,13.3136129 C33.8693226,12.9721935 33.9677419,12.5959355 33.9677419,12.1935484 C33.9677419,10.7529677 32.7954194,9.58064516 31.3548387,9.58064516 C29.9142581,9.58064516 28.7419355,10.7529677 28.7419355,12.1935484 C28.7419355,12.5959355 28.8403548,12.9721935 29.0040968,13.3127419 L24.6361935,17.6806452 C24.2947742,17.5177742 23.9185161,17.4193548 23.516129,17.4193548 C22.0755484,17.4193548 20.9032258,18.5916774 20.9032258,20.0322581 C20.9032258,21.4728387 22.0755484,22.6451613 23.516129,22.6451613 C24.9567097,22.6451613 26.1290323,21.4728387 26.1290323,20.0322581 C26.1290323,19.629871 26.0306129,19.2536129 25.866871,18.9130645 L30.2347742,14.5451613 C30.5761935,14.7080323 30.9524516,14.8064516 31.3548387,14.8064516 C31.7572258,14.8064516 32.1334839,14.7080323 32.4740323,14.5442903 L34.2290323,16.2992903 C34.0661613,16.6407097 33.9677419,17.0169677 33.9677419,17.4193548 C33.9677419,18.8599355 35.1400645,20.0322581 36.5806452,20.0322581 C38.0212258,20.0322581 39.1935484,18.8599355 39.1935484,17.4193548 C39.1935484,17.0169677 39.095129,16.6407097 38.9313871,16.3001613 L44.2590968,10.9733226 C45.0560323,11.5708065 46.0019032,11.9758065 47.0322581,12.1247419 L47.0322581,28.0155484 C44.9793871,26.8231935 42.6042581,26.1290323 40.0645161,26.1290323 C35.9012903,26.1290323 32.1683226,27.9737419 29.6129032,30.8784194 L29.6129032,27 L24.3870968,27 L24.3870968,37.4516129 L26.3833548,37.4516129 C26.2753548,38.0203548 26.2100323,38.6030323 26.1734516,39.1935484 L1.74193548,39.1935484 L1.74193548,7.83870968 Z M36.5806452,16.5483871 C37.0605484,16.5483871 37.4516129,16.9385806 37.4516129,17.4193548 C37.4516129,17.900129 37.0605484,18.2903226 36.5806452,18.2903226 C36.1007419,18.2903226 35.7096774,17.900129 35.7096774,17.4193548 C35.7096774,16.9385806 36.1007419,16.5483871 36.5806452,16.5483871 Z M30.483871,12.1935484 C30.483871,11.7127742 30.8749355,11.3225806 31.3548387,11.3225806 C31.8347419,11.3225806 32.2258065,11.7127742 32.2258065,12.1935484 C32.2258065,12.6743226 31.8347419,13.0645161 31.3548387,13.0645161 C30.8749355,13.0645161 30.483871,12.6743226 30.483871,12.1935484 Z M24.3870968,20.0322581 C24.3870968,20.5130323 23.9960323,20.9032258 23.516129,20.9032258 C23.0362258,20.9032258 22.6451613,20.5130323 22.6451613,20.0322581 C22.6451613,19.5514839 23.0362258,19.1612903 23.516129,19.1612903 C23.9960323,19.1612903 24.3870968,19.5514839 24.3870968,20.0322581 Z M40.0645161,47.0322581 C36.2226774,47.0322581 33.0967742,43.9063548 33.0967742,40.0645161 C33.0967742,36.2226774 36.2226774,33.0967742 40.0645161,33.0967742 C43.9063548,33.0967742 47.0322581,36.2226774 47.0322581,40.0645161 C47.0322581,43.9063548 43.9063548,47.0322581 40.0645161,47.0322581 Z M27.8709677,33.3328065 C27.4537742,34.0853226 27.108871,34.8805161 26.8353871,35.7096774 L26.1290323,35.7096774 L26.1290323,28.7419355 L27.8709677,28.7419355 L27.8709677,33.3328065 Z M39.1935484,27.9153871 L39.1935484,31.3992581 C34.7986452,31.8382258 31.3548387,35.5563871 31.3548387,40.0645161 C31.3548387,41.3387419 31.6370323,42.5467742 32.130871,43.6389677 L29.1094839,45.3835161 C28.323871,43.7739677 27.8709677,41.9728065 27.8709677,40.0645161 C27.8709677,33.6350323 32.8764194,28.3648065 39.1935484,27.9153871 Z M40.0645161,52.2580645 C35.8716774,52.2580645 32.1665806,50.1302903 29.9717419,46.8972581 L33.0053226,45.1457419 C34.5887419,47.3388387 37.1589677,48.7741935 40.0645161,48.7741935 C42.9700645,48.7741935 45.5402903,47.3388387 47.1237097,45.1457419 L50.1572903,46.8972581 C47.9624516,50.1302903 44.2573548,52.2580645 40.0645161,52.2580645 Z M51.0195484,45.3835161 L47.9981613,43.6389677 C48.492,42.5467742 48.7741935,41.3387419 48.7741935,40.0645161 C48.7741935,35.5563871 45.3303871,31.8373548 40.9354839,31.3992581 L40.9354839,27.9153871 C47.2526129,28.3648065 52.2580645,33.6350323 52.2580645,40.0645161 C52.2580645,41.9728065 51.8051613,43.7739677 51.0195484,45.3835161 Z" id="Shape" fill-rule="nonzero"></path>
                        <path d="M40.0645161,34.8387097 C37.1824839,34.8387097 34.8387097,37.1824839 34.8387097,40.0645161 C34.8387097,42.9465484 37.1824839,45.2903226 40.0645161,45.2903226 C42.9465484,45.2903226 45.2903226,42.9465484 45.2903226,40.0645161 C45.2903226,37.1824839 42.9465484,34.8387097 40.0645161,34.8387097 Z M40.0645161,43.5483871 C38.1431613,43.5483871 36.5806452,41.985871 36.5806452,40.0645161 C36.5806452,38.1431613 38.1431613,36.5806452 40.0645161,36.5806452 C41.985871,36.5806452 43.5483871,38.1431613 43.5483871,40.0645161 C43.5483871,41.985871 41.985871,43.5483871 40.0645161,43.5483871 Z" id="Shape" fill-rule="nonzero"></path>
                        <polygon id="Path" points="3.48387097 9.58064516 5.22580645 9.58064516 5.22580645 11.3225806 3.48387097 11.3225806"></polygon>
                        <polygon id="Path" points="6.96774194 9.58064516 19.1612903 9.58064516 19.1612903 11.3225806 6.96774194 11.3225806"></polygon>
                        <polygon id="Path" points="3.48387097 13.0645161 5.22580645 13.0645161 5.22580645 14.8064516 3.48387097 14.8064516"></polygon>
                        <polygon id="Path" points="6.96774194 13.0645161 19.1612903 13.0645161 19.1612903 14.8064516 6.96774194 14.8064516"></polygon>
                        <polygon id="Path" points="3.48387097 16.5483871 5.22580645 16.5483871 5.22580645 18.2903226 3.48387097 18.2903226"></polygon>
                        <polygon id="Path" points="6.96774194 16.5483871 19.1612903 16.5483871 19.1612903 18.2903226 6.96774194 18.2903226"></polygon>
                        <polygon id="Path" points="3.48387097 20.0322581 5.22580645 20.0322581 5.22580645 21.7741935 3.48387097 21.7741935"></polygon>
                        <polygon id="Path" points="6.96774194 20.0322581 19.1612903 20.0322581 19.1612903 21.7741935 6.96774194 21.7741935"></polygon>
                        <path d="M3.48387097,37.4516129 L8.70967742,37.4516129 L8.70967742,28.7419355 L3.48387097,28.7419355 L3.48387097,37.4516129 Z M5.22580645,30.483871 L6.96774194,30.483871 L6.96774194,35.7096774 L5.22580645,35.7096774 L5.22580645,30.483871 Z" id="Shape" fill-rule="nonzero"></path>
                        <path d="M10.4516129,37.4516129 L15.6774194,37.4516129 L15.6774194,30.483871 L10.4516129,30.483871 L10.4516129,37.4516129 Z M12.1935484,32.2258065 L13.9354839,32.2258065 L13.9354839,35.7096774 L12.1935484,35.7096774 L12.1935484,32.2258065 Z" id="Shape" fill-rule="nonzero"></path>
                        <path d="M17.4193548,37.4516129 L22.6451613,37.4516129 L22.6451613,23.516129 L17.4193548,23.516129 L17.4193548,37.4516129 Z M19.1612903,25.2580645 L20.9032258,25.2580645 L20.9032258,35.7096774 L19.1612903,35.7096774 L19.1612903,25.2580645 Z" id="Shape" fill-rule="nonzero"></path>
                    </g>
                </g>
            </g>
        </g>
    </g>
</svg>