<?xml version="1.0" encoding="UTF-8"?>
<svg width="488px" height="96px" viewBox="0 0 488 96" version="1.1" xmlns="http://www.w3.org/2000/svg" xmlns:xlink="http://www.w3.org/1999/xlink">
    <!-- Generator: Sketch 52.3 (67297) - http://www.bohemiancoding.com/sketch -->
    <title>Group 22</title>
    <desc>Created with Sketch.</desc>
    <defs>
        <circle id="path-1" cx="43.2254309" cy="42.8229572" r="42.5"></circle>
    </defs>
    <g id="Page-1" stroke="none" stroke-width="1" fill="none" fill-rule="evenodd">
        <g id="Artboard" transform="translate(-1616.000000, -445.000000)">
            <g id="Group-22" transform="translate(1616.000000, 445.000000)">
                <g id="Group-15">
                    <g id="Group-12">
                        <g id="Group-10">
                            <g id="Group-3">
                                <path d="M189.862013,48.2422864 L20.0283096,48.2422864" id="Line-2" stroke="#FFF60F" stroke-width="5" stroke-linecap="square"></path>
                                <g id="Group-2" transform="translate(110.000000, 0.000000)">
                                    <rect id="Rectangle" fill="#FFF60F" x="0" y="1.42108547e-14" width="378" height="96" rx="48"></rect>
                                    <g id="profile" transform="translate(3.274569, 4.677043)">
                                        <mask id="mask-2" fill="white">
                                            <use xlink:href="#path-1"></use>
                                        </mask>
                                        <use id="Mask" fill="#FFFFFF" xlink:href="#path-1"></use>
                                    </g>
                                </g>
                                <circle id="Oval" fill="#FFF60F" cx="9.5" cy="48.5" r="9.5"></circle>
                            </g>
                        </g>
                    </g>
                </g>
                <g id="marketing" transform="translate(127.000000, 20.000000)">
                    <g id="Group" transform="translate(1.000000, 1.000000)">
                        <path d="M0,6.53333333 L0,42 L37.3333333,42 C37.3333333,39.424 39.424,37.3333333 42,37.3333333 C44.576,37.3333333 46.6666667,39.424 46.6666667,42 L50.4,42 L50.4,6.53333333 L0,6.53333333 Z" id="Path" fill="#E6E9ED"></path>
                        <polygon id="Path" fill="#FCD770" points="3.73333333 30.8 7.46666667 30.8 7.46666667 38.2666667 3.73333333 38.2666667"></polygon>
                        <polygon id="Path" fill="#FCD770" points="11.2 32.6666667 14.9333333 32.6666667 14.9333333 38.2666667 11.2 38.2666667"></polygon>
                        <polygon id="Path" fill="#FCD770" points="18.6666667 25.2 22.4 25.2 22.4 38.2666667 18.6666667 38.2666667"></polygon>
                        <path d="M29.8666667,28.9333333 L29.8666667,35.0186667 C29.288,36.0266667 28.8213333,37.1186667 28.504,38.2666667 L26.1333333,38.2666667 L26.1333333,28.9333333 L29.8666667,28.9333333 Z" id="Path" fill="#FCD770"></path>
                        <path d="M42,33.6 C37.3613333,33.6 33.6,37.3613333 33.6,42 C33.6,43.5306667 34.0106667,44.968 34.7293333,46.2 C36.176,48.7106667 38.892,50.4 42,50.4 C45.108,50.4 47.824,48.7106667 49.2706667,46.2 C49.9893333,44.968 50.4,43.5306667 50.4,42 C50.4,37.3613333 46.6386667,33.6 42,33.6 Z M42,46.6666667 C39.424,46.6666667 37.3333333,44.576 37.3333333,42 C37.3333333,39.424 39.424,37.3333333 42,37.3333333 C44.576,37.3333333 46.6666667,39.424 46.6666667,42 C46.6666667,44.576 44.576,46.6666667 42,46.6666667 Z" id="Shape" fill="#CCD1D9" fill-rule="nonzero"></path>
                        <path d="M49.2706667,46.2 L54.124,49 C51.6973333,53.1813333 47.18,56 42,56 C36.82,56 32.3026667,53.1813333 29.876,49 L34.7293333,46.2 C36.176,48.7106667 38.892,50.4 42,50.4 C45.108,50.4 47.824,48.7106667 49.2706667,46.2 Z" id="Path" fill="#FCD770"></path>
                        <path d="M56,42 C56,44.548 55.3186667,46.9466667 54.124,49 L49.2706667,46.2 C49.9893333,44.968 50.4,43.5306667 50.4,42 C50.4,37.3613333 46.6386667,33.6 42,33.6 L42,28 C45.1546667,28 48.0666667,29.0453333 50.4,30.8 C53.7973333,33.3573333 56,37.4266667 56,42 Z" id="Path" fill="#FF826E"></path>
                        <path d="M42,28 L42,33.6 C37.3613333,33.6 33.6,37.3613333 33.6,42 C33.6,43.5306667 34.0106667,44.968 34.7293333,46.2 L29.876,49 C28.6813333,46.9466667 28,44.548 28,42 C28,40.712 28.1773333,39.452 28.504,38.2666667 C28.8213333,37.1186667 29.288,36.0266667 29.8666667,35.0186667 C32.284,30.8186667 36.82,28 42,28 Z" id="Path" fill="#B4DD7F"></path>
                        <path d="M25.5826667,19.2173333 C25.928,19.5533333 26.1333333,20.02 26.1333333,20.5333333 C26.1333333,21.56 25.2933333,22.4 24.2666667,22.4 C23.24,22.4 22.4,21.56 22.4,20.5333333 C22.4,19.5066667 23.24,18.6666667 24.2666667,18.6666667 C24.78,18.6666667 25.2466667,18.872 25.5826667,19.2173333 Z" id="Path" fill="#FF826E"></path>
                        <path d="M33.9826667,13.4493333 C33.6466667,13.7946667 33.18,14 32.6666667,14 C32.1533333,14 31.6866667,13.7946667 31.3506667,13.4493333 C31.0053333,13.1133333 30.8,12.6466667 30.8,12.1333333 C30.8,11.1066667 31.64,10.2666667 32.6666667,10.2666667 C33.6933333,10.2666667 34.5333333,11.1066667 34.5333333,12.1333333 C34.5333333,12.6466667 34.328,13.1133333 33.9826667,13.4493333 Z" id="Path" fill="#FF826E"></path>
                        <path d="M39.5826667,16.4173333 C39.928,16.7533333 40.1333333,17.22 40.1333333,17.7333333 C40.1333333,18.76 39.2933333,19.6 38.2666667,19.6 C37.24,19.6 36.4,18.76 36.4,17.7333333 C36.4,17.22 36.6053333,16.7533333 36.9506667,16.4173333 C37.2866667,16.072 37.7533333,15.8666667 38.2666667,15.8666667 C38.78,15.8666667 39.2466667,16.072 39.5826667,16.4173333 Z" id="Path" fill="#FF826E"></path>
                        <path d="M50.4,0 C53.4893333,0 56,2.51066667 56,5.6 C56,8.68933333 53.4893333,11.2 50.4,11.2 C48.8506667,11.2 47.4506667,10.5746667 46.4426667,9.55733333 C45.64,8.75466667 45.08,7.70933333 44.884,6.53333333 C44.828,6.23466667 44.8,5.91733333 44.8,5.6 C44.8,2.51066667 47.3106667,0 50.4,0 Z" id="Path" fill="#FF826E"></path>
                    </g>
                    <g id="Group" fill="#000000">
                        <path d="M51.483871,30.8259677 L51.483871,12.7974194 C54.5977258,12.3487742 57,9.67069355 57,6.43548387 C57,2.88769355 54.1132258,1.77635684e-15 50.5645161,1.77635684e-15 C47.0158065,1.77635684e-15 44.1290323,2.88769355 44.1290323,6.43548387 L0,6.43548387 L0,43.2096774 L27.6275323,43.2096774 C28.1055968,50.8918065 34.4905161,57 42.2903226,57 C50.400871,57 57,50.400871 57,42.2903226 C57,37.6576935 54.8422742,33.5242742 51.483871,30.8259677 Z M50.5645161,1.83870968 C53.0991774,1.83870968 55.1612903,3.90082258 55.1612903,6.43548387 C55.1612903,8.97014516 53.0991774,11.0322581 50.5645161,11.0322581 C48.0298548,11.0322581 45.9677419,8.97014516 45.9677419,6.43548387 C45.9677419,3.90082258 48.0298548,1.83870968 50.5645161,1.83870968 Z M1.83870968,8.27419355 L44.4002419,8.27419355 C44.6199677,9.00783871 44.9693226,9.68356452 45.4179677,10.2829839 L39.7951935,15.9057581 C39.4348065,15.7329194 39.0376452,15.6290323 38.6129032,15.6290323 C38.1881613,15.6290323 37.791,15.7329194 37.4315323,15.9057581 L35.5790323,14.0532581 C35.7509516,13.692871 35.8548387,13.2957097 35.8548387,12.8709677 C35.8548387,11.3503548 34.6173871,10.1129032 33.0967742,10.1129032 C31.5761613,10.1129032 30.3387097,11.3503548 30.3387097,12.8709677 C30.3387097,13.2957097 30.4425968,13.692871 30.6154355,14.0523387 L26.004871,18.6629032 C25.6444839,18.4909839 25.2473226,18.3870968 24.8225806,18.3870968 C23.3019677,18.3870968 22.0645161,19.6245484 22.0645161,21.1451613 C22.0645161,22.6657742 23.3019677,23.9032258 24.8225806,23.9032258 C26.3431935,23.9032258 27.5806452,22.6657742 27.5806452,21.1451613 C27.5806452,20.7204194 27.4767581,20.3232581 27.3039194,19.9637903 L31.9144839,15.3532258 C32.274871,15.5251452 32.6720323,15.6290323 33.0967742,15.6290323 C33.5215161,15.6290323 33.9186774,15.5251452 34.2781452,15.3523065 L36.1306452,17.2048065 C35.9587258,17.5651935 35.8548387,17.9623548 35.8548387,18.3870968 C35.8548387,19.9077097 37.0922903,21.1451613 38.6129032,21.1451613 C40.1335161,21.1451613 41.3709677,19.9077097 41.3709677,18.3870968 C41.3709677,17.9623548 41.2670806,17.5651935 41.0942419,17.2057258 L46.7179355,11.5829516 C47.5591452,12.213629 48.5575645,12.641129 49.6451613,12.7983387 L49.6451613,29.5719677 C47.4782419,28.313371 44.9711613,27.5806452 42.2903226,27.5806452 C37.8958065,27.5806452 33.9554516,29.5278387 31.2580645,32.5938871 L31.2580645,28.5 L25.7419355,28.5 L25.7419355,39.5322581 L27.8490968,39.5322581 C27.7350968,40.1325968 27.6661452,40.7476452 27.6275323,41.3709677 L1.83870968,41.3709677 L1.83870968,8.27419355 Z M38.6129032,17.4677419 C39.1194677,17.4677419 39.5322581,17.8796129 39.5322581,18.3870968 C39.5322581,18.8945806 39.1194677,19.3064516 38.6129032,19.3064516 C38.1063387,19.3064516 37.6935484,18.8945806 37.6935484,18.3870968 C37.6935484,17.8796129 38.1063387,17.4677419 38.6129032,17.4677419 Z M32.1774194,12.8709677 C32.1774194,12.3634839 32.5902097,11.9516129 33.0967742,11.9516129 C33.6033387,11.9516129 34.016129,12.3634839 34.016129,12.8709677 C34.016129,13.3784516 33.6033387,13.7903226 33.0967742,13.7903226 C32.5902097,13.7903226 32.1774194,13.3784516 32.1774194,12.8709677 Z M25.7419355,21.1451613 C25.7419355,21.6526452 25.3291452,22.0645161 24.8225806,22.0645161 C24.3160161,22.0645161 23.9032258,21.6526452 23.9032258,21.1451613 C23.9032258,20.6376774 24.3160161,20.2258065 24.8225806,20.2258065 C25.3291452,20.2258065 25.7419355,20.6376774 25.7419355,21.1451613 Z M42.2903226,49.6451613 C38.2350484,49.6451613 34.9354839,46.3455968 34.9354839,42.2903226 C34.9354839,38.2350484 38.2350484,34.9354839 42.2903226,34.9354839 C46.3455968,34.9354839 49.6451613,38.2350484 49.6451613,42.2903226 C49.6451613,46.3455968 46.3455968,49.6451613 42.2903226,49.6451613 Z M29.4193548,35.184629 C28.9789839,35.9789516 28.6149194,36.8183226 28.3262419,37.6935484 L27.5806452,37.6935484 L27.5806452,30.3387097 L29.4193548,30.3387097 L29.4193548,35.184629 Z M41.3709677,29.4662419 L41.3709677,33.1436613 C36.7319032,33.6070161 33.0967742,37.5317419 33.0967742,42.2903226 C33.0967742,43.6353387 33.3946452,44.9104839 33.9159194,46.0633548 L30.7266774,47.9048226 C29.8974194,46.2058548 29.4193548,44.304629 29.4193548,42.2903226 C29.4193548,35.5036452 34.7028871,29.940629 41.3709677,29.4662419 Z M42.2903226,55.1612903 C37.8645484,55.1612903 33.9536129,52.9153065 31.6368387,49.5026613 L34.8389516,47.6538387 C36.5103387,49.9687742 39.2233548,51.483871 42.2903226,51.483871 C45.3572903,51.483871 48.0703065,49.9687742 49.7416935,47.6538387 L52.9438065,49.5026613 C50.6270323,52.9153065 46.7160968,55.1612903 42.2903226,55.1612903 Z M53.8539677,47.9048226 L50.6647258,46.0633548 C51.186,44.9104839 51.483871,43.6353387 51.483871,42.2903226 C51.483871,37.5317419 47.8487419,33.6060968 43.2096774,33.1436613 L43.2096774,29.4662419 C49.8777581,29.940629 55.1612903,35.5036452 55.1612903,42.2903226 C55.1612903,44.304629 54.6832258,46.2058548 53.8539677,47.9048226 Z" id="Shape" fill-rule="nonzero"></path>
                        <path d="M42.2903226,36.7741935 C39.2481774,36.7741935 36.7741935,39.2481774 36.7741935,42.2903226 C36.7741935,45.3324677 39.2481774,47.8064516 42.2903226,47.8064516 C45.3324677,47.8064516 47.8064516,45.3324677 47.8064516,42.2903226 C47.8064516,39.2481774 45.3324677,36.7741935 42.2903226,36.7741935 Z M42.2903226,45.9677419 C40.2622258,45.9677419 38.6129032,44.3184194 38.6129032,42.2903226 C38.6129032,40.2622258 40.2622258,38.6129032 42.2903226,38.6129032 C44.3184194,38.6129032 45.9677419,40.2622258 45.9677419,42.2903226 C45.9677419,44.3184194 44.3184194,45.9677419 42.2903226,45.9677419 Z" id="Shape" fill-rule="nonzero"></path>
                        <polygon id="Path" points="3.67741935 10.1129032 5.51612903 10.1129032 5.51612903 11.9516129 3.67741935 11.9516129"></polygon>
                        <polygon id="Path" points="7.35483871 10.1129032 20.2258065 10.1129032 20.2258065 11.9516129 7.35483871 11.9516129"></polygon>
                        <polygon id="Path" points="3.67741935 13.7903226 5.51612903 13.7903226 5.51612903 15.6290323 3.67741935 15.6290323"></polygon>
                        <polygon id="Path" points="7.35483871 13.7903226 20.2258065 13.7903226 20.2258065 15.6290323 7.35483871 15.6290323"></polygon>
                        <polygon id="Path" points="3.67741935 17.4677419 5.51612903 17.4677419 5.51612903 19.3064516 3.67741935 19.3064516"></polygon>
                        <polygon id="Path" points="7.35483871 17.4677419 20.2258065 17.4677419 20.2258065 19.3064516 7.35483871 19.3064516"></polygon>
                        <polygon id="Path" points="3.67741935 21.1451613 5.51612903 21.1451613 5.51612903 22.983871 3.67741935 22.983871"></polygon>
                        <polygon id="Path" points="7.35483871 21.1451613 20.2258065 21.1451613 20.2258065 22.983871 7.35483871 22.983871"></polygon>
                        <path d="M3.67741935,39.5322581 L9.19354839,39.5322581 L9.19354839,30.3387097 L3.67741935,30.3387097 L3.67741935,39.5322581 Z M5.51612903,32.1774194 L7.35483871,32.1774194 L7.35483871,37.6935484 L5.51612903,37.6935484 L5.51612903,32.1774194 Z" id="Shape" fill-rule="nonzero"></path>
                        <path d="M11.0322581,39.5322581 L16.5483871,39.5322581 L16.5483871,32.1774194 L11.0322581,32.1774194 L11.0322581,39.5322581 Z M12.8709677,34.016129 L14.7096774,34.016129 L14.7096774,37.6935484 L12.8709677,37.6935484 L12.8709677,34.016129 Z" id="Shape" fill-rule="nonzero"></path>
                        <path d="M18.3870968,39.5322581 L23.9032258,39.5322581 L23.9032258,24.8225806 L18.3870968,24.8225806 L18.3870968,39.5322581 Z M20.2258065,26.6612903 L22.0645161,26.6612903 L22.0645161,37.6935484 L20.2258065,37.6935484 L20.2258065,26.6612903 Z" id="Shape" fill-rule="nonzero"></path>
                    </g>
                </g>
            </g>
        </g>
    </g>
</svg>