<?xml version="1.0" encoding="UTF-8"?>
<svg width="638px" height="70px" viewBox="0 0 638 70" version="1.1" xmlns="http://www.w3.org/2000/svg" xmlns:xlink="http://www.w3.org/1999/xlink">
    <!-- Generator: Sketch 52.3 (67297) - http://www.bohemiancoding.com/sketch -->
    <title>Group 46</title>
    <desc>Created with Sketch.</desc>
    <defs>
        <circle id="path-1" cx="35.6128405" cy="35.0680934" r="31.3910506"></circle>
        <circle id="path-3" cx="35.6128405" cy="35.0680934" r="31.3910506"></circle>
    </defs>
    <g id="Page-1" stroke="none" stroke-width="1" fill="none" fill-rule="evenodd">
        <g id="Group-46">
            <g id="Group-44">
                <g id="Group-38">
                    <g id="Group-34">
                        <g id="Group-31">
                            <g id="Group-8" transform="translate(0.000000, 0.000000)">
                                <rect id="Rectangle" fill="#FFF60F" x="0" y="0" width="450.36965" height="70" rx="35"></rect>
                                <mask id="mask-2" fill="white">
                                    <use xlink:href="#path-1"></use>
                                </mask>
                                <use id="Mask" fill="#FFFFFF" xlink:href="#path-1"></use>
                                <path d="M48.7790599,57.1984436 L23.536026,57.1984436 C22.7973238,57.1984436 22.1984436,56.6004463 22.1984436,55.8628333 L22.1984436,14.2733535 C22.1984436,13.5357404 22.7973238,12.9377432 23.536026,12.9377432 L48.7791491,12.9377432 C49.5178513,12.9377432 50.1167315,13.5357404 50.1167315,14.2733535 L50.1167315,55.8627442 C50.1166423,56.6004463 49.5178513,57.1984436 48.7790599,57.1984436 Z" id="Path" fill="#FFF5F5" mask="url(#mask-2)"></path>
                                <path d="M50.1167315,14.2733562 L50.1167315,55.8628306 C50.1167315,56.6004451 49.5113039,57.1984436 48.7645257,57.1984436 L44.8054475,57.1984436 C46.2062425,57.1984436 47.3421855,56.0765287 47.3421855,54.6928336 L47.3421855,15.4433531 C47.3421855,14.0597471 46.2063327,12.9377432 44.8054475,12.9377432 L48.7645257,12.9377432 C49.5113039,12.9377432 50.1167315,13.5357416 50.1167315,14.2733562 Z" id="Path" fill="#EFE2DD" mask="url(#mask-2)"></path>
                                <path d="M48.7790599,57.1984436 L23.536026,57.1984436 C22.7973238,57.1984436 22.1984436,56.5963271 22.1984436,55.8536331 L22.1984436,51.8871595 L50.1167315,51.8871595 L50.1167315,55.8536331 C50.1166423,56.5963271 49.5178513,57.1984436 48.7790599,57.1984436 Z" id="Path" fill="#7CA1B1" mask="url(#mask-2)"></path>
                                <path d="M50.1167315,18.385214 L22.1984436,18.385214 L22.1984436,14.2654879 C22.1984436,13.5322187 22.7973238,12.9377432 23.536026,12.9377432 L48.7791491,12.9377432 C49.5178513,12.9377432 50.1167315,13.5322187 50.1167315,14.2654879 L50.1167315,18.385214 Z" id="Path" fill="#7CA1B1" mask="url(#mask-2)"></path>
                                <path d="M50.1167315,51.8871595 L50.1167315,55.8536331 C50.1167315,56.5963271 49.5119198,57.1984436 48.7659014,57.1984436 L44.8054475,57.1984436 C46.2048175,57.1984436 47.3387043,56.0688028 47.3387043,54.6755792 L47.3387043,51.8871595 L50.1167315,51.8871595 Z" id="Path" fill="#678D98" mask="url(#mask-2)"></path>
                                <path d="M50.1167315,14.2654879 L50.1167315,18.385214 L47.3387043,18.385214 L47.3387043,15.4285922 C47.3387043,14.0531372 46.2049075,12.9377432 44.8054475,12.9377432 L48.7659014,12.9377432 C49.5119198,12.9377432 50.1167315,13.5322187 50.1167315,14.2654879 Z" id="Path" fill="#678D98" mask="url(#mask-2)"></path>
                                <path d="M46.219637,32.5486381 L25.9594404,32.5486381 C25.4617921,32.5486381 25.0583658,32.1466566 25.0583658,31.6507907 L25.0583658,22.551544 C25.0583658,22.055678 25.4617921,21.6536965 25.9594404,21.6536965 L46.219548,21.6536965 C46.7171962,21.6536965 47.1206226,22.055678 47.1206226,22.551544 L47.1206226,31.6507907 C47.1207116,32.1466566 46.7172852,32.5486381 46.219637,32.5486381 Z" id="Path" fill="#C9F0FF" mask="url(#mask-2)"></path>
                                <path d="M47.1206226,22.5518926 L47.1206226,31.6504421 C47.1206226,32.1460781 46.725515,32.5486381 46.2375488,32.5486381 L43.8521401,32.5486381 C44.3401063,32.5486381 44.7352139,32.1460781 44.7352139,31.6504421 L44.7352139,22.5518926 C44.7352139,22.0562566 44.3401063,21.6536965 43.8521401,21.6536965 L46.2375488,21.6536965 C46.725515,21.6536965 47.1206226,22.0562566 47.1206226,22.5518926 Z" id="Path" fill="#9AE7FD" mask="url(#mask-2)"></path>
                                <path d="M27.2373541,32.5486381 L33.3303243,26.4689279 C33.5878944,26.2118869 34.0091456,26.2245385 34.2508296,26.4964584 L39.6303502,32.5486381 L27.2373541,32.5486381 Z" id="Path" fill="#A3E72D" mask="url(#mask-2)"></path>
                                <path d="M35,32.5485486 L39.7980799,27.6954564 C40.0533383,27.437237 40.4708087,27.4499466 40.7103236,27.7231131 L44.9416342,32.5486381 L35,32.5486381 L35,32.5485486 Z" id="Path" fill="#A3E72D" mask="url(#mask-2)"></path>
                                <path d="M29.5320275,35.5215353 C28.9536117,35.2735836 28.3189011,35.4434797 27.9409345,35.935959 C27.7442623,36.1922519 27.6458813,36.4131608 27.6458813,36.4131608 C27.6458813,36.4131608 27.5475902,36.1922519 27.3508281,35.935959 C26.9728614,35.4434797 26.3381508,35.2735836 25.7597351,35.5215353 C24.8895035,35.8946922 24.9069495,37.0982768 25.3883332,37.7639887 C25.8341953,38.3806194 26.4407585,38.9690659 27.1280769,39.3586416 C27.4469609,39.5393374 27.8448016,39.5393374 28.1636857,39.3586416 C28.8510041,38.9690659 29.4575672,38.3806194 29.9034294,37.7639887 C30.384903,37.0982768 30.402349,35.8946044 29.5320275,35.5215353 Z" id="Path" fill="#FF5757" mask="url(#mask-2)"></path>
                                <path d="M34.1754991,54.7470817 L38.139676,54.7470817 C38.511747,54.7470817 38.8132296,54.4422957 38.8132296,54.0661479 C38.8132296,53.69 38.511747,53.385214 38.139676,53.385214 L34.1754991,53.385214 C33.8034281,53.385214 33.5019455,53.69 33.5019455,54.0661479 C33.5019455,54.4422957 33.8034281,54.7470817 34.1754991,54.7470817 Z" id="Path" fill="#000000" mask="url(#mask-2)"></path>
                                <path d="M34.3394568,16.4785992 C34.7043409,16.4785992 35,16.1738132 35,15.7976654 C35,15.4215175 34.7043409,15.1167315 34.3394568,15.1167315 L32.5282475,15.1167315 C32.1633634,15.1167315 31.8677043,15.4215175 31.8677043,15.7976654 C31.8677043,16.1738132 32.1633634,16.4785992 32.5282475,16.4785992 L34.3394568,16.4785992 Z" id="Path" fill="#000000" mask="url(#mask-2)"></path>
                                <path d="M39.7725406,16.4785992 C40.1453721,16.4785992 40.4474708,16.1738132 40.4474708,15.7976654 C40.4474708,15.4215175 40.1453721,15.1167315 39.7725406,15.1167315 L36.355864,15.1167315 C35.9830326,15.1167315 35.6809339,15.4215175 35.6809339,15.7976654 C35.6809339,16.1738132 35.9830326,16.4785992 36.355864,16.4785992 L39.7725406,16.4785992 Z" id="Path" fill="#000000" mask="url(#mask-2)"></path>
                                <path d="M48.6627731,12.2568093 L30.182209,12.2568093 C29.8141807,12.2568093 29.5159738,12.5549983 29.5159738,12.9230045 C29.5159738,13.2910106 29.8141807,13.5891996 30.182209,13.5891996 L48.6627731,13.5891996 C49.0301796,13.5891996 49.3290083,13.8880103 49.3290083,14.2553947 L49.3290083,17.72334 L22.8499801,17.72334 L22.8499801,14.2553947 C22.8499801,13.8880103 23.1488087,13.5891996 23.5162152,13.5891996 L27.2116885,13.5891996 C27.5797168,13.5891996 27.8779236,13.2910106 27.8779236,12.9230045 C27.8779236,12.5549983 27.5797168,12.2568093 27.2116885,12.2568093 L23.5162152,12.2568093 C22.4141734,12.2568093 21.5175097,13.1534191 21.5175097,14.2553947 L21.5175097,51.8147647 L21.5175097,55.7446053 C21.5175097,56.8465809 22.4141734,57.7431907 23.5162152,57.7431907 L48.6627731,57.7431907 C49.7648149,57.7431907 50.6614786,56.8465809 50.6614786,55.7446053 L50.6614786,51.8147647 L50.6614786,14.2553947 C50.6614786,13.1534191 49.7648149,12.2568093 48.6627731,12.2568093 Z M49.3290083,55.7446053 C49.3290083,56.1119897 49.0301796,56.4108004 48.6627731,56.4108004 L23.5162152,56.4108004 C23.1488087,56.4108004 22.8499801,56.1119897 22.8499801,55.7446053 L22.8499801,52.4809599 L49.3290083,52.4809599 L49.3290083,55.7446053 Z M49.3290083,51.1485696 L22.8499801,51.1485696 L22.8499801,19.0557302 L49.3290083,19.0557302 L49.3290083,51.1485696 Z" id="Shape" fill="#000000" fill-rule="nonzero" mask="url(#mask-2)"></path>
                                <path d="M25.9481697,33.229572 L46.2308186,33.229572 C47.0969622,33.229572 47.8015564,32.5265115 47.8015564,31.6622533 L47.8015564,27.3206791 C47.8015564,26.9521128 47.5022621,26.65347 47.1328918,26.65347 C46.7635214,26.65347 46.4642272,26.9521128 46.4642272,27.3206791 L46.4642272,31.6622533 C46.4642272,31.7906243 46.3594697,31.8951538 46.2308186,31.8951538 L45.3490729,31.8951538 L41.2347348,27.2685478 C40.9979384,27.002109 40.6574543,26.8432243 40.300744,26.8325489 C39.940735,26.8236528 39.5946342,26.9601193 39.3423247,27.2118795 L37.4353823,29.1137814 L34.6856551,26.0217564 C34.4488586,25.7553176 34.1083746,25.5964328 33.7516643,25.5857575 C33.3929034,25.5765055 33.0456436,25.7133279 32.793245,25.9650881 L26.8473008,31.8952427 L25.9480806,31.8952427 C25.8194295,31.8952427 25.714672,31.7907133 25.714672,31.6623423 L25.714672,22.5400813 C25.714672,22.4117103 25.8194295,22.3071809 25.9480806,22.3071809 L46.2307295,22.3071809 C46.3593805,22.3071809 46.464138,22.4117103 46.464138,22.5400813 L46.464138,24.2366607 C46.464138,24.605227 46.7634323,24.9038698 47.1328026,24.9038698 C47.502173,24.9038698 47.8014673,24.605227 47.8014673,24.2366607 L47.8014673,22.5400813 C47.8014673,21.6758231 47.0968731,20.9727626 46.2307295,20.9727626 L25.9481697,20.9727626 C25.0820261,20.9727626 24.3774319,21.6758231 24.3774319,22.5400813 L24.3774319,31.6622533 C24.3774319,32.5265115 25.0820261,33.229572 25.9481697,33.229572 Z M33.7110986,26.9362777 L37.306553,30.979298 C37.5515517,31.2550778 37.9742369,31.2802538 38.2504399,31.0355215 C38.5199564,30.7969276 38.5498234,30.3901969 38.3235473,30.114595 L40.2601784,28.1830691 L43.5612419,31.8951538 L28.7390867,31.8951538 L33.7110986,26.9362777 Z" id="Shape" fill="#000000" fill-rule="nonzero" mask="url(#mask-2)"></path>
                                <path d="M26.8736979,39.9486967 C27.1329468,40.0996009 27.4234326,40.1750973 27.7140067,40.1750973 C28.0045808,40.1750973 28.2951548,40.0996009 28.5542273,39.9486967 C29.2636763,39.5357238 29.9439179,38.8968813 30.4698278,38.149972 C30.8775845,37.5706061 31.0202685,36.7604143 30.8333763,36.0859036 C30.6816037,35.5384002 30.3255555,35.1169306 29.8307943,34.8989382 C29.0931085,34.573941 28.2814777,34.7213049 27.7140067,35.2565944 C27.1464475,34.7213049 26.3350814,34.573941 25.5972191,34.8989382 C25.1024578,35.1169306 24.7463215,35.5384887 24.594637,36.0859036 C24.4077449,36.7605029 24.5504288,37.5706946 24.9582738,38.1500605 C25.4840073,38.8968813 26.1642489,39.5356353 26.8736979,39.9486967 Z M25.8698805,36.4414356 C25.9300601,36.2243283 26.0468015,36.1508676 26.1293941,36.1144913 C26.2178987,36.0755483 26.307374,36.0565193 26.3943786,36.0565193 C26.5856827,36.0565193 26.7649863,36.1485665 26.8948754,36.3223939 C27.0335886,36.5081698 27.1070925,36.6701374 27.1070925,36.6701374 C27.2115685,36.91123 27.4488457,37.0658515 27.7109183,37.0673561 C27.9722849,37.065232 28.2121211,36.9133542 28.3194208,36.6736776 C28.320215,36.671996 28.3937188,36.5093204 28.5332262,36.3224824 C28.7222361,36.0696184 29.0154574,35.9896967 29.2987075,36.1144913 C29.3813883,36.1508676 29.4981298,36.2243283 29.5582211,36.4414356 C29.6390489,36.7332427 29.5677511,37.1297534 29.388624,37.3842107 C28.9703668,37.9783572 28.4381035,38.4813416 27.8898689,38.8004973 C27.7830103,38.8627176 27.6450913,38.8627176 27.5382328,38.8004973 C26.9899981,38.4813416 26.4578231,37.9783572 26.0396541,37.3842107 C25.8603506,37.129842 25.7890527,36.7332427 25.8698805,36.4414356 Z" id="Shape" fill="#000000" fill-rule="nonzero" mask="url(#mask-2)"></path>
                                <path d="M32.6848249,42.3540856 C32.6848249,41.9779377 32.3850854,41.6731518 32.0151657,41.6731518 L25.8642118,41.6731518 C25.494292,41.6731518 25.1945525,41.9779377 25.1945525,42.3540856 C25.1945525,42.7302335 25.494292,43.0350195 25.8642118,43.0350195 L32.0151657,43.0350195 C32.3849961,43.0350195 32.6848249,42.7301427 32.6848249,42.3540856 Z" id="Path" fill="#000000" mask="url(#mask-2)"></path>
                                <path d="M38.0152439,43.0350195 C38.3808216,43.0350195 38.6770428,42.7302335 38.6770428,42.3540856 C38.6770428,41.9779377 38.3808216,41.6731518 38.0152439,41.6731518 L35.6617989,41.6731518 C35.2962212,41.6731518 35,41.9779377 35,42.3540856 C35,42.7302335 35.2962212,43.0350195 35.6617989,43.0350195 L38.0152439,43.0350195 Z" id="Path" fill="#000000" mask="url(#mask-2)"></path>
                                <path d="M47.132843,41.6731518 L41.5247446,41.6731518 C41.1553473,41.6731518 40.8560311,41.9779377 40.8560311,42.3540856 C40.8560311,42.7302335 41.1553473,43.0350195 41.5247446,43.0350195 L47.132843,43.0350195 C47.5022403,43.0350195 47.8015564,42.7302335 47.8015564,42.3540856 C47.8015564,41.9779377 47.5022403,41.6731518 47.132843,41.6731518 Z" id="Path" fill="#000000" mask="url(#mask-2)"></path>
                                <path d="M25.7344228,44.6692607 C25.3609689,44.6692607 25.0583658,44.9740467 25.0583658,45.3501946 C25.0583658,45.7263424 25.3609689,46.0311284 25.7344228,46.0311284 L29.6935928,46.0311284 C30.0670467,46.0311284 30.3696498,45.7263424 30.3696498,45.3501946 C30.3696498,44.9740467 30.0670467,44.6692607 29.6935928,44.6692607 L25.7344228,44.6692607 Z" id="Path" fill="#000000" mask="url(#mask-2)"></path>
                                <path d="M40.1750973,45.3501946 C40.1750973,44.9740467 39.8755581,44.6692607 39.5058854,44.6692607 L32.4007294,44.6692607 C32.0310567,44.6692607 31.7315175,44.9740467 31.7315175,45.3501946 C31.7315175,45.7263424 32.0310567,46.0311284 32.4007294,46.0311284 L39.5058854,46.0311284 C39.8755581,46.0311284 40.1750973,45.7262516 40.1750973,45.3501946 Z" id="Path" fill="#000000" mask="url(#mask-2)"></path>
                                <path d="M47.1416432,44.6692607 L42.877812,44.6692607 C42.513276,44.6692607 42.2178988,44.9740467 42.2178988,45.3501946 C42.2178988,45.7263424 42.513276,46.0311284 42.877812,46.0311284 L47.1416432,46.0311284 C47.5061793,46.0311284 47.8015564,45.7263424 47.8015564,45.3501946 C47.8015564,44.9740467 47.5061793,44.6692607 47.1416432,44.6692607 Z" id="Path" fill="#000000" mask="url(#mask-2)"></path>
                                <path d="M30.7941224,47.2568093 L25.8595741,47.2568093 C25.4922162,47.2568093 25.1945525,47.5615953 25.1945525,47.9377432 C25.1945525,48.3138911 25.4922162,48.618677 25.8595741,48.618677 L30.7941224,48.618677 C31.1614803,48.618677 31.459144,48.3138911 31.459144,47.9377432 C31.459144,47.5615953 31.1614803,47.2568093 30.7941224,47.2568093 Z" id="Path" fill="#000000" mask="url(#mask-2)"></path>
                                <path d="M42.2353427,47.2568093 L33.893062,47.2568093 C33.5265501,47.2568093 33.229572,47.5615953 33.229572,47.9377432 C33.229572,48.3138911 33.5265501,48.618677 33.893062,48.618677 L42.2353427,48.618677 C42.6018546,48.618677 42.8988327,48.3138911 42.8988327,47.9377432 C42.8988327,47.5615953 42.6017661,47.2568093 42.2353427,47.2568093 Z" id="Path" fill="#000000" mask="url(#mask-2)"></path>
                                <path d="M47.1325531,47.2568093 L45.2020772,47.2568093 C44.8325198,47.2568093 44.5330739,47.5615953 44.5330739,47.9377432 C44.5330739,48.3138911 44.8325198,48.618677 45.2020772,48.618677 L47.1325531,48.618677 C47.5021105,48.618677 47.8015564,48.3138911 47.8015564,47.9377432 C47.8015564,47.5615953 47.5021105,47.2568093 47.1325531,47.2568093 Z" id="Path" fill="#000000" mask="url(#mask-2)"></path>
                            </g>
                            <rect id="Rectangle" fill="#FFF60F" x="6.53699317e-13" y="0" width="450.36965" height="70" rx="35"></rect>
                            <mask id="mask-4" fill="white">
                                <use xlink:href="#path-3"></use>
                            </mask>
                            <use id="Mask" fill="#FFFFFF" xlink:href="#path-3"></use>
                            <g id="Group-20" transform="translate(449.000000, 24.000000)">
                                <g id="profile" transform="translate(0.221790, 0.677043)">
                                    <g id="Group-6" transform="translate(94.404669, 10.881323) scale(-1, 1) translate(-94.404669, -10.881323) translate(0.404669, 0.381323)"></g>
                                </g>
                                <g id="Group-7" transform="translate(94.626459, 11.558366) scale(-1, 1) translate(-94.626459, -11.558366) translate(0.626459, 1.058366)">
                                    <path d="M187.120623,9.98079869 L19.5026484,9.98079869" id="Line-2" stroke="#FFF60F" stroke-width="5" stroke-linecap="square"></path>
                                    <ellipse id="Oval" fill="#FFF60F" cx="9.73735409" cy="10.0097276" rx="9.73735409" ry="10.0097276"></ellipse>
                                </g>
                            </g>
                        </g>
                    </g>
                </g>
            </g>
            <g id="webompt" transform="translate(15.000000, 14.000000)">
                <path d="M35.3333333,10 L4.66666667,10 C3.19390733,10 2,11.1939073 2,12.6666667 L2,31.3333333 C2,32.8060927 3.19390733,34 4.66666667,34 L35.3333333,34 C36.8060927,34 38,32.8060927 38,31.3333333 L38,12.6666667 C38,11.1939073 36.8060927,10 35.3333333,10 Z" id="Path" fill="#57A4FF"></path>
                <path d="M35.3333333,10 L34,10 C35.4727593,10 36.6666667,11.1939073 36.6666667,12.6666667 L36.6666667,31.3333333 C36.6666667,32.8060927 35.4727593,34 34,34 L35.3333333,34 C36.8060927,34 38,32.8060927 38,31.3333333 L38,12.6666667 C38,11.1939073 36.8060927,10 35.3333333,10 Z" id="Path" fill="#2488FF"></path>
                <path d="M4.66666667,34 L0.666666667,34 L0.666666667,36.6666667 C0.666666667,38.139426 1.860574,39.3333333 3.33333333,39.3333333 L36.6666667,39.3333333 C38.139426,39.3333333 39.3333333,38.139426 39.3333333,36.6666667 L39.3333333,34 L4.66666667,34 Z" id="Path" fill="#005ECE"></path>
                <path d="M38,34 L38,36.6666667 C38,38.139426 36.8060927,39.3333333 35.3333333,39.3333333 L36.6666667,39.3333333 C38.139426,39.3333333 39.3333333,38.139426 39.3333333,36.6666667 L39.3333333,34 L38,34 Z" id="Path" fill="#004FAC"></path>
                <path d="M16.6666667,35.3333333 C16.6666667,36.069713 17.2636203,36.6666667 18,36.6666667 L22,36.6666667 C22.7363797,36.6666667 23.3333333,36.069713 23.3333333,35.3333333 L23.3333333,34 L16.6666667,34 L16.6666667,35.3333333 Z" id="Path" fill="#FFCD00"></path>
                <polygon id="Path" fill="#FFDAAA" points="4.66666667 12.6666667 35.3333333 12.6666667 35.3333333 31.3333333 4.66666667 31.3333333"></polygon>
                <path d="M27.3333333,0.666666667 L12.6666667,0.666666667 C11.1939073,0.666666667 10,1.860574 10,3.33333333 L10,10.6666667 C10,12.139426 11.1939073,13.3333333 12.6666667,13.3333333 L14.6666667,13.3333333 L14.6666667,18 L18.6666667,13.3333333 L27.3333333,13.3333333 C28.8060927,13.3333333 30,12.139426 30,10.6666667 L30,3.33333333 C30,1.860574 28.8060927,0.666666667 27.3333333,0.666666667 Z" id="Path" fill="#FFCD00"></path>
                <path d="M16,31.3333333 L35.3333333,31.3333333 L35.3333333,12.6666667 C35.3333333,23.7213333 26.686,31.3333333 16,31.3333333 Z" id="Path" fill="#FFC477"></path>
                <path d="M39.3333333,33.3333333 L37.9826667,33.3333333 C38.4238711,32.7597408 38.6642155,32.0569795 38.6666667,31.3333333 L38.6666667,12.6666667 C38.6644626,10.8266312 37.1733688,9.33553741 35.3333333,9.33333333 L30.6666667,9.33333333 L30.6666667,3.33333333 C30.6644626,1.4932979 29.1733688,0.00220407756 27.3333333,0 L12.6666667,0 C10.8266312,0.00220407756 9.33553741,1.4932979 9.33333333,3.33333333 L9.33333333,9.33333333 L4.66666667,9.33333333 C2.82663123,9.33553741 1.33553741,10.8266312 1.33333333,12.6666667 L1.33333333,31.3333333 C1.33578454,32.0569795 1.57612889,32.7597408 2.01733333,33.3333333 L0.666666667,33.3333333 C0.298476833,33.3333333 0,33.6318102 0,34 L0,36.6666667 C0.00220407756,38.5067021 1.4932979,39.9977959 3.33333333,40 L36.6666667,40 C38.5067021,39.9977959 39.9977959,38.5067021 40,36.6666667 L40,34 C40,33.6318102 39.7015232,33.3333333 39.3333333,33.3333333 Z M10.6666667,3.33333333 C10.6666667,2.22876383 11.5620972,1.33333333 12.6666667,1.33333333 L27.3333333,1.33333333 C28.4379028,1.33333333 29.3333333,2.22876383 29.3333333,3.33333333 L29.3333333,10.6666667 C29.3333333,11.7712362 28.4379028,12.6666667 27.3333333,12.6666667 L18.6666667,12.6666667 C18.4721322,12.6666818 18.2873086,12.7516665 18.1606667,12.8993333 L15.3333333,16.2 L15.3333333,13.3333333 C15.3333333,12.9651435 15.0348565,12.6666667 14.6666667,12.6666667 L12.6666667,12.6666667 C11.5620972,12.6666667 10.6666667,11.7712362 10.6666667,10.6666667 L10.6666667,3.33333333 Z M2.66666667,31.3333333 L2.66666667,12.6666667 C2.66666667,11.5620972 3.56209717,10.6666667 4.66666667,10.6666667 L9.33333333,10.6666667 C9.33553741,12.5067021 10.8266312,13.9977959 12.6666667,14 L14,14 L14,18 C14.0000253,18.278925 14.1736894,18.5283495 14.4352743,18.6251611 C14.6968591,18.7219728 14.9910612,18.645704 15.1726667,18.434 L18.9733333,14 L27.3333333,14 C29.1733688,13.9977959 30.6644626,12.5067021 30.6666667,10.6666667 L35.3333333,10.6666667 C36.4379028,10.6666667 37.3333333,11.5620972 37.3333333,12.6666667 L37.3333333,31.3333333 C37.3333333,32.4379028 36.4379028,33.3333333 35.3333333,33.3333333 L4.66666667,33.3333333 C3.56209717,33.3333333 2.66666667,32.4379028 2.66666667,31.3333333 Z M17.3333333,34.6666667 L22.6666667,34.6666667 L22.6666667,35.3333333 C22.6666667,35.7015232 22.3681898,36 22,36 L18,36 C17.6318102,36 17.3333333,35.7015232 17.3333333,35.3333333 L17.3333333,34.6666667 Z M38.6666667,36.6666667 C38.6666667,37.7712362 37.7712362,38.6666667 36.6666667,38.6666667 L3.33333333,38.6666667 C2.22876383,38.6666667 1.33333333,37.7712362 1.33333333,36.6666667 L1.33333333,34.6666667 L16,34.6666667 L16,35.3333333 C16,36.4379028 16.8954305,37.3333333 18,37.3333333 L22,37.3333333 C23.1045695,37.3333333 24,36.4379028 24,35.3333333 L24,34.6666667 L38.6666667,34.6666667 L38.6666667,36.6666667 Z" id="Shape" fill="#000000" fill-rule="nonzero"></path>
                <path d="M36,31.3333333 L36,12.6666667 C36,12.2984768 35.7015232,12 35.3333333,12 L32,12 C31.6318102,12 31.3333333,12.2984768 31.3333333,12.6666667 C31.3333333,13.0348565 31.6318102,13.3333333 32,13.3333333 L34.6666667,13.3333333 L34.6666667,30.6666667 L5.33333333,30.6666667 L5.33333333,13.3333333 L8,13.3333333 C8.36818983,13.3333333 8.66666667,13.0348565 8.66666667,12.6666667 C8.66666667,12.2984768 8.36818983,12 8,12 L4.66666667,12 C4.29847683,12 4,12.2984768 4,12.6666667 L4,31.3333333 C4,31.7015232 4.29847683,32 4.66666667,32 L35.3333333,32 C35.7015232,32 36,31.7015232 36,31.3333333 Z" id="Path" fill="#000000"></path>
                <path d="M8,18 C8,18.3681898 8.29847683,18.6666667 8.66666667,18.6666667 L10,18.6666667 C10.3681898,18.6666667 10.6666667,18.3681898 10.6666667,18 C10.6666667,17.6318102 10.3681898,17.3333333 10,17.3333333 L8.66666667,17.3333333 C8.29847683,17.3333333 8,17.6318102 8,18 Z" id="Path" fill="#000000"></path>
                <path d="M10,20 L8.66666667,20 C8.29847683,20 8,20.2984768 8,20.6666667 C8,21.0348565 8.29847683,21.3333333 8.66666667,21.3333333 L10,21.3333333 C10.3681898,21.3333333 10.6666667,21.0348565 10.6666667,20.6666667 C10.6666667,20.2984768 10.3681898,20 10,20 Z" id="Path" fill="#000000"></path>
                <path d="M10,22.6666667 L8.66666667,22.6666667 C8.29847683,22.6666667 8,22.9651435 8,23.3333333 C8,23.7015232 8.29847683,24 8.66666667,24 L10,24 C10.3681898,24 10.6666667,23.7015232 10.6666667,23.3333333 C10.6666667,22.9651435 10.3681898,22.6666667 10,22.6666667 Z" id="Path" fill="#000000"></path>
                <path d="M10,25.3333333 L8.66666667,25.3333333 C8.29847683,25.3333333 8,25.6318102 8,26 C8,26.3681898 8.29847683,26.6666667 8.66666667,26.6666667 L10,26.6666667 C10.3681898,26.6666667 10.6666667,26.3681898 10.6666667,26 C10.6666667,25.6318102 10.3681898,25.3333333 10,25.3333333 Z" id="Path" fill="#000000"></path>
                <path d="M10,28 L8.66666667,28 C8.29847683,28 8,28.2984768 8,28.6666667 C8,29.0348565 8.29847683,29.3333333 8.66666667,29.3333333 L10,29.3333333 C10.3681898,29.3333333 10.6666667,29.0348565 10.6666667,28.6666667 C10.6666667,28.2984768 10.3681898,28 10,28 Z" id="Path" fill="#000000"></path>
                <path d="M18.6666667,18.6666667 L31.3333333,18.6666667 C31.7015232,18.6666667 32,18.3681898 32,18 C32,17.6318102 31.7015232,17.3333333 31.3333333,17.3333333 L18.6666667,17.3333333 C18.2984768,17.3333333 18,17.6318102 18,18 C18,18.3681898 18.2984768,18.6666667 18.6666667,18.6666667 Z" id="Path" fill="#000000"></path>
                <path d="M18,21.3333333 L28.6666667,21.3333333 C29.0348565,21.3333333 29.3333333,21.0348565 29.3333333,20.6666667 C29.3333333,20.2984768 29.0348565,20 28.6666667,20 L18,20 C17.6318102,20 17.3333333,20.2984768 17.3333333,20.6666667 C17.3333333,21.0348565 17.6318102,21.3333333 18,21.3333333 Z" id="Path" fill="#000000"></path>
                <path d="M12.6666667,24 L20.6666667,24 C21.0348565,24 21.3333333,23.7015232 21.3333333,23.3333333 C21.3333333,22.9651435 21.0348565,22.6666667 20.6666667,22.6666667 L12.6666667,22.6666667 C12.2984768,22.6666667 12,22.9651435 12,23.3333333 C12,23.7015232 12.2984768,24 12.6666667,24 Z" id="Path" fill="#000000"></path>
                <path d="M12.6666667,26.6666667 L20.6666667,26.6666667 C21.0348565,26.6666667 21.3333333,26.3681898 21.3333333,26 C21.3333333,25.6318102 21.0348565,25.3333333 20.6666667,25.3333333 L12.6666667,25.3333333 C12.2984768,25.3333333 12,25.6318102 12,26 C12,26.3681898 12.2984768,26.6666667 12.6666667,26.6666667 Z" id="Path" fill="#000000"></path>
                <path d="M12.6666667,29.3333333 L20.6666667,29.3333333 C21.0348565,29.3333333 21.3333333,29.0348565 21.3333333,28.6666667 C21.3333333,28.2984768 21.0348565,28 20.6666667,28 L12.6666667,28 C12.2984768,28 12,28.2984768 12,28.6666667 C12,29.0348565 12.2984768,29.3333333 12.6666667,29.3333333 Z" id="Path" fill="#000000"></path>
                <path d="M12.2966667,7.22133333 L16.2966667,9.888 C16.49483,10.0201883 16.748462,10.0366164 16.9620221,9.93109608 C17.1755822,9.82557575 17.3166254,9.61413801 17.3320221,9.3764294 C17.3474189,9.1387208 17.23483,8.91085493 17.0366667,8.77866667 L13.992,6.74933333 L16.9646667,5.26666667 C17.2941966,5.10208581 17.4279142,4.7015299 17.2633333,4.372 C17.0987525,4.0424701 16.6981966,3.90875248 16.3686667,4.07333333 L12.3686667,6.07333333 C12.1559033,6.17949465 12.0157885,6.39094093 12.0009478,6.62825556 C11.986107,6.8655702 12.0987871,7.0928253 12.2966667,7.22466667 L12.2966667,7.22133333 Z" id="Path" fill="#000000"></path>
                <path d="M23.0353333,5.26666667 L26.008,6.75266667 L22.9633333,8.782 C22.76517,8.91418827 22.6525812,9.14205413 22.6679779,9.37976273 C22.6833747,9.61747133 22.8244179,9.82890907 23.0379779,9.9344294 C23.251538,10.0399497 23.50517,10.0235216 23.7033333,9.89133333 L27.7033333,7.22466667 C27.9012129,7.0928253 28.013893,6.8655702 27.9990522,6.62825556 C27.9842115,6.39094093 27.8440967,6.17949465 27.6313333,6.07333333 L23.6313333,4.07333333 C23.3018034,3.90875249 22.9012475,4.04247011 22.7366667,4.37200001 C22.5720858,4.7015299 22.7058034,5.10208581 23.0353333,5.26666667 Z" id="Path" fill="#000000"></path>
                <path d="M18.4386667,11.2933333 C18.6049552,11.3535819 18.7883697,11.3452827 18.9485375,11.2702626 C19.1087054,11.1952425 19.232498,11.0596508 19.2926667,10.8933333 L21.9593333,3.56 C22.0510748,3.33396234 22.012032,3.07586664 21.8575387,2.88707755 C21.7030453,2.69828845 21.4577749,2.60895674 21.2180551,2.65416659 C20.9783352,2.69937644 20.7824507,2.87190757 20.7073333,3.104 L18.0406667,10.4373333 C17.9796979,10.6036116 17.9873972,10.787316 18.0620657,10.9479095 C18.1367342,11.108503 18.2722345,11.2327859 18.4386667,11.2933333 Z" id="Path" fill="#000000"></path>
                <path d="M12.6666667,21.3333333 L15.3333333,21.3333333 C15.7015232,21.3333333 16,21.0348565 16,20.6666667 C16,20.2984768 15.7015232,20 15.3333333,20 L12.6666667,20 C12.2984768,20 12,20.2984768 12,20.6666667 C12,21.0348565 12.2984768,21.3333333 12.6666667,21.3333333 Z" id="Path" fill="#000000"></path>
                <path d="M29.3333333,23.3333333 C29.3333333,22.9651435 29.0348565,22.6666667 28.6666667,22.6666667 L23.3333333,22.6666667 C22.9651435,22.6666667 22.6666667,22.9651435 22.6666667,23.3333333 C22.6666667,23.7015232 22.9651435,24 23.3333333,24 L28.6666667,24 C29.0348565,24 29.3333333,23.7015232 29.3333333,23.3333333 Z" id="Path" fill="#000000"></path>
                <path d="M24.6666667,25.3333333 L23.3333333,25.3333333 C22.9651435,25.3333333 22.6666667,25.6318102 22.6666667,26 C22.6666667,26.3681898 22.9651435,26.6666667 23.3333333,26.6666667 L24.6666667,26.6666667 C25.0348565,26.6666667 25.3333333,26.3681898 25.3333333,26 C25.3333333,25.6318102 25.0348565,25.3333333 24.6666667,25.3333333 Z" id="Path" fill="#000000"></path>
                <path d="M24.6666667,28 L23.3333333,28 C22.9651435,28 22.6666667,28.2984768 22.6666667,28.6666667 C22.6666667,29.0348565 22.9651435,29.3333333 23.3333333,29.3333333 L24.6666667,29.3333333 C25.0348565,29.3333333 25.3333333,29.0348565 25.3333333,28.6666667 C25.3333333,28.2984768 25.0348565,28 24.6666667,28 Z" id="Path" fill="#000000"></path>
            </g>
        </g>
    </g>
</svg>