<?xml version="1.0" encoding="UTF-8"?>
<svg width="124px" height="93px" viewBox="0 0 124 93" version="1.1" xmlns="http://www.w3.org/2000/svg" xmlns:xlink="http://www.w3.org/1999/xlink">
    <!-- Generator: Sketch 52.3 (67297) - http://www.bohemiancoding.com/sketch -->
    <title>Artboard</title>
    <desc>Created with Sketch.</desc>
    <g id="Artboard" stroke="none" stroke-width="1" fill="none" fill-rule="evenodd">
        <g id="noun_Business-paper_2790066" transform="translate(37.000000, 14.000000)" fill="#FFFFFF">
            <g id="Group">
                <path d="M44.9010152,3.5236697 L18.4091621,3.5236697 L18.4091621,8.93889848 L44.9010152,8.93889848 L44.9010152,3.5236697 Z M43.9161667,7.95405 L19.3940106,7.95405 L19.3940106,4.50851818 L43.9161667,4.50851818 L43.9161667,7.95405 Z" id="Shape" fill-rule="nonzero"></path>
                <path d="M5.01368636,28.6661621 C4.475575,29.4307689 4.1908947,30.3381886 4.1908947,31.2898576 C4.1908947,32.3381795 4.53664545,33.3244758 5.19017121,34.1424515 L5.36954167,34.3670265 L6.66984697,32.9489038 L6.56260682,32.7882848 C6.25676212,32.3295227 6.10143182,31.8255561 6.10143182,31.2898576 C6.10143182,30.8070553 6.2221447,30.3627114 6.46018258,29.9698356 L6.56020379,29.8048932 L5.1824697,28.4271591 L5.01368636,28.6661621 Z M5.94371818,29.8847152 C5.72443182,30.3098152 5.60900758,30.7916621 5.60900758,31.2898576 C5.60900758,31.8606659 5.75712879,32.4002152 6.04951061,32.8969727 L5.40223864,33.6029121 C4.93096894,32.921978 4.68331894,32.1280424 4.68331894,31.2898674 C4.68331894,30.5406538 4.88048561,29.8226894 5.25556515,29.1965818 L5.94371818,29.8847152 Z" id="Shape" fill-rule="nonzero"></path>
                <path d="M8.71696288,47.5504348 C11.242075,47.5504348 13.2964098,45.4961 13.2964098,42.9608833 L13.2964098,42.7146712 L8.963175,42.7146712 L8.963175,38.3814364 L8.71696288,38.3814364 C6.19185076,38.3814364 4.13751591,40.4400947 4.13751591,42.9709879 C4.13751591,45.4961 6.19185076,47.5504348 8.71696288,47.5504348 Z M8.47075076,38.8810795 L8.47075076,43.2071053 L12.7972591,43.2071053 C12.6746356,45.3513667 10.8915182,47.0580205 8.71696288,47.0580205 C6.46354091,47.0580205 4.62994015,45.2244098 4.62994015,42.9709977 C4.62994015,40.7945121 6.3313053,39.0094742 8.47075076,38.8810795 Z" id="Shape" fill-rule="nonzero"></path>
                <path d="M9.70181136,37.3965879 L9.45559924,37.3965879 L9.45559924,42.222247 L14.2822235,42.222247 L14.2812583,41.9750697 C14.2711636,39.4504402 12.2168386,37.3965879 9.70181136,37.3965879 Z M9.94802348,41.7298326 L9.94802348,37.8962311 C11.9975424,38.0198197 13.6493795,39.6721295 13.7806598,41.7298326 L9.94802348,41.7298326 Z" id="Shape" fill-rule="nonzero"></path>
                <path d="M4.44432576,56.9800735 L18.4687947,56.9800735 L18.4687947,51.7018962 L4.44432576,51.7018962 L4.44432576,56.9800735 Z M5.23200758,52.4895879 L17.6811129,52.4895879 L17.6811129,56.1923917 L5.23200758,56.1923917 L5.23200758,52.4895879 Z" id="Shape" fill-rule="nonzero"></path>
                <path d="M19.6609045,56.9800735 L30.648603,56.9800735 L30.648603,51.7018962 L19.6609045,51.7018962 L19.6609045,56.9800735 Z M20.4485864,52.4895879 L29.8609015,52.4895879 L29.8609015,56.1923917 L20.4485864,56.1923917 L20.4485864,52.4895879 Z" id="Shape" fill-rule="nonzero"></path>
                <path d="M31.8407129,56.9800735 L44.3470379,56.9800735 L44.3470379,51.7018962 L31.8407129,51.7018962 L31.8407129,56.9800735 Z M32.6283947,52.4895879 L43.5593462,52.4895879 L43.5593462,56.1923917 L32.6283947,56.1923917 L32.6283947,52.4895879 Z" id="Shape" fill-rule="nonzero"></path>
                <path d="M9.00645909,25.0580909 C11.691225,25.0580909 13.8758848,22.8734409 13.8758848,20.1886652 C13.8758848,17.5038894 11.6912348,15.319722 9.00645909,15.319722 C6.32168333,15.319722 4.13751591,17.5038894 4.13751591,20.1886652 C4.13751591,22.8734409 6.32169318,25.0580909 9.00645909,25.0580909 Z M9.00645909,15.8121561 C11.4200076,15.8121561 13.3834606,17.7755992 13.3834606,20.188675 C13.3834606,22.6022235 11.4200174,24.5656765 9.00645909,24.5656765 C6.59338333,24.5656765 4.62994015,22.6022333 4.62994015,20.188675 C4.62994015,17.7755992 6.59338333,15.8121561 9.00645909,15.8121561 Z" id="Shape" fill-rule="nonzero"></path>
                <path d="M7.47304015,21.3331773 L6.89850909,22.0172333 C7.47034167,22.515547 8.11508258,22.8014288 8.83340152,22.8748886 L8.83340152,23.448947 L9.33712197,23.448947 L9.33712197,22.8825902 C9.87192424,22.8563833 10.3015939,22.6991326 10.6267318,22.4103652 C10.9518106,22.1223167 11.1146455,21.7487932 11.1146455,21.2896667 C11.1146455,20.8311409 10.9730833,20.4810667 10.6899098,20.2396606 C10.4067265,19.9985008 9.96341667,19.8073515 9.36057121,19.6657303 L9.33713182,19.6657303 L9.33713182,18.1866553 C9.74071288,18.2449583 10.1159205,18.3969205 10.4617402,18.6430144 L10.973103,17.9192886 C10.4589826,17.568003 9.91389848,17.371447 9.33714167,17.3294826 L9.33714167,16.9286689 L8.83340152,16.9286689 L8.83340152,17.3219091 C8.32474697,17.3479977 7.91196742,17.5053667 7.59500379,17.7934152 C7.27755758,18.0821826 7.11904621,18.4529485 7.11904621,18.9066583 C7.11904621,19.36025 7.25681667,19.702278 7.53182576,19.9331068 C7.80743561,20.1640538 8.24088712,20.3497962 8.83339167,20.4914076 L8.83339167,22.017253 C8.36670152,21.9442561 7.91359242,21.7160765 7.47304015,21.3331773 Z M9.33712197,20.6253174 C9.65137727,20.7195674 9.86645833,20.8208 9.98192197,20.9280303 C10.0973856,21.0352606 10.1550977,21.1812152 10.1550977,21.3641902 C10.1550977,21.5483667 10.0815788,21.7003288 9.93455076,21.8205492 C9.78806439,21.9414886 9.58873106,22.0150667 9.33711212,22.0412735 L9.33711212,20.6253174 L9.33712197,20.6253174 Z M8.23602197,19.22895 C8.13088939,19.1266439 8.07859394,18.9876621 8.07859394,18.8123886 C8.07859394,18.6363864 8.14561288,18.4899591 8.27900076,18.3717773 C8.41298939,18.2535955 8.59758939,18.1844689 8.83340152,18.1631962 L8.83340152,19.5240992 C8.53987727,19.4293568 8.34055379,19.3313742 8.23602197,19.22895 Z" id="Shape" fill-rule="nonzero"></path>
                <path d="M1.08090076,13.040103 L0.936758333,13.1841273 L0.936758333,59.0526773 C0.936758333,60.057725 1.52596364,60.9204227 2.37267727,61.3359106 L2.37267727,61.8831515 C2.37267727,63.2897318 3.51669697,64.4337515 4.92327727,64.4337515 L47.724753,64.4337515 C49.1313333,64.4337515 50.275353,63.2897318 50.275353,61.8831515 L50.275353,5.95357652 C50.275353,4.59111742 49.1992583,3.48471894 47.8536303,3.41595682 L47.8536303,3.11683864 C47.8536303,1.71025833 46.7096106,0.566238636 45.3030303,0.566238636 L13.5652341,0.566238636 L7.25099621,6.87518788 L1.08102879,13.0398667 L1.08090076,13.040103 Z M13.276703,2.24692197 L13.276703,11.3298447 C13.276703,12.193025 12.5741318,12.8955962 11.7104689,12.8955962 L2.61888939,12.8955962 L13.276703,2.24692197 Z M49.2905144,5.95357652 L49.2905144,61.8831614 C49.2905144,62.7463417 48.5879432,63.4489129 47.7247629,63.4489129 L4.92327727,63.4489129 C4.06009697,63.4489129 3.35752576,62.7463417 3.35752576,61.8831614 L3.35752576,61.6076106 L45.2626318,61.6076106 C45.4387523,61.6076106 45.6107955,61.589578 45.7769985,61.5554333 C46.9573295,61.3321879 47.8536303,60.2969644 47.8536303,59.0526773 L47.8536303,4.39647197 C48.6564098,4.46283106 49.2905144,5.13378864 49.2905144,5.95357652 Z M46.8687818,3.11683864 C46.8248871,63.9035485 46.8286098,58.744597 46.8283833,59.0565182 C46.8283833,59.8117492 46.2910598,60.4437462 45.5788667,60.5905379 C45.4889402,60.60665 45.3974576,60.6184288 45.3030205,60.6184288 L3.48736818,60.6184288 C2.62418788,60.6184288 1.92161667,59.9158576 1.92161667,59.0526773 L1.92161667,13.8804447 L11.7104689,13.8804447 C13.1170492,13.8804447 14.2615515,12.736425 14.2615515,11.3298447 L14.2615515,1.55108712 L45.3030303,1.55108712 C46.1662106,1.55108712 46.8687818,2.25365833 46.8687818,3.11683864 Z" id="Shape" fill-rule="nonzero"></path>
                <path d="M6.98675152,29.2504333 C7.4652303,28.8378311 8.07979545,28.6108629 8.71697273,28.6108629 C9.4705197,28.6108629 10.1653894,28.9118917 10.6736894,29.4581773 L10.8035318,29.5976318 L12.4996083,28.6777045 L12.3173523,28.4483235 C11.4354106,27.3374833 10.1230803,26.7003159 8.71698258,26.7003159 C7.57825152,26.7003159 6.49097879,27.1182068 5.65616212,27.8770326 L5.46476667,28.0506318 L6.8136447,29.3995098 L6.98675152,29.2504333 Z M8.71696288,27.1927303 C9.87396288,27.1927303 10.9597977,27.6764977 11.7402705,28.5295833 L10.8992098,28.9859424 C10.3115705,28.4252288 9.54407803,28.1184288 8.71696288,28.1184288 C8.03891439,28.1184288 7.38251288,28.3357848 6.84440152,28.7339591 L6.18414924,28.0737068 C6.89874545,27.5038636 7.78837879,27.1927303 8.71696288,27.1927303 Z" id="Shape" fill-rule="nonzero"></path>
                <path d="M12.046125,34.4151167 C12.8525682,33.5764591 13.2964197,32.4627333 13.2964197,31.2797629 C13.2964197,30.6055652 13.1531144,29.9544523 12.869872,29.3446932 L12.7602288,29.108103 L11.0829038,30.0063932 L11.168497,30.2126894 C11.3127576,30.5584402 11.385853,30.9176636 11.385853,31.2797727 C11.385853,31.9342538 11.1526212,32.5584409 10.7284864,33.0374023 L10.5818129,33.2033098 L11.8643318,34.6041189 L12.046125,34.4151167 Z M11.878297,31.2797629 C11.878297,30.9253553 11.819147,30.5743061 11.7027773,30.2328788 L12.5260515,29.7919129 C12.7107106,30.2660682 12.8040053,30.7652189 12.8040053,31.2797629 C12.8040053,32.2453773 12.4731553,33.1580955 11.867247,33.8779705 L11.2387364,33.1917477 C11.6527568,32.6493129 11.878297,31.9784833 11.878297,31.2797629 Z" id="Shape" fill-rule="nonzero"></path>
                <path d="M8.71696288,35.8592098 C9.63400455,35.8592098 10.5159462,35.5927985 11.2670902,35.0888318 L11.505128,34.929178 L10.2048227,33.5105727 L10.0345917,33.6057879 C9.1276447,34.1131227 7.94996288,34.038097 7.12957424,33.4350742 L6.95260682,33.3052318 L5.65710758,34.7065235 L5.86628939,34.8709833 C6.68859848,35.5177826 7.67392955,35.8592098 8.71696288,35.8592098 Z M7.02041364,33.9568371 C7.91725606,34.5228394 9.12187348,34.5959348 10.1004682,34.1261129 L10.7477402,34.8320523 C9.41906136,35.5913705 7.66431742,35.5230811 6.38613182,34.6430697 L7.02041364,33.9568371 Z" id="Shape" fill-rule="nonzero"></path>
                <rect id="Rectangle" x="16.1769045" y="16.8595227" width="13.0396205" height="1"></rect>
                <rect id="Rectangle" x="16.1769045" y="19.7948341" width="15.0093174" height="1"></rect>
                <rect id="Rectangle" x="16.1769045" y="22.7301356" width="15.0093174" height="1"></rect>
                <rect id="Rectangle" x="16.1769045" y="28.5170856" width="8.11537803" height="1"></rect>
                <rect id="Rectangle" x="16.1769045" y="31.452397" width="12.054772" height="1"></rect>
                <rect id="Rectangle" x="16.1769045" y="34.3872258" width="15.0093174" height="1"></rect>
                <rect id="Rectangle" x="16.1769045" y="40.1741758" width="9.76481212" height="1"></rect>
                <rect id="Rectangle" x="16.1769045" y="43.1094871" width="15.0093174" height="1"></rect>
                <rect id="Rectangle" x="16.1769045" y="46.0447886" width="15.0093174" height="1"></rect>
                <rect id="Rectangle" x="27.8368803" y="5.83767955" width="14.0114886" height="1"></rect>
                <rect id="Rectangle" x="21.7277371" y="5.83767955" width="3.75905833" height="1"></rect>
                <path d="M35.5098447,42.4771258 L35.5098447,46.2919758 L38.8067826,48.1948311 L42.1037205,46.2919758 L42.1037205,42.4771258 L38.8067826,40.5737879 L35.5098447,42.4771258 Z M41.3160288,45.8370545 L38.8067826,47.2849886 L36.2975364,45.8370545 L36.2975364,42.9320371 L38.8067826,41.4836205 L41.3160288,42.9320371 L41.3160288,45.8370545 Z" id="Shape" fill-rule="nonzero"></path>
                <path d="M35.4112614,37.6884871 L38.8067727,39.6480894 L42.2022841,37.6884871 L42.2022841,33.7606356 L38.8067727,31.8005606 L35.4112614,33.7606356 L35.4112614,37.6884871 Z M36.3961098,34.3290409 L38.8067727,32.9373614 L41.2174356,34.3290409 L41.2174356,37.1200818 L38.8067727,38.5112788 L36.3961098,37.1200818 L36.3961098,34.3290409 Z" id="Shape" fill-rule="nonzero"></path>
                <path d="M35.4112614,29.0287439 L38.8067727,30.9883462 L42.2022841,29.0287439 L42.2022841,25.1004098 L38.8067727,23.1408076 L35.4112614,25.1004098 L35.4112614,29.0287439 Z M36.3961098,25.6688152 L38.8067727,24.2776182 L41.2174356,25.6688152 L41.2174356,28.4603386 L38.8067727,29.8515356 L36.3961098,28.4603386 L36.3961098,25.6688152 Z" id="Shape" fill-rule="nonzero"></path>
                <path d="M42.2022939,20.3690008 L42.2022939,16.4406667 L38.8067826,14.4810644 L35.4112712,16.4406667 L35.4112712,20.3690008 L38.8067826,22.328603 L42.2022939,20.3690008 Z M36.3961098,17.009072 L38.8067727,15.617875 L41.2174356,17.009072 L41.2174356,19.8005955 L38.8067727,21.1917924 L36.3961098,19.8005955 L36.3961098,17.009072 Z" id="Shape" fill-rule="nonzero"></path>
            </g>
        </g>
    </g>
</svg>