<?xml version="1.0" encoding="UTF-8"?>
<svg width="124px" height="93px" viewBox="0 0 124 93" version="1.1" xmlns="http://www.w3.org/2000/svg" xmlns:xlink="http://www.w3.org/1999/xlink">
    <!-- Generator: Sketch 52.3 (67297) - http://www.bohemiancoding.com/sketch -->
    <title>Artboard</title>
    <desc>Created with Sketch.</desc>
    <g id="Artboard" stroke="none" stroke-width="1" fill="none" fill-rule="evenodd">
        <g id="noun_Organic-Content_1545765" transform="translate(34.000000, 14.000000)" fill="#FFFFFF">
            <g id="Group">
                <path d="M55.4647826,20.9342391 L48.7224457,20.9342391 L48.7224457,14.0838043 C48.7224457,14.0788587 48.7210326,14.0746196 48.7210326,14.0696739 C48.7139674,11.8307065 46.94625,9.99940217 44.7327174,9.88918478 C44.6677174,9.86233696 44.5970652,9.84679348 44.5221739,9.84679348 L40.8744022,9.84679348 C40.8729891,9.84679348 40.8715761,9.8475 40.870163,9.8475 L29.4831522,9.8475 L29.4831522,5.69527174 C29.9918478,5.41619565 30.3380435,4.87570652 30.3380435,4.25538043 C30.3380435,3.63505435 29.9918478,3.0938587 29.4831522,2.81548913 L29.4831522,0.716413043 C29.4831522,0.411902174 29.2358696,0.164619565 28.9313587,0.164619565 L24.471087,0.164619565 C24.1665761,0.164619565 23.9192935,0.411902174 23.9192935,0.716413043 L23.9192935,2.81548913 C23.4105978,3.09456522 23.0651087,3.63505435 23.0651087,4.25538043 C23.0651087,4.87570652 23.4105978,5.41619565 23.9192935,5.69527174 L23.9192935,9.8475 L14.8517935,9.8475 C12.5365217,9.8475 10.6529348,11.731087 10.6529348,14.0463587 L10.6529348,27.3240217 L7.51315217,27.3240217 C7.51173913,27.3240217 7.50961957,27.3247283 7.5075,27.3247283 C5.34978261,27.3275543 3.59548913,29.0832609 3.59548913,31.2409783 C3.59548913,31.2423913 3.59619565,31.2438043 3.59619565,31.2452174 L3.59619565,59.6403261 L2.53782609,59.6403261 C1.41516304,59.6403261 0.502336957,60.5545652 0.502336957,61.6779348 L0.502336957,62.7956522 C0.502336957,63.9190217 1.41516304,64.8325543 2.53782609,64.8325543 L51.2242391,64.8325543 C52.3476087,64.8325543 53.2618478,63.9190217 53.2618478,62.7956522 L53.2618478,61.6779348 C53.2618478,60.5545652 52.3476087,59.6403261 51.2242391,59.6403261 L50.1679891,59.6403261 L50.1679891,37.6208696 C50.6830435,37.8420109 51.2411957,37.9571739 51.8184239,37.9571739 C54.1294565,37.9571739 56.0095109,36.0792391 56.0144565,33.7682065 C56.015163,33.7646739 56.0158696,33.7611413 56.0158696,33.7576087 L56.0158696,21.4853261 C56.0165761,21.1808152 55.77,20.9342391 55.4647826,20.9342391 Z M44.5228804,10.9871196 C46.229837,10.9871196 47.6188587,12.3761413 47.6188587,14.0830978 C47.6188587,14.0866304 47.6202717,14.090163 47.6202717,14.0936957 L47.6202717,21.4747283 C47.6202717,21.4782609 47.6188587,21.4817935 47.6188587,21.4853261 C47.6188587,21.4888587 47.6202717,21.4923913 47.6202717,21.4966304 L47.6202717,27.5720109 C47.1949457,27.4130435 46.7357065,27.3254348 46.2552717,27.3247283 C46.2538587,27.3247283 46.2531522,27.3247283 46.2517391,27.3247283 L41.4261957,27.3247283 L41.4261957,14.0880435 C41.4261957,14.0866304 41.4269022,14.0845109 41.4269022,14.0830978 C41.4269022,12.3754348 42.8159239,10.9871196 44.5228804,10.9871196 Z M29.4838587,17.63125 C30.5747283,15.9242935 32.9288587,14.8178804 36.4918478,14.3367391 C36.0092935,17.9110326 34.8965217,20.2722283 33.1789674,21.3588587 C31.7828804,22.2420109 30.3083696,22.0583152 29.4845652,21.8392935 L29.4845652,17.63125 L29.4838587,17.63125 Z M25.023587,1.26820652 L28.3802717,1.26820652 L28.3802717,2.61483696 L25.023587,2.61483696 L25.023587,1.26820652 Z M24.5805978,3.73396739 C24.5869565,3.73255435 24.5933152,3.72972826 24.5996739,3.72831522 C24.6342935,3.72125 24.6696196,3.71771739 24.7056522,3.71771739 L28.6982065,3.71771739 C28.7342391,3.71771739 28.7695652,3.72125 28.8027717,3.72831522 C28.809837,3.72972826 28.8169022,3.73255435 28.8232609,3.73396739 C29.0585326,3.79119565 29.2344565,4.00244565 29.2344565,4.25538043 C29.2344565,4.55141304 28.9935326,4.79233696 28.6975,4.79233696 L24.7049457,4.79233696 C24.408913,4.79233696 24.1679891,4.55141304 24.1679891,4.25538043 C24.1686957,4.00244565 24.3446196,3.79048913 24.5805978,3.73396739 Z M25.023587,10.3978804 L25.023587,5.89592391 L26.1504891,5.89592391 L26.1504891,42.9204891 L25.023587,42.9204891 L25.023587,26.1865217 C25.023587,26.1865217 25.023587,26.1851087 25.023587,26.1851087 L25.023587,10.4 C25.023587,10.4 25.023587,10.3992935 25.023587,10.398587 C25.023587,10.3978804 25.023587,10.398587 25.023587,10.3978804 Z M28.0284239,44.0233696 L26.7022826,46.6057065 L25.3761413,44.0233696 L28.0284239,44.0233696 Z M27.2533696,42.9204891 L27.2533696,5.89592391 L28.3802717,5.89592391 L28.3802717,42.9204891 L27.2533696,42.9204891 Z M11.2054348,51.2828804 C11.5099457,51.2828804 11.7565217,51.0355978 11.7565217,50.731087 L11.7565217,31.2438043 C11.7565217,31.2430978 11.7565217,31.2416848 11.7565217,31.2409783 C11.7565217,31.2402717 11.7565217,31.2395652 11.7565217,31.2381522 L11.7565217,27.8786413 C11.7565217,27.8779348 11.7565217,27.8772283 11.7565217,27.8765217 C11.7565217,27.8758152 11.7565217,27.8744022 11.7565217,27.8736957 L11.7565217,14.0470652 C11.7565217,12.3401087 13.1455435,10.951087 14.8525,10.951087 L23.9207065,10.951087 L23.9207065,24.6978804 C22.3557609,23.2890761 19.8497283,22.3903804 16.4400543,22.0222826 C16.4393478,22.0222826 16.4379348,22.0222826 16.4372283,22.0222826 C16.4188587,22.020163 16.3990761,22.0215761 16.3792935,22.0222826 C16.3616304,22.0222826 16.3432609,22.0208696 16.3248913,22.0222826 C16.3234783,22.0222826 16.3227717,22.0222826 16.3213587,22.0222826 C16.3044022,22.0236957 16.2895652,22.0293478 16.2733152,22.0321739 C16.2549457,22.0357065 16.2358696,22.0378261 16.2182065,22.0434783 C16.1963043,22.0505435 16.1765217,22.0597283 16.1560326,22.0696196 C16.1440217,22.0745652 16.1313043,22.0788043 16.12,22.085163 C16.0995109,22.0964674 16.0804348,22.1098913 16.0613587,22.1233152 C16.0514674,22.1303804 16.0408696,22.1367391 16.0309783,22.1445109 C16.0147283,22.1579348 16.0005978,22.1741848 15.9857609,22.1890217 C15.9758696,22.1996196 15.9652717,22.2088043 15.956087,22.2201087 C15.9433696,22.2349457 15.9341848,22.2511957 15.923587,22.2674457 C15.9144022,22.2815761 15.9045109,22.2942935 15.8967391,22.3084239 C15.8868478,22.3253804 15.8804891,22.3444565 15.8734239,22.3628261 C15.8670652,22.377663 15.86,22.3917935 15.8550543,22.407337 C15.8479891,22.4299457 15.8444565,22.4532609 15.8402174,22.4765761 C15.8380978,22.488587 15.8338587,22.4998913 15.8324457,22.5119022 C15.8324457,22.5126087 15.8324457,22.5133152 15.8324457,22.5147283 C15.8310326,22.5330978 15.8324457,22.5521739 15.8324457,22.5705435 C15.8324457,22.5896196 15.8310326,22.6086957 15.8324457,22.6277717 C15.8324457,22.6284783 15.8324457,22.6298913 15.8324457,22.6305978 C16.2952174,26.911413 17.5923913,29.77 19.6893478,31.1272283 C20.7095652,31.7878261 21.7644022,31.9856522 22.6616848,31.9856522 C23.1357609,31.9856522 23.5632065,31.929837 23.921413,31.8577717 L23.921413,43.4729891 C23.921413,43.4800543 23.9228261,43.486413 23.9235326,43.4920652 C23.9242391,43.5118478 23.9263587,43.5316304 23.9291848,43.551413 C23.9313043,43.5683696 23.9341304,43.5860326 23.9383696,43.6022826 C23.9426087,43.6185326 23.9482609,43.6354891 23.953913,43.6510326 C23.9602717,43.6701087 23.967337,43.6891848 23.9758152,43.7068478 C23.9786413,43.7125 23.9800543,43.7188587 23.9828804,43.7245109 L26.212663,48.066087 C26.2140761,48.068913 26.2154891,48.0710326 26.2169022,48.0738587 C26.2204348,48.0816304 26.2253804,48.0886957 26.2303261,48.0957609 C26.2430435,48.11625 26.2564674,48.1367391 26.2713043,48.1558152 C26.2769565,48.1628804 26.2833152,48.1706522 26.2889674,48.1770109 C26.310163,48.2010326 26.3320652,48.2229348 26.356087,48.2427174 C26.3567935,48.2434239 26.3575,48.2441304 26.3582065,48.244837 C26.3843478,48.2653261 26.4126087,48.2829891 26.4415761,48.2985326 C26.4451087,48.3006522 26.4479348,48.3034783 26.4514674,48.3055978 C26.4585326,48.3091304 26.4648913,48.31125 26.4719565,48.3147826 C26.4804348,48.3183152 26.488913,48.3225543 26.4988043,48.326087 C26.5129348,48.3324457 26.5270652,48.3366848 26.5411957,48.3409239 C26.5489674,48.34375 26.5567391,48.3458696 26.5645109,48.3479891 C26.5814674,48.3529348 26.5984239,48.3564674 26.6153804,48.358587 C26.6210326,48.36 26.6273913,48.361413 26.6330435,48.3621196 C26.6563587,48.3649457 26.6796739,48.3670652 26.7029891,48.3670652 C26.7029891,48.3670652 26.7029891,48.3670652 26.7029891,48.3670652 C26.7263043,48.3670652 26.7496196,48.3649457 26.7729348,48.3621196 C26.778587,48.361413 26.7849457,48.36 26.7913043,48.358587 C26.8082609,48.3557609 26.8252174,48.3529348 26.8414674,48.3479891 C26.8492391,48.3458696 26.8570109,48.34375 26.8654891,48.3409239 C26.8796196,48.3359783 26.89375,48.3317391 26.9078804,48.326087 C26.9170652,48.3225543 26.9255435,48.3183152 26.9347283,48.3147826 C26.941087,48.31125 26.9481522,48.3091304 26.9545109,48.3055978 C26.9580435,48.3034783 26.9615761,48.3006522 26.9651087,48.2985326 C26.9940761,48.2829891 27.022337,48.2653261 27.0484783,48.244837 C27.0491848,48.2441304 27.0498913,48.2434239 27.0505978,48.2427174 C27.0746196,48.2236413 27.0965217,48.2010326 27.1170109,48.1770109 C27.1233696,48.1699457 27.1290217,48.1621739 27.1346739,48.1558152 C27.1495109,48.1367391 27.1636413,48.11625 27.1756522,48.0950543 C27.1798913,48.0879891 27.184837,48.0809239 27.1890761,48.0738587 C27.1897826,48.0710326 27.1919022,48.068913 27.1933152,48.066087 L29.4230978,43.7245109 C29.4266304,43.7181522 29.4280435,43.7117935 29.4308696,43.7068478 C29.4393478,43.6891848 29.4457065,43.6701087 29.4520652,43.6517391 C29.4577174,43.6354891 29.4633696,43.6185326 29.4669022,43.6015761 C29.4711413,43.5860326 29.4739674,43.5683696 29.476087,43.5521196 C29.478913,43.5316304 29.4817391,43.5118478 29.4824457,43.4913587 C29.4824457,43.485 29.4845652,43.4793478 29.4845652,43.4729891 L29.4845652,22.9746739 C29.8682065,23.05875 30.3330978,23.1244565 30.8481522,23.1244565 C31.7334239,23.1244565 32.7628261,22.9294565 33.7696196,22.2928804 C35.8941304,20.9483696 37.2082609,18.0791848 37.6738587,13.765163 C37.6738587,13.7644565 37.6738587,13.7644565 37.6738587,13.76375 C37.6759783,13.7390217 37.6752717,13.7128804 37.6738587,13.6874457 C37.6738587,13.6754348 37.6752717,13.6634239 37.6738587,13.651413 C37.6738587,13.65 37.6738587,13.648587 37.6738587,13.6471739 C37.6717391,13.6288043 37.666087,13.6125543 37.6625543,13.5948913 C37.6590217,13.5779348 37.6569022,13.5602717 37.65125,13.5440217 C37.6448913,13.5235326 37.636413,13.5044565 37.6272283,13.4853804 C37.6215761,13.4719565 37.6166304,13.4585326 37.6102717,13.4458152 C37.6003804,13.4267391 37.5883696,13.4104891 37.5756522,13.3928261 C37.5671739,13.3808152 37.5601087,13.3680978 37.5509239,13.3567935 C37.5382065,13.3419565 37.5247826,13.3292391 37.5113587,13.3165217 C37.4986413,13.3045109 37.4880435,13.2917935 37.4746196,13.2811957 C37.4611957,13.2705978 37.4470652,13.2621196 37.4329348,13.2522283 C37.4173913,13.2416304 37.4025543,13.2303261 37.3863043,13.2218478 C37.3707609,13.212663 37.3523913,13.2070109 37.3361413,13.1999457 C37.3205978,13.1928804 37.3050543,13.1851087 37.2888043,13.180163 C37.2654891,13.1730978 37.2407609,13.1688587 37.2160326,13.1653261 C37.2047283,13.163913 37.1955435,13.1596739 37.1842391,13.1582609 C37.1828261,13.1582609 37.1821196,13.1582609 37.181413,13.1582609 C37.1602174,13.1561413 37.1369022,13.1575543 37.115,13.1582609 C37.100163,13.1582609 37.083913,13.1568478 37.0690761,13.1582609 C37.067663,13.1582609 37.0669565,13.1582609 37.0655435,13.1582609 C33.5795652,13.5355435 31.0403261,14.4646196 29.4845652,15.9271196 L29.4845652,10.9525 L40.8758152,10.9525 C40.8772283,10.9525 40.8786413,10.9525 40.8800543,10.9525 L41.731413,10.9525 C40.870163,11.7204891 40.3268478,12.8367935 40.3247283,14.0781522 C40.3247283,14.0802717 40.3240217,14.0830978 40.3240217,14.0852174 L40.3240217,50.733913 C40.3240217,51.0391304 40.5713043,51.2857065 40.8758152,51.2857065 C41.1803261,51.2857065 41.4269022,51.0384239 41.4269022,50.733913 L41.4269022,31.7948913 L45.5939674,31.7948913 L45.5939674,56.2815217 L8.17163043,56.2815217 L8.17163043,31.7948913 L10.6536413,31.7948913 L10.6536413,50.7332065 C10.6536413,51.0355978 10.9002174,51.2828804 11.2054348,51.2828804 Z M23.9207065,26.3447826 L23.9207065,30.7280435 C23.0983152,30.9272826 21.645,31.0770652 20.2884783,30.1988587 C18.5921196,29.1009239 17.4920652,26.7482065 17.0130435,23.2014674 C20.4672283,23.6684783 22.7881522,24.7240217 23.9207065,26.3447826 Z M7.5138587,28.4283152 C7.51456522,28.4283152 7.51597826,28.4283152 7.5173913,28.4283152 L10.6529348,28.4283152 L10.6529348,30.6898913 L7.61983696,30.6898913 C7.31532609,30.6898913 7.06804348,30.9371739 7.06804348,31.2416848 L7.06804348,56.8311957 C7.06804348,57.136413 7.31532609,57.3829891 7.61983696,57.3829891 L46.1457609,57.3829891 C46.4502717,57.3829891 46.6968478,57.1357065 46.6968478,56.8311957 L46.6968478,31.2416848 C46.6968478,30.9371739 46.4495652,30.6898913 46.1457609,30.6898913 L41.4261957,30.6898913 L41.4261957,28.4283152 L46.248913,28.4283152 C46.2503261,28.4283152 46.2510326,28.4283152 46.2517391,28.4283152 C47.8025543,28.4283152 49.0644022,29.6894565 49.0651087,31.2402717 C49.0651087,31.2402717 49.0651087,31.2409783 49.0651087,31.2409783 L49.0651087,59.6410326 L33.2757609,59.6410326 C33.2376087,59.6403261 33.2008696,59.6445652 33.1634239,59.652337 C33.151413,59.6544565 33.1415217,59.6594022 33.1295109,59.6622283 C33.1069022,59.668587 33.083587,59.6742391 33.0609783,59.6834239 C33.0447283,59.6904891 33.0298913,59.6996739 33.0143478,59.7074457 C32.9988043,59.7166304 32.9818478,59.7229891 32.9670109,59.733587 C32.9366304,59.7533696 32.9083696,59.7773913 32.8822283,59.8028261 L31.0007609,61.685 L22.7641304,61.685 L20.8819565,59.8021196 C20.8346196,59.7554891 20.7802174,59.720163 20.7229891,59.6933152 C20.7166304,59.6904891 20.7109783,59.6869565 20.7046196,59.6841304 C20.6763587,59.6721196 20.6473913,59.6643478 20.6177174,59.6572826 C20.6120652,59.6558696 20.606413,59.6530435 20.6014674,59.652337 C20.5647283,59.6445652 20.5272826,59.6403261 20.489837,59.6410326 L4.70048913,59.6410326 L4.70048913,31.2409783 C4.70048913,31.2402717 4.70048913,31.2395652 4.70048913,31.2381522 C4.70190217,29.68875 5.96304348,28.4283152 7.5138587,28.4283152 Z M51.2249457,60.743913 C51.74,60.743913 52.1589674,61.163587 52.1589674,61.6779348 L52.1589674,62.7956522 C52.1589674,63.3107065 51.74,63.7296739 51.2249457,63.7296739 L2.53923913,63.7296739 C2.0248913,63.7296739 1.60663043,63.31 1.60663043,62.7956522 L1.60663043,61.6779348 C1.60663043,61.1628804 2.0248913,60.743913 2.53923913,60.743913 L4.14869565,60.743913 L20.26375,60.743913 L22.1459239,62.6267935 C22.1713587,62.6522283 22.1996196,62.674837 22.23,62.6953261 C22.2441304,62.7052174 22.2589674,62.7108696 22.2730978,62.7186413 C22.2900543,62.7285326 22.3070109,62.7384239 22.3253804,62.7461957 C22.34375,62.7539674 22.3628261,62.7582065 22.3819022,62.7631522 C22.3974457,62.7680978 22.4122826,62.77375 22.4278261,62.7772826 C22.4638587,62.7843478 22.4998913,62.788587 22.5359239,62.788587 L31.2303804,62.788587 C31.266413,62.788587 31.3024457,62.7843478 31.3377717,62.7772826 C31.3540217,62.7744565 31.3688587,62.7680978 31.3844022,62.7631522 C31.4027717,62.7575 31.4225543,62.7532609 31.4402174,62.7461957 C31.4578804,62.7391304 31.474837,62.7285326 31.491087,62.7193478 C31.5059239,62.7108696 31.5214674,62.7045109 31.5355978,62.6953261 C31.5638587,62.6769565 31.59,62.6550543 31.6133152,62.6317391 C31.6154348,62.6296196 31.6175543,62.6282065 31.6196739,62.6267935 L33.5018478,60.743913 L49.6169022,60.743913 L51.2249457,60.743913 Z M54.9136957,33.7505435 C54.9136957,33.7533696 54.9129891,33.7561957 54.9129891,33.7583152 C54.9129891,35.4659783 53.5246739,36.855 51.8184239,36.855 C51.2249457,36.855 50.6597283,36.6903804 50.1686957,36.3759783 L50.1686957,31.2423913 C50.1686957,31.2423913 50.1686957,31.2416848 50.1686957,31.2409783 C50.1686957,30.0172826 49.6041848,28.923587 48.7224457,28.2050543 L48.7224457,22.0371196 L54.9136957,22.0371196 L54.9136957,33.7505435 Z" id="Shape" fill-rule="nonzero"></path>
                <path d="M17.2144022,51.283587 L36.1894565,51.283587 C36.4939674,51.283587 36.7405435,51.0363043 36.7405435,50.7317935 C36.7405435,50.4272826 36.4932609,50.1807065 36.1894565,50.1807065 L17.2144022,50.1807065 C16.9098913,50.1807065 16.6626087,50.4279891 16.6626087,50.7317935 C16.6626087,51.0363043 16.9098913,51.283587 17.2144022,51.283587 Z" id="Path"></path>
            </g>
        </g>
    </g>
</svg>