<?xml version="1.0" encoding="UTF-8"?>
<svg width="124px" height="93px" viewBox="0 0 124 93" version="1.1" xmlns="http://www.w3.org/2000/svg" xmlns:xlink="http://www.w3.org/1999/xlink">
    <!-- Generator: Sketch 52.3 (67297) - http://www.bohemiancoding.com/sketch -->
    <title>Artboard</title>
    <desc>Created with Sketch.</desc>
    <g id="Artboard" stroke="none" stroke-width="1" fill="none" fill-rule="evenodd">
        <g id="noun_Business-research_3215575" transform="translate(30.000000, 14.000000)" fill="#FFFFFF">
            <g id="Group">
                <path d="M3.36711,64.49854 L47.68645,64.49854 C49.247,64.49854 50.51653,63.23389 50.51653,61.6792 L50.51653,57.39893 L56.19915,63.08155 C58.09565,64.96638 61.16866,64.97727 63.0468,63.09913 C64.94076,61.2072 64.93256,58.14204 63.03703,56.24854 L55.28703,48.49854 C54.52629,47.73597 53.25627,47.67878 52.40519,48.30634 L51.14542,47.04712 C54.94864,41.45557 54.73307,33.93066 50.51651,28.5116 L50.51651,3.31885 C50.51651,1.76416 49.24698,0.49854 47.68643,0.49854 L14.55656,0.49854 C14.38961,0.49854 14.12753,0.61702 14.02726,0.71729 C12.66626,2.07188 18.9486,-4.18087 0.7548,13.92725 C0.54765,14.13365 0.56162,14.35846 0.53703,14.4585 L0.53703,61.6792 C0.53703,63.23389 1.80656,64.49854 3.36711,64.49854 Z M54.22648,49.55908 L61.97648,57.30908 C63.28608,58.61868 63.29315,60.73167 61.98625,62.03857 C60.69133,63.33252 58.57023,63.32177 57.25773,62.01904 C54.2246,58.98591 50.7778,55.53911 49.5175,54.27881 C49.24299,54.00236 49.22705,53.55533 49.50773,53.27881 L53.22843,49.55908 C53.49799,49.28556 53.9452,49.2778 54.22648,49.55908 Z M49.29679,51.35791 L48.26359,50.32471 C48.28996,50.28571 48.30534,50.24005 48.32548,50.1969 C49.00236,49.62122 49.68009,48.94568 50.24601,48.26904 L51.31632,49.33838 L49.29679,51.35791 Z M49.23918,47.11346 C49.21086,47.14886 49.18413,47.18359 49.15495,47.21911 C48.86162,47.57671 48.55046,47.92455 48.21672,48.25829 C42.01751,54.4575 31.48164,53.66362 26.33879,46.14885 C20.84573,38.10087 24.77987,26.99446 34.24858,24.38683 C47.63176,20.72843 57.83232,36.43073 49.23918,47.11346 Z M41.76652,53.49756 L41.76652,57.34912 L35.55656,57.34912 L35.55656,53.77386 C37.69025,54.09354 40.19459,53.86703 41.76652,53.49756 Z M22.41691,36.36963 L22.41691,33.24854 L23.08097,33.24854 C22.83951,33.99914 22.50186,35.58893 22.41691,36.36963 Z M22.41691,39.76611 C22.69697,42.3507 23.65733,44.87231 25.0734,46.95672 C26.11546,48.48868 27.31571,49.70192 28.62687,50.72888 L28.62687,57.34912 L22.41691,57.34912 L22.41691,39.76611 Z M49.01652,3.31885 L49.01652,26.8169 C44.99347,22.93519 39.1778,21.47494 33.8488,22.94202 C33.39714,23.06556 32.95378,23.21094 32.51628,23.37421 C28.43042,24.90084 25.33573,27.93909 23.66801,31.74854 L21.66691,31.74854 C21.25285,31.74854 20.91691,32.08448 20.91691,32.49854 L20.91691,58.09913 C20.91691,58.51319 21.25285,58.84913 21.66691,58.84913 L29.37687,58.84913 C29.79093,58.84913 30.12687,58.51319 30.12687,58.09913 L30.12687,51.77503 C31.43571,52.58027 32.75578,53.12476 34.05656,53.4654 L34.05656,58.09913 C34.05656,58.51319 34.3925,58.84913 34.80656,58.84913 L42.51652,58.84913 C42.93058,58.84913 43.26652,58.51319 43.26652,58.09913 L43.26652,53.0561 C44.65395,52.58202 46.16252,51.80666 47.06242,51.24561 C47.1625,51.34562 48.35391,52.53618 48.25383,52.43616 C47.60967,53.26879 47.64175,54.52416 48.45696,55.33936 L49.01653,55.89893 L49.01653,61.6792 C49.01653,62.40674 48.41985,62.99854 47.68645,62.99854 L3.36711,62.99854 C2.63371,62.99854 2.03703,62.40674 2.03703,61.6792 L2.03703,15.2085 L12.4755,15.2085 C14.03702,15.2085 15.30656,13.94287 15.30656,12.38721 L15.30656,1.99853 L47.68644,1.99853 C48.41984,1.99853 49.01652,2.59131 49.01652,3.31885 Z M13.80656,3.05713 L13.80656,12.38721 C13.80656,13.11573 13.20988,13.7085 12.47551,13.7085 L3.10331,13.7085 C17.77109,-0.88819 12.71216,4.14623 13.80656,3.05713 Z" id="Shape" fill-rule="nonzero"></path>
                <path d="M16.24211,37.75244 L8.53215,37.75244 C8.11809,37.75244 7.78215,38.08838 7.78215,38.50244 L7.78215,58.10303 C7.78215,58.51709 8.11809,58.85303 8.53215,58.85303 L16.24211,58.85303 C16.65617,58.85303 16.99211,58.51709 16.99211,58.10303 L16.99211,38.50244 C16.99211,38.08838 16.65617,37.75244 16.24211,37.75244 Z M15.49211,57.35303 L9.28215,57.35303 L9.28215,39.25244 L15.49211,39.25244 L15.49211,57.35303 Z" id="Shape" fill-rule="nonzero"></path>
                <path d="M27.77043,23.75244 L8.53215,23.75244 C8.11809,23.75244 7.78215,24.08838 7.78215,24.50244 C7.78215,24.9165 8.11809,25.25244 8.53215,25.25244 C27.23807,24.93805 28.52043,25.93726 28.52043,24.50244 C28.52043,24.08838 28.18449,23.75244 27.77043,23.75244 Z" id="Path"></path>
                <path d="M42.52043,18.72998 L8.53215,18.72998 C8.11809,18.72998 7.78215,19.06592 7.78215,19.47998 C7.78215,19.89404 8.11809,20.22998 8.53215,20.22998 L42.52043,20.22998 C42.93449,20.22998 43.27043,19.89404 43.27043,19.47998 C43.27043,19.06592 42.93449,18.72998 42.52043,18.72998 Z" id="Path"></path>
                <path d="M42.52043,13.7085 L20.35832,13.7085 C19.94426,13.7085 19.60832,14.04444 19.60832,14.4585 C19.60832,14.87256 19.94426,15.2085 20.35832,15.2085 L42.52043,15.2085 C42.93449,15.2085 43.27043,14.87256 43.27043,14.4585 C43.27043,14.04444 42.93449,13.7085 42.52043,13.7085 Z" id="Path"></path>
                <path d="M20.35832,10.18603 L42.52043,10.18603 C42.93449,10.18603 43.27043,9.85009 43.27043,9.43603 C43.27043,9.02197 42.93449,8.68603 42.52043,8.68603 L20.35832,8.68603 C19.94426,8.68603 19.60832,9.02197 19.60832,9.43603 C19.60832,9.85009 19.94426,10.18603 20.35832,10.18603 Z" id="Path"></path>
                <path d="M42.80949,26.98877 C31.22461,22.07224 21.31486,35.49915 28.18815,45.07727 C32.67788,51.46235 41.58803,51.8955 46.69914,46.73779 C47.43315,46.00317 48.04802,45.1842 48.56144,44.31274 C49.64689,42.47131 50.23478,40.37231 50.22746,38.17724 C50.22746,38.17626 50.22746,38.17626 50.22746,38.17626 C50.21086,33.30322 47.29972,28.9126 42.80949,26.98877 Z M48.72746,38.18164 C48.72868,38.58026 48.70256,38.9743 48.66032,39.36493 C48.40361,41.7489 47.35624,43.9585 45.63371,45.68018 C44.93132,46.38977 44.12883,46.97651 43.26652,47.45154 L43.26652,28.89282 C43.38822,28.96142 43.51261,29.02636 43.63102,29.09924 C46.75773,31.0249 48.71452,34.44171 48.72746,38.18164 Z M35.55656,48.45502 L35.55656,27.81006 C37.60431,27.3095 39.83457,27.46651 41.76652,28.20044 L41.76652,48.13416 C39.76231,48.85872 37.6453,48.97657 35.55656,48.45502 Z M28.62687,33.3053 L28.62687,42.90674 C27.16511,40.01696 27.02156,36.4369 28.62687,33.3053 Z M30.12687,45.10992 L30.12687,32.49854 C30.12687,32.14924 29.88273,31.86872 29.55949,31.78541 C29.56511,31.77766 29.57035,31.76899 29.57609,31.76124 C30.61466,30.36012 32.15251,29.03089 34.05656,28.22657 L34.05656,47.95295 C32.54936,47.32697 31.20012,46.36133 30.12687,45.10992 Z" id="Shape" fill-rule="nonzero"></path>
            </g>
        </g>
    </g>
</svg>