<?xml version="1.0" encoding="UTF-8"?>
<svg width="733px" height="500px" viewBox="0 0 733 500" version="1.1" xmlns="http://www.w3.org/2000/svg" xmlns:xlink="http://www.w3.org/1999/xlink">
    <!-- Generator: Sketch 52.3 (67297) - http://www.bohemiancoding.com/sketch -->
    <title>Artboard</title>
    <desc>Created with Sketch.</desc>
    <g id="Artboard" stroke="none" stroke-width="1" fill="none" fill-rule="evenodd">
        <g id="Group-11" transform="translate(123.000000, 0.000000)">
            <g id="Group-10">
                <path d="M371.790402,113.527537 C372.15978,113.518986 372.505562,113.344023 372.73141,113.051395 C372.957258,112.758768 373.039035,112.379749 372.953956,112.019938 C372.831477,111.41935 372.500782,109.899493 372.378303,109.274391 C372.206832,108.404151 371.998617,108.17127 371.153509,107.779049 C368.958821,106.769452 367.214115,104.984185 366.254331,102.765975 C362.506461,95.0441249 364.919306,85.3243994 374.178751,80.8261154 C382.372625,76.8303644 389.317209,79.6004249 392.550666,86.3417225 C396.825198,95.154437 396.543495,104.481941 390.762466,107.30103 C389.300968,108.106123 387.544265,108.168821 386.029168,107.469964 C384.514072,106.771107 383.420641,105.39375 383.083005,103.758784 C382.127666,99.4443537 381.858211,94.4067658 380.510937,91.6121915 C379.286143,89.1608106 376.934538,87.6777251 374.166503,89.0259846 C370.896302,90.6193823 369.916466,95.277006 372.121096,99.7998039 C372.907233,101.472496 374.038449,102.959609 375.440289,104.163262 C375.440289,104.163262 378.992192,119.950155 379.60459,122.720216 C380.829384,128.223566 384.773222,133.75143 385.152908,134.376532 C385.263586,134.518244 385.445908,134.583519 385.621295,134.544225 C385.796683,134.50493 385.933788,134.368089 385.97352,134.192679 C386.083752,133.653375 387.63924,126.961105 386.622661,121.519039 C386.340958,119.974669 384.687486,112.068966 384.687486,112.068966 C386.732893,113.576565 390.701226,113.858474 393.995923,112.252819 C403.794278,107.472626 406.121387,95.277006 400.291366,83.2897532 C395.894354,74.2319006 384.111833,69.5252492 372.464039,75.2001961 C357.950226,82.2601732 355.696604,96.2207877 359.909897,104.898676 C362.457469,110.156888 366.683009,113.907501 371.790402,113.527537 Z" id="Path" fill="#FFFFFF"></path>
                <path d="M485.72077,261.407093 C488.900391,252.04742 484.16314,241.840191 474.965617,238.233252 C465.768094,234.626313 455.362224,238.894952 451.340794,247.924497 C451.230562,248.169636 451.132578,248.427031 451.034595,248.672169 C449.836048,251.794814 449.522406,255.188019 450.128247,258.477692 L443.50211,266.481451 L454.231308,267.094296 C458.438201,272.072229 464.953219,274.46606 471.379432,273.395079 C477.805645,272.324098 483.193799,267.946506 485.561547,261.872855 C485.623193,261.720669 485.67635,261.565176 485.72077,261.407093 Z M462.79262,269.65599 C459.953138,268.577409 457.494805,266.684345 455.725557,264.213924 L449.466858,263.858474 L453.32496,259.20085 C452.460113,256.06299 452.618879,252.730771 453.778134,249.689492 C453.961853,249.223729 454.170068,248.757967 454.390531,248.316718 C458.006542,241.148784 466.480464,237.913439 473.948532,240.84947 C481.4166,243.7855 485.423997,251.927808 483.197694,259.642098 C483.087463,260.034319 482.964983,260.414283 482.818008,260.794247 C479.728761,268.770764 470.767637,272.736289 462.79262,269.65599 Z" id="Shape" fill="#FFFFFF"></path>
                <path d="M474.893588,261.725772 C474.538398,261.358065 472.86043,259.544043 472.517487,259.274391 C472.174545,259.004739 471.929586,258.808629 471.48866,259.127308 C471.047734,259.445988 469.859684,260.07109 469.516741,260.254944 C469.173799,260.438797 468.904344,260.377513 468.561402,260.009806 C467.501106,259.03853 466.618267,257.889584 465.95259,256.614643 C465.358162,255.415941 464.945373,254.135358 464.727796,252.815002 C464.654308,252.300212 464.948259,252.15313 465.242209,252.030561 C465.53616,251.907992 465.854606,251.699624 466.160805,251.540284 L466.393516,251.393202 C466.55386,251.269171 466.705291,251.134012 466.84669,250.988724 C467.058685,250.802669 467.156521,250.518273 467.103897,250.241052 C467.103897,249.995914 467.018161,247.593561 466.981417,246.625266 C466.944673,245.65697 466.540491,245.65697 466.295532,245.558915 C466.050573,245.46086 465.781119,245.313777 465.499416,245.215722 C465.061763,245.057886 464.578274,245.088958 464.16439,245.30152 C462.855209,245.850484 461.834211,246.921096 461.347363,248.255434 C461.169476,248.740679 461.058229,249.247841 461.016669,249.763033 C460.946742,250.942119 461.083532,252.124355 461.420851,253.256251 C461.531082,253.611701 462.572158,259.029253 466.222045,262.363131 C469.871932,265.697009 470.104643,265.133192 470.913007,265.353816 C472.2115,265.607332 473.555655,265.275531 474.58739,264.446805 C475.108245,263.929346 475.462314,263.267648 475.603969,262.546985 C475.469242,262.314104 475.236531,262.093479 474.893588,261.725772 Z" id="Path" fill="#FFFFFF"></path>
                <path d="M56.2588863,422.303481 C32.0544934,428.056062 7.76975563,413.096031 2.00049741,388.878902 C-0.773661198,377.234356 1.1915139,364.963826 7.46315655,354.770123 C13.7347992,344.576419 23.7984424,337.295739 35.4373826,334.531786 C47.0665462,331.758169 59.3204279,333.721574 69.5029259,339.990013 C79.6854239,346.258451 86.9623076,356.318364 89.7325153,367.956365 C92.5055824,379.606033 90.5354155,391.881085 84.256298,402.075735 C77.9771806,412.270385 67.904612,419.547677 56.2588863,422.303481 Z" id="Path" fill="#455A64"></path>
                <path d="M41.1571722,358.702402 C47.5750945,357.170289 48.3467149,357.01095 50.9555268,356.520673 C52.4822413,356.177498 54.0564383,356.09873 55.6097453,356.287792 C56.7467357,356.42525 57.8387986,356.814661 58.8064585,357.427684 C59.7829994,358.021002 60.6188591,358.819832 61.2560471,359.768753 C62.1228879,361.072702 62.7607891,362.515247 63.1422304,364.034156 C63.864859,366.546821 64.0730741,367.306749 65.5918191,373.729368 C67.110564,380.151986 67.2697873,380.924171 67.759705,383.534891 C68.1090305,385.061843 68.1877961,386.638308 67.9924159,388.192515 C67.8673344,389.333195 67.477248,390.428754 66.8533572,391.391567 C66.2684702,392.37095 65.4736544,393.208211 64.526248,393.842948 C63.2184755,394.709796 61.7730769,395.34806 60.2517158,395.730512 C57.8021271,396.453669 56.9937629,396.662036 50.5758406,398.181892 C44.1579183,399.701749 43.3862978,399.873345 40.7774859,400.363622 C39.2474214,400.712631 37.6681902,400.791442 36.1110195,400.596503 C34.9731659,400.462727 33.8803081,400.073033 32.9143063,399.456611 C31.9474834,398.845032 31.1344291,398.018801 30.5382053,397.042 C29.6636281,395.740787 29.0212911,394.297582 28.6397741,392.776597 C27.9293934,390.263932 27.7211784,389.516261 26.1901854,383.093643 C24.6591925,376.671025 24.4999693,375.89884 24.0100515,373.288119 C23.6736882,371.755251 23.5950398,370.17699 23.7773406,368.618238 C24.0819146,366.325731 25.3467151,364.271154 27.2557565,362.967805 C28.5573286,362.094959 29.9990535,361.452342 31.5180408,361.067985 C33.9676294,360.357084 34.7882416,360.148717 41.2061639,358.616604 M40.1773367,354.27766 C33.6491829,355.834287 32.8285707,356.054911 30.2932464,356.790325 C28.3094474,357.283164 26.4246124,358.112269 24.7204322,359.241706 C21.7972371,361.264408 19.8556683,364.42121 19.368081,367.944109 C19.1107854,369.98747 19.2018973,372.059711 19.6375358,374.072561 C20.1397014,376.658768 20.2989247,377.492237 21.8544135,384.025168 C23.4099023,390.558098 23.6303653,391.37931 24.3040022,393.904233 C24.7939408,395.890349 25.6226246,397.776984 26.7535908,399.481124 C27.7502209,400.982084 29.0681013,402.242313 30.611693,403.170453 C32.0970574,404.106125 33.769399,404.704425 35.5108703,404.92319 C37.552679,405.182106 39.6236478,405.090917 41.6348419,404.653538 C44.219158,404.163262 45.0520181,403.991665 51.5801719,402.435038 C58.1083257,400.878412 58.9289379,400.657787 61.4520142,399.983657 C63.4329118,399.482337 65.3163655,398.653839 67.0248284,397.532277 C68.4855944,396.546331 69.714348,395.253941 70.6257238,393.744893 C71.5555727,392.254866 72.156872,390.583368 72.3894276,388.842131 C72.6429395,386.798087 72.547684,384.7258 72.1077249,382.713679 C71.6178072,380.115215 71.446336,379.294002 69.8908472,372.761072 C68.3353584,366.228142 68.1148954,365.406929 67.4412585,362.86975 C66.9381476,360.888145 66.110408,359.00366 64.9916698,357.292858 C64.0059779,355.834703 62.714446,354.609151 61.2070554,353.701585 C59.7239659,352.759056 58.0509781,352.15634 56.307878,351.936591 C54.2660693,351.677675 52.1951005,351.768864 50.1839064,352.206243 C47.5873424,352.708776 46.7667302,352.868116 40.2385764,354.424743" id="Shape" fill="#FFFFFF" fill-rule="nonzero"></path>
                <path d="M42.9086281,366.068802 C36.0921588,367.694194 31.8826792,374.541357 33.5061038,381.362999 C35.1295285,388.184641 41.9712036,392.397983 48.788044,390.774151 C55.6048843,389.150318 59.8159278,382.304118 58.1940613,375.482105 C56.5657464,368.662178 49.7261423,364.450111 42.9086281,366.068802 M47.8078054,386.452035 C43.3793943,387.498514 38.9412684,384.756102 37.8925185,380.32517 C36.8437686,375.894237 39.5811321,371.450985 44.0081052,370.39843 C48.4350784,369.345876 52.8769574,372.082195 53.931777,376.511685 C54.4392458,378.642692 54.078822,380.888185 52.9299922,382.75295 C51.7811623,384.617715 49.9382934,385.948578 47.8078054,386.452035" id="Shape" fill="#FFFFFF" fill-rule="nonzero"></path>
                <path d="M58.5125078,361.84017 C58.8863988,363.433224 57.9004639,365.028347 56.3091472,365.404941 C54.7178304,365.781535 53.1223712,364.797313 52.7436254,363.205409 C52.3648797,361.613504 53.3459471,360.015378 54.9361084,359.633927 C55.7030538,359.446557 56.5130407,359.574448 57.1850823,359.989024 C57.8571239,360.403599 58.3352074,361.070305 58.5125078,361.84017" id="Path" fill="#FFFFFF"></path>
                <path d="M397.743794,382.603367 C392.167492,382.606619 386.818469,380.3921 382.874279,376.447323 C378.93009,372.502546 376.714074,367.150901 376.714075,361.570518 C376.714074,355.990136 378.93009,350.63849 382.874279,346.693713 C386.818469,342.748936 392.167492,340.534418 397.743794,340.53767 C403.324337,340.527906 408.679657,342.73955 412.629148,346.685033 C416.578639,350.630516 418.798017,355.985883 418.798008,361.570518 C418.798017,367.155153 416.578639,372.51052 412.629148,376.456003 C408.679657,380.401486 403.324337,382.61313 397.743794,382.603367 Z" id="Path" fill="#455A64"></path>
                <path d="M394.534832,374.280928 L399.654473,374.280928 L399.654473,361.496977 L403.218624,361.496977 L403.610558,357.20706 L399.654473,357.20706 L399.654473,354.755679 C399.654473,353.750613 399.862688,353.346135 400.879267,353.346135 L403.65955,353.346135 L403.65955,348.884622 L400.107647,348.884622 C396.298536,348.884622 394.583824,350.563818 394.583824,353.787384 L394.583824,357.219317 L391.852533,357.219317 L391.852533,361.496977 L394.510337,361.496977 L394.534832,374.280928 Z" id="Path" fill="#FFFFFF"></path>
                <g id="freepik--Device--inject-2" transform="translate(119.948191, 1.143978)">
                    <path d="M206.096142,497.691616 L37.2092518,497.630332 C16.9161949,497.630332 0.465421846,481.167522 0.465421846,460.859618 L0.538909505,37.1629351 C0.53888999,27.3979801 4.42018993,18.0340429 11.3268969,11.1360784 C18.2336039,4.2381139 27.5984311,0.372691041 37.3562271,0.392220951 L206.230869,0.490276189 C226.523926,0.490276189 242.974699,16.9530857 242.974699,37.2609904 L242.901212,460.859618 C242.917502,470.63306 239.045068,480.010898 232.139244,486.921775 C225.23342,493.832651 215.862438,497.707919 206.096142,497.691616 Z" id="Path" fill="#263238"></path>
                    <path d="M206.04715,15.3456447 L173.29615,15.3456447 C168.821679,15.4527766 165.271919,19.1529209 165.347235,23.6313123 L165.347235,29.5759111 C165.396492,31.7333822 164.586196,33.8218596 163.095031,35.380796 C161.603866,36.9397324 159.554307,37.8410862 157.398319,37.8860925 L93.5742869,37.8860925 C91.417197,37.8378785 89.3676619,36.9338287 87.8768345,35.3729466 C86.3860071,33.8120646 85.5760921,31.7222974 85.6253717,29.5636542 L85.6253717,23.5822847 C85.7144068,19.0923046 82.1625974,15.3735941 77.6764565,15.2598464 L66.1388939,15.2598464 L37.4909545,15.2598464 C30.6588014,15.2435674 24.1009019,17.9482116 19.2640854,22.7770697 C14.427269,27.6059278 11.7090144,34.162175 11.7090338,40.9993463 L11.6232982,454.559569 C11.6232982,468.775102 23.1388393,480.299068 37.3439791,480.299068 L205.900175,480.397124 C212.721724,480.397124 219.263879,477.685291 224.087443,472.858199 C228.911006,468.031106 231.620856,461.484164 231.620856,454.657624 L231.706591,41.0851446 C231.706632,26.8935101 220.228369,15.3794343 206.04715,15.3456447 Z" id="Path" fill="#FFFFFF"></path>
                    <path d="M208.508987,48.9418206 C208.508987,49.0521327 204.246703,49.1747017 199.004583,49.2114725 C193.762463,49.2482432 189.487931,49.2114725 189.487931,49.1011603 C189.487931,48.9908482 193.737967,48.8560222 198.992335,48.8192515 C204.246703,48.7824808 208.508987,48.8315084 208.508987,48.9418206 Z" id="Path" fill="#263238"></path>
                    <path d="M208.545731,53.8078117 C208.545731,53.9181239 204.295694,54.0406929 199.041327,54.0897205 C193.786959,54.1387482 189.524675,54.0897205 189.524675,53.9671515 C189.524675,53.8445824 193.786959,53.7342703 199.041327,53.6852427 C204.295694,53.6362151 208.545731,53.6974996 208.545731,53.8078117 Z" id="Path" fill="#263238"></path>
                    <path d="M208.594722,58.6738029 C208.594722,58.7841151 204.332438,58.918941 199.078071,58.9557117 C193.823703,58.9924824 189.573667,58.9557117 189.561419,58.8331427 C189.549171,58.7105736 193.823703,58.6002615 199.078071,58.5512339 C204.332438,58.5022062 208.594722,58.5634908 208.594722,58.6738029 Z" id="Path" fill="#263238"></path>
                    <path d="M29.3950639,63.4294819 L29.8972296,63.4294819 L31.2812472,63.4294819 L36.4008875,63.3069129 L36.2539122,63.4417388 C36.2539122,62.3141036 36.2539122,61.0761562 36.1926725,59.7646674 C36.1926725,59.0782808 36.1926725,58.4286648 36.1926725,57.631966 C36.3583075,56.7869814 37.0523131,56.1470369 37.9073845,56.0508253 C38.7402447,56.0508253 39.4628733,56.0508253 40.3569732,56.0508253 C41.3244963,56.20727 42.0354644,57.0433985 42.0349414,58.024187 C42.0349414,59.7646674 42.0349414,61.5664324 42.0961811,63.4417388 L41.8634702,63.2088577 L48.3181363,63.2088577 L48.0731775,63.4539958 C48.0731775,60.8555319 48.0731775,58.1590129 47.9996898,55.4012093 C47.9996898,54.7148227 47.9996898,54.0406929 47.9996898,53.3543063 C47.9433737,52.7364033 47.6100279,52.1774152 47.093342,51.8344501 L44.2763151,49.0398758 L41.5450237,46.3556137 L40.2344938,45.0563818 C39.7813199,44.6151332 39.4261295,44.1616277 38.8994679,44.0513156 C38.3882687,43.9166637 37.8436447,44.020263 37.4174668,44.3332244 C37.0255326,44.6641608 36.6091025,45.1299232 36.1926725,45.5589149 L33.8655632,47.8999837 C32.408058,49.4075829 30.889313,50.7926132 29.7869981,52.104102 C29.4597543,52.8769607 29.3496441,53.7245821 29.4685516,54.5554829 C29.4685516,55.3521817 29.4685516,56.1121098 29.4685516,56.8230103 C29.4685516,58.2202974 29.4685516,59.4459879 29.4685516,60.5000817 C29.4685516,61.5541755 29.4685516,62.2037915 29.4685516,62.8411505 C29.4861115,63.1227855 29.4861115,63.405242 29.4685516,63.6868769 C29.4543016,63.4296795 29.4543016,63.1718894 29.4685516,62.9146919 C29.4685516,62.2895898 29.4685516,61.5174048 29.4685516,60.598137 C29.4685516,59.6788691 29.4685516,58.3060958 29.382816,56.9210655 C29.382816,56.1856513 29.382816,55.4134663 29.382816,54.5922536 C29.382816,54.1755189 29.382816,53.7587841 29.382816,53.3665632 C29.3798868,52.8936052 29.5024569,52.428344 29.7380063,52.0183036 C30.9628007,50.559732 32.3590662,49.2605001 33.8288194,47.7038732 L36.1314328,45.3382906 C36.5478628,44.9338127 36.8785573,44.5293349 37.3562271,44.1126001 C37.8898722,43.7056774 38.580326,43.5656792 39.2301624,43.7326361 C39.8399809,43.9566854 40.3775912,44.3421841 40.7856512,44.8480144 L42.1084291,46.1472463 L44.8397204,48.8315084 L47.6689954,51.6015689 C47.934056,51.8396556 48.1760105,52.1023067 48.391624,52.3860108 C48.6036105,52.7113403 48.7222391,53.0886857 48.7345664,53.4768753 C48.7345664,54.163262 48.7345664,54.8496486 48.7345664,55.5360353 C48.7345664,58.2938389 48.7345664,60.9903579 48.7958061,63.5888217 L48.7958061,63.8339598 L48.5508473,63.8339598 L42.0961811,63.8339598 L41.6430072,63.8339598 L41.6430072,63.6010786 C41.6430072,61.7257722 41.6430072,59.9240072 41.6430072,58.1835267 C41.6596977,57.4104586 41.1068021,56.7423225 40.3447253,56.6146429 C39.5976007,56.6146429 38.7157488,56.6146429 37.9931201,56.6146429 C37.3162118,56.6824272 36.7586552,57.1762012 36.6091025,57.8403334 C36.6091025,58.4899493 36.6091025,59.2376205 36.6091025,59.8994934 C36.6091025,61.235496 36.6091025,62.4857003 36.6091025,63.5765648 L36.6091025,63.7236477 L36.4621272,63.7236477 L31.2567513,63.7236477 L29.8972296,63.7236477 C29.7201025,63.6432804 29.5518086,63.5446947 29.3950639,63.4294819 Z" id="Path" fill="#263238"></path>
                    <path d="M140.851348,386.595032 C140.264042,386.687406 139.669813,386.728418 139.075396,386.717601 L134.249707,386.815656 C130.183389,386.876941 124.549335,386.913711 118.32738,386.913711 C112.105425,386.913711 106.471371,386.913711 102.405054,386.815656 L97.5793643,386.717601 C96.9849692,386.727562 96.3908138,386.686556 95.8034125,386.595032 C96.3899055,386.495637 96.9847893,386.454581 97.5793643,386.472463 L102.405054,386.362151 C106.471371,386.362151 112.105425,386.276352 118.32738,386.276352 C124.549335,386.276352 130.171141,386.276352 134.249707,386.362151 L139.075396,386.472463 C139.669988,386.453684 140.264961,386.494746 140.851348,386.595032 Z" id="Path" fill="#455A64"></path>
                    <path d="M211.607717,397.675274 C211.607717,397.859127 185.678821,397.993953 153.699441,397.993953 C121.720061,397.993953 95.7911646,397.859127 95.7911646,397.675274 C95.7911646,397.49142 121.720061,397.356594 153.699441,397.356594 C185.678821,397.356594 211.607717,397.503677 211.607717,397.675274 Z" id="Path" fill="#455A64"></path>
                    <path d="M175.415044,408.154927 C175.415044,408.338781 157.594287,408.473607 135.609228,408.473607 C113.62417,408.473607 95.7911646,408.338781 95.7911646,408.154927 C95.7911646,407.971074 113.611922,407.836248 135.609228,407.836248 C157.606534,407.836248 175.415044,407.934303 175.415044,408.154927 Z" id="Path" fill="#455A64"></path>
                    <path d="M213.898082,428.415591 L210.297187,424.799804 L206.867762,428.21948 L206.867762,417.874653 L213.885834,417.874653 L213.898082,428.415591 Z M210.297187,424.346298 L210.407418,424.456611 L213.579635,427.643406 L213.579635,418.205589 L207.198457,418.205589 L207.198457,427.459552 L210.297187,424.346298 Z" id="Shape" fill="#263238" fill-rule="nonzero"></path>
                    <path d="M118.082421,427.067331 L116.857627,426.503514 C115.342167,427.217061 113.533021,426.659511 112.681233,425.216414 C111.829446,423.773318 112.214749,421.918597 113.570701,420.934812 C114.926654,419.951028 116.807953,420.161259 117.913659,421.42013 C119.019365,422.679001 118.986358,424.573089 117.837463,425.792613 L118.082421,427.067331 Z M115.130667,420.178951 C113.39234,420.300183 112.04894,421.755036 112.065164,423.498779 C112.081388,425.242522 113.451625,426.67209 115.191907,426.760909 C115.751163,426.722329 116.292999,426.549991 116.771891,426.258376 L117.714983,426.67511 L117.49452,425.755842 C118.377093,424.791511 118.604041,423.395158 118.072347,422.200631 C117.540652,421.006103 116.351597,420.240948 115.044931,420.252492 L115.130667,420.178951 Z" id="Shape" fill="#263238" fill-rule="nonzero"></path>
                    <path d="M126.239552,426.540284 L124.794294,422.985782 L122.063003,420.534401 L128.676892,420.534401 L126.239552,426.540284 Z M122.6754,420.742768 L125.002509,422.87547 L126.227304,425.902925 L128.309454,420.693741 L122.6754,420.742768 Z" id="Shape" fill="#263238" fill-rule="nonzero"></path>
                    <polygon id="Rectangle" fill="#263238" transform="translate(126.798568, 421.733688) rotate(-33.050000) translate(-126.798568, -421.733688) " points="124.642502 421.611867 128.954716 421.610425 128.954634 421.855509 124.64242 421.856951"></polygon>
                    <path d="M107.659422,421.220788 C107.458161,420.244514 106.583399,419.55529 105.587851,419.5886 C104.592303,419.62191 103.765497,420.368067 103.629848,421.355614 C103.493421,420.355535 102.648873,419.604266 101.640422,419.585917 C100.631972,419.567568 99.7606922,420.287617 99.588027,421.282072 C99.4938075,421.987799 99.6735277,422.702819 100.090193,423.279948 C100.503976,423.847201 100.989813,424.358116 101.53545,424.799804 C102.282575,425.44942 102.956211,426.025494 103.691088,426.711881 C104.425965,426.050008 105.038362,425.424906 105.773238,424.763033 C106.311842,424.312181 106.78945,423.793021 107.194,423.218663 C107.603663,422.638976 107.770687,421.922007 107.659422,421.220788 Z" id="Path" fill="#111D5F"></path>
                    <path d="M221.271344,437.571499 C221.271344,437.571499 221.271344,437.167021 221.271344,436.41935 C221.271344,435.671678 221.271344,434.531786 221.271344,433.060958 C221.271344,430.107044 221.271344,425.706815 221.210104,420.117666 C221.210104,408.853571 221.148864,392.466089 221.099873,371.91126 L221.308088,372.119627 L25.4512262,372.22994 L25.7696727,371.91126 C25.7696727,394.733617 25.7696727,416.85733 25.7696727,437.571499 L25.4634741,437.265076 L165.616689,437.399902 L206.52482,437.4857 L217.547969,437.4857 L220.389492,437.4857 L221.369327,437.4857 L220.426236,437.4857 L217.621457,437.4857 L206.708539,437.4857 L165.861648,437.571499 L25.500218,437.718581 L25.1817714,437.718581 L25.1817714,437.571499 C25.1817714,416.85733 25.1817714,394.733617 25.1817714,371.91126 L25.1817714,371.59258 L25.5247139,371.59258 L221.381575,371.702893 L221.58979,371.702893 L221.58979,371.91126 C221.58979,392.515117 221.504055,408.951626 221.479559,420.252492 C221.479559,425.866155 221.479559,430.192842 221.479559,433.146756 C221.479559,434.593071 221.479559,435.696192 221.479559,436.45612 C221.479559,437.216048 221.271344,437.571499 221.271344,437.571499 Z" id="Path" fill="#263238"></path>
                    <polygon id="Rectangle" fill="#EBEBEB" transform="translate(60.565765, 404.752276) rotate(-89.670000) translate(-60.565765, -404.752276) " points="38.8589012 377.623172 82.2728567 377.62299 82.272628 431.88138 38.8586726 431.881563"></polygon>
                    <path d="M87.8055056,383.175355 L86.7644304,383.175355 L83.8004281,383.175355 L72.6670476,383.175355 L33.4736291,383.089557 L33.7675797,382.807648 C33.70634,395.738683 33.6328523,410.545024 33.5593647,426.209348 C33.6206044,426.295146 32.9592154,425.60876 33.2409181,425.890668 L36.9765408,425.890668 L40.6509238,425.890668 L47.9996898,425.890668 L62.0848246,425.976467 L87.487059,426.16032 L87.2298522,426.429972 C87.3523317,413.388626 87.4625632,402.578036 87.5482988,394.978755 C87.5482988,391.203628 87.6340344,388.237457 87.6585302,386.16604 C87.6585302,385.173231 87.6585302,384.401046 87.6585302,383.837228 C87.6585302,383.273411 87.6585302,383.016016 87.6585302,383.016016 C87.6585302,383.016016 87.6585302,383.261154 87.6585302,383.775944 C87.6585302,384.290734 87.6585302,385.087433 87.6585302,386.067985 C87.6585302,388.114888 87.6585302,391.068802 87.6585302,394.819415 C87.6585302,402.455467 87.6585302,413.327341 87.6585302,426.429972 L87.6585302,426.687367 L87.3890755,426.687367 L61.9868411,426.589312 L47.9017063,426.515771 L40.5529403,426.515771 L36.8785573,426.515771 L33.1429346,426.515771 L32.8122401,426.184834 C32.9224716,410.508253 33.0082072,395.701912 33.0939428,382.783134 L33.0939428,382.488969 L33.3878935,382.488969 L72.7037915,382.844419 L83.7269404,382.991502 L86.629703,382.991502 L87.3645796,382.991502 L87.8055056,383.175355 Z" id="Path" fill="#263238"></path>
                    <polygon id="Rectangle" fill="#E0E0E0" transform="translate(60.534933, 404.752311) rotate(-89.670000) translate(-60.534933, -404.752311) " points="41.5613513 379.527751 79.5087274 379.527591 79.5085148 429.976871 41.5611387 429.977031"></polygon>
                    <polygon id="Path" fill="#F5F5F5" points="35.1760932 423.5496 52.935611 400.06537 63.7627929 414.883968 71.2095424 407.039549 85.6253717 423.843765"></polygon>
                    <path d="M68.5027469,397.270796 C68.4977592,398.883068 67.5221149,400.333348 66.0312834,400.944588 C64.5404519,401.555828 62.8284498,401.207481 61.6945075,400.062169 C60.5605652,398.916857 60.2283148,397.200455 60.852864,395.714248 C61.4774133,394.22804 62.9355907,393.265131 64.5466612,393.275045 C65.6012624,393.278282 66.6112013,393.701479 67.3534654,394.451185 C68.0957295,395.200891 68.5092618,396.215438 68.5027469,397.270796 Z" id="Path" fill="#F5F5F5"></path>
                    <path d="M125.039253,101.572969 C124.844666,101.605885 124.645939,101.605885 124.451352,101.572969 L122.79788,101.634254 L116.673908,101.744566 C111.517524,101.744566 104.425965,101.830364 96.5137933,101.830364 C88.6016219,101.830364 81.5100627,101.830364 76.3536786,101.744566 L70.2297069,101.634254 L68.5639866,101.572969 C68.3736007,101.606908 68.1787192,101.606908 67.9883333,101.572969 C68.1765391,101.526434 68.3702099,101.505816 68.5639866,101.511685 L70.2297069,101.511685 L76.3536786,101.41363 C81.5100627,101.352345 88.6016219,101.315574 96.5137933,101.315574 C104.425965,101.315574 111.517524,101.315574 116.673908,101.41363 L122.79788,101.511685 L124.451352,101.511685 C124.649142,101.506616 124.846754,101.527215 125.039253,101.572969 Z" id="Path" fill="#263238"></path>
                    <path d="M205.189794,341.53865 L199.849691,336.170126 L194.742299,341.256741 L194.742299,325.886583 L205.177546,325.886583 L205.189794,341.53865 Z M199.849691,335.508253 L200.008914,335.667593 L204.724372,340.398758 L204.724372,326.376859 L195.219968,326.376859 L195.219968,340.129106 L199.849691,335.508253 Z" id="Shape" fill="#263238" fill-rule="nonzero"></path>
                    <path d="M69.4090947,339.920739 L66.9595061,338.80536 C64.0035878,340.181023 60.4870745,339.081023 58.8402592,336.265579 C57.1934439,333.450136 57.9567221,329.843126 60.6025856,327.937385 C63.2484491,326.031644 66.9086689,326.452534 69.0536351,328.909172 C71.1986013,331.365811 71.1244523,335.052065 68.8824332,337.42033 L69.4090947,339.920739 Z M63.5668258,326.376859 C61.2564199,326.396564 59.1320218,327.648262 57.9938718,329.660448 C56.8557217,331.672635 56.8767317,334.139613 58.0489875,336.132094 C59.2212433,338.124576 61.3666514,339.339856 63.6770573,339.32015 C64.778749,339.253755 65.8471719,338.916998 66.7880349,338.339598 L66.8982663,338.278313 L68.7354578,339.099526 L68.3190278,337.285504 L68.4047634,337.199706 C70.1436556,335.300684 70.5889454,332.549326 69.5379265,330.198114 C68.4869075,327.846902 66.140493,326.345295 63.5668258,326.376859 Z" id="Shape" fill="#263238" fill-rule="nonzero"></path>
                    <path d="M85.4783963,338.854388 L82.6123776,331.855695 L77.2477784,326.952933 L90.2795901,326.854878 L85.4783963,338.854388 Z M78.4603248,327.418696 L83.0410556,331.622814 L85.4906443,337.57967 L89.5814573,327.332898 L78.4603248,327.418696 Z" id="Shape" fill="#263238" fill-rule="nonzero"></path>
                    <polygon id="Rectangle" fill="#263238" transform="translate(86.598583, 329.346725) rotate(-33.050000) translate(-86.598583, -329.346725) " points="82.3599526 329.109185 90.8373739 329.10635 90.8372141 329.584265 82.3597929 329.5871"></polygon>
                    <path d="M48.9060376,328.485047 C48.5239962,326.546985 46.7952705,325.171202 44.8223352,325.235088 C42.8493999,325.298974 41.2131659,326.783718 40.9571224,328.742442 C40.6669955,326.792029 39.0099343,325.337657 37.0397551,325.304239 C35.0695758,325.270822 33.3642158,326.668163 33.0082072,328.607616 C32.8242049,329.993951 33.1793579,331.39805 34.0002906,332.529825 C34.8221387,333.646445 35.7809018,334.655324 36.8540614,335.532767 C38.3115667,336.758457 39.6465925,337.984148 41.1040977,339.295637 C42.5248592,337.996405 43.7496535,336.770714 45.1826629,335.459225 C46.2412579,334.567692 47.1835816,333.546437 47.9874419,332.419513 C48.7844926,331.273545 49.113163,329.865807 48.9060376,328.485047 Z" id="Path" fill="#111D5F"></path>
                    <ellipse id="Oval" fill="#EBEBEB" cx="47.7179871" cy="101.572969" rx="8.84301507" ry="8.84948521"></ellipse>
                    <path d="M201.858354,290.795065 C201.858354,290.978918 164.796077,291.126001 119.086753,291.126001 C73.3774284,291.126001 36.302904,290.978918 36.302904,290.795065 C36.302904,290.611211 73.3651804,290.476385 119.086753,290.476385 C164.808325,290.476385 201.858354,290.623468 201.858354,290.795065 Z" id="Path" fill="#455A64"></path>
                    <path d="M201.858354,277.006047 C201.858354,277.177643 164.796077,277.324726 119.086753,277.324726 C73.3774284,277.324726 36.302904,277.177643 36.302904,277.006047 C36.302904,276.83445 73.3651804,276.687367 119.086753,276.687367 C164.808325,276.687367 201.858354,276.83445 201.858354,277.006047 Z" id="Path" fill="#455A64"></path>
                    <path d="M126.411023,304.780193 C126.411023,304.95179 106.23866,305.098872 81.3630874,305.098872 C56.4875145,305.098872 36.302904,304.95179 36.302904,304.780193 C36.302904,304.608596 56.4752666,304.461513 81.3630874,304.461513 C106.250908,304.461513 126.411023,304.608596 126.411023,304.780193 Z" id="Path" fill="#455A64"></path>
                    <path d="M115.302138,455.086615 C115.268356,457.031015 113.66948,458.581841 111.726395,458.554899 C109.783309,458.527957 108.227982,456.933397 108.248044,454.988807 C108.268106,453.044217 109.856,451.482131 111.799227,451.495342 C112.740166,451.505027 113.638526,451.88925 114.295813,452.563117 C114.953101,453.236985 115.315212,454.145029 115.302138,455.086615 Z" id="Path" fill="#263238"></path>
                    <path d="M126.153816,455.135643 C126.113388,457.069934 124.519673,458.608496 122.586593,458.579417 C120.653512,458.550339 119.106727,456.964536 119.124412,455.029903 C119.142098,453.09527 120.717616,451.538052 122.650904,451.54437 C123.592884,451.550774 124.493171,451.933963 125.151166,452.608556 C125.809161,453.283148 126.170192,454.193095 126.153816,455.135643 Z" id="Path" fill="#263238"></path>
                    <path d="M137.091229,455.184671 C137.050802,457.118961 135.457087,458.657523 133.524006,458.628445 C131.590925,458.599366 130.04414,457.013563 130.061826,455.078931 C130.079511,453.144298 131.655029,451.58708 133.588318,451.593398 C134.529257,451.603082 135.427617,451.987305 136.084905,452.661173 C136.742192,453.33504 137.104303,454.243084 137.091229,455.184671 Z" id="Path" fill="#263238"></path>
                    <rect id="Rectangle" fill="#E0E0E0" x="26.565789" y="119.075829" width="195.881357" height="119.872528"></rect>
                    <polygon id="Path" fill="#F5F5F5" points="44.6560013 238.985128 100.776078 163.801275 135.584732 210.818761 159.162023 185.667593 205.422505 238.936101"></polygon>
                    <path d="M150.331256,154.571825 C150.336211,159.698947 147.253779,164.323976 142.521821,166.289477 C137.789864,168.254978 132.340683,167.173703 128.716158,163.550033 C125.091632,159.926364 124.005876,154.474245 125.96536,149.736926 C127.924845,144.999606 132.543508,141.910445 137.666883,141.910443 C144.656443,141.91044 150.324496,147.577155 150.331256,154.571825 Z" id="Path" fill="#F5F5F5"></path>
                    <path d="M221.920485,350.363622 C221.920485,347.801928 221.798005,239.512175 221.626534,79.1918614 L221.920485,79.4860271 L26.0636234,79.4860271 L26.3820699,79.1673476 C26.3820699,180.580977 26.3820699,274.432097 26.3820699,350.339108 L26.1126151,350.081713 L221.993972,350.339108 L26.1126151,350.60876 L25.8554083,350.60876 L25.8554083,350.339108 C25.8554083,274.432097 25.8554083,180.580977 25.7941686,79.1673476 L25.7941686,78.8486681 L26.137111,78.8486681 L221.993972,78.8486681 L222.287923,78.8486681 L222.287923,79.1305769 C222.226683,159.376532 222.177692,227.193986 222.140948,274.971401 C222.140948,298.823337 222.079708,317.6622 222.06746,330.556463 C222.06746,336.979082 222.06746,341.918614 222.06746,345.264749 C222.06746,346.919431 222.06746,348.181892 222.06746,349.039876 C222.06746,349.897859 221.920485,350.363622 221.920485,350.363622 Z" id="Path" fill="#263238"></path>
                </g>
                <g id="freepik--Megaphone--inject-2" transform="translate(40.336560, 73.459716)">
                    <path d="M209.439831,311.693087 L213.775602,297.119627 C214.534975,293.957346 215.539306,290.231247 216.88658,285.978101 C218.111374,282.153947 221.222352,278.133682 224.063875,275.241052 C228.485382,270.742768 230.592029,270.718255 233.556031,268.328158 C233.825486,268.156562 234.131684,267.899167 234.388891,267.764341 C234.949319,267.458963 235.441206,267.041805 235.834148,266.53865 C238.393969,263.76859 235.932132,259.466416 230.726756,259.883151 C226.819662,260.189573 220.426236,261.304952 210.03998,272.029743 C209.905252,272.20134 209.770525,272.336166 209.648046,272.495506 C204.197711,279.592254 199.078071,259.343847 198.147227,251.805851 C197.781424,249.439429 196.360379,247.367785 194.285181,246.17564 C192.209983,244.983495 189.705738,244.800166 187.479268,245.677398 L162.175017,257.517568 C159.761475,256.817008 157.187819,256.902859 154.826251,257.762706 C151.157051,259.051545 149.067755,262.920101 150.000562,266.69799 L160.276586,307.648309 L130.134398,408.032358 L195.109737,408.032358 L209.439831,311.693087 Z" id="Path" fill="#FFBE9D"></path>
                    <path d="M259.411439,219.49665 L239.324812,258.890342 L229.281499,256.095767 L178.819972,297.193169 C174.537458,300.699618 168.243658,300.156184 164.624606,295.967478 L145.395335,273.623141 C145.395335,273.623141 184.160076,256.91698 191.325122,243.091191 C198.490169,229.265403 190.21056,226.115378 190.21056,226.115378 L208.447747,205.376696 L259.411439,219.49665 Z" id="Path" fill="#111D5F"></path>
                    <path d="M233.360064,139.042327 C233.360064,139.042327 203.965,132.533911 162.579199,92.7234842 C121.193399,52.9130577 101.768161,1.38777878e-17 96.7587521,0.294165713 C91.7493433,0.588331427 69.5805659,-9.71972545 27.5211286,81.8270959 C-14.5383087,173.373917 2.03315859,194.590619 10.374008,194.46805 C18.7148574,194.345481 75.5575623,178.448276 111.052102,182.480798 C146.546642,186.513319 192.17023,205.033502 192.17023,205.033502 L233.360064,139.042327 Z" id="Path" fill="#111D5F"></path>
                    <path d="M295.812327,188.940186 L285.781261,208.024187 L281.286266,216.60402 C275.125347,228.332458 260.866799,233.180356 248.841464,227.635235 L185.825796,205.658604 L222.569626,121.821376 L285.524054,155.393038 C297.579717,161.848693 302.173625,176.828131 295.812327,188.940186 Z" id="Path" fill="#111D5F"></path>
                    <g id="Group" opacity="0.4" transform="translate(184.943944, 121.343357)" fill="#000000">
                        <path d="M110.868383,67.5968295 L100.837317,86.6808302 L96.3423221,95.2606635 C90.1814033,106.989101 75.9228547,111.837 63.8975202,106.291878 L0.881851918,84.3152476 L37.6256818,0.478019284 L100.58011,34.0496813 C112.635773,40.5053367 117.229681,55.4847744 110.868383,67.5968295 Z" id="Path"></path>
                    </g>
                    <path d="M30.8770651,83.494035 C8.50007265,133.085471 -0.820612202,177.28387 10.0555615,182.198889 C20.9317351,187.113908 47.9139542,150.907011 70.2909466,101.303318 C92.6679391,51.6996241 101.988624,7.5257395 91.1124503,2.5984638 C80.2362766,-2.3288119 53.2540575,33.9025985 30.8770651,83.494035 Z" id="Path" fill="#111D5F"></path>
                    <g id="Group" opacity="0.5" transform="translate(4.899177, 1.225690)" fill="#000000">
                        <path d="M25.9778878,82.2683445 C3.60089533,131.859781 -5.71978952,176.058179 5.15638413,180.973198 C16.0325578,185.888217 43.0147769,149.68132 65.3917693,100.077627 C87.7687617,50.4739336 97.0894466,6.30004903 86.2132729,1.37277333 C75.3370993,-3.55450237 48.3548802,32.676908 25.9778878,82.2683445 Z" id="Path"></path>
                    </g>
                    <polygon id="Path" fill="#111D5F" points="301.225918 216.518222 284.140037 211.149698 294.710012 191.048374 307.521361 199.015362"></polygon>
                    <g id="Group" opacity="0.6" transform="translate(282.927490, 189.982023)" fill="#000000">
                        <polygon id="Path" points="11.7825215 1.06635071 1.21254639 21.1676745 4.72770612 22.2707959 13.3135144 2.01013237"></polygon>
                    </g>
                    <path d="M282.92749,195.681484 C282.682532,196.233045 274.157963,192.92368 263.894186,188.327341 C253.63041,183.731002 245.522272,179.465599 245.754982,178.914038 C245.987693,178.362478 254.52451,181.684099 264.800534,186.329466 C275.076559,190.974832 283.184697,195.129923 282.92749,195.681484 Z" id="Path" fill="#111D5F"></path>
                    <path d="M288.194106,183.706488 C287.924651,184.245792 280.208447,180.997712 270.96125,176.438143 C261.714053,171.878575 254.438774,167.747998 254.708229,167.196437 C254.977684,166.644877 262.68164,169.905213 271.928837,174.464782 C281.176034,179.02435 288.463561,183.154927 288.194106,183.706488 Z" id="Path" fill="#111D5F"></path>
                    <path d="M276.313601,208.244811 C276.227865,208.538977 274.194707,208.073215 270.96125,207.019121 C269.344521,206.516588 267.421594,205.879229 265.3027,205.156071 C263.183806,204.432914 261.01592,203.280765 258.676563,202.214414 C249.331382,197.87547 242.190831,193.634581 242.423542,193.119791 C242.656253,192.605001 250.335713,195.926622 259.570663,200.228796 C261.897772,201.282889 264.05341,202.435038 266.086568,203.280765 C268.119727,204.126491 269.94467,204.874162 271.475663,205.560549 C274.537649,206.970093 276.399337,207.950646 276.313601,208.244811 Z" id="Path" fill="#111D5F"></path>
                    <path d="M76.5006539,72.4750776 C76.5006539,72.4750776 50.9514442,56.6146429 36.9765408,91.1668573 C23.0016375,125.719072 49.8736251,131.394019 49.8736251,131.394019 C61.4778777,113.107358 70.4421469,93.2716766 76.5006539,72.4750776 Z" id="Path" fill="#111D5F"></path>
                    <g id="Group" opacity="0.5" transform="translate(29.395064, 30.642262)" fill="#000000">
                        <path d="M74.2837762,0.64961595 C74.4429994,0.64961595 74.0755611,3.02745547 73.2916927,7.2560876 C72.5078244,11.4847197 71.3320218,17.6009152 69.6907974,25.1266547 L66.1388939,37.2242196 C65.4938355,39.3896061 64.8283639,41.6326197 64.1424791,43.9532603 L63.1014039,47.470992 C62.7217177,48.6966825 62.219552,49.8120608 61.778626,51.0009806 L56.0098447,65.9053767 C55.5076791,67.2046086 54.9932654,68.5038405 54.4910998,69.8153293 C53.9889341,71.1268181 53.2663054,72.3770224 52.6906521,73.6762543 L48.8937897,81.5206733 L45.0846793,89.3528354 C44.4355383,90.5785259 43.859885,91.9512992 43.1617522,93.1524759 C42.4636194,94.3536526 41.7287428,95.6038568 41.0306101,96.7682628 L32.8857278,110.532767 C32.2243388,111.611374 31.6609334,112.726753 30.9260568,113.756333 L28.8071627,116.759274 L24.7408455,122.495506 L17.3920795,132.754535 C12.4929022,138.67462 8.40208911,143.344501 5.58506215,146.59258 C4.20141072,148.351373 2.67326224,149.991338 1.01657929,151.495342 C2.16803473,149.582123 3.47915671,147.76981 4.93592115,146.07779 C7.65496457,142.609086 11.4885708,137.755352 16.1917811,131.78624 L23.2343485,121.453669 L27.1781862,115.705181 C27.864071,114.724628 28.5499558,113.719562 29.2480886,112.702239 C29.9462214,111.684916 30.4728829,110.569538 31.1465198,109.478673 L39.1934186,95.7264259 L41.2878169,92.1228959 C42.0104455,90.8972054 42.5126112,89.671515 43.1862481,88.3477692 L46.9586146,80.5646347 C48.183409,77.9294002 49.4939389,75.3431933 50.7432291,72.7815002 C51.3311304,71.5558098 52.0415111,70.2565779 52.5314288,68.957346 L54.0624218,65.0841641 L59.9169387,50.3758784 C60.3701126,49.1501879 60.8845262,48.0593234 61.2764604,46.8826606 C61.6683945,45.7059977 61.999089,44.5538487 62.3542794,43.4016996 L64.4364297,36.7462004 L68.1965483,24.7957183 L72.4465847,7.14577545 C72.8729132,4.93196131 73.4875474,2.75866476 74.2837762,0.64961595 Z" id="Path"></path>
                    </g>
                    <g id="Group" opacity="0.4" transform="translate(150.649703, 235.332571)" fill="#000000">
                        <path d="M0.845108088,35.5450237 C3.18446526,39.7859127 5.56056626,44.124857 9.00223833,47.470992 C12.4439104,50.817127 17.1471206,53.1949665 22.046298,52.7046903 C26.9454753,52.2144141 31.4159746,48.2186632 31.4649664,43.3894427 C33.7675797,45.1176663 37.3072353,44.1861415 39.2179145,42.0166694 C41.1285936,39.8471973 41.7532387,36.8442556 41.9737017,33.963883 C45.1091752,35.8146756 49.469443,34.3561039 51.5638413,31.3776761 C53.5108143,28.2366329 53.9597032,24.3913324 52.7886357,20.8857656 C51.5952114,17.4395331 49.8988791,14.1889484 47.754731,11.2395816 C50.2043196,11.4356921 52.7273959,11.6072888 54.883034,10.5164243 C57.038672,9.42555973 58.5574169,6.55744403 57.246887,4.49828403 C56.3859643,3.34852629 55.1366061,2.55131438 53.7317273,2.25527047 C49.9471128,1.02958 47.3015571,0.122569047 43.3577193,0.576074522 C42.4513715,0.576074522 44.937704,10.9699297 20.2336023,25.1634254 C5.5728142,33.5594051 0.845108088,35.5450237 0.845108088,35.5450237 Z" id="Path"></path>
                    </g>
                    <path d="M207.124969,285.831018 C207.124969,285.94133 205.471497,285.622651 202.801445,285.696192 C195.782584,285.863719 189.17294,289.037063 184.649993,294.410851 C182.923033,296.445498 182.200405,297.928583 182.041181,297.867299 C182.142934,297.484933 182.304126,297.120953 182.518851,296.788691 C183.043372,295.854918 183.637015,294.961753 184.294803,294.116686 C188.75695,288.449452 195.591982,285.17203 202.801445,285.242687 C203.869391,285.249335 204.934794,285.347752 205.985911,285.536852 C206.379985,285.566772 206.765638,285.666369 207.124969,285.831018 Z" id="Path" fill="#EB996E"></path>
                    <path d="M153.099291,264.246609 C157.079873,268.070763 159.798916,272.299395 163.975465,276.148063 C165.873896,277.900801 168.874642,281.210165 171.324231,281.651414 C173.77382,282.092662 175.488532,281.761726 176.492863,279.383886 C177.313475,277.459552 175.843722,274.824318 174.839391,273.255434 C172.181587,269.075829 169.634015,265.815493 167.649848,262.567413 C166.706756,261.047557 167.919303,260.728877 168.360229,261.439778 C170.270908,263.425396 173.136927,265.116849 174.851639,267.310835 C177.203244,270.264749 177.619674,274.199216 183.768141,272.949011 C184.590436,272.815687 185.370408,272.49256 186.046259,272.00523 C188.36112,270.227978 188.495847,267.102468 187.491516,264.651087 C186.624289,262.758872 185.467219,261.013726 184.062092,259.478673 C186.683152,262.432587 189.536923,265.607125 193.701223,265.876777 C196.112066,266.169186 198.444601,264.906238 199.518996,262.726753 C200.743791,259.932178 198.992335,257.223403 197.216383,255.041673 C194.072735,251.162385 190.575156,247.584284 186.768887,244.353653 C185.347402,243.158539 183.554724,242.495543 181.698239,242.478346 C179.542601,242.478346 176.799062,242.870567 175.574267,244.733617 C174.160334,246.549793 173.553696,248.867339 173.896299,251.143978 C173.896299,251.143978 168.507204,248.410688 164.171432,251.266547 C161.50257,253.142657 159.584499,255.904616 158.757841,259.061938 L153.099291,264.246609 Z" id="Path" fill="#FFBE9D"></path>
                    <path d="M181.820718,241.301683 C180.055579,239.250486 179.752632,236.316601 181.061346,233.94754 C181.979942,232.145775 183.131248,230.393038 184.307051,230.000817 C189.438939,228.272594 211.877171,232.158032 211.668956,237.134336 C211.460741,242.110639 209.819517,244.488479 197.657309,242.735741 C195.513919,242.429319 192.157983,242.012584 192.157983,242.012584 L189.218476,246.425069 L181.820718,241.301683 Z" id="Path" fill="#FFBE9D"></path>
                    <path d="M185.838044,262.162935 C182.893433,257.303684 178.599484,253.406917 173.479869,250.947867 C174.315047,251.082398 175.119629,251.364623 175.85597,251.781337 C179.542673,253.565128 182.638154,256.373523 184.772473,259.870894 C185.266649,260.562154 185.627988,261.339394 185.838044,262.162935 Z" id="Path" fill="#EB996E"></path>
                    <path d="M189.61041,246.854061 C189.500179,246.952116 188.018178,245.75094 185.997267,244.512992 C185.152032,243.977277 184.276922,243.490293 183.376207,243.054421 C182.678074,242.735741 182.212653,242.649943 182.224901,242.551888 C182.237148,242.453832 182.751562,242.404805 183.523183,242.637686 C184.516753,242.957267 185.463913,243.406467 186.340209,243.973689 C188.410112,245.23615 189.769634,246.719235 189.61041,246.854061 Z" id="Path" fill="#EB996E"></path>
                    <path d="M193.382777,242.220951 C191.923101,242.391186 190.443856,242.223444 189.059253,241.730675 C188.046631,241.420813 187.105701,240.912506 186.291218,240.235333 C185.678821,239.708286 185.421614,239.279294 185.482853,239.218009 C186.66102,239.980685 187.922618,240.605777 189.242972,241.081059 C190.646696,241.368498 192.0297,241.749307 193.382777,242.220951 Z" id="Path" fill="#EB996E"></path>
                    <path d="M171.581438,268.328158 C170.807974,267.516105 170.122369,266.624578 169.536031,265.66841 C168.137632,263.40427 166.369843,261.390748 164.306159,259.711554 C162.167196,258.145681 159.516503,257.445317 156.883906,257.750449 C155.804058,257.943815 154.754092,258.277578 153.76068,258.743259 C153.76068,258.743259 153.981143,258.485864 154.483309,258.179441 C155.198506,257.745232 155.987283,257.446108 156.810418,257.296944 C159.580009,256.8493 162.413199,257.533826 164.673598,259.196764 C166.804821,260.910756 168.58485,263.020884 169.915717,265.411015 C170.551919,266.334805 171.109134,267.310644 171.581438,268.328158 Z" id="Path" fill="#EB996E"></path>
                    <path d="M188.740806,317.968622 C185.719974,318.6117 182.659188,319.04986 179.579345,319.280111 C176.516692,319.724245 173.426763,319.9536 170.332148,319.966498 C173.357231,319.32412 176.422043,318.885969 179.505857,318.655009 C182.565207,318.218278 185.650553,317.98896 188.740806,317.968622 Z" id="Path" fill="#EB996E"></path>
                </g>
            </g>
        </g>
    </g>
</svg>