<?xml version="1.0" encoding="UTF-8"?>
<svg width="733px" height="500px" viewBox="0 0 733 500" version="1.1" xmlns="http://www.w3.org/2000/svg" xmlns:xlink="http://www.w3.org/1999/xlink">
    <!-- Generator: Sketch 52.3 (67297) - http://www.bohemiancoding.com/sketch -->
    <title>Artboard</title>
    <desc>Created with Sketch.</desc>
    <g id="Artboard" stroke="none" stroke-width="1" fill="none" fill-rule="evenodd">
        <g id="Search-engines-amico" transform="translate(77.000000, 0.000000)">
            <g id="freepik--Floor--inject-3" transform="translate(0.780738, 0.905656)">
                <g id="freepik--floor--inject-3">
                    <g id="Group-13">
                        <path d="M130.223916,458.157147 C229.650854,511.222323 390.856001,511.222323 490.282939,458.157147 C589.709878,405.091971 589.723931,319.029699 490.282939,265.964523 C390.841947,212.899347 229.650854,212.885294 130.223916,265.964523 C30.796977,319.043753 30.796977,405.077918 130.223916,458.157147 Z" id="Path" fill="#EBEBEB"></path>
                        <path d="M101.808188,330.623653 C101.808188,330.623653 103.733487,299.467537 85.6328659,278.106555 C67.5322445,256.745573 43.964898,256.829893 36.165329,260.80697 C28.36576,264.784048 23.1238874,276.153149 36.5447675,284.289997 C49.9656475,292.426845 78.5078542,308.714594 83.257862,323.245683 L101.808188,330.623653 Z" id="Path" fill="#111D5F"></path>
                        <path d="M101.808188,330.623653 C101.808188,330.623653 103.733487,299.467537 85.6328659,278.106555 C67.5322445,256.745573 43.964898,256.829893 36.165329,260.80697 C28.36576,264.784048 23.1238874,276.153149 36.5447675,284.289997 C49.9656475,292.426845 78.5078542,308.714594 83.257862,323.245683 L101.808188,330.623653 Z" id="Path" fill="#000000" opacity="0.1"></path>
                        <path d="M93.2919022,322.824084 C92.9321545,322.819525 92.6315361,322.548968 92.5892383,322.191687 C88.8651198,287.718997 54.4064832,268.620593 40.6764311,266.456388 C40.4253934,266.418732 40.2135141,266.25001 40.120606,266.013777 C40.0276979,265.777545 40.067876,265.509691 40.2260056,265.311113 C40.3841352,265.112536 40.6361926,265.013405 40.8872303,265.05106 C54.9405078,267.257425 90.1720746,286.791481 93.9945661,322.037101 C94.0141636,322.22365 93.9583596,322.410291 93.8395795,322.555467 C93.7207995,322.700642 93.5489045,322.7923 93.3621686,322.810031 L93.2919022,322.824084 Z" id="Path" fill="#FFFFFF"></path>
                        <path d="M86.5884888,314.912089 C82.0492802,304.568877 76.9198339,299.931295 62.1638924,302.404672 C47.407951,304.878049 49.5159427,304.49861 31.457481,299.875082 C23.8406046,297.93573 15.2821586,297.626558 7.97445426,300.915025 C1.80506543,303.72568 -2.80440961,309.346991 3.16823335,315.333687 C9.88570001,322.023047 19.9056869,324.313732 27.3258174,330.202055 C29.009115,331.392269 30.3473438,333.006871 31.204522,334.881796 C33.1579276,339.856657 29.2511165,345.463914 30.3894319,350.67768 C31.5277474,355.891446 37.0085257,358.673995 42.1520252,359.011274 C47.2955248,359.348553 52.368758,357.802692 57.4982043,357.212454 C62.6276506,356.622217 68.3894944,357.212454 71.9309203,361.020893 C75.7253053,365.054183 75.8236782,371.504638 79.3510509,375.790887 C84.6350832,382.213235 97.6203117,383.998001 104.64695,380.00687 L123.042691,369.396646 C135.198776,353.010524 116.016052,340.025296 105.967959,327.30708 C101.091471,321.109584 89.3148246,321.137691 86.5884888,314.912089 Z" id="Path" fill="#111D5F"></path>
                        <path d="M111.645483,359.503139 C111.401542,359.508362 111.174592,359.378676 111.055245,359.16586 C90.0737016,325.170982 32.9471284,307.96977 12.7385153,306.564442 C12.3557248,306.534489 12.0678568,306.202815 12.0920646,305.819618 C12.1219921,305.434815 12.451267,305.142816 12.8368883,305.159114 C33.3125137,306.564442 90.9871647,324.018613 112.249774,358.463196 C112.445496,358.797839 112.339649,359.227455 112.010868,359.432872 C111.895969,359.483673 111.771028,359.5077 111.645483,359.503139 Z" id="Path" fill="#FFFFFF"></path>
                        <path d="M110.338528,371.448424 C110.643083,375.593052 112.902657,379.345092 116.423597,381.552731 L286.932013,479.99594 C290.756676,481.936415 295.277489,481.936415 299.102152,479.99594 L532.386559,345.295275 C536.133881,343.317461 538.478881,339.428204 538.478881,335.190968 C538.478881,330.953733 536.133881,327.064476 532.386559,325.086662 L361.892196,226.713719 C358.067533,224.773244 353.54672,224.773244 349.722057,226.713719 L116.423597,361.372224 C112.910269,363.574117 110.651751,367.313972 110.338528,371.448424 Z" id="Path" fill="#37474F"></path>
                        <path d="M104.618844,361.56897 C101.184131,359.227762 99.0662872,355.393735 98.9132132,351.239811 L98.9132132,147.762406 C99.1427036,143.479136 101.403666,139.562919 104.998282,137.222448 L338.282689,2.52178258 C341.871154,0.270934156 346.409674,0.187321849 350.078609,2.30446852 C353.747545,4.42161518 355.946204,8.39289294 355.793073,12.6260891 L355.793073,216.117548 C355.559101,220.399486 353.299226,224.313819 349.708004,226.657506 L116.423597,361.372224 C112.744203,363.312648 108.360857,363.385704 104.618844,361.56897 Z" id="Path" fill="#455A64"></path>
                        <path d="M127.469473,157.220262 L100.697979,141.761656 C99.6318213,143.585494 99.04669,145.650379 98.9975329,147.762406 L98.9975329,351.239811 C99.1506069,355.393735 101.26845,359.227762 104.703164,361.56897 C108.445762,363.372208 112.822738,363.288738 116.493863,361.344118 L143.110771,345.983886 L127.469473,157.220262 Z" id="Path" fill="#263238"></path>
                        <path d="M110.338528,154.367446 L110.338528,357.830799 C110.338528,361.709503 113.064864,363.28347 116.423597,361.344118 L349.708004,226.657506 C353.299226,224.313819 355.559101,220.399486 355.793073,216.117548 L355.793073,12.6401424 C355.793073,8.76143781 353.066737,7.18747072 349.708004,9.12682302 L116.423597,143.827488 C112.828981,146.167959 110.568018,150.084176 110.338528,154.367446 Z" id="Path" fill="#37474F"></path>
                        <path d="M116.423597,368.398863 L286.932013,466.771806 C290.756676,468.712281 295.277489,468.712281 299.102152,466.771806 L532.386559,332.071141 C535.759345,330.131789 535.759345,326.983854 532.386559,325.044502 L361.892196,226.671559 C358.067533,224.731085 353.54672,224.731085 349.722057,226.671559 L116.423597,361.372224 C113.05081,363.28347 113.05081,366.431404 116.423597,368.398863 Z" id="Path" fill="#455A64"></path>
                        <path d="M119.698011,155.11227 L346.447644,24.2059898 C348.457262,23.0395678 350.101496,23.9811374 350.101496,26.3139814 L350.101496,202.443709 C349.9578,205.012595 348.60142,207.360177 346.447644,208.767684 L119.698011,339.673964 C117.674339,340.840386 116.044159,339.898816 116.044159,337.565972 L116.044159,161.436245 C116.181137,158.865359 117.539148,156.514956 119.698011,155.11227 Z" id="Path" fill="#FFFFFF"></path>
                        <path d="M136.210612,363.100778 L352.757565,238.026608 C354.670168,237.057506 356.930032,237.057506 358.842635,238.026608 L369.93067,244.420849 C370.683316,244.676234 371.189639,245.382715 371.189639,246.177509 C371.189639,246.972302 370.683316,247.678783 369.93067,247.934168 L153.341557,372.994285 C151.428954,373.963387 149.169091,373.963387 147.256488,372.994285 L136.210612,366.614097 C135.457966,366.358712 134.951644,365.652231 134.951644,364.857437 C134.951644,364.062644 135.457966,363.356163 136.210612,363.100778 Z" id="Path" fill="#263238"></path>
                        <path d="M164.766872,379.641485 L381.299772,254.567315 C383.217275,253.597998 385.481392,253.597998 387.398894,254.567315 L455.515131,293.916492 C456.267776,294.171878 456.774099,294.878358 456.774099,295.673152 C456.774099,296.467946 456.267776,297.174426 455.515131,297.429812 L239.221136,422.251023 C237.303634,423.22034 235.039516,423.22034 233.122014,422.251023 L164.766872,383.084538 C164.051431,382.813434 163.578235,382.128095 163.578235,381.363012 C163.578235,380.597929 164.051431,379.912589 164.766872,379.641485 Z" id="Path" fill="#263238"></path>
                        <path d="M358.870741,310.780425 L365.658474,306.859561 C365.93954,306.690922 365.925486,306.423909 365.658474,306.241217 L357.816745,301.716061 C357.477284,301.541005 357.074104,301.541005 356.734643,301.716061 L349.960963,305.636926 C349.665844,305.805565 349.679898,306.072577 349.960963,306.25527 L357.802692,310.780425 C358.138351,310.95069 358.535082,310.95069 358.870741,310.780425 Z M345.492021,295.32182 L338.718341,299.242684 C338.423222,299.397271 338.437276,299.678336 338.718341,299.861029 L346.56007,304.386184 C346.899531,304.56124 347.302711,304.56124 347.642172,304.386184 L354.429905,300.46532 C354.710971,300.29668 354.696918,300.015615 354.429905,299.846975 L346.574123,295.32182 C346.234662,295.146764 345.831482,295.146764 345.492021,295.32182 Z M323.597014,307.96977 L312.115487,314.588864 C311.834421,314.757503 311.848474,315.038568 312.115487,315.221261 L319.957216,319.746416 C320.296677,319.921472 320.699857,319.921472 321.039318,319.746416 L332.506792,313.127323 C332.801911,312.958683 332.773805,312.677618 332.506792,312.508978 L324.665064,307.96977 C324.330538,307.794827 323.93154,307.794827 323.597014,307.96977 Z M335.58446,301.041504 L328.81078,304.962368 C328.515662,305.131008 328.529715,305.412073 328.81078,305.580713 L336.652509,310.105868 C336.99197,310.280924 337.395151,310.280924 337.734612,310.105868 L344.522345,306.185004 C344.80341,306.016364 344.789357,305.749352 344.522345,305.566659 L336.666563,300.943131 C336.327101,300.768075 335.923921,300.768075 335.58446,300.943131 L335.58446,301.041504 Z M308.981606,316.401736 L302.207926,320.308548 C301.912807,320.477187 301.940914,320.758252 302.207926,320.940945 L310.049655,325.4661 C310.385847,325.634123 310.781512,325.634123 311.117704,325.4661 L317.905437,321.545236 C318.186503,321.376597 318.172449,321.095531 317.905437,320.926892 L310.063708,316.401736 C309.724247,316.22668 309.321067,316.22668 308.981606,316.401736 Z M299.144312,322.12142 L292.370632,326.042285 C292.075513,326.196871 292.103619,326.477936 292.370632,326.660629 L300.212361,331.185784 C300.551822,331.36084 300.955002,331.36084 301.294463,331.185784 L308.082196,327.26492 C308.363262,327.096281 308.349208,326.815215 308.082196,326.646576 L300.156148,322.023047 C299.816686,321.847991 299.413506,321.847991 299.074045,322.023047 L299.144312,322.12142 Z M329.991256,340.531214 L336.764936,336.610349 C337.060054,336.44171 337.031948,336.174698 336.764936,335.992005 L328.923207,331.46685 C328.588681,331.291907 328.189683,331.291907 327.855158,331.46685 L321.067425,335.387714 C320.786359,335.556354 320.800412,335.823366 321.067425,336.006059 L328.909153,340.531214 C329.239819,340.661266 329.611474,340.635456 329.920989,340.460948 L329.991256,340.531214 Z M320.069642,346.250898 L326.857375,342.330033 C327.13844,342.175447 327.124387,341.894382 326.857375,341.711689 L319.015646,337.186534 C318.676185,337.011478 318.273005,337.011478 317.933544,337.186534 L311.159864,341.107398 C310.864745,341.276038 310.892852,341.557103 311.159864,341.725742 L319.001593,346.250898 C319.327545,346.380566 319.694813,346.354702 319.999375,346.180631 L320.069642,346.250898 Z M310.162081,351.970582 L316.949814,348.063771 C317.23088,347.895131 317.216826,347.614066 316.949814,347.431373 L309.108085,342.906218 C308.767018,342.737909 308.36705,342.737909 308.025983,342.906218 L301.252303,346.827082 C300.957184,346.995722 300.985291,347.276787 301.252303,347.445426 L309.079979,351.970582 C309.410644,352.100634 309.7823,352.074824 310.091815,351.900315 L310.162081,351.970582 Z M300.324787,357.690266 L307.11252,353.783455 C307.393585,353.614815 307.379532,353.33375 307.11252,353.151057 L299.270791,348.625902 C298.93133,348.450846 298.52815,348.450846 298.188689,348.625902 L291.415009,352.532713 C291.11989,352.701352 291.133943,352.982418 291.415009,353.16511 L299.256738,357.690266 C299.563092,357.78996 299.896415,357.764708 300.184254,357.619999 L300.324787,357.690266 Z M349.103713,316.598482 L355.891446,312.677618 C356.172512,312.523032 356.158459,312.241966 355.891446,312.059274 L348.049717,307.534118 C347.708651,307.365809 347.308682,307.365809 346.967615,307.534118 L340.193935,311.454983 C339.898816,311.623622 339.91287,311.904688 340.193935,312.073327 L348.035664,316.598482 C348.341423,316.702989 348.676655,316.677593 348.96318,316.528216 L349.103713,316.598482 Z M339.969083,334.867743 L355.090409,326.126604 C355.371475,325.972018 355.357422,325.690953 355.090409,325.50826 L336.048218,314.518597 C335.708757,314.343541 335.305577,314.343541 334.966116,314.518597 L327.152494,319.043753 C326.857375,319.198339 326.885481,319.479404 327.152494,319.662097 L337.242747,325.480154 C337.551919,325.662846 337.565972,325.943912 337.242747,326.112551 L330.876612,329.569657 C330.595547,329.724243 330.6096,330.005309 330.876612,330.188002 L338.746448,334.670997 C339.074414,334.868505 339.477795,334.894698 339.82855,334.741264 L339.969083,334.867743 Z M289.307017,327.841104 L282.533337,331.761969 C282.238219,331.930608 282.252272,332.19762 282.533337,332.380313 L290.375066,336.905468 C290.714528,337.080524 291.117708,337.080524 291.457169,336.905468 L298.244902,332.984604 C298.525967,332.815965 298.511914,332.548952 298.244902,332.36626 L290.403173,327.841104 C290.037326,327.585915 289.558882,327.558731 289.166484,327.770838 L289.307017,327.841104 Z M279.469723,333.560788 L272.471191,337.481653 C272.190125,337.650292 272.204179,337.931358 272.471191,338.099997 L280.31292,342.625152 C280.652381,342.800208 281.055561,342.800208 281.395022,342.625152 L288.182755,338.704288 C288.463821,338.549702 288.449767,338.268636 288.182755,338.085944 L280.284813,333.518628 C279.965023,333.353327 279.587285,333.342978 279.258924,333.490522 L279.469723,333.560788 Z M229.693014,397.643734 C230.032475,397.81879 230.435655,397.81879 230.775116,397.643734 L237.562849,393.722869 C237.843915,393.568283 237.829862,393.287218 237.562849,393.104525 L229.693014,388.607476 C229.353553,388.43242 228.950373,388.43242 228.610912,388.607476 L221.837232,392.528341 C221.542113,392.69698 221.556166,392.978046 221.837232,393.146685 L229.693014,397.643734 Z M199.942225,379.262047 L193.154492,383.182911 C192.873427,383.351551 192.88748,383.618563 193.154492,383.801255 L200.996221,388.326411 C201.335682,388.501467 201.738862,388.501467 202.078324,388.326411 L208.866057,384.405546 C209.147122,384.236907 209.133069,383.969895 208.866057,383.787202 L201.024328,379.262047 C200.696355,379.101131 200.312358,379.101131 199.984385,379.262047 L199.942225,379.262047 Z M215.892695,392.682927 C216.232157,392.857983 216.635337,392.857983 216.974798,392.682927 L223.748478,388.762062 C224.043596,388.607476 224.01549,388.326411 223.748478,388.143718 L215.920802,383.618563 C215.581341,383.443507 215.178161,383.443507 214.8387,383.618563 L208.050967,387.539427 C207.769901,387.708067 207.783954,387.989132 208.050967,388.157771 L215.892695,392.682927 Z M247.189344,401.114893 L253.977078,397.194029 C254.258143,397.02539 254.24409,396.758377 253.977078,396.575685 L246.135349,392.050529 C245.795888,391.875473 245.392707,391.875473 245.053246,392.050529 L238.279567,395.971394 C237.984448,396.12598 238.012554,396.407045 238.279567,396.589738 L246.107242,401.114893 C246.455558,401.309205 246.87844,401.314491 247.231504,401.128947 L247.189344,401.114893 Z M236.199681,406.736204 C236.539143,406.91126 236.942323,406.91126 237.281784,406.736204 L244.069517,402.81534 C244.350582,402.660754 244.336529,402.379688 244.069517,402.196996 L236.227788,397.67184 C235.888327,397.496784 235.485147,397.496784 235.145686,397.67184 L228.372006,401.592705 C228.076887,401.761344 228.09094,402.04241 228.372006,402.211049 L236.199681,406.736204 Z M209.849786,373.458043 L203.076106,377.378908 C202.780987,377.533494 202.795041,377.814559 203.076106,377.997252 L210.917835,382.522407 C211.257296,382.697463 211.660476,382.697463 211.999938,382.522407 L218.787671,378.601543 C219.068736,378.432903 219.054683,378.151838 218.787671,377.983199 L210.945942,373.458043 C210.60096,373.318436 210.210345,373.349685 209.891946,373.542363 L209.849786,373.458043 Z M259.401643,344.859623 L252.61391,348.766435 C252.332844,348.935074 252.346897,349.216139 252.61391,349.384779 L260.455638,353.923987 C260.796705,354.092296 261.196674,354.092296 261.537741,353.923987 L268.311421,350.017176 C268.606539,349.848537 268.592486,349.567471 268.311421,349.384779 L260.469692,344.859623 C260.132836,344.729307 259.754859,344.760373 259.443803,344.943943 L259.401643,344.859623 Z M219.85572,367.822679 L213.08204,371.72949 C212.786921,371.898129 212.800974,372.179195 213.08204,372.361888 L220.923769,376.887043 C221.264836,377.055352 221.664804,377.055352 222.005871,376.887043 L228.793604,372.966178 C229.07467,372.797539 229.060616,372.516474 228.793604,372.347834 L220.951875,367.808626 C220.604747,367.640062 220.198413,367.645271 219.85572,367.822679 Z M269.407576,339.210206 L262.56363,343.102964 C262.282565,343.271603 262.296618,343.552669 262.56363,343.721308 L270.405359,348.246463 C270.74482,348.421519 271.148,348.421519 271.487461,348.246463 L278.261141,344.339652 C278.55626,344.171013 278.542207,343.889947 278.261141,343.707255 L270.447519,339.238312 C270.107056,339.056435 269.7007,339.046016 269.351363,339.210206 L269.407576,339.210206 Z M249.592455,350.663627 L242.804722,354.570438 C242.523656,354.739077 242.53771,355.020143 242.804722,355.202836 L250.646451,359.727991 C250.987518,359.8963 251.387486,359.8963 251.728553,359.727991 L258.502233,355.82118 C258.797352,355.652541 258.769245,355.371475 258.502233,355.188782 L250.674557,350.663627 C250.318259,350.47622 249.89254,350.47622 249.536242,350.663627 L249.592455,350.663627 Z M239.670841,356.383311 L232.897161,360.290122 C232.602042,360.458761 232.630149,360.739827 232.897161,360.92252 L240.73889,365.447675 C241.079957,365.615984 241.479926,365.615984 241.820992,365.447675 L248.594672,361.540864 C248.875738,361.372224 248.861685,361.091159 248.594672,360.908466 L240.752943,356.383311 C240.396645,356.195903 239.970926,356.195903 239.614628,356.383311 L239.670841,356.383311 Z M229.693014,362.102995 L222.919334,366.009806 C222.624215,366.178445 222.652322,366.459511 222.919334,366.642204 L230.74701,371.167359 C231.086471,371.342415 231.489651,371.342415 231.829112,371.167359 L238.616845,367.260548 C238.897911,367.091908 238.883857,366.810843 238.616845,366.62815 L230.775116,362.102995 C230.434049,361.934686 230.034081,361.934686 229.693014,362.102995 Z M280.355079,369.129634 L287.128759,365.222823 C287.423878,365.054183 287.409825,364.773118 287.128759,364.590425 L279.272977,359.966897 C278.93191,359.798588 278.531942,359.798588 278.190875,359.966897 L271.403142,363.873708 C271.122076,364.042347 271.136129,364.323413 271.403142,364.506105 L279.244871,369.031261 C279.590798,369.230007 280.013706,369.240579 280.369133,369.059367 L280.355079,369.129634 Z M367.415134,282.67387 L360.627401,286.594735 C360.346335,286.763374 360.360388,287.030386 360.627401,287.213079 L368.46913,291.738234 C368.808591,291.91329 369.211771,291.91329 369.551232,291.738234 L376.324912,287.81737 C376.620031,287.648731 376.605977,287.381718 376.324912,287.199026 L368.483183,282.67387 C368.147524,282.503606 367.750793,282.503606 367.415134,282.67387 Z M355.413635,289.602136 L348.639955,293.523001 C348.344836,293.677587 348.372943,293.958652 348.639955,294.141345 L356.467631,298.6665 C356.808697,298.834809 357.208666,298.834809 357.549733,298.6665 L364.337466,294.745636 C364.618532,294.576996 364.604478,294.295931 364.337466,294.127291 L356.495737,289.602136 C356.164166,289.399796 355.754274,289.373521 355.399582,289.53187 L355.413635,289.602136 Z M377.322694,276.954186 L370.549015,280.875051 C370.253896,281.029637 370.267949,281.310702 370.549015,281.493395 L378.390744,286.01855 C378.730205,286.193606 379.133385,286.193606 379.472846,286.01855 L386.260579,282.097686 C386.541645,281.929047 386.527591,281.647981 386.260579,281.479342 L378.41885,276.954186 C378.069717,276.726473 377.626373,276.699765 377.252428,276.88392 L377.322694,276.954186 Z M326.028231,329.850723 L332.815965,325.929859 C333.09703,325.761219 333.082977,325.480154 332.815965,325.311514 L324.974236,320.786359 C324.634775,320.611303 324.231594,320.611303 323.892133,320.786359 L317.118454,324.707223 C316.823335,324.861809 316.837388,325.142875 317.118454,325.325568 L324.960182,329.850723 C325.302979,329.994569 325.69351,329.968534 326.014178,329.780457 L326.028231,329.850723 Z M388.312358,271.262609 C387.972896,271.087553 387.569716,271.087553 387.230255,271.262609 L380.456575,275.183473 C380.161457,275.338059 380.17551,275.619125 380.456575,275.801818 L388.298304,280.326973 C388.639371,280.495282 389.03934,280.495282 389.380407,280.326973 L396.16814,276.406108 C396.449205,276.237469 396.435152,275.956404 396.16814,275.787764 L388.312358,271.262609 Z M290.276693,363.339683 L297.064426,359.432872 C297.345492,359.264233 297.331439,358.983167 297.064426,358.800475 L289.180538,354.345586 C288.841077,354.17053 288.437897,354.17053 288.098435,354.345586 L281.324756,358.252397 C281.029637,358.421036 281.04369,358.702102 281.324756,358.884794 L289.166484,363.40995 C289.526397,363.565989 289.939326,363.539854 290.276693,363.339683 Z M411.795384,293.185722 L418.583117,289.264857 C418.864183,289.110271 418.85013,288.829206 418.583117,288.646513 L410.699229,284.079198 C410.359767,283.904142 409.956587,283.904142 409.617126,284.079198 L402.843446,288.000062 C402.548328,288.168702 402.562381,288.449767 402.843446,288.618407 L410.685175,293.143562 C411.02509,293.341767 411.441416,293.357577 411.795384,293.185722 Z M390.715468,292.440898 L397.503201,288.520034 C397.784267,288.351394 397.770213,288.084382 397.503201,287.90169 L389.661472,283.376534 C389.322011,283.201478 388.918831,283.201478 388.57937,283.376534 L381.80569,287.297399 C381.510571,287.466038 381.524624,287.73305 381.80569,287.915743 L389.647419,292.440898 C389.964397,292.624377 390.348583,292.650335 390.687361,292.511165 L390.715468,292.440898 Z M399.526873,277.65685 C399.187412,277.481794 398.784232,277.481794 398.444771,277.65685 L391.671091,281.577715 C391.375972,281.732301 391.390025,282.013366 391.671091,282.196059 L399.51282,286.721214 C399.852281,286.89627 400.255461,286.89627 400.594922,286.721214 L407.382655,282.80035 C407.663721,282.63171 407.649667,282.350645 407.382655,282.182006 L399.526873,277.65685 Z M401.620811,276.448268 L420.648949,287.437931 C420.98841,287.612987 421.39159,287.612987 421.731051,287.437931 L428.518785,283.517067 C428.79985,283.348428 428.785797,283.081415 428.518785,282.898723 L409.476593,271.90906 C409.137132,271.734004 408.733952,271.734004 408.394491,271.90906 L401.620811,275.829924 C401.255426,275.98451 401.283533,276.265576 401.592705,276.448268 L401.620811,276.448268 Z M378.629649,289.096218 L371.841916,293.017083 C371.560851,293.185722 371.574904,293.466787 371.841916,293.635427 L379.683645,298.160582 C380.023106,298.335638 380.426286,298.335638 380.765747,298.160582 L387.539427,294.239718 C387.834546,294.085132 387.820493,293.804066 387.539427,293.621373 L379.697698,289.096218 C379.374091,288.926373 378.990065,288.915994 378.657756,289.068112 L378.629649,289.096218 Z M304.048905,332.15546 L297.233066,336.076325 C296.952,336.244964 296.966054,336.52603 297.233066,336.694669 L305.074795,341.219824 C305.414256,341.394881 305.817436,341.394881 306.156897,341.219824 L312.930577,337.29896 C313.225696,337.144374 313.211642,336.863308 312.930577,336.680616 L305.088848,332.15546 C304.757687,331.976297 304.360925,331.965856 304.020799,332.127354 L304.048905,332.15546 Z M400.833828,298.905406 C401.173289,299.080462 401.576469,299.080462 401.91593,298.905406 L408.703663,294.984541 C408.984729,294.829955 408.970675,294.54889 408.703663,294.366197 L400.861934,289.841042 C400.520868,289.672733 400.120899,289.672733 399.779832,289.841042 L393.006152,293.761906 C392.711033,293.930546 392.725087,294.211611 393.006152,294.38025 L400.833828,298.905406 Z M313.956466,326.435777 L307.182786,330.356641 C306.887667,330.52528 306.901721,330.792293 307.182786,330.974985 L315.024515,335.500141 C315.363976,335.675197 315.767156,335.675197 316.106618,335.500141 L322.894351,331.579276 C323.175416,331.410637 323.161363,331.143624 322.894351,330.960932 L315.052622,326.435777 C314.706694,326.237031 314.283786,326.226458 313.92836,326.40767 L313.956466,326.435777 Z M239.670841,391.952156 C240.010302,392.127212 240.413482,392.127212 240.752943,391.952156 L247.540676,388.031292 C247.821742,387.862653 247.807689,387.59564 247.540676,387.412948 L239.698948,382.887792 C239.359486,382.712736 238.956306,382.712736 238.616845,382.887792 L231.843165,386.808657 C231.548047,386.977296 231.576153,387.244308 231.843165,387.427001 L239.670841,391.952156 Z M224.774367,377.898879 L217.986634,381.819743 C217.705568,381.988383 217.719621,382.255395 217.986634,382.438088 L225.828363,386.963243 C226.167824,387.138299 226.571004,387.138299 226.910465,386.963243 L233.684145,383.042378 C233.979264,382.873739 233.96521,382.606727 233.684145,382.424034 L225.842416,377.898879 C225.499181,377.718952 225.089495,377.718952 224.74626,377.898879 L224.774367,377.898879 Z M250.674557,386.232472 L257.448237,382.311608 C257.729303,382.142969 257.715249,381.861903 257.448237,381.693264 L249.606508,377.168108 C249.267047,376.993052 248.863867,376.993052 248.524406,377.168108 L241.68046,381.046813 C241.399394,381.201399 241.413447,381.482465 241.68046,381.665157 L249.522189,386.190313 C249.865717,386.393525 250.288668,386.409386 250.646451,386.232472 L250.674557,386.232472 Z M260.582118,380.512788 L267.355798,376.591924 C267.650917,376.423285 267.62281,376.142219 267.355798,375.97358 L259.528122,371.448424 C259.188661,371.273368 258.785481,371.273368 258.44602,371.448424 L251.658287,375.355236 C251.377221,375.523875 251.391274,375.804941 251.658287,375.987633 L259.500016,380.512788 C259.848752,380.690494 260.261488,380.690494 260.610225,380.512788 L260.582118,380.512788 Z M270.419412,374.779051 L277.193092,370.87224 C277.488211,370.703601 277.474158,370.422535 277.193092,370.253896 L269.351363,365.714687 C269.010296,365.546378 268.610328,365.546378 268.269261,365.714687 L261.481528,369.621498 C261.200462,369.790138 261.214515,370.071203 261.481528,370.253896 L269.323257,374.779051 C269.673951,374.968963 270.096825,374.968963 270.447519,374.779051 L270.419412,374.779051 Z M234.611661,372.179195 L227.823928,376.100059 C227.542862,376.254645 227.556916,376.535711 227.823928,376.718404 L235.665657,381.243559 C236.005118,381.418615 236.408298,381.418615 236.747759,381.243559 L243.535492,377.322694 C243.816558,377.154055 243.802505,376.87299 243.535492,376.70435 L235.693763,372.179195 C235.36579,372.018279 234.981794,372.018279 234.653821,372.179195 L234.611661,372.179195 Z M244.519222,366.459511 L237.745542,370.366322 C237.450423,370.534961 237.464476,370.816027 237.745542,370.99872 L245.587271,375.523875 C245.928338,375.692184 246.328306,375.692184 246.669373,375.523875 L253.583586,371.631117 C253.864651,371.462478 253.850598,371.181412 253.583586,371.012773 L245.741857,366.487618 C245.381657,366.267981 244.931626,366.257266 244.561382,366.459511 L244.519222,366.459511 Z M284.163518,343.580775 L277.474158,347.487586 C277.193092,347.656226 277.207145,347.937291 277.474158,348.119984 L285.315886,352.645139 C285.656953,352.813448 286.056922,352.813448 286.397989,352.645139 L293.171669,348.738328 C293.466787,348.569689 293.438681,348.288623 293.171669,348.10593 L285.343993,343.580775 C284.989615,343.385749 284.560056,343.385749 284.205678,343.580775 L284.163518,343.580775 Z M274.241904,349.300459 L267.468224,353.20727 C267.187158,353.37591 267.201212,353.656975 267.468224,353.839668 L275.309953,358.364823 C275.65102,358.533132 276.050988,358.533132 276.392055,358.364823 L283.165735,354.458012 C283.460854,354.289373 283.432747,354.008307 283.165735,353.825614 L275.324006,349.300459 C274.994634,349.145687 274.613435,349.145687 274.284064,349.300459 L274.241904,349.300459 Z M294.071078,337.847038 L287.311452,341.767902 C287.030386,341.936542 287.04444,342.217607 287.311452,342.386247 L295.153181,346.925455 C295.494248,347.093764 295.894216,347.093764 296.235283,346.925455 L303.008963,343.004591 C303.304082,342.850005 303.290028,342.568939 303.008963,342.386247 L295.167234,337.861091 C294.836066,337.697421 294.448652,337.692255 294.113238,337.847038 L294.071078,337.847038 Z M254.426782,360.739827 L247.653103,364.646638 C247.357984,364.815277 247.372037,365.096343 247.653103,365.279036 L255.494832,369.804191 C255.835898,369.9725 256.235867,369.9725 256.576934,369.804191 L263.364667,365.883327 C263.645732,365.714687 263.631679,365.433622 263.364667,365.264982 L255.522938,360.725774 C255.187524,360.570991 254.80011,360.576157 254.468942,360.739827 L254.426782,360.739827 Z M264.334343,355.020143 L257.560663,358.926954 C257.265544,359.095594 257.293651,359.376659 257.560663,359.559352 L265.402392,364.084507 C265.736917,364.25945 266.135916,364.25945 266.470441,364.084507 L273.258174,360.177696 C273.53924,360.009057 273.525187,359.727991 273.258174,359.545298 L265.416445,355.020143 C265.087074,354.865371 264.705875,354.865371 264.376503,355.020143 L264.334343,355.020143 Z M257.110958,395.409263 L263.884638,391.488398 C264.165704,391.319759 264.15165,391.038693 263.884638,390.870054 L256.042909,386.344899 C255.703448,386.169843 255.300268,386.169843 254.960807,386.344899 L248.187127,390.265763 C247.892008,390.420349 247.920115,390.701415 248.187127,390.884107 L256.028856,395.409263 C256.37955,395.599174 256.802424,395.599174 257.153118,395.409263 L257.110958,395.409263 Z M199.000656,389.47878 L191.158927,384.953624 C190.819466,384.778568 190.416286,384.778568 190.076825,384.953624 L183.317198,388.902595 C183.036133,389.071235 183.050186,389.338247 183.317198,389.520939 L191.158927,394.046095 C191.498388,394.221151 191.901568,394.221151 192.241029,394.046095 L199.014709,390.12523 C199.323881,389.998751 199.309828,389.717685 199.000656,389.47878 Z M213.840917,393.835296 L205.999188,389.31014 C205.662996,389.142117 205.267331,389.142117 204.931139,389.31014 L194.55982,395.367103 C194.278755,395.535742 194.292808,395.816808 194.55982,395.985447 L202.401549,400.510602 C202.74101,400.685658 203.14419,400.685658 203.483651,400.510602 L213.911183,394.4958 C214.234409,394.355267 214.150089,394.074201 213.840917,393.891509 L213.840917,393.835296 Z M186.97105,380.723588 L179.101215,376.254645 C178.761754,376.079589 178.358574,376.079589 178.019112,376.254645 L169.699572,381.046813 C169.418507,381.215452 169.43256,381.496518 169.699572,381.679211 L177.541301,386.204366 C177.880762,386.379422 178.283942,386.379422 178.623403,386.204366 L186.956997,381.398145 C187.294276,381.243559 187.280222,380.962493 186.97105,380.779801 L186.97105,380.723588 Z M193.365292,377.027576 C193.704753,377.202632 194.107933,377.202632 194.447394,377.027576 L201.221074,373.106711 C201.516192,372.952125 201.502139,372.67106 201.221074,372.488367 L193.379345,367.963212 C193.039884,367.788156 192.636704,367.788156 192.297242,367.963212 L185.509509,371.884076 C185.228444,372.052715 185.242497,372.333781 185.509509,372.50242 L193.365292,377.027576 Z M227.655289,398.796103 L219.85572,394.32716 C219.514653,394.158851 219.114684,394.158851 218.773617,394.32716 L205.732176,401.859717 C205.45111,402.028356 205.465163,402.309422 205.732176,402.478061 L213.573905,407.01727 C213.914971,407.185579 214.31494,407.185579 214.656007,407.01727 L227.697449,399.484713 C227.978514,399.316074 227.964461,399.035008 227.655289,398.852316 L227.655289,398.796103 Z M234.161956,407.972893 L226.320227,403.532057 C225.980766,403.357001 225.577586,403.357001 225.238125,403.532057 L216.890478,408.352331 C216.609413,408.520971 216.623466,408.802036 216.890478,408.984729 L224.732207,413.509884 C225.073274,413.678193 225.473243,413.678193 225.814309,413.509884 L234.161956,408.68961 C234.485182,408.492864 234.471128,408.211799 234.161956,408.029106 L234.161956,407.972893 Z M267.046626,334.488305 C267.386087,334.663361 267.789267,334.663361 268.128728,334.488305 L274.902408,330.581493 C275.197527,330.412854 275.16942,330.131789 274.902408,329.949096 L267.060679,325.423941 C266.719612,325.255631 266.319643,325.255631 265.978577,325.423941 L259.204897,329.401018 C258.923831,329.569657 258.937885,329.850723 259.204897,330.019362 L267.046626,334.488305 Z M247.217451,345.941726 C247.558518,346.110035 247.958487,346.110035 248.299553,345.941726 L255.087286,342.034915 C255.368352,341.866275 255.354299,341.58521 255.087286,341.402517 L247.245558,336.877362 C246.904491,336.709053 246.504522,336.709053 246.163455,336.877362 L239.389775,340.784173 C239.094657,340.952812 239.122763,341.233878 239.389775,341.41657 L247.217451,345.941726 Z M203.272852,371.364105 C203.612313,371.539161 204.015493,371.539161 204.354955,371.364105 L211.128634,367.44324 C211.423753,367.274601 211.4097,367.007589 211.128634,366.824896 L203.286905,362.299741 C202.947444,362.124685 202.544264,362.124685 202.204803,362.299741 L195.41707,366.220605 C195.136004,366.389245 195.150058,366.656257 195.41707,366.838949 L203.272852,371.364105 Z M257.139065,340.292308 C257.475257,340.460331 257.870922,340.460331 258.207114,340.292308 L264.994847,336.385497 C265.275913,336.216858 265.261859,335.935792 264.994847,335.7531 L257.153118,331.227944 C256.813657,331.052888 256.410477,331.052888 256.071016,331.227944 L249.297336,335.134755 C249.002217,335.303395 249.030324,335.58446 249.297336,335.767153 L257.139065,340.292308 Z M237.30989,351.731676 C237.649352,351.906732 238.052532,351.906732 238.391993,351.731676 L245.179726,347.824865 C245.460791,347.656226 245.446738,347.37516 245.179726,347.192467 L237.337997,342.667312 C236.99693,342.499003 236.596961,342.499003 236.255895,342.667312 L229.482215,346.574123 C229.187096,346.742763 229.201149,347.023828 229.482215,347.206521 L237.30989,351.731676 Z M239.600575,408.77393 C239.259508,408.605621 238.859539,408.605621 238.518472,408.77393 L228.09094,414.774679 C227.809875,414.943318 227.823928,415.224384 228.09094,415.407077 L235.932669,419.932232 C236.27213,420.107288 236.67531,420.107288 237.014772,419.932232 L247.442303,413.917429 C247.737422,413.74879 247.709316,413.467724 247.442303,413.285032 L239.600575,408.77393 Z M223.087974,359.966897 C223.42904,360.135206 223.829009,360.135206 224.170076,359.966897 L230.957809,356.046032 C231.238874,355.877393 231.224821,355.596327 230.957809,355.427688 L223.11608,350.902533 C222.776619,350.727477 222.373439,350.727477 222.033978,350.902533 L215.260298,354.823397 C214.965179,354.977983 214.979232,355.259049 215.260298,355.441741 L223.087974,359.966897 Z M213.180413,365.588208 C213.519874,365.763264 213.923054,365.763264 214.262515,365.588208 L221.050248,361.667343 C221.331314,361.498704 221.317261,361.217638 221.050248,361.048999 L213.208519,356.523844 C212.869058,356.348788 212.465878,356.348788 212.126417,356.523844 L205.352737,360.444708 C205.057618,360.599294 205.071672,360.88036 205.352737,361.063052 L213.180413,365.588208 Z M423.192592,302.770057 C422.853131,302.595001 422.449951,302.595001 422.11049,302.770057 L405.358983,312.382499 C405.077918,312.551138 405.091971,312.832204 405.358983,313.014896 L413.200712,317.540052 C413.541779,317.708361 413.941748,317.708361 414.282814,317.540052 L431.062428,307.96977 C431.357547,307.801131 431.343493,307.520065 431.062428,307.337372 L423.192592,302.770057 Z M401.283533,315.418007 C400.944072,315.242951 400.540891,315.242951 400.20143,315.418007 L393.427751,319.324818 C393.132632,319.493457 393.146685,319.774523 393.427751,319.957216 L401.269479,324.482371 C401.610546,324.65068 402.010515,324.65068 402.351582,324.482371 L409.139315,320.57556 C409.42038,320.40692 409.406327,320.125855 409.139315,319.943162 L401.283533,315.418007 Z M267.060679,389.689579 L273.834359,385.768714 C274.129478,385.600075 274.101371,385.319009 273.834359,385.15037 L266.006683,380.611161 C265.665616,380.442852 265.265648,380.442852 264.924581,380.611161 L258.136848,384.517973 C257.855782,384.686612 257.869835,384.967677 258.136848,385.15037 L265.978577,389.675525 C266.317454,389.84828 266.71743,389.853474 267.060679,389.689579 Z M381.468411,326.857375 C381.127345,326.689066 380.727376,326.689066 380.386309,326.857375 L373.598576,330.764186 C373.31751,330.932825 373.331564,331.213891 373.598576,331.396583 L381.440305,335.921739 C381.779766,336.096795 382.182946,336.096795 382.522407,335.921739 L389.296087,332.014928 C389.591206,331.846288 389.577152,331.565223 389.296087,331.38253 L381.468411,326.857375 Z M433.100153,297.050373 C432.759086,296.882064 432.359117,296.882064 432.018051,297.050373 L425.244371,300.943131 C424.949252,301.11177 424.963305,301.392836 425.244371,301.561475 L433.0861,306.100684 C433.427167,306.268993 433.827135,306.268993 434.168202,306.100684 L440.955935,302.193873 C441.237001,302.025233 441.222947,301.744168 440.955935,301.561475 L433.100153,297.050373 Z M450.849443,295.855845 L431.807251,284.866182 C431.46779,284.691126 431.06461,284.691126 430.725149,284.866182 L423.951469,288.787046 C423.656351,288.955685 423.670404,289.236751 423.951469,289.40539 L442.99366,300.395053 C443.333122,300.570109 443.736302,300.570109 444.075763,300.395053 L450.863496,296.474189 C451.172668,296.319603 451.158615,296.038537 450.849443,295.855845 Z M344.438025,348.246463 C344.098564,348.071407 343.695384,348.071407 343.355923,348.246463 L335.008276,353.066737 C334.72721,353.235377 334.741264,353.516442 335.008276,353.685082 L342.850005,358.210237 C343.189466,358.385293 343.592646,358.385293 343.932107,358.210237 L352.279754,353.389963 C352.560819,353.221324 352.546766,352.940258 352.279754,352.771619 L344.438025,348.246463 Z M369.466912,333.785641 C369.127451,333.610585 368.724271,333.610585 368.38481,333.785641 L357.957278,339.800443 C357.676212,339.969083 357.690266,340.250148 357.957278,340.418788 L365.799007,344.957996 C366.140074,345.126305 366.540042,345.126305 366.881109,344.957996 L377.308641,338.943194 C377.589707,338.774554 377.575653,338.493489 377.308641,338.310796 L369.466912,333.785641 Z M321.489023,361.484651 C321.147956,361.316342 320.747987,361.316342 320.40692,361.484651 L264.601355,393.694763 C264.32029,393.863402 264.334343,394.144468 264.601355,394.32716 L272.443084,398.852316 C272.784151,399.020625 273.18412,399.020625 273.525187,398.852316 L329.330752,366.62815 C329.611817,366.459511 329.597764,366.178445 329.330752,365.995753 L321.489023,361.484651 Z M262.549577,395.521689 C262.210116,395.346633 261.806936,395.346633 261.467474,395.521689 L253.133881,400.341963 C252.838762,400.510602 252.852815,400.791668 253.133881,400.960307 L260.97561,405.485463 C261.315071,405.660519 261.718251,405.660519 262.057712,405.485463 L270.447519,400.721402 C270.728584,400.552762 270.714531,400.271697 270.447519,400.103057 L262.549577,395.521689 Z M332.956497,354.865557 C332.61543,354.697248 332.215462,354.697248 331.874395,354.865557 L323.540801,359.685831 C323.245683,359.854471 323.259736,360.135536 323.540801,360.318229 L331.38253,364.843384 C331.723597,365.011693 332.123566,365.011693 332.464633,364.843384 L340.812279,360.02311 C341.107398,359.868524 341.079292,359.587458 340.812279,359.404766 L332.956497,354.865557 Z M251.082102,402.126729 C250.741036,401.95842 250.341067,401.95842 250,402.126729 L241.652353,406.947004 C241.371288,407.115643 241.385341,407.396708 241.652353,407.579401 L249.494082,412.104556 C249.835149,412.272865 250.235118,412.272865 250.576184,412.104556 L258.909778,407.298335 C259.204897,407.129696 259.190844,406.848631 258.909778,406.665938 L251.082102,402.126729 Z M355.9055,341.599263 C355.564433,341.430954 355.164464,341.430954 354.823397,341.599263 L346.489804,346.405484 C346.194685,346.574123 346.208738,346.855189 346.489804,347.037881 L354.331532,351.563037 C354.672599,351.731346 355.072568,351.731346 355.413635,351.563037 L363.761282,346.742763 C364.0564,346.574123 364.028294,346.293058 363.761282,346.110365 L355.9055,341.599263 Z M391.375972,321.123638 C391.036511,320.948582 390.633331,320.948582 390.29387,321.123638 L383.52019,325.030449 C383.225071,325.199088 383.239124,325.480154 383.52019,325.662846 L391.361919,330.188002 C391.702986,330.356311 392.102954,330.356311 392.444021,330.188002 L399.231754,326.28119 C399.51282,326.112551 399.498766,325.831486 399.231754,325.648793 L391.375972,321.123638 Z M413.088286,305.35586 L419.861966,301.449049 C420.157084,301.28041 420.143031,300.999344 419.861966,300.816652 L412.020237,296.291496 C411.67917,296.123187 411.279201,296.123187 410.938134,296.291496 L404.150401,300.212361 C403.869336,300.381 403.883389,300.662066 404.150401,300.830705 L411.99213,305.369913 C412.337045,305.542883 412.743371,305.542883 413.088286,305.369913 L413.088286,305.35586 Z M368.820462,305.159114 L375.608195,301.23825 C375.88926,301.069611 375.875207,300.788545 375.608195,300.619906 L367.766466,296.09475 C367.427005,295.919694 367.023825,295.919694 366.684363,296.09475 L359.910684,300.015615 C359.615565,300.184254 359.643671,300.451266 359.910684,300.633959 L367.738359,305.159114 C368.07782,305.33417 368.481,305.33417 368.820462,305.159114 Z M346.335218,343.98832 L366.150339,332.548952 C366.431404,332.380313 366.417351,332.099247 366.150339,331.916555 L358.30861,327.391399 C357.967543,327.22309 357.567574,327.22309 357.226508,327.391399 L337.411386,338.844821 C337.130321,338.999407 337.144374,339.280472 337.411386,339.463165 L345.253115,343.98832 C345.60387,344.141755 346.007251,344.115561 346.335218,343.918054 L346.335218,343.98832 Z M402.098623,311.145811 C402.43969,311.31412 402.839658,311.31412 403.180725,311.145811 L409.954405,307.238999 C410.249524,307.07036 410.23547,306.789295 409.954405,306.606602 L402.112676,302.081447 C401.773215,301.906391 401.370035,301.906391 401.030574,302.081447 L394.242841,305.988258 C393.961775,306.156897 393.975828,306.437963 394.242841,306.620655 L402.098623,311.145811 Z M391.980263,304.695356 L398.753943,300.788545 C399.049062,300.619906 399.035008,300.33884 398.753943,300.156148 L390.912214,295.630992 C390.571147,295.462683 390.171178,295.462683 389.830111,295.630992 L383.042378,299.551857 C382.761313,299.720496 382.775366,300.001561 383.042378,300.170201 L390.884107,304.709409 C391.242236,304.85643 391.648833,304.825153 391.980263,304.62509 L391.980263,304.695356 Z M336.427657,349.665844 L343.201337,345.74498 C343.496455,345.576341 343.468349,345.309328 343.201337,345.126636 L335.359608,340.60148 C335.020147,340.426424 334.616967,340.426424 334.277505,340.60148 L327.461666,344.508291 C327.166547,344.676931 327.194654,344.943943 327.461666,345.126636 L335.303395,349.651791 C335.67473,349.863793 336.131678,349.858418 336.497923,349.637738 L336.427657,349.665844 Z M380.189563,323.751601 C380.53063,323.91991 380.930599,323.91991 381.271665,323.751601 L388.059399,319.844789 C388.340464,319.67615 388.326411,319.395084 388.059399,319.212392 L380.21767,314.687237 C379.876603,314.518927 379.476634,314.518927 379.135567,314.687237 L372.361888,318.608101 C372.066769,318.77674 372.080822,319.057806 372.361888,319.226445 L380.189563,323.751601 Z M286.8758,378.236158 L293.64948,374.329346 C293.944599,374.160707 293.930546,373.879641 293.64948,373.696949 L285.807751,369.171794 C285.466684,369.003484 285.066716,369.003484 284.725649,369.171794 L277.937916,373.078605 C277.65685,373.247244 277.670903,373.52831 277.937916,373.711002 L285.779645,378.236158 C286.124559,378.409127 286.530886,378.409127 286.8758,378.236158 Z M296.783361,372.516474 L303.571094,368.609662 C303.85216,368.441023 303.838106,368.159958 303.571094,367.977265 L295.743418,363.45211 C295.403957,363.277054 295.000777,363.277054 294.661316,363.45211 L287.873583,367.358921 C287.592517,367.52756 287.606571,367.808626 287.873583,367.991318 L295.715312,372.516474 C296.052505,372.680197 296.446168,372.680197 296.783361,372.516474 Z M276.96824,383.955841 L283.741919,380.04903 C284.037038,379.880391 284.022985,379.599325 283.741919,379.416633 L275.914244,374.891477 C275.573177,374.723168 275.173208,374.723168 274.832141,374.891477 L268.044408,378.798289 C267.763343,378.966928 267.777396,379.247994 268.044408,379.430686 L275.886137,383.955841 C276.225598,384.130898 276.628778,384.130898 276.96824,383.955841 Z M316.598482,361.077106 L323.386215,357.170294 C323.667281,357.001655 323.653228,356.72059 323.386215,356.537897 L315.544486,352.012742 C315.20342,351.844433 314.803451,351.844433 314.462384,352.012742 L307.688704,355.933606 C307.393585,356.102245 307.407639,356.383311 307.688704,356.55195 L315.530433,361.077106 C315.866092,361.24737 316.262823,361.24737 316.598482,361.077106 Z M306.761188,366.79679 L313.548921,362.889978 C313.829987,362.721339 313.815933,362.440274 313.548921,362.257581 L305.580713,357.732426 C305.241252,357.55737 304.838071,357.55737 304.49861,357.732426 L297.724931,361.639237 C297.429812,361.807876 297.443865,362.088942 297.724931,362.257581 L305.566659,366.79679 C305.91919,366.979308 306.338391,366.979308 306.690922,366.79679 L306.761188,366.79679 Z M326.576309,355.357422 L333.364042,351.436557 C333.645108,351.281971 333.631055,351.000906 333.364042,350.818213 L325.522313,346.293058 C325.182852,346.118002 324.779672,346.118002 324.440211,346.293058 L317.554105,350.129602 C317.258986,350.298242 317.287093,350.579307 317.554105,350.747947 L325.381781,355.273102 C325.718032,355.489911 326.141214,355.52165 326.506043,355.357422 L326.576309,355.357422 Z M371.912183,270.714531 C372.251644,270.889587 372.654824,270.889587 372.994285,270.714531 L379.782018,266.793667 C380.063084,266.639081 380.04903,266.358015 379.782018,266.175322 L377.702133,264.966741 C377.361066,264.798432 376.961097,264.798432 376.620031,264.966741 L369.832298,268.873552 C369.551232,269.042191 369.565285,269.323257 369.832298,269.505949 L371.912183,270.714531 Z M323.161363,302.193873 C323.500824,302.368929 323.904004,302.368929 324.243465,302.193873 L331.017145,298.287062 C331.312264,298.118422 331.298211,297.837357 331.017145,297.654664 L323.175416,293.129509 C322.834349,292.9612 322.434381,292.9612 322.093314,293.129509 L315.305581,297.03632 C315.024515,297.204959 315.038568,297.486025 315.305581,297.668717 L323.161363,302.193873 Z M342.976484,290.754505 C343.317551,290.922814 343.71752,290.922814 344.058587,290.754505 L350.84632,286.847694 C351.127385,286.679054 351.113332,286.397989 350.84632,286.215296 L343.004591,281.690141 C342.66513,281.515085 342.26195,281.515085 341.922488,281.690141 L335.092595,285.596952 C334.797477,285.765591 334.81153,286.046657 335.092595,286.229349 L342.976484,290.754505 Z M311.061491,309.178352 C311.402558,309.346661 311.802526,309.346661 312.143593,309.178352 L318.917273,305.257487 C319.212392,305.088848 319.198339,304.807782 318.917273,304.639143 L311.075544,300.099934 C310.734477,299.931625 310.334509,299.931625 309.993442,300.099934 L303.205709,304.006746 C302.924643,304.175385 302.938696,304.45645 303.205709,304.639143 L311.061491,309.178352 Z M333.068924,296.530402 C333.40999,296.698711 333.809959,296.698711 334.151026,296.530402 L340.938759,292.623591 C341.219824,292.454951 341.205771,292.173886 340.938759,291.991193 L333.09703,287.466038 C332.755963,287.297729 332.355995,287.297729 332.014928,287.466038 L325.241248,291.372849 C324.946129,291.541488 324.960182,291.822554 325.241248,292.005247 L333.068924,296.530402 Z M291.176103,320.61772 C291.515564,320.792776 291.918744,320.792776 292.258206,320.61772 L299.031885,316.696855 C299.327004,316.528216 299.298898,316.24715 299.031885,316.078511 L291.20421,311.553356 C290.864749,311.3783 290.461569,311.3783 290.122107,311.553356 L283.334374,315.47422 C283.053309,315.628806 283.067362,315.909872 283.334374,316.092564 L291.176103,320.61772 Z M301.083664,314.898036 C301.424731,315.066345 301.824699,315.066345 302.165766,314.898036 L308.939446,310.977171 C309.234565,310.808532 309.220512,310.527466 308.939446,310.358827 L301.11177,305.833672 C300.772309,305.658616 300.369129,305.658616 300.029668,305.833672 L293.241935,309.754536 C292.960869,309.909122 292.974923,310.190188 293.241935,310.37288 L301.083664,314.898036 Z M352.026795,282.167952 C352.367862,282.336261 352.76783,282.336261 353.108897,282.167952 L359.89663,278.261141 C360.177696,278.092502 360.163643,277.811436 359.89663,277.628744 L357.802692,276.420162 C357.461625,276.251853 357.061656,276.251853 356.72059,276.420162 L349.94691,280.326973 C349.651791,280.495612 349.679898,280.776678 349.94691,280.95937 L352.026795,282.167952 Z M381.76353,264.994847 C382.098055,265.16979 382.497054,265.16979 382.831579,264.994847 L389.619312,261.073983 C389.900378,260.905343 389.886325,260.638331 389.619312,260.455638 L387.539427,259.247057 C387.199966,259.072001 386.796786,259.072001 386.457325,259.247057 L379.669592,263.153868 C379.388526,263.322507 379.40258,263.603573 379.669592,263.786265 L381.76353,264.994847 Z M398.219918,274.508916 C398.560985,274.677225 398.960954,274.677225 399.302021,274.508916 L406.089754,270.588052 C406.370819,270.419412 406.356766,270.138347 406.089754,269.969707 L398.248025,265.430499 C397.906958,265.26219 397.506989,265.26219 397.165922,265.430499 L390.392243,269.33731 C390.097124,269.505949 390.12523,269.787015 390.392243,269.969707 L398.219918,274.508916 Z M422.995846,299.65023 L429.78358,295.729365 C430.064645,295.574779 430.050592,295.293714 429.78358,295.111021 L421.941851,290.585866 C421.600784,290.417556 421.200815,290.417556 420.859748,290.585866 L414.086069,294.50673 C413.79095,294.675369 413.805003,294.956435 414.086069,295.125074 L421.927797,299.65023 C422.263457,299.820494 422.660187,299.820494 422.995846,299.65023 Z M361.934356,276.448268 C362.275422,276.616577 362.675391,276.616577 363.016458,276.448268 L369.804191,272.541457 C370.085257,272.372818 370.071203,272.091752 369.804191,271.90906 L367.710253,270.700478 C367.369186,270.532169 366.969217,270.532169 366.62815,270.700478 L359.854471,274.607289 C359.573405,274.775928 359.587458,275.056994 359.854471,275.239686 L361.934356,276.448268 Z M281.268543,326.337404 C281.608004,326.51246 282.011184,326.51246 282.350645,326.337404 L289.124325,322.416539 C289.40539,322.2479 289.391337,321.980888 289.124325,321.798195 L281.282596,317.27304 C280.943135,317.097984 280.539955,317.097984 280.200493,317.27304 L273.426814,321.193904 C273.145748,321.362543 273.159801,321.629556 273.426814,321.812248 L281.268543,326.337404 Z" id="Shape" fill="#455A64" fill-rule="nonzero"></path>
                        <path d="M156.615971,172.018363 L377.758346,44.3443365 C382.072702,41.8428531 385.614128,43.8946316 385.614128,48.8835452 L385.614128,220.150839 C385.470432,222.719725 384.114052,225.067306 381.960276,226.474813 L155.210643,357.395147 C153.201024,358.547516 151.556791,357.605946 151.556791,355.287155 L151.556791,180.773555 C151.761543,177.218653 153.63825,173.970908 156.615971,172.018363 Z" id="Path" fill="#F5F5F5"></path>
                        <path d="M385.684395,52.9871022 L385.684395,48.8835452 C385.684395,43.8946316 382.142969,41.8569064 377.828612,44.3443365 L156.615971,172.018363 C153.63825,173.970908 151.761543,177.218653 151.556791,180.773555 L151.556791,188.123419 L385.684395,52.9871022 Z" id="Path" fill="#111D5F"></path>
                        <polygon id="Rectangle" fill="#37474F" transform="translate(191.325306, 287.740933) rotate(30.000000) translate(-191.325306, -287.740933) " points="186.357473 266.668043 196.29314 266.668043 196.29314 308.813823 186.357473 308.813823"></polygon>
                        <polygon id="Rectangle" fill="#263238" transform="translate(193.496564, 288.973549) rotate(30.000000) translate(-193.496564, -288.973549) " points="191.016161 267.90066 195.976968 267.90066 195.976968 310.046439 191.016161 310.046439"></polygon>
                        <path d="M153.383717,374.779051 C149.462853,381.594891 130.898473,370.773867 134.805284,364.0564 L183.218825,288.54814 C183.489753,288.123218 184.047218,287.986949 184.48362,288.238968 L194.208488,293.860279 C194.643797,294.106569 194.805434,294.653649 194.573873,295.096968 L153.383717,374.779051 Z" id="Path" fill="#111D5F"></path>
                        <path d="M153.383717,374.779051 L194.55982,295.096968 C194.791381,294.653649 194.629744,294.106569 194.194435,293.860279 L189.767652,291.302583 L142.562693,375.214703 C146.862996,377.336748 151.613004,377.856719 153.383717,374.779051 Z" id="Path" fill="#000000" opacity="0.1"></path>
                        <path d="M295.743418,197.019144 C295.743418,196.442959 295.743418,195.880828 295.659099,195.318697 C295.574779,194.756566 295.659099,194.208488 295.532619,193.66041 C295.40614,193.112333 295.532619,192.92964 295.420193,192.564255 C295.32182,191.608632 295.181287,190.667062 295.026701,189.753599 C294.956435,189.346054 294.886168,188.924456 294.801849,188.516911 C294.717529,188.109366 294.647263,187.743981 294.562943,187.364542 C294.324037,186.324599 294.071078,185.312763 293.77596,184.343087 C293.621373,183.879329 293.480841,183.415571 293.326255,182.93776 C293.296555,182.869744 293.273038,182.799193 293.255988,182.72696 C293.087349,182.277256 292.932763,181.841604 292.764124,181.420006 C292.595484,180.998407 292.370632,180.436276 292.145779,180.014678 C291.920927,179.59308 291.836607,179.326067 291.653915,178.988789 C291.55202,178.735746 291.429827,178.491359 291.288529,178.258018 C291.147997,177.962899 290.993411,177.667781 290.824771,177.386715 C290.656132,177.105649 290.754505,177.246182 290.712345,177.189969 C290.670185,177.133756 290.417226,176.684051 290.26264,176.431092 C290.108054,176.178133 290.051841,176.107867 289.953468,175.953281 C289.233294,174.818884 288.425084,173.742838 287.536304,172.73508 L287.086599,172.229162 L286.707161,171.83567 C286.552575,171.667031 286.383936,171.512445 286.215296,171.343806 C285.773923,170.879925 285.304605,170.443459 284.809968,170.036851 C284.571063,169.826052 284.318104,169.629306 284.065145,169.446613 L283.292214,168.884482 C282.890567,168.59005 282.473022,168.317942 282.041473,168.069392 L281.704194,167.858593 L281.633928,167.858593 L261.720433,156.363012 L261.608007,156.292745 C257.787532,154.16208 253.474637,153.071741 249.10059,153.130758 C242.579869,153.130758 235.215952,155.266856 227.416383,159.763905 C200.630836,175.22251 178.904469,212.857187 178.904469,243.802505 C178.904469,259.26111 184.300928,270.082134 193.028013,275.16942 L193.112333,275.16942 L213.03988,286.650948 L213.1242,286.650948 L213.363105,286.777427 C213.736796,286.998155 214.12141,287.199843 214.515474,287.381718 C214.993286,287.620624 215.48515,287.831423 215.920802,288.028169 C216.356454,288.224915 216.806158,288.379501 217.255863,288.520034 L217.97258,288.730833 C218.223587,288.826957 218.482111,288.902164 218.745511,288.955685 C219.004367,289.034447 219.267028,289.100113 219.532494,289.152431 C219.721367,289.207992 219.9139,289.250256 220.108679,289.278911 C220.445957,289.349177 220.811343,289.419443 221.162674,289.461603 C221.241749,289.474969 221.322506,289.474969 221.40158,289.461603 C221.823179,289.536554 222.244777,289.592767 222.666375,289.630243 C229.88976,290.38912 238.29362,288.351394 247.287717,283.165735 C274.087318,267.70713 295.813685,230.058399 295.813685,199.127135 C295.743418,198.480685 295.743418,197.749914 295.743418,197.019144 Z M263.238187,175.138191 C264.290721,178.983641 264.80621,182.956215 264.769995,186.942944 C264.769995,214.234409 244.800287,248.777365 221.204834,262.465257 C217.75566,264.515573 214.031448,266.06299 210.144905,267.060679 C209.098438,263.209222 208.58307,259.232851 208.613098,255.241873 C208.613098,227.950408 228.582805,193.407451 252.178258,179.719559 C255.614559,177.676786 259.324446,176.134155 263.196028,175.138191 L263.238187,175.138191 Z" id="Shape" fill="#111D5F" fill-rule="nonzero"></path>
                        <path d="M212.22479,286.257456 L192.873427,275.099154 C184.146341,269.997814 178.749883,259.148684 178.749883,243.746291 C178.749883,229.945973 183.078292,214.824646 190.231411,200.940008 L210.158958,212.407483 C202.991787,226.292121 198.67743,241.413447 198.67743,255.213766 C198.67743,270.335093 203.82093,281.029637 212.22479,286.257456 Z" id="Path" fill="#000000" opacity="0.1"></path>
                        <path d="M295.743418,197.019144 C295.743418,196.442959 295.743418,195.880828 295.659099,195.318697 C295.574779,194.756566 295.659099,194.208488 295.532619,193.66041 C295.40614,193.112333 295.532619,192.92964 295.420193,192.564255 C295.32182,191.608632 295.181287,190.667062 295.026701,189.753599 C294.956435,189.346054 294.886168,188.924456 294.801849,188.516911 C294.717529,188.109366 294.647263,187.743981 294.562943,187.364542 C294.324037,186.324599 294.071078,185.312763 293.77596,184.343087 C293.621373,183.879329 293.480841,183.415571 293.326255,182.93776 C293.296555,182.869744 293.273038,182.799193 293.255988,182.72696 C293.087349,182.277256 292.932763,181.841604 292.764124,181.420006 C292.595484,180.998407 292.370632,180.436276 292.145779,180.014678 C291.920927,179.59308 291.836607,179.326067 291.653915,178.988789 C291.55202,178.735746 291.429827,178.491359 291.288529,178.258018 C291.147997,177.962899 290.993411,177.667781 290.824771,177.386715 C290.656132,177.105649 290.754505,177.246182 290.712345,177.189969 C290.670185,177.133756 290.417226,176.684051 290.26264,176.431092 C290.108054,176.178133 290.051841,176.107867 289.953468,175.953281 C289.233294,174.818884 288.425084,173.742838 287.536304,172.73508 L287.086599,172.229162 L286.707161,171.83567 C286.552575,171.667031 286.383936,171.512445 286.215296,171.343806 C285.773923,170.879925 285.304605,170.443459 284.809968,170.036851 C284.571063,169.826052 284.318104,169.629306 284.065145,169.446613 L283.292214,168.884482 C282.890567,168.59005 282.473022,168.317942 282.041473,168.069392 C273.230068,162.715093 260.961556,163.347491 247.315824,171.203273 C220.516224,186.661878 198.789857,224.296555 198.789857,255.241873 C198.789857,270.911277 204.411168,281.85878 213.334999,286.83364 C213.708689,287.054368 214.093303,287.256056 214.487368,287.437931 C214.965179,287.676837 215.457044,287.887636 215.892695,288.084382 C216.328347,288.281128 216.778052,288.435714 217.227757,288.576247 L217.944474,288.787046 C218.19548,288.88317 218.454004,288.958377 218.717404,289.011898 C218.97626,289.09066 219.238921,289.156326 219.504388,289.208644 C219.69326,289.264206 219.885793,289.306469 220.080572,289.335124 C220.417851,289.40539 220.783236,289.475657 221.134568,289.517816 C221.213642,289.531182 221.294399,289.531182 221.373474,289.517816 C221.795072,289.592767 222.21667,289.64898 222.638269,289.686456 C229.861653,290.445333 238.265513,288.407608 247.259611,283.221948 C274.059211,267.763343 295.785578,230.114612 295.785578,199.183348 C295.743418,198.480685 295.743418,197.749914 295.743418,197.019144 Z M242.340964,274.747822 C236.326161,278.218981 230.536211,280.045907 225.589457,280.045907 C216.30024,280.045907 212.028044,273.707879 210.130852,267.060679 C209.084385,263.209222 208.569017,259.232851 208.599044,255.241873 C208.599044,227.950408 228.568752,193.407451 252.164205,179.719559 C255.613647,177.673102 259.337977,176.130368 263.224134,175.138191 C265.063819,174.682364 266.950239,174.441846 268.845445,174.421473 C284.205678,174.421473 285.849911,191.763218 285.849911,199.225508 C285.906124,226.46076 265.936417,261.102089 242.340964,274.747822 Z" id="Shape" fill="#FFFFFF" fill-rule="nonzero" opacity="0.4"></path>
                        <path d="M285.906124,199.225508 C285.906124,226.516973 265.95047,261.059929 242.340964,274.747822 C236.326161,278.218981 230.536211,280.045907 225.589457,280.045907 C216.30024,280.045907 212.028044,273.707879 210.130852,267.060679 C214.017395,266.06299 217.741607,264.515573 221.190781,262.465257 C244.828394,248.819525 264.755941,214.234409 264.755941,186.942944 C264.792156,182.956215 264.276668,178.983641 263.224134,175.138191 C265.063819,174.682364 266.950239,174.441846 268.845445,174.421473 C284.247837,174.463633 285.906124,191.763218 285.906124,199.225508 Z" id="Path" fill="#000000" opacity="0.1"></path>
                        <path d="M277.474158,194.461447 C277.474158,221.752912 257.518503,256.295868 233.908997,269.983761 C227.894194,273.45492 222.104244,275.281846 217.15749,275.281846 C216.173495,275.284285 215.191022,275.204371 214.220355,275.042941 C212.321275,272.696759 210.937461,269.977013 210.158958,267.060679 C209.112492,263.209222 208.597124,259.232851 208.627151,255.241873 C208.627151,227.950408 228.596858,193.407451 252.192311,179.719559 C255.641753,177.673102 259.366083,176.130368 263.252241,175.138191 C265.091926,174.682364 266.978346,174.441846 268.873552,174.421473 C269.862208,174.419037 270.849349,174.498949 271.82474,174.660379 C276.687174,180.380063 277.474158,189.556853 277.474158,194.461447 Z" id="Path" fill="#FFFFFF" opacity="0.7"></path>
                    </g>
                </g>
            </g>
            <g id="freepik--Plants--inject-3" transform="translate(1.108647, 196.449205)">
                <g id="freepik--plants--inject-3">
                    <path d="M519.1999,130.94844 L504.696918,122.516474 C504.696918,122.516474 501.141438,91.4446769 503.502389,67.3854658 C506.833016,33.5592268 528.671809,-7.09690516 554.712532,2.43121701 C580.753256,11.9593392 542.753193,46.4882421 534.321227,75.1569283 C525.88926,103.825614 519.1999,130.94844 519.1999,130.94844 Z" id="Path" fill="#111D5F"></path>
                    <path d="M519.1999,130.94844 L504.696918,122.516474 C504.696918,122.516474 501.141438,91.4446769 503.502389,67.3854658 C506.833016,33.5592268 528.671809,-7.09690516 554.712532,2.43121701 C580.753256,11.9593392 542.753193,46.4882421 534.321227,75.1569283 C525.88926,103.825614 519.1999,130.94844 519.1999,130.94844 Z" id="Path" fill="#000000" opacity="0.1"></path>
                    <path d="M511.65329,127.140002 C511.372987,127.143171 511.133189,126.939342 511.091159,126.66219 C506.158459,88.7183411 519.663658,31.3669155 546.927017,9.61244184 C547.040518,9.52068383 547.18593,9.47798693 547.331022,9.49381511 C547.476114,9.5096433 547.6089,9.58268908 547.699947,9.6967615 C547.892579,9.93777604 547.854947,10.2890111 547.615627,10.483745 C520.647388,32.0133662 507.310827,88.915087 512.201368,126.507604 C512.243094,126.813929 512.029628,127.096458 511.723556,127.140002 L511.65329,127.140002 Z" id="Path" fill="#FFFFFF"></path>
                    <path d="M526.943256,136.94919 L516.62815,130.976547 C516.62815,130.976547 514.871491,109.657725 525.327129,83.7575341 C534.4196,61.2722901 557.003217,42.4971113 568.358265,46.432029 C579.713313,50.3669467 579.432248,58.4194747 573.895256,66.8654945 C568.358265,75.3115143 534.672559,95.449861 526.943256,136.94919 Z" id="Path" fill="#111D5F"></path>
                    <path d="M520.549015,137.497267 C520.400985,137.49012 520.262159,137.423329 520.164193,137.312124 C520.066226,137.200918 520.017471,137.05478 520.029043,136.90703 C523.429937,83.8418538 550.271697,57.7449174 566.404859,53.7678399 C566.70668,53.6961662 567.011069,53.8763149 567.09347,54.1753849 C567.164381,54.4737643 566.983041,54.773913 566.685925,54.8499422 C549.695512,59.0659255 524.3434,87.3130133 521.167359,136.977296 C521.156739,137.129211 521.084938,137.270316 520.968384,137.368327 C520.851831,137.466338 520.700499,137.512867 520.549015,137.497267 Z" id="Path" fill="#FFFFFF"></path>
                    <path d="M44.8596234,147.938853 C44.6373815,147.943508 44.427113,147.838374 44.2974923,147.657787 C44.0646499,147.347331 44.1275686,146.9069 44.438025,146.674058 C45.1687955,146.12598 62.5948596,133.337497 79.5712189,133.084538 C79.7562724,133.080761 79.9350553,133.15164 80.0672504,133.281191 C80.1994455,133.410742 80.2739213,133.588057 80.2738828,133.773149 C80.2776474,133.959518 80.2072039,134.139745 80.0780564,134.274164 C79.948909,134.408582 79.7716424,134.486176 79.5852722,134.489866 C63.1007776,134.728772 45.4920209,147.67184 45.3093283,147.79832 C45.1824425,147.900067 45.0218662,147.950248 44.8596234,147.938853 Z" id="Path" fill="#FFFFFF"></path>
                </g>
            </g>
            <g id="freepik--Device--inject-3" transform="translate(99.481590, 1.108647)" fill="#263238">
                <g id="freepik--Laptop--inject-3">
                    <path d="M81.9883826,324.040473 L17.7227444,361.169233 C13.9754227,363.147046 11.6304218,367.036303 11.6304218,371.273539 C11.6304218,375.510775 13.9754227,379.400032 17.7227444,381.377846 L188.231161,479.821055 C190.106541,480.800601 192.201236,481.284364 194.31623,481.226383 L194.31623,324.040473 L81.9883826,324.040473 Z" id="Path"></path>
                    <polygon id="Path" points="222.858437 387.729927 297.059742 344.881484 342.732894 371.245433 268.517535 414.093876"></polygon>
                </g>
            </g>
            <g id="freepik--Window--inject-3" transform="translate(151.775397, 43.268480)" fill="#FFFFFF">
                <g id="freepik--Tab--inject-3">
                    <path d="M201.692639,19.9697074 C200.091367,21.0118836 199.083685,22.7557478 198.980357,24.6635021 C198.980357,26.3920552 200.188939,27.0947191 201.692639,26.2234159 C203.28809,25.1842057 204.290819,23.4450975 204.390868,21.5436745 C204.390868,19.8151213 203.182287,19.1124574 201.692639,19.9697074 Z" id="Path"></path>
                    <path d="M212.429343,13.772212 C210.833425,14.8175156 209.831263,16.5608598 209.731114,18.4660067 C209.731114,20.1945598 210.939696,20.8831704 212.429343,20.0259205 C214.030615,18.9837443 215.038297,17.23988 215.141626,15.3321258 C215.141626,13.6035727 213.933044,12.9009088 212.429343,13.772212 Z" id="Path"></path>
                    <path d="M223.180101,7.56066331 C221.583887,8.607628 220.577821,10.348695 220.467818,12.254458 C220.467818,13.9830111 221.690453,14.685675 223.180101,13.8143718 C224.779205,12.776683 225.786911,11.0379982 225.892383,9.1346304 C225.892383,7.40607726 224.669748,6.70341338 223.180101,7.56066331 Z" id="Path"></path>
                </g>
            </g>
            <g id="freepik--magnifying-glass--inject-3" transform="translate(134.911464, 153.992692)">
                <g id="freepik--Lens--inject-3"></g>
            </g>
            <g id="freepik--search-tab--inject-3" transform="translate(311.982761, 41.863152)">
                <g id="freepik--search-taba--inject-3">
                    <path d="M0.238905718,125.07417 L0.238905718,156.188127 C0.238905718,158.520971 1.88313919,159.46254 3.89275788,158.296118 L207.805815,40.5718122 C209.959591,39.1643052 211.315971,36.816724 211.459667,34.2478374 L211.459667,3.09172106 C211.459667,0.758876987 209.815434,-0.182692608 207.805815,0.983729428 L3.89275788,118.708035 C1.72908999,120.125791 0.371695802,122.490789 0.238905718,125.07417 Z" id="Path" fill="#E6E6E6"></path>
                    <path d="M3.89275788,118.708035 L40.206427,97.7545985 L40.206427,137.300522 L3.89275788,158.253958 C1.88313919,159.42038 0.238905718,158.478811 0.238905718,156.145967 L0.238905718,125.07417 C0.371695802,122.490789 1.72908999,120.125791 3.89275788,118.708035 Z" id="Path" fill="#111D5F"></path>
                    <path d="M28.1908747,115.012023 C25.9001905,113.691015 23.0052153,113.901814 20.0399738,115.616314 C14.3222525,119.279548 10.7342811,125.486477 10.4134787,132.269448 C10.3143461,134.435928 10.9977006,136.565799 12.3387777,138.270198 L8.43196652,144.959558 C7.90356052,145.953179 8.24272429,147.186501 9.20489679,147.770213 C9.5269368,147.951208 9.88949147,148.047889 10.2588926,148.051279 C11.0124884,148.051762 11.7090209,147.649916 12.0858187,146.997283 L15.95047,140.307923 C16.3676745,140.386183 16.790825,140.428498 17.215265,140.434402 C18.9404832,140.402978 20.627088,139.918321 22.1058056,139.029075 C27.812925,135.357657 31.39364,129.154226 31.7182474,122.375941 C31.7604072,118.960994 30.4956123,116.347085 28.1908747,115.012023 Z M20.0399738,135.389276 C19.0233726,136.482932 17.3861049,136.729412 16.0925732,135.983532 C14.7990416,135.237651 14.1921853,133.697157 14.6294619,132.269448 C14.9616212,126.998037 17.7443682,122.186746 22.1479654,119.270166 C22.9908817,118.733424 23.960258,118.428071 24.9586209,118.38481 C25.3703646,118.369263 25.7785373,118.466447 26.1390962,118.665876 C27.2140462,119.584912 27.7442364,120.989916 27.544424,122.389994 C27.215482,127.65884 24.4382249,132.469631 20.0399738,135.389276 Z" id="Shape" fill="#FFFFFF" fill-rule="nonzero"></path>
                </g>
            </g>
        </g>
    </g>
</svg>