<?xml version="1.0" encoding="UTF-8"?>
<svg width="638px" height="70px" viewBox="0 0 638 70" version="1.1" xmlns="http://www.w3.org/2000/svg" xmlns:xlink="http://www.w3.org/1999/xlink">
    <!-- Generator: Sketch 52.3 (67297) - http://www.bohemiancoding.com/sketch -->
    <title>Group 52</title>
    <desc>Created with Sketch.</desc>
    <defs>
        <circle id="path-1" cx="35.6128405" cy="35.0680934" r="31.3910506"></circle>
        <circle id="path-3" cx="35.6128405" cy="35.0680934" r="31.3910506"></circle>
    </defs>
    <g id="Page-1" stroke="none" stroke-width="1" fill="none" fill-rule="evenodd">
        <g id="Group-52">
            <g id="Group-47">
                <g id="Group-46">
                    <g id="Group-44">
                        <g id="Group-38">
                            <g id="Group-34">
                                <g id="Group-31">
                                    <g id="Group-8" transform="translate(0.000000, 0.000000)">
                                        <rect id="Rectangle" fill="#FFF60F" x="0" y="0" width="450.36965" height="70" rx="35"></rect>
                                        <mask id="mask-2" fill="white">
                                            <use xlink:href="#path-1"></use>
                                        </mask>
                                        <use id="Mask" fill="#FFFFFF" xlink:href="#path-1"></use>
                                        <path d="M48.7790599,57.1984436 L23.536026,57.1984436 C22.7973238,57.1984436 22.1984436,56.6004463 22.1984436,55.8628333 L22.1984436,14.2733535 C22.1984436,13.5357404 22.7973238,12.9377432 23.536026,12.9377432 L48.7791491,12.9377432 C49.5178513,12.9377432 50.1167315,13.5357404 50.1167315,14.2733535 L50.1167315,55.8627442 C50.1166423,56.6004463 49.5178513,57.1984436 48.7790599,57.1984436 Z" id="Path" fill="#FFF5F5" mask="url(#mask-2)"></path>
                                        <path d="M50.1167315,14.2733562 L50.1167315,55.8628306 C50.1167315,56.6004451 49.5113039,57.1984436 48.7645257,57.1984436 L44.8054475,57.1984436 C46.2062425,57.1984436 47.3421855,56.0765287 47.3421855,54.6928336 L47.3421855,15.4433531 C47.3421855,14.0597471 46.2063327,12.9377432 44.8054475,12.9377432 L48.7645257,12.9377432 C49.5113039,12.9377432 50.1167315,13.5357416 50.1167315,14.2733562 Z" id="Path" fill="#EFE2DD" mask="url(#mask-2)"></path>
                                        <path d="M48.7790599,57.1984436 L23.536026,57.1984436 C22.7973238,57.1984436 22.1984436,56.5963271 22.1984436,55.8536331 L22.1984436,51.8871595 L50.1167315,51.8871595 L50.1167315,55.8536331 C50.1166423,56.5963271 49.5178513,57.1984436 48.7790599,57.1984436 Z" id="Path" fill="#7CA1B1" mask="url(#mask-2)"></path>
                                        <path d="M50.1167315,18.385214 L22.1984436,18.385214 L22.1984436,14.2654879 C22.1984436,13.5322187 22.7973238,12.9377432 23.536026,12.9377432 L48.7791491,12.9377432 C49.5178513,12.9377432 50.1167315,13.5322187 50.1167315,14.2654879 L50.1167315,18.385214 Z" id="Path" fill="#7CA1B1" mask="url(#mask-2)"></path>
                                        <path d="M50.1167315,51.8871595 L50.1167315,55.8536331 C50.1167315,56.5963271 49.5119198,57.1984436 48.7659014,57.1984436 L44.8054475,57.1984436 C46.2048175,57.1984436 47.3387043,56.0688028 47.3387043,54.6755792 L47.3387043,51.8871595 L50.1167315,51.8871595 Z" id="Path" fill="#678D98" mask="url(#mask-2)"></path>
                                        <path d="M50.1167315,14.2654879 L50.1167315,18.385214 L47.3387043,18.385214 L47.3387043,15.4285922 C47.3387043,14.0531372 46.2049075,12.9377432 44.8054475,12.9377432 L48.7659014,12.9377432 C49.5119198,12.9377432 50.1167315,13.5322187 50.1167315,14.2654879 Z" id="Path" fill="#678D98" mask="url(#mask-2)"></path>
                                        <path d="M46.219637,32.5486381 L25.9594404,32.5486381 C25.4617921,32.5486381 25.0583658,32.1466566 25.0583658,31.6507907 L25.0583658,22.551544 C25.0583658,22.055678 25.4617921,21.6536965 25.9594404,21.6536965 L46.219548,21.6536965 C46.7171962,21.6536965 47.1206226,22.055678 47.1206226,22.551544 L47.1206226,31.6507907 C47.1207116,32.1466566 46.7172852,32.5486381 46.219637,32.5486381 Z" id="Path" fill="#C9F0FF" mask="url(#mask-2)"></path>
                                        <path d="M47.1206226,22.5518926 L47.1206226,31.6504421 C47.1206226,32.1460781 46.725515,32.5486381 46.2375488,32.5486381 L43.8521401,32.5486381 C44.3401063,32.5486381 44.7352139,32.1460781 44.7352139,31.6504421 L44.7352139,22.5518926 C44.7352139,22.0562566 44.3401063,21.6536965 43.8521401,21.6536965 L46.2375488,21.6536965 C46.725515,21.6536965 47.1206226,22.0562566 47.1206226,22.5518926 Z" id="Path" fill="#9AE7FD" mask="url(#mask-2)"></path>
                                        <path d="M27.2373541,32.5486381 L33.3303243,26.4689279 C33.5878944,26.2118869 34.0091456,26.2245385 34.2508296,26.4964584 L39.6303502,32.5486381 L27.2373541,32.5486381 Z" id="Path" fill="#A3E72D" mask="url(#mask-2)"></path>
                                        <path d="M35,32.5485486 L39.7980799,27.6954564 C40.0533383,27.437237 40.4708087,27.4499466 40.7103236,27.7231131 L44.9416342,32.5486381 L35,32.5486381 L35,32.5485486 Z" id="Path" fill="#A3E72D" mask="url(#mask-2)"></path>
                                        <path d="M29.5320275,35.5215353 C28.9536117,35.2735836 28.3189011,35.4434797 27.9409345,35.935959 C27.7442623,36.1922519 27.6458813,36.4131608 27.6458813,36.4131608 C27.6458813,36.4131608 27.5475902,36.1922519 27.3508281,35.935959 C26.9728614,35.4434797 26.3381508,35.2735836 25.7597351,35.5215353 C24.8895035,35.8946922 24.9069495,37.0982768 25.3883332,37.7639887 C25.8341953,38.3806194 26.4407585,38.9690659 27.1280769,39.3586416 C27.4469609,39.5393374 27.8448016,39.5393374 28.1636857,39.3586416 C28.8510041,38.9690659 29.4575672,38.3806194 29.9034294,37.7639887 C30.384903,37.0982768 30.402349,35.8946044 29.5320275,35.5215353 Z" id="Path" fill="#FF5757" mask="url(#mask-2)"></path>
                                        <path d="M34.1754991,54.7470817 L38.139676,54.7470817 C38.511747,54.7470817 38.8132296,54.4422957 38.8132296,54.0661479 C38.8132296,53.69 38.511747,53.385214 38.139676,53.385214 L34.1754991,53.385214 C33.8034281,53.385214 33.5019455,53.69 33.5019455,54.0661479 C33.5019455,54.4422957 33.8034281,54.7470817 34.1754991,54.7470817 Z" id="Path" fill="#000000" mask="url(#mask-2)"></path>
                                        <path d="M34.3394568,16.4785992 C34.7043409,16.4785992 35,16.1738132 35,15.7976654 C35,15.4215175 34.7043409,15.1167315 34.3394568,15.1167315 L32.5282475,15.1167315 C32.1633634,15.1167315 31.8677043,15.4215175 31.8677043,15.7976654 C31.8677043,16.1738132 32.1633634,16.4785992 32.5282475,16.4785992 L34.3394568,16.4785992 Z" id="Path" fill="#000000" mask="url(#mask-2)"></path>
                                        <path d="M39.7725406,16.4785992 C40.1453721,16.4785992 40.4474708,16.1738132 40.4474708,15.7976654 C40.4474708,15.4215175 40.1453721,15.1167315 39.7725406,15.1167315 L36.355864,15.1167315 C35.9830326,15.1167315 35.6809339,15.4215175 35.6809339,15.7976654 C35.6809339,16.1738132 35.9830326,16.4785992 36.355864,16.4785992 L39.7725406,16.4785992 Z" id="Path" fill="#000000" mask="url(#mask-2)"></path>
                                        <path d="M48.6627731,12.2568093 L30.182209,12.2568093 C29.8141807,12.2568093 29.5159738,12.5549983 29.5159738,12.9230045 C29.5159738,13.2910106 29.8141807,13.5891996 30.182209,13.5891996 L48.6627731,13.5891996 C49.0301796,13.5891996 49.3290083,13.8880103 49.3290083,14.2553947 L49.3290083,17.72334 L22.8499801,17.72334 L22.8499801,14.2553947 C22.8499801,13.8880103 23.1488087,13.5891996 23.5162152,13.5891996 L27.2116885,13.5891996 C27.5797168,13.5891996 27.8779236,13.2910106 27.8779236,12.9230045 C27.8779236,12.5549983 27.5797168,12.2568093 27.2116885,12.2568093 L23.5162152,12.2568093 C22.4141734,12.2568093 21.5175097,13.1534191 21.5175097,14.2553947 L21.5175097,51.8147647 L21.5175097,55.7446053 C21.5175097,56.8465809 22.4141734,57.7431907 23.5162152,57.7431907 L48.6627731,57.7431907 C49.7648149,57.7431907 50.6614786,56.8465809 50.6614786,55.7446053 L50.6614786,51.8147647 L50.6614786,14.2553947 C50.6614786,13.1534191 49.7648149,12.2568093 48.6627731,12.2568093 Z M49.3290083,55.7446053 C49.3290083,56.1119897 49.0301796,56.4108004 48.6627731,56.4108004 L23.5162152,56.4108004 C23.1488087,56.4108004 22.8499801,56.1119897 22.8499801,55.7446053 L22.8499801,52.4809599 L49.3290083,52.4809599 L49.3290083,55.7446053 Z M49.3290083,51.1485696 L22.8499801,51.1485696 L22.8499801,19.0557302 L49.3290083,19.0557302 L49.3290083,51.1485696 Z" id="Shape" fill="#000000" fill-rule="nonzero" mask="url(#mask-2)"></path>
                                        <path d="M25.9481697,33.229572 L46.2308186,33.229572 C47.0969622,33.229572 47.8015564,32.5265115 47.8015564,31.6622533 L47.8015564,27.3206791 C47.8015564,26.9521128 47.5022621,26.65347 47.1328918,26.65347 C46.7635214,26.65347 46.4642272,26.9521128 46.4642272,27.3206791 L46.4642272,31.6622533 C46.4642272,31.7906243 46.3594697,31.8951538 46.2308186,31.8951538 L45.3490729,31.8951538 L41.2347348,27.2685478 C40.9979384,27.002109 40.6574543,26.8432243 40.300744,26.8325489 C39.940735,26.8236528 39.5946342,26.9601193 39.3423247,27.2118795 L37.4353823,29.1137814 L34.6856551,26.0217564 C34.4488586,25.7553176 34.1083746,25.5964328 33.7516643,25.5857575 C33.3929034,25.5765055 33.0456436,25.7133279 32.793245,25.9650881 L26.8473008,31.8952427 L25.9480806,31.8952427 C25.8194295,31.8952427 25.714672,31.7907133 25.714672,31.6623423 L25.714672,22.5400813 C25.714672,22.4117103 25.8194295,22.3071809 25.9480806,22.3071809 L46.2307295,22.3071809 C46.3593805,22.3071809 46.464138,22.4117103 46.464138,22.5400813 L46.464138,24.2366607 C46.464138,24.605227 46.7634323,24.9038698 47.1328026,24.9038698 C47.502173,24.9038698 47.8014673,24.605227 47.8014673,24.2366607 L47.8014673,22.5400813 C47.8014673,21.6758231 47.0968731,20.9727626 46.2307295,20.9727626 L25.9481697,20.9727626 C25.0820261,20.9727626 24.3774319,21.6758231 24.3774319,22.5400813 L24.3774319,31.6622533 C24.3774319,32.5265115 25.0820261,33.229572 25.9481697,33.229572 Z M33.7110986,26.9362777 L37.306553,30.979298 C37.5515517,31.2550778 37.9742369,31.2802538 38.2504399,31.0355215 C38.5199564,30.7969276 38.5498234,30.3901969 38.3235473,30.114595 L40.2601784,28.1830691 L43.5612419,31.8951538 L28.7390867,31.8951538 L33.7110986,26.9362777 Z" id="Shape" fill="#000000" fill-rule="nonzero" mask="url(#mask-2)"></path>
                                        <path d="M26.8736979,39.9486967 C27.1329468,40.0996009 27.4234326,40.1750973 27.7140067,40.1750973 C28.0045808,40.1750973 28.2951548,40.0996009 28.5542273,39.9486967 C29.2636763,39.5357238 29.9439179,38.8968813 30.4698278,38.149972 C30.8775845,37.5706061 31.0202685,36.7604143 30.8333763,36.0859036 C30.6816037,35.5384002 30.3255555,35.1169306 29.8307943,34.8989382 C29.0931085,34.573941 28.2814777,34.7213049 27.7140067,35.2565944 C27.1464475,34.7213049 26.3350814,34.573941 25.5972191,34.8989382 C25.1024578,35.1169306 24.7463215,35.5384887 24.594637,36.0859036 C24.4077449,36.7605029 24.5504288,37.5706946 24.9582738,38.1500605 C25.4840073,38.8968813 26.1642489,39.5356353 26.8736979,39.9486967 Z M25.8698805,36.4414356 C25.9300601,36.2243283 26.0468015,36.1508676 26.1293941,36.1144913 C26.2178987,36.0755483 26.307374,36.0565193 26.3943786,36.0565193 C26.5856827,36.0565193 26.7649863,36.1485665 26.8948754,36.3223939 C27.0335886,36.5081698 27.1070925,36.6701374 27.1070925,36.6701374 C27.2115685,36.91123 27.4488457,37.0658515 27.7109183,37.0673561 C27.9722849,37.065232 28.2121211,36.9133542 28.3194208,36.6736776 C28.320215,36.671996 28.3937188,36.5093204 28.5332262,36.3224824 C28.7222361,36.0696184 29.0154574,35.9896967 29.2987075,36.1144913 C29.3813883,36.1508676 29.4981298,36.2243283 29.5582211,36.4414356 C29.6390489,36.7332427 29.5677511,37.1297534 29.388624,37.3842107 C28.9703668,37.9783572 28.4381035,38.4813416 27.8898689,38.8004973 C27.7830103,38.8627176 27.6450913,38.8627176 27.5382328,38.8004973 C26.9899981,38.4813416 26.4578231,37.9783572 26.0396541,37.3842107 C25.8603506,37.129842 25.7890527,36.7332427 25.8698805,36.4414356 Z" id="Shape" fill="#000000" fill-rule="nonzero" mask="url(#mask-2)"></path>
                                        <path d="M32.6848249,42.3540856 C32.6848249,41.9779377 32.3850854,41.6731518 32.0151657,41.6731518 L25.8642118,41.6731518 C25.494292,41.6731518 25.1945525,41.9779377 25.1945525,42.3540856 C25.1945525,42.7302335 25.494292,43.0350195 25.8642118,43.0350195 L32.0151657,43.0350195 C32.3849961,43.0350195 32.6848249,42.7301427 32.6848249,42.3540856 Z" id="Path" fill="#000000" mask="url(#mask-2)"></path>
                                        <path d="M38.0152439,43.0350195 C38.3808216,43.0350195 38.6770428,42.7302335 38.6770428,42.3540856 C38.6770428,41.9779377 38.3808216,41.6731518 38.0152439,41.6731518 L35.6617989,41.6731518 C35.2962212,41.6731518 35,41.9779377 35,42.3540856 C35,42.7302335 35.2962212,43.0350195 35.6617989,43.0350195 L38.0152439,43.0350195 Z" id="Path" fill="#000000" mask="url(#mask-2)"></path>
                                        <path d="M47.132843,41.6731518 L41.5247446,41.6731518 C41.1553473,41.6731518 40.8560311,41.9779377 40.8560311,42.3540856 C40.8560311,42.7302335 41.1553473,43.0350195 41.5247446,43.0350195 L47.132843,43.0350195 C47.5022403,43.0350195 47.8015564,42.7302335 47.8015564,42.3540856 C47.8015564,41.9779377 47.5022403,41.6731518 47.132843,41.6731518 Z" id="Path" fill="#000000" mask="url(#mask-2)"></path>
                                        <path d="M25.7344228,44.6692607 C25.3609689,44.6692607 25.0583658,44.9740467 25.0583658,45.3501946 C25.0583658,45.7263424 25.3609689,46.0311284 25.7344228,46.0311284 L29.6935928,46.0311284 C30.0670467,46.0311284 30.3696498,45.7263424 30.3696498,45.3501946 C30.3696498,44.9740467 30.0670467,44.6692607 29.6935928,44.6692607 L25.7344228,44.6692607 Z" id="Path" fill="#000000" mask="url(#mask-2)"></path>
                                        <path d="M40.1750973,45.3501946 C40.1750973,44.9740467 39.8755581,44.6692607 39.5058854,44.6692607 L32.4007294,44.6692607 C32.0310567,44.6692607 31.7315175,44.9740467 31.7315175,45.3501946 C31.7315175,45.7263424 32.0310567,46.0311284 32.4007294,46.0311284 L39.5058854,46.0311284 C39.8755581,46.0311284 40.1750973,45.7262516 40.1750973,45.3501946 Z" id="Path" fill="#000000" mask="url(#mask-2)"></path>
                                        <path d="M47.1416432,44.6692607 L42.877812,44.6692607 C42.513276,44.6692607 42.2178988,44.9740467 42.2178988,45.3501946 C42.2178988,45.7263424 42.513276,46.0311284 42.877812,46.0311284 L47.1416432,46.0311284 C47.5061793,46.0311284 47.8015564,45.7263424 47.8015564,45.3501946 C47.8015564,44.9740467 47.5061793,44.6692607 47.1416432,44.6692607 Z" id="Path" fill="#000000" mask="url(#mask-2)"></path>
                                        <path d="M30.7941224,47.2568093 L25.8595741,47.2568093 C25.4922162,47.2568093 25.1945525,47.5615953 25.1945525,47.9377432 C25.1945525,48.3138911 25.4922162,48.618677 25.8595741,48.618677 L30.7941224,48.618677 C31.1614803,48.618677 31.459144,48.3138911 31.459144,47.9377432 C31.459144,47.5615953 31.1614803,47.2568093 30.7941224,47.2568093 Z" id="Path" fill="#000000" mask="url(#mask-2)"></path>
                                        <path d="M42.2353427,47.2568093 L33.893062,47.2568093 C33.5265501,47.2568093 33.229572,47.5615953 33.229572,47.9377432 C33.229572,48.3138911 33.5265501,48.618677 33.893062,48.618677 L42.2353427,48.618677 C42.6018546,48.618677 42.8988327,48.3138911 42.8988327,47.9377432 C42.8988327,47.5615953 42.6017661,47.2568093 42.2353427,47.2568093 Z" id="Path" fill="#000000" mask="url(#mask-2)"></path>
                                        <path d="M47.1325531,47.2568093 L45.2020772,47.2568093 C44.8325198,47.2568093 44.5330739,47.5615953 44.5330739,47.9377432 C44.5330739,48.3138911 44.8325198,48.618677 45.2020772,48.618677 L47.1325531,48.618677 C47.5021105,48.618677 47.8015564,48.3138911 47.8015564,47.9377432 C47.8015564,47.5615953 47.5021105,47.2568093 47.1325531,47.2568093 Z" id="Path" fill="#000000" mask="url(#mask-2)"></path>
                                    </g>
                                    <rect id="Rectangle" fill="#FFF60F" x="6.53699317e-13" y="0" width="450.36965" height="70" rx="35"></rect>
                                    <mask id="mask-4" fill="white">
                                        <use xlink:href="#path-3"></use>
                                    </mask>
                                    <use id="Mask" fill="#FFFFFF" xlink:href="#path-3"></use>
                                    <g id="Group-20" transform="translate(449.000000, 24.000000)">
                                        <g id="profile" transform="translate(0.221790, 0.677043)">
                                            <g id="Group-6" transform="translate(94.404669, 10.881323) scale(-1, 1) translate(-94.404669, -10.881323) translate(0.404669, 0.381323)"></g>
                                        </g>
                                        <g id="Group-7" transform="translate(94.626459, 11.558366) scale(-1, 1) translate(-94.626459, -11.558366) translate(0.626459, 1.058366)">
                                            <path d="M187.120623,9.98079869 L19.5026484,9.98079869" id="Line-2" stroke="#FFF60F" stroke-width="5" stroke-linecap="square"></path>
                                            <ellipse id="Oval" fill="#FFF60F" cx="9.73735409" cy="10.0097276" rx="9.73735409" ry="10.0097276"></ellipse>
                                        </g>
                                    </g>
                                </g>
                            </g>
                        </g>
                    </g>
                </g>
            </g>
            <g id="web-maintenance" transform="translate(14.000000, 15.000000)">
                <rect id="Rectangle" fill="#45C1FF" x="4.34445313" y="8.10179687" width="35.0685156" height="3.75734375"></rect>
                <rect id="Rectangle" fill="#14A5FF" x="4.34445313" y="8.10179687" width="35.0685156" height="1.87867188"></rect>
                <rect id="Rectangle" fill="#DAF3FF" x="4.34445313" y="11.8590625" width="35.0685156" height="27.5538281"></rect>
                <rect id="Rectangle" fill="#99C4FF" x="4.34445313" y="11.8590625" width="35.0685156" height="1.87867187"></rect>
                <rect id="Rectangle" fill="#00C70D" x="0.587109375" y="0.587109375" width="35.0685156" height="3.75734375"></rect>
                <rect id="Rectangle" fill="#00A90B" x="0.587109375" y="0.587109375" width="35.0685156" height="1.87867188"></rect>
                <polygon id="Path" fill="#CCF4CF" points="4.34445312 8.10179688 4.34445312 31.8982031 0.587109375 31.8982031 0.587109375 4.34445313 35.6555469 4.34445313 35.6555469 8.10179688"></polygon>
                <polygon id="Path" fill="#99DD9D" points="4.50101563 31.8982031 2.93539063 31.8982031 2.93539063 6.84929688 35.6555469 6.84929688 35.6555469 8.41484375 4.50101563 8.41484375"></polygon>
                <polygon id="Path" fill="#FFD045" points="14.0964062 35.6505469 11.803125 33.3279687 11.8078906 32.55875 18.7757031 25.6789844 19.5452344 25.68375 21.8384375 28.0063281 21.8334375 28.7757812 14.865625 35.6555469"></polygon>
                <polygon id="Path" fill="#BF9C34" points="22.1921875 23.8347656 25.7339063 20.3376563 27.2628125 21.8860938 23.8925 25.21375"></polygon>
                <polygon id="Path" fill="#FFD045" points="29.1885156 21.5136719 27.2628125 21.8860938 25.7339063 20.3376563 26.1307812 18.4167969 28.8405469 15.7414063 31.8982031 18.8382031"></polygon>
                <polygon id="Rectangle" fill="#FFFFFF" transform="translate(19.142711, 28.374382) rotate(-134.635373) translate(-19.142711, -28.374382) " points="18.5555958 27.8303918 19.729827 27.8303918 19.729827 28.9183721 18.5555958 28.9183721"></polygon>
                <polygon id="Rectangle" fill="#BE5E1E" transform="translate(21.704083, 25.461543) rotate(135.000000) translate(-21.704083, -25.461543) " points="20.1385512 20.1387425 23.2696149 20.1387425 23.2696149 30.7843435 20.1385512 30.7843435"></polygon>
                <g id="Group" transform="translate(12.031250, 15.781250)" fill="#FD7D28">
                    <path d="M1.15546875,6.55976562 C0.088203125,5.47890625 -0.199765625,3.92109375 0.286171875,2.58234375 L1.939375,4.25671875 L3.48289062,3.4971875 L4.26195312,1.96351562 L2.60875,0.2890625 C3.95359375,-0.17984375 5.50757812,0.12796875 6.57484375,1.20882812 C8.0525,2.7053125 8.0371875,5.11640625 6.540625,6.5940625 C5.0440625,8.0715625 2.63304688,8.05632812 1.15546875,6.55976562 Z" id="Path"></path>
                    <path d="M18.4879688,13.2742969 C17.0103125,11.7778125 14.5992969,11.7624219 13.1027344,13.24 C11.60625,14.7176563 11.5908594,17.1286719 13.0685156,18.6252344 C14.5461719,20.1217969 16.9571875,20.1371094 18.45375,18.6595313 C19.9502344,17.181875 19.9655469,14.7708594 18.4879688,13.2742969 Z M17.0798438,17.268125 L15.2873437,17.73625 L13.9857031,16.4179688 L14.4765625,14.6315625 L16.2690625,14.1634375 L17.5707031,15.4817188 L17.0798438,17.268125 Z" id="Shape" fill-rule="nonzero"></path>
                </g>
                <path d="M36.2426563,7.5146875 L36.2426563,0 L5.596875,0 L5.596875,1.17414062 L35.0685156,1.17414062 L35.0685156,3.75734375 L1.17414062,3.75734375 L1.17414062,1.17414062 L4.344375,1.17414062 L4.344375,0 L0,0 L0,32.4853125 L3.75734375,32.4853125 L3.75734375,40 L40,40 L40,33.7767969 L38.8258594,33.7767969 L38.8258594,38.8257813 L4.93148438,38.8257813 L4.93148438,12.4461719 L38.8257812,12.4461719 L38.8257812,32.5242969 L40,32.5242969 L40,7.5146875 L36.2426563,7.5146875 Z M1.17414062,31.3111719 L1.17414062,4.93148437 L35.0684375,4.93148437 L35.0684375,7.5146875 L3.75734375,7.5146875 L3.75734375,11.2720312 L3.75734375,12.4461719 L3.75734375,31.3111719 L1.17414062,31.3111719 Z M4.93148438,11.2720313 L4.93148438,8.68882813 L38.8257812,8.68882813 L38.8257812,11.2720313 L4.93148438,11.2720313 Z" id="Shape" fill="#000000" fill-rule="nonzero"></path>
                <rect id="Rectangle" fill="#000000" x="3.09195312" y="1.87867188" width="1.25242187" height="1.17414063"></rect>
                <rect id="Rectangle" fill="#FFFFFF" x="5.596875" y="1.87867188" width="1.25242187" height="1.17414063"></rect>
                <rect id="Rectangle" fill="#000000" x="8.10179687" y="1.87867188" width="1.25242188" height="1.17414063"></rect>
                <rect id="Rectangle" fill="#FFFFFF" x="31.8982031" y="1.87867188" width="1.25242188" height="1.17414063"></rect>
                <polygon id="Path" fill="#000000" points="37.4950781 17.4950781 36.3209375 17.4950781 36.3209375 14.9510938 33.776875 14.9510938 33.776875 13.776875 37.4950781 13.776875"></polygon>
                <polygon id="Path" fill="#000000" points="9.98046875 37.4950781 6.26226562 37.4950781 6.26226562 33.776875 7.43640625 33.776875 7.43640625 36.3209375 9.98046875 36.3209375"></polygon>
                <rect id="Rectangle" fill="#000000" x="36.3209375" y="23.1310937" width="1.17414062" height="1.25242187"></rect>
                <rect id="Rectangle" fill="#FFFFFF" x="36.3209375" y="18.7475781" width="1.17414062" height="3.13109375"></rect>
                <rect id="Rectangle" fill="#000000" x="6.26226562" y="26.8884375" width="1.17414062" height="1.25242187"></rect>
                <rect id="Rectangle" fill="#FFFFFF" x="6.26226562" y="29.3933594" width="1.17414062" height="3.13109375"></rect>
                <rect id="Rectangle" fill="#000000" x="6.84929688" y="9.39335937" width="1.25242187" height="1.17414063"></rect>
                <rect id="Rectangle" fill="#FFFFFF" x="9.35421875" y="9.39335937" width="1.25242187" height="1.17414063"></rect>
                <rect id="Rectangle" fill="#000000" x="11.8590625" y="9.39335937" width="1.25242187" height="1.17414063"></rect>
                <rect id="Rectangle" fill="#FFFFFF" x="35.6555469" y="9.39335937" width="1.25242188" height="1.17414063"></rect>
                <path d="M27.1389844,34.1710937 L25.3610937,32.3704688 L26.0316406,29.9303906 L28.48,29.2909375 L30.2578906,31.0916406 L29.5874219,33.5317969 L27.1389844,34.1710937 Z M26.6728906,32.0278906 L27.4982031,32.8638281 L28.6348437,32.5670312 L28.9460937,31.434375 L28.1207812,30.5983594 L26.9842187,30.8951562 L26.6728906,32.0278906 Z" id="Shape" fill="#000000" fill-rule="nonzero"></path>
                <path d="M27.8374219,27.3360937 C27.8278125,27.3360156 27.8182813,27.3360156 27.8086719,27.3360156 C27.4373438,27.3360156 27.0730469,27.3822656 26.7219531,27.47125 L24.6089844,25.33125 L27.5486719,22.4286719 L29.4744531,22.05625 L32.7283594,18.8433594 L28.8457031,14.9110937 L25.5917969,18.1239844 L25.1949219,20.0447656 L22.2551562,22.9474219 L20.1391406,20.8042969 C20.5277344,19.3467969 20.1578906,17.72625 19.02375,16.5775 C17.8380469,15.3765625 16.0413281,14.9596875 14.4466406,15.5157812 L13.5695313,15.8216406 L15.578125,17.8559375 L15.0792969,18.8379687 L14.0910156,19.3242187 L12.0824219,17.29 L11.7654688,18.163125 C11.1892188,19.750625 11.5829688,21.5524219 12.76875,22.7534375 C13.5935938,23.5888281 14.694375,24.0529687 15.8682813,24.0604687 C15.8778906,24.0605469 15.8874219,24.0605469 15.8970313,24.0605469 C16.2683594,24.0605469 16.6326563,24.0142969 16.9836719,23.9253125 L18.3325,25.2914062 L11.2221875,32.3119531 L11.214375,33.5674219 L13.8492969,36.2360937 L15.1048438,36.2442187 L22.2151563,29.22375 L23.5639063,30.5897656 C23.468125,30.9485937 23.4166406,31.321875 23.4142969,31.7032031 C23.4067969,32.8771094 23.8569531,33.98375 24.6817969,34.8191406 C25.5402344,35.6885937 26.6746094,36.1242187 27.8095312,36.1242187 C28.9255469,36.1242187 30.0421875,35.7028125 30.8971875,34.8586719 C32.6216406,33.1559375 32.6394531,30.3677344 30.9367187,28.6432812 C30.1121875,27.8077344 29.0113281,27.3435937 27.8374219,27.3360937 Z M26.6698438,18.7097656 L28.8353125,16.5717187 L31.0680469,18.8330469 L28.9025781,20.9710937 L27.4598437,21.25 L26.3725781,20.14875 L26.6698438,18.7097656 Z M25.7286719,21.1678906 L26.4325781,21.8807812 L23.7841406,24.4957031 L23.0802344,23.7828125 L25.7286719,21.1678906 Z M15.8969531,22.8864063 C15.89,22.8864063 15.8828906,22.8864063 15.8757813,22.8863281 C15.0154688,22.8809375 14.20875,22.5407031 13.6042969,21.9285156 C12.9785156,21.2946875 12.65375,20.4326563 12.6786719,19.5651563 L13.8500781,20.7515625 L15.9488281,19.7189063 L17.008125,17.6333594 L15.8367188,16.4469531 C16.7053906,16.430625 17.5625,16.7689063 18.1882031,17.4025781 C19.4359375,18.6664063 19.4229688,20.7096875 18.1592188,21.9575 C17.5521875,22.5570313 16.7495313,22.8864063 15.8969531,22.8864063 Z M21.2479688,28.5289062 L14.6261719,35.066875 L14.3433594,35.0650781 L13.7800781,34.4945313 L18.3946094,29.9382812 L17.5696094,29.1027344 L12.9550781,33.6589844 L12.3917187,33.0884375 L12.3934375,32.805625 L19.0152344,26.2675781 L19.2982031,26.2692969 L21.2498437,28.2458594 L21.2479688,28.5289062 Z M22.4271094,27.7670312 L19.7920313,25.098125 L19.791875,25.098125 L18.153125,23.4384375 C18.4513281,23.2592969 18.7303906,23.0436719 18.9842969,22.7930469 C19.2404688,22.5400781 19.458125,22.2627344 19.6389063,21.9688281 L25.5525781,27.9582812 C25.254375,28.1374219 24.9753125,28.3530469 24.7214062,28.6036719 C24.4675,28.8542969 24.2485156,29.1307031 24.065625,29.4267188 L22.4271094,27.7670312 Z M30.0725,34.023125 C28.8086719,35.2709375 26.7653906,35.2579687 25.5175781,33.9941406 C24.913125,33.3819531 24.5832031,32.5709375 24.5886719,31.710625 C24.5941406,30.8503125 24.934375,30.0435937 25.5465625,29.4391406 C26.1732031,28.8204688 26.9914063,28.5117188 27.809375,28.5117188 C28.6410938,28.5117188 29.4725,28.8309375 30.1015625,29.468125 C31.3492187,30.731875 31.3361719,32.7751562 30.0725,34.023125 Z" id="Shape" fill="#000000" fill-rule="nonzero"></path>
            </g>
        </g>
    </g>
</svg>