<?xml version="1.0" encoding="UTF-8"?>
<svg width="488px" height="96px" viewBox="0 0 488 96" version="1.1" xmlns="http://www.w3.org/2000/svg" xmlns:xlink="http://www.w3.org/1999/xlink">
    <!-- Generator: Sketch 52.3 (67297) - http://www.bohemiancoding.com/sketch -->
    <title>Group 37</title>
    <desc>Created with Sketch.</desc>
    <defs>
        <circle id="path-1" cx="46.5" cy="47.5" r="42.5"></circle>
    </defs>
    <g id="Page-1" stroke="none" stroke-width="1" fill="none" fill-rule="evenodd">
        <g id="Artboard" transform="translate(-1616.000000, -954.000000)">
            <g id="Group-37" transform="translate(1616.000000, 954.000000)">
                <g id="Group-32">
                    <g id="Group-30">
                        <g id="Group-29">
                            <g id="Group-27">
                                <g id="Group-28">
                                    <path d="M467.862013,48.2422864 L298.02831,48.2422864" id="Line-2" stroke="#FFF60F" stroke-width="5" stroke-linecap="square" transform="translate(383.000000, 48.188172) scale(-1, 1) translate(-383.000000, -48.188172) "></path>
                                    <rect id="Rectangle" fill="#FFF60F" x="1.42108547e-13" y="1.42108547e-14" width="378" height="96" rx="48"></rect>
                                    <mask id="mask-2" fill="white">
                                        <use xlink:href="#path-1"></use>
                                    </mask>
                                    <use id="Mask" fill="#FFFFFF" xlink:href="#path-1"></use>
                                </g>
                                <circle id="Oval" fill="#FFF60F" transform="translate(478.500000, 48.500000) scale(-1, 1) translate(-478.500000, -48.500000) " cx="478.5" cy="48.5" r="9.5"></circle>
                            </g>
                        </g>
                    </g>
                </g>
                <g id="web-maintenance" transform="translate(17.000000, 20.000000)">
                    <rect id="Rectangle" fill="#45C1FF" x="6.1908457" y="11.5450605" width="49.9726348" height="5.35421484"></rect>
                    <rect id="Rectangle" fill="#14A5FF" x="6.1908457" y="11.5450605" width="49.9726348" height="2.67710742"></rect>
                    <rect id="Rectangle" fill="#DAF3FF" x="6.1908457" y="16.8991641" width="49.9726348" height="39.2642051"></rect>
                    <rect id="Rectangle" fill="#99C4FF" x="6.1908457" y="16.8991641" width="49.9726348" height="2.67710742"></rect>
                    <rect id="Rectangle" fill="#00C70D" x="0.836630859" y="0.836630859" width="49.9726348" height="5.35421484"></rect>
                    <rect id="Rectangle" fill="#00A90B" x="0.836630859" y="0.836630859" width="49.9726348" height="2.67710742"></rect>
                    <polygon id="Path" fill="#CCF4CF" points="6.1908457 11.5450605 6.1908457 45.4549395 0.836630859 45.4549395 0.836630859 6.1908457 50.8091543 6.1908457 50.8091543 11.5450605"></polygon>
                    <polygon id="Path" fill="#99DD9D" points="6.41394727 45.4549395 4.18293164 45.4549395 4.18293164 9.76024805 50.8091543 9.76024805 50.8091543 11.9911523 6.41394727 11.9911523"></polygon>
                    <polygon id="Path" fill="#FFD045" points="20.0873789 50.8020293 16.8194531 47.4923555 16.8262441 46.3962188 26.755377 36.5925527 27.851959 36.5993438 31.1197734 39.9090176 31.1126484 41.0054883 21.1835156 50.8091543"></polygon>
                    <polygon id="Path" fill="#BF9C34" points="31.6238672 33.964541 36.6708164 28.9811602 38.8495078 31.1876836 34.0468125 35.9295938"></polygon>
                    <polygon id="Path" fill="#FFD045" points="41.5936348 30.6569824 38.8495078 31.1876836 36.6708164 28.9811602 37.2363633 26.2439355 41.0977793 22.4315039 45.4549395 26.8444395"></polygon>
                    <polygon id="Rectangle" fill="#FFFFFF" transform="translate(27.278364, 40.433494) rotate(-134.635373) translate(-27.278364, -40.433494) " points="26.441724 39.6583083 28.1150035 39.6583083 28.1150035 41.2086803 26.441724 41.2086803"></polygon>
                    <polygon id="Rectangle" fill="#BE5E1E" transform="translate(30.928318, 36.282699) rotate(135.000000) translate(-30.928318, -36.282699) " points="28.6974354 28.6977081 33.1592012 28.6977081 33.1592012 43.8676895 28.6974354 43.8676895"></polygon>
                    <g id="Group" transform="translate(17.144531, 22.488281)" fill="#FD7D28">
                        <path d="M1.64654297,9.34766602 C0.125689453,7.80744141 -0.284666016,5.58755859 0.407794922,3.67983984 L2.76360937,6.06582422 L4.96311914,4.98349219 L6.0732832,2.79800977 L3.71746875,0.411914062 C5.63387109,-0.256277344 7.84829883,0.182355469 9.36915234,1.72258008 C11.4748125,3.85507031 11.4529922,7.29087891 9.32039062,9.39653906 C7.18778906,11.5019766 3.7520918,11.4802676 1.64654297,9.34766602 Z" id="Path"></path>
                        <path d="M26.3453555,18.915873 C24.2396953,16.7833828 20.803998,16.7614512 18.6713965,18.867 C16.5389063,20.9726602 16.5169746,24.4083574 18.6226348,26.540959 C20.7282949,28.6735605 24.1639922,28.6953809 26.2965938,26.589832 C28.429084,24.4841719 28.4509043,21.0484746 26.3453555,18.915873 Z M24.3387773,24.6070781 L21.7844648,25.2741563 L19.929627,23.3956055 L20.6291016,20.8499766 L23.1834141,20.1828984 L25.038252,22.0614492 L24.3387773,24.6070781 Z" id="Shape" fill-rule="nonzero"></path>
                    </g>
                    <path d="M51.6457852,10.7084297 L51.6457852,0 L7.97554688,0 L7.97554688,1.67315039 L49.9726348,1.67315039 L49.9726348,5.35421484 L1.67315039,5.35421484 L1.67315039,1.67315039 L6.19073438,1.67315039 L6.19073438,0 L0,0 L0,46.2915703 L5.35421484,46.2915703 L5.35421484,57 L57,57 L57,48.1319355 L55.3268496,48.1319355 L55.3268496,55.3267383 L7.02736523,55.3267383 L7.02736523,17.7357949 L55.3267383,17.7357949 L55.3267383,46.347123 L57,46.347123 L57,10.7084297 L51.6457852,10.7084297 Z M1.67315039,44.6184199 L1.67315039,7.02736523 L49.9725234,7.02736523 L49.9725234,10.7084297 L5.35421484,10.7084297 L5.35421484,16.0626445 L5.35421484,17.7357949 L5.35421484,44.6184199 L1.67315039,44.6184199 Z M7.02736523,16.0626445 L7.02736523,12.3815801 L55.3267383,12.3815801 L55.3267383,16.0626445 L7.02736523,16.0626445 Z" id="Shape" fill="#000000" fill-rule="nonzero"></path>
                    <rect id="Rectangle" fill="#000000" x="4.4060332" y="2.67710742" width="1.78470117" height="1.67315039"></rect>
                    <rect id="Rectangle" fill="#FFFFFF" x="7.97554688" y="2.67710742" width="1.78470117" height="1.67315039"></rect>
                    <rect id="Rectangle" fill="#000000" x="11.5450605" y="2.67710742" width="1.78470117" height="1.67315039"></rect>
                    <rect id="Rectangle" fill="#FFFFFF" x="45.4549395" y="2.67710742" width="1.78470117" height="1.67315039"></rect>
                    <polygon id="Path" fill="#000000" points="53.4304863 24.9304863 51.7573359 24.9304863 51.7573359 21.3053086 48.1320469 21.3053086 48.1320469 19.6320469 53.4304863 19.6320469"></polygon>
                    <polygon id="Path" fill="#000000" points="14.222168 53.4304863 8.92372852 53.4304863 8.92372852 48.1320469 10.5968789 48.1320469 10.5968789 51.7573359 14.222168 51.7573359"></polygon>
                    <rect id="Rectangle" fill="#000000" x="51.7573359" y="32.9618086" width="1.67315039" height="1.78470117"></rect>
                    <rect id="Rectangle" fill="#FFFFFF" x="51.7573359" y="26.7152988" width="1.67315039" height="4.46180859"></rect>
                    <rect id="Rectangle" fill="#000000" x="8.92372852" y="38.3160234" width="1.67315039" height="1.78470117"></rect>
                    <rect id="Rectangle" fill="#FFFFFF" x="8.92372852" y="41.8855371" width="1.67315039" height="4.46180859"></rect>
                    <rect id="Rectangle" fill="#000000" x="9.76024805" y="13.3855371" width="1.78470117" height="1.67315039"></rect>
                    <rect id="Rectangle" fill="#FFFFFF" x="13.3297617" y="13.3855371" width="1.78470117" height="1.67315039"></rect>
                    <rect id="Rectangle" fill="#000000" x="16.8991641" y="13.3855371" width="1.78470117" height="1.67315039"></rect>
                    <rect id="Rectangle" fill="#FFFFFF" x="50.8091543" y="13.3855371" width="1.78470117" height="1.67315039"></rect>
                    <path d="M38.6730527,48.6938086 L36.1395586,46.127918 L37.0950879,42.6508066 L40.584,41.7395859 L43.1174941,44.3055879 L42.1620762,47.7828105 L38.6730527,48.6938086 Z M38.0088691,45.6397441 L39.1849395,46.8309551 L40.8046523,46.4080195 L41.2481836,44.7939844 L40.0721133,43.6026621 L38.4525117,44.0255977 L38.0088691,45.6397441 Z" id="Shape" fill="#000000" fill-rule="nonzero"></path>
                    <path d="M39.6683262,38.9539336 C39.6546328,38.9538223 39.6410508,38.9538223 39.6273574,38.9538223 C39.0982148,38.9538223 38.5790918,39.0197285 38.0787832,39.1465312 L35.0678027,36.0970313 L39.2568574,31.9608574 L42.0010957,31.4301562 L46.6379121,26.8517871 L41.105127,21.2483086 L36.4683105,25.8266777 L35.9027637,28.563791 L31.7135977,32.7000762 L28.6982754,29.646123 C29.2520215,27.5691855 28.7249941,25.2599062 27.1088438,23.6229375 C25.4192168,21.9116016 22.8588926,21.3175547 20.5864629,22.1099883 L19.336582,22.5458379 L22.1988281,25.4447109 L21.487998,26.8441055 L20.0796973,27.5370117 L17.2174512,24.63825 L16.765793,25.8824531 C15.9446367,28.1446406 16.5057305,30.7122012 18.1954688,32.4236484 C19.3708711,33.6140801 20.9394844,34.2754805 22.6123008,34.286168 C22.6259941,34.2862793 22.6395762,34.2862793 22.6532695,34.2862793 C23.1824121,34.2862793 23.7015352,34.220373 24.2017324,34.0935703 L26.1238125,36.0402539 L15.9916172,46.0445332 L15.9804844,47.8335762 L19.735248,51.6364336 L21.5244023,51.6480117 L31.6565977,41.6438437 L33.5785664,43.590416 C33.4420781,44.1017461 33.3687129,44.6336719 33.365373,45.1770645 C33.3546855,46.8498809 33.9961582,48.4268437 35.1715605,49.6172754 C36.394834,50.8562461 38.0113184,51.4770117 39.628582,51.4770117 C41.2189043,51.4770117 42.8101172,50.8765078 44.0284922,49.6736074 C46.4858379,47.2472109 46.5112207,43.2740215 44.0848242,40.8166758 C42.9098672,39.6260215 41.3411426,38.9646211 39.6683262,38.9539336 Z M38.0045273,26.661416 L41.0903203,23.6146992 L44.2719668,26.8370918 L41.1861738,29.8838086 L39.1302773,30.28125 L37.5809238,28.7119687 L38.0045273,26.661416 Z M36.6633574,30.1642441 L37.6664238,31.1801133 L33.8924004,34.906377 L32.889334,33.8905078 L36.6633574,30.1642441 Z M22.6531582,32.6131289 C22.64325,32.6131289 22.6331191,32.6131289 22.6229883,32.6130176 C21.397043,32.6053359 20.2474688,32.120502 19.386123,31.2481348 C18.4943848,30.3449297 18.0315938,29.1165352 18.0671074,27.8803477 L19.7363613,29.5709766 L22.7270801,28.0994414 L24.2365781,25.1275371 L22.5673242,23.4369082 C23.8051816,23.4136406 25.0265625,23.8956914 25.9181895,24.7986738 C27.6962109,26.5996289 27.6777305,29.5113047 25.8768867,31.2894375 C25.0118672,32.1437695 23.868082,32.6131289 22.6531582,32.6131289 Z M30.2783555,40.6536914 L20.8422949,49.9702969 L20.4392871,49.9677363 L19.6366113,49.154707 L26.2123184,42.6620508 L25.0366934,41.4713965 L18.4609863,47.9640527 L17.6581992,47.1510234 L17.6606484,46.7480156 L27.096709,37.4312988 L27.4999395,37.433748 L30.2810273,40.2503496 L30.2783555,40.6536914 Z M31.9586309,39.5680195 L28.2036445,35.7648281 L28.2034219,35.7648281 L25.8682031,33.3997734 C26.2931426,33.144498 26.6908066,32.8372324 27.052623,32.4800918 C27.417668,32.1196113 27.7278281,31.7243965 27.9854414,31.3055801 L36.4124238,39.8405508 C35.9874844,40.0958262 35.5898203,40.4030918 35.2280039,40.7602324 C34.8661875,41.117373 34.5541348,41.511252 34.2935156,41.9330742 L31.9586309,39.5680195 Z M42.8533125,48.4829531 C41.0523574,50.2610859 38.1406816,50.2426055 36.3625488,48.4416504 C35.5012031,47.5692832 35.0310645,46.4135859 35.0388574,45.1876406 C35.0466504,43.9616953 35.5314844,42.8121211 36.4038516,41.9507754 C37.2968145,41.069168 38.4627539,40.6291992 39.6283594,40.6291992 C40.8135586,40.6291992 41.9983125,41.0840859 42.8947266,41.9920781 C44.6726367,43.7929219 44.6540449,46.7045977 42.8533125,48.4829531 Z" id="Shape" fill="#000000" fill-rule="nonzero"></path>
                </g>
            </g>
        </g>
    </g>
</svg>