<?xml version="1.0" encoding="UTF-8"?>
<svg width="1285px" height="7114px" viewBox="0 0 1285 7114" version="1.1" xmlns="http://www.w3.org/2000/svg" xmlns:xlink="http://www.w3.org/1999/xlink">
    <!-- Generator: Sketch 52.3 (67297) - http://www.bohemiancoding.com/sketch -->
    <title>Artboard</title>
    <desc>Created with Sketch.</desc>
    <g id="Artboard" stroke="none" stroke-width="1" fill="none" fill-rule="evenodd">
        <g id="Group-4" transform="translate(15.000000, 214.000000)">
            <g id="Group-3" transform="translate(570.000000, 1290.000000)" fill="#272A29">
                <g id="Fill-31">
                    <path d="M28.1116257,4.66360591 C26.3221083,11.9426804 24.6666077,18.463518 23.0741738,25.1143391 C-8.36457164,157.112556 -7.70237139,294.331777 25.2184413,423.492021 C32.8968109,453.60486 41.2216141,482.439527 49.1364838,512.097423 C65.3288567,572.821369 79.8184289,636.188312 90.6816664,705.707806 C101.844471,777.177053 99.2902697,842.277109 81.1191794,902.80608 C70.0194418,939.786378 59.242921,977.589905 48.7029003,1015.80505 C35.6244453,1063.24901 25.5022414,1115.17741 18.9275388,1172.1535 C3.86248305,1302.83022 11.8167694,1418.21222 48.718667,1514.78994 C55.4668029,1532.42436 61.986322,1550.7087 68.4348912,1569.18802 C86.2118147,1620.05489 101.994254,1675.16788 115.955643,1734.527 C136.807067,1823.1324 139.574119,1912.45271 119.779061,2005.34757 C113.030925,2036.99854 107.071123,2070.05767 101.458187,2103.37677 C88.4664489,2180.58695 80.0233956,2262.0216 74.0951267,2345.25435 C72.1006426,2373.15747 70.7525921,2402.7937 76.8542944,2429.31033 C80.5436958,2445.34162 85.6126811,2455.43701 92.9284173,2449.06782 C100.28357,2442.6553 103.302888,2426.64567 101.237454,2407.71141 C97.6426524,2374.84725 101.347821,2344.6261 103.791655,2313.60337 C111.604041,2214.31766 125.864997,2121.94274 143.988787,2033.92227 C167.205212,1921.1616 164.603711,1811.3689 139.881569,1703.04933 C124.043946,1633.65982 105.770372,1569.75128 84.8874142,1511.36704 C75.9161774,1486.28023 66.7715072,1461.58337 58.2496206,1435.34837 C39.8341469,1378.7189 35.0489617,1312.47066 40.1494803,1238.7267 C45.5259157,1161.14823 59.0773709,1095.13829 76.562611,1034.17604 C85.210631,1004.04154 94.047851,974.340318 102.766821,944.357464 C127.015964,861.038057 129.712065,770.526232 114.583942,674.208478 C103.704938,604.905623 89.4518659,540.953754 73.2989097,480.121488 C63.3501392,442.664584 52.8180019,406.312539 43.4210649,367.880759 C19.1876889,268.833352 22.2779568,168.529438 44.0044318,70.565227 C51.1625012,38.221006 60.6225049,8.90973271 77.0986779,13.025876 C79.8814956,13.6974573 25.447058,-9.677904 28.1116257,4.66360591 Z" id="Fill-26"></path>
                </g>
                <g id="Fill-31" transform="translate(86.000000, 3086.000000) scale(1, -1) translate(-86.000000, -3086.000000) translate(11.000000, 2365.000000)">
                    <path d="M37.6196437,5.53025677 C24.5134801,53.0091458 14.3698309,104.975765 7.78119888,161.993792 C-7.3157744,292.766695 0.655364292,408.233619 37.6354438,504.882426 C44.3978766,522.52983 50.9312083,540.82763 57.3934397,559.320549 C75.2080262,610.224856 91.0239029,665.378414 105.014871,724.781225 C125.910472,813.451845 128.683386,902.837899 108.846389,995.80113 C102.083957,1027.4754 96.1115276,1060.55887 90.4867003,1093.90249 C77.4674371,1171.1695 69.0064961,1252.66409 63.0656672,1335.9581 C61.0669575,1363.88176 59.716051,1393.5398 65.8306806,1420.07595 C69.5278986,1436.11905 74.6076232,1446.22186 81.9388588,1439.84798 C89.3095946,1433.43074 92.3353093,1417.40933 90.2654992,1398.46113 C86.6630818,1365.57279 90.3760998,1335.32939 92.8251117,1304.28383 C100.65405,1204.92504 114.945219,1112.48213 133.107407,1024.39686 C156.37302,911.553202 153.766007,801.679682 128.991487,693.280392 C113.12031,623.839807 94.8080213,559.884226 73.8808197,501.457008 C64.8905761,476.351733 55.7265316,451.636695 47.1865901,425.382387 C28.7321006,368.711238 23.9367773,302.414232 29.0481021,228.615995 C34.4359283,150.980424 48.181995,-32.7130127 37.6196437,5.53025677 Z" id="Fill-26"></path>
                </g>
            </g>
            <g id="Group-2">
                <ellipse id="Oval" fill="#FFF60F" cx="628.5" cy="653" rx="628.5" ry="653"></ellipse>
                <circle id="Oval" fill="#FFFFFF" cx="631" cy="610" r="577"></circle>
            </g>
        </g>
        <g id="Group-52" transform="translate(270.000000, 422.000000)">
            <path d="M710,644 C689.249511,643.676851 668.528606,642.096357 648,639.23208 L648,639 C668.516772,641.920094 689.23176,643.576968 709.952665,643.950059 C709.967457,643.967685 709.985208,643.985311 710,644" id="Fill-30" fill="#F5F8FA"></path>
            <path d="M710.641,643.527 C710.563,643.527 710.485,643.527 710.407,643.524 C710.392,643.509 710.374,643.491 710.359,643.473 C710.452,643.476 710.548,643.479 710.641,643.479 L710.641,643.527" id="Fill-31" fill="#EBF1F5"></path>
            <polyline id="Fill-44" fill="#7876AA" points="262.909842 38.1526513 192.668299 63.7899311 192.656666 63.7928898 192.086637 64 191.967396 63.6893348 191.949946 63.6390366 168 0.748555314 168.433338 0 192.400735 62.9585317 192.470534 63.1360547 193.281953 62.8431418 263 37.4011373 262.909842 38.1526513"></polyline>
            <path d="M613.659743,161 C613.659743,161 617.832419,176.73209 619.981346,181.938601 C619.981346,181.938601 620.836745,190.013887 610.962407,191.739771 C601.085088,193.462768 605.537929,186.065713 605.537929,186.065713 C605.537929,186.065713 609.147293,179.606638 604,162.688364 L613.659743,161" id="Fill-65" fill="#E79C86"></path>
            <path d="M585.03706,200.224297 L585.110729,200.529318 L585.193238,200.769189 L585.308161,201.041636 L585.405403,201.231164 L585.588102,201.550992 L585.747226,201.784941 L586.203972,202.392023 C586.598836,202.85992 587.208813,203.082023 587.815842,202.972452 L623,196.593652 L622.407704,193.996527 L622.068828,192.468458 C622.446012,189.655152 621.252579,185.932705 619.705537,182 C610.900657,191.941333 606.056205,185.34043 605.864667,185.065022 L605.858773,185.0591 L605.823412,185.177554 L605.687862,185.57734 C605.301838,186.456868 604.397187,187.481504 603.168394,188.547598 L602.912027,188.769701 C602.369825,189.228714 601.765742,189.702534 601.126298,190.176354 L600.846357,190.374766 C600.283528,190.774552 599.697126,191.177299 599.095989,191.571161 L598.801315,191.766612 C595.179763,194.120904 590.986542,196.270862 588.272588,197.283652 C587.895405,197.425798 587.553582,197.544253 587.244173,197.639017 C585.29048,198.231292 584.857309,199.235198 585.03706,200.224297" id="Fill-66" fill="#D0533F"></path>
            <path d="M591.099902,203 L625,196.99374 L624.39491,194.400195 L624.048714,192.874232 C623.6393,192.679051 623.232896,192.469083 622.847565,192.244329 C621.131638,191.250679 619.500002,190.339833 617.495077,190.079591 C613.855505,189.618254 610.285172,191.232935 607.151347,193.101944 C604.017522,194.979824 601.010134,197.194836 597.478937,198.176657 C596.175434,198.537446 594.829786,198.723756 593.535315,199.134819 C592.493717,199.466036 591.38288,200.060452 591.087861,201.101419 C590.967445,201.527269 590.994538,201.97382 591.030663,202.405584 L591.099902,203" id="Fill-67" fill="#B94035"></path>
            <path d="M585.03706,201.22543 L585.110729,201.530327 L585.193238,201.770101 L585.308161,202.042436 L585.405403,202.231886 L585.588102,202.551584 L585.747226,202.785437 L586.203972,203.392271 C586.598836,203.859977 587.208813,204.081989 587.815842,203.972463 L623,197.596268 L622.407704,195.000204 C621.588508,194.994283 620.757526,195.11861 620.100401,195.216296 C617.127133,195.669201 614.17744,196.444764 611.245427,197.069359 C607.741745,197.821241 604.226276,198.564242 600.722594,199.316124 C596.874142,200.133129 592.604306,200.893892 589.2126,198.89282 C588.894352,198.70929 588.581997,198.496158 588.272588,198.285987 C587.895405,198.428075 587.553582,198.546481 587.244173,198.641206 C585.29048,199.233239 584.857309,200.236735 585.03706,201.22543" id="Fill-68" fill="#D0CFCA"></path>
            <path d="M603,189.760454 C603.40251,190.288454 603.926641,190.834454 604.543436,191.155454 C604.940154,191.368454 605.374517,191.485454 605.846525,191.461454 L605.866795,191.458454 L606,191.281454 L605.829151,191.122454 C605.351351,191.149454 604.899614,190.993454 604.5,190.747454 C604.007722,190.429454 603.584942,189.982454 603.251931,189.535454 L603,189.760454" id="Fill-69" fill="#FFFFFE"></path>
            <path d="M601.15,190.986596 C601.81,191.676596 602.674,192.267596 603.694,192.210596 L603.718,192.210596 L603.85,192.033596 L603.679,191.871596 C602.806,191.922596 602.032,191.403596 601.435,190.785596 L601.15,190.986596" id="Fill-70" fill="#FFFFFE"></path>
            <path d="M599.3645,192.189347 C599.9555,192.684347 600.6695,193.047347 601.4795,193.005347 L601.5005,193.008347 L601.6355,192.834347 L601.4585,192.672347 C600.7865,192.714347 600.1775,192.411347 599.6645,191.991347 L599.3645,192.189347" id="Fill-71" fill="#FFFFFE"></path>
            <path d="M635.901077,174.13654 C635.901077,174.13654 636.897382,190.457482 638,196.003348 C638,196.003348 637.225433,204.137673 626.998117,203.998227 C616.773839,203.855877 622.718258,197.380373 622.718258,197.380373 C622.718258,197.380373 627.629921,191.67182 625.895499,174 L635.901077,174.13654" id="Fill-72" fill="#EFA58F"></path>
            <path d="M600,207.237379 L600.01461,207.552168 L600.049673,207.807563 L600.111033,208.095625 L600.166549,208.300535 L600.286348,208.65096 L600.394459,208.912295 L600.727557,209.595328 C601.019749,210.135815 601.574913,210.468422 602.185594,210.477331 L637.62845,211 L637.546637,208.330232 L637.50573,206.759256 C638.402758,204.06573 637.946939,200.169471 637.184319,196 C626.735543,204.080578 623.273071,196.650366 623.138663,196.341517 L623.132819,196.335577 L623.077302,196.448426 L622.869846,196.810731 C622.323448,197.603643 621.251104,198.438131 619.854428,199.248862 L619.562236,199.418135 C618.945711,199.762621 618.27367,200.113047 617.557801,200.454563 L617.248078,200.597109 C616.625709,200.882202 615.977044,201.167294 615.319612,201.437537 L614.995279,201.571174 C611.024394,203.189665 606.536329,204.499307 603.704991,204.971491 C603.310532,205.036824 602.95698,205.087309 602.635569,205.122946 C600.62529,205.324886 600.01461,206.230647 600,207.237379" id="Fill-73" fill="#DF5944"></path>
            <path d="M604,209.552233 L638,210 L637.91679,207.560347 L637.875186,206.124778 C637.518574,205.880541 637.15899,205.617308 636.832095,205.351362 C635.36107,204.162743 633.955423,203.058251 632.065379,202.47751 C628.627043,201.43272 624.855869,202.265838 621.456166,203.408323 C618.062407,204.558949 614.72214,206.035224 611.111441,206.312026 C609.780089,206.409721 608.43685,206.341877 607.105498,206.488419 C606.029718,206.607824 604.84101,206.952469 604.35364,207.837148 C604.154532,208.20079 604.095097,208.607851 604.05052,209.004057 L604,209.552233" id="Fill-74" fill="#C74337"></path>
            <path d="M600,207.255172 L600.014754,207.568473 L600.050163,207.82266 L600.112129,208.10936 L600.168194,208.3133 L600.289175,208.662069 L600.398354,208.922167 L600.734741,209.60197 C601.029818,210.139901 601.590464,210.470936 602.207175,210.479803 L638,211 L637.917378,208.342857 C637.111819,208.17734 636.27085,208.138916 635.606927,208.112315 C632.603044,207.982266 629.5549,208.174384 626.551017,208.224631 C622.962882,208.2867 619.368846,208.339901 615.780711,208.399015 C611.841435,208.464039 607.500854,208.387192 604.550085,205.774384 C604.272713,205.53202 604.004193,205.263054 603.741575,205 C603.343221,205.065025 602.986178,205.115271 602.661593,205.150739 C600.631465,205.351724 600.014754,206.253202 600,207.255172" id="Fill-75" fill="#E0E0DB"></path>
            <path d="M620.12,199.468 C620.429,200.065 620.855,200.707 621.425,201.145 C621.785,201.433 622.205,201.634 622.688,201.703 L622.709,201.703 L622.88,201.556 L622.733,201.367 C622.244,201.298 621.815,201.058 621.455,200.737 C621.017,200.323 620.675,199.801 620.42,199.297 L620.12,199.468" id="Fill-76" fill="#FFFFFE"></path>
            <path d="M617.2745,200.7245 C617.7875,201.5285 618.5255,202.2755 619.5335,202.4195 L619.5635,202.4195 L619.7255,202.2725 L619.5875,202.0805 C618.7175,201.9605 618.0605,201.3065 617.5925,200.5805 L617.2745,200.7245" id="Fill-77" fill="#FFFFFE"></path>
            <path d="M615.4455,201.9585 C615.9285,202.5585 616.5615,203.0565 617.3625,203.1705 L617.3805,203.1765 L617.5545,203.0295 L617.4075,202.8375 C616.7415,202.7475 616.1985,202.3335 615.7785,201.8235 L615.4455,201.9585" id="Fill-78" fill="#FFFFFE"></path>
            <path d="M738,93.9193368 L738,519.068911 C738,535.599028 724.645054,549 708.15725,549 L73.8427502,549 C57.3549458,549 44,535.599028 44,519.068911 L44,93.9193368 C44,77.4009717 57.3549458,64 73.8427502,64 L708.15725,64 C724.645054,64 738,77.4009717 738,93.9193368" id="Fill-99" fill="#ACBFD9"></path>
            <polygon id="Fill-100" fill="#CDD9E6" points="75 523 707 523 707 96 75 96"></polygon>
            <path d="M501,623 L282,623 C320.780272,598.623083 319.642092,549 319.642092,549 L463.357908,549 C463.762725,556.193189 464.592893,562.721313 465.74574,568.633963 C474.387698,612.854862 501,623 501,623" id="Fill-101" fill="#8CACCF"></path>
            <path d="M505.249991,637 L277.747072,637 C274.022524,637 271,634.048451 271,630.404953 L271,619.595047 C271,615.951549 274.022524,613 277.747072,613 L505.249991,613 C508.980414,613 512,615.951549 512,619.595047 L512,630.404953 C512,634.048451 508.980414,637 505.249991,637" id="Fill-102" fill="#ACBFD9"></path>
            <path d="M466,569 L319,549 L463.597518,549 C464.004819,556.327292 464.84008,562.977121 466,569" id="Fill-103" fill="#7CA1C3"></path>
            <path d="M356.901291,220 L104.098709,220 C99.072252,220 95,215.926727 95,210.902632 L95,134.094433 C95,129.070339 99.072252,125 104.098709,125 L356.901291,125 C361.927748,125 366,129.070339 366,134.094433 L366,210.902632 C366,215.926727 361.927748,220 356.901291,220" id="Fill-104" fill="#B4C4DB"></path>
            <path d="M353.81554,405 L107.18446,405 C100.455115,405 95,399.522649 95,392.769509 L95,246.230491 C95,239.477351 100.455115,234 107.18446,234 L353.81554,234 C360.544885,234 366,239.477351 366,246.230491 L366,392.769509 C366,399.522649 360.544885,405 353.81554,405" id="Fill-105" fill="#B4C4DB"></path>
            <path d="M678.874145,405 L390.125855,405 C382.877336,405 377,399.089529 377,391.800145 L377,247.199855 C377,239.910471 382.877336,234 390.125855,234 L678.874145,234 C686.122664,234 692,239.910471 692,247.199855 L692,391.800145 C692,399.089529 686.122664,405 678.874145,405" id="Fill-106" fill="#B4C4DB"></path>
            <path d="M682.185735,220 L385.811338,220 C380.393442,220 376,215.595113 376,210.160169 L376,134.836896 C376,129.404887 380.393442,125 385.811338,125 L682.185735,125 C687.606558,125 692,129.404887 692,134.836896 L692,210.160169 C692,215.595113 687.606558,220 682.185735,220" id="Fill-107" fill="#B4C4DB"></path>
            <path d="M356.901291,513 L104.098709,513 C99.072252,513 95,508.926727 95,503.902632 L95,427.094433 C95,422.070339 99.072252,418 104.098709,418 L356.901291,418 C361.927748,418 366,422.070339 366,427.094433 L366,503.902632 C366,508.926727 361.927748,513 356.901291,513" id="Fill-108" fill="#B4C4DB"></path>
            <path d="M682.185735,513 L385.811338,513 C380.393442,513 376,508.595113 376,503.160169 L376,427.836896 C376,422.404887 380.393442,418 385.811338,418 L682.185735,418 C687.606558,418 692,422.404887 692,427.836896 L692,503.160169 C692,508.595113 687.606558,513 682.185735,513" id="Fill-109" fill="#B4C4DB"></path>
            <path d="M356.898454,215 L104.101546,215 C99.0751438,215 95,210.926601 95,205.902351 L95,129.094714 C95,124.070464 99.0751438,120 104.101546,120 L356.898454,120 C361.924856,120 366,124.070464 366,129.094714 L366,205.902351 C366,210.926601 361.924856,215 356.898454,215" id="Fill-110" fill="#F4F6F9"></path>
            <path d="M353.815672,399 L107.187264,399 C100.455056,399 95,393.525501 95,386.772245 L95,240.230702 C95,233.477445 100.455056,228 107.187264,228 L353.815672,228 C360.544944,228 366,233.477445 366,240.230702 L366,386.772245 C366,393.525501 360.544944,399 353.815672,399" id="Fill-111" fill="#F4F6F9"></path>
            <path d="M678.879761,399 L390.123169,399 C382.874515,399 377,393.092374 377,385.802864 L377,241.200083 C377,233.910573 382.874515,228 390.123169,228 L678.879761,228 C686.128415,228 692,233.910573 692,241.200083 L692,385.802864 C692,393.092374 686.128415,399 678.879761,399" id="Fill-112" fill="#F4F6F9"></path>
            <path d="M681.188662,215 L384.811338,215 C379.393442,215 375,210.597912 375,205.1628 L375,129.8372 C375,124.405023 379.393442,120 384.811338,120 L681.188662,120 C686.606558,120 691,124.405023 691,129.8372 L691,205.1628 C691,210.597912 686.606558,215 681.188662,215" id="Fill-113" fill="#F4F6F9"></path>
            <path d="M356.898454,507 L104.101546,507 C99.0751438,507 95,502.926601 95,497.902351 L95,421.094714 C95,416.070464 99.0751438,412 104.101546,412 L356.898454,412 C361.924856,412 366,416.070464 366,421.094714 L366,497.902351 C366,502.926601 361.924856,507 356.898454,507" id="Fill-114" fill="#F4F6F9"></path>
            <path d="M681.188662,507 L384.811338,507 C379.393442,507 375,502.597912 375,497.1628 L375,421.8372 C375,416.405023 379.393442,412 384.811338,412 L681.188662,412 C686.606558,412 691,416.405023 691,421.8372 L691,497.1628 C691,502.597912 686.606558,507 681.188662,507" id="Fill-115" fill="#F4F6F9"></path>
            <path d="M193,132.797273 L193,204.199782 C193,206.847264 190.850131,209 188.202552,209 L116.794503,209 C114.146924,209 112,206.847264 112,204.199782 L112,132.797273 C112,130.149791 114.146924,128 116.794503,128 L188.202552,128 C190.850131,128 193,130.149791 193,132.797273" id="Fill-116" fill="#E4ECF2"></path>
            <path d="M193,189.00154 L193,203.209237 C193,205.851505 190.850131,208 188.202552,208 L116.794503,208 C114.146924,208 112,205.851505 112,203.209237 L112,186.423933 L135.041885,145 L154.231675,183.858083 L167.398887,152.418334 L193,189.00154" id="Fill-117" fill="#ACBFD9"></path>
            <path d="M157,141.998476 C157,145.866536 153.863488,149 149.998476,149 C146.133464,149 143,145.866536 143,141.998476 C143,138.133464 146.133464,135 149.998476,135 C153.863488,135 157,138.133464 157,141.998476" id="Fill-118" fill="#CEDEEA"></path>
            <path d="M350.303437,147 L207.693635,147 C205.102327,147 203,144.984404 203,142.5 C203,140.012789 205.102327,138 207.693635,138 L350.303437,138 C352.897673,138 355,140.012789 355,142.5 C355,144.984404 352.897673,147 350.303437,147" id="Fill-119" fill="#E4ECF2"></path>
            <path d="M350.303437,164 L207.693635,164 C205.102327,164 203,161.984404 203,159.5 C203,157.015596 205.102327,155 207.693635,155 L350.303437,155 C352.897673,155 355,157.015596 355,159.5 C355,161.984404 352.897673,164 350.303437,164" id="Fill-120" fill="#E4ECF2"></path>
            <path d="M350.303437,181 L207.693635,181 C205.102327,181 203,178.984404 203,176.5 C203,174.012789 205.102327,172 207.693635,172 L350.303437,172 C352.897673,172 355,174.012789 355,176.5 C355,178.984404 352.897673,181 350.303437,181" id="Fill-121" fill="#E4ECF2"></path>
            <path d="M350.303437,198 L207.693635,198 C205.102327,198 203,195.987211 203,193.5 C203,191.015596 205.102327,189 207.693635,189 L350.303437,189 C352.897673,189 355,191.015596 355,193.5 C355,195.987211 352.897673,198 350.303437,198" id="Fill-122" fill="#E4ECF2"></path>
            <path d="M671.295427,147 L482.701638,147 C480.104291,147 478,144.984404 478,142.5 C478,140.015596 480.104291,138 482.701638,138 L671.295427,138 C673.895709,138 676,140.015596 676,142.5 C676,144.984404 673.895709,147 671.295427,147" id="Fill-123" fill="#E4ECF2"></path>
            <path d="M671.295427,164 L482.701638,164 C480.104291,164 478,161.984404 478,159.5 C478,157.015596 480.104291,155 482.701638,155 L671.295427,155 C673.895709,155 676,157.015596 676,159.5 C676,161.984404 673.895709,164 671.295427,164" id="Fill-124" fill="#E4ECF2"></path>
            <path d="M671.295427,181 L482.701638,181 C480.104291,181 478,178.984404 478,176.5 C478,174.012789 480.104291,172 482.701638,172 L671.295427,172 C673.895709,172 676,174.012789 676,176.5 C676,178.984404 673.895709,181 671.295427,181" id="Fill-125" fill="#E4ECF2"></path>
            <path d="M671.295427,198 L482.701638,198 C480.104291,198 478,195.987211 478,193.5 C478,191.015596 480.104291,189 482.701638,189 L671.295427,189 C673.895709,189 676,191.015596 676,193.5 C676,195.987211 673.895709,198 671.295427,198" id="Fill-126" fill="#E4ECF2"></path>
            <path d="M344.291526,439 L119.705538,439 C117.107659,439 115,436.987211 115,434.5 C115,432.015596 117.107659,430 119.705538,430 L344.291526,430 C346.892341,430 349,432.015596 349,434.5 C349,436.987211 346.892341,439 344.291526,439" id="Fill-127" fill="#E4ECF2"></path>
            <path d="M344.291526,455 L119.705538,455 C117.107659,455 115,452.984404 115,450.5 C115,448.012789 117.107659,446 119.705538,446 L344.291526,446 C346.892341,446 349,448.012789 349,450.5 C349,452.984404 346.892341,455 344.291526,455" id="Fill-128" fill="#E4ECF2"></path>
            <path d="M344.291526,473 L119.705538,473 C117.107659,473 115,470.984404 115,468.5 C115,466.015596 117.107659,464 119.705538,464 L344.291526,464 C346.892341,464 349,466.015596 349,468.5 C349,470.984404 346.892341,473 344.291526,473" id="Fill-129" fill="#E4ECF2"></path>
            <path d="M344.291526,490 L119.705538,490 C117.107659,490 115,487.987211 115,485.502807 C115,483.015596 117.107659,481 119.705538,481 L344.291526,481 C346.892341,481 349,483.015596 349,485.502807 C349,487.987211 346.892341,490 344.291526,490" id="Fill-130" fill="#E4ECF2"></path>
            <path d="M274,312.00146 C274,337.407563 253.404642,358 228.00146,358 C202.595358,358 182,337.407563 182,312.00146 C182,286.595358 202.595358,266 228.00146,266 C253.404642,266 274,286.595358 274,312.00146" id="Fill-131" fill="#E4ECF2"></path>
            <path d="M253.256085,307.75895 L220.231744,288.742758 C216.570241,286.63279 212,289.269514 212,293.486506 L212,331.515948 C212,335.73294 216.570241,338.363778 220.231744,336.259696 L253.256085,317.243504 C256.914638,315.133536 256.914638,309.865975 253.256085,307.75895" id="Fill-132" fill="#ACBFD9"></path>
            <path d="M469,167.498539 C469,187.657938 452.659552,204 432.501462,204 C412.343371,204 396,187.657938 396,167.498539 C396,147.342062 412.343371,131 432.501462,131 C452.659552,131 469,147.342062 469,167.498539" id="Fill-133" fill="#ACBFD9"></path>
            <path d="M445,275.501459 C445,289.03168 434.028762,300 420.498541,300 C406.96832,300 396,289.03168 396,275.501459 C396,261.971238 406.96832,251 420.498541,251 C434.028762,251 445,261.971238 445,275.501459" id="Fill-134" fill="#ACBFD9"></path>
            <path d="M671.294812,272 L459.708123,272 C457.107501,272 455,269.984404 455,267.5 C455,265.015596 457.107501,263 459.708123,263 L671.294812,263 C673.895434,263 676,265.015596 676,267.5 C676,269.984404 673.895434,272 671.294812,272" id="Fill-135" fill="#E4ECF2"></path>
            <path d="M671.29475,289 L459.70525,289 C457.104594,289 455,286.987211 455,284.502807 C455,282.015596 457.104594,280 459.70525,280 L671.29475,280 C673.895406,280 676,282.015596 676,284.502807 C676,286.987211 673.895406,289 671.29475,289" id="Fill-136" fill="#E4ECF2"></path>
            <path d="M445,341.5 C445,355.031027 434.028762,366 420.498541,366 C406.96832,366 396,355.031027 396,341.5 C396,327.968973 406.96832,317 420.498541,317 C434.028762,317 445,327.968973 445,341.5" id="Fill-137" fill="#EFA24E"></path>
            <path d="M671.29475,338 L459.70525,338 C457.104594,338 455,335.984404 455,333.5 C455,331.015596 457.104594,329 459.70525,329 L671.29475,329 C673.895406,329 676,331.015596 676,333.5 C676,335.984404 673.895406,338 671.29475,338" id="Fill-138" fill="#E4ECF2"></path>
            <path d="M671.29475,355 L459.70525,355 C457.104594,355 455,352.987211 455,350.502807 C455,348.015596 457.104594,346 459.70525,346 L671.29475,346 C673.895406,346 676,348.015596 676,350.502807 C676,352.987211 673.895406,355 671.29475,355" id="Fill-139" fill="#E4ECF2"></path>
            <path d="M434.17481,458 L404.828137,458 C400.522072,458 397,454.464676 397,450.14898 L397,425.85102 C397,421.535324 400.522072,418 404.828137,418 L434.17481,418 C438.477928,418 442,421.535324 442,425.85102 L442,450.14898 C442,454.464676 438.477928,458 434.17481,458" id="Fill-140" fill="#ACBFD9"></path>
            <path d="M667.29475,432 L455.70525,432 C453.104594,432 451,429.984404 451,427.502807 C451,425.015596 453.104594,423 455.70525,423 L667.29475,423 C669.892471,423 672,425.015596 672,427.502807 C672,429.984404 669.892471,432 667.29475,432" id="Fill-141" fill="#E4ECF2"></path>
            <path d="M667.29475,449 L455.70525,449 C453.104594,449 451,446.987211 451,444.502807 C451,442.015596 453.104594,440 455.70525,440 L667.29475,440 C669.892471,440 672,442.015596 672,444.502807 C672,446.987211 669.892471,449 667.29475,449" id="Fill-142" fill="#E4ECF2"></path>
            <path d="M434.17481,503 L404.828137,503 C400.522072,503 397,499.46711 397,495.150776 L397,470.849224 C397,466.529933 400.522072,463 404.828137,463 L434.17481,463 C438.477928,463 442,466.529933 442,470.849224 L442,495.150776 C442,499.46711 438.477928,503 434.17481,503" id="Fill-143" fill="#E4ECF2"></path>
            <path d="M667.29475,477 L455.70525,477 C453.104594,477 451,474.984404 451,472.5 C451,470.015596 453.104594,468 455.70525,468 L667.29475,468 C669.892471,468 672,470.015596 672,472.5 C672,474.984404 669.892471,477 667.29475,477" id="Fill-144" fill="#E4ECF2"></path>
            <path d="M667.29475,495 L455.70525,495 C453.104594,495 451,492.984404 451,490.497193 C451,488.012789 453.104594,486 455.70525,486 L667.29475,486 C669.892471,486 672,488.012789 672,490.497193 C672,492.984404 669.892471,495 667.29475,495" id="Fill-145" fill="#E4ECF2"></path>
            <path d="M738,379 L707,379 L707,272 L727.035499,272 C733.066549,272 738,277.044454 738,283.208265 L738,379" id="Fill-149" fill="#9BB1D0"></path>
            <polygon id="Fill-150" fill="#ACBDD7" points="692 379 707 379 707 272 692 272"></polygon>
            <polygon id="Fill-151" fill="#9FB3D1" points="691.3305 379 691.6695 379 691.6695 272 691.3305 272"></polygon>
            <path d="M693,379 L512.222479,379 C506.050851,379 501,373.955546 501,367.788797 L501,354.350632 L671.984694,354.350632 C674.591016,354.350632 676.700195,352.244124 676.700195,349.644042 C676.700195,347.041021 674.591016,344.931576 671.984694,344.931576 L501,344.931576 L501,337.50151 L671.984694,337.50151 C674.591016,337.50151 676.700195,335.392065 676.700195,332.791982 C676.700195,330.1919 674.591016,328.082455 671.984694,328.082455 L501,328.082455 L501,288.376112 L671.984694,288.376112 C674.591016,288.376112 676.700195,286.269605 676.700195,283.669522 C676.700195,281.066502 674.591016,278.957057 671.984694,278.957057 L501.84426,278.957057 C503.529838,274.885063 507.554046,272 512.222479,272 L693,272 L693,379" id="Fill-152" fill="#BECBDD"></path>
            <path d="M671.303292,289 L501,289 L501,284.062071 C501,282.627573 501.298855,281.254835 501.840895,280 L671.303292,280 C673.899226,280 676,282.015596 676,284.502807 C676,286.987211 673.899226,289 671.303292,289" id="Fill-153" fill="#B6C6DB"></path>
            <path d="M671.303292,338 L501,338 L501,329 L671.303292,329 C673.899226,329 676,331.015596 676,333.5 C676,335.984404 673.899226,338 671.303292,338" id="Fill-154" fill="#B6C6DB"></path>
            <path d="M671.303292,355 L501,355 L501,346 L671.303292,346 C673.899226,346 676,348.015596 676,350.502807 C676,352.987211 673.899226,355 671.303292,355" id="Fill-155" fill="#B6C6DB"></path>
            <path d="M739.783415,369 L523.219525,369 C517.048198,369 512,363.955546 512,357.788797 L512,273.208265 C512,267.041516 517.048198,262 523.219525,262 L739.783415,262 C745.951802,262 751,267.041516 751,273.208265 L751,357.788797 C751,363.955546 745.951802,369 739.783415,369" id="Fill-159" fill="#F4F6F9"></path>
            <path d="M614,279.800393 L614,351.202552 C614,353.850131 611.850131,356 609.202552,356 L537.800393,356 C535.146924,356 533,353.850131 533,351.202552 L533,279.800393 C533,277.146924 535.146924,275 537.800393,275 L609.202552,275 C611.850131,275 614,277.146924 614,279.800393" id="Fill-160" fill="#E4ECF2"></path>
            <path d="M614,337.004479 L614,351.212176 C614,353.854444 611.850131,356 609.202552,356 L537.800393,356 C535.146924,356 533,353.854444 533,351.212176 L533,334.426872 L556.041885,293 L575.23462,331.861022 L588.401832,300.418334 L614,337.004479" id="Fill-161" fill="#ACBFD9"></path>
            <path d="M578,288 C578,291.867218 574.863488,295 571.001524,295 C567.133464,295 564,291.867218 564,288 C564,284.135829 567.133464,281 571.001524,281 C574.863488,281 578,284.135829 578,288" id="Fill-162" fill="#CEDEEA"></path>
            <path d="M733.366012,284 L627.633988,284 C625.635001,284 624,282.422456 624,280.497173 C624,278.574717 625.635001,277 627.633988,277 L733.366012,277 C735.367934,277 737,278.574717 737,280.497173 C737,282.422456 735.367934,284 733.366012,284" id="Fill-163" fill="#EFA24E"></path>
            <path d="M733.366012,301 L627.633988,301 C625.635001,301 624,299.427475 624,297.501414 C624,295.575354 625.635001,294 627.633988,294 L733.366012,294 C735.367934,294 737,295.575354 737,297.501414 C737,299.427475 735.367934,301 733.366012,301" id="Fill-164" fill="#E4ECF2"></path>
            <path d="M733.366012,317 L627.633988,317 C625.635001,317 624,315.427475 624,313.501414 C624,311.572525 625.635001,310 627.633988,310 L733.366012,310 C735.367934,310 737,311.572525 737,313.501414 C737,315.427475 735.367934,317 733.366012,317" id="Fill-165" fill="#E4ECF2"></path>
            <path d="M707.813423,334 L627.186577,334 C625.43484,334 624,332.620355 624,330.929725 L624,330.073102 C624,328.382472 625.43484,327 627.186577,327 L707.813423,327 C709.568094,327 711,328.382472 711,330.073102 L711,330.929725 C711,332.620355 709.568094,334 707.813423,334" id="Fill-166" fill="#E4ECF2"></path>
            <path d="M707.813423,349 L627.186577,349 C625.43484,349 624,347.614701 624,345.929725 L624,345.070275 C624,343.379645 625.43484,342 627.186577,342 L707.813423,342 C709.568094,342 711,343.379645 711,345.070275 L711,345.929725 C711,347.614701 709.568094,349 707.813423,349" id="Fill-167" fill="#E4ECF2"></path>
            <path d="M44,149 L75.6304707,149 L75.6304707,132.9186 L44,132.9186 L44,149 Z M317.792651,96.7081816 L328,96.7081816 L328,64 L317.792651,64 L317.792651,96.7081816 Z" id="Fill-206" fill="#9BB1D0"></path>
            <path d="M76,149 L95.6617958,149 L95.6617958,133.008344 L76,133.008344 L76,149 Z M328,119.989289 L317.775398,119.989289 C317.795888,119.67268 317.807597,119.35314 317.807597,119.030669 L317.807597,97 L328,97 L328,119.989289 Z" id="Fill-207" fill="#ACBDD7"></path>
            <path d="M314.009373,149 L192.461769,149 L192.461769,133.216451 C192.461769,133.14905 192.458834,133.081649 192.455898,133.014248 L303.779131,133.014248 C311.158996,133.014248 317.247238,127.241209 317.746274,120 L328,120 L328,135.033347 C328,136.094179 327.879644,137.128638 327.65361,138.125 L207.31837,138.125 C204.720446,138.125 202.612752,140.226152 202.612752,142.822555 C202.612752,145.416027 204.720446,147.520109 207.31837,147.520109 L320.262003,147.520109 C318.377408,148.466653 316.252101,149 314.009373,149 M111.723584,149 L95,149 L95,133.014248 L111.726519,133.014248 C111.723584,133.081649 111.723584,133.14905 111.723584,133.216451 L111.723584,149" id="Fill-208" fill="#BECBDD"></path>
            <path d="M193,149 L150.947971,149 C154.596859,148.897342 157.52127,145.92319 157.52127,142.265628 C157.52127,138.546471 154.490838,135.531256 150.756545,135.531256 C147.022251,135.531256 143.994764,138.546471 143.994764,142.265628 C143.994764,145.92319 146.919175,148.897342 150.562173,149 L136.414267,149 L135.041885,146.228231 L133.495746,149 L112,149 L112,133.202383 C112,133.134922 112,133.067461 112.002945,133 L192.99411,133 C192.997055,133.067461 193,133.134922 193,133.202383 L193,149" id="Fill-209" fill="#B6C6DB"></path>
            <polyline id="Fill-210" fill="#9BB1D0" points="135.9865 148.9175 133.0135 148.9175 134.5885 146.0825 135.9865 148.9175"></polyline>
            <path d="M150.196604,149 L149.7973,149 C146.02678,148.893293 143,145.801829 143,142 C143,138.134146 146.133464,135 149.998476,135 C153.863488,135 157,138.134146 157,142 C157,145.801829 153.97322,148.893293 150.196604,149" id="Fill-211" fill="#ABBFD8"></path>
            <path d="M320.610809,147 L207.70408,147 C205.107005,147 203,144.984404 203,142.5 C203,140.012789 205.107005,138 207.70408,138 L328,138 C327.060945,141.935745 324.296601,145.225827 320.610809,147" id="Fill-212" fill="#B6C6DB"></path>
            <path d="M57.4067275,50.7122018 C56.16081,49.5482917 52.9624665,53.8357565 50.9103671,55.7092955 C48.8641308,57.5828345 48.2455694,57.686755 48.2660904,57.2473196 C48.289543,56.8078841 51.8191539,52.1997502 53.5546437,50.2430747 C55.2901335,48.2863993 58.113236,45.2519194 56.7412609,44.064256 C55.3634228,42.8765926 52.7425987,46.1426669 50.3240529,48.7228656 C47.9084388,51.3030643 46.2374436,54.295976 45.5602508,53.7882499 C44.8859895,53.2775547 52.5960201,42.7667337 53.1207713,41.947246 C53.648454,41.1307274 55.5129329,38.5891278 54.2933995,37.5944597 C53.0738661,36.6027608 51.2328398,38.704925 50.2888741,39.8183594 C49.3507715,40.9317938 46.8647997,44.1473924 44.9534156,46.9562163 C43.0420316,49.7680094 42.4439912,50.6825102 41.9368295,50.453885 C41.4325994,50.2252598 44.9094421,43.1319402 46.2521014,40.5903406 C47.5918292,38.048741 48.207459,35.37056 46.4309272,35.0172302 C44.6543954,34.6668695 42.5290068,39.7441304 41.1218529,42.5559235 C39.7205622,45.3706857 37.3078796,50.2311981 35.9183151,51.9176801 C34.5287507,53.6071313 33.6111691,55.4183179 32.8489607,54.5542928 L32.4150883,54.1386106 C31.8258426,53.6190079 31.3479966,51.5138746 31.2981599,49.9610047 C31.2512548,48.4081348 29.9408427,46.5850715 28.8239143,45.7596455 C27.7099175,44.9312503 26.5431524,45.0915848 27.4460762,48.3517208 C28.3519315,51.6118568 28.2405318,56.4604926 27.4959129,59.0109997 C26.7483624,61.5585376 26.0535801,63.120315 27.7040544,65.4659502 C28.2463949,66.2379314 15.2448794,82.1941889 13.2514114,84.4507493 C11.2579434,86.7073098 21.7295135,93.6284181 23.180641,91.6479894 C24.6347,89.6675608 35.5577319,71.3033157 37.1466432,71.2825316 C38.7326229,71.2617475 39.899388,70.6976074 43.1446366,67.9065984 C44.7687267,66.5081248 47.6915026,63.6250719 50.098322,61.1844237 C50.098322,61.1844237 54.6539827,56.6089505 56.2223729,54.6789975 C57.7878316,52.7460753 58.6497134,51.8761119 57.4067275,50.7122018" id="Fill-214" fill="#E29983"></path>
            <path d="M13.9483438,133 L304.045804,133 C311.720758,133 318,126.696812 318,118.988998 L318,22.0110019 C318,14.3031877 311.720758,8 304.045804,8 L13.9483438,8 C6.27631579,8 0,14.3031877 0,22.0110019 L0,118.988998 C0,126.696812 6.27631579,133 13.9483438,133" id="Fill-216" fill="#F4F6F9"></path>
            <polyline id="Fill-217" fill="#76B5D7" points="172 112 202 111.742499 202 58 172 58 172 112"></polyline>
            <polyline id="Fill-218" fill="#4E95C5" points="173 57.1825317 163 51 163 106.161105 173 112 173 57.1825317"></polyline>
            <polyline id="Fill-219" fill="#99CCE4" points="191.177363 51 202 57 172.239207 57 162 51 191.177363 51"></polyline>
            <polyline id="Fill-220" fill="#76B5D7" points="267 112 297 111.742499 297 58 267 58 267 112"></polyline>
            <polyline id="Fill-221" fill="#4E95C5" points="267 57.1825317 257 51 257 106.161105 267 112 267 57.1825317"></polyline>
            <polyline id="Fill-222" fill="#99CCE4" points="286.178152 51 297 57 267.241377 57 257 51 286.178152 51"></polyline>
            <polygon id="Fill-223" fill="#76B5D7" points="220 112 250 112 250 40 220 40"></polygon>
            <polyline id="Fill-224" fill="#4E95C5" points="221 39.2467601 211 33 211 103.93708 221 112 221 39.2467601"></polyline>
            <polyline id="Fill-225" fill="#99CCE4" points="239.178941 34 250 40 220.243547 40 210 34 239.178941 34"></polyline>
            <polygon id="Fill-226" fill="#8FC3DF" points="220 85 250 85 250 40 220 40"></polygon>
            <polyline id="Fill-227" fill="#6EABD1" points="221 85 211 76.5379721 211 35 221 41.0876858 221 85"></polyline>
            <path d="M11.5702678,47 L138.43561,47 C140.945584,47 143,45.0359038 143,42.6334686 L143,42.3693412 C143,39.966906 140.945584,38 138.43561,38 L11.5702678,38 C9.05735526,38 7,39.966906 7,42.3693412 L7,42.6334686 C7,45.0359038 9.05735526,47 11.5702678,47" id="Fill-228" fill="#E4ECF2"></path>
            <path d="M11.5702678,66 L138.43561,66 C140.945584,66 143,64.0359038 143,61.6334686 L143,61.3665314 C143,58.9640962 140.945584,57 138.43561,57 L11.5702678,57 C9.05735526,57 7,58.9640962 7,61.3665314 L7,61.6334686 C7,64.0359038 9.05735526,66 11.5702678,66" id="Fill-229" fill="#E4ECF2"></path>
            <path d="M11.5702678,88 L138.43561,88 C140.945584,88 143,86.0352904 143,83.6321049 L143,83.3678951 C143,80.9647096 140.945584,79 138.43561,79 L11.5702678,79 C9.05735526,79 7,80.9647096 7,83.3678951 L7,83.6321049 C7,86.0352904 9.05735526,88 11.5702678,88" id="Fill-230" fill="#E4ECF2"></path>
            <path d="M11.5702678,108 L138.43561,108 C140.945584,108 143,106.035904 143,103.633469 L143,103.369341 C143,100.966906 140.945584,99 138.43561,99 L11.5702678,99 C9.05735526,99 7,100.966906 7,103.369341 L7,103.633469 C7,106.035904 9.05735526,108 11.5702678,108" id="Fill-231" fill="#E4ECF2"></path>
        </g>
    </g>
</svg>