<?xml version="1.0" encoding="UTF-8"?>
<svg width="99px" height="99px" viewBox="0 0 99 99" version="1.1" xmlns="http://www.w3.org/2000/svg" xmlns:xlink="http://www.w3.org/1999/xlink">
    <!-- Generator: Sketch 52.3 (67297) - http://www.bohemiancoding.com/sketch -->
    <title>Group 19</title>
    <desc>Created with Sketch.</desc>
    <defs>
        <filter x="-18.8%" y="-18.8%" width="137.6%" height="137.6%" filterUnits="objectBoundingBox" id="filter-1">
            <feOffset dx="0" dy="2" in="SourceAlpha" result="shadowOffsetOuter1"></feOffset>
            <feGaussianBlur stdDeviation="2" in="shadowOffsetOuter1" result="shadowBlurOuter1"></feGaussianBlur>
            <feColorMatrix values="0 0 0 0 0   0 0 0 0 0   0 0 0 0 0  0 0 0 0.5 0" type="matrix" in="shadowBlurOuter1" result="shadowMatrixOuter1"></feColorMatrix>
            <feMerge>
                <feMergeNode in="shadowMatrixOuter1"></feMergeNode>
                <feMergeNode in="SourceGraphic"></feMergeNode>
            </feMerge>
        </filter>
        <circle id="path-2" cx="42.5" cy="42.5" r="42.5"></circle>
        <filter x="-7.1%" y="-7.1%" width="114.1%" height="114.1%" filterUnits="objectBoundingBox" id="filter-4">
            <feOffset dx="0" dy="0" in="SourceAlpha" result="shadowOffsetOuter1"></feOffset>
            <feGaussianBlur stdDeviation="2" in="shadowOffsetOuter1" result="shadowBlurOuter1"></feGaussianBlur>
            <feColorMatrix values="0 0 0 0 0   0 0 0 0 0   0 0 0 0 0  0 0 0 0.5 0" type="matrix" in="shadowBlurOuter1"></feColorMatrix>
        </filter>
        <filter x="-14.8%" y="-14.8%" width="129.6%" height="129.6%" filterUnits="objectBoundingBox" id="filter-5">
            <feOffset dx="0" dy="0" in="SourceAlpha" result="shadowOffsetOuter1"></feOffset>
            <feGaussianBlur stdDeviation="2" in="shadowOffsetOuter1" result="shadowBlurOuter1"></feGaussianBlur>
            <feColorMatrix values="0 0 0 0 0   0 0 0 0 0   0 0 0 0 0  0 0 0 0.5 0" type="matrix" in="shadowBlurOuter1" result="shadowMatrixOuter1"></feColorMatrix>
            <feMerge>
                <feMergeNode in="shadowMatrixOuter1"></feMergeNode>
                <feMergeNode in="SourceGraphic"></feMergeNode>
            </feMerge>
        </filter>
    </defs>
    <g id="Page-1" stroke="none" stroke-width="1" fill="none" fill-rule="evenodd">
        <g id="Artboard" transform="translate(-195.000000, -99.000000)">
            <g id="Group-19" transform="translate(202.000000, 104.000000)">
                <g id="Group-18">
                    <g id="Group-17">
                        <g id="Group-16">
                            <g id="Group-15">
                                <g id="Group-14">
                                    <g id="Group-13">
                                        <g id="Group-12">
                                            <g id="Group-11">
                                                <g id="Group-10">
                                                    <g id="Group-5">
                                                        <g id="Group">
                                                            <g id="Group-2" filter="url(#filter-1)">
                                                                <mask id="mask-3" fill="white">
                                                                    <use xlink:href="#path-2"></use>
                                                                </mask>
                                                                <g id="Mask">
                                                                    <use fill="black" fill-opacity="1" filter="url(#filter-4)" xlink:href="#path-2"></use>
                                                                    <use fill="#FFFFFF" fill-rule="evenodd" xlink:href="#path-2"></use>
                                                                </g>
                                                            </g>
                                                        </g>
                                                    </g>
                                                </g>
                                            </g>
                                        </g>
                                    </g>
                                </g>
                            </g>
                        </g>
                    </g>
                </g>
                <g id="web-maintenance" filter="url(#filter-5)" transform="translate(16.000000, 15.000000)">
                    <rect id="Rectangle" fill="#45C1FF" x="5.86501172" y="10.9374258" width="47.3424961" height="5.07241406"></rect>
                    <rect id="Rectangle" fill="#14A5FF" x="5.86501172" y="10.9374258" width="47.3424961" height="2.53620703"></rect>
                    <rect id="Rectangle" fill="#DAF3FF" x="5.86501172" y="16.0097344" width="47.3424961" height="37.197668"></rect>
                    <rect id="Rectangle" fill="#99C4FF" x="5.86501172" y="16.0097344" width="47.3424961" height="2.53620703"></rect>
                    <rect id="Rectangle" fill="#00C70D" x="0.792597656" y="0.792597656" width="47.3424961" height="5.07241406"></rect>
                    <rect id="Rectangle" fill="#00A90B" x="0.792597656" y="0.792597656" width="47.3424961" height="2.53620703"></rect>
                    <polygon id="Path" fill="#CCF4CF" points="5.86501172 10.9374258 5.86501172 43.0625742 0.792597656 43.0625742 0.792597656 5.86501172 48.1349883 5.86501172 48.1349883 10.9374258"></polygon>
                    <polygon id="Path" fill="#99DD9D" points="6.07637109 43.0625742 3.96277734 43.0625742 3.96277734 9.24655078 48.1349883 9.24655078 48.1349883 11.3600391 6.07637109 11.3600391"></polygon>
                    <polygon id="Path" fill="#FFD045" points="19.0301484 48.1282383 15.9342187 44.9927578 15.9406523 43.9543125 25.3471992 34.6666289 26.3860664 34.6730625 29.4818906 37.808543 29.4751406 38.8473047 20.0685937 48.1349883"></polygon>
                    <polygon id="Path" fill="#BF9C34" points="29.9594531 32.1769336 34.7407734 27.4558359 36.8047969 29.5462266 32.254875 34.0385625"></polygon>
                    <polygon id="Path" fill="#FFD045" points="39.4044961 29.043457 36.8047969 29.5462266 34.7407734 27.4558359 35.2765547 24.8626758 38.9347383 21.2508984 43.0625742 25.4315742"></polygon>
                    <polygon id="Rectangle" fill="#FFFFFF" transform="translate(25.842660, 38.305416) rotate(-134.635373) translate(-25.842660, -38.305416) " points="25.0500543 37.5710289 26.6352665 37.5710289 26.6352665 39.0398024 25.0500543 39.0398024"></polygon>
                    <polygon id="Rectangle" fill="#BE5E1E" transform="translate(29.300512, 34.373083) rotate(135.000000) translate(-29.300512, -34.373083) " points="27.1870441 27.1873024 31.4139801 27.1873024 31.4139801 41.5588638 27.1870441 41.5588638"></polygon>
                    <g id="Group" transform="translate(16.242188, 21.304688)" fill="#FD7D28">
                        <path d="M1.55988281,8.85568359 C0.119074219,7.39652344 -0.269683594,5.29347656 0.386332031,3.48616406 L2.61815625,5.74657031 L4.70190234,4.72120312 L5.75363672,2.65074609 L3.5218125,0.390234375 C5.33735156,-0.242789063 7.43523047,0.172757812 8.87603906,1.63191797 C10.870875,3.65217187 10.8502031,6.90714844 8.82984375,8.90198437 C6.80948438,10.8966094 3.55461328,10.876043 1.55988281,8.85568359 Z" id="Path"></path>
                        <path d="M24.9587578,17.9203008 C22.9639219,15.9000469 19.7090508,15.8792695 17.6886914,17.874 C15.6684375,19.8688359 15.6476602,23.123707 17.6424961,25.1440664 C19.637332,27.1644258 22.8922031,27.1850977 24.9125625,25.1903672 C26.9328164,23.1955313 26.9534883,19.9406602 24.9587578,17.9203008 Z M23.0577891,23.3119687 L20.6379141,23.9439375 L18.8806992,22.1642578 L19.5433594,19.7526094 L21.9632344,19.1206406 L23.7204492,20.9003203 L23.0577891,23.3119687 Z" id="Shape" fill-rule="nonzero"></path>
                    </g>
                    <path d="M48.9275859,10.1448281 L48.9275859,0 L7.55578125,0 L7.55578125,1.58508984 L47.3424961,1.58508984 L47.3424961,5.07241406 L1.58508984,5.07241406 L1.58508984,1.58508984 L5.86490625,1.58508984 L5.86490625,0 L0,0 L0,43.8551719 L5.07241406,43.8551719 L5.07241406,54 L54,54 L54,45.5986758 L52.4149102,45.5986758 L52.4149102,52.4148047 L6.65750391,52.4148047 L6.65750391,16.802332 L52.4148047,16.802332 L52.4148047,43.9078008 L54,43.9078008 L54,10.1448281 L48.9275859,10.1448281 Z M1.58508984,42.270082 L1.58508984,6.65750391 L47.3423906,6.65750391 L47.3423906,10.1448281 L5.07241406,10.1448281 L5.07241406,15.2172422 L5.07241406,16.802332 L5.07241406,42.270082 L1.58508984,42.270082 Z M6.65750391,15.2172422 L6.65750391,11.729918 L52.4148047,11.729918 L52.4148047,15.2172422 L6.65750391,15.2172422 Z" id="Shape" fill="#000000" fill-rule="nonzero"></path>
                    <rect id="Rectangle" fill="#000000" x="4.17413672" y="2.53620703" width="1.69076953" height="1.58508984"></rect>
                    <rect id="Rectangle" fill="#FFFFFF" x="7.55578125" y="2.53620703" width="1.69076953" height="1.58508984"></rect>
                    <rect id="Rectangle" fill="#000000" x="10.9374258" y="2.53620703" width="1.69076953" height="1.58508984"></rect>
                    <rect id="Rectangle" fill="#FFFFFF" x="43.0625742" y="2.53620703" width="1.69076953" height="1.58508984"></rect>
                    <polygon id="Path" fill="#000000" points="50.6183555 23.6183555 49.0332656 23.6183555 49.0332656 20.1839766 45.5987812 20.1839766 45.5987812 18.5987812 50.6183555 18.5987812"></polygon>
                    <polygon id="Path" fill="#000000" points="13.4736328 50.6183555 8.45405859 50.6183555 8.45405859 45.5987812 10.0391484 45.5987812 10.0391484 49.0332656 13.4736328 49.0332656"></polygon>
                    <rect id="Rectangle" fill="#000000" x="49.0332656" y="31.2269766" width="1.58508984" height="1.69076953"></rect>
                    <rect id="Rectangle" fill="#FFFFFF" x="49.0332656" y="25.3092305" width="1.58508984" height="4.22697656"></rect>
                    <rect id="Rectangle" fill="#000000" x="8.45405859" y="36.2993906" width="1.58508984" height="1.69076953"></rect>
                    <rect id="Rectangle" fill="#FFFFFF" x="8.45405859" y="39.6810352" width="1.58508984" height="4.22697656"></rect>
                    <rect id="Rectangle" fill="#000000" x="9.24655078" y="12.6810352" width="1.69076953" height="1.58508984"></rect>
                    <rect id="Rectangle" fill="#FFFFFF" x="12.6281953" y="12.6810352" width="1.69076953" height="1.58508984"></rect>
                    <rect id="Rectangle" fill="#000000" x="16.0097344" y="12.6810352" width="1.69076953" height="1.58508984"></rect>
                    <rect id="Rectangle" fill="#FFFFFF" x="48.1349883" y="12.6810352" width="1.69076953" height="1.58508984"></rect>
                    <path d="M36.6376289,46.1309766 L34.2374766,43.7001328 L35.1427148,40.4060273 L38.448,39.5427656 L40.8481523,41.9737148 L39.9430195,45.2679258 L36.6376289,46.1309766 Z M36.0084023,43.2376523 L37.1225742,44.366168 L38.6570391,43.9654922 L39.0772266,42.4364062 L37.9630547,41.3077852 L36.4286953,41.7084609 L36.0084023,43.2376523 Z" id="Shape" fill="#000000" fill-rule="nonzero"></path>
                    <path d="M37.5805195,36.9037266 C37.5675469,36.9036211 37.5546797,36.9036211 37.541707,36.9036211 C37.0404141,36.9036211 36.5486133,36.9660586 36.0746367,37.0861875 L33.2221289,34.1971875 L37.190707,30.278707 L39.7905117,29.7759375 L44.1832852,25.4385352 L38.9416992,20.1299766 L34.5489258,24.4673789 L34.0131445,27.0604336 L30.0444609,30.9790195 L27.1878398,28.0858008 C27.7124414,26.1181758 27.2131523,23.9304375 25.6820625,22.379625 C24.0813633,20.7583594 21.655793,20.1955781 19.5029648,20.9463047 L18.3188672,21.3592148 L21.0304688,24.1055156 L20.3570508,25.4312578 L19.0228711,26.0876953 L16.3112695,23.3415 L15.8833828,24.5202187 C15.1054453,26.6633437 15.6370078,29.0957695 17.2378125,30.7171406 C18.3513516,31.844918 19.8374063,32.4715078 21.4221797,32.4816328 C21.4351523,32.4817383 21.4480195,32.4817383 21.4609922,32.4817383 C21.9622852,32.4817383 22.4540859,32.4193008 22.927957,32.2991719 L24.748875,34.1433984 L15.1499531,43.6211367 L15.1394063,45.3160195 L18.6965508,48.9187266 L20.3915391,48.9296953 L29.9904609,39.4520625 L31.8112734,41.2961836 C31.6819688,41.7806016 31.6124648,42.2845312 31.6093008,42.7993242 C31.5991758,44.3840977 32.2068867,45.8780625 33.3204258,47.0058398 C34.4793164,48.1796016 36.0107227,48.7676953 37.5428672,48.7676953 C39.0494883,48.7676953 40.5569531,48.1987969 41.7112031,47.059207 C44.0392148,44.7605156 44.0632617,40.9964414 41.7645703,38.6684297 C40.6514531,37.5404414 39.165293,36.9138516 37.5805195,36.9037266 Z M36.0042891,25.2581836 L38.9276719,22.3718203 L41.9418633,25.4246133 L39.0184805,28.3109766 L37.0707891,28.6875 L35.6029805,27.2008125 L36.0042891,25.2581836 Z M34.733707,28.5766523 L35.6839805,29.5390547 L32.1085898,33.0691992 L31.1583164,32.1067969 L34.733707,28.5766523 Z M21.4608867,30.8966484 C21.4515,30.8966484 21.4419023,30.8966484 21.4323047,30.896543 C20.2708828,30.8892656 19.1818125,30.4299492 18.3658008,29.6034961 C17.5209961,28.7478281 17.0825625,27.5840859 17.116207,26.4129609 L18.6976055,28.0146094 L21.530918,26.6205234 L22.9609688,23.8050352 L21.3795703,22.2033867 C22.5522773,22.1813438 23.709375,22.6380234 24.5540742,23.4934805 C26.2385156,25.1996484 26.2210078,27.9580781 24.5149453,29.642625 C23.6954531,30.4519922 22.6118672,30.8966484 21.4608867,30.8966484 Z M28.6847578,38.5140234 L19.745332,47.3402813 L19.3635352,47.3378555 L18.6031055,46.5676172 L24.8327227,40.4166797 L23.7189727,39.2886914 L17.4893555,45.4396289 L16.7288203,44.6693906 L16.7311406,44.2875937 L25.6705664,35.4612305 L26.0525742,35.4635508 L28.6872891,38.1319102 L28.6847578,38.5140234 Z M30.2765977,37.4854922 L26.7192422,33.8824688 L26.7190313,33.8824688 L24.5067188,31.6418906 C24.909293,31.4000508 25.2860273,31.108957 25.6288008,30.7706133 C25.9746328,30.4291055 26.2684688,30.0546914 26.5125234,29.657918 L34.4959805,37.7436797 C34.0934063,37.9855195 33.7166719,38.2766133 33.3738984,38.614957 C33.031125,38.9533008 32.7354961,39.3264492 32.4885937,39.7260703 L30.2765977,37.4854922 Z M40.597875,45.9312187 C38.891707,47.6157656 36.1332773,47.5982578 34.4487305,45.8920898 C33.6327187,45.0656367 33.1873242,43.9707656 33.194707,42.8093437 C33.2020898,41.6479219 33.6614062,40.5588516 34.4878594,39.7428398 C35.3338242,38.9076328 36.4383984,38.4908203 37.5426563,38.4908203 C38.6654766,38.4908203 39.787875,38.9217656 40.6371094,39.7819688 C42.3214453,41.4880312 42.303832,44.2464609 40.597875,45.9312187 Z" id="Shape" fill="#000000" fill-rule="nonzero"></path>
                </g>
            </g>
        </g>
    </g>
</svg>