<?xml version="1.0" encoding="UTF-8"?>
<svg width="638px" height="70px" viewBox="0 0 638 70" version="1.1" xmlns="http://www.w3.org/2000/svg" xmlns:xlink="http://www.w3.org/1999/xlink">
    <!-- Generator: Sketch 52.3 (67297) - http://www.bohemiancoding.com/sketch -->
    <title>Group 52</title>
    <desc>Created with Sketch.</desc>
    <defs>
        <circle id="path-1" cx="31.3910506" cy="31.3910506" r="31.3910506"></circle>
    </defs>
    <g id="Page-1" stroke="none" stroke-width="1" fill="none" fill-rule="evenodd">
        <g id="Group-52">
            <g id="Group-43">
                <g id="Group-41">
                    <g id="Group-40">
                        <g id="Group-30">
                            <g id="Group-4">
                                <g id="Group-5">
                                    <g id="Group-3">
                                        <g id="Group-2" transform="translate(187.120623, 0.000000)">
                                            <rect id="Rectangle" fill="#FFF60F" x="0" y="0" width="450.36965" height="70" rx="35"></rect>
                                            <g id="profile" transform="translate(4.221790, 3.677043)">
                                                <mask id="mask-2" fill="white">
                                                    <use xlink:href="#path-1"></use>
                                                </mask>
                                                <use id="Mask" fill="#FFFFFF" xlink:href="#path-1"></use>
                                            </g>
                                        </g>
                                        <path d="M187.120623,36.9457792 L19.5026484,36.9457792" id="Line-2" stroke="#FFF60F" stroke-width="5" stroke-linecap="square"></path>
                                        <ellipse id="Oval" fill="#FFF60F" cx="9.73735409" cy="36.9747082" rx="9.73735409" ry="10.0097276"></ellipse>
                                    </g>
                                </g>
                            </g>
                        </g>
                    </g>
                </g>
            </g>
            <g id="website" transform="translate(201.000000, 15.000000)">
                <path d="M6.44084746,39.1163559 L3.55262712,39.1163559 C2.05771186,39.1163559 0.845847458,37.9044915 0.845847458,36.4095763 L0.845847458,0.883559322 L39.0786441,0.883559322 L39.0786441,36.4095763 C39.0786441,37.9044915 37.8667797,39.1163559 36.3718644,39.1163559 L32.7841525,39.1163559 L6.44084746,39.1163559 Z" id="Path" fill="#FFFFFF"></path>
                <path d="M36.3719492,0.883559322 L3.55262712,0.883559322 C2.05771186,0.883559322 0.845847458,2.09542373 0.845847458,3.59033898 L0.845847458,6.97381356 L39.0786441,6.97381356 L39.0786441,3.59033898 C39.0786441,2.09542373 37.8667797,0.883559322 36.3719492,0.883559322 Z" id="Path" fill="#A5DC69"></path>
                <g id="Group" transform="translate(5.338983, 12.881356)" fill="#78D2FA">
                    <rect id="Rectangle" x="0.0744915254" y="0.0130508475" width="17.4610169" height="11.8420339"></rect>
                    <polygon id="Path" points="37.2049153 22.9847458 29.9479661 15.7277119 33.2348305 12.4407627 37.1226271 16.3284746"></polygon>
                </g>
                <path d="M1.7009322,6.98135593 L38.6557627,6.98135593" id="Path" fill="#231F20"></path>
                <circle id="Oval" fill="#FF5A5A" cx="28.8505085" cy="18.885678" r="9.06"></circle>
                <path d="M17.3251695,4.77449153 L34.8822881,4.77449153 C35.3494068,4.77449153 35.7281356,4.39567797 35.7281356,3.92864407 C35.7281356,3.46161017 35.349322,3.08279661 34.8822881,3.08279661 L17.3251695,3.08279661 C16.8580508,3.08279661 16.479322,3.46161017 16.479322,3.92864407 C16.479322,4.39567797 16.8581356,4.77449153 17.3251695,4.77449153 Z" id="Path" fill="#000000"></path>
                <path d="M8.15059322,4.77449153 C8.37313559,4.77449153 8.59127119,4.68398305 8.74864407,4.52661017 C8.9059322,4.36940678 8.99644068,4.15110169 8.99644068,3.92864407 C8.99644068,3.70618644 8.90601695,3.4879661 8.74864407,3.33059322 C8.59127119,3.17330508 8.37313559,3.08279661 8.15059322,3.08279661 C7.92813559,3.08279661 7.70991525,3.17322034 7.55262712,3.33059322 C7.39533898,3.48788136 7.30474576,3.70533898 7.30474576,3.92864407 C7.30474576,4.15110169 7.39525424,4.36932203 7.55262712,4.52661017 C7.70991525,4.68398305 7.92813559,4.77449153 8.15059322,4.77449153 Z" id="Path" fill="#000000"></path>
                <path d="M5.04211864,4.77449153 C5.26466102,4.77449153 5.48279661,4.68398305 5.64016949,4.52661017 C5.79745763,4.36940678 5.8879661,4.15110169 5.8879661,3.92864407 C5.8879661,3.70618644 5.79754237,3.4879661 5.64016949,3.33059322 C5.48279661,3.17330508 5.26466102,3.08279661 5.04211864,3.08279661 C4.81966102,3.08279661 4.60144068,3.17322034 4.44415254,3.33059322 C4.28686441,3.48788136 4.19627119,3.70618644 4.19627119,3.92864407 C4.19627119,4.15110169 4.28677966,4.36932203 4.44415254,4.52661017 C4.60135593,4.68398305 4.81957627,4.77449153 5.04211864,4.77449153 Z" id="Path" fill="#000000"></path>
                <path d="M11.2583898,4.77449153 C11.4817797,4.77449153 11.6990678,4.68398305 11.8572881,4.52661017 C12.0145763,4.36940678 12.1042373,4.15110169 12.1042373,3.92864407 C12.1042373,3.70618644 12.0145763,3.4879661 11.8572881,3.33059322 C11.6991525,3.17330508 11.4817797,3.08279661 11.2583898,3.08279661 C11.0359322,3.08279661 10.8185593,3.17322034 10.6604237,3.33059322 C10.5031356,3.48788136 10.4125424,3.70618644 10.4125424,3.92864407 C10.4125424,4.15110169 10.5030508,4.36932203 10.6604237,4.52661017 C10.8184746,4.68398305 11.0359322,4.77449153 11.2583898,4.77449153 Z" id="Path" fill="#000000"></path>
                <path d="M43.1421186,35.2678814 L36.4832203,28.6090678 L37.5278814,27.5644068 C37.5281356,27.5641525 37.5284746,27.5638983 37.5287288,27.5636441 C37.5289831,27.5633898 37.5292373,27.5630508 37.5294915,27.5627966 L38.5738983,26.5183898 L41.8634746,29.8080508 C42.1938983,30.1383051 42.729322,30.1383051 43.0597458,29.8080508 C43.3900847,29.4777119 43.3900847,28.9421186 43.0597458,28.6117797 L39.1721186,24.7241525 C38.8418644,24.3939831 38.3064407,24.3938136 37.9758475,24.7241525 L36.9305932,25.769322 L36.4242373,25.2629661 C37.8786441,23.5385593 38.7565254,21.3129661 38.7565254,18.8858475 C38.7565254,13.4238983 34.3128814,8.98025424 28.8509322,8.98025424 C26.0370339,8.98025424 23.4933898,10.1597458 21.6884746,12.0501695 C21.6805085,12.0499153 21.6727966,12.0489831 21.6648305,12.0489831 L5.41347458,12.0489831 C4.94635593,12.0489831 4.56762712,12.4277966 4.56762712,12.8948305 L4.56762712,24.7368644 C4.56762712,25.2039831 4.94644068,25.5827119 5.41347458,25.5827119 L21.5588136,25.5827119 C23.370678,27.5539831 25.9688136,28.7915254 28.8508475,28.7915254 C31.2779661,28.7915254 33.5034746,27.9135593 35.2279661,26.4592373 L35.734322,26.9655932 L34.6888136,28.0111017 C34.5302542,28.169661 34.4411017,28.3849153 34.4411017,28.6092373 C34.4411017,28.8335593 34.5302542,29.0486441 34.6888136,29.2073729 L38.2327966,32.7513559 L38.2327966,36.4097458 C38.2327966,37.4358475 37.3980508,38.2705932 36.3719492,38.2705932 L3.55262712,38.2705932 C2.52652542,38.2705932 1.69177966,37.4358475 1.69177966,36.4097458 L1.69177966,7.81915254 C1.69491525,7.81915254 1.6979661,7.81966102 1.70101695,7.81966102 L38.2328814,7.81966102 L38.2328814,11.6322034 C38.2328814,12.099322 38.6116949,12.4780508 39.0787288,12.4780508 C39.5458475,12.4780508 39.9245763,12.0992373 39.9245763,11.6322034 L39.9245763,3.59033898 C39.9245763,1.63144068 38.3309322,0.0377118644 36.3719492,0.0377118644 L3.55262712,0.0377118644 C1.59364407,0.0377118644 0,1.63144068 0,3.59033898 L0,36.409661 C0,38.3685593 1.59364407,39.9622881 3.55262712,39.9622881 L36.3719492,39.9622881 C38.3308475,39.9622881 39.9245763,38.3686441 39.9245763,36.409661 L39.9245763,34.4428814 L41.9458475,36.4641525 C42.1110169,36.6292373 42.3274576,36.7118644 42.5439831,36.7118644 C42.7604237,36.7118644 42.9768644,36.6292373 43.1421186,36.4641525 C43.4723729,36.1338136 43.4723729,35.5982203 43.1421186,35.2678814 Z M6.25932203,23.8909322 L6.25932203,13.7405932 L20.3892373,13.7405932 C19.4733898,15.2411864 18.9451695,17.0028814 18.9451695,18.8857627 C18.9451695,18.9718644 18.9462712,19.0577119 18.9484746,19.1432203 L17.8825424,17.0841525 C17.6677966,16.6692373 17.1572034,16.5071186 16.7423729,16.7218644 C16.3275424,16.9366102 16.165339,17.4470339 16.3800847,17.8620339 L18.3663559,21.6988983 C18.5167797,21.9894915 18.8122034,22.1560169 19.1182203,22.1560169 C19.2373729,22.1560169 19.3579661,22.1294068 19.4723729,22.0763559 C19.6894068,22.7127119 19.97,23.3198305 20.3057627,23.8908475 L6.25932203,23.8909322 Z M20.6370339,18.8858475 C20.6370339,18.8213559 20.6379661,18.7571186 20.6394915,18.6929661 L22.1955085,21.6988983 C22.3410169,21.98 22.6308475,22.1559322 22.9466102,22.1559322 C22.9508475,22.1559322 22.9551695,22.1559322 22.959322,22.1558475 C23.28,22.1510169 23.570339,21.965339 23.7091525,21.6762712 L25.5519492,17.8394068 C25.7542373,17.4182203 25.5766949,16.9130508 25.1555932,16.710678 C24.7348305,16.5086441 24.2292373,16.6859322 24.0268644,17.1070339 L22.9183051,19.4154237 L21.7116102,17.0844068 C21.56,16.7916102 21.2611017,16.6254237 20.9526271,16.6279661 C21.9360169,13.1932203 25.1044915,10.6719492 28.8509322,10.6719492 C33.3800847,10.6719492 37.0648305,14.3567797 37.0648305,18.8858475 C37.0648305,23.4149153 33.38,27.0997458 28.8509322,27.0997458 C24.3218644,27.0997458 20.6370339,23.415 20.6370339,18.8858475 Z M3.55262712,1.72940678 L36.3719492,1.72940678 C37.3980508,1.72940678 38.2327966,2.56415254 38.2327966,3.59025424 L38.2327966,6.12779661 L1.7009322,6.12779661 C1.69779661,6.12779661 1.69474576,6.12822034 1.69169492,6.12830508 L1.69169492,3.59033898 C1.69169492,2.56423729 2.52652542,1.72940678 3.55262712,1.72940678 Z" id="Shape" fill="#000000" fill-rule="nonzero"></path>
                <path d="M15.4640678,16.7105932 C15.0433051,16.5085593 14.5377119,16.6858475 14.335339,17.1069492 L13.2267797,19.4152542 L12.0200847,17.0842373 C11.8727119,16.799322 11.5781356,16.6215254 11.2562712,16.6272881 C10.9355932,16.6321186 10.6452542,16.8177966 10.5064407,17.1068644 L9.39788136,19.4151695 L8.19118644,17.0841525 C7.97644068,16.6691525 7.46567797,16.5070339 7.05110169,16.7217797 C6.63618644,16.9365254 6.47398305,17.4469492 6.68872881,17.8618644 L8.67491525,21.6987288 C8.82237288,21.9836441 9.11915254,22.1605932 9.43872881,22.155678 C9.75940678,22.1508475 10.0497458,21.9651695 10.1885593,21.6761017 L11.2971186,19.3677119 L12.5038136,21.6987288 C12.649322,21.9798305 12.9391525,22.1557627 13.2549153,22.1557627 C13.2591525,22.1557627 13.2634746,22.1557627 13.2676271,22.155678 C13.5883051,22.1508475 13.8786441,21.9651695 14.0174576,21.6761017 L15.8602542,17.8392373 C16.0626271,17.4182203 15.8852542,16.9129661 15.4640678,16.7105932 Z" id="Path" fill="#000000"></path>
                <path d="M34.8472034,16.7105932 C34.4260169,16.5085593 33.9208475,16.6858475 33.7184746,17.1069492 L32.6099153,19.4152542 L31.4032203,17.0841525 C31.2558475,16.7994068 30.9576271,16.6233898 30.6394068,16.6272881 C30.3187288,16.6321186 30.0283898,16.8177966 29.8895763,17.1068644 L28.7810169,19.4152542 L27.574322,17.0841525 C27.3595763,16.6694068 26.849322,16.5071186 26.4341525,16.7218644 C26.019322,16.9366102 25.8571186,17.4470339 26.0718644,17.8620339 L28.0581356,21.6988983 C28.2036441,21.9798305 28.4934746,22.1558475 28.8092373,22.1558475 C28.8135593,22.1558475 28.8177966,22.1558475 28.8219492,22.1557627 C29.1426271,22.1509322 29.4329661,21.9652542 29.5717797,21.6761864 L30.680339,19.3677966 L31.8870339,21.6988983 C32.0325424,21.9798305 32.3223729,22.1558475 32.6381356,22.1558475 C32.6424576,22.1558475 32.6466949,22.1558475 32.6508475,22.1557627 C32.9715254,22.1509322 33.2618644,21.9652542 33.400678,21.6761864 L35.2433898,17.839322 C35.445678,17.4182203 35.2682203,16.9129661 34.8472034,16.7105932 Z" id="Path" fill="#000000"></path>
                <path d="M4.81550847,32.2589831 C4.65822034,32.4162712 4.56771186,32.6345763 4.56771186,32.8570339 C4.56771186,33.0794915 4.65813559,33.2977119 4.81550847,33.455 C4.97279661,33.6122881 5.19110169,33.7028814 5.41355932,33.7028814 C5.63601695,33.7028814 5.85423729,33.6123729 6.01152542,33.455 C6.16881356,33.2977966 6.25940678,33.0794915 6.25940678,32.8570339 C6.25940678,32.6345763 6.16889831,32.4163559 6.01152542,32.2589831 C5.85432203,32.1008475 5.63601695,32.0111864 5.41355932,32.0111864 C5.19101695,32.0111864 4.97279661,32.1008475 4.81550847,32.2589831 Z" id="Path" fill="#000000"></path>
                <path d="M7.47169492,32.8578814 C7.47169492,33.325 7.85050847,33.7037288 8.31754237,33.7037288 L24.7894068,33.7037288 C25.2565254,33.7037288 25.6352542,33.3249153 25.6352542,32.8578814 C25.6352542,32.3907627 25.2564407,32.0120339 24.7894068,32.0120339 L8.31754237,32.0120339 C7.85050847,32.0120339 7.47169492,32.390678 7.47169492,32.8578814 Z" id="Path" fill="#000000"></path>
                <path d="M21.6539831,29.6432203 C22.1211017,29.6432203 22.4998305,29.2644068 22.4998305,28.7973729 C22.4998305,28.3302542 22.1210169,27.9515254 21.6539831,27.9515254 L16.6633898,27.9515254 C16.1962712,27.9515254 15.8175424,28.330339 15.8175424,28.7973729 C15.8175424,29.2644915 16.1963559,29.6432203 16.6633898,29.6432203 L21.6539831,29.6432203 Z" id="Path" fill="#000000"></path>
                <path d="M12.8647458,27.9514407 L5.41347458,27.9514407 C4.94635593,27.9514407 4.56762712,28.3302542 4.56762712,28.7972881 C4.56762712,29.2644068 4.94644068,29.6431356 5.41347458,29.6431356 L12.8647458,29.6431356 C13.3318644,29.6431356 13.7105932,29.264322 13.7105932,28.7972881 C13.7105932,28.3302542 13.3318644,27.9514407 12.8647458,27.9514407 Z" id="Path" fill="#000000"></path>
            </g>
        </g>
    </g>
</svg>