<?xml version="1.0" encoding="UTF-8"?>
<svg width="488px" height="96px" viewBox="0 0 488 96" version="1.1" xmlns="http://www.w3.org/2000/svg" xmlns:xlink="http://www.w3.org/1999/xlink">
    <!-- Generator: Sketch 52.3 (67297) - http://www.bohemiancoding.com/sketch -->
    <title>Group 32</title>
    <desc>Created with Sketch.</desc>
    <defs>
        <circle id="path-1" cx="46.5" cy="47.5" r="42.5"></circle>
    </defs>
    <g id="Page-1" stroke="none" stroke-width="1" fill="none" fill-rule="evenodd">
        <g id="Artboard" transform="translate(-1616.000000, -954.000000)">
            <g id="Group-32" transform="translate(1616.000000, 954.000000)">
                <g id="Group-30">
                    <g id="Group-29">
                        <g id="Group-27">
                            <g id="Group-28">
                                <path d="M467.862013,48.2422864 L298.02831,48.2422864" id="Line-2" stroke="#FFF60F" stroke-width="5" stroke-linecap="square" transform="translate(383.000000, 48.188172) scale(-1, 1) translate(-383.000000, -48.188172) "></path>
                                <rect id="Rectangle" fill="#FFF60F" x="1.42108547e-13" y="1.42108547e-14" width="378" height="96" rx="48"></rect>
                                <mask id="mask-2" fill="white">
                                    <use xlink:href="#path-1"></use>
                                </mask>
                                <use id="Mask" fill="#FFFFFF" xlink:href="#path-1"></use>
                            </g>
                            <circle id="Oval" fill="#FFF60F" transform="translate(478.500000, 48.500000) scale(-1, 1) translate(-478.500000, -48.500000) " cx="478.5" cy="48.5" r="9.5"></circle>
                        </g>
                    </g>
                </g>
                <g id="coding" transform="translate(17.000000, 20.000000)">
                    <path d="M42.6073851,56.9048468 L16.2313246,56.9048468 C15.1104012,56.9048468 14.2024234,55.996869 14.2024234,54.8759456 C14.2024234,53.7550222 15.1104012,52.8470444 16.2313246,52.8470444 L42.6072702,52.8470444 C43.7281935,52.8470444 44.6361714,53.7550222 44.6361714,54.8759456 C44.6362863,55.9969839 43.7283085,56.9048468 42.6073851,56.9048468 Z" id="Path" fill="#E7ECED"></path>
                    <path d="M34.4916653,44.7313246 L34.4916653,42.7024234 L24.3470444,42.7024234 L24.3470444,44.7313246 C24.3470444,49.2173165 22.7462177,52.8470444 18.2602258,52.8470444 L40.578369,52.8470444 C36.0924919,52.8470444 34.4916653,49.2173165 34.4916653,44.7313246 Z" id="Path" fill="#AFB6BB"></path>
                    <path d="M55.7942661,44.7313246 L3.04444355,44.7313246 C1.36340323,44.7313246 0,43.3679214 0,41.686996 L0,35.6012117 L58.8387097,35.6012117 L58.8387097,41.686996 C58.8387097,43.3679214 57.4753065,44.7313246 55.7942661,44.7313246 Z" id="Path" fill="#E7ECED"></path>
                    <path d="M32.4627641,41.6880302 L26.3759456,41.6880302 C25.8159435,41.6880302 25.3614375,41.2335242 25.3614375,40.6735222 C25.3614375,40.1135202 25.8159435,39.6590141 26.3759456,39.6590141 L32.4627641,39.6590141 C33.0227661,39.6590141 33.4772722,40.1135202 33.4772722,40.6735222 C33.4772722,41.2335242 33.0227661,41.6880302 32.4627641,41.6880302 Z" id="Path" fill="#AFB6BB"></path>
                    <path d="M50.7229899,0.0951532258 L8.11571976,0.0951532258 L3.04444355,0.0951532258 C1.36340323,0.0951532258 0,1.45855645 0,3.13948185 L0,36.6157198 L8.11571976,36.6157198 L23.3326512,36.6157198 L35.5061734,36.6157198 L50.7231048,36.6157198 L58.8387097,36.6157198 L58.8387097,3.13948185 C58.8387097,1.45855645 57.4753065,0.0950383065 55.7942661,0.0950383065 L50.7229899,0.0950383065 L50.7229899,0.0951532258 Z" id="Path" fill="#495D72"></path>
                    <rect id="Rectangle" fill="#28384C" x="27.3904536" y="4.15295565" width="27.3904536" height="32.4627641"></rect>
                    <rect id="Rectangle" fill="#EBBA16" x="4.05780242" y="4.15295565" width="25.3615524" height="32.4627641"></rect>
                    <g id="Group" transform="translate(7.010081, 7.125000)" fill="#FFFFFF">
                        <path d="M8.20581653,26.4473105 C8.05366331,26.4473105 7.89840726,26.4128347 7.75234476,26.3407802 C7.25118145,26.090256 7.04834879,25.480494 7.29887298,24.9793306 L10.3422823,18.892627 C10.5928065,18.3914637 11.2036028,18.188631 11.7037319,18.4391552 C12.2048952,18.6896794 12.4077278,19.2994415 12.1572036,19.8006048 L9.11379435,25.8873085 C8.93624395,26.2424093 8.57815524,26.4473105 8.20581653,26.4473105 Z" id="Path"></path>
                        <path d="M1.10563911,23.4039012 C0.845921371,23.4039012 0.586203629,23.304496 0.388427419,23.1067198 C-0.00827419355,22.7100181 -0.00827419355,22.0688831 0.388427419,21.6722964 L3.43183669,18.6288871 C3.82750403,18.2321855 4.47059274,18.2321855 4.86626008,18.6288871 C5.26296169,19.0255887 5.26296169,19.6667238 4.86626008,20.0633105 L1.82285081,23.1067198 C1.62495968,23.304496 1.36535685,23.4039012 1.10563911,23.4039012 Z" id="Path"></path>
                        <path d="M4.14893347,26.4473105 C3.88921573,26.4473105 3.62949798,26.3479052 3.43172177,26.150129 L0.388427419,23.1067198 C-0.00827419355,22.7100181 -0.00827419355,22.0688831 0.388427419,21.6722964 C0.784094758,21.2755948 1.42718347,21.2755948 1.82285081,21.6722964 L4.86626008,24.7157056 C5.26296169,25.1124073 5.26296169,25.7535423 4.86626008,26.150129 C4.66836895,26.3479052 4.40865121,26.4473105 4.14893347,26.4473105 Z" id="Path"></path>
                        <path d="M18.3514718,23.4039012 C18.091754,23.4039012 17.8320363,23.304496 17.6342601,23.1067198 L14.5908508,20.0633105 C14.1941492,19.6666089 14.1941492,19.0254738 14.5908508,18.6288871 C14.9865181,18.2321855 15.6296069,18.2321855 16.0252742,18.6288871 L19.0686835,21.6722964 C19.4653851,22.068998 19.4653851,22.7101331 19.0686835,23.1067198 C18.8707923,23.304496 18.6111895,23.4039012 18.3514718,23.4039012 Z" id="Path"></path>
                        <path d="M15.3080625,26.4473105 C15.0483448,26.4473105 14.788627,26.3479052 14.5908508,26.150129 C14.1941492,25.7534274 14.1941492,25.1122923 14.5908508,24.7157056 L17.6342601,21.6722964 C18.0299274,21.2755948 18.6730161,21.2755948 19.0686835,21.6722964 C19.4653851,22.068998 19.4653851,22.7101331 19.0686835,23.1067198 L16.0252742,26.150129 C15.827498,26.3479052 15.5677802,26.4473105 15.3080625,26.4473105 Z" id="Path"></path>
                        <path d="M10.235752,9.20147782 C9.67575,9.20147782 9.22124395,8.74697177 9.22124395,8.18696976 L9.22124395,1.08575806 C9.22124395,0.525756048 9.67575,0.07125 10.235752,0.07125 C10.795754,0.07125 11.2502601,0.525756048 11.2502601,1.08575806 L11.2502601,8.18696976 C11.2502601,8.74697177 10.795754,9.20147782 10.235752,9.20147782 Z" id="Path"></path>
                        <path d="M10.235752,15.2881815 C9.67575,15.2881815 9.22124395,14.8336754 9.22124395,14.2736734 L9.22124395,12.2447722 C9.22124395,11.6847702 9.67575,11.2302641 10.235752,11.2302641 C10.795754,11.2302641 11.2502601,11.6847702 11.2502601,12.2447722 L11.2502601,14.2736734 C11.2502601,14.8337903 10.795754,15.2881815 10.235752,15.2881815 Z" id="Path"></path>
                    </g>
                    <path d="M43.6217782,9.22526613 L33.4771573,9.22526613 C32.9171552,9.22526613 32.4626492,8.77076008 32.4626492,8.21075806 C32.4626492,7.65075605 32.9171552,7.19625 33.4771573,7.19625 L43.6217782,7.19625 C44.1817802,7.19625 44.6362863,7.65075605 44.6362863,8.21075806 C44.6362863,8.77076008 44.1817802,9.22526613 43.6217782,9.22526613 Z" id="Path" fill="#DD352E"></path>
                    <path d="M50.7229899,9.22526613 L47.6795806,9.22526613 C47.1195786,9.22526613 46.6650726,8.77076008 46.6650726,8.21075806 C46.6650726,7.65075605 47.1195786,7.19625 47.6795806,7.19625 L50.7229899,7.19625 C51.2829919,7.19625 51.737498,7.65075605 51.737498,8.21075806 C51.737498,8.77076008 51.2829919,9.22526613 50.7229899,9.22526613 Z" id="Path" fill="#366DB6"></path>
                    <path d="M50.7229899,13.2830685 L40.578369,13.2830685 C40.0183669,13.2830685 39.5638609,12.8285625 39.5638609,12.2685605 C39.5638609,11.7085585 40.0183669,11.2540524 40.578369,11.2540524 L50.7229899,11.2540524 C51.2829919,11.2540524 51.737498,11.7085585 51.737498,12.2685605 C51.737498,12.8285625 51.2829919,13.2830685 50.7229899,13.2830685 Z" id="Path" fill="#75348B"></path>
                    <path d="M36.5205665,13.2830685 L33.4771573,13.2830685 C32.9171552,13.2830685 32.4626492,12.8285625 32.4626492,12.2685605 C32.4626492,11.7085585 32.9171552,11.2540524 33.4771573,11.2540524 L36.5205665,11.2540524 C37.0805685,11.2540524 37.5350746,11.7085585 37.5350746,12.2685605 C37.5350746,12.8285625 37.0805685,13.2830685 36.5205665,13.2830685 Z" id="Path" fill="#57ABC1"></path>
                    <path d="M43.6217782,17.3409859 L33.4771573,17.3409859 C32.9171552,17.3409859 32.4626492,16.8864798 32.4626492,16.3264778 C32.4626492,15.7664758 32.9171552,15.3119698 33.4771573,15.3119698 L43.6217782,15.3119698 C44.1817802,15.3119698 44.6362863,15.7664758 44.6362863,16.3264778 C44.6362863,16.8864798 44.1817802,17.3409859 43.6217782,17.3409859 Z" id="Path" fill="#25AE88"></path>
                    <path d="M50.7229899,17.3409859 L47.6795806,17.3409859 C47.1195786,17.3409859 46.6650726,16.8864798 46.6650726,16.3264778 C46.6650726,15.7664758 47.1195786,15.3119698 47.6795806,15.3119698 L50.7229899,15.3119698 C51.2829919,15.3119698 51.737498,15.7664758 51.737498,16.3264778 C51.737498,16.8864798 51.2829919,17.3409859 50.7229899,17.3409859 Z" id="Path" fill="#F76363"></path>
                    <path d="M50.7229899,21.3987883 L40.578369,21.3987883 C40.0183669,21.3987883 39.5638609,20.9442823 39.5638609,20.3842802 C39.5638609,19.8242782 40.0183669,19.3697722 40.578369,19.3697722 L50.7229899,19.3697722 C51.2829919,19.3697722 51.737498,19.8242782 51.737498,20.3842802 C51.737498,20.9442823 51.2829919,21.3987883 50.7229899,21.3987883 Z" id="Path" fill="#BF5A45"></path>
                    <path d="M36.5205665,21.3987883 L33.4771573,21.3987883 C32.9171552,21.3987883 32.4626492,20.9442823 32.4626492,20.3842802 C32.4626492,19.8242782 32.9171552,19.3697722 33.4771573,19.3697722 L36.5205665,19.3697722 C37.0805685,19.3697722 37.5350746,19.8242782 37.5350746,20.3842802 C37.5350746,20.9442823 37.0805685,21.3987883 36.5205665,21.3987883 Z" id="Path" fill="#F2ECBF"></path>
                    <path d="M50.7229899,33.5723105 L40.578369,33.5723105 C40.0183669,33.5723105 39.5638609,33.1178044 39.5638609,32.5578024 C39.5638609,31.9978004 40.0183669,31.5432944 40.578369,31.5432944 L50.7229899,31.5432944 C51.2829919,31.5432944 51.737498,31.9978004 51.737498,32.5578024 C51.737498,33.1178044 51.2829919,33.5723105 50.7229899,33.5723105 Z" id="Path" fill="#25AE88"></path>
                    <path d="M36.5205665,33.5723105 L33.4771573,33.5723105 C32.9171552,33.5723105 32.4626492,33.1178044 32.4626492,32.5578024 C32.4626492,31.9978004 32.9171552,31.5432944 33.4771573,31.5432944 L36.5205665,31.5432944 C37.0805685,31.5432944 37.5350746,31.9978004 37.5350746,32.5578024 C37.5350746,33.1178044 37.0805685,33.5723105 36.5205665,33.5723105 Z" id="Path" fill="#DD352E"></path>
                    <path d="M43.6217782,25.4565907 L33.4771573,25.4565907 C32.9171552,25.4565907 32.4626492,25.0020847 32.4626492,24.4420827 C32.4626492,23.8820806 32.9171552,23.4275746 33.4771573,23.4275746 L43.6217782,23.4275746 C44.1817802,23.4275746 44.6362863,23.8820806 44.6362863,24.4420827 C44.6362863,25.0020847 44.1817802,25.4565907 43.6217782,25.4565907 Z" id="Path" fill="#75348B"></path>
                    <path d="M50.7229899,25.4565907 L47.6795806,25.4565907 C47.1195786,25.4565907 46.6650726,25.0020847 46.6650726,24.4420827 C46.6650726,23.8820806 47.1195786,23.4275746 47.6795806,23.4275746 L50.7229899,23.4275746 C51.2829919,23.4275746 51.737498,23.8820806 51.737498,24.4420827 C51.737498,25.0020847 51.2829919,25.4565907 50.7229899,25.4565907 Z" id="Path" fill="#EBBA16"></path>
                    <path d="M50.7229899,29.5145081 L40.578369,29.5145081 C40.0183669,29.5145081 39.5638609,29.060002 39.5638609,28.5 C39.5638609,27.939998 40.0183669,27.4854919 40.578369,27.4854919 L50.7229899,27.4854919 C51.2829919,27.4854919 51.737498,27.939998 51.737498,28.5 C51.737498,29.060002 51.2829919,29.5145081 50.7229899,29.5145081 Z" id="Path" fill="#ED8A19"></path>
                    <path d="M36.5205665,29.5145081 L33.4771573,29.5145081 C32.9171552,29.5145081 32.4626492,29.060002 32.4626492,28.5 C32.4626492,27.939998 32.9171552,27.4854919 33.4771573,27.4854919 L36.5205665,27.4854919 C37.0805685,27.4854919 37.5350746,27.939998 37.5350746,28.5 C37.5350746,29.060002 37.0805685,29.5145081 36.5205665,29.5145081 Z" id="Path" fill="#C5411E"></path>
                </g>
            </g>
        </g>
    </g>
</svg>