<?xml version="1.0" encoding="UTF-8"?>
<svg width="638px" height="70px" viewBox="0 0 638 70" version="1.1" xmlns="http://www.w3.org/2000/svg" xmlns:xlink="http://www.w3.org/1999/xlink">
    <!-- Generator: Sketch 52.3 (67297) - http://www.bohemiancoding.com/sketch -->
    <title>Group 52</title>
    <desc>Created with Sketch.</desc>
    <defs>
        <circle id="path-1" cx="31.3910506" cy="31.3910506" r="31.3910506"></circle>
    </defs>
    <g id="Page-1" stroke="none" stroke-width="1" fill="none" fill-rule="evenodd">
        <g id="Group-52">
            <g id="Group-43">
                <g id="Group-41">
                    <g id="Group-40">
                        <g id="Group-30">
                            <g id="Group-4">
                                <g id="Group-5">
                                    <g id="Group-3">
                                        <g id="Group-2" transform="translate(187.120623, 0.000000)">
                                            <rect id="Rectangle" fill="#FFF60F" x="0" y="0" width="450.36965" height="70" rx="35"></rect>
                                            <g id="profile" transform="translate(4.221790, 3.677043)">
                                                <mask id="mask-2" fill="white">
                                                    <use xlink:href="#path-1"></use>
                                                </mask>
                                                <use id="Mask" fill="#FFFFFF" xlink:href="#path-1"></use>
                                            </g>
                                        </g>
                                        <path d="M187.120623,36.9457792 L19.5026484,36.9457792" id="Line-2" stroke="#FFF60F" stroke-width="5" stroke-linecap="square"></path>
                                        <ellipse id="Oval" fill="#FFF60F" cx="9.73735409" cy="36.9747082" rx="9.73735409" ry="10.0097276"></ellipse>
                                    </g>
                                </g>
                            </g>
                        </g>
                    </g>
                </g>
            </g>
            <g id="web-design" transform="translate(203.000000, 15.000000)">
                <polygon id="Path" fill="#757C80" points="25.3333333 39.3333333 14.6666667 39.3333333 16 31.3333333 16 28.6666667 24 28.6666667 24 31.3333333"></polygon>
                <rect id="Rectangle" fill="#B5B8B9" x="0.666666667" y="0.666666667" width="38.6666667" height="30.6666667" rx="15.3333333"></rect>
                <path d="M2,0.666666667 L38,0.666666667 C38.7363797,0.666666667 39.3333333,1.26362033 39.3333333,2 L39.3333333,6 L0.666666667,6 L0.666666667,2 C0.666666667,1.26362033 1.26362033,0.666666667 2,0.666666667 Z" id="Path" fill="#2B70A8"></path>
                <polygon id="Path" fill="#FAE8D8" points="0.666666667 6 39.3333333 6 39.3333333 24.6666667 0.666666667 24.6666667"></polygon>
                <polygon id="Path" fill="#FCB442" points="6 11.3333333 14 11.3333333 14 19.3333333 6 19.3333333"></polygon>
                <path d="M31.32344,22.8507197 L33.9897039,22.8507197 L33.9897039,38.4774429 C33.9897039,39.2137113 33.3928404,39.8105749 32.656572,39.8105749 C31.9203035,39.8105749 31.32344,39.2137113 31.32344,38.4774429 L31.32344,22.8507197 Z" id="Path" fill="#2B70A8" transform="translate(32.656572, 31.330647) rotate(-45.000000) translate(-32.656572, -31.330647) "></path>
                <polygon id="Path" fill="#FCB442" transform="translate(26.443917, 25.116588) rotate(-45.000000) translate(-26.443917, -25.116588) " points="25.1107851 21.1813077 27.777049 21.1813077 27.777049 29.051869 25.1107851 29.051869"></polygon>
                <polygon id="Path" fill="#FCB442" points="19.3333333 8.66666667 36.6666667 8.66666667 36.6666667 12.6666667 19.3333333 12.6666667"></polygon>
                <path d="M19.3333333,18 L20.3803333,22.5369167 C20.6056959,23.5134936 21.3596013,24.2812416 22.3319167,24.5243333 L24.51875,25.0710833 L26.4044167,23.1854167 L25.8576667,20.9985833 C25.6145749,20.026268 24.8468269,19.2723625 23.87025,19.047 L19.3333333,18 Z" id="Path" fill="#976048"></path>
                <path d="M40,30 L40,2 C39.9987142,0.895963532 39.1040365,0.00128579372 38,0 L2,0 C0.895963532,0.00128579372 0.00128579372,0.895963532 0,2 L0,30 C0.00128579372,31.1040365 0.895963532,31.9987142 2,32 L15.213,32 L14.1019167,38.6666667 L11.3333333,38.6666667 C10.9651435,38.6666667 10.6666667,38.9651435 10.6666667,39.3333333 C10.6666667,39.7015232 10.9651435,40 11.3333333,40 L28.6666667,40 C29.0348565,40 29.3333333,39.7015232 29.3333333,39.3333333 C29.3333333,38.9651435 29.0348565,38.6666667 28.6666667,38.6666667 L25.8980833,38.6666667 L24.787,32 L30.50475,32 L36.3038333,37.7990833 C37.0848807,38.5801249 38.3512026,38.5801249 39.13225,37.7990833 C39.9120055,37.0175037 39.9120055,35.7522463 39.13225,34.9706667 L36.1615833,32 L38,32 C39.1040365,31.9987142 39.9987142,31.1040365 40,30 Z M25.46175,25.0713333 L26.4045,24.1285 L29.2328333,26.9568333 L28.29,27.9 L25.46175,25.0713333 Z M24.3146667,24.3328333 L22.4936667,23.8775833 C21.7633589,23.6971578 21.1970882,23.1205385 21.0299167,22.3870833 L20.22275,18.8894167 L23.7204167,19.6965833 C24.4538719,19.8637549 25.0304911,20.4300255 25.2109167,21.1603333 L25.6661667,22.9813333 L24.3146667,24.3328333 Z M27.0063333,22.8449167 L26.5043333,20.8365833 C26.203511,19.6194241 25.2424351,18.6756923 24.02,18.3970833 L19.4833333,17.3504167 C19.2593599,17.2987307 19.0245585,17.366071 18.8620231,17.5286064 C18.6994877,17.6911418 18.6321474,17.9259433 18.6838333,18.1499167 L19.7308333,22.6868333 C19.8410945,23.165538 20.0557986,23.6139552 20.3595833,24 L1.33333333,24 L1.33333333,6.66666667 L38.6666667,6.66666667 L38.6666667,24 L28.1615833,24 L27.0063333,22.8449167 Z M2,1.33333333 L38,1.33333333 C38.3680185,1.33374666 38.6662533,1.63198151 38.6666667,2 L38.6666667,5.33333333 L1.33333333,5.33333333 L1.33333333,2 C1.33374666,1.63198151 1.63198151,1.33374666 2,1.33333333 Z M24.5463333,38.6666667 L15.4536667,38.6666667 L16.56475,32 L23.43525,32 L24.5463333,38.6666667 Z M2,30.6666667 C1.63198151,30.6662533 1.33374666,30.3680185 1.33333333,30 L1.33333333,25.3333333 L22.819,25.3333333 L24.1778333,25.673 L29.1714167,30.6666667 L2,30.6666667 Z M38.1894167,36.85625 C38.0643914,36.9812817 37.8948169,37.0515243 37.718,37.0515243 C37.5411831,37.0515243 37.3716086,36.9812817 37.2465833,36.85625 L29.2328333,28.8425 L30.1756667,27.9 L38.1894167,35.91375 C38.4491015,36.1742539 38.4491015,36.5957461 38.1894167,36.85625 Z M29.4949167,25.3333333 L38.6666667,25.3333333 L38.6666667,30 C38.6662533,30.3680185 38.3680185,30.6662533 38,30.6666667 L34.82825,30.6666667 L29.4949167,25.3333333 Z" id="Shape" fill="#000000" fill-rule="nonzero"></path>
                <path d="M21.3333333,26.6666667 L18.6666667,26.6666667 C18.2984768,26.6666667 18,26.9651435 18,27.3333333 C18,27.7015232 18.2984768,28 18.6666667,28 L21.3333333,28 C21.7015232,28 22,27.7015232 22,27.3333333 C22,26.9651435 21.7015232,26.6666667 21.3333333,26.6666667 Z" id="Path" fill="#000000"></path>
                <circle id="Oval" fill="#000000" cx="3.33333333" cy="3.33333333" r="1"></circle>
                <circle id="Oval" fill="#000000" cx="6" cy="3.33333333" r="1"></circle>
                <circle id="Oval" fill="#000000" cx="8.66666667" cy="3.33333333" r="1"></circle>
                <path d="M7.33333333,9.33333333 L8.66666667,9.33333333 C9.0348565,9.33333333 9.33333333,9.0348565 9.33333333,8.66666667 C9.33333333,8.29847683 9.0348565,8 8.66666667,8 L7.33333333,8 C6.9651435,8 6.66666667,8.29847683 6.66666667,8.66666667 C6.66666667,9.0348565 6.9651435,9.33333333 7.33333333,9.33333333 Z" id="Path" fill="#000000"></path>
                <path d="M11.3333333,9.33333333 L12.6666667,9.33333333 C13.0348565,9.33333333 13.3333333,9.0348565 13.3333333,8.66666667 C13.3333333,8.29847683 13.0348565,8 12.6666667,8 L11.3333333,8 C10.9651435,8 10.6666667,8.29847683 10.6666667,8.66666667 C10.6666667,9.0348565 10.9651435,9.33333333 11.3333333,9.33333333 Z" id="Path" fill="#000000"></path>
                <path d="M4.66666667,21.3333333 L4,21.3333333 L4,20.6666667 C4,20.2984768 3.70152317,20 3.33333333,20 C2.9651435,20 2.66666667,20.2984768 2.66666667,20.6666667 L2.66666667,22 C2.66666667,22.3681898 2.9651435,22.6666667 3.33333333,22.6666667 L4.66666667,22.6666667 C5.0348565,22.6666667 5.33333333,22.3681898 5.33333333,22 C5.33333333,21.6318102 5.0348565,21.3333333 4.66666667,21.3333333 Z" id="Path" fill="#000000"></path>
                <path d="M8.66666667,21.3333333 L7.33333333,21.3333333 C6.9651435,21.3333333 6.66666667,21.6318102 6.66666667,22 C6.66666667,22.3681898 6.9651435,22.6666667 7.33333333,22.6666667 L8.66666667,22.6666667 C9.0348565,22.6666667 9.33333333,22.3681898 9.33333333,22 C9.33333333,21.6318102 9.0348565,21.3333333 8.66666667,21.3333333 Z" id="Path" fill="#000000"></path>
                <path d="M12.6666667,21.3333333 L11.3333333,21.3333333 C10.9651435,21.3333333 10.6666667,21.6318102 10.6666667,22 C10.6666667,22.3681898 10.9651435,22.6666667 11.3333333,22.6666667 L12.6666667,22.6666667 C13.0348565,22.6666667 13.3333333,22.3681898 13.3333333,22 C13.3333333,21.6318102 13.0348565,21.3333333 12.6666667,21.3333333 Z" id="Path" fill="#000000"></path>
                <path d="M16.6666667,8 L15.3333333,8 C14.9651435,8 14.6666667,8.29847683 14.6666667,8.66666667 C14.6666667,9.0348565 14.9651435,9.33333333 15.3333333,9.33333333 L16,9.33333333 L16,10 C16,10.3681898 16.2984768,10.6666667 16.6666667,10.6666667 C17.0348565,10.6666667 17.3333333,10.3681898 17.3333333,10 L17.3333333,8.66666667 C17.3333333,8.29847683 17.0348565,8 16.6666667,8 Z" id="Path" fill="#000000"></path>
                <path d="M16.6666667,12 C16.2984768,12 16,12.2984768 16,12.6666667 L16,14 C16,14.3681898 16.2984768,14.6666667 16.6666667,14.6666667 C17.0348565,14.6666667 17.3333333,14.3681898 17.3333333,14 L17.3333333,12.6666667 C17.3333333,12.2984768 17.0348565,12 16.6666667,12 Z" id="Path" fill="#000000"></path>
                <path d="M16.6666667,16 C16.2984768,16 16,16.2984768 16,16.6666667 L16,18 C16,18.3681898 16.2984768,18.6666667 16.6666667,18.6666667 C17.0348565,18.6666667 17.3333333,18.3681898 17.3333333,18 L17.3333333,16.6666667 C17.3333333,16.2984768 17.0348565,16 16.6666667,16 Z" id="Path" fill="#000000"></path>
                <path d="M16.6666667,20 C16.2984768,20 16,20.2984768 16,20.6666667 L16,21.3333333 L15.3333333,21.3333333 C14.9651435,21.3333333 14.6666667,21.6318102 14.6666667,22 C14.6666667,22.3681898 14.9651435,22.6666667 15.3333333,22.6666667 L16.6666667,22.6666667 C17.0348565,22.6666667 17.3333333,22.3681898 17.3333333,22 L17.3333333,20.6666667 C17.3333333,20.2984768 17.0348565,20 16.6666667,20 Z" id="Path" fill="#000000"></path>
                <path d="M3.33333333,10.6666667 C3.70152317,10.6666667 4,10.3681898 4,10 L4,9.33333333 L4.66666667,9.33333333 C5.0348565,9.33333333 5.33333333,9.0348565 5.33333333,8.66666667 C5.33333333,8.29847683 5.0348565,8 4.66666667,8 L3.33333333,8 C2.9651435,8 2.66666667,8.29847683 2.66666667,8.66666667 L2.66666667,10 C2.66666667,10.3681898 2.9651435,10.6666667 3.33333333,10.6666667 Z" id="Path" fill="#000000"></path>
                <path d="M3.33333333,14.6666667 C3.70152317,14.6666667 4,14.3681898 4,14 L4,12.6666667 C4,12.2984768 3.70152317,12 3.33333333,12 C2.9651435,12 2.66666667,12.2984768 2.66666667,12.6666667 L2.66666667,14 C2.66666667,14.3681898 2.9651435,14.6666667 3.33333333,14.6666667 Z" id="Path" fill="#000000"></path>
                <path d="M3.33333333,18.6666667 C3.70152317,18.6666667 4,18.3681898 4,18 L4,16.6666667 C4,16.2984768 3.70152317,16 3.33333333,16 C2.9651435,16 2.66666667,16.2984768 2.66666667,16.6666667 L2.66666667,18 C2.66666667,18.3681898 2.9651435,18.6666667 3.33333333,18.6666667 Z" id="Path" fill="#000000"></path>
                <path d="M23.3333333,14.6666667 L19.3333333,14.6666667 C18.9651435,14.6666667 18.6666667,14.9651435 18.6666667,15.3333333 C18.6666667,15.7015232 18.9651435,16 19.3333333,16 L23.3333333,16 C23.7015232,16 24,15.7015232 24,15.3333333 C24,14.9651435 23.7015232,14.6666667 23.3333333,14.6666667 Z" id="Path" fill="#000000"></path>
                <path d="M36.6666667,14.6666667 L26,14.6666667 C25.6318102,14.6666667 25.3333333,14.9651435 25.3333333,15.3333333 C25.3333333,15.7015232 25.6318102,16 26,16 L36.6666667,16 C37.0348565,16 37.3333333,15.7015232 37.3333333,15.3333333 C37.3333333,14.9651435 37.0348565,14.6666667 36.6666667,14.6666667 Z" id="Path" fill="#000000"></path>
                <path d="M36.6666667,17.3333333 L27.3333333,17.3333333 C26.9651435,17.3333333 26.6666667,17.6318102 26.6666667,18 C26.6666667,18.3681898 26.9651435,18.6666667 27.3333333,18.6666667 L36.6666667,18.6666667 C37.0348565,18.6666667 37.3333333,18.3681898 37.3333333,18 C37.3333333,17.6318102 37.0348565,17.3333333 36.6666667,17.3333333 Z" id="Path" fill="#000000"></path>
                <path d="M36.6666667,8 L19.3333333,8 C18.9651435,8 18.6666667,8.29847683 18.6666667,8.66666667 L18.6666667,12.6666667 C18.6666667,13.0348565 18.9651435,13.3333333 19.3333333,13.3333333 L36.6666667,13.3333333 C37.0348565,13.3333333 37.3333333,13.0348565 37.3333333,12.6666667 L37.3333333,8.66666667 C37.3333333,8.29847683 37.0348565,8 36.6666667,8 Z M36,12 L20,12 L20,9.33333333 L36,9.33333333 L36,12 Z" id="Shape" fill="#000000" fill-rule="nonzero"></path>
                <path d="M14.6666667,11.3333333 C14.6666667,10.9651435 14.3681898,10.6666667 14,10.6666667 L6,10.6666667 C5.63181017,10.6666667 5.33333333,10.9651435 5.33333333,11.3333333 L5.33333333,19.3333333 C5.33333333,19.7015232 5.63181017,20 6,20 L14,20 C14.3681898,20 14.6666667,19.7015232 14.6666667,19.3333333 L14.6666667,11.3333333 Z M13.3333333,18.6666667 L6.66666667,18.6666667 L6.66666667,12 L13.3333333,12 L13.3333333,18.6666667 Z" id="Shape" fill="#000000" fill-rule="nonzero"></path>
            </g>
        </g>
    </g>
</svg>