<?xml version="1.0" encoding="UTF-8"?>
<svg width="638px" height="70px" viewBox="0 0 638 70" version="1.1" xmlns="http://www.w3.org/2000/svg" xmlns:xlink="http://www.w3.org/1999/xlink">
    <!-- Generator: Sketch 52.3 (67297) - http://www.bohemiancoding.com/sketch -->
    <title>Group 52</title>
    <desc>Created with Sketch.</desc>
    <defs>
        <circle id="path-1" cx="31.3910506" cy="31.3910506" r="31.3910506"></circle>
    </defs>
    <g id="Page-1" stroke="none" stroke-width="1" fill="none" fill-rule="evenodd">
        <g id="Group-52">
            <g id="Group-43">
                <g id="Group-41">
                    <g id="Group-40">
                        <g id="Group-30">
                            <g id="Group-4">
                                <g id="Group-5">
                                    <g id="Group-3">
                                        <g id="Group-2" transform="translate(187.120623, 0.000000)">
                                            <rect id="Rectangle" fill="#FFF60F" x="0" y="0" width="450.36965" height="70" rx="35"></rect>
                                            <g id="profile" transform="translate(4.221790, 3.677043)">
                                                <mask id="mask-2" fill="white">
                                                    <use xlink:href="#path-1"></use>
                                                </mask>
                                                <use id="Mask" fill="#FFFFFF" xlink:href="#path-1"></use>
                                            </g>
                                        </g>
                                        <path d="M187.120623,36.9457792 L19.5026484,36.9457792" id="Line-2" stroke="#FFF60F" stroke-width="5" stroke-linecap="square"></path>
                                        <ellipse id="Oval" fill="#FFF60F" cx="9.73735409" cy="36.9747082" rx="9.73735409" ry="10.0097276"></ellipse>
                                    </g>
                                </g>
                            </g>
                        </g>
                    </g>
                </g>
            </g>
            <g id="data" transform="translate(202.000000, 16.000000)">
                <path d="M37.3791504,32.9321289 L2.57659914,32.9321289 C1.47674563,32.9321289 0.585327188,32.0407105 0.585327188,30.9411621 L0.585327188,2.61566164 C0.585327188,1.51580813 1.47674563,0.624389688 2.57659914,0.624389688 L37.3791504,0.624389688 C38.4786987,0.624389688 39.3701172,1.51580813 39.3701172,2.61566164 L39.3701172,30.9411621 C39.3701172,32.0407105 38.4786987,32.9321289 37.3791504,32.9321289 Z" id="Path" fill="#FFD86E"></path>
                <path d="M39.3704223,2.61566164 L39.3704223,30.9411621 C39.3704223,32.0407105 38.4790039,32.9321289 37.3794555,32.9321289 L34.9472046,32.9321289 C36.0470581,32.9321289 36.9381714,32.0407105 36.9381714,30.9411621 L36.9381714,2.61566164 C36.9381714,1.51611328 36.0470581,0.624694844 34.9472046,0.624694844 L37.3794555,0.624694844 C38.4790039,0.624694844 39.3704223,1.51611328 39.3704223,2.61566164 Z" id="Path" fill="#FFB509"></path>
                <path d="M39.3701172,28.1350708 L0.585327188,28.1350708 L0.585327188,30.9411621 C0.585327188,32.0407105 1.47674563,32.9321289 2.57659914,32.9321289 L37.3791504,32.9321289 C38.4786987,32.9321289 39.3701172,32.0407105 39.3701172,30.9411621 L39.3701172,28.1350708 Z" id="Path" fill="#838383"></path>
                <path d="M39.3704223,28.1350708 L39.3704223,30.9411621 C39.3704223,32.0407105 38.4790039,32.9321289 37.3794555,32.9321289 L34.9472046,32.9321289 C36.0470581,32.9321289 36.9381714,32.0407105 36.9381714,30.9411621 L36.9381714,28.1350708 L39.3704223,28.1350708 Z" id="Path" fill="#5A5A5A"></path>
                <path d="M39.4146728,7.41668703 L0.628662109,7.41668703 L0.628662109,2.61535641 C0.628662109,1.51580812 1.52008055,0.624389688 2.61962891,0.624389688 L37.4237061,0.624389688 C38.5232544,0.624389688 39.4146728,1.51580813 39.4146728,2.61535641 L39.4146728,7.41668703 Z" id="Path" fill="#ACACAC"></path>
                <path d="M39.414978,2.61505125 L39.414978,7.41699219 L36.9381714,7.41699219 L36.9381714,2.61505125 C36.9381714,1.51611328 36.0470581,0.624694844 34.9472046,0.624694844 L37.4237061,0.624694844 C38.5235595,0.624694844 39.414978,1.51611328 39.414978,2.61505125 Z" id="Path" fill="#9C9C9C"></path>
                <polygon id="Path" fill="#5A5A5A" points="14.5529175 32.9321289 25.4025269 32.9321289 25.4025269 36.2023926 14.5529175 36.2023926"></polygon>
                <path d="M28.9181519,39.4104004 L11.0372925,39.4104004 C10.8218384,39.4104004 10.6469727,39.2355347 10.6469727,39.0200805 L10.6469727,37.7554321 C10.6469727,36.8978882 11.3424683,36.2023926 12.2000122,36.2023926 L27.7557373,36.2023926 C28.6132813,36.2023926 29.3084717,36.8978882 29.3084717,37.7554321 L29.3084717,39.0200805 C29.3084717,39.2358398 29.1339111,39.4104004 28.9181519,39.4104004 Z" id="Path" fill="#838383"></path>
                <path d="M29.3084717,37.755127 L29.3084717,39.0203858 C29.3084717,39.2358398 29.1336059,39.4107055 28.9181519,39.4107055 L27.5405884,39.4107055 L27.5405884,37.755127 C27.5405884,36.8981934 26.8450928,36.2026977 25.9881592,36.2026977 L27.7560425,36.2026977 C28.6132812,36.2026977 29.3084717,36.8978882 29.3084717,37.755127 Z" id="Path" fill="#5A5A5A"></path>
                <polygon id="Path" fill="#64DCFC" points="23.0841064 21.5322876 35.760498 21.5322876 35.760498 23.9349366 23.0841064 23.9349366"></polygon>
                <polygon id="Path" fill="#64DCFC" points="23.0841064 27.9119873 35.760498 27.9119873 35.760498 30.3149414 23.0841064 30.3149414"></polygon>
                <polygon id="Path" fill="#00D1FC" points="34.2617798 21.5322876 35.760498 21.5322876 35.760498 23.9349366 34.2617798 23.9349366"></polygon>
                <polygon id="Path" fill="#00D1FC" points="34.2617798 27.9119873 35.760498 27.9119873 35.760498 30.3149414 34.2617798 30.3149414"></polygon>
                <g id="Group" transform="translate(21.406250, 17.500000)" fill="#0396FD">
                    <path d="M15.4040527,4.03228758 L0.628356953,4.03228758 C0.315856953,4.03228758 0.0622558594,3.77899172 0.0622558594,3.46649172 L0.0622558594,0.621337891 C0.0622558594,0.308837891 0.315856953,0.0552367969 0.628356953,0.0552367969 L15.4040527,0.0552367969 C15.7165527,0.0552367969 15.9701538,0.308837891 15.9701538,0.621337891 L15.9701538,3.46649172 C15.9701538,3.77899172 15.7165527,4.03228758 15.4040527,4.03228758 Z" id="Path"></path>
                    <path d="M15.4040527,10.4119873 L0.628356953,10.4119873 C0.315856953,10.4119873 0.0622558594,10.1586914 0.0622558594,9.84619141 L0.0622558594,7.00103758 C0.0622558594,6.68853758 0.315856953,6.43493656 0.628356953,6.43493656 L15.4040527,6.43493656 C15.7165527,6.43493656 15.9701538,6.68853758 15.9701538,7.00103758 L15.9701538,9.84619141 C15.9701538,10.1586914 15.7165527,10.4119873 15.4040527,10.4119873 Z" id="Path"></path>
                    <path d="M15.4040527,16.791687 L0.628356953,16.791687 C0.315856953,16.791687 0.0622558594,16.5383911 0.0622558594,16.2258911 L0.0622558594,13.3807373 C0.0622558594,13.0679321 0.315856953,12.8146362 0.628356953,12.8146362 L15.4040527,12.8146362 C15.7165527,12.8146362 15.9701538,13.0679321 15.9701538,13.3807373 L15.9701538,16.2258911 C15.9701538,16.5383911 15.7165527,16.791687 15.4040527,16.791687 Z" id="Path"></path>
                </g>
                <path d="M37.3760986,18.1213379 L37.3760986,20.9664917 C37.3760986,21.2786866 37.1234131,21.5322876 36.8103027,21.5322876 L35.4974366,21.5322876 C35.8105469,21.5322876 36.0632324,21.2786866 36.0632324,20.9664917 L36.0632324,18.1213379 C36.0632324,17.809143 35.8105469,17.555542 35.4974366,17.555542 L36.8103027,17.555542 C37.1234131,17.555542 37.3760986,17.809143 37.3760986,18.1213379 Z" id="Path" fill="#0077F0"></path>
                <path d="M37.3760986,24.5007324 L37.3760986,27.3458862 C37.3760986,27.6586914 37.1234131,27.9116821 36.8103027,27.9116821 L35.4974366,27.9116821 C35.8105469,27.9116821 36.0632324,27.6586914 36.0632324,27.3458862 L36.0632324,24.5007324 C36.0632324,24.1885376 35.8105469,23.9349366 35.4974366,23.9349366 L36.8103027,23.9349366 C37.1234131,23.9349366 37.3760986,24.1885376 37.3760986,24.5007324 Z" id="Path" fill="#0077F0"></path>
                <path d="M37.3760986,30.8810425 L37.3760986,33.7258911 C37.3760986,34.0380859 37.1234131,34.2919922 36.8103027,34.2919922 L35.4974366,34.2919922 C35.8105469,34.2919922 36.0632324,34.0380859 36.0632324,33.7258911 L36.0632324,30.8810425 C36.0632324,30.5679321 35.8105469,30.3149414 35.4974366,30.3149414 L36.8103027,30.3149414 C37.1234131,30.3149414 37.3760986,30.5679321 37.3760986,30.8810425 Z" id="Path" fill="#0077F0"></path>
                <path d="M5.44982906,4.00390625 C5.44982906,4.62951656 4.94293211,5.13671875 4.3173218,5.13671875 C3.69171141,5.13671875 3.18481445,4.62951656 3.18481445,4.00390625 C3.18481445,3.37860109 3.69171141,2.87139891 4.3173218,2.87139891 C4.94293211,2.87139891 5.44982906,3.37860109 5.44982906,4.00390625 Z" id="Path" fill="#FF6B81"></path>
                <path d="M9.82391359,4.00390625 C9.82391359,4.62951656 9.31671141,5.13671875 8.69140625,5.13671875 C8.06579594,5.13671875 7.55859375,4.62951656 7.55859375,4.00390625 C7.55859375,3.37860109 8.06579594,2.87139891 8.69140625,2.87139891 C9.31671141,2.87139891 9.82391359,3.37860109 9.82391359,4.00390625 Z" id="Path" fill="#FFD86E"></path>
                <path d="M14.1976929,4.00390625 C14.1976929,4.62951656 13.6907959,5.13671875 13.0651855,5.13671875 C12.4398804,5.13671875 11.9326782,4.62951656 11.9326782,4.00390625 C11.9326782,3.37860109 12.4398804,2.87139891 13.0651855,2.87139891 C13.6907959,2.87139891 14.1976929,3.37860109 14.1976929,4.00390625 Z" id="Path" fill="#80E0DC"></path>
                <path d="M5.44952391,4.00451656 C5.44952391,4.62951656 4.94293211,5.13610844 4.31762695,5.13610844 C4.01489258,5.13610844 3.73931883,5.017395 3.53637695,4.8233032 C4.14916992,4.80987547 4.64233398,4.30877688 4.64233398,3.6923218 C4.64233398,3.36914063 4.50744625,3.07861328 4.29107664,2.87261961 C4.29992672,2.87170406 4.30908203,2.87170406 4.31762695,2.87170406 C4.94293211,2.87170406 5.44952391,3.37829594 5.44952391,4.00451656 Z" id="Path" fill="#FF435F"></path>
                <path d="M9.82360844,4.00451656 C9.82360844,4.62951656 9.31701656,5.13610844 8.69110109,5.13610844 C8.38836672,5.13610844 8.11340328,5.017395 7.90985109,4.8233032 C8.52325438,4.80987547 9.01672359,4.30877688 9.01672359,3.6923218 C9.01672359,3.36914063 8.88153078,3.07861328 8.66546633,2.87261961 C8.67401125,2.87170406 8.68255617,2.87170406 8.69110109,2.87170406 C9.31701656,2.87170406 9.82360844,3.37829594 9.82360844,4.00451656 Z" id="Path" fill="#FFB509"></path>
                <path d="M14.197998,4.00451656 C14.197998,4.62951656 13.6904907,5.13610844 13.0651855,5.13610844 C12.7624512,5.13610844 12.487793,5.017395 12.2839355,4.8233032 C12.8976441,4.80987547 13.3898926,4.30877688 13.3898926,3.6923218 C13.3898926,3.36914063 13.2550048,3.07861328 13.0386352,2.87261961 C13.0474853,2.87170406 13.0566406,2.87170406 13.0651855,2.87170406 C13.6904907,2.87170406 14.197998,3.37829594 14.197998,4.00451656 Z" id="Path" fill="#00A8B0"></path>
                <path d="M4.60632328,14.6130371 C4.72045898,14.7271728 4.87030031,14.7845459 5.02014156,14.7845459 C5.16998289,14.7845459 5.31982422,14.727478 5.43426516,14.6130371 C5.6628418,14.3844605 5.6628418,14.0136719 5.43426516,13.7850952 L4.01275633,12.3635864 L5.43426516,10.9423828 C5.6628418,10.7135009 5.6628418,10.3430176 5.43426516,10.1144409 C5.20568844,9.88586422 4.83489992,9.88586422 4.60632328,10.1144409 L2.77099609,11.949768 C2.66113281,12.0596313 2.59948734,12.2085571 2.59948734,12.3635864 C2.59948734,12.5189209 2.66113281,12.6678467 2.77099609,12.77771 L4.60632328,14.6130371 Z" id="Path" fill="#000000"></path>
                <path d="M10.4156494,12.3635864 L8.99414062,13.7850952 C8.76556398,14.0136719 8.76556398,14.3844605 8.99444578,14.6130371 C9.10858156,14.7271728 9.25842281,14.7845459 9.40826414,14.7845459 C9.55810547,14.7845459 9.7079468,14.7271728 9.8220825,14.6130371 L11.6577148,12.7774048 C11.8862915,12.5488281 11.8862915,12.1780395 11.6577148,11.949768 L9.8220825,10.1141358 C9.59350586,9.88555906 9.2230225,9.88555906 8.99444578,10.1141358 C8.76556398,10.3430176 8.76556398,10.7135009 8.99444578,10.9420777 L10.4156494,12.3635864 Z" id="Path" fill="#000000"></path>
                <path d="M6.34155273,14.7439575 C6.41174313,14.7714234 6.484375,14.7845459 6.55548094,14.7845459 C6.78924562,14.7845459 7.00988766,14.6435547 7.10052492,14.413147 L8.54248047,10.7421875 C8.66088867,10.4412842 8.51257328,10.1016235 8.21166992,9.98321531 C7.9110718,9.86511234 7.57110594,10.0131226 7.45300297,10.3140259 L6.01074219,13.9849853 C5.89263914,14.2858887 6.04064938,14.6258545 6.34155273,14.7439575 Z" id="Path" fill="#000000"></path>
                <path d="M3.51623531,18.2189941 L7.46002195,18.2189941 C7.78320313,18.2189941 8.04534914,17.9568481 8.04534914,17.6333618 C8.04534914,17.3101806 7.78320313,17.0480347 7.46002195,17.0480347 L3.51623531,17.0480347 C3.19274906,17.0480347 2.9309082,17.3101806 2.9309082,17.6333618 C2.9309082,17.9568481 3.19274906,18.2189941 3.51623531,18.2189941 Z" id="Path" fill="#000000"></path>
                <path d="M16.5432739,17.0480347 L9.60968016,17.0480347 C9.28649906,17.0480347 9.02435305,17.3101806 9.02435305,17.6333618 C9.02435305,17.9568481 9.28649906,18.2189941 9.60968016,18.2189941 L16.5432739,18.2189941 C16.8667602,18.2189941 17.1289062,17.9568481 17.1289062,17.6333618 C17.1289062,17.3101806 16.8667602,17.0480347 16.5432739,17.0480347 Z" id="Path" fill="#000000"></path>
                <path d="M3.51623531,20.6881714 L5.19622805,20.6881714 C5.51940922,20.6881714 5.78155516,20.4260254 5.78155516,20.1025391 C5.78155516,19.7793579 5.51940922,19.5172119 5.19622805,19.5172119 L3.51623531,19.5172119 C3.19274906,19.5172119 2.9309082,19.7793579 2.9309082,20.1025391 C2.9309082,20.4260254 3.19274906,20.6881714 3.51623531,20.6881714 Z" id="Path" fill="#000000"></path>
                <path d="M14.4015503,19.5172119 C14.078064,19.5172119 13.8162231,19.7793579 13.8162231,20.1025391 C13.8162231,20.4260254 14.078064,20.6881714 14.4015503,20.6881714 L15.4244995,20.6881714 C15.7479859,20.6881714 16.0101319,20.4260254 16.0101319,20.1025391 C16.0101319,19.7793579 15.7479859,19.5172119 15.4244995,19.5172119 L14.4015503,19.5172119 Z" id="Path" fill="#000000"></path>
                <path d="M12.8607178,20.1025391 C12.8607178,19.7793579 12.5985718,19.5172119 12.2753906,19.5172119 L7.25036625,19.5172119 C6.92687984,19.5172119 6.66503906,19.7793579 6.66503906,20.1025391 C6.66503906,20.4260254 6.92687984,20.6881714 7.25036625,20.6881714 L12.2753906,20.6881714 C12.5985718,20.6881714 12.8607178,20.4260254 12.8607178,20.1025391 Z" id="Path" fill="#000000"></path>
                <path d="M16.6955566,20.1025391 C16.6955566,20.4260254 16.9577027,20.6881714 17.2808838,20.6881714 L19.1970825,20.6881714 C19.5205688,20.6881714 19.7827148,20.4260254 19.7827148,20.1025391 C19.7827148,19.7793579 19.5205688,19.5172119 19.1970825,19.5172119 L17.2808838,19.5172119 C16.9577027,19.5172119 16.6955566,19.7793579 16.6955566,20.1025391 Z" id="Path" fill="#000000"></path>
                <path d="M13.5073852,12.833252 L15.5285645,12.833252 C15.8520508,12.833252 16.1141968,12.5711059 16.1141968,12.2476196 C16.1141968,11.9244384 15.8520508,11.6622925 15.5285645,11.6622925 L13.5073852,11.6622925 C13.1838989,11.6622925 12.921753,11.9244384 12.921753,12.2476196 C12.921753,12.5711059 13.1838989,12.833252 13.5073852,12.833252 Z" id="Path" fill="#000000"></path>
                <path d="M17.7923584,12.833252 L30.1248169,12.833252 C30.4483032,12.833252 30.7101441,12.5711059 30.7101441,12.2476196 C30.7101441,11.9244384 30.4483032,11.6622925 30.1248169,11.6622925 L17.7923584,11.6622925 C17.468872,11.6622925 17.2067261,11.9244384 17.2067261,12.2476196 C17.2067261,12.5711059 17.468872,12.833252 17.7923584,12.833252 Z" id="Path" fill="#000000"></path>
                <path d="M28.251648,14.2379761 L23.2559204,14.2379761 C22.9327392,14.2379761 22.6705933,14.500122 22.6705933,14.8236084 C22.6705933,15.1467895 22.9327392,15.4089355 23.2559204,15.4089355 L28.251648,15.4089355 C28.5748291,15.4089355 28.8369751,15.1467895 28.8369751,14.8236084 C28.8369751,14.500122 28.5748291,14.2379761 28.251648,14.2379761 Z" id="Path" fill="#000000"></path>
                <path d="M21.3827515,14.2379761 L19.6655273,14.2379761 C19.342041,14.2379761 19.0802002,14.500122 19.0802002,14.8236084 C19.0802002,15.1467895 19.342041,15.4089355 19.6655273,15.4089355 L21.3827515,15.4089355 C21.7062378,15.4089355 21.9680786,15.1467895 21.9680786,14.8236084 C21.9680786,14.500122 21.7062378,14.2379761 21.3827515,14.2379761 Z" id="Path" fill="#000000"></path>
                <path d="M13.5073852,15.4089355 L17.7142334,15.4089355 C18.0374145,15.4089355 18.2995605,15.1467895 18.2995605,14.8236084 C18.2995605,14.500122 18.0374145,14.2379761 17.7142334,14.2379761 L13.5073852,14.2379761 C13.1838989,14.2379761 12.921753,14.500122 12.921753,14.8236084 C12.921753,15.1467895 13.1838989,15.4089355 13.5073852,15.4089355 Z" id="Path" fill="#000000"></path>
                <path d="M12.2827148,21.9656372 L8.33923344,21.9656372 C8.01574703,21.9656372 7.75360109,22.2277832 7.75360109,22.5509644 C7.75360109,22.8741455 8.01574703,23.1362915 8.33923344,23.1362915 L12.2827148,23.1362915 C12.605896,23.1362915 12.868042,22.8741455 12.868042,22.5509644 C12.868042,22.2277832 12.605896,21.9656372 12.2827148,21.9656372 Z" id="Path" fill="#000000"></path>
                <path d="M6.54602047,21.9656372 L3.51623531,21.9656372 C3.19274906,21.9656372 2.9309082,22.2277832 2.9309082,22.5509644 C2.9309082,22.8741455 3.19274906,23.1362915 3.51623531,23.1362915 L6.54602047,23.1362915 C6.86950688,23.1362915 7.13134766,22.8741455 7.13134766,22.5509644 C7.13134766,22.2277832 6.86950688,21.9656372 6.54602047,21.9656372 Z" id="Path" fill="#000000"></path>
                <path d="M19.4314575,21.9656372 L14.2797852,21.9656372 C13.9562988,21.9656372 13.694458,22.2277832 13.694458,22.5509644 C13.694458,22.8741455 13.9562988,23.1362915 14.2797852,23.1362915 L19.4314575,23.1362915 C19.7546387,23.1362915 20.0167847,22.8741455 20.0167847,22.5509644 C20.0167847,22.2277832 19.7546387,21.9656372 19.4314575,21.9656372 Z" id="Path" fill="#000000"></path>
                <path d="M26.3983155,18.9584351 L23.5812378,18.9584351 C23.2580566,18.9584351 22.9959106,19.2205811 22.9959106,19.5437622 C22.9959106,19.8672485 23.2580566,20.1293945 23.5812378,20.1293945 L26.3983155,20.1293945 C26.7218017,20.1293945 26.9836426,19.8672485 26.9836426,19.5437622 C26.9836426,19.2205811 26.7218017,18.9584351 26.3983155,18.9584351 Z" id="Path" fill="#000000"></path>
                <path d="M31.2866211,20.1293945 L35.2633667,20.1293945 C35.586853,20.1293945 35.8489991,19.8672485 35.8489991,19.5437622 C35.8489991,19.2205811 35.586853,18.9584351 35.2633667,18.9584351 L31.2866211,18.9584351 C30.9631348,18.9584351 30.7012939,19.2205811 30.7012939,19.5437622 C30.7012939,19.8672485 30.9634399,20.1293945 31.2866211,20.1293945 Z" id="Path" fill="#000000"></path>
                <path d="M29.2980957,18.9584351 L28.3868408,18.9584351 C28.0633545,18.9584351 27.8012085,19.2205811 27.8012085,19.5437622 C27.8012085,19.8672485 28.0633545,20.1293945 28.3868408,20.1293945 L29.2980957,20.1293945 C29.621582,20.1293945 29.8834228,19.8672485 29.8834228,19.5437622 C29.8834228,19.2205811 29.621582,18.9584351 29.2980957,18.9584351 Z" id="Path" fill="#000000"></path>
                <path d="M23.5812378,26.5087891 L26.3983155,26.5087891 C26.7218017,26.5087891 26.9836426,26.2469483 26.9836426,25.9234619 C26.9836426,25.6002808 26.7218017,25.3381348 26.3983155,25.3381348 L23.5812378,25.3381348 C23.2580566,25.3381348 22.9959106,25.6002808 22.9959106,25.9234619 C22.9959106,26.2469483 23.2580566,26.5087891 23.5812378,26.5087891 Z" id="Path" fill="#000000"></path>
                <path d="M31.2866211,26.5087891 L35.2633667,26.5087891 C35.586853,26.5087891 35.8489991,26.2469483 35.8489991,25.9234619 C35.8489991,25.6002808 35.586853,25.3381348 35.2633667,25.3381348 L31.2866211,25.3381348 C30.9631348,25.3381348 30.7012939,25.6002808 30.7012939,25.9234619 C30.7012939,26.2469483 30.9634399,26.5087891 31.2866211,26.5087891 Z" id="Path" fill="#000000"></path>
                <path d="M28.3868408,26.5087891 L29.2980957,26.5087891 C29.621582,26.5087891 29.883728,26.2469483 29.883728,25.9234619 C29.883728,25.6002808 29.621582,25.3381348 29.2980957,25.3381348 L28.3868408,25.3381348 C28.0633545,25.3381348 27.8015137,25.6002808 27.8015137,25.9234619 C27.8015137,26.2469483 28.0633545,26.5087891 28.3868408,26.5087891 Z" id="Path" fill="#000000"></path>
                <path d="M26.3983155,31.7178345 L23.5812378,31.7178345 C23.2580566,31.7178345 22.9959106,31.9799805 22.9959106,32.3031616 C22.9959106,32.6263428 23.2580566,32.8884888 23.5812378,32.8884888 L26.3983155,32.8884888 C26.7218017,32.8884888 26.9836426,32.6263428 26.9836426,32.3031616 C26.9836426,31.9799805 26.7218017,31.7178345 26.3983155,31.7178345 Z" id="Path" fill="#000000"></path>
                <path d="M35.2633667,31.7178345 L31.2866211,31.7178345 C30.9631348,31.7178345 30.7012939,31.9799805 30.7012939,32.3031616 C30.7012939,32.6263428 30.9631348,32.8884888 31.2866211,32.8884888 L35.2633667,32.8884888 C35.586853,32.8884888 35.8489991,32.6263428 35.8489991,32.3031616 C35.8489991,31.9799805 35.586853,31.7178345 35.2633667,31.7178345 Z" id="Path" fill="#000000"></path>
                <path d="M29.2980957,31.7178345 L28.3868408,31.7178345 C28.0633545,31.7178345 27.8012085,31.9799805 27.8012085,32.3031616 C27.8012085,32.6263428 28.0633545,32.8884888 28.3868408,32.8884888 L29.2980957,32.8884888 C29.621582,32.8884888 29.8834228,32.6263428 29.8834228,32.3031616 C29.8834228,31.9799805 29.621582,31.7178345 29.2980957,31.7178345 Z" id="Path" fill="#000000"></path>
                <path d="M37.4237061,0.0390625 L2.57659914,0.0390625 C1.15600586,0.0390625 -2.84217094e-14,1.1947632 -2.84217094e-14,2.61566164 L-2.84217094e-14,30.9411621 C-2.84217094e-14,32.3617554 1.15600586,33.5174561 2.57659914,33.5174561 L4.77966312,33.5174561 C5.10284422,33.5174561 5.36499023,33.2556152 5.36499023,32.9321289 C5.36499023,32.6089477 5.10284422,32.3468017 4.77966312,32.3468017 L2.57659914,32.3468017 C1.80145266,32.3468017 1.17095945,31.7163086 1.17095945,30.9411621 L1.17095945,28.720398 L22.4987793,28.720398 L22.4987793,29.7293091 L22.034607,29.7293091 C21.3995361,29.7293091 20.8831787,30.2456665 20.8831787,30.8807373 L20.8831787,32.3468017 L8.3389282,32.3468017 C8.01574703,32.3468017 7.75360109,32.6089477 7.75360109,32.9321289 C7.75360109,33.2556152 8.01574703,33.5174561 8.3389282,33.5174561 L13.9675903,33.5174561 L13.9675903,35.6170655 L12.2000122,35.6170655 C11.020813,35.6170655 10.0616455,36.5765381 10.0616455,37.7554321 L10.0616455,39.0200805 C10.0616455,39.5581055 10.4992676,39.9957275 11.0372925,39.9957275 L28.9181519,39.9957275 C29.4561767,39.9957275 29.8937988,39.5581055 29.8937988,39.0200805 L29.8937988,37.7554321 C29.8937988,36.5765381 28.9346313,35.6170655 27.7554321,35.6170655 L25.987854,35.6170655 L25.987854,34.8770141 L36.8103027,34.8770141 C37.4450684,34.8770141 37.9614258,34.3606567 37.9614258,33.7255859 L37.9614258,33.4500122 C39.102478,33.1851196 39.9554444,32.1612548 39.9554444,30.9411621 L39.9996948,2.61535641 C40,1.1947632 38.8442993,0.0390625 37.4237061,0.0390625 Z M22.0541382,27.3266602 L22.0541382,24.5205688 L36.7907715,24.5205688 L36.7907715,27.3266602 L22.0541382,27.3266602 Z M23.6694336,23.3496094 L23.6694336,22.1179199 L35.1751709,22.1179199 L35.1751709,23.3496094 L23.6694336,23.3496094 Z M35.1751709,28.4973145 L35.1751709,29.7293091 L23.6694336,29.7293091 L23.6694336,28.4973145 L35.1751709,28.4973145 Z M15.1382446,33.5174561 L20.8831787,33.5174561 L20.8831787,33.7258911 C20.8831787,34.3606567 21.3995361,34.8770141 22.034607,34.8770141 L24.8171997,34.8770141 L24.8171997,35.6170655 L15.1382446,35.6170655 L15.1382446,33.5174561 Z M27.7557373,36.7880249 C28.2891845,36.7880249 28.7231445,37.2219848 28.7231445,37.7554321 L28.7231445,38.8250733 L11.2322998,38.8250733 L11.2322998,37.7554321 C11.2322998,37.2219848 11.6665649,36.7880249 12.2000122,36.7880249 L27.7557373,36.7880249 Z M36.7907715,33.7060547 L22.0541382,33.7060547 L22.0541382,30.9002686 L36.7907715,30.9002686 L36.7907715,33.7060547 Z M38.78479,30.9411621 C38.78479,31.5081787 38.4466553,31.9967652 37.9617309,32.218628 L37.9617309,30.8804321 C37.9617309,30.2456665 37.4450684,29.7293091 36.8103027,29.7293091 L36.3461304,29.7293091 L36.3461304,28.720398 L38.78479,28.720398 L38.78479,30.9411621 Z M38.78479,27.5497437 L37.9425048,27.5497437 C37.9544067,27.4835205 37.9617309,24.5010376 37.9617309,24.5010376 C37.9617309,23.8659668 37.4450684,23.3496094 36.8103027,23.3496094 L36.3461304,23.3496094 L36.3461304,22.1179199 L36.8103027,22.1179199 C37.4450684,22.1179199 37.9617309,21.6012573 37.9617309,20.9664917 L37.9617309,18.1213379 C37.9617309,17.4865723 37.4450684,16.9699097 36.8103027,16.9699097 L33.5037231,16.9699097 C33.1802368,16.9699097 32.918396,17.2320556 32.918396,17.555542 C32.918396,17.8787231 33.1802368,18.1408691 33.5037231,18.1408691 L36.7907715,18.1408691 L36.7907715,20.9469605 L22.0541382,20.9469605 L22.0541382,18.1408691 L29.861145,18.1408691 C30.1846313,18.1408691 30.4464722,17.8787231 30.4464722,17.555542 C30.4464722,17.2320556 30.1846313,16.9699097 29.861145,16.9699097 L22.034607,16.9699097 C21.3995361,16.9699097 20.8831787,17.4865723 20.8831787,18.1213379 L20.8831787,20.9664917 C20.8831787,21.6012573 21.3995361,22.1179199 22.034607,22.1179199 L22.4987793,22.1179199 L22.4987793,23.3496094 L22.034607,23.3496094 C21.3995361,23.3496094 20.8831787,23.866272 20.8831787,24.5010376 C20.8831787,24.5010376 20.890503,27.4835205 20.9024048,27.5497437 L1.17095945,27.5497437 L1.17095945,8.00231938 L38.78479,8.00231938 L38.78479,27.5497437 Z M38.78479,6.83135984 L1.21398922,6.83135984 L1.21398922,2.61535641 C1.21398922,1.84051516 1.84448242,1.21002195 2.61962891,1.21002195 L37.3791504,1.21002195 C38.1542969,1.21002195 38.78479,1.84051516 38.78479,2.61566164 L38.78479,6.83135984 Z" id="Shape" fill="#000000" fill-rule="nonzero"></path>
                <path d="M4.3173218,2.2860718 C3.37005617,2.2860718 2.59948734,3.05664062 2.59948734,4.00390625 C2.59948734,4.95117188 3.37005617,5.72204594 4.3173218,5.72204594 C5.26458742,5.72204594 6.03546141,4.95117188 6.03546141,4.00390625 C6.03546141,3.05664062 5.26458742,2.2860718 4.3173218,2.2860718 Z M4.3173218,4.55108641 C4.01580813,4.55108641 3.77014156,4.30572508 3.77014156,4.00390625 C3.77014156,3.70239258 4.01580813,3.45672609 4.3173218,3.45672609 C4.61914062,3.45672609 4.86450195,3.70239258 4.86450195,4.00390625 C4.86450195,4.30572508 4.61914062,4.55108641 4.3173218,4.55108641 Z" id="Shape" fill="#000000" fill-rule="nonzero"></path>
                <path d="M8.69140625,2.2860718 C7.74414062,2.2860718 6.97326656,3.05664062 6.97326656,4.00390625 C6.97326656,4.95117188 7.74414062,5.72204594 8.69140625,5.72204594 C9.63867188,5.72204594 10.4092407,4.95117188 10.4092407,4.00390625 C10.4092407,3.05664062 9.63836672,2.2860718 8.69140625,2.2860718 Z M8.69140625,4.55108641 C8.38958742,4.55108641 8.14422609,4.30572508 8.14422609,4.00390625 C8.14422609,3.70239258 8.38958742,3.45672609 8.69140625,3.45672609 C8.99291992,3.45672609 9.23858641,3.70239258 9.23858641,4.00390625 C9.23858641,4.30572508 8.99291992,4.55108641 8.69140625,4.55108641 Z" id="Shape" fill="#000000" fill-rule="nonzero"></path>
                <path d="M13.0651855,2.2860718 C12.1179199,2.2860718 11.3473511,3.05664062 11.3473511,4.00390625 C11.3473511,4.95117188 12.1179199,5.72204594 13.0651855,5.72204594 C14.0124512,5.72204594 14.7833252,4.95117188 14.7833252,4.00390625 C14.7833252,3.05664062 14.0124512,2.2860718 13.0651855,2.2860718 Z M13.0651855,4.55108641 C12.7636719,4.55108641 12.5180054,4.30572508 12.5180054,4.00390625 C12.5180054,3.70239258 12.7636719,3.45672609 13.0651855,3.45672609 C13.3670044,3.45672609 13.6123657,3.70239258 13.6123657,4.00390625 C13.6123657,4.30572508 13.3670044,4.55108641 13.0651855,4.55108641 Z" id="Shape" fill="#000000" fill-rule="nonzero"></path>
            </g>
        </g>
    </g>
</svg>