<?xml version="1.0" encoding="UTF-8"?>
<svg width="638px" height="70px" viewBox="0 0 638 70" version="1.1" xmlns="http://www.w3.org/2000/svg" xmlns:xlink="http://www.w3.org/1999/xlink">
    <!-- Generator: Sketch 52.3 (67297) - http://www.bohemiancoding.com/sketch -->
    <title>Group 53</title>
    <desc>Created with Sketch.</desc>
    <defs>
        <circle id="path-1" cx="35.6128405" cy="35.0680934" r="31.3910506"></circle>
        <circle id="path-3" cx="35.6128405" cy="35.0680934" r="31.3910506"></circle>
    </defs>
    <g id="Page-1" stroke="none" stroke-width="1" fill="none" fill-rule="evenodd">
        <g id="Group-53">
            <g id="Group-47">
                <g id="Group-46">
                    <g id="Group-44">
                        <g id="Group-38">
                            <g id="Group-34">
                                <g id="Group-31">
                                    <g id="Group-8" transform="translate(0.000000, 0.000000)">
                                        <rect id="Rectangle" fill="#FFF60F" x="0" y="0" width="450.36965" height="70" rx="35"></rect>
                                        <mask id="mask-2" fill="white">
                                            <use xlink:href="#path-1"></use>
                                        </mask>
                                        <use id="Mask" fill="#FFFFFF" xlink:href="#path-1"></use>
                                        <path d="M48.7790599,57.1984436 L23.536026,57.1984436 C22.7973238,57.1984436 22.1984436,56.6004463 22.1984436,55.8628333 L22.1984436,14.2733535 C22.1984436,13.5357404 22.7973238,12.9377432 23.536026,12.9377432 L48.7791491,12.9377432 C49.5178513,12.9377432 50.1167315,13.5357404 50.1167315,14.2733535 L50.1167315,55.8627442 C50.1166423,56.6004463 49.5178513,57.1984436 48.7790599,57.1984436 Z" id="Path" fill="#FFF5F5" mask="url(#mask-2)"></path>
                                        <path d="M50.1167315,14.2733562 L50.1167315,55.8628306 C50.1167315,56.6004451 49.5113039,57.1984436 48.7645257,57.1984436 L44.8054475,57.1984436 C46.2062425,57.1984436 47.3421855,56.0765287 47.3421855,54.6928336 L47.3421855,15.4433531 C47.3421855,14.0597471 46.2063327,12.9377432 44.8054475,12.9377432 L48.7645257,12.9377432 C49.5113039,12.9377432 50.1167315,13.5357416 50.1167315,14.2733562 Z" id="Path" fill="#EFE2DD" mask="url(#mask-2)"></path>
                                        <path d="M48.7790599,57.1984436 L23.536026,57.1984436 C22.7973238,57.1984436 22.1984436,56.5963271 22.1984436,55.8536331 L22.1984436,51.8871595 L50.1167315,51.8871595 L50.1167315,55.8536331 C50.1166423,56.5963271 49.5178513,57.1984436 48.7790599,57.1984436 Z" id="Path" fill="#7CA1B1" mask="url(#mask-2)"></path>
                                        <path d="M50.1167315,18.385214 L22.1984436,18.385214 L22.1984436,14.2654879 C22.1984436,13.5322187 22.7973238,12.9377432 23.536026,12.9377432 L48.7791491,12.9377432 C49.5178513,12.9377432 50.1167315,13.5322187 50.1167315,14.2654879 L50.1167315,18.385214 Z" id="Path" fill="#7CA1B1" mask="url(#mask-2)"></path>
                                        <path d="M50.1167315,51.8871595 L50.1167315,55.8536331 C50.1167315,56.5963271 49.5119198,57.1984436 48.7659014,57.1984436 L44.8054475,57.1984436 C46.2048175,57.1984436 47.3387043,56.0688028 47.3387043,54.6755792 L47.3387043,51.8871595 L50.1167315,51.8871595 Z" id="Path" fill="#678D98" mask="url(#mask-2)"></path>
                                        <path d="M50.1167315,14.2654879 L50.1167315,18.385214 L47.3387043,18.385214 L47.3387043,15.4285922 C47.3387043,14.0531372 46.2049075,12.9377432 44.8054475,12.9377432 L48.7659014,12.9377432 C49.5119198,12.9377432 50.1167315,13.5322187 50.1167315,14.2654879 Z" id="Path" fill="#678D98" mask="url(#mask-2)"></path>
                                        <path d="M46.219637,32.5486381 L25.9594404,32.5486381 C25.4617921,32.5486381 25.0583658,32.1466566 25.0583658,31.6507907 L25.0583658,22.551544 C25.0583658,22.055678 25.4617921,21.6536965 25.9594404,21.6536965 L46.219548,21.6536965 C46.7171962,21.6536965 47.1206226,22.055678 47.1206226,22.551544 L47.1206226,31.6507907 C47.1207116,32.1466566 46.7172852,32.5486381 46.219637,32.5486381 Z" id="Path" fill="#C9F0FF" mask="url(#mask-2)"></path>
                                        <path d="M47.1206226,22.5518926 L47.1206226,31.6504421 C47.1206226,32.1460781 46.725515,32.5486381 46.2375488,32.5486381 L43.8521401,32.5486381 C44.3401063,32.5486381 44.7352139,32.1460781 44.7352139,31.6504421 L44.7352139,22.5518926 C44.7352139,22.0562566 44.3401063,21.6536965 43.8521401,21.6536965 L46.2375488,21.6536965 C46.725515,21.6536965 47.1206226,22.0562566 47.1206226,22.5518926 Z" id="Path" fill="#9AE7FD" mask="url(#mask-2)"></path>
                                        <path d="M27.2373541,32.5486381 L33.3303243,26.4689279 C33.5878944,26.2118869 34.0091456,26.2245385 34.2508296,26.4964584 L39.6303502,32.5486381 L27.2373541,32.5486381 Z" id="Path" fill="#A3E72D" mask="url(#mask-2)"></path>
                                        <path d="M35,32.5485486 L39.7980799,27.6954564 C40.0533383,27.437237 40.4708087,27.4499466 40.7103236,27.7231131 L44.9416342,32.5486381 L35,32.5486381 L35,32.5485486 Z" id="Path" fill="#A3E72D" mask="url(#mask-2)"></path>
                                        <path d="M29.5320275,35.5215353 C28.9536117,35.2735836 28.3189011,35.4434797 27.9409345,35.935959 C27.7442623,36.1922519 27.6458813,36.4131608 27.6458813,36.4131608 C27.6458813,36.4131608 27.5475902,36.1922519 27.3508281,35.935959 C26.9728614,35.4434797 26.3381508,35.2735836 25.7597351,35.5215353 C24.8895035,35.8946922 24.9069495,37.0982768 25.3883332,37.7639887 C25.8341953,38.3806194 26.4407585,38.9690659 27.1280769,39.3586416 C27.4469609,39.5393374 27.8448016,39.5393374 28.1636857,39.3586416 C28.8510041,38.9690659 29.4575672,38.3806194 29.9034294,37.7639887 C30.384903,37.0982768 30.402349,35.8946044 29.5320275,35.5215353 Z" id="Path" fill="#FF5757" mask="url(#mask-2)"></path>
                                        <path d="M34.1754991,54.7470817 L38.139676,54.7470817 C38.511747,54.7470817 38.8132296,54.4422957 38.8132296,54.0661479 C38.8132296,53.69 38.511747,53.385214 38.139676,53.385214 L34.1754991,53.385214 C33.8034281,53.385214 33.5019455,53.69 33.5019455,54.0661479 C33.5019455,54.4422957 33.8034281,54.7470817 34.1754991,54.7470817 Z" id="Path" fill="#000000" mask="url(#mask-2)"></path>
                                        <path d="M34.3394568,16.4785992 C34.7043409,16.4785992 35,16.1738132 35,15.7976654 C35,15.4215175 34.7043409,15.1167315 34.3394568,15.1167315 L32.5282475,15.1167315 C32.1633634,15.1167315 31.8677043,15.4215175 31.8677043,15.7976654 C31.8677043,16.1738132 32.1633634,16.4785992 32.5282475,16.4785992 L34.3394568,16.4785992 Z" id="Path" fill="#000000" mask="url(#mask-2)"></path>
                                        <path d="M39.7725406,16.4785992 C40.1453721,16.4785992 40.4474708,16.1738132 40.4474708,15.7976654 C40.4474708,15.4215175 40.1453721,15.1167315 39.7725406,15.1167315 L36.355864,15.1167315 C35.9830326,15.1167315 35.6809339,15.4215175 35.6809339,15.7976654 C35.6809339,16.1738132 35.9830326,16.4785992 36.355864,16.4785992 L39.7725406,16.4785992 Z" id="Path" fill="#000000" mask="url(#mask-2)"></path>
                                        <path d="M48.6627731,12.2568093 L30.182209,12.2568093 C29.8141807,12.2568093 29.5159738,12.5549983 29.5159738,12.9230045 C29.5159738,13.2910106 29.8141807,13.5891996 30.182209,13.5891996 L48.6627731,13.5891996 C49.0301796,13.5891996 49.3290083,13.8880103 49.3290083,14.2553947 L49.3290083,17.72334 L22.8499801,17.72334 L22.8499801,14.2553947 C22.8499801,13.8880103 23.1488087,13.5891996 23.5162152,13.5891996 L27.2116885,13.5891996 C27.5797168,13.5891996 27.8779236,13.2910106 27.8779236,12.9230045 C27.8779236,12.5549983 27.5797168,12.2568093 27.2116885,12.2568093 L23.5162152,12.2568093 C22.4141734,12.2568093 21.5175097,13.1534191 21.5175097,14.2553947 L21.5175097,51.8147647 L21.5175097,55.7446053 C21.5175097,56.8465809 22.4141734,57.7431907 23.5162152,57.7431907 L48.6627731,57.7431907 C49.7648149,57.7431907 50.6614786,56.8465809 50.6614786,55.7446053 L50.6614786,51.8147647 L50.6614786,14.2553947 C50.6614786,13.1534191 49.7648149,12.2568093 48.6627731,12.2568093 Z M49.3290083,55.7446053 C49.3290083,56.1119897 49.0301796,56.4108004 48.6627731,56.4108004 L23.5162152,56.4108004 C23.1488087,56.4108004 22.8499801,56.1119897 22.8499801,55.7446053 L22.8499801,52.4809599 L49.3290083,52.4809599 L49.3290083,55.7446053 Z M49.3290083,51.1485696 L22.8499801,51.1485696 L22.8499801,19.0557302 L49.3290083,19.0557302 L49.3290083,51.1485696 Z" id="Shape" fill="#000000" fill-rule="nonzero" mask="url(#mask-2)"></path>
                                        <path d="M25.9481697,33.229572 L46.2308186,33.229572 C47.0969622,33.229572 47.8015564,32.5265115 47.8015564,31.6622533 L47.8015564,27.3206791 C47.8015564,26.9521128 47.5022621,26.65347 47.1328918,26.65347 C46.7635214,26.65347 46.4642272,26.9521128 46.4642272,27.3206791 L46.4642272,31.6622533 C46.4642272,31.7906243 46.3594697,31.8951538 46.2308186,31.8951538 L45.3490729,31.8951538 L41.2347348,27.2685478 C40.9979384,27.002109 40.6574543,26.8432243 40.300744,26.8325489 C39.940735,26.8236528 39.5946342,26.9601193 39.3423247,27.2118795 L37.4353823,29.1137814 L34.6856551,26.0217564 C34.4488586,25.7553176 34.1083746,25.5964328 33.7516643,25.5857575 C33.3929034,25.5765055 33.0456436,25.7133279 32.793245,25.9650881 L26.8473008,31.8952427 L25.9480806,31.8952427 C25.8194295,31.8952427 25.714672,31.7907133 25.714672,31.6623423 L25.714672,22.5400813 C25.714672,22.4117103 25.8194295,22.3071809 25.9480806,22.3071809 L46.2307295,22.3071809 C46.3593805,22.3071809 46.464138,22.4117103 46.464138,22.5400813 L46.464138,24.2366607 C46.464138,24.605227 46.7634323,24.9038698 47.1328026,24.9038698 C47.502173,24.9038698 47.8014673,24.605227 47.8014673,24.2366607 L47.8014673,22.5400813 C47.8014673,21.6758231 47.0968731,20.9727626 46.2307295,20.9727626 L25.9481697,20.9727626 C25.0820261,20.9727626 24.3774319,21.6758231 24.3774319,22.5400813 L24.3774319,31.6622533 C24.3774319,32.5265115 25.0820261,33.229572 25.9481697,33.229572 Z M33.7110986,26.9362777 L37.306553,30.979298 C37.5515517,31.2550778 37.9742369,31.2802538 38.2504399,31.0355215 C38.5199564,30.7969276 38.5498234,30.3901969 38.3235473,30.114595 L40.2601784,28.1830691 L43.5612419,31.8951538 L28.7390867,31.8951538 L33.7110986,26.9362777 Z" id="Shape" fill="#000000" fill-rule="nonzero" mask="url(#mask-2)"></path>
                                        <path d="M26.8736979,39.9486967 C27.1329468,40.0996009 27.4234326,40.1750973 27.7140067,40.1750973 C28.0045808,40.1750973 28.2951548,40.0996009 28.5542273,39.9486967 C29.2636763,39.5357238 29.9439179,38.8968813 30.4698278,38.149972 C30.8775845,37.5706061 31.0202685,36.7604143 30.8333763,36.0859036 C30.6816037,35.5384002 30.3255555,35.1169306 29.8307943,34.8989382 C29.0931085,34.573941 28.2814777,34.7213049 27.7140067,35.2565944 C27.1464475,34.7213049 26.3350814,34.573941 25.5972191,34.8989382 C25.1024578,35.1169306 24.7463215,35.5384887 24.594637,36.0859036 C24.4077449,36.7605029 24.5504288,37.5706946 24.9582738,38.1500605 C25.4840073,38.8968813 26.1642489,39.5356353 26.8736979,39.9486967 Z M25.8698805,36.4414356 C25.9300601,36.2243283 26.0468015,36.1508676 26.1293941,36.1144913 C26.2178987,36.0755483 26.307374,36.0565193 26.3943786,36.0565193 C26.5856827,36.0565193 26.7649863,36.1485665 26.8948754,36.3223939 C27.0335886,36.5081698 27.1070925,36.6701374 27.1070925,36.6701374 C27.2115685,36.91123 27.4488457,37.0658515 27.7109183,37.0673561 C27.9722849,37.065232 28.2121211,36.9133542 28.3194208,36.6736776 C28.320215,36.671996 28.3937188,36.5093204 28.5332262,36.3224824 C28.7222361,36.0696184 29.0154574,35.9896967 29.2987075,36.1144913 C29.3813883,36.1508676 29.4981298,36.2243283 29.5582211,36.4414356 C29.6390489,36.7332427 29.5677511,37.1297534 29.388624,37.3842107 C28.9703668,37.9783572 28.4381035,38.4813416 27.8898689,38.8004973 C27.7830103,38.8627176 27.6450913,38.8627176 27.5382328,38.8004973 C26.9899981,38.4813416 26.4578231,37.9783572 26.0396541,37.3842107 C25.8603506,37.129842 25.7890527,36.7332427 25.8698805,36.4414356 Z" id="Shape" fill="#000000" fill-rule="nonzero" mask="url(#mask-2)"></path>
                                        <path d="M32.6848249,42.3540856 C32.6848249,41.9779377 32.3850854,41.6731518 32.0151657,41.6731518 L25.8642118,41.6731518 C25.494292,41.6731518 25.1945525,41.9779377 25.1945525,42.3540856 C25.1945525,42.7302335 25.494292,43.0350195 25.8642118,43.0350195 L32.0151657,43.0350195 C32.3849961,43.0350195 32.6848249,42.7301427 32.6848249,42.3540856 Z" id="Path" fill="#000000" mask="url(#mask-2)"></path>
                                        <path d="M38.0152439,43.0350195 C38.3808216,43.0350195 38.6770428,42.7302335 38.6770428,42.3540856 C38.6770428,41.9779377 38.3808216,41.6731518 38.0152439,41.6731518 L35.6617989,41.6731518 C35.2962212,41.6731518 35,41.9779377 35,42.3540856 C35,42.7302335 35.2962212,43.0350195 35.6617989,43.0350195 L38.0152439,43.0350195 Z" id="Path" fill="#000000" mask="url(#mask-2)"></path>
                                        <path d="M47.132843,41.6731518 L41.5247446,41.6731518 C41.1553473,41.6731518 40.8560311,41.9779377 40.8560311,42.3540856 C40.8560311,42.7302335 41.1553473,43.0350195 41.5247446,43.0350195 L47.132843,43.0350195 C47.5022403,43.0350195 47.8015564,42.7302335 47.8015564,42.3540856 C47.8015564,41.9779377 47.5022403,41.6731518 47.132843,41.6731518 Z" id="Path" fill="#000000" mask="url(#mask-2)"></path>
                                        <path d="M25.7344228,44.6692607 C25.3609689,44.6692607 25.0583658,44.9740467 25.0583658,45.3501946 C25.0583658,45.7263424 25.3609689,46.0311284 25.7344228,46.0311284 L29.6935928,46.0311284 C30.0670467,46.0311284 30.3696498,45.7263424 30.3696498,45.3501946 C30.3696498,44.9740467 30.0670467,44.6692607 29.6935928,44.6692607 L25.7344228,44.6692607 Z" id="Path" fill="#000000" mask="url(#mask-2)"></path>
                                        <path d="M40.1750973,45.3501946 C40.1750973,44.9740467 39.8755581,44.6692607 39.5058854,44.6692607 L32.4007294,44.6692607 C32.0310567,44.6692607 31.7315175,44.9740467 31.7315175,45.3501946 C31.7315175,45.7263424 32.0310567,46.0311284 32.4007294,46.0311284 L39.5058854,46.0311284 C39.8755581,46.0311284 40.1750973,45.7262516 40.1750973,45.3501946 Z" id="Path" fill="#000000" mask="url(#mask-2)"></path>
                                        <path d="M47.1416432,44.6692607 L42.877812,44.6692607 C42.513276,44.6692607 42.2178988,44.9740467 42.2178988,45.3501946 C42.2178988,45.7263424 42.513276,46.0311284 42.877812,46.0311284 L47.1416432,46.0311284 C47.5061793,46.0311284 47.8015564,45.7263424 47.8015564,45.3501946 C47.8015564,44.9740467 47.5061793,44.6692607 47.1416432,44.6692607 Z" id="Path" fill="#000000" mask="url(#mask-2)"></path>
                                        <path d="M30.7941224,47.2568093 L25.8595741,47.2568093 C25.4922162,47.2568093 25.1945525,47.5615953 25.1945525,47.9377432 C25.1945525,48.3138911 25.4922162,48.618677 25.8595741,48.618677 L30.7941224,48.618677 C31.1614803,48.618677 31.459144,48.3138911 31.459144,47.9377432 C31.459144,47.5615953 31.1614803,47.2568093 30.7941224,47.2568093 Z" id="Path" fill="#000000" mask="url(#mask-2)"></path>
                                        <path d="M42.2353427,47.2568093 L33.893062,47.2568093 C33.5265501,47.2568093 33.229572,47.5615953 33.229572,47.9377432 C33.229572,48.3138911 33.5265501,48.618677 33.893062,48.618677 L42.2353427,48.618677 C42.6018546,48.618677 42.8988327,48.3138911 42.8988327,47.9377432 C42.8988327,47.5615953 42.6017661,47.2568093 42.2353427,47.2568093 Z" id="Path" fill="#000000" mask="url(#mask-2)"></path>
                                        <path d="M47.1325531,47.2568093 L45.2020772,47.2568093 C44.8325198,47.2568093 44.5330739,47.5615953 44.5330739,47.9377432 C44.5330739,48.3138911 44.8325198,48.618677 45.2020772,48.618677 L47.1325531,48.618677 C47.5021105,48.618677 47.8015564,48.3138911 47.8015564,47.9377432 C47.8015564,47.5615953 47.5021105,47.2568093 47.1325531,47.2568093 Z" id="Path" fill="#000000" mask="url(#mask-2)"></path>
                                    </g>
                                    <rect id="Rectangle" fill="#FFF60F" x="6.53699317e-13" y="0" width="450.36965" height="70" rx="35"></rect>
                                    <mask id="mask-4" fill="white">
                                        <use xlink:href="#path-3"></use>
                                    </mask>
                                    <use id="Mask" fill="#FFFFFF" xlink:href="#path-3"></use>
                                    <g id="Group-20" transform="translate(449.000000, 24.000000)">
                                        <g id="profile" transform="translate(0.221790, 0.677043)">
                                            <g id="Group-6" transform="translate(94.404669, 10.881323) scale(-1, 1) translate(-94.404669, -10.881323) translate(0.404669, 0.381323)"></g>
                                        </g>
                                        <g id="Group-7" transform="translate(94.626459, 11.558366) scale(-1, 1) translate(-94.626459, -11.558366) translate(0.626459, 1.058366)">
                                            <path d="M187.120623,9.98079869 L19.5026484,9.98079869" id="Line-2" stroke="#FFF60F" stroke-width="5" stroke-linecap="square"></path>
                                            <ellipse id="Oval" fill="#FFF60F" cx="9.73735409" cy="10.0097276" rx="9.73735409" ry="10.0097276"></ellipse>
                                        </g>
                                    </g>
                                </g>
                            </g>
                        </g>
                    </g>
                </g>
            </g>
            <g id="coding" transform="translate(15.000000, 15.000000)">
                <path d="M29.8999194,39.9332258 L11.3904032,39.9332258 C10.6037903,39.9332258 9.9666129,39.2960484 9.9666129,38.5094355 C9.9666129,37.7228226 10.6037903,37.0856452 11.3904032,37.0856452 L29.8998387,37.0856452 C30.6864516,37.0856452 31.323629,37.7228226 31.323629,38.5094355 C31.3237097,39.296129 30.6865323,39.9332258 29.8999194,39.9332258 Z" id="Path" fill="#E7ECED"></path>
                <path d="M24.2046774,31.3904032 L24.2046774,29.9666129 L17.0856452,29.9666129 L17.0856452,31.3904032 C17.0856452,34.5384677 15.9622581,37.0856452 12.8141935,37.0856452 L28.4760484,37.0856452 C25.3280645,37.0856452 24.2046774,34.5384677 24.2046774,31.3904032 Z" id="Path" fill="#AFB6BB"></path>
                <path d="M39.153871,31.3904032 L2.13645161,31.3904032 C0.956774194,31.3904032 0,30.433629 0,29.2540323 L0,24.9833065 L41.2903226,24.9833065 L41.2903226,29.2540323 C41.2903226,30.433629 40.3335484,31.3904032 39.153871,31.3904032 Z" id="Path" fill="#E7ECED"></path>
                <path d="M22.7808871,29.2547581 L18.5094355,29.2547581 C18.1164516,29.2547581 17.7975,28.9358065 17.7975,28.5428226 C17.7975,28.1498387 18.1164516,27.8308871 18.5094355,27.8308871 L22.7808871,27.8308871 C23.173871,27.8308871 23.4928226,28.1498387 23.4928226,28.5428226 C23.4928226,28.9358065 23.173871,29.2547581 22.7808871,29.2547581 Z" id="Path" fill="#AFB6BB"></path>
                <path d="M35.5950806,0.0667741935 L5.69524194,0.0667741935 L2.13645161,0.0667741935 C0.956774194,0.0667741935 0,1.02354839 0,2.20314516 L0,25.6952419 L5.69524194,25.6952419 L16.3737903,25.6952419 L24.9166129,25.6952419 L35.5951613,25.6952419 L41.2903226,25.6952419 L41.2903226,2.20314516 C41.2903226,1.02354839 40.3335484,0.0666935484 39.153871,0.0666935484 L35.5950806,0.0666935484 L35.5950806,0.0667741935 Z" id="Path" fill="#495D72"></path>
                <rect id="Rectangle" fill="#28384C" x="19.221371" y="2.91435484" width="19.221371" height="22.7808871"></rect>
                <rect id="Rectangle" fill="#EBBA16" x="2.84758065" y="2.91435484" width="17.7975806" height="22.7808871"></rect>
                <g id="Group" transform="translate(4.919355, 5.000000)" fill="#FFFFFF">
                    <path d="M5.75846774,18.5595161 C5.65169355,18.5595161 5.54274194,18.5353226 5.44024194,18.4847581 C5.08854839,18.3089516 4.94620968,17.8810484 5.12201613,17.5293548 L7.25774194,13.2579839 C7.43354839,12.9062903 7.86217742,12.7639516 8.21314516,12.9397581 C8.56483871,13.1155645 8.70717742,13.5434677 8.53137097,13.8951613 L6.39564516,18.1665323 C6.27104839,18.4157258 6.01975806,18.5595161 5.75846774,18.5595161 Z" id="Path"></path>
                    <path d="M0.775887097,16.4237903 C0.593629032,16.4237903 0.411370968,16.3540323 0.272580645,16.2152419 C-0.00580645161,15.9368548 -0.00580645161,15.4869355 0.272580645,15.208629 L2.40830645,13.0729032 C2.68596774,12.7945161 3.13725806,12.7945161 3.41491935,13.0729032 C3.69330645,13.3512903 3.69330645,13.8012097 3.41491935,14.0795161 L1.27919355,16.2152419 C1.14032258,16.3540323 0.958145161,16.4237903 0.775887097,16.4237903 Z" id="Path"></path>
                    <path d="M2.91153226,18.5595161 C2.72927419,18.5595161 2.54701613,18.4897581 2.40822581,18.3509677 L0.272580645,16.2152419 C-0.00580645161,15.9368548 -0.00580645161,15.4869355 0.272580645,15.208629 C0.550241935,14.9302419 1.00153226,14.9302419 1.27919355,15.208629 L3.41491935,17.3443548 C3.69330645,17.6227419 3.69330645,18.0726613 3.41491935,18.3509677 C3.27604839,18.4897581 3.09379032,18.5595161 2.91153226,18.5595161 Z" id="Path"></path>
                    <path d="M12.8782258,16.4237903 C12.6959677,16.4237903 12.5137097,16.3540323 12.3749194,16.2152419 L10.2391935,14.0795161 C9.96080645,13.801129 9.96080645,13.3512097 10.2391935,13.0729032 C10.5168548,12.7945161 10.9681452,12.7945161 11.2458065,13.0729032 L13.3815323,15.208629 C13.6599194,15.4870161 13.6599194,15.9369355 13.3815323,16.2152419 C13.2426613,16.3540323 13.0604839,16.4237903 12.8782258,16.4237903 Z" id="Path"></path>
                    <path d="M10.7425,18.5595161 C10.5602419,18.5595161 10.3779839,18.4897581 10.2391935,18.3509677 C9.96080645,18.0725806 9.96080645,17.6226613 10.2391935,17.3443548 L12.3749194,15.208629 C12.6525806,14.9302419 13.103871,14.9302419 13.3815323,15.208629 C13.6599194,15.4870161 13.6599194,15.9369355 13.3815323,16.2152419 L11.2458065,18.3509677 C11.1070161,18.4897581 10.9247581,18.5595161 10.7425,18.5595161 Z" id="Path"></path>
                    <path d="M7.18298387,6.45717742 C6.79,6.45717742 6.47104839,6.13822581 6.47104839,5.74524194 L6.47104839,0.761935484 C6.47104839,0.368951613 6.79,0.05 7.18298387,0.05 C7.57596774,0.05 7.89491935,0.368951613 7.89491935,0.761935484 L7.89491935,5.74524194 C7.89491935,6.13822581 7.57596774,6.45717742 7.18298387,6.45717742 Z" id="Path"></path>
                    <path d="M7.18298387,10.7285484 C6.79,10.7285484 6.47104839,10.4095968 6.47104839,10.0166129 L6.47104839,8.59282258 C6.47104839,8.19983871 6.79,7.8808871 7.18298387,7.8808871 C7.57596774,7.8808871 7.89491935,8.19983871 7.89491935,8.59282258 L7.89491935,10.0166129 C7.89491935,10.4096774 7.57596774,10.7285484 7.18298387,10.7285484 Z" id="Path"></path>
                </g>
                <path d="M30.6117742,6.47387097 L23.4927419,6.47387097 C23.0997581,6.47387097 22.7808065,6.15491935 22.7808065,5.76193548 C22.7808065,5.36895161 23.0997581,5.05 23.4927419,5.05 L30.6117742,5.05 C31.0047581,5.05 31.3237097,5.36895161 31.3237097,5.76193548 C31.3237097,6.15491935 31.0047581,6.47387097 30.6117742,6.47387097 Z" id="Path" fill="#DD352E"></path>
                <path d="M35.5950806,6.47387097 L33.4593548,6.47387097 C33.066371,6.47387097 32.7474194,6.15491935 32.7474194,5.76193548 C32.7474194,5.36895161 33.066371,5.05 33.4593548,5.05 L35.5950806,5.05 C35.9880645,5.05 36.3070161,5.36895161 36.3070161,5.76193548 C36.3070161,6.15491935 35.9880645,6.47387097 35.5950806,6.47387097 Z" id="Path" fill="#366DB6"></path>
                <path d="M35.5950806,9.32145161 L28.4760484,9.32145161 C28.0830645,9.32145161 27.7641129,9.0025 27.7641129,8.60951613 C27.7641129,8.21653226 28.0830645,7.89758065 28.4760484,7.89758065 L35.5950806,7.89758065 C35.9880645,7.89758065 36.3070161,8.21653226 36.3070161,8.60951613 C36.3070161,9.0025 35.9880645,9.32145161 35.5950806,9.32145161 Z" id="Path" fill="#75348B"></path>
                <path d="M25.6284677,9.32145161 L23.4927419,9.32145161 C23.0997581,9.32145161 22.7808065,9.0025 22.7808065,8.60951613 C22.7808065,8.21653226 23.0997581,7.89758065 23.4927419,7.89758065 L25.6284677,7.89758065 C26.0214516,7.89758065 26.3404032,8.21653226 26.3404032,8.60951613 C26.3404032,9.0025 26.0214516,9.32145161 25.6284677,9.32145161 Z" id="Path" fill="#57ABC1"></path>
                <path d="M30.6117742,12.1691129 L23.4927419,12.1691129 C23.0997581,12.1691129 22.7808065,11.8501613 22.7808065,11.4571774 C22.7808065,11.0641935 23.0997581,10.7452419 23.4927419,10.7452419 L30.6117742,10.7452419 C31.0047581,10.7452419 31.3237097,11.0641935 31.3237097,11.4571774 C31.3237097,11.8501613 31.0047581,12.1691129 30.6117742,12.1691129 Z" id="Path" fill="#25AE88"></path>
                <path d="M35.5950806,12.1691129 L33.4593548,12.1691129 C33.066371,12.1691129 32.7474194,11.8501613 32.7474194,11.4571774 C32.7474194,11.0641935 33.066371,10.7452419 33.4593548,10.7452419 L35.5950806,10.7452419 C35.9880645,10.7452419 36.3070161,11.0641935 36.3070161,11.4571774 C36.3070161,11.8501613 35.9880645,12.1691129 35.5950806,12.1691129 Z" id="Path" fill="#F76363"></path>
                <path d="M35.5950806,15.0166935 L28.4760484,15.0166935 C28.0830645,15.0166935 27.7641129,14.6977419 27.7641129,14.3047581 C27.7641129,13.9117742 28.0830645,13.5928226 28.4760484,13.5928226 L35.5950806,13.5928226 C35.9880645,13.5928226 36.3070161,13.9117742 36.3070161,14.3047581 C36.3070161,14.6977419 35.9880645,15.0166935 35.5950806,15.0166935 Z" id="Path" fill="#BF5A45"></path>
                <path d="M25.6284677,15.0166935 L23.4927419,15.0166935 C23.0997581,15.0166935 22.7808065,14.6977419 22.7808065,14.3047581 C22.7808065,13.9117742 23.0997581,13.5928226 23.4927419,13.5928226 L25.6284677,13.5928226 C26.0214516,13.5928226 26.3404032,13.9117742 26.3404032,14.3047581 C26.3404032,14.6977419 26.0214516,15.0166935 25.6284677,15.0166935 Z" id="Path" fill="#F2ECBF"></path>
                <path d="M35.5950806,23.5595161 L28.4760484,23.5595161 C28.0830645,23.5595161 27.7641129,23.2405645 27.7641129,22.8475806 C27.7641129,22.4545968 28.0830645,22.1356452 28.4760484,22.1356452 L35.5950806,22.1356452 C35.9880645,22.1356452 36.3070161,22.4545968 36.3070161,22.8475806 C36.3070161,23.2405645 35.9880645,23.5595161 35.5950806,23.5595161 Z" id="Path" fill="#25AE88"></path>
                <path d="M25.6284677,23.5595161 L23.4927419,23.5595161 C23.0997581,23.5595161 22.7808065,23.2405645 22.7808065,22.8475806 C22.7808065,22.4545968 23.0997581,22.1356452 23.4927419,22.1356452 L25.6284677,22.1356452 C26.0214516,22.1356452 26.3404032,22.4545968 26.3404032,22.8475806 C26.3404032,23.2405645 26.0214516,23.5595161 25.6284677,23.5595161 Z" id="Path" fill="#DD352E"></path>
                <path d="M30.6117742,17.8642742 L23.4927419,17.8642742 C23.0997581,17.8642742 22.7808065,17.5453226 22.7808065,17.1523387 C22.7808065,16.7593548 23.0997581,16.4404032 23.4927419,16.4404032 L30.6117742,16.4404032 C31.0047581,16.4404032 31.3237097,16.7593548 31.3237097,17.1523387 C31.3237097,17.5453226 31.0047581,17.8642742 30.6117742,17.8642742 Z" id="Path" fill="#75348B"></path>
                <path d="M35.5950806,17.8642742 L33.4593548,17.8642742 C33.066371,17.8642742 32.7474194,17.5453226 32.7474194,17.1523387 C32.7474194,16.7593548 33.066371,16.4404032 33.4593548,16.4404032 L35.5950806,16.4404032 C35.9880645,16.4404032 36.3070161,16.7593548 36.3070161,17.1523387 C36.3070161,17.5453226 35.9880645,17.8642742 35.5950806,17.8642742 Z" id="Path" fill="#EBBA16"></path>
                <path d="M35.5950806,20.7119355 L28.4760484,20.7119355 C28.0830645,20.7119355 27.7641129,20.3929839 27.7641129,20 C27.7641129,19.6070161 28.0830645,19.2880645 28.4760484,19.2880645 L35.5950806,19.2880645 C35.9880645,19.2880645 36.3070161,19.6070161 36.3070161,20 C36.3070161,20.3929839 35.9880645,20.7119355 35.5950806,20.7119355 Z" id="Path" fill="#ED8A19"></path>
                <path d="M25.6284677,20.7119355 L23.4927419,20.7119355 C23.0997581,20.7119355 22.7808065,20.3929839 22.7808065,20 C22.7808065,19.6070161 23.0997581,19.2880645 23.4927419,19.2880645 L25.6284677,19.2880645 C26.0214516,19.2880645 26.3404032,19.6070161 26.3404032,20 C26.3404032,20.3929839 26.0214516,20.7119355 25.6284677,20.7119355 Z" id="Path" fill="#C5411E"></path>
            </g>
        </g>
    </g>
</svg>