<?xml version="1.0" encoding="UTF-8"?>
<svg width="488px" height="96px" viewBox="0 0 488 96" version="1.1" xmlns="http://www.w3.org/2000/svg" xmlns:xlink="http://www.w3.org/1999/xlink">
    <!-- Generator: Sketch 52.3 (67297) - http://www.bohemiancoding.com/sketch -->
    <title>Group 31</title>
    <desc>Created with Sketch.</desc>
    <defs>
        <circle id="path-1" cx="43.2254309" cy="42.8229572" r="42.5"></circle>
    </defs>
    <g id="Page-1" stroke="none" stroke-width="1" fill="none" fill-rule="evenodd">
        <g id="Artboard" transform="translate(-1616.000000, -570.000000)">
            <g id="Group-31" transform="translate(1616.000000, 570.000000)">
                <g id="Group-16">
                    <g id="Group-10">
                        <g id="Group-3">
                            <path d="M189.862013,48.2422864 L20.0283096,48.2422864" id="Line-2" stroke="#FFF60F" stroke-width="5" stroke-linecap="square"></path>
                            <g id="Group-2" transform="translate(110.000000, 0.000000)">
                                <rect id="Rectangle" fill="#FFF60F" x="0" y="1.42108547e-14" width="378" height="96" rx="48"></rect>
                                <g id="profile" transform="translate(3.274569, 4.677043)">
                                    <mask id="mask-2" fill="white">
                                        <use xlink:href="#path-1"></use>
                                    </mask>
                                    <use id="Mask" fill="#FFFFFF" xlink:href="#path-1"></use>
                                </g>
                            </g>
                            <circle id="Oval" fill="#FFF60F" cx="9.5" cy="48.5" r="9.5"></circle>
                        </g>
                    </g>
                </g>
                <g id="web-design" transform="translate(128.000000, 20.000000)">
                    <polygon id="Path" fill="#757C80" points="36.1 56.05 20.9 56.05 22.8 44.65 22.8 40.85 34.2 40.85 34.2 44.65"></polygon>
                    <rect id="Rectangle" fill="#B5B8B9" x="0.95" y="0.95" width="55.1" height="43.7" rx="16"></rect>
                    <path d="M2.85,0.95 L54.15,0.95 C55.199341,0.95 56.05,1.80065898 56.05,2.85 L56.05,8.55 L0.95,8.55 L0.95,2.85 C0.95,1.80065898 1.80065898,0.95 2.85,0.95 Z" id="Path" fill="#2B70A8"></path>
                    <polygon id="Path" fill="#FAE8D8" points="0.95 8.55 56.05 8.55 56.05 35.15 0.95 35.15"></polygon>
                    <polygon id="Path" fill="#FCB442" points="8.55 16.15 19.95 16.15 19.95 27.55 8.55 27.55"></polygon>
                    <path d="M44.635902,32.5622756 L48.4353281,32.5622756 L48.4353281,54.8303561 C48.4353281,55.8795387 47.5847976,56.7300692 46.535615,56.7300692 C45.4864325,56.7300692 44.635902,55.8795387 44.635902,54.8303561 L44.635902,32.5622756 Z" id="Path" fill="#2B70A8" transform="translate(46.535615, 44.646172) rotate(-45.000000) translate(-46.535615, -44.646172) "></path>
                    <polygon id="Path" fill="#FCB442" transform="translate(37.682582, 35.791138) rotate(-45.000000) translate(-37.682582, -35.791138) " points="35.7828687 30.1833635 39.5822949 30.1833635 39.5822949 41.3989133 35.7828687 41.3989133"></polygon>
                    <polygon id="Path" fill="#FCB442" points="27.55 12.35 52.25 12.35 52.25 18.05 27.55 18.05"></polygon>
                    <path d="M27.55,25.65 L29.041975,32.1151062 C29.3631166,33.5067283 30.4374319,34.6007693 31.8229813,34.947175 L34.9392188,35.7262937 L37.6262938,33.0392187 L36.847175,29.9229812 C36.5007693,28.5374319 35.4067283,27.4631166 34.0151063,27.141975 L27.55,25.65 Z" id="Path" fill="#976048"></path>
                    <path d="M57,42.75 L57,2.85 C56.9981677,1.27674803 55.723252,0.00183225605 54.15,0 L2.85,0 C1.27674803,0.00183225605 0.00183225605,1.27674803 0,2.85 L0,42.75 C0.00183225605,44.323252 1.27674803,45.5981677 2.85,45.6 L21.678525,45.6 L20.0952313,55.1 L16.15,55.1 C15.6253295,55.1 15.2,55.5253295 15.2,56.05 C15.2,56.5746705 15.6253295,57 16.15,57 L40.85,57 C41.3746705,57 41.8,56.5746705 41.8,56.05 C41.8,55.5253295 41.3746705,55.1 40.85,55.1 L36.9047687,55.1 L35.321475,45.6 L43.4692687,45.6 L51.7329625,53.8636937 C52.845955,54.976678 54.6504637,54.976678 55.7634562,53.8636937 C56.8746079,52.7499427 56.8746079,50.946951 55.7634562,49.8332 L51.5302562,45.6 L54.15,45.6 C55.723252,45.5981677 56.9981677,44.323252 57,42.75 Z M36.2829938,35.72665 L37.6264125,34.3831125 L41.6567875,38.4134875 L40.31325,39.7575 L36.2829938,35.72665 Z M34.6484,34.6742875 L32.053475,34.0255562 C31.0127864,33.7684498 30.2058507,32.9467674 29.9676313,31.9015937 L28.8174188,26.9174187 L33.8015938,28.0676312 C34.8467674,28.3058507 35.6684498,29.1127864 35.9255563,30.153475 L36.5742875,32.7484 L34.6484,34.6742875 Z M38.484025,32.5540062 L37.768675,29.6921312 C37.3400032,27.9576794 35.9704701,26.6128615 34.2285,26.2158437 L27.76375,24.7243437 C27.4445879,24.6506913 27.1099959,24.7466512 26.8783829,24.9782641 C26.6467699,25.2098771 26.55081,25.5444691 26.6244625,25.8636312 L28.1164375,32.3287375 C28.2735596,33.0108917 28.579513,33.6498862 29.0124063,34.2 L1.9,34.2 L1.9,9.5 L55.1,9.5 L55.1,34.2 L40.1302562,34.2 L38.484025,32.5540062 Z M2.85,1.9 L54.15,1.9 C54.6744264,1.90058899 55.099411,2.32557365 55.1,2.85 L55.1,7.6 L1.9,7.6 L1.9,2.85 C1.90058899,2.32557365 2.32557365,1.90058899 2.85,1.9 Z M34.978525,55.1 L22.021475,55.1 L23.6047687,45.6 L33.3952312,45.6 L34.978525,55.1 Z M2.85,43.7 C2.32557365,43.699411 1.90058899,43.2744264 1.9,42.75 L1.9,36.1 L32.517075,36.1 L34.4534125,36.584025 L41.5692687,43.7 L2.85,43.7 Z M54.4199188,52.5201562 C54.2417578,52.6983264 54.0001141,52.7984221 53.74815,52.7984221 C53.4961859,52.7984221 53.2545422,52.6983264 53.0763813,52.5201562 L41.6567875,41.1005625 L43.000325,39.7575 L54.4199188,51.1770937 C54.7899696,51.5483118 54.7899696,52.1489382 54.4199188,52.5201562 Z M42.0302563,36.1 L55.1,36.1 L55.1,42.75 C55.099411,43.2744264 54.6744264,43.699411 54.15,43.7 L49.6302563,43.7 L42.0302563,36.1 Z" id="Shape" fill="#000000" fill-rule="nonzero"></path>
                    <path d="M30.4,38 L26.6,38 C26.0753295,38 25.65,38.4253295 25.65,38.95 C25.65,39.4746705 26.0753295,39.9 26.6,39.9 L30.4,39.9 C30.9246705,39.9 31.35,39.4746705 31.35,38.95 C31.35,38.4253295 30.9246705,38 30.4,38 Z" id="Path" fill="#000000"></path>
                    <circle id="Oval" fill="#000000" cx="4.75" cy="4.75" r="1"></circle>
                    <circle id="Oval" fill="#000000" cx="8.55" cy="4.75" r="1"></circle>
                    <circle id="Oval" fill="#000000" cx="12.35" cy="4.75" r="1"></circle>
                    <path d="M10.45,13.3 L12.35,13.3 C12.8746705,13.3 13.3,12.8746705 13.3,12.35 C13.3,11.8253295 12.8746705,11.4 12.35,11.4 L10.45,11.4 C9.92532949,11.4 9.5,11.8253295 9.5,12.35 C9.5,12.8746705 9.92532949,13.3 10.45,13.3 Z" id="Path" fill="#000000"></path>
                    <path d="M16.15,13.3 L18.05,13.3 C18.5746705,13.3 19,12.8746705 19,12.35 C19,11.8253295 18.5746705,11.4 18.05,11.4 L16.15,11.4 C15.6253295,11.4 15.2,11.8253295 15.2,12.35 C15.2,12.8746705 15.6253295,13.3 16.15,13.3 Z" id="Path" fill="#000000"></path>
                    <path d="M6.65,30.4 L5.7,30.4 L5.7,29.45 C5.7,28.9253295 5.27467051,28.5 4.75,28.5 C4.22532949,28.5 3.8,28.9253295 3.8,29.45 L3.8,31.35 C3.8,31.8746705 4.22532949,32.3 4.75,32.3 L6.65,32.3 C7.17467051,32.3 7.6,31.8746705 7.6,31.35 C7.6,30.8253295 7.17467051,30.4 6.65,30.4 Z" id="Path" fill="#000000"></path>
                    <path d="M12.35,30.4 L10.45,30.4 C9.92532949,30.4 9.5,30.8253295 9.5,31.35 C9.5,31.8746705 9.92532949,32.3 10.45,32.3 L12.35,32.3 C12.8746705,32.3 13.3,31.8746705 13.3,31.35 C13.3,30.8253295 12.8746705,30.4 12.35,30.4 Z" id="Path" fill="#000000"></path>
                    <path d="M18.05,30.4 L16.15,30.4 C15.6253295,30.4 15.2,30.8253295 15.2,31.35 C15.2,31.8746705 15.6253295,32.3 16.15,32.3 L18.05,32.3 C18.5746705,32.3 19,31.8746705 19,31.35 C19,30.8253295 18.5746705,30.4 18.05,30.4 Z" id="Path" fill="#000000"></path>
                    <path d="M23.75,11.4 L21.85,11.4 C21.3253295,11.4 20.9,11.8253295 20.9,12.35 C20.9,12.8746705 21.3253295,13.3 21.85,13.3 L22.8,13.3 L22.8,14.25 C22.8,14.7746705 23.2253295,15.2 23.75,15.2 C24.2746705,15.2 24.7,14.7746705 24.7,14.25 L24.7,12.35 C24.7,11.8253295 24.2746705,11.4 23.75,11.4 Z" id="Path" fill="#000000"></path>
                    <path d="M23.75,17.1 C23.2253295,17.1 22.8,17.5253295 22.8,18.05 L22.8,19.95 C22.8,20.4746705 23.2253295,20.9 23.75,20.9 C24.2746705,20.9 24.7,20.4746705 24.7,19.95 L24.7,18.05 C24.7,17.5253295 24.2746705,17.1 23.75,17.1 Z" id="Path" fill="#000000"></path>
                    <path d="M23.75,22.8 C23.2253295,22.8 22.8,23.2253295 22.8,23.75 L22.8,25.65 C22.8,26.1746705 23.2253295,26.6 23.75,26.6 C24.2746705,26.6 24.7,26.1746705 24.7,25.65 L24.7,23.75 C24.7,23.2253295 24.2746705,22.8 23.75,22.8 Z" id="Path" fill="#000000"></path>
                    <path d="M23.75,28.5 C23.2253295,28.5 22.8,28.9253295 22.8,29.45 L22.8,30.4 L21.85,30.4 C21.3253295,30.4 20.9,30.8253295 20.9,31.35 C20.9,31.8746705 21.3253295,32.3 21.85,32.3 L23.75,32.3 C24.2746705,32.3 24.7,31.8746705 24.7,31.35 L24.7,29.45 C24.7,28.9253295 24.2746705,28.5 23.75,28.5 Z" id="Path" fill="#000000"></path>
                    <path d="M4.75,15.2 C5.27467051,15.2 5.7,14.7746705 5.7,14.25 L5.7,13.3 L6.65,13.3 C7.17467051,13.3 7.6,12.8746705 7.6,12.35 C7.6,11.8253295 7.17467051,11.4 6.65,11.4 L4.75,11.4 C4.22532949,11.4 3.8,11.8253295 3.8,12.35 L3.8,14.25 C3.8,14.7746705 4.22532949,15.2 4.75,15.2 Z" id="Path" fill="#000000"></path>
                    <path d="M4.75,20.9 C5.27467051,20.9 5.7,20.4746705 5.7,19.95 L5.7,18.05 C5.7,17.5253295 5.27467051,17.1 4.75,17.1 C4.22532949,17.1 3.8,17.5253295 3.8,18.05 L3.8,19.95 C3.8,20.4746705 4.22532949,20.9 4.75,20.9 Z" id="Path" fill="#000000"></path>
                    <path d="M4.75,26.6 C5.27467051,26.6 5.7,26.1746705 5.7,25.65 L5.7,23.75 C5.7,23.2253295 5.27467051,22.8 4.75,22.8 C4.22532949,22.8 3.8,23.2253295 3.8,23.75 L3.8,25.65 C3.8,26.1746705 4.22532949,26.6 4.75,26.6 Z" id="Path" fill="#000000"></path>
                    <path d="M33.25,20.9 L27.55,20.9 C27.0253295,20.9 26.6,21.3253295 26.6,21.85 C26.6,22.3746705 27.0253295,22.8 27.55,22.8 L33.25,22.8 C33.7746705,22.8 34.2,22.3746705 34.2,21.85 C34.2,21.3253295 33.7746705,20.9 33.25,20.9 Z" id="Path" fill="#000000"></path>
                    <path d="M52.25,20.9 L37.05,20.9 C36.5253295,20.9 36.1,21.3253295 36.1,21.85 C36.1,22.3746705 36.5253295,22.8 37.05,22.8 L52.25,22.8 C52.7746705,22.8 53.2,22.3746705 53.2,21.85 C53.2,21.3253295 52.7746705,20.9 52.25,20.9 Z" id="Path" fill="#000000"></path>
                    <path d="M52.25,24.7 L38.95,24.7 C38.4253295,24.7 38,25.1253295 38,25.65 C38,26.1746705 38.4253295,26.6 38.95,26.6 L52.25,26.6 C52.7746705,26.6 53.2,26.1746705 53.2,25.65 C53.2,25.1253295 52.7746705,24.7 52.25,24.7 Z" id="Path" fill="#000000"></path>
                    <path d="M52.25,11.4 L27.55,11.4 C27.0253295,11.4 26.6,11.8253295 26.6,12.35 L26.6,18.05 C26.6,18.5746705 27.0253295,19 27.55,19 L52.25,19 C52.7746705,19 53.2,18.5746705 53.2,18.05 L53.2,12.35 C53.2,11.8253295 52.7746705,11.4 52.25,11.4 Z M51.3,17.1 L28.5,17.1 L28.5,13.3 L51.3,13.3 L51.3,17.1 Z" id="Shape" fill="#000000" fill-rule="nonzero"></path>
                    <path d="M20.9,16.15 C20.9,15.6253295 20.4746705,15.2 19.95,15.2 L8.55,15.2 C8.02532949,15.2 7.6,15.6253295 7.6,16.15 L7.6,27.55 C7.6,28.0746705 8.02532949,28.5 8.55,28.5 L19.95,28.5 C20.4746705,28.5 20.9,28.0746705 20.9,27.55 L20.9,16.15 Z M19,26.6 L9.5,26.6 L9.5,17.1 L19,17.1 L19,26.6 Z" id="Shape" fill="#000000" fill-rule="nonzero"></path>
                </g>
            </g>
        </g>
    </g>
</svg>