<?xml version="1.0" encoding="UTF-8"?>
<svg width="99px" height="99px" viewBox="0 0 99 99" version="1.1" xmlns="http://www.w3.org/2000/svg" xmlns:xlink="http://www.w3.org/1999/xlink">
    <!-- Generator: Sketch 52.3 (67297) - http://www.bohemiancoding.com/sketch -->
    <title>Group 20</title>
    <desc>Created with Sketch.</desc>
    <defs>
        <filter x="-18.8%" y="-18.8%" width="137.6%" height="137.6%" filterUnits="objectBoundingBox" id="filter-1">
            <feOffset dx="0" dy="2" in="SourceAlpha" result="shadowOffsetOuter1"></feOffset>
            <feGaussianBlur stdDeviation="2" in="shadowOffsetOuter1" result="shadowBlurOuter1"></feGaussianBlur>
            <feColorMatrix values="0 0 0 0 0   0 0 0 0 0   0 0 0 0 0  0 0 0 0.5 0" type="matrix" in="shadowBlurOuter1" result="shadowMatrixOuter1"></feColorMatrix>
            <feMerge>
                <feMergeNode in="shadowMatrixOuter1"></feMergeNode>
                <feMergeNode in="SourceGraphic"></feMergeNode>
            </feMerge>
        </filter>
        <circle id="path-2" cx="42.5" cy="42.5" r="42.5"></circle>
        <filter x="-7.1%" y="-7.1%" width="114.1%" height="114.1%" filterUnits="objectBoundingBox" id="filter-4">
            <feOffset dx="0" dy="0" in="SourceAlpha" result="shadowOffsetOuter1"></feOffset>
            <feGaussianBlur stdDeviation="2" in="shadowOffsetOuter1" result="shadowBlurOuter1"></feGaussianBlur>
            <feColorMatrix values="0 0 0 0 0   0 0 0 0 0   0 0 0 0 0  0 0 0 0.5 0" type="matrix" in="shadowBlurOuter1"></feColorMatrix>
        </filter>
        <filter x="-13.6%" y="-14.8%" width="127.7%" height="129.6%" filterUnits="objectBoundingBox" id="filter-5">
            <feOffset dx="0" dy="0" in="SourceAlpha" result="shadowOffsetOuter1"></feOffset>
            <feGaussianBlur stdDeviation="2" in="shadowOffsetOuter1" result="shadowBlurOuter1"></feGaussianBlur>
            <feColorMatrix values="0 0 0 0 0   0 0 0 0 0   0 0 0 0 0  0 0 0 0.5 0" type="matrix" in="shadowBlurOuter1" result="shadowMatrixOuter1"></feColorMatrix>
            <feMerge>
                <feMergeNode in="shadowMatrixOuter1"></feMergeNode>
                <feMergeNode in="SourceGraphic"></feMergeNode>
            </feMerge>
        </filter>
    </defs>
    <g id="Page-1" stroke="none" stroke-width="1" fill="none" fill-rule="evenodd">
        <g id="Artboard" transform="translate(-195.000000, -99.000000)">
            <g id="Group-20" transform="translate(202.000000, 104.000000)">
                <g id="Group-19">
                    <g id="Group-18">
                        <g id="Group-17">
                            <g id="Group-16">
                                <g id="Group-15">
                                    <g id="Group-14">
                                        <g id="Group-13">
                                            <g id="Group-12">
                                                <g id="Group-11">
                                                    <g id="Group-10">
                                                        <g id="Group-5">
                                                            <g id="Group">
                                                                <g id="Group-2" filter="url(#filter-1)">
                                                                    <mask id="mask-3" fill="white">
                                                                        <use xlink:href="#path-2"></use>
                                                                    </mask>
                                                                    <g id="Mask">
                                                                        <use fill="black" fill-opacity="1" filter="url(#filter-4)" xlink:href="#path-2"></use>
                                                                        <use fill="#FFFFFF" fill-rule="evenodd" xlink:href="#path-2"></use>
                                                                    </g>
                                                                </g>
                                                            </g>
                                                        </g>
                                                    </g>
                                                </g>
                                            </g>
                                        </g>
                                    </g>
                                </g>
                            </g>
                        </g>
                    </g>
                </g>
                <g id="website" filter="url(#filter-5)" transform="translate(15.000000, 15.000000)">
                    <path d="M8.69514407,52.8070805 L4.79604661,52.8070805 C2.77791102,52.8070805 1.14189407,51.1710636 1.14189407,49.152928 L1.14189407,1.19280508 L52.7561695,1.19280508 L52.7561695,49.152928 C52.7561695,51.1710636 51.1201525,52.8070805 49.1020169,52.8070805 L44.2586059,52.8070805 L8.69514407,52.8070805 Z" id="Path" fill="#FFFFFF"></path>
                    <path d="M49.1021314,1.19280508 L4.79604661,1.19280508 C2.77791102,1.19280508 1.14189407,2.82882203 1.14189407,4.84695763 L1.14189407,9.41464831 L52.7561695,9.41464831 L52.7561695,4.84695763 C52.7561695,2.82882203 51.1201525,1.19280508 49.1021314,1.19280508 Z" id="Path" fill="#A5DC69"></path>
                    <g id="Group" transform="translate(7.207627, 17.389831)" fill="#78D2FA">
                        <rect id="Rectangle" x="0.100563559" y="0.0176186441" width="23.5723729" height="15.9867458"></rect>
                        <polygon id="Path" points="50.2266356 31.0294068 40.4297542 21.232411 44.8670212 16.7950297 50.1155466 22.0434407"></polygon>
                    </g>
                    <path d="M2.29625847,9.42483051 L52.1852797,9.42483051" id="Path" fill="#231F20"></path>
                    <circle id="Oval" fill="#FF5A5A" cx="38.9481864" cy="25.4956653" r="12.231"></circle>
                    <path d="M23.3889788,6.44556356 L47.091089,6.44556356 C47.7216992,6.44556356 48.2329831,5.93416525 48.2329831,5.30366949 C48.2329831,4.67317373 47.7215847,4.16177542 47.091089,4.16177542 L23.3889788,4.16177542 C22.7583686,4.16177542 22.2470847,4.67317373 22.2470847,5.30366949 C22.2470847,5.93416525 22.7584831,6.44556356 23.3889788,6.44556356 Z" id="Path" fill="#000000"></path>
                    <path d="M11.0033008,6.44556356 C11.3037331,6.44556356 11.5982161,6.32337712 11.8106695,6.11092373 C12.0230085,5.89869915 12.1451949,5.60398729 12.1451949,5.30366949 C12.1451949,5.00335169 12.0231229,4.70875424 11.8106695,4.49630085 C11.5982161,4.28396186 11.3037331,4.16177542 11.0033008,4.16177542 C10.7029831,4.16177542 10.4083856,4.28384746 10.1960466,4.49630085 C9.98370763,4.70863983 9.86140678,5.00220763 9.86140678,5.30366949 C9.86140678,5.60398729 9.98359322,5.89858475 10.1960466,6.11092373 C10.4083856,6.32337712 10.7029831,6.44556356 11.0033008,6.44556356 Z" id="Path" fill="#000000"></path>
                    <path d="M6.80686017,6.44556356 C7.10729237,6.44556356 7.40177542,6.32337712 7.61422881,6.11092373 C7.8265678,5.89869915 7.94875424,5.60398729 7.94875424,5.30366949 C7.94875424,5.00335169 7.8266822,4.70875424 7.61422881,4.49630085 C7.40177542,4.28396186 7.10729237,4.16177542 6.80686017,4.16177542 C6.50654237,4.16177542 6.21194492,4.28384746 5.99960593,4.49630085 C5.78726695,4.70863983 5.6649661,5.00335169 5.6649661,5.30366949 C5.6649661,5.60398729 5.78715254,5.89858475 5.99960593,6.11092373 C6.21183051,6.32337712 6.50642797,6.44556356 6.80686017,6.44556356 Z" id="Path" fill="#000000"></path>
                    <path d="M15.1988263,6.44556356 C15.5004025,6.44556356 15.7937415,6.32337712 16.007339,6.11092373 C16.219678,5.89869915 16.3407203,5.60398729 16.3407203,5.30366949 C16.3407203,5.00335169 16.219678,4.70875424 16.007339,4.49630085 C15.7938559,4.28396186 15.5004025,4.16177542 15.1988263,4.16177542 C14.8985085,4.16177542 14.6050551,4.28384746 14.391572,4.49630085 C14.1792331,4.70863983 14.0569322,5.00335169 14.0569322,5.30366949 C14.0569322,5.60398729 14.1791186,5.89858475 14.391572,6.11092373 C14.6049407,6.32337712 14.8985085,6.44556356 15.1988263,6.44556356 Z" id="Path" fill="#000000"></path>
                    <path d="M58.2418602,47.6116398 L49.2523475,38.6222415 L50.6626398,37.2119492 C50.6629831,37.2116059 50.6634407,37.2112627 50.6637839,37.2109195 C50.6641271,37.2105763 50.6644703,37.2101186 50.6648136,37.2097754 L52.0747627,35.7998263 L56.5156907,40.2408686 C56.9617627,40.6867119 57.6845847,40.6867119 58.1306568,40.2408686 C58.5766144,39.794911 58.5766144,39.0718602 58.1306568,38.6259025 L52.8823602,33.3776059 C52.4365169,32.9318771 51.7136949,32.9316483 51.2673941,33.3776059 L49.8563008,34.7885847 L49.1727203,34.1050042 C51.1361695,31.7770551 52.3213093,28.7725042 52.3213093,25.4958941 C52.3213093,18.1222627 46.3223898,12.1233432 38.9487585,12.1233432 C35.1499958,12.1233432 31.7160763,13.7156568 29.2794407,16.2677288 C29.2686864,16.2673856 29.2582754,16.2661271 29.2475212,16.2661271 L7.30819068,16.2661271 C6.67758051,16.2661271 6.16629661,16.7775254 6.16629661,17.4080212 L6.16629661,33.3947669 C6.16629661,34.0253771 6.67769492,34.536661 7.30819068,34.536661 L29.1043983,34.536661 C31.5504153,37.1978771 35.0578983,38.8685593 38.9486441,38.8685593 C42.2252542,38.8685593 45.2296907,37.6833051 47.5577542,35.7199703 L48.2413347,36.4035508 L46.8298983,37.8149873 C46.6158432,38.0290424 46.4954873,38.3196356 46.4954873,38.6224703 C46.4954873,38.9253051 46.6158432,39.2156695 46.8298983,39.4299534 L51.6142754,44.2143305 L51.6142754,49.1531568 C51.6142754,50.5383941 50.4873686,51.6653008 49.1021314,51.6653008 L4.79604661,51.6653008 C3.41080932,51.6653008 2.28390254,50.5383941 2.28390254,49.1531568 L2.28390254,10.5558559 C2.28813559,10.5558559 2.29225424,10.5565424 2.29637288,10.5565424 L51.6143898,10.5565424 L51.6143898,15.7034746 C51.6143898,16.3340847 52.1257881,16.8453686 52.7562839,16.8453686 C53.3868941,16.8453686 53.898178,16.3339703 53.898178,15.7034746 L53.898178,4.84695763 C53.898178,2.20244492 51.7467585,0.0509110169 49.1021314,0.0509110169 L4.79604661,0.0509110169 C2.15141949,0.0509110169 0,2.20244492 0,4.84695763 L0,49.1530424 C0,51.7975551 2.15141949,53.949089 4.79604661,53.949089 L49.1021314,53.949089 C51.7466441,53.949089 53.898178,51.7976695 53.898178,49.1530424 L53.898178,46.4978898 L56.6268941,49.2266059 C56.8498729,49.4494703 57.1420678,49.5610169 57.4343771,49.5610169 C57.726572,49.5610169 58.0187669,49.4494703 58.2418602,49.2266059 C58.6877034,48.7806483 58.6877034,48.0575975 58.2418602,47.6116398 Z M8.45008475,32.2527585 L8.45008475,18.5498008 L27.5254703,18.5498008 C26.2890763,20.5756017 25.5759788,22.9538898 25.5759788,25.4957797 C25.5759788,25.6120169 25.5774661,25.727911 25.5804407,25.8433475 L24.1414322,23.0636059 C23.8515254,22.5034703 23.1622246,22.2846102 22.6022034,22.5745169 C22.0421822,22.8644237 21.8232076,23.5534958 22.1131144,24.1137458 L24.7945805,29.2935127 C24.9976525,29.6858136 25.3964746,29.9106229 25.8095975,29.9106229 C25.9704534,29.9106229 26.1332542,29.8746992 26.2877034,29.8030805 C26.5806992,30.662161 26.9595,31.4817712 27.4127797,32.2526441 L8.45008475,32.2527585 Z M27.8599958,25.4958941 C27.8599958,25.4088305 27.8612542,25.3221102 27.8633136,25.2355042 L29.9639364,29.2935127 C30.1603729,29.673 30.5516441,29.9105085 30.9779237,29.9105085 C30.9836441,29.9105085 30.9894788,29.9105085 30.9950847,29.9103941 C31.428,29.9038729 31.8199576,29.6532076 32.0073559,29.2629661 L34.4951314,24.0831992 C34.7682203,23.5145975 34.5285381,22.8326186 33.9600508,22.5594153 C33.3920212,22.2866695 32.7094703,22.5260085 32.4362669,23.0944958 L30.9397119,26.210822 L29.3106737,23.0639492 C29.106,22.6686737 28.7024873,22.444322 28.2860466,22.4477542 C29.6136229,17.8108475 33.8910636,14.4071314 38.9487585,14.4071314 C45.0631144,14.4071314 50.0375212,19.3816525 50.0375212,25.4958941 C50.0375212,31.6101356 45.063,36.5846568 38.9487585,36.5846568 C32.8345169,36.5846568 27.8599958,31.61025 27.8599958,25.4958941 Z M4.79604661,2.33469915 L49.1021314,2.33469915 C50.4873686,2.33469915 51.6142754,3.46160593 51.6142754,4.84684322 L51.6142754,8.27252542 L2.29625847,8.27252542 C2.29202542,8.27252542 2.28790678,8.27309746 2.28378814,8.27321186 L2.28378814,4.84695763 C2.28378814,3.46172034 3.41080932,2.33469915 4.79604661,2.33469915 Z" id="Shape" fill="#000000" fill-rule="nonzero"></path>
                    <path d="M20.8764915,22.5593008 C20.3084619,22.2865551 19.625911,22.5258941 19.3527076,23.0943814 L17.8561525,26.2105932 L16.2271144,23.0637203 C16.028161,22.6790847 15.6304831,22.4390593 15.1959661,22.446839 C14.7630508,22.4533602 14.3710932,22.7040254 14.1836949,23.0942669 L12.6871398,26.2104788 L11.0581017,23.0636059 C10.7681949,22.5033559 10.0786653,22.2844958 9.51898729,22.5744025 C8.95885169,22.8643093 8.73987712,23.5533814 9.0297839,24.1135169 L11.7111356,29.2932839 C11.9102034,29.6779195 12.3108559,29.9168008 12.7422839,29.9101653 C13.1751992,29.9036441 13.5671568,29.6529788 13.7545551,29.2627373 L15.2511102,26.146411 L16.8801483,29.2932839 C17.0765847,29.6727712 17.4678559,29.9102797 17.8941356,29.9102797 C17.8998559,29.9102797 17.9056907,29.9102797 17.9112966,29.9101653 C18.3442119,29.9036441 18.7361695,29.6529788 18.9235678,29.2627373 L21.4113432,24.0829703 C21.6845466,23.5145975 21.4450932,22.8325042 20.8764915,22.5593008 Z" id="Path" fill="#000000"></path>
                    <path d="M47.0437246,22.5593008 C46.4751229,22.2865551 45.7931441,22.5258941 45.5199407,23.0943814 L44.0233856,26.2105932 L42.3943475,23.0636059 C42.1953941,22.6791992 41.7927966,22.4415763 41.3631992,22.446839 C40.9302839,22.4533602 40.5383263,22.7040254 40.350928,23.0942669 L38.8543729,26.2105932 L37.2253347,23.0636059 C36.935428,22.5036992 36.2465847,22.2846102 35.6861059,22.5745169 C35.1260847,22.8644237 34.9071102,23.5534958 35.1970169,24.1137458 L37.8784831,29.2935127 C38.0749195,29.6727712 38.4661907,29.9103941 38.8924703,29.9103941 C38.8983051,29.9103941 38.9040254,29.9103941 38.9096314,29.9102797 C39.3425466,29.9037585 39.7345042,29.6530932 39.9219025,29.2628517 L41.4184576,26.1465254 L43.0474958,29.2935127 C43.2439322,29.6727712 43.6352034,29.9103941 44.0614831,29.9103941 C44.0673178,29.9103941 44.0730381,29.9103941 44.0786441,29.9102797 C44.5115593,29.9037585 44.9035169,29.6530932 45.0909153,29.2628517 L47.5785763,24.0830847 C47.8516653,23.5145975 47.6120975,22.8325042 47.0437246,22.5593008 Z" id="Path" fill="#000000"></path>
                    <path d="M6.50093644,43.5496271 C6.28859746,43.7619661 6.16641102,44.056678 6.16641102,44.3569958 C6.16641102,44.6573136 6.28848305,44.951911 6.50093644,45.16425 C6.71327542,45.376589 7.00798729,45.4988898 7.30830508,45.4988898 C7.60862288,45.4988898 7.90322034,45.3767034 8.11555932,45.16425 C8.32789831,44.9520254 8.45019915,44.6573136 8.45019915,44.3569958 C8.45019915,44.056678 8.32801271,43.7620805 8.11555932,43.5496271 C7.90333475,43.3361441 7.60862288,43.2151017 7.30830508,43.2151017 C7.00787288,43.2151017 6.71327542,43.3361441 6.50093644,43.5496271 Z" id="Path" fill="#000000"></path>
                    <path d="M10.0867881,44.3581398 C10.0867881,44.98875 10.5981864,45.5000339 11.2286822,45.5000339 L33.4656992,45.5000339 C34.0963093,45.5000339 34.6075932,44.9886356 34.6075932,44.3581398 C34.6075932,43.7275297 34.0961949,43.2162458 33.4656992,43.2162458 L11.2286822,43.2162458 C10.5981864,43.2162458 10.0867881,43.7274153 10.0867881,44.3581398 Z" id="Path" fill="#000000"></path>
                    <path d="M29.2328771,40.0183475 C29.8634873,40.0183475 30.3747712,39.5069492 30.3747712,38.8764534 C30.3747712,38.2458432 29.8633729,37.7345593 29.2328771,37.7345593 L22.4955763,37.7345593 C21.8649661,37.7345593 21.3536822,38.2459576 21.3536822,38.8764534 C21.3536822,39.5070636 21.8650805,40.0183475 22.4955763,40.0183475 L29.2328771,40.0183475 Z" id="Path" fill="#000000"></path>
                    <path d="M17.3674068,37.7344449 L7.30819068,37.7344449 C6.67758051,37.7344449 6.16629661,38.2458432 6.16629661,38.876339 C6.16629661,39.5069492 6.67769492,40.0182331 7.30819068,40.0182331 L17.3674068,40.0182331 C17.9980169,40.0182331 18.5093008,39.5068347 18.5093008,38.876339 C18.5093008,38.2458432 17.9980169,37.7344449 17.3674068,37.7344449 Z" id="Path" fill="#000000"></path>
                </g>
            </g>
        </g>
    </g>
</svg>