<?xml version="1.0" encoding="UTF-8"?>
<svg width="124px" height="93px" viewBox="0 0 124 93" version="1.1" xmlns="http://www.w3.org/2000/svg" xmlns:xlink="http://www.w3.org/1999/xlink">
    <!-- Generator: Sketch 52.3 (67297) - http://www.bohemiancoding.com/sketch -->
    <title>Artboard</title>
    <desc>Created with Sketch.</desc>
    <g id="Artboard" stroke="none" stroke-width="1" fill="none" fill-rule="evenodd">
        <g id="benchmark" transform="translate(30.000000, 14.000000)" fill="#FFFFFF">
            <path d="M65,19.5 C65,8.74791667 56.2520833,0 45.5,0 C34.7479167,0 26,8.74791667 26,19.5 C26,21.15425 26.2296667,22.7510833 26.6185833,24.2861667 L24.6891667,25.57425 C24.1464167,25.1669167 23.4790833,24.9166667 22.75,24.9166667 C22.0209167,24.9166667 21.3535833,25.1669167 20.8108333,25.57425 L16.1416667,22.4564167 C16.2055833,22.2018333 16.25,21.94075 16.25,21.6666667 C16.25,19.8748333 14.7918333,18.4166667 13,18.4166667 C11.2081667,18.4166667 9.75,19.8748333 9.75,21.6666667 C9.75,21.94075 9.79441667,22.2018333 9.85833333,22.4564167 L5.18916667,25.57425 C4.64641667,25.1669167 3.97908333,24.9166667 3.25,24.9166667 C1.45816667,24.9166667 0,26.3748333 0,28.1666667 C0,29.9585 1.45816667,31.4166667 3.25,31.4166667 C5.04183333,31.4166667 6.5,29.9585 6.5,28.1666667 C6.5,27.8925833 6.45558333,27.6315 6.39166667,27.3769167 L11.0608333,24.2590833 C11.6035833,24.6664167 12.2709167,24.9166667 13,24.9166667 C13.7290833,24.9166667 14.3964167,24.6664167 14.9391667,24.2590833 L19.6083333,27.3769167 C19.5444167,27.6315 19.5,27.8925833 19.5,28.1666667 C19.5,29.9585 20.9581667,31.4166667 22.75,31.4166667 C24.5418333,31.4166667 26,29.9585 26,28.1666667 C26,27.8925833 25.9555833,27.6315 25.8916667,27.3769167 L27.2978333,26.4376667 C29.7288333,32.7903333 35.3784167,37.5461667 42.25,38.7064167 L42.25,43.3333333 L41.1666667,43.3333333 C40.5675833,43.3333333 40.0833333,43.8186667 40.0833333,44.4166667 L40.0833333,59.5833333 C40.0833333,62.5700833 42.51325,65 45.5,65 C48.48675,65 50.9166667,62.5700833 50.9166667,59.5833333 L50.9166667,44.4166667 C50.9166667,43.8186667 50.4324167,43.3333333 49.8333333,43.3333333 L48.75,43.3333333 L48.75,38.7064167 C57.95725,37.1518333 65,29.14275 65,19.5 Z M3.25,29.25 C2.652,29.25 2.16666667,28.7635833 2.16666667,28.1666667 C2.16666667,27.56975 2.652,27.0833333 3.25,27.0833333 C3.848,27.0833333 4.33333333,27.56975 4.33333333,28.1666667 C4.33333333,28.7635833 3.848,29.25 3.25,29.25 Z M13,22.75 C12.402,22.75 11.9166667,22.2635833 11.9166667,21.6666667 C11.9166667,21.06975 12.402,20.5833333 13,20.5833333 C13.598,20.5833333 14.0833333,21.06975 14.0833333,21.6666667 C14.0833333,22.2635833 13.598,22.75 13,22.75 Z M22.75,29.25 C22.152,29.25 21.6666667,28.7635833 21.6666667,28.1666667 C21.6666667,27.56975 22.152,27.0833333 22.75,27.0833333 C23.348,27.0833333 23.8333333,27.56975 23.8333333,28.1666667 C23.8333333,28.7635833 23.348,29.25 22.75,29.25 Z M29.1503333,25.2015833 L30.5608333,24.2590833 C31.1035833,24.6664167 31.7709167,24.9166667 32.5,24.9166667 C33.2290833,24.9166667 33.8964167,24.6664167 34.4391667,24.2590833 L39.1083333,27.3769167 C39.0444167,27.6315 39,27.8925833 39,28.1666667 C39,29.9585 40.4581667,31.4166667 42.25,31.4166667 C44.0418333,31.4166667 45.5,29.9585 45.5,28.1666667 C45.5,27.6661667 45.3775833,27.1981667 45.1739167,26.7745833 L54.1666667,17.7818333 L54.1666667,22.75 L56.3333333,22.75 L56.3333333,15.1666667 C56.3333333,14.5686667 55.8490833,14.0833333 55.25,14.0833333 L47.6666667,14.0833333 L47.6666667,16.25 L52.6348333,16.25 L43.6420833,25.24275 C43.2185,25.0390833 42.7505,24.9166667 42.25,24.9166667 C41.5209167,24.9166667 40.8535833,25.1669167 40.3108333,25.57425 L35.6416667,22.4564167 C35.7055833,22.2018333 35.75,21.94075 35.75,21.6666667 C35.75,19.8748333 34.2918333,18.4166667 32.5,18.4166667 C30.7081667,18.4166667 29.25,19.8748333 29.25,21.6666667 C29.25,21.94075 29.2944167,22.2018333 29.3583333,22.4564167 L28.52525,23.0121667 C28.29125,21.8779167 28.1666667,20.7035833 28.1666667,19.5 C28.1666667,9.94283333 35.9428333,2.16666667 45.5,2.16666667 C55.0571667,2.16666667 62.8333333,9.94283333 62.8333333,19.5 C62.8333333,29.0571667 55.0571667,36.8333333 45.5,36.8333333 C37.9415833,36.8333333 31.51525,31.9626667 29.1503333,25.2015833 Z M31.4166667,21.6666667 C31.4166667,21.06975 31.902,20.5833333 32.5,20.5833333 C33.098,20.5833333 33.5833333,21.06975 33.5833333,21.6666667 C33.5833333,22.2635833 33.098,22.75 32.5,22.75 C31.902,22.75 31.4166667,22.2635833 31.4166667,21.6666667 Z M43.3333333,28.1666667 C43.3333333,28.7635833 42.848,29.25 42.25,29.25 C41.652,29.25 41.1666667,28.7635833 41.1666667,28.1666667 C41.1666667,27.56975 41.652,27.0833333 42.25,27.0833333 C42.848,27.0833333 43.3333333,27.56975 43.3333333,28.1666667 Z M48.75,59.5833333 C48.75,61.3751667 47.2918333,62.8333333 45.5,62.8333333 C43.7081667,62.8333333 42.25,61.3751667 42.25,59.5833333 L42.25,45.5 L48.75,45.5 L48.75,59.5833333 Z M46.5833333,43.3333333 L44.4166667,43.3333333 L44.4166667,38.94475 C44.7774167,38.9653333 45.1338333,39 45.5,39 C45.8661667,39 46.2225833,38.9653333 46.5833333,38.94475 L46.5833333,43.3333333 Z" id="Shape" fill-rule="nonzero"></path>
            <path d="M33.8633091,25.2994012 L31.9161677,26.3256429 C33.1747261,28.7668544 35.0559744,30.834887 37.3600368,32.3053892 L38.5329341,30.427278 C36.5561408,29.1655782 34.9417596,27.3918681 33.8633091,25.2994012 Z" id="Path"></path>
            <path d="M60.7185629,19.4610778 C60.7185629,11.0905902 53.9057063,4.28143713 45.530666,4.28143713 C38.4531061,4.28143713 32.373608,9.08362489 30.748503,15.9589179 L32.8607055,16.4576775 C34.2525678,10.5647241 39.4631012,6.44995723 45.530666,6.44995723 C52.709117,6.44995723 58.5488633,12.2865291 58.5488633,19.4610778 C58.5488633,26.6356266 52.709117,32.4721985 45.530666,32.4721985 C44.8602289,32.4721985 44.1854523,32.4212382 43.5258636,32.3193178 L43.1949845,34.4628999 C43.964143,34.5810843 44.7484893,34.6407186 45.530666,34.6407186 C53.9057063,34.6407186 60.7185629,27.8315654 60.7185629,19.4610778 Z" id="Path"></path>
            <polygon id="Path" points="0 0 6.61676647 0 6.61676647 2.33532934 0 2.33532934"></polygon>
            <polygon id="Path" points="8.56287425 0 23.742515 0 23.742515 2.33532934 8.56287425 2.33532934"></polygon>
            <polygon id="Path" points="0 4.28143713 14.011976 4.28143713 14.011976 6.61676647 0 6.61676647"></polygon>
            <polygon id="Path" points="16.3473054 4.28143713 23.742515 4.28143713 23.742515 6.61676647 16.3473054 6.61676647"></polygon>
            <polygon id="Path" points="0 8.56287425 2.33532934 8.56287425 2.33532934 10.8982036 0 10.8982036"></polygon>
            <polygon id="Path" points="4.28143713 8.56287425 10.8982036 8.56287425 10.8982036 10.8982036 4.28143713 10.8982036"></polygon>
            <polygon id="Path" points="12.8443114 8.56287425 23.742515 8.56287425 23.742515 10.8982036 12.8443114 10.8982036"></polygon>
            <polygon id="Path" points="0 12.8443114 7.39520958 12.8443114 7.39520958 15.1796407 0 15.1796407"></polygon>
            <polygon id="Path" points="9.73053892 12.8443114 23.742515 12.8443114 23.742515 15.1796407 9.73053892 15.1796407"></polygon>
            <path d="M36.7598137,51.9888794 C36.7598137,51.3903678 36.2765303,50.9046193 35.6786427,50.9046193 L30.2727878,50.9046193 L30.2727878,46.5675791 C30.2727878,45.9690676 29.7895043,45.4833191 29.1916168,45.4833191 L23.7857618,45.4833191 L23.7857618,41.1462789 C23.7857618,40.5477673 23.3024784,40.0620188 22.7045908,40.0620188 L17.2987359,40.0620188 L17.2987359,35.7249786 C17.2987359,35.1264671 16.8154524,34.6407186 16.2175649,34.6407186 L9.73053892,34.6407186 C9.13265136,34.6407186 8.64936793,35.1264671 8.64936793,35.7249786 L8.64936793,45.4833191 L3.24351297,45.4833191 C2.64562542,45.4833191 2.16234198,45.9690676 2.16234198,46.5675791 L2.16234198,62.8314799 L0,62.8314799 L0,65 L38.9221557,65 L38.9221557,62.8314799 L36.7598137,62.8314799 L36.7598137,51.9888794 Z M4.32468397,47.6518392 L8.64936793,47.6518392 L8.64936793,62.8314799 L4.32468397,62.8314799 L4.32468397,47.6518392 Z M10.8117099,46.5675791 L10.8117099,36.8092387 L15.1363939,36.8092387 L15.1363939,41.1462789 L15.1363939,62.8314799 L10.8117099,62.8314799 L10.8117099,46.5675791 Z M17.2987359,42.2305389 L21.6234198,42.2305389 L21.6234198,46.5675791 L21.6234198,62.8314799 L17.2987359,62.8314799 L17.2987359,42.2305389 Z M23.7857618,47.6518392 L28.1104458,47.6518392 L28.1104458,51.9888794 L28.1104458,62.8314799 L23.7857618,62.8314799 L23.7857618,47.6518392 Z M30.2727878,62.8314799 L30.2727878,53.0731394 L34.5974717,53.0731394 L34.5974717,62.8314799 L30.2727878,62.8314799 Z" id="Shape" fill-rule="nonzero"></path>
        </g>
    </g>
</svg>