<?xml version="1.0" encoding="UTF-8"?>
<svg width="124px" height="93px" viewBox="0 0 124 93" version="1.1" xmlns="http://www.w3.org/2000/svg" xmlns:xlink="http://www.w3.org/1999/xlink">
    <!-- Generator: Sketch 52.3 (67297) - http://www.bohemiancoding.com/sketch -->
    <title>Artboard</title>
    <desc>Created with Sketch.</desc>
    <g id="Artboard" stroke="none" stroke-width="1" fill="none" fill-rule="evenodd">
        <g id="coworking" transform="translate(27.000000, 14.000000)" fill="#FFFFFF">
            <path d="M67.3636364,35.4545455 C65.8442614,35.4545455 64.6624432,36.4822841 64.2579659,36.8857273 L58.7636932,40.1818182 L54.3636364,40.1818182 C53.7109362,40.1818182 53.1818182,40.7109362 53.1818182,41.3636364 L53.1818182,43.7272727 L50.6375114,43.7272727 L49.6202614,37.6237727 C49.5117428,36.9811056 48.9034159,36.5476111 48.2605301,36.6548266 C47.6176443,36.7620421 47.1829175,37.3694891 47.2888295,38.0125909 L48.241375,43.7272727 L44.7520568,43.7272727 L43.8905114,37.6946818 C43.7258398,36.5430285 43.0066579,35.5454376 41.9660682,35.02525 L38.34675,33.2155909 C38.1826279,33.1335633 38.001661,33.0908757 37.8181818,33.0909091 L33.0909091,33.0909091 C32.9074299,33.0908757 32.726463,33.1335633 32.5623409,33.2155909 L28.9430227,35.02525 C27.9025615,35.5457369 27.1836531,36.5435522 27.0193182,37.6952727 L26.1570341,43.7272727 L22.6677159,43.7272727 L23.6202614,38.0125909 C23.6906563,37.5956988 23.532984,37.1729589 23.2067786,36.9039896 C22.8805731,36.6350204 22.4355327,36.5608 22.0396962,36.7093526 C21.6438597,36.8579053 21.3575337,37.2065987 21.2888295,37.6237727 L20.2715795,43.7272727 L17.7272727,43.7272727 L17.7272727,41.3636364 C17.7272727,40.7109362 17.1981547,40.1818182 16.5454545,40.1818182 L12.1453977,40.1818182 L6.651125,36.8857273 C6.24664773,36.4822841 5.06482955,35.4545455 3.54545455,35.4545455 C1.58826529,35.4567436 0.00219813065,37.0428107 0,39 L0,53.1818182 C-5.88994915e-05,53.6904915 0.325375521,54.1421367 0.807920455,54.3030682 L1.18181818,54.42775 L1.18181818,62.6363636 L2.62416351e-16,62.6363636 L0,65 L70.9090909,65 L70.9090909,62.6363636 L69.7272727,62.6363636 L69.7272727,52.1034091 L70.1929091,51.9038295 C70.627202,51.7176589 70.9088615,51.2906961 70.9090909,50.8181818 L70.9090909,39 C70.9068928,37.0428107 69.3208256,35.4567436 67.3636364,35.4545455 Z M56.7272727,57.7426023 L59.4454545,62.6363636 L56.7272727,62.6363636 L56.7272727,57.7426023 Z M56.7272727,46.0909091 L60.2727273,46.0909091 C60.4562064,46.0909425 60.6371734,46.0482549 60.8012955,45.9662273 L63.8181818,44.4577841 L63.8181818,46.6177045 L56.7272727,51.0495227 L56.7272727,46.0909091 Z M29.3578409,38.0306136 C29.4128527,37.6462189 29.652872,37.313239 30.0001591,37.1395227 L33.3696705,35.4545455 L37.5394205,35.4545455 L40.9095227,37.1395227 C41.2563584,37.3133499 41.4960839,37.6460077 41.55125,38.0300227 L42.3647841,43.7272727 L40.1818182,43.7272727 L40.1818182,39 C40.1818182,38.3472998 39.6527002,37.8181818 39,37.8181818 L31.9090909,37.8181818 C31.2563908,37.8181818 30.7272727,38.3472998 30.7272727,39 L30.7272727,43.7272727 L28.5443068,43.7272727 L29.3578409,38.0306136 Z M37.8181818,43.7272727 L33.0909091,43.7272727 L33.0909091,40.1818182 L37.8181818,40.1818182 L37.8181818,43.7272727 Z M54.3636364,46.0909091 L54.3636364,48.4545455 L16.5454545,48.4545455 L16.5454545,46.0909091 L54.3636364,46.0909091 Z M42.5454545,51.0207159 L42.5454545,50.8181818 L49.6363636,50.8181818 L49.6363636,62.6363636 L39.1568864,62.6363636 L40.1224318,54.9124432 L41.5067841,53.5280909 C42.1740627,52.8646138 42.5480903,51.9617024 42.5454545,51.0207159 Z M29.4023068,53.5280909 L30.7866591,54.9124432 L31.7522045,62.6363636 L21.2727273,62.6363636 L21.2727273,50.8181818 L28.3636364,50.8181818 L28.3636364,51.0207159 C28.3610007,51.9617024 28.7350282,52.8646138 29.4023068,53.5280909 Z M14.1818182,55.7655682 L12.9503636,51.6602273 C12.865692,51.3781838 12.6788474,51.1378722 12.426375,50.9862955 L7.09090909,47.7851932 L7.09090909,44.4577841 L10.1077955,45.9662273 C10.2719176,46.0482549 10.4528845,46.0909425 10.6363636,46.0909091 L14.1818182,46.0909091 L14.1818182,55.7655682 Z M3.54545455,55.2154318 L7.30792045,56.4693409 L9.07045455,62.6363636 L3.54545455,62.6363636 L3.54545455,55.2154318 Z M11.5278977,62.6363636 L9.40889773,55.2204545 C9.30176769,54.8454805 9.01655107,54.5474954 8.646625,54.4240568 L2.36363636,52.3300227 L2.36363636,39 C2.36453147,38.347671 2.89312551,37.8190769 3.54545455,37.8181818 C4.16413636,37.8181818 4.84442045,38.4061364 5.02848864,38.6064545 C5.10736677,38.6948207 5.19921892,38.7706834 5.30089773,38.8314432 L11.2099886,42.3768977 C11.3937331,42.4870807 11.6039336,42.5453364 11.8181818,42.5454545 L15.3636364,42.5454545 L15.3636364,43.7272727 L10.915125,43.7272727 L6.43765909,41.4883182 C6.07129181,41.3051159 5.6361847,41.3246896 5.28774703,41.540048 C4.93930936,41.7554065 4.72723545,42.1358351 4.72727273,42.5454545 L4.72727273,48.4545455 C4.72728948,48.8695938 4.94502892,49.2542126 5.30089773,49.4678068 L10.817625,52.7779318 L13.7749773,62.6363636 L11.5278977,62.6363636 Z M16.5454545,62.6363636 L16.5454545,50.8181818 L18.9090909,50.8181818 L18.9090909,62.6363636 L16.5454545,62.6363636 Z M34.1341591,62.6363636 L33.0816023,54.2170909 C33.0492213,53.9562842 32.9306191,53.7137764 32.7446364,53.5280909 L31.0735455,51.8568523 C30.8510719,51.6355798 30.726381,51.3344916 30.7272727,51.0207159 L30.727268,50.8181818 L40.1818229,50.8181818 L40.1818182,51.0207159 C40.1827099,51.3344916 40.058019,51.6355798 39.8355455,51.8568523 L38.1644545,53.5280909 C37.978483,53.7138021 37.8598393,53.9562884 37.8273409,54.2170909 L36.7747841,62.6363636 L34.1341591,62.6363636 Z M52,62.6363636 L52,50.8181818 L54.3636364,50.8181818 L54.3636364,62.6363636 L52,62.6363636 Z M62.1498977,62.6363636 L57.1237727,53.58925 L65.6260682,48.2750568 C65.9716407,48.0590154 66.1816371,47.6802738 66.1818182,47.2727273 L66.1818182,42.5454545 C66.1818555,42.1358351 65.9697815,41.7554065 65.6213439,41.540048 C65.2729062,41.3246896 64.8377991,41.3051159 64.4714318,41.4883182 L59.9939659,43.7272727 L55.5454545,43.7272727 L55.5454545,42.5454545 L59.0909091,42.5454545 C59.3051573,42.5453364 59.5153578,42.4870807 59.6991023,42.3768977 L65.6081932,38.8314432 C65.709872,38.7706834 65.8017241,38.6948207 65.8806023,38.6064545 C66.0295114,38.4402614 66.7185114,37.8181818 67.3636364,37.8181818 C68.0159654,37.8190769 68.5445594,38.347671 68.5454545,39 L68.5454545,50.0392159 L60.9889091,53.2775455 C60.4557676,53.5060267 60.1672418,54.0876471 60.3078864,54.650375 L62.3045682,62.6363636 L62.1498977,62.6363636 Z M67.3636364,62.6363636 L64.7410341,62.6363636 L62.84525,55.0532273 L67.3636364,53.1168182 L67.3636364,62.6363636 Z" id="Shape" fill-rule="nonzero"></path>
            <path d="M39,13.9792841 L39,17.7272727 C39.0000438,18.1630813 39.2399307,18.5634981 39.6241731,18.7691359 C40.0084155,18.9747737 40.4746476,18.9522558 40.8372841,18.7105455 L44.9681818,15.9561705 C45.2558432,17.6583138 46.7282698,18.9054466 48.4545455,18.9090909 L52.8240227,18.9090909 L59.6171136,23.4378182 C59.979755,23.6796105 60.4460445,23.7021741 60.8303375,23.4965258 C61.2146304,23.2908775 61.454538,22.8904036 61.4545455,22.4545455 L61.4545455,18.7065568 C62.8700534,18.2041787 63.8164702,16.8656495 63.8181818,15.3636364 L63.8181818,8.27272727 C63.8159837,6.31553801 62.2299165,4.72947086 60.2727273,4.72727273 L55.5454545,4.72727273 L55.5454545,3.54545455 C55.5432564,1.58826529 53.9571893,0.00219813065 52,0 L40.1818182,0 C38.2246289,0.00219813065 36.6385618,1.58826529 36.6363636,3.54545455 L36.6363636,10.6363636 C36.6380312,12.1383908 37.5844642,13.4769428 39,13.9792841 Z M60.2727273,7.09090909 C60.9250563,7.0918042 61.4536503,7.62039824 61.4545455,8.27272727 L61.4545455,15.3636364 C61.4536503,16.0159654 60.9250563,16.5445594 60.2727273,16.5454545 C59.6200271,16.5454545 59.0909091,17.0745726 59.0909091,17.7272727 L59.0909091,20.2461705 L53.8372841,16.744 C53.6431625,16.6146132 53.4151079,16.5455338 53.1818182,16.5454545 L48.4545455,16.5454545 C47.8022164,16.5445594 47.2736224,16.0159654 47.2727273,15.3636364 L47.2727273,14.4203977 L47.6305227,14.1818182 L52,14.1818182 C53.9571893,14.1796201 55.5432564,12.5935529 55.5454545,10.6363636 L55.5454545,7.09090909 L60.2727273,7.09090909 Z M47.2727273,11.8181818 L47.2727273,8.27272727 C47.2736224,7.62039824 47.8022164,7.0918042 48.4545455,7.09090909 L53.1818182,7.09090909 L53.1818182,10.6363636 C53.1809231,11.2886927 52.652329,11.8172867 52,11.8181818 L47.2727273,11.8181818 Z M39,3.54545455 C39.0008951,2.89312551 39.5294891,2.36453147 40.1818182,2.36363636 L52,2.36363636 C52.652329,2.36453147 53.1809231,2.89312551 53.1818182,3.54545455 L53.1818182,4.72727273 L48.4545455,4.72727273 C46.4973562,4.72947086 44.911289,6.31553801 44.9090909,8.27272727 L44.9090909,13.1554091 L41.3636364,15.5190455 L41.3636364,13 C41.3636364,12.3472998 40.8345183,11.8181818 40.1818182,11.8181818 C39.5294891,11.8172867 39.0008951,11.2886927 39,10.6363636 L39,3.54545455 Z" id="Shape" fill-rule="nonzero"></path>
            <path d="M5.90909091,17.7272727 L5.90909091,21.2727273 C5.90909836,21.7085854 6.14900596,22.1090593 6.5332989,22.3147076 C6.91759184,22.5203559 7.38388133,22.4977923 7.74652273,22.256 L14.5396136,17.7272727 L20.0909091,17.7272727 C22.0480983,17.7250746 23.6341655,16.1390074 23.6363636,14.1818182 L23.6363636,7.09090909 C23.6341655,5.13371983 22.0480983,3.54765268 20.0909091,3.54545455 L5.90909091,3.54545455 C3.95190165,3.54765268 2.36583449,5.13371983 2.36363636,7.09090909 L2.36363636,14.1818182 C2.36583449,16.1390074 3.95190165,17.7250746 5.90909091,17.7272727 Z M4.72727273,7.09090909 C4.72816783,6.43858006 5.25676188,5.90998602 5.90909091,5.90909091 L20.0909091,5.90909091 C20.7432381,5.90998602 21.2718322,6.43858006 21.2727273,7.09090909 L21.2727273,14.1818182 C21.2718322,14.8341472 20.7432381,15.3627413 20.0909091,15.3636364 L14.1818182,15.3636364 C13.9484859,15.3637394 13.7203908,15.4328155 13.5262045,15.5621818 L8.27272727,19.0643523 L8.27272727,16.5454545 C8.27272727,15.8927544 7.74360925,15.3636364 7.09090909,15.3636364 L5.90909091,15.3636364 C5.25676188,15.3627413 4.72816783,14.8341472 4.72727273,14.1818182 L4.72727273,7.09090909 Z" id="Shape" fill-rule="nonzero"></path>
            <rect id="Rectangle" x="7.09090909" y="9.45454545" width="2.36363636" height="2.36363636"></rect>
            <rect id="Rectangle" x="11.8181818" y="9.45454545" width="2.36363636" height="2.36363636"></rect>
            <rect id="Rectangle" x="16.5454545" y="9.45454545" width="2.36363636" height="2.36363636"></rect>
            <path d="M35.4545455,31.9090909 C38.0653461,31.9090909 40.1818182,29.7926188 40.1818182,27.1818182 C40.1818182,24.5710175 38.0653461,22.4545455 35.4545455,22.4545455 C32.8437448,22.4545455 30.7272727,24.5710175 30.7272727,27.1818182 C30.7302036,29.7914039 32.8449598,31.9061601 35.4545455,31.9090909 Z M35.4545455,24.8181818 C36.7599458,24.8181818 37.8181818,25.8764179 37.8181818,27.1818182 C37.8181818,28.4872185 36.7599458,29.5454545 35.4545455,29.5454545 C34.1491451,29.5454545 33.0909091,28.4872185 33.0909091,27.1818182 C33.092212,25.8769579 34.1496852,24.8194847 35.4545455,24.8181818 Z" id="Shape" fill-rule="nonzero"></path>
            <path d="M61.4545455,29.5454545 C61.4545455,32.1562552 63.5710175,34.2727273 66.1818182,34.2727273 C68.7926188,34.2727273 70.9090909,32.1562552 70.9090909,29.5454545 C70.9090909,26.9346539 68.7926188,24.8181818 66.1818182,24.8181818 C63.5722325,24.8211127 61.4574763,26.9358689 61.4545455,29.5454545 Z M66.1818182,27.1818182 C67.4872185,27.1818182 68.5454545,28.2400542 68.5454545,29.5454545 C68.5454545,30.8508549 67.4872185,31.9090909 66.1818182,31.9090909 C64.8764179,31.9090909 63.8181818,30.8508549 63.8181818,29.5454545 C63.8194847,28.2405943 64.8769579,27.1831211 66.1818182,27.1818182 Z" id="Shape" fill-rule="nonzero"></path>
            <path d="M4.72727273,34.2727273 C7.33807336,34.2727273 9.45454545,32.1562552 9.45454545,29.5454545 C9.45454545,26.9346539 7.33807336,24.8181818 4.72727273,24.8181818 C2.11647209,24.8181818 5.24832703e-16,26.9346539 0,29.5454545 C0.00293084087,32.1550402 2.11768705,34.2697964 4.72727273,34.2727273 Z M4.72727273,27.1818182 C6.03267305,27.1818182 7.09090909,28.2400542 7.09090909,29.5454545 C7.09090909,30.8508549 6.03267305,31.9090909 4.72727273,31.9090909 C3.42187241,31.9090909 2.36363636,30.8508549 2.36363636,29.5454545 C2.36493927,28.2405943 3.42241247,27.1831211 4.72727273,27.1818182 Z" id="Shape" fill-rule="nonzero"></path>
        </g>
    </g>
</svg>