<?xml version="1.0" encoding="UTF-8"?>
<svg width="124px" height="93px" viewBox="0 0 124 93" version="1.1" xmlns="http://www.w3.org/2000/svg" xmlns:xlink="http://www.w3.org/1999/xlink">
    <!-- Generator: Sketch 52.3 (67297) - http://www.bohemiancoding.com/sketch -->
    <title>Artboard</title>
    <desc>Created with Sketch.</desc>
    <g id="Artboard" stroke="none" stroke-width="1" fill="none" fill-rule="evenodd">
        <g id="noun_wireframing_2577227" transform="translate(31.000000, 14.000000)" fill="#FFFFFF">
            <g id="Group">
                <path d="M29.6420899,0.4277344 L0.0581055,0.4277344 L0.0581055,26.5166016 L29.6420899,26.5166016 L29.6420899,0.4277344 Z M27.6420899,24.5166016 L2.0581055,24.5166016 L2.0581055,19.756836 L27.6420899,19.756836 L27.6420899,24.5166016 Z M27.6420899,17.7568359 L2.0581055,17.7568359 L2.0581055,2.4277344 L27.6420899,2.4277344 L27.6420899,17.7568359 Z" id="Shape" fill-rule="nonzero"></path>
                <rect id="Rectangle" x="45.4418945" y="32.1572266" width="17.5" height="2"></rect>
                <rect id="Rectangle" x="45.4418945" y="37.6201172" width="17.5" height="2"></rect>
                <rect id="Rectangle" x="45.4418945" y="43.0839844" width="17.5" height="2"></rect>
                <rect id="Rectangle" x="8.6030273" y="4.4277344" width="2.125" height="2"></rect>
                <rect id="Rectangle" x="13.7875671" y="4.4277344" width="2.125" height="2"></rect>
                <rect id="Rectangle" x="18.972168" y="4.4277344" width="2.125" height="2"></rect>
                <path d="M42.1206055,30.0947266 L24.8793945,30.0947266 L24.8793945,47.1464844 L42.1206055,47.1464844 L42.1206055,30.0947266 Z M38.684021,32.0947265 L33.5,37.2142944 L28.315979,32.0947265 L38.684021,32.0947265 Z M26.8793945,33.4885864 L32.0759887,38.6206054 L26.8793945,43.7526244 L26.8793945,33.4885864 Z M28.315979,45.1464844 L33.5,40.0269165 L38.684021,45.1464844 L28.315979,45.1464844 Z M40.1206055,43.7526245 L34.9240113,38.6206055 L40.1206055,33.4885865 L40.1206055,43.7526245 Z" id="Shape" fill-rule="nonzero"></path>
                <path d="M21.034668,31.9882813 L0.0581055,31.9882813 L0.0581055,63.9882813 L21.034668,63.9882813 L21.034668,31.9882813 Z M19.034668,61.9882813 L2.0581055,61.9882813 L2.0581055,58.6826172 L19.034668,58.6826172 L19.034668,61.9882813 Z M19.034668,56.6826172 L2.0581055,56.6826172 L2.0581055,33.9882813 L19.034668,33.9882813 L19.034668,56.6826172 Z" id="Shape" fill-rule="nonzero"></path>
                <rect id="Rectangle" x="25.3168945" y="50.7919922" width="15.8037109" height="2"></rect>
                <rect id="Rectangle" x="25.3168945" y="56.6826172" width="15.8037109" height="2"></rect>
                <rect id="Rectangle" x="25.3168945" y="62.5722656" width="15.8037109" height="2"></rect>
                <rect id="Rectangle" x="35.4418945" y="0.4277344" width="27.5" height="2"></rect>
                <rect id="Rectangle" x="35.4418945" y="6.4501953" width="27.5" height="2"></rect>
                <rect id="Rectangle" x="35.4418945" y="12.4726563" width="27.5" height="2"></rect>
                <rect id="Rectangle" x="35.4418945" y="18.4941406" width="27.5" height="2"></rect>
                <rect id="Rectangle" x="35.4418945" y="24.5166016" width="27.5" height="2"></rect>
                <rect id="Rectangle" x="5.2114258" y="35.9882813" width="1.8144531" height="2"></rect>
                <rect id="Rectangle" x="9.6391602" y="35.9882813" width="1.8144531" height="2"></rect>
                <rect id="Rectangle" x="14.0668945" y="35.9882813" width="1.8144531" height="2"></rect>
                <path d="M62.8120117,64.5722656 L62.8120117,47.5205078 L45.5717773,47.5205078 L45.5717773,64.5722656 L62.8120117,64.5722656 Z M49.0082397,62.5722656 L54.1918945,57.4527588 L59.3755493,62.5722656 L49.0082397,62.5722656 Z M60.8120117,61.1782837 L55.6158447,56.0463867 L60.8120117,50.9144897 L60.8120117,61.1782837 Z M59.3755493,49.5205078 L54.1918945,54.6400146 L49.0082397,49.5205078 L59.3755493,49.5205078 Z M47.5717773,50.9144897 L52.7679443,56.0463867 L47.5717773,61.1782837 L47.5717773,50.9144897 Z" id="Shape" fill-rule="nonzero"></path>
            </g>
        </g>
    </g>
</svg>