<?xml version="1.0" encoding="UTF-8"?>
<svg width="306px" height="603px" viewBox="0 0 306 603" version="1.1" xmlns="http://www.w3.org/2000/svg" xmlns:xlink="http://www.w3.org/1999/xlink">
    <!-- Generator: Sketch 52.3 (67297) - http://www.bohemiancoding.com/sketch -->
    <title>Group 48</title>
    <desc>Created with Sketch.</desc>
    <g id="Page-1" stroke="none" stroke-width="1" fill="none" fill-rule="evenodd">
        <g id="Group-48">
            <ellipse id="Oval" fill="#111D5F" cx="72.5" cy="75.41011" rx="72.5" ry="75.41011"></ellipse>
            <ellipse id="Oval" fill="#FFF60F" cx="72.8302961" cy="70.2835455" rx="66.5546697" ry="66.6453385"></ellipse>
            <text id="Wireframe,-Design-&amp;" font-family="Roboto-Bold, Roboto" font-size="11" font-weight="bold" fill="#111D5F">
                <tspan x="27.8269043" y="94">Wireframe, Design </tspan>
                <tspan x="27.9020996" y="107">&amp; Design Approval</tspan>
            </text>
            <ellipse id="Oval" fill="#111D5F" cx="187.5" cy="150.41011" rx="72.5" ry="75.41011"></ellipse>
            <ellipse id="Oval" fill="#FFF60F" cx="187.830296" cy="145.283546" rx="66.5546697" ry="66.6453385"></ellipse>
            <text id="Workboard-&amp;-Developm" font-family="Roboto-Bold, Roboto" font-size="11" font-weight="bold" fill="#111D5F">
                <tspan x="155.896973" y="172">Workboard &amp; </tspan>
                <tspan x="155.362549" y="185">Development</tspan>
            </text>
            <ellipse id="Oval" fill="#111D5F" cx="91.5" cy="249.41011" rx="72.5" ry="75.41011"></ellipse>
            <ellipse id="Oval" fill="#FFF60F" cx="91.8302961" cy="244.283546" rx="66.5546697" ry="66.6453385"></ellipse>
            <text id="Reporting" font-family="Roboto-Bold, Roboto" font-size="11" font-weight="bold" fill="#111D5F">
                <tspan x="67.7683105" y="274">Reporting</tspan>
            </text>
            <ellipse id="Oval" fill="#111D5F" cx="207.5" cy="324.41011" rx="72.5" ry="75.41011"></ellipse>
            <ellipse id="Oval" fill="#FFF60F" cx="207.830296" cy="319.283546" rx="66.5546697" ry="66.6453385"></ellipse>
            <text id="Testing" font-family="Roboto-Bold, Roboto" font-size="11" font-weight="bold" fill="#111D5F">
                <tspan x="189.260254" y="349">Testing</tspan>
            </text>
            <ellipse id="Oval" fill="#111D5F" cx="130.5" cy="437.41011" rx="72.5" ry="75.41011"></ellipse>
            <ellipse id="Oval" fill="#FFF60F" cx="130.830296" cy="432.283546" rx="66.5546697" ry="66.6453385"></ellipse>
            <text id="Delivery-and-Support" font-family="Roboto-Bold, Roboto" font-size="11" font-weight="bold" fill="#111D5F">
                <tspan x="100.519043" y="459">Delivery and </tspan>
                <tspan x="111.374023" y="472">Support</tspan>
            </text>
            <ellipse id="Oval" fill="#111D5F" cx="233.5" cy="527.41011" rx="72.5" ry="75.41011"></ellipse>
            <ellipse id="Oval" fill="#FFF60F" cx="233.830296" cy="522.283546" rx="66.5546697" ry="66.6453385"></ellipse>
            <text id="Google-Analytics-and" font-family="Roboto-Bold, Roboto" font-size="11" font-weight="bold" fill="#111D5F">
                <tspan x="192.132324" y="549">Google Analytics </tspan>
                <tspan x="192.277344" y="562">and Google Tags </tspan>
                <tspan x="206.884033" y="575">Integration</tspan>
            </text>
            <path d="M69.2412861,38.2632212 L51.0357572,38.2632212 L51.0357572,54.3179087 L69.2412861,54.3179087 L69.2412861,38.2632212 Z M68.0105169,53.0871394 L52.2665265,53.0871394 L52.2665265,50.1580529 L68.0105169,50.1580529 L68.0105169,53.0871394 Z M68.0105169,48.9272836 L52.2665265,48.9272836 L52.2665265,39.4939904 L68.0105169,39.4939904 L68.0105169,48.9272836 Z" id="Shape" fill="#111D5F" fill-rule="nonzero"></path>
            <rect id="Rectangle" fill="#111D5F" x="78.9642428" y="57.7890625" width="10.7692308" height="1.23076923"></rect>
            <rect id="Rectangle" fill="#111D5F" x="78.9642428" y="61.1508414" width="10.7692308" height="1.23076923"></rect>
            <rect id="Rectangle" fill="#111D5F" x="78.9642428" y="64.5132212" width="10.7692308" height="1.23076923"></rect>
            <rect id="Rectangle" fill="#111D5F" x="56.2941706" y="40.7247596" width="1.30769231" height="1.23076923"></rect>
            <rect id="Rectangle" fill="#111D5F" x="59.4846567" y="40.7247596" width="1.30769231" height="1.23076923"></rect>
            <rect id="Rectangle" fill="#111D5F" x="62.6751803" y="40.7247596" width="1.30769231" height="1.23076923"></rect>
            <path d="M76.9203726,56.5198318 L66.3103966,56.5198318 L66.3103966,67.0132212 L76.9203726,67.0132212 L76.9203726,56.5198318 Z M74.8055514,57.7506009 L71.6153846,60.9011042 L68.4252178,57.7506009 L74.8055514,57.7506009 Z M67.5411658,58.6083609 L70.73907,61.7665264 L67.5411658,64.9246919 L67.5411658,58.6083609 Z M68.4252178,65.7824519 L71.6153846,62.6319486 L74.8055514,65.7824519 L68.4252178,65.7824519 Z M75.6896034,64.924692 L72.4916993,61.7665265 L75.6896034,58.6083609 L75.6896034,64.924692 Z" id="Shape" fill="#111D5F" fill-rule="nonzero"></path>
            <path d="M63.9444111,57.6850962 L51.0357572,57.6850962 L51.0357572,77.3774039 L63.9444111,77.3774039 L63.9444111,57.6850962 Z M62.7136418,76.1466346 L52.2665265,76.1466346 L52.2665265,74.1123798 L62.7136418,74.1123798 L62.7136418,76.1466346 Z M62.7136418,72.8816106 L52.2665265,72.8816106 L52.2665265,58.9158654 L62.7136418,58.9158654 L62.7136418,72.8816106 Z" id="Shape" fill="#111D5F" fill-rule="nonzero"></path>
            <rect id="Rectangle" fill="#111D5F" x="66.5796274" y="69.2566106" width="9.72536055" height="1.23076923"></rect>
            <rect id="Rectangle" fill="#111D5F" x="66.5796274" y="72.8816106" width="9.72536055" height="1.23076923"></rect>
            <rect id="Rectangle" fill="#111D5F" x="66.5796274" y="76.5060096" width="9.72536055" height="1.23076923"></rect>
            <rect id="Rectangle" fill="#111D5F" x="72.8103966" y="38.2632212" width="16.9230769" height="1.23076923"></rect>
            <rect id="Rectangle" fill="#111D5F" x="72.8103966" y="41.969351" width="16.9230769" height="1.23076923"></rect>
            <rect id="Rectangle" fill="#111D5F" x="72.8103966" y="45.6754808" width="16.9230769" height="1.23076923"></rect>
            <rect id="Rectangle" fill="#111D5F" x="72.8103966" y="49.3810096" width="16.9230769" height="1.23076923"></rect>
            <rect id="Rectangle" fill="#111D5F" x="72.8103966" y="53.0871394" width="16.9230769" height="1.23076923"></rect>
            <rect id="Rectangle" fill="#111D5F" x="54.2070313" y="60.1466346" width="1.11658652" height="1.23076923"></rect>
            <rect id="Rectangle" fill="#111D5F" x="56.9317909" y="60.1466346" width="1.11658652" height="1.23076923"></rect>
            <rect id="Rectangle" fill="#111D5F" x="59.6565505" y="60.1466346" width="1.11658652" height="1.23076923"></rect>
            <path d="M89.6535457,77.7367788 L89.6535457,67.2433894 L79.0441706,67.2433894 L79.0441706,77.7367788 L89.6535457,77.7367788 Z M81.1589167,76.5060096 L84.3488582,73.3555439 L87.5387996,76.5060096 L81.1589167,76.5060096 Z M88.4227764,75.6481746 L85.2251352,72.4900841 L88.4227764,69.3319937 L88.4227764,75.6481746 Z M87.5387996,68.4741586 L84.3488582,71.6246244 L81.1589167,68.4741586 L87.5387996,68.4741586 Z M80.2749399,69.3319937 L83.4725811,72.4900841 L80.2749399,75.6481746 L80.2749399,69.3319937 Z" id="Shape" fill="#111D5F" fill-rule="nonzero"></path>
            <path d="M182.844167,142.0275 C182.673333,142.0275 182.50125,141.96875 182.360833,141.849167 L177.529167,137.735 C177.3625,137.592917 177.266667,137.385417 177.266667,137.16625 C177.266667,136.9475 177.362917,136.74 177.529167,136.597917 L182.360833,132.48375 C182.674583,132.21625 183.145833,132.254167 183.413333,132.567917 C183.680417,132.882083 183.642917,133.353333 183.32875,133.620417 L179.165,137.16625 L183.32875,140.712083 C183.642917,140.979583 183.680417,141.450833 183.413333,141.764583 C183.265417,141.938333 183.055417,142.0275 182.844167,142.0275 Z" id="Path" fill="#111D5F"></path>
            <path d="M192.3825,142.0275 C192.17125,142.0275 191.96125,141.938333 191.81375,141.764583 C191.54625,141.450833 191.584167,140.979583 191.897917,140.712083 L196.061667,137.16625 L191.897917,133.620417 C191.584167,133.353333 191.54625,132.882083 191.81375,132.567917 C192.080833,132.254167 192.5525,132.21625 192.865833,132.48375 L197.6975,136.597917 C197.864167,136.74 197.96,136.9475 197.96,137.16625 C197.96,137.385417 197.864167,137.592917 197.6975,137.735 L192.865833,141.849167 C192.725417,141.96875 192.553333,142.0275 192.3825,142.0275 Z" id="Path" fill="#111D5F"></path>
            <path d="M185.902917,145.113333 C185.851667,145.113333 185.8,145.107917 185.747917,145.097083 C185.344583,145.012083 185.08625,144.615833 185.17125,144.2125 L188.1825,129.915417 C188.2675,129.512083 188.663333,129.25375 189.067083,129.33875 C189.470417,129.42375 189.72875,129.819583 189.64375,130.223333 L186.6325,144.520417 C186.558333,144.872083 186.248333,145.113333 185.902917,145.113333 Z" id="Path" fill="#111D5F"></path>
            <path d="M205.213333,152.9025 L170.013333,152.9025 C167.249167,152.9025 165,150.65375 165,147.889167 L165,118.013333 C165,115.249167 167.249167,113 170.013333,113 L205.213333,113 C207.9775,113 210.226667,115.249167 210.226667,118.013333 L210.226667,147.889167 C210.226667,150.65375 207.9775,152.9025 205.213333,152.9025 Z M170.013333,114.493333 C168.0725,114.493333 166.493333,116.0725 166.493333,118.013333 L166.493333,147.889167 C166.493333,149.83 168.0725,151.409167 170.013333,151.409167 L205.213333,151.409167 C207.154167,151.409167 208.733333,149.83 208.733333,147.889167 L208.733333,118.013333 C208.733333,116.0725 207.154167,114.493333 205.213333,114.493333 L170.013333,114.493333 Z" id="Shape" fill="#111D5F" fill-rule="nonzero"></path>
            <path d="M209.48,124.95625 L165.746667,124.95625 C165.334167,124.95625 165,124.622083 165,124.209583 C165,123.7975 165.334167,123.462917 165.746667,123.462917 L209.48,123.462917 C209.8925,123.462917 210.226667,123.7975 210.226667,124.209583 C210.226667,124.622083 209.8925,124.95625 209.48,124.95625 Z" id="Path" fill="#111D5F"></path>
            <path d="M177.7575,121.383333 C176.455,121.383333 175.394583,120.322917 175.394583,119.020417 C175.394583,117.7175 176.455,116.6575 177.7575,116.6575 C179.060417,116.6575 180.120417,117.7175 180.120417,119.020417 C180.120417,120.322917 179.060417,121.383333 177.7575,121.383333 Z M177.7575,118.150833 C177.278333,118.150833 176.887917,118.540833 176.887917,119.020417 C176.887917,119.5 177.278333,119.89 177.7575,119.89 C178.237083,119.89 178.627083,119.5 178.627083,119.020417 C178.627083,118.540833 178.237083,118.150833 177.7575,118.150833 Z" id="Shape" fill="#111D5F" fill-rule="nonzero"></path>
            <path d="M170.4975,121.360417 C169.194583,121.360417 168.134583,120.300417 168.134583,118.9975 C168.134583,117.694583 169.194583,116.634583 170.4975,116.634583 C171.800417,116.634583 172.860417,117.694583 172.860417,118.9975 C172.860417,120.300417 171.800417,121.360417 170.4975,121.360417 Z M170.4975,118.127917 C170.018333,118.127917 169.627917,118.518333 169.627917,118.9975 C169.627917,119.477083 170.018333,119.867083 170.4975,119.867083 C170.977083,119.867083 171.367083,119.477083 171.367083,118.9975 C171.367083,118.518333 170.977083,118.127917 170.4975,118.127917 Z" id="Shape" fill="#111D5F" fill-rule="nonzero"></path>
            <path d="M185.0175,121.405833 C183.715,121.405833 182.655,120.345833 182.655,119.042917 C182.655,117.740417 183.715,116.680417 185.0175,116.680417 C186.320417,116.680417 187.380417,117.740417 187.380417,119.042917 C187.380417,120.345833 186.320417,121.405833 185.0175,121.405833 Z M185.0175,118.173333 C184.538333,118.173333 184.148333,118.563333 184.148333,119.042917 C184.148333,119.5225 184.538333,119.9125 185.0175,119.9125 C185.497083,119.9125 185.887083,119.5225 185.887083,119.042917 C185.887083,118.563333 185.497083,118.173333 185.0175,118.173333 Z" id="Shape" fill="#111D5F" fill-rule="nonzero"></path>
            <path d="M109.454545,233.818182 C108.519545,233.818182 107.792273,234.450636 107.543364,234.698909 L104.162273,236.727273 L101.454545,236.727273 C101.052884,236.727273 100.727273,237.052884 100.727273,237.454545 L100.727273,238.909091 L99.1615455,238.909091 L98.5355455,235.153091 C98.4687648,234.757603 98.0944098,234.490838 97.6987877,234.556816 C97.3031657,234.622795 97.0356415,234.996609 97.1008182,235.392364 L97.687,238.909091 L95.5397273,238.909091 L95.0095455,235.196727 C94.9082091,234.488018 94.4656356,233.874115 93.8252727,233.554 L91.598,232.440364 C91.4970018,232.389885 91.3856375,232.363616 91.2727273,232.363636 L88.3636364,232.363636 C88.2507261,232.363616 88.1393619,232.389885 88.0383636,232.440364 L85.8110909,233.554 C85.1708071,233.8743 84.7284019,234.48834 84.6272727,235.197091 L84.0966364,238.909091 L81.9493636,238.909091 L82.5355455,235.392364 C82.5788654,235.135815 82.4818363,234.875667 82.2810945,234.710147 C82.0803527,234.544628 81.8064817,234.498954 81.56289,234.590371 C81.3192983,234.681788 81.1430977,234.896368 81.1008182,235.153091 L80.4748182,238.909091 L78.9090909,238.909091 L78.9090909,237.454545 C78.9090909,237.052884 78.5834798,236.727273 78.1818182,236.727273 L75.4740909,236.727273 L72.093,234.698909 C71.8440909,234.450636 71.1168182,233.818182 70.1818182,233.818182 C68.977394,233.819535 68.0013527,234.795576 68,236 L68,244.727273 C67.9999638,245.040302 68.2002311,245.318238 68.4971818,245.417273 L68.7272727,245.494 L68.7272727,250.545455 L68,250.545455 L68,252 L111.636364,252 L111.636364,250.545455 L110.909091,250.545455 L110.909091,244.063636 L111.195636,243.940818 C111.462894,243.826252 111.636222,243.563505 111.636364,243.272727 L111.636364,236 C111.635011,234.795576 110.65897,233.819535 109.454545,233.818182 Z M102.909091,247.533909 L104.581818,250.545455 L102.909091,250.545455 L102.909091,247.533909 Z M102.909091,240.363636 L105.090909,240.363636 C105.203819,240.363657 105.315184,240.337388 105.416182,240.286909 L107.272727,239.358636 L107.272727,240.687818 L102.909091,243.415091 L102.909091,240.363636 Z M86.0663636,235.403455 C86.1002171,235.166904 86.2479212,234.961993 86.4616364,234.855091 L88.5351818,233.818182 L91.1011818,233.818182 L93.1750909,234.855091 C93.3885282,234.962061 93.5360516,235.166774 93.57,235.403091 L94.0706364,238.909091 L92.7272727,238.909091 L92.7272727,236 C92.7272727,235.598338 92.4016616,235.272727 92,235.272727 L87.6363636,235.272727 C87.234702,235.272727 86.9090909,235.598338 86.9090909,236 L86.9090909,238.909091 L85.5657273,238.909091 L86.0663636,235.403455 Z M91.2727273,238.909091 L88.3636364,238.909091 L88.3636364,236.727273 L91.2727273,236.727273 L91.2727273,238.909091 Z M101.454545,240.363636 L101.454545,241.818182 L78.1818182,241.818182 L78.1818182,240.363636 L101.454545,240.363636 Z M94.1818182,243.397364 L94.1818182,243.272727 L98.5454545,243.272727 L98.5454545,250.545455 L92.0965455,250.545455 L92.6907273,245.792273 L93.5426364,244.940364 C93.9532693,244.53207 94.1834402,243.976432 94.1818182,243.397364 Z M86.0937273,244.940364 L86.9456364,245.792273 L87.5398182,250.545455 L81.0909091,250.545455 L81.0909091,243.272727 L85.4545455,243.272727 L85.4545455,243.397364 C85.4529235,243.976432 85.6830943,244.53207 86.0937273,244.940364 Z M76.7272727,246.317273 L75.9694545,243.790909 C75.9173489,243.617344 75.8023676,243.46946 75.647,243.376182 L72.3636364,241.406273 L72.3636364,239.358636 L74.2201818,240.286909 C74.32118,240.337388 74.4325443,240.363657 74.5454545,240.363636 L76.7272727,240.363636 L76.7272727,246.317273 Z M70.1818182,245.978727 L72.4971818,246.750364 L73.5818182,250.545455 L70.1818182,250.545455 L70.1818182,245.978727 Z M75.0940909,250.545455 L73.7900909,245.981818 C73.7241647,245.751065 73.5486468,245.56769 73.321,245.491727 L69.4545455,244.203091 L69.4545455,236 C69.4550963,235.598567 69.7803849,235.273278 70.1818182,235.272727 C70.5625455,235.272727 70.9811818,235.634545 71.0944545,235.757818 C71.1429949,235.812197 71.1995193,235.858882 71.2620909,235.896273 L74.8984545,238.078091 C75.0115281,238.145896 75.1408822,238.181746 75.2727273,238.181818 L77.4545455,238.181818 L77.4545455,238.909091 L74.717,238.909091 L71.9616364,237.531273 C71.7361796,237.418533 71.4684214,237.430578 71.2539982,237.563106 C71.039575,237.695635 70.909068,237.929745 70.9090909,238.181818 L70.9090909,241.818182 C70.9091012,242.073596 71.0430947,242.310285 71.2620909,242.441727 L74.657,244.478727 L76.4769091,250.545455 L75.0940909,250.545455 Z M78.1818182,250.545455 L78.1818182,243.272727 L79.6363636,243.272727 L79.6363636,250.545455 L78.1818182,250.545455 Z M89.0056364,250.545455 L88.3579091,245.364364 C88.3379823,245.203867 88.2649964,245.054632 88.1505455,244.940364 L87.1221818,243.911909 C86.985275,243.775741 86.9085421,243.590456 86.9090909,243.397364 L86.909088,243.272727 L92.7272757,243.272727 L92.7272727,243.397364 C92.7278215,243.590456 92.6510886,243.775741 92.5141818,243.911909 L91.4858182,244.940364 C91.3713741,245.054647 91.2983627,245.20387 91.2783636,245.364364 L90.6306364,250.545455 L89.0056364,250.545455 Z M100,250.545455 L100,243.272727 L101.454545,243.272727 L101.454545,250.545455 L100,250.545455 Z M106.246091,250.545455 L103.153091,244.978 L108.385273,241.707727 C108.597933,241.574779 108.727161,241.341707 108.727273,241.090909 L108.727273,238.181818 C108.727296,237.929745 108.596789,237.695635 108.382365,237.563106 C108.167942,237.430578 107.900184,237.418533 107.674727,237.531273 L104.919364,238.909091 L102.181818,238.909091 L102.181818,238.181818 L104.363636,238.181818 C104.495481,238.181746 104.624836,238.145896 104.737909,238.078091 L108.374273,235.896273 C108.436844,235.858882 108.493369,235.812197 108.541909,235.757818 C108.633545,235.655545 109.057545,235.272727 109.454545,235.272727 C109.855979,235.273278 110.181267,235.598567 110.181818,236 L110.181818,242.793364 L105.531636,244.786182 C105.203549,244.926786 105.025995,245.284706 105.112545,245.631 L106.341273,250.545455 L106.246091,250.545455 Z M109.454545,250.545455 L107.840636,250.545455 L106.674,245.878909 L109.454545,244.687273 L109.454545,250.545455 Z" id="Shape" fill="#111D5F" fill-rule="nonzero"></path>
            <path d="M92,220.602636 L92,222.909091 C92.0000269,223.177281 92.1476497,223.423691 92.3841065,223.550237 C92.6205634,223.676784 92.9074754,223.662927 93.1306364,223.514182 L95.6727273,221.819182 C95.8497497,222.866655 96.7558583,223.634121 97.8181818,223.636364 L100.507091,223.636364 L104.687455,226.423273 C104.910618,226.572068 105.197566,226.585953 105.434054,226.4594 C105.670542,226.332848 105.818177,226.086402 105.818182,225.818182 L105.818182,223.511727 C106.689264,223.202572 107.271674,222.378861 107.272727,221.454545 L107.272727,217.090909 C107.271375,215.886485 106.295333,214.910444 105.090909,214.909091 L102.181818,214.909091 L102.181818,214.181818 C102.180465,212.977394 101.204424,212.001353 100,212 L92.7272727,212 C91.5228486,212.001353 90.5468072,212.977394 90.5454545,214.181818 L90.5454545,218.545455 C90.5464807,219.469779 91.128901,220.293503 92,220.602636 Z M105.090909,216.363636 C105.492342,216.364187 105.817631,216.689476 105.818182,217.090909 L105.818182,221.454545 C105.817631,221.855979 105.492342,222.181267 105.090909,222.181818 C104.689247,222.181818 104.363636,222.507429 104.363636,222.909091 L104.363636,224.459182 L101.130636,222.304 C101.011177,222.224377 100.870836,222.181867 100.727273,222.181818 L97.8181818,222.181818 C97.4167486,222.181267 97.0914599,221.855979 97.0909091,221.454545 L97.0909091,220.874091 L97.3110909,220.727273 L100,220.727273 C101.204424,220.72592 102.180465,219.749879 102.181818,218.545455 L102.181818,216.363636 L105.090909,216.363636 Z M97.0909091,219.272727 L97.0909091,217.090909 C97.0914599,216.689476 97.4167486,216.364187 97.8181818,216.363636 L100.727273,216.363636 L100.727273,218.545455 C100.726722,218.946888 100.401433,219.272176 100,219.272727 L97.0909091,219.272727 Z M92,214.181818 C92.0005508,213.780385 92.3258395,213.455096 92.7272727,213.454545 L100,213.454545 C100.401433,213.455096 100.726722,213.780385 100.727273,214.181818 L100.727273,214.909091 L97.8181818,214.909091 C96.6137577,214.910444 95.6377163,215.886485 95.6363636,217.090909 L95.6363636,220.095636 L93.4545455,221.550182 L93.4545455,220 C93.4545455,219.598338 93.1289344,219.272727 92.7272727,219.272727 C92.3258395,219.272176 92.0005508,218.946888 92,218.545455 L92,214.181818 Z" id="Shape" fill="#111D5F" fill-rule="nonzero"></path>
            <path d="M71.6363636,222.909091 L71.6363636,225.090909 C71.6363682,225.359129 71.7840037,225.605575 72.0204916,225.732128 C72.2569796,225.858681 72.543927,225.844795 72.7670909,225.696 L76.9474545,222.909091 L80.3636364,222.909091 C81.5680605,222.907738 82.5441018,221.931697 82.5454545,220.727273 L82.5454545,216.363636 C82.5441018,215.159212 81.5680605,214.183171 80.3636364,214.181818 L71.6363636,214.181818 C70.4319395,214.183171 69.4558982,215.159212 69.4545455,216.363636 L69.4545455,220.727273 C69.4558982,221.931697 70.4319395,222.907738 71.6363636,222.909091 Z M70.9090909,216.363636 C70.9096417,215.962203 71.2349304,215.636914 71.6363636,215.636364 L80.3636364,215.636364 C80.7650696,215.636914 81.0903583,215.962203 81.0909091,216.363636 L81.0909091,220.727273 C81.0903583,221.128706 80.7650696,221.453995 80.3636364,221.454545 L76.7272727,221.454545 C76.5836837,221.454609 76.4433174,221.497117 76.3238182,221.576727 L73.0909091,223.731909 L73.0909091,222.181818 C73.0909091,221.780157 72.765298,221.454545 72.3636364,221.454545 L71.6363636,221.454545 C71.2349304,221.453995 70.9096417,221.128706 70.9090909,220.727273 L70.9090909,216.363636 Z" id="Shape" fill="#111D5F" fill-rule="nonzero"></path>
            <rect id="Rectangle" fill="#111D5F" x="72.3636364" y="217.818182" width="1.45454545" height="1.45454545"></rect>
            <rect id="Rectangle" fill="#111D5F" x="75.2727273" y="217.818182" width="1.45454545" height="1.45454545"></rect>
            <rect id="Rectangle" fill="#111D5F" x="78.1818182" y="217.818182" width="1.45454545" height="1.45454545"></rect>
            <path d="M89.8181818,231.636364 C91.4248284,231.636364 92.7272727,230.333919 92.7272727,228.727273 C92.7272727,227.120626 91.4248284,225.818182 89.8181818,225.818182 C88.2115353,225.818182 86.9090909,227.120626 86.9090909,228.727273 C86.9108945,230.333172 88.2122829,231.63456 89.8181818,231.636364 Z M89.8181818,227.272727 C90.6215051,227.272727 91.2727273,227.923949 91.2727273,228.727273 C91.2727273,229.530596 90.6215051,230.181818 89.8181818,230.181818 C89.0148585,230.181818 88.3636364,229.530596 88.3636364,228.727273 C88.3644382,227.924282 89.0151909,227.273529 89.8181818,227.272727 Z" id="Shape" fill="#111D5F" fill-rule="nonzero"></path>
            <path d="M105.818182,230.181818 C105.818182,231.788465 107.120626,233.090909 108.727273,233.090909 C110.333919,233.090909 111.636364,231.788465 111.636364,230.181818 C111.636364,228.575172 110.333919,227.272727 108.727273,227.272727 C107.121374,227.274531 105.819985,228.575919 105.818182,230.181818 Z M108.727273,228.727273 C109.530596,228.727273 110.181818,229.378495 110.181818,230.181818 C110.181818,230.985141 109.530596,231.636364 108.727273,231.636364 C107.923949,231.636364 107.272727,230.985141 107.272727,230.181818 C107.273529,229.378827 107.924282,228.728075 108.727273,228.727273 Z" id="Shape" fill="#111D5F" fill-rule="nonzero"></path>
            <path d="M70.9090909,233.090909 C72.5157375,233.090909 73.8181818,231.788465 73.8181818,230.181818 C73.8181818,228.575172 72.5157375,227.272727 70.9090909,227.272727 C69.3024444,227.272727 68,228.575172 68,230.181818 C68.0018036,231.787717 69.303192,233.089105 70.9090909,233.090909 Z M70.9090909,228.727273 C71.7124142,228.727273 72.3636364,229.378495 72.3636364,230.181818 C72.3636364,230.985141 71.7124142,231.636364 70.9090909,231.636364 C70.1057676,231.636364 69.4545455,230.985141 69.4545455,230.181818 C69.4553472,229.378827 70.1061,228.728075 70.9090909,228.727273 Z" id="Shape" fill="#111D5F" fill-rule="nonzero"></path>
            <path d="M204.365987,291.940517 C204.137527,291.712135 203.767312,291.712135 203.53893,291.940517 L202.114603,293.364845 L201.306026,292.55619 C201.077644,292.327808 200.707351,292.327808 200.479047,292.55619 C200.250587,292.784572 200.250587,293.154786 200.478969,293.383168 L201.701113,294.605313 C201.929417,294.833539 202.29971,294.833695 202.52817,294.605313 L204.365987,292.767496 C204.594369,292.539192 204.594369,292.168899 204.365987,291.940517 Z" id="Path" fill="#111D5F"></path>
            <path d="M204.365987,296.863594 C204.137527,296.635212 203.767312,296.635212 203.53893,296.863594 L202.114603,298.287922 L201.306026,297.479267 C201.077644,297.250885 200.707351,297.250807 200.479047,297.479267 C200.250587,297.707649 200.250587,298.077863 200.478969,298.306245 L201.701113,299.52839 C201.929417,299.756616 202.29971,299.756772 202.52817,299.52839 L204.365987,297.690573 C204.594369,297.462191 204.594369,297.091898 204.365987,296.863594 Z" id="Path" fill="#111D5F"></path>
            <path d="M204.365987,302.402056 C204.137527,302.173674 203.767312,302.173674 203.53893,302.402056 L202.114603,303.826383 L201.306026,303.017728 C201.077644,302.789346 200.707351,302.789346 200.479047,303.017728 C200.250587,303.24611 200.250587,303.616325 200.478969,303.844707 L201.701113,305.066851 C201.929417,305.295077 202.29971,305.295233 202.52817,305.066851 L204.365987,303.229034 C204.594369,303.00073 204.594369,302.630438 204.365987,302.402056 Z" id="Path" fill="#111D5F"></path>
            <path d="M190.690448,324.922339 L225.231735,324.922339 C226.715244,324.922339 227.922183,323.706199 227.922183,322.211306 L227.922183,320.635244 C227.922183,320.060117 227.456296,319.592281 226.883665,319.592281 L224.884133,319.592281 C225.362183,319.014893 225.648967,318.278752 225.648967,317.493567 L225.648967,309.08499 C225.648967,308.762027 225.387212,308.500195 225.064172,308.500195 C224.741131,308.500195 224.479376,308.762027 224.479376,309.08499 L224.479376,317.493489 C224.479376,318.515322 223.728343,319.409903 222.725458,319.592203 L193.196725,319.592203 C192.19384,319.409903 191.442885,318.5154 191.442885,317.493489 L191.442885,297.107836 C191.442885,295.931696 192.399688,294.974893 193.575828,294.974893 L196.733723,294.974893 L196.733723,296.228538 L193.787135,296.228538 C193.195867,296.228538 192.714776,296.70963 192.714776,297.300975 L192.714776,317.269942 C192.714776,317.861287 193.195867,318.342378 193.787135,318.342378 L222.134971,318.342378 C222.726238,318.342378 223.207329,317.861287 223.207329,317.269942 L223.207329,297.300897 C223.207329,296.709552 222.726238,296.22846 222.134971,296.22846 L219.18846,296.22846 L219.18846,294.974815 L222.346355,294.974815 C223.522495,294.974815 224.479298,295.931618 224.479298,297.107758 L224.479298,306.355945 C224.479298,306.678908 224.741053,306.940741 225.064094,306.940741 C225.387135,306.940741 225.648889,306.678908 225.648889,306.355945 L225.648889,297.107836 C225.648889,295.286784 224.167329,293.805302 222.346355,293.805302 L219.18846,293.805302 L219.18846,286.608421 C219.18846,285.721481 218.466901,285 217.580039,285 L209.325614,285 C209.002573,285 208.740819,285.261832 208.740819,285.584795 C208.740819,285.907758 209.002573,286.169591 209.325614,286.169591 L217.580039,286.169591 C217.822066,286.169591 218.018869,286.366394 218.018869,286.608343 L218.018869,313.554854 C218.018869,313.786979 217.830019,313.975828 217.597895,313.975828 L198.324366,313.975828 C198.092164,313.975828 197.903392,313.786979 197.903392,313.554854 C197.903392,312.705653 197.903392,291.614269 197.903392,290.70924 L200.834698,290.70924 C201.721559,290.70924 202.443041,289.987758 202.443041,289.100897 L202.443041,286.169591 L206.596647,286.169591 C206.919688,286.169591 207.181442,285.907758 207.181442,285.584795 C207.181442,285.261832 206.919688,285 206.596647,285 L201.858246,285 C201.698869,285 201.549786,285.066277 201.444678,285.171306 L196.905029,289.710955 C196.80078,289.815205 196.733801,289.965926 196.733801,290.124444 L196.733801,293.805224 L193.575906,293.805224 C191.754932,293.805224 190.273372,295.286706 190.273372,297.107758 L190.273372,317.493489 C190.273372,318.278674 190.560078,319.014815 191.038207,319.592203 L189.038519,319.592203 C188.465809,319.592203 188,320.060039 188,320.635166 L188,322.211228 C188,323.706199 189.206862,324.922339 190.690448,324.922339 Z M201.273372,286.996647 L201.273372,289.100897 C201.273372,289.342846 201.076569,289.539649 200.83462,289.539649 L198.73037,289.539649 L201.273372,286.996647 Z M198.324366,315.145497 L217.597895,315.145497 C218.474776,315.145497 219.18846,314.432125 219.18846,313.554932 L219.18846,297.398051 L222.037739,297.398051 L222.037739,317.17271 L193.884444,317.17271 L193.884444,297.398051 L196.733801,297.398051 L196.733801,313.554854 C196.733801,314.431891 197.447251,315.145497 198.324366,315.145497 Z M202.893411,320.761871 L213.028772,320.761871 L213.028772,321.234464 C213.028772,321.42963 212.867992,321.594542 212.677817,321.594542 L203.244366,321.594542 C203.054191,321.594542 202.893411,321.42963 202.893411,321.234464 L202.893411,320.761871 Z M189.169591,320.761871 L201.723821,320.761871 L201.723821,321.234464 C201.723821,322.077895 202.405926,322.764133 203.244366,322.764133 L212.677817,322.764133 C213.516257,322.764133 214.198363,322.077895 214.198363,321.234464 L214.198363,320.761871 L226.752593,320.761871 L226.752593,322.211306 C226.752593,323.061287 226.070331,323.752749 225.231735,323.752749 L190.690448,323.752749 C189.851852,323.752749 189.169591,323.061287 189.169591,322.211306 L189.169591,320.761871 Z" id="Shape" fill="#111D5F" fill-rule="nonzero"></path>
            <path d="M215.959214,291.769231 L206.430949,291.769231 C206.107908,291.769231 205.846154,292.031063 205.846154,292.354026 C205.846154,292.676989 206.107908,292.938821 206.430949,292.938821 L215.959214,292.938821 C216.282255,292.938821 216.54401,292.676989 216.54401,292.354026 C216.54401,292.031063 216.282255,291.769231 215.959214,291.769231 Z" id="Path" fill="#111D5F"></path>
            <path d="M215.959214,293.615385 L206.430949,293.615385 C206.107908,293.615385 205.846154,293.877217 205.846154,294.20018 C205.846154,294.523143 206.107908,294.784975 206.430949,294.784975 L215.959214,294.784975 C216.282255,294.784975 216.54401,294.523143 216.54401,294.20018 C216.54401,293.877217 216.282255,293.615385 215.959214,293.615385 Z" id="Path" fill="#111D5F"></path>
            <path d="M215.959214,296.692308 L206.430949,296.692308 C206.107908,296.692308 205.846154,296.95414 205.846154,297.277103 C205.846154,297.600066 206.107908,297.861898 206.430949,297.861898 L215.959214,297.861898 C216.282255,297.861898 216.54401,297.600066 216.54401,297.277103 C216.54401,296.95414 216.282255,296.692308 215.959214,296.692308 Z" id="Path" fill="#111D5F"></path>
            <path d="M215.959214,299.153846 L206.430949,299.153846 C206.107908,299.153846 205.846154,299.415679 205.846154,299.738641 C205.846154,300.061604 206.107908,300.323437 206.430949,300.323437 L215.959214,300.323437 C216.282255,300.323437 216.54401,300.061604 216.54401,299.738641 C216.54401,299.415679 216.282255,299.153846 215.959214,299.153846 Z" id="Path" fill="#111D5F"></path>
            <path d="M215.959214,302.230769 L206.430949,302.230769 C206.107908,302.230769 205.846154,302.492602 205.846154,302.815565 C205.846154,303.138528 206.107908,303.40036 206.430949,303.40036 L215.959214,303.40036 C216.282255,303.40036 216.54401,303.138528 216.54401,302.815565 C216.54401,302.492602 216.282255,302.230769 215.959214,302.230769 Z" id="Path" fill="#111D5F"></path>
            <path d="M215.959214,304.692308 L206.430949,304.692308 C206.107908,304.692308 205.846154,304.95414 205.846154,305.277103 C205.846154,305.600066 206.107908,305.861898 206.430949,305.861898 L215.959214,305.861898 C216.282255,305.861898 216.54401,305.600066 216.54401,305.277103 C216.54401,304.95414 216.282255,304.692308 215.959214,304.692308 Z" id="Path" fill="#111D5F"></path>
            <path d="M203.53894,307.940517 L202.114612,309.364845 L201.306035,308.55619 C201.077575,308.327808 200.707361,308.327808 200.478979,308.55619 C200.250597,308.784572 200.250597,309.154864 200.478979,309.383168 L201.701123,310.605313 C201.929583,310.833695 202.299798,310.833695 202.52818,310.605313 L204.365996,308.767496 C204.594378,308.539114 204.594378,308.168821 204.365996,307.940517 C204.137536,307.712135 203.767322,307.712135 203.53894,307.940517 Z" id="Path" fill="#111D5F"></path>
            <path d="M215.959214,307.769231 L206.430949,307.769231 C206.107908,307.769231 205.846154,308.031063 205.846154,308.354026 C205.846154,308.676989 206.107908,308.938821 206.430949,308.938821 L215.959214,308.938821 C216.282255,308.938821 216.54401,308.676989 216.54401,308.354026 C216.54401,308.031063 216.282255,307.769231 215.959214,307.769231 Z" id="Path" fill="#111D5F"></path>
            <path d="M215.959214,310.230769 L206.430949,310.230769 C206.107908,310.230769 205.846154,310.492602 205.846154,310.815565 C205.846154,311.138528 206.107908,311.40036 206.430949,311.40036 L215.959214,311.40036 C216.282255,311.40036 216.54401,311.138528 216.54401,310.815565 C216.54401,310.492602 216.282255,310.230769 215.959214,310.230769 Z" id="Path" fill="#111D5F"></path>
            <path d="M135.5625,430.9375 C135.13125,430.9375 134.78125,431.2875 134.78125,431.71875 C134.78125,432.15 135.13125,432.5 135.5625,432.5 C135.99375,432.5 136.34375,432.15 136.34375,431.71875 C136.34375,431.2875 135.99375,430.9375 135.5625,430.9375 Z" id="Path" fill="#111D5F"></path>
            <path d="M137.486094,428.411172 L133.772812,427.173672 L132.439766,424.5075 C133.640703,423.285156 134.474531,421.667813 134.755703,419.980859 L134.921953,418.984375 L136.34375,418.984375 C137.636094,418.984375 138.6875,417.932969 138.6875,416.640625 L138.6875,411.71875 C138.6875,405.257031 133.430469,400 126.96875,400 C120.490469,400 115.25,405.241953 115.25,411.71875 L115.25,416.640625 C115.25,417.659063 115.903203,418.5275 116.8125,418.85 L116.8125,419.765625 C116.8125,421.057969 117.863906,422.109375 119.15625,422.109375 L119.842344,422.109375 C120.181016,422.845078 120.619375,423.526484 121.152812,424.138594 C121.263437,424.265781 121.378828,424.389063 121.497031,424.508984 L120.164687,427.173672 L116.451328,428.41125 C112.13375,429.850937 109,434.396172 109,439.21875 C109,439.650234 109.349766,440 109.78125,440 L144.15625,440 C144.587656,440 144.9375,439.650234 144.9375,439.21875 C144.9375,434.396172 141.803828,429.850937 137.486094,428.411172 Z M137.125,416.640625 C137.125,417.071406 136.774531,417.421875 136.34375,417.421875 L135.151406,417.421875 C135.35,415.883594 135.482344,414.246641 135.535547,412.634375 C135.537109,412.588906 135.538359,412.544688 135.539766,412.5 L137.125,412.5 L137.125,416.640625 Z M117.59375,417.421875 C117.162969,417.421875 116.8125,417.071406 116.8125,416.640625 L116.8125,412.5 L118.398281,412.5 C118.400859,412.581484 118.403594,412.663359 118.406641,412.745781 C118.406719,412.748594 118.406875,412.751328 118.406953,412.754141 C118.406953,412.754375 118.406953,412.754609 118.406953,412.754844 C118.461641,414.322969 118.592266,415.917422 118.786328,417.421797 L117.59375,417.421797 L117.59375,417.421875 Z M119.15625,420.546875 C118.725469,420.546875 118.375,420.196406 118.375,419.765625 L118.375,418.984375 L119.015469,418.984375 L119.181719,419.981172 C119.213437,420.170625 119.252422,420.359375 119.2975,420.546875 L119.15625,420.546875 Z M118.376328,410.9375 L116.842187,410.9375 C117.237891,405.701484 121.607578,401.5625 126.96875,401.5625 C132.306094,401.5625 136.695,405.700938 137.095234,410.9375 L135.56125,410.9375 C135.505,406.622891 131.991484,403.125 127.668047,403.125 L126.269609,403.125 C121.94625,403.125 118.4325,406.622891 118.376328,410.9375 Z M126.269531,404.6875 L127.667969,404.6875 C131.168672,404.6875 134.002031,407.550859 134,411.047656 C134,411.293516 133.998047,411.507578 133.993906,411.702344 C133.993906,411.704844 133.993828,411.707422 133.993828,411.71 L133.016641,411.570391 C130.361953,411.191328 127.855391,409.938047 125.958672,408.041328 C125.812109,407.894844 125.613438,407.8125 125.40625,407.8125 C123.308125,407.8125 121.299688,408.768438 119.972031,410.383438 C120.299219,407.202266 122.988516,404.6875 126.269531,404.6875 Z M120.917187,420.546875 C120.526094,419.245859 120.078594,415.417734 119.979687,412.964609 L121.031172,411.562578 C121.996875,410.275391 123.499297,409.475625 125.0975,409.383828 C127.200391,411.385078 129.920859,412.706641 132.795703,413.117109 L133.945859,413.281484 C133.868984,414.913125 133.711875,416.550469 133.486797,418.056328 C133.486719,418.056797 133.486641,418.057344 133.486563,418.057891 C133.415,418.542031 133.358594,418.853594 133.214531,419.723828 C132.800781,422.205469 130.949062,424.449609 128.504609,425.060781 C127.498594,425.311953 126.43875,425.311875 125.433281,425.060781 C123.906953,424.679219 122.507422,423.623125 121.604219,422.109375 L123.196875,422.109375 C123.519375,423.018672 124.387734,423.671875 125.40625,423.671875 L126.96875,423.671875 C128.263672,423.671875 129.3125,422.623125 129.3125,421.328125 C129.3125,420.035781 128.261094,418.984375 126.96875,418.984375 L125.40625,418.984375 C124.365078,418.984375 123.509531,419.656875 123.195547,420.546875 L120.917187,420.546875 Z M125.340547,426.641875 C125.876406,426.754766 126.422734,426.8125 126.96875,426.8125 C127.396172,426.8125 127.823672,426.776719 128.246328,426.707344 L126.865859,428.167266 L125.340547,426.641875 Z M125.791797,429.303047 L123.313828,431.923516 C122.631641,430.617734 122.045469,429.25875 121.564688,427.8675 L122.495234,426.006406 L125.791797,429.303047 Z M131.309844,425.741719 L132.372656,427.867422 C131.891094,429.261016 131.304766,430.620469 130.623281,431.924688 L127.971094,429.2725 L131.309844,425.741719 Z M124.625,421.328125 C124.625,420.896797 124.974844,420.546875 125.40625,420.546875 L126.96875,420.546875 C127.399531,420.546875 127.75,420.897344 127.75,421.328125 C127.75,421.759531 127.400078,422.109375 126.96875,422.109375 L125.40625,422.109375 C124.975469,422.109375 124.625,421.758906 124.625,421.328125 Z M110.59375,438.4375 C110.903359,434.567266 113.479062,431.049453 116.945469,429.893516 L120.234062,428.797578 C120.836562,430.463594 121.582969,432.082891 122.457734,433.621016 C122.459219,433.623672 122.460625,433.626328 122.462109,433.628906 C122.462109,433.628984 122.462187,433.628984 122.462187,433.629063 C123.101328,434.753203 123.820703,435.851719 124.600625,436.894609 L125.561719,438.4375 L110.59375,438.4375 Z M126.96875,437.741094 L125.909219,436.040078 C125.897344,436.021016 125.884687,436.0025 125.87125,435.984531 C125.238594,435.140625 124.648438,434.258047 124.110938,433.354688 L126.897109,430.408281 L129.832891,433.344063 C129.291797,434.253984 128.699609,435.140234 128.066406,435.984375 C128.028125,436.035391 128.082422,435.955 126.96875,437.741094 Z M128.375781,438.4375 L129.336797,436.894688 C130.120156,435.847813 130.844687,434.740469 131.490234,433.603125 C131.494141,433.59625 131.497813,433.589219 131.501719,433.582344 C131.502187,433.581484 131.502656,433.580703 131.503125,433.579844 C132.366797,432.056406 133.105391,430.451172 133.703438,428.797578 L136.991953,429.893516 C140.458438,431.049453 143.034141,434.567266 143.34375,438.4375 L128.375781,438.4375 Z" id="Shape" fill="#111D5F" fill-rule="nonzero"></path>
            <path d="M140.995781,435.275859 C140.473672,434.230781 139.708906,433.302344 138.784141,432.590937 C138.442109,432.327734 137.951641,432.391719 137.688594,432.73375 C137.425469,433.075781 137.489453,433.56625 137.831406,433.829375 C138.57,434.397578 139.180781,435.139219 139.597891,435.974141 C139.791094,436.360781 140.260625,436.516406 140.645937,436.323906 C141.031875,436.131094 141.188516,435.661875 140.995781,435.275859 Z" id="Path" fill="#111D5F"></path>
            <path d="M251,502 C251,495.383333 245.616667,490 239,490 C232.383333,490 227,495.383333 227,502 C227,503.018 227.141333,504.000667 227.380667,504.945333 L226.193333,505.738 C225.859333,505.487333 225.448667,505.333333 225,505.333333 C224.551333,505.333333 224.140667,505.487333 223.806667,505.738 L220.933333,503.819333 C220.972667,503.662667 221,503.502 221,503.333333 C221,502.230667 220.102667,501.333333 219,501.333333 C217.897333,501.333333 217,502.230667 217,503.333333 C217,503.502 217.027333,503.662667 217.066667,503.819333 L214.193333,505.738 C213.859333,505.487333 213.448667,505.333333 213,505.333333 C211.897333,505.333333 211,506.230667 211,507.333333 C211,508.436 211.897333,509.333333 213,509.333333 C214.102667,509.333333 215,508.436 215,507.333333 C215,507.164667 214.972667,507.004 214.933333,506.847333 L217.806667,504.928667 C218.140667,505.179333 218.551333,505.333333 219,505.333333 C219.448667,505.333333 219.859333,505.179333 220.193333,504.928667 L223.066667,506.847333 C223.027333,507.004 223,507.164667 223,507.333333 C223,508.436 223.897333,509.333333 225,509.333333 C226.102667,509.333333 227,508.436 227,507.333333 C227,507.164667 226.972667,507.004 226.933333,506.847333 L227.798667,506.269333 C229.294667,510.178667 232.771333,513.105333 237,513.819333 L237,516.666667 L236.333333,516.666667 C235.964667,516.666667 235.666667,516.965333 235.666667,517.333333 L235.666667,526.666667 C235.666667,528.504667 237.162,530 239,530 C240.838,530 242.333333,528.504667 242.333333,526.666667 L242.333333,517.333333 C242.333333,516.965333 242.035333,516.666667 241.666667,516.666667 L241,516.666667 L241,513.819333 C246.666,512.862667 251,507.934 251,502 Z M213,508 C212.632,508 212.333333,507.700667 212.333333,507.333333 C212.333333,506.966 212.632,506.666667 213,506.666667 C213.368,506.666667 213.666667,506.966 213.666667,507.333333 C213.666667,507.700667 213.368,508 213,508 Z M219,504 C218.632,504 218.333333,503.700667 218.333333,503.333333 C218.333333,502.966 218.632,502.666667 219,502.666667 C219.368,502.666667 219.666667,502.966 219.666667,503.333333 C219.666667,503.700667 219.368,504 219,504 Z M225,508 C224.632,508 224.333333,507.700667 224.333333,507.333333 C224.333333,506.966 224.632,506.666667 225,506.666667 C225.368,506.666667 225.666667,506.966 225.666667,507.333333 C225.666667,507.700667 225.368,508 225,508 Z M228.938667,505.508667 L229.806667,504.928667 C230.140667,505.179333 230.551333,505.333333 231,505.333333 C231.448667,505.333333 231.859333,505.179333 232.193333,504.928667 L235.066667,506.847333 C235.027333,507.004 235,507.164667 235,507.333333 C235,508.436 235.897333,509.333333 237,509.333333 C238.102667,509.333333 239,508.436 239,507.333333 C239,507.025333 238.924667,506.737333 238.799333,506.476667 L244.333333,500.942667 L244.333333,504 L245.666667,504 L245.666667,499.333333 C245.666667,498.965333 245.368667,498.666667 245,498.666667 L240.333333,498.666667 L240.333333,500 L243.390667,500 L237.856667,505.534 C237.596,505.408667 237.308,505.333333 237,505.333333 C236.551333,505.333333 236.140667,505.487333 235.806667,505.738 L232.933333,503.819333 C232.972667,503.662667 233,503.502 233,503.333333 C233,502.230667 232.102667,501.333333 231,501.333333 C229.897333,501.333333 229,502.230667 229,503.333333 C229,503.502 229.027333,503.662667 229.066667,503.819333 L228.554,504.161333 C228.41,503.463333 228.333333,502.740667 228.333333,502 C228.333333,496.118667 233.118667,491.333333 239,491.333333 C244.881333,491.333333 249.666667,496.118667 249.666667,502 C249.666667,507.881333 244.881333,512.666667 239,512.666667 C234.348667,512.666667 230.394,509.669333 228.938667,505.508667 Z M230.333333,503.333333 C230.333333,502.966 230.632,502.666667 231,502.666667 C231.368,502.666667 231.666667,502.966 231.666667,503.333333 C231.666667,503.700667 231.368,504 231,504 C230.632,504 230.333333,503.700667 230.333333,503.333333 Z M237.666667,507.333333 C237.666667,507.700667 237.368,508 237,508 C236.632,508 236.333333,507.700667 236.333333,507.333333 C236.333333,506.966 236.632,506.666667 237,506.666667 C237.368,506.666667 237.666667,506.966 237.666667,507.333333 Z M241,526.666667 C241,527.769333 240.102667,528.666667 239,528.666667 C237.897333,528.666667 237,527.769333 237,526.666667 L237,518 L241,518 L241,526.666667 Z M239.666667,516.666667 L238.333333,516.666667 L238.333333,513.966 C238.555333,513.978667 238.774667,514 239,514 C239.225333,514 239.444667,513.978667 239.666667,513.966 L239.666667,516.666667 Z" id="Shape" fill="#111D5F" fill-rule="nonzero"></path>
            <path d="M231.838959,505.568862 L230.640719,506.200396 C231.415216,507.70268 232.572907,508.975315 233.990792,509.88024 L234.712575,508.724479 C233.496087,507.948048 232.502621,506.856534 231.838959,505.568862 Z" id="Path" fill="#111D5F"></path>
            <path d="M248.365269,501.976048 C248.365269,496.824979 244.172742,492.634731 239.018871,492.634731 C234.66345,492.634731 230.92222,495.589923 229.922156,499.820873 L231.221973,500.127802 C232.078503,496.501369 235.284985,493.969204 239.018871,493.969204 C243.43638,493.969204 247.03007,497.560941 247.03007,501.976048 C247.03007,506.391155 243.43638,509.982891 239.018871,509.982891 C238.606295,509.982891 238.191048,509.951531 237.785147,509.888811 L237.581529,511.207938 C238.054857,511.280667 238.537532,511.317365 239.018871,511.317365 C244.172742,511.317365 248.365269,507.127117 248.365269,501.976048 Z" id="Path" fill="#111D5F"></path>
            <polygon id="Path" fill="#111D5F" points="211 490 215.071856 490 215.071856 491.437126 211 491.437126"></polygon>
            <polygon id="Path" fill="#111D5F" points="216.269461 490 225.610778 490 225.610778 491.437126 216.269461 491.437126"></polygon>
            <polygon id="Path" fill="#111D5F" points="211 492.634731 219.622754 492.634731 219.622754 494.071856 211 494.071856"></polygon>
            <polygon id="Path" fill="#111D5F" points="221.05988 492.634731 225.610778 492.634731 225.610778 494.071856 221.05988 494.071856"></polygon>
            <polygon id="Path" fill="#111D5F" points="211 495.269461 212.437126 495.269461 212.437126 496.706587 211 496.706587"></polygon>
            <polygon id="Path" fill="#111D5F" points="213.634731 495.269461 217.706587 495.269461 217.706587 496.706587 213.634731 496.706587"></polygon>
            <polygon id="Path" fill="#111D5F" points="218.904192 495.269461 225.610778 495.269461 225.610778 496.706587 218.904192 496.706587"></polygon>
            <polygon id="Path" fill="#111D5F" points="211 497.904192 215.550898 497.904192 215.550898 499.341317 211 499.341317"></polygon>
            <polygon id="Path" fill="#111D5F" points="216.988024 497.904192 225.610778 497.904192 225.610778 499.341317 216.988024 499.341317"></polygon>
            <path d="M233.621424,521.993157 C233.621424,521.624842 233.324019,521.32592 232.956088,521.32592 L229.629408,521.32592 L229.629408,518.656972 C229.629408,518.288657 229.332003,517.989735 228.964072,517.989735 L225.637392,517.989735 L225.637392,515.320787 C225.637392,514.952472 225.339987,514.65355 224.972056,514.65355 L221.645376,514.65355 L221.645376,511.984602 C221.645376,511.616287 221.347971,511.317365 220.98004,511.317365 L216.988024,511.317365 C216.620093,511.317365 216.322688,511.616287 216.322688,511.984602 L216.322688,517.989735 L212.996008,517.989735 C212.628077,517.989735 212.330672,518.288657 212.330672,518.656972 L212.330672,528.665526 L211,528.665526 L211,530 L234.952096,530 L234.952096,528.665526 L233.621424,528.665526 L233.621424,521.993157 Z M213.661344,519.324209 L216.322688,519.324209 L216.322688,528.665526 L213.661344,528.665526 L213.661344,519.324209 Z M217.65336,518.656972 L217.65336,512.651839 L220.314704,512.651839 L220.314704,515.320787 L220.314704,528.665526 L217.65336,528.665526 L217.65336,518.656972 Z M221.645376,515.988024 L224.30672,515.988024 L224.30672,518.656972 L224.30672,528.665526 L221.645376,528.665526 L221.645376,515.988024 Z M225.637392,519.324209 L228.298736,519.324209 L228.298736,521.993157 L228.298736,528.665526 L225.637392,528.665526 L225.637392,519.324209 Z M229.629408,528.665526 L229.629408,522.660393 L232.290752,522.660393 L232.290752,528.665526 L229.629408,528.665526 Z" id="Shape" fill="#111D5F" fill-rule="nonzero"></path>
        </g>
    </g>
</svg>